<svg width="42" height="18" viewBox="0 0 42 18" fill="none" xmlns="http://www.w3.org/2000/svg">
<path d="M15.7295 15.4785L12.5547 16.8506L10.6973 13.0781H5.88574L4.12598 16.8506L1 15.4785L8.33008 1L15.7295 15.4785ZM6.71582 10.2568H9.8916L8.32031 7.20996L6.71582 10.2568Z" fill="#76C69D"/>
<path d="M15.7295 15.4785L15.8088 15.6621L16.0047 15.5775L15.9076 15.3875L15.7295 15.4785ZM12.5547 16.8506L12.3753 16.9389L12.4593 17.1097L12.634 17.0342L12.5547 16.8506ZM10.6973 13.0781L10.8767 12.9898L10.8217 12.8781H10.6973V13.0781ZM5.88574 13.0781V12.8781H5.75835L5.70449 12.9936L5.88574 13.0781ZM4.12598 16.8506L4.04559 17.0337L4.22459 17.1123L4.30723 16.9351L4.12598 16.8506ZM1 15.4785L0.821565 15.3882L0.726113 15.5767L0.919617 15.6617L1 15.4785ZM8.33008 1L8.50817 0.908985L8.32924 0.558871L8.15164 0.909663L8.33008 1ZM6.71582 10.2568L6.53886 10.1636L6.38446 10.4568H6.71582V10.2568ZM9.8916 10.2568V10.4568H10.2198L10.0694 10.1652L9.8916 10.2568ZM8.32031 7.20996L8.49807 7.11829L8.32217 6.7772L8.14335 7.11677L8.32031 7.20996ZM15.7295 15.4785L15.6501 15.2949L12.4753 16.667L12.5547 16.8506L12.634 17.0342L15.8088 15.6621L15.7295 15.4785ZM12.5547 16.8506L12.7341 16.7622L10.8767 12.9898L10.6973 13.0781L10.5178 13.1665L12.3753 16.9389L12.5547 16.8506ZM10.6973 13.0781V12.8781H5.88574V13.0781V13.2781H10.6973V13.0781ZM5.88574 13.0781L5.70449 12.9936L3.94473 16.766L4.12598 16.8506L4.30723 16.9351L6.06699 13.1627L5.88574 13.0781ZM4.12598 16.8506L4.20636 16.6675L1.08038 15.2954L1 15.4785L0.919617 15.6617L4.04559 17.0337L4.12598 16.8506ZM1 15.4785L1.17844 15.5689L8.50851 1.09034L8.33008 1L8.15164 0.909663L0.821565 15.3882L1 15.4785ZM8.33008 1L8.15199 1.09102L15.5514 15.5695L15.7295 15.4785L15.9076 15.3875L8.50817 0.908985L8.33008 1ZM6.71582 10.2568V10.4568H9.8916V10.2568V10.0568H6.71582V10.2568ZM9.8916 10.2568L10.0694 10.1652L8.49807 7.11829L8.32031 7.20996L8.14256 7.30163L9.71385 10.3485L9.8916 10.2568ZM8.32031 7.20996L8.14335 7.11677L6.53886 10.1636L6.71582 10.2568L6.89278 10.35L8.49728 7.30315L8.32031 7.20996Z" fill="#303030"/>
<path fill-rule="evenodd" clip-rule="evenodd" d="M17.5155 1.34982C17.5155 1.34982 21.8437 0.92199 23.7128 1.7092C25.529 2.47415 26.4319 4.59545 25.6122 6.23556C24.9072 7.64596 23.3729 8.14181 23.3729 8.14181C23.3794 8.14283 26.2379 8.59 26.7294 11.2795C27.0259 12.9032 26.4766 14.7941 25.0565 15.5383C22.3473 16.9577 17.5155 16.5676 17.5155 16.5676V1.34982ZM23.7509 12.0695C23.5471 9.75015 19.994 10.0949 19.994 10.0949V13.8371C19.994 13.8371 23.924 14.0445 23.7509 12.0695ZM22.954 4.82736C22.8963 3.15949 20.1031 3.46924 20.0624 3.47385V6.59494C20.1024 6.59368 23.0114 6.49603 22.954 4.82736Z" fill="#D6B689"/>
<path d="M17.5155 1.34982L17.4958 1.15079L17.3155 1.16862V1.34982H17.5155ZM23.7128 1.7092L23.7904 1.52488L23.7904 1.52488L23.7128 1.7092ZM25.6122 6.23556L25.7911 6.32498L25.7911 6.32498L25.6122 6.23556ZM23.3729 8.14181L23.3114 7.95151L23.3421 8.33942L23.3729 8.14181ZM26.7294 11.2795L26.9261 11.2436L26.9261 11.2436L26.7294 11.2795ZM25.0565 15.5383L25.1493 15.7155L25.1494 15.7154L25.0565 15.5383ZM17.5155 16.5676H17.3155V16.7521L17.4994 16.7669L17.5155 16.5676ZM23.7509 12.0695L23.9501 12.0521L23.9501 12.052L23.7509 12.0695ZM19.994 10.0949L19.9747 9.89587L19.794 9.91341V10.0949H19.994ZM19.994 13.8371H19.794V14.0269L19.9835 14.0368L19.994 13.8371ZM22.954 4.82736L23.1539 4.82048L23.1539 4.82045L22.954 4.82736ZM20.0624 3.47385L20.0399 3.27511L19.8624 3.2952V3.47385H20.0624ZM20.0624 6.59494H19.8624V6.80133L20.0687 6.79484L20.0624 6.59494ZM17.5155 1.34982C17.5352 1.54885 17.5352 1.54885 17.5352 1.54885C17.5352 1.54885 17.5352 1.54885 17.5353 1.54884C17.5354 1.54883 17.5356 1.54881 17.5358 1.54879C17.5363 1.54875 17.537 1.54867 17.538 1.54858C17.5399 1.54839 17.5429 1.5481 17.5469 1.54772C17.5549 1.54696 17.567 1.54583 17.5828 1.54438C17.6144 1.54148 17.6613 1.53732 17.7217 1.53229C17.8426 1.52222 18.0177 1.50868 18.2338 1.49487C18.6661 1.46723 19.2615 1.43855 19.9145 1.4343C20.568 1.43005 21.2763 1.4503 21.9349 1.51984C22.5966 1.58969 23.1947 1.70801 23.6351 1.89352L23.7128 1.7092L23.7904 1.52488C23.2963 1.31678 22.6525 1.19338 21.9769 1.12205C21.2984 1.0504 20.5741 1.03 19.9119 1.03431C19.2493 1.03862 18.6459 1.0677 18.2082 1.09568C17.9893 1.10968 17.8117 1.12341 17.6885 1.13367C17.627 1.13879 17.579 1.14305 17.5463 1.14604C17.53 1.14753 17.5175 1.14871 17.509 1.14952C17.5048 1.14992 17.5015 1.15024 17.4993 1.15045C17.4982 1.15056 17.4974 1.15064 17.4968 1.1507C17.4965 1.15073 17.4963 1.15075 17.4961 1.15076C17.496 1.15077 17.496 1.15078 17.4959 1.15078C17.4959 1.15079 17.4958 1.15079 17.5155 1.34982ZM23.7128 1.7092L23.6351 1.89352C25.3612 2.62051 26.1937 4.62463 25.4333 6.14615L25.6122 6.23556L25.7911 6.32498C26.6701 4.56627 25.6967 2.3278 23.7904 1.52488L23.7128 1.7092ZM25.6122 6.23556L25.4333 6.14615C25.1024 6.8081 24.5741 7.26034 24.1208 7.54887C23.895 7.69264 23.6903 7.79412 23.5427 7.85941C23.4691 7.89201 23.4099 7.91547 23.3698 7.93058C23.3497 7.93813 23.3344 7.94358 23.3245 7.94704C23.3196 7.94877 23.3159 7.95 23.3137 7.95074C23.3126 7.95111 23.3119 7.95135 23.3115 7.95148C23.3113 7.95155 23.3112 7.95158 23.3112 7.95158C23.3112 7.95159 23.3112 7.95158 23.3112 7.95157C23.3113 7.95156 23.3113 7.95155 23.3113 7.95154C23.3114 7.95152 23.3114 7.95151 23.3729 8.14181C23.4344 8.33212 23.4345 8.3321 23.4346 8.33208C23.4346 8.33206 23.4347 8.33204 23.4348 8.33202C23.4349 8.33197 23.435 8.33192 23.4352 8.33186C23.4356 8.33175 23.436 8.3316 23.4366 8.33142C23.4377 8.33106 23.4391 8.33057 23.441 8.32996C23.4446 8.32874 23.4497 8.32701 23.4561 8.32476C23.469 8.32027 23.4874 8.31369 23.5107 8.30493C23.5572 8.28741 23.6234 8.26111 23.7046 8.22519C23.8668 8.15343 24.0898 8.0428 24.3356 7.88631C24.8257 7.57431 25.417 7.07343 25.7911 6.32498L25.6122 6.23556ZM23.3729 8.14181L23.3421 8.33942C23.3341 8.33818 24.0229 8.44516 24.7693 8.87572C25.5122 9.30422 26.3005 10.0452 26.5326 11.3155L26.7294 11.2795L26.9261 11.2436C26.6667 9.8243 25.7801 8.99695 24.9692 8.52923C24.1619 8.06358 23.4182 7.94646 23.4038 7.94421L23.3729 8.14181ZM26.7294 11.2795L26.5326 11.3154C26.8203 12.8903 26.2772 14.6728 24.9637 15.3611L25.0565 15.5383L25.1494 15.7154C26.676 14.9154 27.2316 12.9161 26.9261 11.2436L26.7294 11.2795ZM25.0565 15.5383L24.9637 15.3611C23.6495 16.0496 21.8011 16.3058 20.2597 16.3855C19.493 16.4251 18.8099 16.4207 18.3186 16.4065C18.073 16.3993 17.8756 16.3897 17.7399 16.3819C17.672 16.378 17.6196 16.3746 17.5843 16.3721C17.5667 16.3709 17.5533 16.3699 17.5445 16.3692C17.54 16.3689 17.5367 16.3686 17.5346 16.3685C17.5335 16.3684 17.5327 16.3683 17.5322 16.3683C17.532 16.3683 17.5318 16.3683 17.5317 16.3683C17.5316 16.3682 17.5316 16.3682 17.5316 16.3682C17.5316 16.3682 17.5316 16.3682 17.5155 16.5676C17.4994 16.7669 17.4995 16.767 17.4995 16.767C17.4996 16.767 17.4997 16.767 17.4998 16.767C17.5 16.767 17.5002 16.767 17.5006 16.767C17.5012 16.7671 17.5022 16.7672 17.5035 16.7673C17.506 16.7675 17.5096 16.7677 17.5144 16.7681C17.524 16.7688 17.5381 16.7699 17.5565 16.7711C17.5934 16.7737 17.6474 16.7773 17.7169 16.7813C17.856 16.7892 18.0573 16.799 18.307 16.8063C18.8063 16.8208 19.5005 16.8252 20.2804 16.7849C21.8322 16.7048 23.7543 16.4463 25.1493 15.7155L25.0565 15.5383ZM17.5155 16.5676H17.7155V1.34982H17.5155H17.3155V16.5676H17.5155ZM23.7509 12.0695L23.9501 12.052C23.8363 10.7565 22.7778 10.2265 21.8396 10.0173C21.3647 9.91139 20.8994 9.88134 20.5547 9.87732C20.3818 9.87531 20.2381 9.87983 20.1371 9.88491C20.0865 9.88744 20.0466 9.89012 20.019 9.8922C20.0052 9.89323 19.9944 9.89412 19.987 9.89476C19.9833 9.89509 19.9804 9.89535 19.9783 9.89554C19.9773 9.89563 19.9765 9.89571 19.9759 9.89576C19.9756 9.89579 19.9753 9.89582 19.9751 9.89583C19.975 9.89584 19.9749 9.89585 19.9749 9.89586C19.9748 9.89587 19.9747 9.89587 19.994 10.0949C20.0133 10.294 20.0133 10.294 20.0132 10.294C20.0133 10.294 20.0132 10.294 20.0132 10.294C20.0133 10.294 20.0133 10.294 20.0135 10.294C20.0137 10.294 20.0142 10.2939 20.0149 10.2939C20.0162 10.2937 20.0184 10.2935 20.0214 10.2933C20.0274 10.2928 20.0367 10.292 20.049 10.2911C20.0735 10.2892 20.1101 10.2868 20.1571 10.2844C20.2512 10.2797 20.3866 10.2754 20.55 10.2773C20.8779 10.2811 21.3136 10.3098 21.7525 10.4077C22.6417 10.6059 23.4617 11.0632 23.5516 12.087L23.7509 12.0695ZM19.994 10.0949H19.794V13.8371H19.994H20.194V10.0949H19.994ZM19.994 13.8371C19.9835 14.0368 19.9835 14.0369 19.9836 14.0369C19.9837 14.0369 19.9838 14.0369 19.9839 14.0369C19.984 14.0369 19.9843 14.0369 19.9846 14.0369C19.9852 14.0369 19.986 14.037 19.9871 14.037C19.9893 14.0371 19.9924 14.0373 19.9964 14.0375C20.0043 14.0378 20.0159 14.0383 20.0309 14.0388C20.0608 14.0399 20.1042 14.0412 20.1592 14.0422C20.269 14.044 20.4251 14.0444 20.6116 14.0386C20.9837 14.027 21.4817 13.9905 21.9772 13.89C22.4688 13.7902 22.9779 13.6234 23.357 13.3389C23.7461 13.0468 24.0005 12.6265 23.9501 12.0521L23.7509 12.0695L23.5516 12.087C23.5878 12.5001 23.4159 12.7945 23.1168 13.019C22.8077 13.251 22.3668 13.4027 21.8976 13.4979C21.4322 13.5924 20.9585 13.6276 20.5991 13.6388C20.42 13.6444 20.2704 13.644 20.1659 13.6422C20.1137 13.6413 20.0729 13.6401 20.0453 13.6391C20.0315 13.6386 20.0211 13.6382 20.0142 13.6379C20.0108 13.6377 20.0082 13.6376 20.0066 13.6375C20.0058 13.6375 20.0052 13.6374 20.0049 13.6374C20.0047 13.6374 20.0046 13.6374 20.0045 13.6374C20.0045 13.6374 20.0045 13.6374 20.0045 13.6374C20.0045 13.6374 20.0046 13.6374 19.994 13.8371ZM22.954 4.82736L23.1539 4.82045C23.1372 4.33792 22.9184 3.99063 22.6045 3.7523C22.2985 3.51999 21.9078 3.39463 21.5379 3.32671C20.7973 3.19074 20.0648 3.27229 20.0399 3.27511L20.0624 3.47385L20.0849 3.67258C20.1006 3.6708 20.7851 3.59517 21.4657 3.72014C21.8064 3.78269 22.1274 3.89233 22.3626 4.07089C22.5899 4.24343 22.7419 4.48287 22.7541 4.83427L22.954 4.82736ZM20.0624 3.47385H19.8624V6.59494H20.0624H20.2624V3.47385H20.0624ZM20.0624 6.59494L20.0687 6.79484C20.0935 6.79406 20.8535 6.76878 21.6059 6.52683C21.9818 6.40597 22.372 6.22606 22.6674 5.95459C22.9685 5.67778 23.1705 5.30497 23.1539 4.82048L22.954 4.82736L22.7541 4.83424C22.7661 5.18409 22.6261 5.44924 22.3967 5.66009C22.1615 5.87628 21.8327 6.03374 21.4835 6.14603C20.7858 6.37039 20.0712 6.39456 20.0561 6.39504L20.0624 6.59494Z" fill="#303030"/>
<path d="M32.3468 1.8086C35.8444 0.196348 39.5548 2.30202 40.6913 4.12602L38.8808 6.04703C38.4178 5.4858 36.8796 4.12602 34.775 4.12602C32.4261 4.12602 31.7287 7.2753 31.7287 9.49065C31.7287 11.4689 32.4809 13.2865 35.1282 13.6848C36.7665 13.9313 38.3336 12.7966 38.8808 11.7864L41 13.6848C40.7895 14.1759 39.6243 15.7237 37.0266 16.422C34.0902 17.2115 30.4245 15.6237 29.2122 13.1992C27.901 10.5767 28.551 3.55831 32.3468 1.8086Z" fill="#7F99AE" stroke="#303030" stroke-width="0.4"/>
</svg>
