<svg width="42" height="18" viewBox="0 0 42 18" fill="none" xmlns="http://www.w3.org/2000/svg">
<path d="M15.7295 15.4785L15.8088 15.6621L16.0047 15.5775L15.9076 15.3875L15.7295 15.4785ZM12.5547 16.8506L12.3753 16.9389L12.4593 17.1097L12.634 17.0342L12.5547 16.8506ZM10.6973 13.0781L10.8767 12.9898L10.8217 12.8781H10.6973V13.0781ZM5.88574 13.0781V12.8781H5.75835L5.70449 12.9936L5.88574 13.0781ZM4.12598 16.8506L4.04559 17.0337L4.22459 17.1123L4.30723 16.9351L4.12598 16.8506ZM1 15.4785L0.821565 15.3882L0.726113 15.5767L0.919617 15.6617L1 15.4785ZM8.33008 1L8.50817 0.908985L8.32924 0.558871L8.15164 0.909663L8.33008 1ZM6.71582 10.2568L6.53886 10.1636L6.38446 10.4568H6.71582V10.2568ZM9.8916 10.2568V10.4568H10.2198L10.0694 10.1652L9.8916 10.2568ZM8.32031 7.20996L8.49807 7.11829L8.32217 6.7772L8.14335 7.11677L8.32031 7.20996ZM15.7295 15.4785L15.6501 15.2949L12.4753 16.667L12.5547 16.8506L12.634 17.0342L15.8088 15.6621L15.7295 15.4785ZM12.5547 16.8506L12.7341 16.7622L10.8767 12.9898L10.6973 13.0781L10.5178 13.1665L12.3753 16.9389L12.5547 16.8506ZM10.6973 13.0781V12.8781H5.88574V13.0781V13.2781H10.6973V13.0781ZM5.88574 13.0781L5.70449 12.9936L3.94473 16.766L4.12598 16.8506L4.30723 16.9351L6.06699 13.1627L5.88574 13.0781ZM4.12598 16.8506L4.20636 16.6675L1.08038 15.2954L1 15.4785L0.919617 15.6617L4.04559 17.0337L4.12598 16.8506ZM1 15.4785L1.17844 15.5689L8.50851 1.09034L8.33008 1L8.15164 0.909663L0.821565 15.3882L1 15.4785ZM8.33008 1L8.15199 1.09102L15.5514 15.5695L15.7295 15.4785L15.9076 15.3875L8.50817 0.908985L8.33008 1ZM6.71582 10.2568V10.4568H9.8916V10.2568V10.0568H6.71582V10.2568ZM9.8916 10.2568L10.0694 10.1652L8.49807 7.11829L8.32031 7.20996L8.14256 7.30163L9.71385 10.3485L9.8916 10.2568ZM8.32031 7.20996L8.14335 7.11677L6.53886 10.1636L6.71582 10.2568L6.89278 10.35L8.49728 7.30315L8.32031 7.20996Z" fill="#303030"/>
<path d="M17.5155 1.34998L17.4958 1.15095L17.3155 1.16877V1.34998H17.5155ZM23.7128 1.70935L23.7904 1.52503L23.7904 1.52503L23.7128 1.70935ZM25.6122 6.23572L25.7911 6.32513L25.7911 6.32513L25.6122 6.23572ZM23.3729 8.14197L23.3114 7.95166L23.3421 8.33957L23.3729 8.14197ZM26.7294 11.2797L26.9261 11.2437L26.9261 11.2437L26.7294 11.2797ZM25.0565 15.5385L25.1493 15.7156L25.1494 15.7156L25.0565 15.5385ZM17.5155 16.5677H17.3155V16.7523L17.4994 16.7671L17.5155 16.5677ZM23.7509 12.0697L23.9501 12.0522L23.9501 12.0522L23.7509 12.0697ZM19.994 10.0951L19.9747 9.89603L19.794 9.91356V10.0951H19.994ZM19.994 13.8373H19.794V14.027L19.9835 14.037L19.994 13.8373ZM22.954 4.82751L23.1539 4.82064L23.1539 4.8206L22.954 4.82751ZM20.0624 3.474L20.0399 3.27527L19.8624 3.29535V3.474H20.0624ZM20.0624 6.59509H19.8624V6.80148L20.0687 6.79499L20.0624 6.59509ZM17.5155 1.34998C17.5352 1.54901 17.5352 1.54901 17.5352 1.54901C17.5352 1.549 17.5352 1.549 17.5353 1.54899C17.5354 1.54898 17.5356 1.54897 17.5358 1.54895C17.5363 1.5489 17.537 1.54883 17.538 1.54873C17.5399 1.54854 17.5429 1.54825 17.5469 1.54787C17.5549 1.54711 17.567 1.54598 17.5828 1.54453C17.6144 1.54164 17.6613 1.53747 17.7217 1.53244C17.8426 1.52237 18.0177 1.50883 18.2338 1.49502C18.6661 1.46738 19.2615 1.4387 19.9145 1.43446C20.568 1.43021 21.2763 1.45045 21.9349 1.51999C22.5966 1.58984 23.1947 1.70817 23.6351 1.89367L23.7128 1.70935L23.7904 1.52503C23.2963 1.31693 22.6525 1.19353 21.9769 1.1222C21.2984 1.05056 20.5741 1.03016 19.9119 1.03446C19.2493 1.03877 18.6459 1.06785 18.2082 1.09583C17.9893 1.10983 17.8117 1.12357 17.6885 1.13382C17.627 1.13895 17.579 1.14321 17.5463 1.14619C17.53 1.14769 17.5175 1.14886 17.509 1.14967C17.5048 1.15008 17.5015 1.15039 17.4993 1.1506C17.4982 1.15071 17.4974 1.15079 17.4968 1.15085C17.4965 1.15088 17.4963 1.1509 17.4961 1.15092C17.496 1.15093 17.496 1.15093 17.4959 1.15094C17.4959 1.15094 17.4958 1.15095 17.5155 1.34998ZM23.7128 1.70935L23.6351 1.89367C25.3612 2.62066 26.1937 4.62479 25.4333 6.1463L25.6122 6.23572L25.7911 6.32513C26.6701 4.56642 25.6967 2.32795 23.7904 1.52503L23.7128 1.70935ZM25.6122 6.23572L25.4333 6.1463C25.1024 6.80825 24.5741 7.2605 24.1208 7.54902C23.895 7.69279 23.6903 7.79428 23.5427 7.85956C23.4691 7.89216 23.4099 7.91563 23.3698 7.93073C23.3497 7.93828 23.3344 7.94374 23.3245 7.94719C23.3196 7.94892 23.3159 7.95015 23.3137 7.95089C23.3126 7.95126 23.3119 7.95151 23.3115 7.95164C23.3113 7.9517 23.3112 7.95173 23.3112 7.95174C23.3112 7.95174 23.3112 7.95173 23.3112 7.95172C23.3113 7.95171 23.3113 7.9517 23.3113 7.9517C23.3114 7.95168 23.3114 7.95166 23.3729 8.14197C23.4344 8.33228 23.4345 8.33225 23.4346 8.33223C23.4346 8.33222 23.4347 8.33219 23.4348 8.33217C23.4349 8.33213 23.435 8.33208 23.4352 8.33202C23.4356 8.3319 23.436 8.33175 23.4366 8.33157C23.4377 8.33121 23.4391 8.33073 23.441 8.33011C23.4446 8.32889 23.4497 8.32716 23.4561 8.32492C23.469 8.32042 23.4874 8.31384 23.5107 8.30508C23.5572 8.28756 23.6234 8.26127 23.7046 8.22535C23.8668 8.15358 24.0898 8.04296 24.3356 7.88646C24.8257 7.57446 25.417 7.07358 25.7911 6.32513L25.6122 6.23572ZM23.3729 8.14197L23.3421 8.33957C23.3341 8.33834 24.0229 8.44532 24.7693 8.87588C25.5122 9.30438 26.3005 10.0454 26.5326 11.3156L26.7294 11.2797L26.9261 11.2437C26.6667 9.82446 25.7801 8.9971 24.9692 8.52939C24.1619 8.06373 23.4182 7.94662 23.4038 7.94436L23.3729 8.14197ZM26.7294 11.2797L26.5326 11.3156C26.8203 12.8905 26.2772 14.6729 24.9637 15.3613L25.0565 15.5385L25.1494 15.7156C26.676 14.9155 27.2316 12.9162 26.9261 11.2437L26.7294 11.2797ZM25.0565 15.5385L24.9637 15.3613C23.6495 16.0498 21.8011 16.306 20.2597 16.3856C19.493 16.4252 18.8099 16.4209 18.3186 16.4066C18.073 16.3995 17.8756 16.3899 17.7399 16.3821C17.672 16.3782 17.6196 16.3747 17.5843 16.3723C17.5667 16.371 17.5533 16.3701 17.5445 16.3694C17.54 16.3691 17.5367 16.3688 17.5346 16.3686C17.5335 16.3685 17.5327 16.3685 17.5322 16.3684C17.532 16.3684 17.5318 16.3684 17.5317 16.3684C17.5316 16.3684 17.5316 16.3684 17.5316 16.3684C17.5316 16.3684 17.5316 16.3684 17.5155 16.5677C17.4994 16.7671 17.4995 16.7671 17.4995 16.7671C17.4996 16.7671 17.4997 16.7671 17.4998 16.7671C17.5 16.7671 17.5002 16.7672 17.5006 16.7672C17.5012 16.7672 17.5022 16.7673 17.5035 16.7674C17.506 16.7676 17.5096 16.7679 17.5144 16.7683C17.524 16.769 17.5381 16.77 17.5565 16.7713C17.5934 16.7739 17.6474 16.7774 17.7169 16.7814C17.856 16.7894 18.0573 16.7992 18.307 16.8064C18.8063 16.8209 19.5005 16.8254 20.2804 16.7851C21.8322 16.7049 23.7543 16.4465 25.1493 15.7156L25.0565 15.5385ZM17.5155 16.5677H17.7155V1.34998H17.5155H17.3155V16.5677H17.5155ZM23.7509 12.0697L23.9501 12.0522C23.8363 10.7567 22.7778 10.2266 21.8396 10.0174C21.3647 9.91154 20.8994 9.88149 20.5547 9.87747C20.3818 9.87546 20.2381 9.87999 20.1371 9.88506C20.0865 9.8876 20.0466 9.89028 20.019 9.89235C20.0052 9.89339 19.9944 9.89427 19.987 9.89492C19.9833 9.89524 19.9804 9.8955 19.9783 9.89569C19.9773 9.89578 19.9765 9.89586 19.9759 9.89592C19.9756 9.89595 19.9753 9.89597 19.9751 9.89599C19.975 9.896 19.9749 9.89601 19.9749 9.89601C19.9748 9.89602 19.9747 9.89603 19.994 10.0951C20.0133 10.2942 20.0133 10.2942 20.0132 10.2942C20.0133 10.2942 20.0132 10.2942 20.0132 10.2942C20.0133 10.2942 20.0133 10.2942 20.0135 10.2941C20.0137 10.2941 20.0142 10.2941 20.0149 10.294C20.0162 10.2939 20.0184 10.2937 20.0214 10.2934C20.0274 10.2929 20.0367 10.2921 20.049 10.2912C20.0735 10.2894 20.1101 10.2869 20.1571 10.2846C20.2512 10.2798 20.3866 10.2755 20.55 10.2774C20.8779 10.2813 21.3136 10.31 21.7525 10.4078C22.6417 10.6061 23.4617 11.0633 23.5516 12.0872L23.7509 12.0697ZM19.994 10.0951H19.794V13.8373H19.994H20.194V10.0951H19.994ZM19.994 13.8373C19.9835 14.037 19.9835 14.037 19.9836 14.037C19.9837 14.037 19.9838 14.037 19.9839 14.037C19.984 14.037 19.9843 14.037 19.9846 14.0371C19.9852 14.0371 19.986 14.0371 19.9871 14.0372C19.9893 14.0373 19.9924 14.0374 19.9964 14.0376C20.0043 14.038 20.0159 14.0385 20.0309 14.039C20.0608 14.0401 20.1042 14.0414 20.1592 14.0423C20.269 14.0442 20.4251 14.0446 20.6116 14.0387C20.9837 14.0271 21.4817 13.9907 21.9772 13.8901C22.4688 13.7903 22.9779 13.6236 23.357 13.339C23.7461 13.0469 24.0005 12.6267 23.9501 12.0522L23.7509 12.0697L23.5516 12.0872C23.5878 12.5002 23.4159 12.7946 23.1168 13.0191C22.8077 13.2512 22.3668 13.4029 21.8976 13.4981C21.4322 13.5926 20.9585 13.6277 20.5991 13.6389C20.42 13.6445 20.2704 13.6441 20.1659 13.6424C20.1137 13.6415 20.0729 13.6403 20.0453 13.6393C20.0315 13.6388 20.0211 13.6383 20.0142 13.638C20.0108 13.6379 20.0082 13.6377 20.0066 13.6377C20.0058 13.6376 20.0052 13.6376 20.0049 13.6376C20.0047 13.6376 20.0046 13.6376 20.0045 13.6376C20.0045 13.6376 20.0045 13.6376 20.0045 13.6376C20.0045 13.6376 20.0046 13.6376 19.994 13.8373ZM22.954 4.82751L23.1539 4.8206C23.1372 4.33807 22.9184 3.99078 22.6045 3.75245C22.2985 3.52014 21.9078 3.39478 21.5379 3.32687C20.7973 3.19089 20.0648 3.27244 20.0399 3.27527L20.0624 3.474L20.0849 3.67273C20.1006 3.67095 20.7851 3.59533 21.4657 3.72029C21.8064 3.78285 22.1274 3.89249 22.3626 4.07105C22.5899 4.24358 22.7419 4.48302 22.7541 4.83443L22.954 4.82751ZM20.0624 3.474H19.8624V6.59509H20.0624H20.2624V3.474H20.0624ZM20.0624 6.59509L20.0687 6.79499C20.0935 6.79421 20.8535 6.76893 21.6059 6.52698C21.9818 6.40612 22.372 6.22621 22.6674 5.95474C22.9685 5.67793 23.1705 5.30512 23.1539 4.82064L22.954 4.82751L22.7541 4.83439C22.7661 5.18425 22.6261 5.44939 22.3967 5.66025C22.1615 5.87644 21.8327 6.03389 21.4835 6.14619C20.7858 6.37054 20.0712 6.39472 20.0561 6.39519L20.0624 6.59509Z" fill="#303030"/>
<path d="M32.3468 1.8086C35.8444 0.196348 39.5548 2.30202 40.6913 4.12602L38.8808 6.04703C38.4178 5.4858 36.8796 4.12602 34.775 4.12602C32.4261 4.12602 31.7287 7.2753 31.7287 9.49065C31.7287 11.4689 32.4809 13.2865 35.1282 13.6848C36.7665 13.9313 38.3336 12.7966 38.8808 11.7864L41 13.6848C40.7895 14.1759 39.6243 15.7237 37.0266 16.422C34.0902 17.2115 30.4245 15.6237 29.2122 13.1992C27.901 10.5767 28.551 3.55831 32.3468 1.8086Z" stroke="#303030" stroke-width="0.4"/>
</svg>
