<svg width="42" height="37" viewBox="0 0 42 37" fill="none" xmlns="http://www.w3.org/2000/svg">
<rect x="1.2" y="18.4125" width="5.00841" height="12.3508" rx="0.615566" stroke="#303030" stroke-width="0.4"/>
<rect x="8.90636" y="10.71" width="5.00841" height="20.0533" rx="0.615566" stroke="#303030" stroke-width="0.4"/>
<path d="M21.8211 19.2364V30.1477C21.8211 30.5981 21.456 30.9633 21.0056 30.9633H17.2283C16.7779 30.9633 16.4127 30.5981 16.4127 30.1477V3.43127C16.4127 2.98085 16.7779 2.61571 17.2283 2.61571H21.0056C21.456 2.61571 21.8211 2.98085 21.8211 3.43127V7.21761" stroke="#303030" stroke-width="0.4"/>
<path d="M29.5275 20.2711V30.1477C29.5275 30.5981 29.1623 30.9633 28.7119 30.9633H24.9346C24.4842 30.9633 24.119 30.5981 24.119 30.1477V19.9113" stroke="#303030" stroke-width="0.4"/>
<path d="M25.2854 6.51402C28.982 6.75249 31.7852 9.94225 31.5468 13.6389C31.3083 17.3355 28.1186 20.1387 24.4219 19.9003C20.7253 19.6618 17.9221 16.472 18.1605 12.7754C18.399 9.07875 21.5888 6.27557 25.2854 6.51402Z" stroke="#303030" stroke-width="0.737759" stroke-miterlimit="10"/>
<path d="M20.1483 10.8106C19.596 11.6933 19.0704 13.5958 20.0971 15.4059" stroke="#303030" stroke-width="0.295103" stroke-linecap="round"/>
<path d="M20.4842 12.0409C20.0971 12.8333 19.9107 14.0378 20.9415 15.5479" stroke="#303030" stroke-width="0.295103" stroke-linecap="round"/>
<path d="M30.4777 17.5935L39.1406 27.5728C39.3349 27.797 39.3105 28.1365 39.0864 28.3311L38.0628 29.2197C37.8386 29.4139 37.4997 29.39 37.3051 29.1662L28.6422 19.1869L30.4777 17.5935Z" stroke="#303030" stroke-width="0.4"/>
<line x1="2.8175" y1="14.8762" x2="12.6694" y2="5.12599" stroke="#303030" stroke-width="0.4"/>
<path d="M13.4683 5.28048L12.6304 4.45138L13.7819 4.12494L13.4683 5.28048Z" fill="#303030" stroke="#303030"/>
</svg>
