<svg width="42" height="37" viewBox="0 0 42 37" fill="none" xmlns="http://www.w3.org/2000/svg">
<rect x="1.2" y="18.4125" width="5.00841" height="12.3508" rx="0.615566" fill="#7F99AE" stroke="#303030" stroke-width="0.4"/>
<rect x="8.90636" y="10.71" width="5.00841" height="20.0533" rx="0.615566" fill="#A9DBC2" stroke="#303030" stroke-width="0.4"/>
<rect x="16.6127" y="2.81572" width="5.00841" height="27.9476" rx="0.615566" fill="#BED5E8" stroke="#303030" stroke-width="0.4"/>
<rect x="24.319" y="15.2987" width="5.00841" height="15.4646" rx="0.615566" fill="#E5CEAE" stroke="#303030" stroke-width="0.4"/>
<path d="M25.2854 6.51399C28.982 6.75246 31.7852 9.94222 31.5468 13.6389C31.3083 17.3355 28.1186 20.1387 24.4219 19.9002C20.7253 19.6618 17.9221 16.472 18.1605 12.7754C18.399 9.07872 21.5888 6.27554 25.2854 6.51399Z" fill="#D3E6F6" stroke="#303030" stroke-width="0.737759" stroke-miterlimit="10"/>
<path d="M20.1483 10.8106C19.596 11.6932 19.0704 13.5958 20.0971 15.4059" stroke="#303030" stroke-width="0.295103" stroke-linecap="round"/>
<path d="M20.4842 12.0409C20.0971 12.8333 19.9107 14.0378 20.9415 15.5479" stroke="#303030" stroke-width="0.295103" stroke-linecap="round"/>
<path d="M30.4777 17.5935L39.1406 27.5727C39.3349 27.797 39.3105 28.1365 39.0864 28.3311L38.0628 29.2197C37.8386 29.4139 37.4997 29.39 37.3051 29.1662L28.6422 19.1869L30.4777 17.5935Z" fill="#76C69D" stroke="#303030" stroke-width="0.4"/>
<line x1="2.8175" y1="14.8762" x2="12.6694" y2="5.12599" stroke="#303030" stroke-width="0.4"/>
<path d="M13.4683 5.28047L12.6304 4.45137L13.7819 4.12493L13.4683 5.28047Z" fill="#303030" stroke="#303030"/>
</svg>
