<svg width="42" height="42" viewBox="0 0 42 42" fill="none" xmlns="http://www.w3.org/2000/svg">
<path d="M38.1238 31.6531C38.2168 31.0638 38.2289 30.3575 38.0693 29.5271C37.4699 26.5416 34.8461 23.3039 31.8152 20.4697C29.7607 18.5821 27.0799 16.4747 23.599 14.1335C24.9167 11.4981 23.599 9.34182 23 8.74286C23.5237 8.48614 24.2223 8.21718 25.0413 7.97481C30.9546 6.07488 35.2947 7.51568 36.7761 8.5931C43.4845 17.6973 40.3699 28.0594 38.1238 31.6531Z" fill="#BED5E8"/>
<path d="M18.5 6.54869C18.5 6.21851 18.532 5.79623 18.591 5.33199C18.9096 2.01655 19.6412 1.09354 20 1.04869C26.5886 0.569518 33.2816 3.68008 36.5 8.04871C32.6765 6.36488 27.8055 6.92971 24.7572 7.87209C24.1883 8.06474 23.6024 8.28905 23 8.54869C21.9219 6.99139 19.4484 6.54869 18.5 6.54869Z" fill="#BFA687"/>
<path d="M38 31.5487C32.3698 38.9758 24.2891 40.403 21.1446 40.1035C17.5 37.0487 17.6997 23.7362 17.5 16.5487C19.7761 17.0279 22.1523 15.9953 23.5 14.0487C25.7106 15.4516 28.8582 17.7199 31.6628 20.3363C36.0948 24.3967 37.6229 27.4376 37.9798 29.6022C38.095 30.2665 38.1077 30.9178 38 31.5487Z" fill="#76C69D"/>
<path d="M5.67679 8.05956C7.42129 7.9866 11.2205 8.24841 13.8777 9.86584C13.5783 10.4149 13.0092 12.112 13.728 13.9088C13.3407 14.1748 12.9664 14.44 12.6048 14.7043C8.50095 17.7534 2.22275 23.9121 3.09643 29.4818C0.681738 25.5006 -0.85672 14.7773 5.49228 8.06895C5.55073 8.06518 5.61228 8.06204 5.67679 8.05956Z" fill="#536D81"/>
<path d="M17.6627 16.5943C17.9123 23.9815 17.9622 36.9739 20.8073 40.1035C17.2634 40.1535 8.52857 37.7676 3.13791 29.6217C2.51432 27.2712 3.72551 21.3618 12.6462 14.8441C13.0439 14.5487 13.4211 14.2824 13.7695 14.0487C14.069 14.7475 15.3867 16.3547 17.6627 16.5943Z" fill="#E5CEAE"/>
<path d="M18.5 6.54871C15.3854 7.02788 14.2995 9.15026 14 10.0487C10.9881 8.54276 7.29968 7.98577 5.66045 8.04094C5.60468 8.04301 5.55116 8.04561 5.5 8.04871C10.6511 2.41847 17.3047 1.04871 20 1.04871C19.9352 1.09497 19.8715 1.15796 19.8091 1.23551C19.3552 1.94426 18.5897 4.50958 18.5073 6.25426C18.5025 6.35876 18.5 6.45727 18.5 6.54871Z" fill="#A9DBC2"/>
<path d="M24.2334 11.8043C24.2334 14.4705 21.4685 16.632 18.8022 16.632C15.3323 16.632 13.5219 14.6214 13.5219 11.9551C13.5219 9.28886 16.136 6.82568 18.8022 6.82568C21.8195 6.82568 24.2334 8.93781 24.2334 11.8043Z" fill="#D3E6F6"/>
<path d="M17.7462 16.6328C17.9976 24.0755 18.0479 37.1656 20.9144 40.3188M17.7462 16.6328C20.0394 17.1156 22.2722 16.0293 23.63 14.0681M17.7462 16.6328C15.453 16.3914 14.1254 14.7721 13.8237 14.0681M17.7462 16.6328C17.9474 23.8744 17.8971 36.9997 20.9144 40.3188M20.9144 40.3188C24.0826 40.6205 32.5914 39.2023 38.264 31.7194M20.9144 40.3188C17.3439 40.3691 8.54337 37.9652 3.11219 29.7581M38.264 31.7194C38.7166 28.8529 37.2683 23.2407 23.63 14.0681M38.264 31.7194C39.32 25.5339 28.86 17.3871 23.63 14.0681M38.264 31.7194C40.527 28.0986 43.665 17.6587 36.9062 8.48601M23.63 14.0681C24.9576 11.4128 23.63 9.24035 23.0265 8.63689M13.9745 9.9947C14.2763 9.0895 15.6642 7.15842 18.8023 6.67564M13.9745 9.9947C11.1986 8.305 7.18557 8.08373 5.52604 8.1843M13.9745 9.9947C13.6728 10.5479 13.0995 12.2577 13.8237 14.0681M13.9745 9.9947C10.8365 8.42569 7.08499 8.08373 5.52604 8.1843M18.8023 6.67564C18.9028 5.06641 19.3152 1.69706 20.1601 1.0936M18.8023 6.67564C19.7577 6.67564 21.9403 7.06788 23.0265 8.63689M18.8023 6.67564C19.0436 2.33071 19.7577 1.14389 20.1601 1.0936M20.1601 1.0936C17.4445 1.0936 10.7158 2.51174 5.52604 8.1843M20.1601 1.0936C26.7982 0.610828 33.6636 4.08454 36.9062 8.48601M5.52604 8.1843C-0.870678 14.9431 0.679346 25.7469 3.11219 29.7581M13.8237 14.0681C3.80617 20.9476 2.45843 27.294 3.11219 29.7581M13.8237 14.0681C9.85087 16.7334 2.14665 23.6028 3.11219 29.7581M23.0265 8.63689C30.0267 5.61957 35.2467 7.27908 36.9062 8.48601M23.0265 8.63689C25.5912 7.37967 32.3199 5.83077 36.9062 8.48601" stroke="#303030" stroke-width="0.4" stroke-linecap="round"/>
</svg>
