<svg width="42" height="42" viewBox="0 0 42 42" fill="none" xmlns="http://www.w3.org/2000/svg">
<path d="M17.7462 16.5841C17.9976 24.0268 18.0479 37.1169 20.9144 40.2701M17.7462 16.5841C20.0394 17.0669 22.2722 15.9806 23.63 14.0194M17.7462 16.5841C15.453 16.3427 14.1254 14.7234 13.8237 14.0194M17.7462 16.5841C17.9474 23.8257 17.8971 36.951 20.9144 40.2701M20.9144 40.2701C24.0826 40.5718 32.5914 39.1536 38.264 31.6707M20.9144 40.2701C17.3439 40.3204 8.54337 37.9165 3.11219 29.7094M38.264 31.6707C38.7166 28.8042 37.2683 23.192 23.63 14.0194M38.264 31.6707C39.32 25.4852 28.86 17.3384 23.63 14.0194M38.264 31.6707C40.527 28.0499 43.665 17.61 36.9062 8.4373M23.63 14.0194C24.9576 11.3641 23.63 9.19164 23.0265 8.58818M13.9745 9.94599C14.2763 9.0408 15.6642 7.10971 18.8023 6.62694M13.9745 9.94599C11.1986 8.25629 7.18557 8.03502 5.52604 8.1356M13.9745 9.94599C13.6728 10.4992 13.0995 12.209 13.8237 14.0194M13.9745 9.94599C10.8365 8.37699 7.08499 8.03502 5.52604 8.1356M18.8023 6.62694C18.9028 5.0177 19.3152 1.64836 20.1601 1.04489M18.8023 6.62694C19.7577 6.62694 21.9403 7.01917 23.0265 8.58818M18.8023 6.62694C19.0436 2.28201 19.7577 1.09519 20.1601 1.04489M20.1601 1.04489C17.4445 1.04489 10.7158 2.46303 5.52604 8.1356M20.1601 1.04489C26.7982 0.562122 33.6636 4.03583 36.9062 8.4373M5.52604 8.1356C-0.870678 14.8944 0.679346 25.6982 3.11219 29.7094M13.8237 14.0194C3.80617 20.8989 2.45843 27.2453 3.11219 29.7094M13.8237 14.0194C9.85087 16.6847 2.14665 23.5541 3.11219 29.7094M23.0265 8.58818C30.0267 5.57086 35.2467 7.23037 36.9062 8.4373M23.0265 8.58818C25.5912 7.33096 32.3199 5.78206 36.9062 8.4373" stroke="#303030" stroke-width="0.4" stroke-linecap="round"/>
</svg>
