<svg width="15" height="42" viewBox="0 0 15 42" fill="none" xmlns="http://www.w3.org/2000/svg">
<path d="M2.40578 12.363C3.41796 14.3295 5.11962 16.7931 7.29964 16.7931C9.3541 16.7931 10.937 14.2138 11.8913 12.2184C12.8457 10.223 13.7592 5.88887 12.1491 3.17125C10.3374 0.11328 4.02045 0.443929 2.07947 3.17127C0.138487 5.89862 1.17032 9.9627 2.40578 12.363Z" fill="#E5CEAE" stroke="#303030" stroke-width="0.4"/>
<path d="M6.04792 17.6158C6.15172 17.4013 6.74857 17.0305 7.03402 16.8719C7.25569 16.7424 7.39242 16.7946 7.54436 16.8719C7.69087 16.9463 8.33151 17.339 8.43531 17.7023C8.53911 18.0656 8.02876 17.8666 7.86441 17.858C7.70006 17.8493 7.50976 17.7455 7.03402 17.9272C6.55827 18.1088 5.91817 17.8839 6.04792 17.6158Z" fill="#E5CEAE" stroke="#303030" stroke-width="0.4"/>
<path d="M7.37753 17.8467C7.5064 19.411 7.49796 20.5356 7.37753 21.8778C7.227 23.5556 6.14439 27.2291 6.82177 30.0813C7.49914 32.9335 7.98951 34.5572 7.37753 41" stroke="#303030" stroke-width="0.4"/>
</svg>
