<svg width="36" height="42" viewBox="0 0 36 42" fill="none" xmlns="http://www.w3.org/2000/svg">
<path d="M11.7322 12.363C12.7444 14.3295 14.446 16.7931 16.6261 16.7931C18.6805 16.7931 20.2634 14.2138 21.2177 12.2184C22.1721 10.223 23.0856 5.88887 21.4756 3.17125C19.6638 0.11328 13.3469 0.443929 11.4059 3.17127C9.4649 5.89862 10.4967 9.96269 11.7322 12.363Z" fill="#76C69D" stroke="#303030" stroke-width="0.4"/>
<path d="M15.3743 17.6158C15.4781 17.4013 16.0749 17.0305 16.3604 16.8719C16.5821 16.7424 16.7188 16.7946 16.8707 16.8719C17.0173 16.9463 17.6579 17.339 17.7617 17.7023C17.8655 18.0656 17.3551 17.8666 17.1908 17.858C17.0264 17.8493 16.8361 17.7455 16.3604 17.9272C15.8846 18.1088 15.2446 17.8839 15.3743 17.6158Z" fill="#76C69D" stroke="#303030" stroke-width="0.4"/>
<path d="M16.704 17.8467C16.8328 19.411 16.8244 20.5356 16.704 21.8778C16.5534 23.5556 15.4708 27.2291 16.1482 30.0813C16.8256 32.9335 17.316 34.5572 16.704 41" stroke="#303030" stroke-width="0.4"/>
<path d="M23.7611 18.6454C24.7732 20.6119 26.4749 23.0755 28.6549 23.0755C30.7094 23.0755 32.2923 20.4962 33.2466 18.5008C34.2009 16.5054 35.1145 12.1713 33.5044 9.45366C31.6927 6.39569 25.3757 6.72634 23.4348 9.45368C21.4938 12.181 22.5256 16.2451 23.7611 18.6454Z" fill="#BED5E8" stroke="#303030" stroke-width="0.4"/>
<path d="M27.4032 23.8982C27.507 23.6837 28.1038 23.3129 28.3893 23.1543C28.6109 23.0248 28.7477 23.0771 28.8996 23.1543C29.0461 23.2288 29.6868 23.6214 29.7906 23.9847C29.8944 24.348 29.384 24.149 29.2197 24.1404C29.0553 24.1317 28.865 24.0279 28.3893 24.2096C27.9135 24.3912 27.2734 24.1663 27.4032 23.8982Z" fill="#BED5E8" stroke="#303030" stroke-width="0.4"/>
<path d="M28.7328 24.1291C28.0367 27.6671 29.3664 29.3696 28.7328 32.4923C28.1499 35.3653 28.7328 38.1429 28.7329 41" stroke="#303030" stroke-width="0.4"/>
<path d="M2.40578 24.0521C3.41796 26.0186 5.11962 28.4823 7.29964 28.4823C9.3541 28.4823 10.937 25.9029 11.8913 23.9075C12.8457 21.9121 13.7592 17.578 12.1491 14.8604C10.3374 11.8024 4.02045 12.133 2.07947 14.8604C0.138487 17.5877 1.17032 21.6518 2.40578 24.0521Z" fill="#E5CEAE" stroke="#303030" stroke-width="0.4"/>
<path d="M6.04789 29.3049C6.15169 29.0904 6.74853 28.7196 7.03398 28.561C7.25566 28.4315 7.39239 28.4838 7.54433 28.561C7.69084 28.6355 8.33147 29.0281 8.43527 29.3914C8.53907 29.7547 8.02873 29.5557 7.86438 29.5471C7.70003 29.5384 7.50973 29.4346 7.03398 29.6163C6.55824 29.7979 5.91814 29.573 6.04789 29.3049Z" fill="#E5CEAE" stroke="#303030" stroke-width="0.4"/>
<path d="M7.37754 29.5359C7.66939 33.6897 6.37933 34.3884 7.37754 41" stroke="#303030" stroke-width="0.4"/>
</svg>
