<svg width="31" height="42" viewBox="0 0 31 42" fill="none" xmlns="http://www.w3.org/2000/svg">
<path d="M7.92564 39.3752C8.27445 39.0936 8.57765 38.7584 8.82405 38.388C8.82725 38.3808 8.83445 38.3736 8.84165 38.3736C8.84885 38.3696 8.85925 38.3696 8.86645 38.3736C8.92405 38.3944 9.08405 38.4592 9.30885 38.5336" stroke="#303030" stroke-width="0.4"/>
<path d="M26.9897 40.2743C27.7993 39.8495 28.4985 39.2503 29.0473 38.5231C30.8161 36.1127 29.8569 32.0967 28.1737 29.2007C28.1705 29.1943 28.1705 29.1903 28.1705 29.1831C28.1705 29.1759 28.1705 29.1687 28.1737 29.1655C30.3281 25.5599 29.3721 22.8319 26.2593 20.2679C26.2553 20.2639 26.2521 20.2607 26.2481 20.2575C26.2481 20.2535 26.2449 20.2503 26.2449 20.2431C26.2449 20.2391 26.2449 20.2359 26.2481 20.2319C26.2481 20.2247 26.2521 20.2215 26.2553 20.2183C29.5969 16.2023 28.3273 10.3647 27.1257 7.46547C27.1217 7.45827 27.1217 7.45107 27.1217 7.44387C27.1217 7.43667 27.1257 7.43347 27.1289 7.42627C28.9657 5.41827 28.9617 2.93266 27.1145 1.96946C25.2673 1.00706 23.1921 2.11986 22.1361 3.63906C22.1329 3.64626 22.1257 3.64946 22.1185 3.65347H22.0969C17.5001 2.13026 12.8361 3.22146 12.4081 3.32866C12.4009 3.33186 12.3905 3.33186 12.3833 3.32866C12.3761 3.32146 12.3689 3.31426 12.3649 3.30706C12.2473 2.95746 11.0601 -0.187343 7.78645 1.48866C4.47684 3.18226 6.31684 6.34547 6.48804 6.62387C6.49204 6.63107 6.49204 6.63827 6.49204 6.64147C6.49204 6.64867 6.49204 6.65587 6.48804 6.66307C5.29364 8.62068 4.57284 10.8351 4.38404 13.1215C4.08804 16.7199 5.47524 18.9559 5.67124 19.2479C5.67524 19.2519 5.67524 19.2583 5.67844 19.2623C5.67844 19.2655 5.67844 19.2727 5.67524 19.2767C5.67524 19.2839 5.67124 19.2871 5.67124 19.2911C5.66804 19.2943 5.66404 19.2975 5.65684 19.3015C4.93684 19.6935 4.30564 20.2319 3.79924 20.8815C3.29283 21.5271 2.92563 22.2719 2.71523 23.0639C2.11203 25.5527 3.69924 27.4751 3.90244 27.7103C3.90964 27.7143 3.91364 27.7247 3.91364 27.7319C3.91364 27.7423 3.90964 27.7495 3.90244 27.7567C3.64564 28.0311 1.25683 30.6631 1.02803 34.0119C1.00003 34.4183 0.992829 34.8215 1.00723 35.2247" stroke="#303030" stroke-width="0.4"/>
<path d="M18.8593 38.9368C19.0801 38.8616 19.3049 38.78 19.5225 38.6904C19.5297 38.6904 19.5369 38.6872 19.5473 38.6904C19.5545 38.6904 19.5585 38.6976 19.5649 38.7016C19.9649 39.1576 20.4137 39.5712 20.9025 39.9352" stroke="#303030" stroke-width="0.4"/>
<path d="M3.90244 27.7534C3.90244 27.7534 4.38258 28.5175 5.24935 28.9744" stroke="#303030" stroke-width="0.4" stroke-linecap="round" stroke-linejoin="round"/>
<path d="M26.3611 30.0369C26.3733 30.0342 26.3855 30.0315 26.3977 30.0287C27.0433 29.8823 27.6497 29.6007 28.1705 29.1975" stroke="#303030" stroke-width="0.4" stroke-linecap="round" stroke-linejoin="round"/>
<path d="M2.33363 33.2848C1.71283 33.784 1.25283 34.4544 1.01043 35.2104C1.00723 35.2136 1.00723 35.2176 1.00723 35.2208C1.02483 36.316 1.27763 37.396 1.74883 38.384C2.39443 39.6568 3.45364 40.4528 4.88724 40.4528C5.99204 40.4664 7.06564 40.0848 7.91445 39.3792C7.92564 39.3608 7.93604 39.3432 7.94644 39.3256C10.304 33.7088 4.26644 31.7152 2.33363 33.2848Z" stroke="#303030" stroke-width="0.4"/>
<path d="M20.5713 35.9415C19.9537 38.0023 20.4857 39.3007 20.8881 39.9207C20.8921 39.9247 20.8953 39.9279 20.8993 39.9319C21.7729 40.5631 22.8105 40.9303 23.8873 40.9911C24.9641 41.0511 26.0345 40.8055 26.9761 40.2775L26.9825 40.2743L26.9897 40.2671C28.5665 38.9047 28.5377 35.9767 27.1505 34.4327C25.5209 32.6207 21.4769 32.9239 20.5713 35.9415Z" stroke="#303030" stroke-width="0.4"/>
<path d="M24.5545 30.6312C26.1913 30.6312 27.5145 29.308 27.5145 27.6712C27.5145 26.0384 26.1913 24.7112 24.5545 24.7112C22.9209 24.7112 21.5945 26.0384 21.5945 27.6712C21.5945 29.308 22.9209 30.6312 24.5545 30.6312Z" stroke="#303030" stroke-width="0.4"/>
<path d="M7.20164 29.6895C8.83445 29.6895 10.1608 28.3663 10.1608 26.7295C10.1608 25.0967 8.83445 23.7695 7.20164 23.7695C5.56484 23.7695 4.24164 25.0967 4.24164 26.7295C4.24164 28.3663 5.56484 29.6895 7.20164 29.6895Z" stroke="#303030" stroke-width="0.4"/>
<path d="M16.2201 11.6272C13.8169 11.3488 11.6305 12.936 10.7248 15.108C9.81925 17.2792 10.9673 20.6032 15.1329 21.2056C19.2977 21.8088 21.3521 18.5488 21.1097 16.256C20.8673 13.9632 18.8201 11.9304 16.2201 11.6272Z" stroke="#303030" stroke-width="0.4"/>
<path d="M13.8129 12.9431C13.2993 13.2959 15.3641 15.0183 15.7529 14.9615C16.1417 14.9047 17.9785 13.7167 17.8289 13.1143C17.6785 12.5111 14.9937 12.1295 13.8129 12.9431Z" fill="#303030"/>
<path d="M20.2073 12.6574C20.6849 12.6574 21.0737 12.2726 21.0737 11.791C21.0737 11.3134 20.6849 10.9246 20.2073 10.9246C19.7297 10.9246 19.3409 11.3134 19.3409 11.791C19.3409 12.2726 19.7297 12.6574 20.2073 12.6574Z" fill="#303030"/>
<path d="M11.7945 12.3934C12.2721 12.3934 12.6609 12.0086 12.6609 11.527C12.6609 11.0494 12.2721 10.6606 11.7945 10.6606C11.3169 10.6606 10.9281 11.0494 10.9281 11.527C10.9281 12.0086 11.3169 12.3934 11.7945 12.3934Z" fill="#303030"/>
<path d="M23.7913 4.56232C23.7913 4.72632 25.6025 6.25272 25.9057 6.17432C26.2089 6.09592 27.6177 4.28072 26.2481 3.43591C24.8753 2.59031 23.7913 4.36312 23.7913 4.56232Z" stroke="#303030" stroke-width="0.4"/>
<path d="M8.22484 5.40384C8.37125 5.47184 10.5104 4.44863 10.5609 4.13824C10.6105 3.83104 9.53685 1.80223 8.20725 2.70063C6.87684 3.59983 8.04324 5.32224 8.22484 5.40384Z" stroke="#303030" stroke-width="0.4"/>
<path d="M18.8449 38.9366C18.8481 38.9334 18.8521 38.9334 18.8553 38.9294C18.8593 38.9294 18.8625 38.9222 18.8665 38.919C20.8385 35.3702 18.2601 31.4726 14.4729 31.4158C10.6745 31.3582 8.22165 34.5718 9.28405 38.5054C9.28405 38.5126 9.28725 38.5158 9.29125 38.523C9.29445 38.5262 9.30165 38.5302 9.30565 38.5302C10.6929 38.9974 14.9433 40.2022 18.8449 38.9366Z" stroke="#303030" stroke-width="0.4"/>
</svg>
