<svg width="42" height="21" viewBox="0 0 42 21" fill="none" xmlns="http://www.w3.org/2000/svg">
<path d="M39.8602 5.77368H12.9337V18.9381H39.8602V5.77368Z" fill="#D3E6F6" stroke="#303030" stroke-width="0.4" stroke-miterlimit="10"/>
<path d="M36.2901 10.8774H31.3384V18.9382H36.2901V10.8774Z" fill="#76C69D" stroke="#303030" stroke-width="0.4" stroke-miterlimit="10"/>
<path d="M41 5.7737H11.7945L14.2633 1H38.5305L41 5.7737Z" fill="#303030" stroke="#303030" stroke-width="0.4" stroke-miterlimit="10"/>
<path d="M1 19.2184C1 19.2184 4.48044 19.2184 6.19755 16.1457C7.82988 13.2243 8.42537 11.9114 10.4339 11.503L11.2326 19.2184" stroke="#303030" stroke-width="0.4" stroke-miterlimit="10"/>
<path d="M19.9443 11.2606C20.6438 11.2606 21.2109 10.6935 21.2109 9.99393C21.2109 9.29438 20.6438 8.72729 19.9443 8.72729C19.2447 8.72729 18.6777 9.29438 18.6777 9.99393C18.6777 10.6935 19.2447 11.2606 19.9443 11.2606Z" fill="#E5CEAE" stroke="#303030" stroke-width="0.4" stroke-miterlimit="10"/>
<path d="M23.1858 9.77185C23.7627 9.77185 24.2304 9.30419 24.2304 8.7273C24.2304 8.1504 23.7627 7.68274 23.1858 7.68274C22.6089 7.68274 22.1413 8.1504 22.1413 8.7273C22.1413 9.30419 22.6089 9.77185 23.1858 9.77185Z" fill="#F2E8DA" stroke="#303030" stroke-width="0.4" stroke-miterlimit="10"/>
<path d="M23.1263 13.9893H15.9896V16.7314H23.1263V13.9893Z" fill="#D6B689" stroke="#303030" stroke-width="0.4" stroke-miterlimit="10"/>
<path d="M28.4072 12.5671H24.5163V16.7425H28.4072V12.5671Z" fill="#F2E8DA" stroke="#303030" stroke-width="0.4" stroke-miterlimit="10"/>
</svg>
