<svg width="42" height="22" viewBox="0 0 42 22" fill="none" xmlns="http://www.w3.org/2000/svg">
<g clip-path="url(#clip0_422_2552)">
<path d="M38.0749 5.77368H11.1484V18.9381H38.0749V5.77368Z" fill="#D3E6F6" stroke="#303030" stroke-width="0.4" stroke-miterlimit="10"/>
<path d="M34.5047 10.8774H29.5531V18.9382H34.5047V10.8774Z" fill="#76C69D" stroke="#303030" stroke-width="0.4" stroke-miterlimit="10"/>
<path d="M39.2147 5.7737H10.0092L12.478 1H36.7451L39.2147 5.7737Z" fill="#303030" stroke="#303030" stroke-width="0.4" stroke-miterlimit="10"/>
<path d="M7.08391 19.0505V17.8857M8.64857 19.0505L8.64857 17.8857M7.08391 17.8857H8.64857M7.08391 17.8857V16.6203M8.64857 17.8857L8.64857 16.6203M7.08391 16.6203H8.64857M7.08391 16.6203V15.3088M8.64857 16.6203L8.64857 15.3088M7.08391 15.3088H8.64857M7.08391 15.3088V14.0133M8.64857 15.3088L8.64857 14.0133M7.08391 14.0133H8.64857M7.08391 14.0133V12.7497M8.64857 14.0133L8.64857 12.7497M7.08391 12.7497V11.503H8.64857L8.64857 12.7497M7.08391 12.7497H8.64857" stroke="#303030" stroke-width="0.4" stroke-miterlimit="10"/>
<path d="M4.76608 16.8806C4.4159 18.7448 0.799432 20.0503 1.00874 20.0503H4.14282C4.29265 20.0503 6.49337 19.2668 6.72487 16.6669C6.88769 14.8383 7.43715 13.7644 7.7755 13.0165C7.99347 12.5346 8.68367 11.6631 8.68367 11.485H7.13448C5.78109 13.0165 5.37152 13.6575 4.76608 16.8806Z" fill="#76C69D" stroke="#303030" stroke-width="0.4" stroke-miterlimit="10"/>
<path d="M18.159 11.2606C18.8585 11.2606 19.4256 10.6935 19.4256 9.99393C19.4256 9.29438 18.8585 8.72729 18.159 8.72729C17.4594 8.72729 16.8923 9.29438 16.8923 9.99393C16.8923 10.6935 17.4594 11.2606 18.159 11.2606Z" fill="#E5CEAE" stroke="#303030" stroke-width="0.4" stroke-miterlimit="10"/>
<path d="M21.4005 9.77185C21.9774 9.77185 22.4451 9.30419 22.4451 8.7273C22.4451 8.1504 21.9774 7.68274 21.4005 7.68274C20.8236 7.68274 20.356 8.1504 20.356 8.7273C20.356 9.30419 20.8236 9.77185 21.4005 9.77185Z" fill="#F2E8DA" stroke="#303030" stroke-width="0.4" stroke-miterlimit="10"/>
<path d="M21.341 13.9893H14.2043V16.7314H21.341V13.9893Z" fill="#D6B689" stroke="#303030" stroke-width="0.4" stroke-miterlimit="10"/>
<path d="M26.6219 12.5671H22.7309V16.7425H26.6219V12.5671Z" fill="#F2E8DA" stroke="#303030" stroke-width="0.4" stroke-miterlimit="10"/>
</g>
<defs>
<clipPath id="clip0_422_2552">
<rect width="42" height="21.0503" fill="white"/>
</clipPath>
</defs>
</svg>
