<svg width="39" height="42" viewBox="0 0 39 42" fill="none" xmlns="http://www.w3.org/2000/svg">
<path d="M19.7323 39.6602C19.7323 39.6602 19.3561 39.74 19.0739 39.74C18.7916 39.74 18.3824 39.6602 18.3824 39.6602" stroke="#303030" stroke-width="0.4"/>
<path d="M16.8764 7.33065C17.5312 7.08334 18.2793 6.94312 19.0738 6.94312C19.8683 6.94312 20.6164 7.08334 21.2712 7.33065M15.6397 8.02628C14.9182 8.60647 14.4075 9.40575 14.4075 10.2386C14.4075 12.0587 16.4967 12.7759 19.0738 12.7759C21.6509 12.7759 23.7401 12.0587 23.7401 10.2386C23.7401 9.40575 23.2265 8.60647 22.505 8.02628" stroke="#303030" stroke-width="0.4"/>
<path d="M25.2426 16.0093C25.9911 15.6222 26.9173 15.4767 27.2573 14.8316C27.5743 14.2301 28.0213 13.1039 27.832 12.6475C27.2573 11.2625 27.8694 10.5267 28.5392 9.93072C29.209 9.33472 29.359 8.3998 30.0288 7.74956C30.6986 7.09932 30.8821 9.93075 29.3349 10.2504C28.5834 10.4057 28.5126 12.1399 28.8381 12.6475C29.5895 13.8194 27.9161 14.3507 27.2573 16.7492C27.0968 17.3334 26.4207 17.8147 25.7035 18.1041" stroke="#303030" stroke-width="0.4"/>
<path d="M12.903 15.977C12.1545 15.5899 11.1992 15.4767 10.8592 14.8316C10.5422 14.2301 10.0952 13.1039 10.2845 12.6475C10.8592 11.2625 10.247 10.5267 9.57726 9.93072C8.90747 9.33472 8.75748 8.3998 8.08769 7.74956C7.4179 7.09932 7.23443 9.93075 8.78158 10.2504C9.53305 10.4057 9.60391 12.1399 9.27842 12.6475C8.52695 13.8194 10.2003 14.3507 10.8592 16.7492C11.0196 17.3334 11.6958 17.8147 12.413 18.1041" stroke="#303030" stroke-width="0.4"/>
<path d="M28.1164 31.0831C28.9259 31.5142 29.7206 31.5355 30.0883 32.2538C30.4311 32.9234 29.8339 34.8633 29.6292 35.3713C29.0077 36.9133 30.9857 36.862 31.0897 37.9716C31.2462 39.6411 31.3465 41 31.9347 41C32.8648 41 33.5009 37.5546 32.1537 36.9232C31.5656 36.6476 30.58 35.4189 30.8191 34.7692C32.1755 31.0831 30.8008 32.7891 30.0883 30.1187C29.9125 29.4599 29.1647 28.9187 28.378 28.5979" stroke="#303030" stroke-width="0.4"/>
<path d="M10.0001 31.0831C9.19058 31.5142 8.39585 31.5355 8.02819 32.2538C7.6854 32.9234 8.28255 34.8633 8.48731 35.3713C9.10874 36.9133 7.13079 36.862 7.0268 37.9716C6.87032 39.6411 6.76997 41 6.18183 41C5.25172 41 4.61558 37.5546 5.96277 36.9232C6.55091 36.6476 7.53646 35.4189 7.29739 34.7692C5.94103 31.0831 7.31572 32.7891 8.02819 30.1187C8.20395 29.4599 8.95181 28.9187 9.73846 28.5979" stroke="#303030" stroke-width="0.4"/>
<path d="M28.1012 23.9108C28.9368 23.8755 29.6879 23.7052 30.3021 24.0956C30.8746 24.4596 31.0383 25.9876 31.104 26.4766C31.3034 27.9606 33.9326 27.4461 34.3419 28.3594C35.3318 30.5691 37.7564 29.9356 36.7857 29.1357C35.7562 28.2874 35.0617 26.7302 34.0369 26.7824C33.4415 26.8127 31.8773 25.5391 31.7752 24.9242C31.1959 21.4358 30.3799 23.6233 28.6157 21.8722C28.3047 21.5634 27.9348 21.3552 27.5781 21.2399" stroke="#303030" stroke-width="0.4"/>
<path d="M10.0153 23.9108C9.17967 23.8755 8.42854 23.7052 7.81442 24.0956C7.24185 24.4596 7.07823 25.9876 7.01251 26.4766C6.81305 27.9606 4.18384 27.4461 3.77463 28.3594C2.78464 30.5691 0.36007 29.9356 1.33083 29.1357C2.3603 28.2874 3.05479 26.7302 4.07955 26.7824C4.67496 26.8127 6.23921 25.5391 6.3413 24.9242C6.92055 21.4358 7.73661 23.6233 9.50075 21.8722C9.81182 21.5634 10.1817 21.3552 10.5384 21.2399" stroke="#303030" stroke-width="0.4"/>
<circle cx="16.5228" cy="8.1995" r="0.890557" stroke="#303030" stroke-width="0.4"/>
<circle cx="21.6249" cy="8.1995" r="0.890557" stroke="#303030" stroke-width="0.4"/>
<path d="M20.4853 7.22008C20.6596 6.44777 20.9351 5.09721 22.7706 4.36872C24.606 3.64022 25.5459 2.49783 25.1901 1" stroke="#303030" stroke-width="0.4"/>
<path d="M17.6594 7.24554C17.485 6.47323 17.2125 5.09721 15.3771 4.36872C13.5417 3.64022 12.6017 2.49783 12.9576 1" stroke="#303030" stroke-width="0.4"/>
<path d="M19.9091 18.0637L18.3123 18.0634M24.719 17.2944C25.0694 16.9784 25.2644 16.5341 25.2644 15.9102C25.2644 14.2815 24.1233 12.9714 22.1708 12.255M13.4287 17.2944C13.0783 16.9784 12.8833 16.5341 12.8833 15.9102C12.8833 14.2815 13.9933 12.9714 15.9458 12.255" stroke="#303030" stroke-width="0.4"/>
<path d="M21.5379 16.4836C23.4701 16.4837 25.173 17.262 26.3993 18.9338C27.631 20.6133 28.3944 23.2121 28.3944 26.8684C28.3944 30.5233 27.601 33.8377 26.1854 36.2307C24.7712 38.6213 22.7489 40.0754 20.2782 40.0754C20.1679 40.0753 20.0681 40.0277 19.9696 39.8977C19.8655 39.7604 19.7725 39.5412 19.6952 39.2297C19.541 38.6083 19.4666 37.6909 19.4393 36.5256C19.3847 34.1931 19.5164 30.9604 19.5164 27.2649C19.5164 23.5717 19.4496 20.8481 19.6913 19.0403C19.8121 18.1361 20.0069 17.4937 20.3026 17.0803C20.5868 16.683 20.9742 16.4836 21.5379 16.4836Z" stroke="#303030" stroke-width="0.4"/>
<path d="M16.665 16.4836C14.7166 16.4837 13.0004 17.2629 11.7646 18.9348C10.5233 20.6142 9.75386 23.2123 9.75385 26.8684C9.75385 30.5247 10.5139 33.8402 11.9013 36.2336C13.2869 38.6236 15.2849 40.0784 17.7753 40.0784C17.8907 40.0783 17.9968 40.0285 18.1015 39.8967C18.2113 39.7584 18.3111 39.5382 18.3964 39.2268C18.5666 38.6055 18.6604 37.6885 18.707 36.5237C18.8 34.1955 18.704 30.9553 18.704 27.2649C18.704 23.5716 18.7708 20.848 18.5273 19.0403C18.4055 18.1365 18.2098 17.4946 17.912 17.0813C17.6255 16.6838 17.2343 16.4836 16.665 16.4836Z" stroke="#303030" stroke-width="0.4"/>
<path d="M23.8439 20.3908C24.2205 20.3908 24.6167 20.7056 24.9308 21.342C25.2386 21.9657 25.4347 22.8414 25.4347 23.8195C25.4347 24.7976 25.2386 25.6733 24.9308 26.2971C24.6167 26.9335 24.2205 27.2492 23.8439 27.2492C23.4673 27.2492 23.0711 26.9335 22.757 26.2971C22.4492 25.6733 22.2531 24.7976 22.2531 23.8195C22.2531 22.8414 22.4492 21.9657 22.757 21.342C23.0711 20.7056 23.4673 20.3908 23.8439 20.3908Z" stroke="#303030" stroke-width="0.4"/>
<path d="M14.3136 20.3908C13.937 20.3908 13.5408 20.7056 13.2267 21.342C12.9189 21.9657 12.7228 22.8414 12.7228 23.8195C12.7228 24.7976 12.9189 25.6733 13.2267 26.2971C13.5408 26.9335 13.937 27.2492 14.3136 27.2492C14.6902 27.2492 15.0864 26.9335 15.4005 26.2971C15.7083 25.6733 15.9044 24.7976 15.9044 23.8195C15.9044 22.8414 15.7083 21.9657 15.4005 21.342C15.0864 20.7056 14.6902 20.3908 14.3136 20.3908Z" stroke="#303030" stroke-width="0.4"/>
<path d="M24.336 31.1106C24.6129 31.2301 24.8141 31.5583 24.866 32.0711C24.9171 32.5767 24.8155 33.2159 24.5368 33.8617C24.2581 34.5074 23.8627 35.0198 23.4598 35.3295C23.051 35.6436 22.6742 35.7222 22.3974 35.6027C22.1206 35.4831 21.9193 35.1552 21.8674 34.6422C21.8163 34.1366 21.9188 33.4978 22.1975 32.8521C22.4762 32.2064 22.8707 31.6935 23.2736 31.3839C23.6824 31.0698 24.0592 30.9913 24.336 31.1106Z" stroke="#303030" stroke-width="0.4"/>
<path d="M13.8214 31.1106C13.5446 31.2301 13.3434 31.5583 13.2915 32.0711C13.2404 32.5767 13.342 33.2159 13.6207 33.8617C13.8994 34.5074 14.2948 35.0198 14.6977 35.3295C15.1065 35.6436 15.4832 35.7222 15.7601 35.6027C16.0369 35.4831 16.2382 35.1552 16.2901 34.6422C16.3412 34.1366 16.2387 33.4978 15.96 32.8521C15.6813 32.2064 15.2868 31.6935 14.8839 31.3839C14.4751 31.0698 14.0983 30.9913 13.8214 31.1106Z" stroke="#303030" stroke-width="0.4"/>
</svg>
