<svg width="39" height="42" viewBox="0 0 39 42" fill="none" xmlns="http://www.w3.org/2000/svg">
<path d="M19.0582 16.294C22.5677 16.294 24.6682 17.1041 25.9078 18.752C27.1598 20.4166 27.5748 22.984 27.5748 26.6085C27.5747 30.2008 26.6079 33.4441 25.0552 35.7833C23.5016 38.124 21.377 39.5401 19.0582 39.5401C16.7395 39.54 14.6156 38.1238 13.0621 35.7833C11.5094 33.4441 10.5426 30.2008 10.5425 26.6085C10.5425 22.9876 11.0124 20.4184 12.2925 18.753C13.5614 17.1023 15.6648 16.2941 19.0582 16.294Z" fill="#303030" stroke="#303030" stroke-width="0.4"/>
<path d="M19.058 7.14325C20.3114 7.14325 21.4379 7.50209 22.2455 8.07196C23.0537 8.6422 23.5287 9.41138 23.5287 10.239C23.5286 11.0511 23.0707 11.6259 22.2739 12.0095C21.4676 12.3974 20.3343 12.5759 19.058 12.5759C17.782 12.5758 16.6493 12.3974 15.8432 12.0095C15.0463 11.6259 14.5885 11.0511 14.5883 10.239C14.5883 9.41138 15.0634 8.6422 15.8715 8.07196C16.679 7.50217 17.8049 7.14334 19.058 7.14325Z" fill="#254B38" stroke="#303030" stroke-width="0.4"/>
<path d="M23.729 18.045C23.729 16.5771 24.5675 16.2803 25.4241 15.883C26.1733 15.4958 26.9089 15.4767 27.2492 14.8315C27.5664 14.23 28.0139 13.1038 27.8243 12.6475C27.2492 11.2625 27.8619 10.5267 28.5322 9.93069C29.2026 9.33469 29.3527 8.39977 30.0231 7.74953C30.6935 7.09929 30.8771 9.93072 29.3286 10.2504C28.5765 10.4057 28.5056 12.1399 28.8313 12.6475C29.5835 13.8194 27.9086 14.3507 27.2492 16.7492C26.8767 18.1039 23.729 18.9049 23.729 18.045Z" fill="#303030" stroke="#303030" stroke-width="0.4"/>
<path d="M14.3881 18.045C14.3881 16.5771 13.5495 16.2803 12.6929 15.883C11.9437 15.4958 11.2082 15.4767 10.8679 14.8315C10.5506 14.23 10.1032 13.1038 10.2927 12.6475C10.8679 11.2625 10.2552 10.5267 9.58483 9.93069C8.91445 9.33469 8.76433 8.39977 8.09395 7.74953C7.42357 7.09929 7.23995 9.93072 8.78846 10.2504C9.54059 10.4057 9.61151 12.1399 9.28574 12.6475C8.5336 13.8194 10.2085 14.3507 10.8679 16.7492C11.2403 18.1039 14.3881 18.9049 14.3881 18.045Z" fill="#303030" stroke="#303030" stroke-width="0.4"/>
<path d="M26.2759 28.676C26.2759 30.3103 27.1827 30.6407 28.1091 31.0831C28.9193 31.5142 29.7147 31.5355 30.0827 32.2538C30.4258 32.9234 29.8281 34.8633 29.6231 35.3713C29.0012 36.9133 30.9809 36.862 31.0849 37.9716C31.2416 39.6411 31.342 41 31.9307 41C32.8616 41 33.4983 37.5546 32.1499 36.9232C31.5613 36.6476 30.5748 35.4189 30.8141 34.7692C32.1717 31.0831 30.7958 32.7891 30.0827 30.1187C29.6799 28.6104 26.2759 27.7186 26.2759 28.676Z" fill="#303030" stroke="#303030" stroke-width="0.4"/>
<path d="M11.8412 28.676C11.8412 30.3103 10.9344 30.6407 10.0081 31.0831C9.19787 31.5142 8.40244 31.5355 8.03445 32.2538C7.69136 32.9234 8.28904 34.8633 8.49398 35.3713C9.11596 36.9133 7.13627 36.862 7.03218 37.9716C6.87557 39.6411 6.77513 41 6.18647 41C5.25554 41 4.61884 37.5546 5.96722 36.9232C6.55587 36.6476 7.54229 35.4189 7.30301 34.7692C5.94546 31.0831 7.32136 32.7891 8.03445 30.1187C8.4372 28.6104 11.8412 27.7186 11.8412 28.676Z" fill="#303030" stroke="#303030" stroke-width="0.4"/>
<path d="M26.1702 21.7493C26.4746 23.3225 27.0526 23.9549 28.0938 23.9109C28.9302 23.8756 29.6819 23.7053 30.2966 24.0957C30.8697 24.4597 31.0335 25.9877 31.0992 26.4766C31.2989 27.9606 33.9304 27.4461 34.34 28.3595C35.3308 30.5692 37.7575 29.9356 36.7859 29.1358C35.7555 28.2875 35.0604 26.7303 34.0348 26.7825C33.4388 26.8128 31.8732 25.5391 31.771 24.9243C31.1913 21.4359 30.3745 23.6234 28.6088 21.8723C27.6115 20.8833 26.0108 20.9258 26.1702 21.7493Z" fill="#303030" stroke="#303030" stroke-width="0.4"/>
<path d="M11.9469 21.7493C11.6424 23.3225 11.0644 23.9549 10.0232 23.9109C9.18691 23.8756 8.43512 23.7053 7.82046 24.0957C7.24738 24.4597 7.08361 25.9877 7.01784 26.4766C6.8182 27.9606 4.18668 27.4461 3.77711 28.3595C2.78625 30.5692 0.359544 29.9356 1.33116 29.1358C2.36154 28.2875 3.05663 26.7303 4.08229 26.7825C4.67823 26.8128 6.24386 25.5391 6.34604 24.9243C6.9258 21.4359 7.74258 23.6234 9.50827 21.8723C10.5055 20.8833 12.1062 20.9258 11.9469 21.7493Z" fill="#303030" stroke="#303030" stroke-width="0.4"/>
<circle cx="16.5048" cy="8.19896" r="0.890557" fill="#7F99AE" stroke="#303030" stroke-width="0.4"/>
<circle cx="21.6113" cy="8.19896" r="0.890557" fill="#7F99AE" stroke="#303030" stroke-width="0.4"/>
<path d="M20.4563 7.31737C20.6308 6.54506 20.9215 5.09721 22.7586 4.36872C24.5956 3.64022 25.5363 2.49783 25.1802 1" stroke="#303030" stroke-width="0.4"/>
<path d="M17.6608 7.31737C17.4863 6.54506 17.1956 5.09721 15.3585 4.36872C13.5215 3.64022 12.5808 2.49783 12.9369 1" stroke="#303030" stroke-width="0.4"/>
<path d="M19.0588 11.8516C20.7344 11.8517 22.2426 12.3186 23.3264 13.0635C24.4112 13.8091 25.0549 14.819 25.0549 15.9102C25.0549 16.4554 24.8953 16.8291 24.6262 17.0967C24.3512 17.3702 23.9403 17.5539 23.3977 17.6719C22.3038 17.9097 20.7862 17.8614 19.0588 17.8614C17.3314 17.8614 15.8139 17.9097 14.72 17.6719C14.1771 17.5539 13.7656 17.3704 13.4905 17.0967C13.2215 16.8291 13.0627 16.4553 13.0627 15.9102C13.0627 14.8191 13.7056 13.8091 14.7903 13.0635C15.8741 12.3186 17.3831 11.8516 19.0588 11.8516Z" fill="#5BA27E" stroke="#303030" stroke-width="0.4"/>
<path d="M21.5244 16.4836C23.4585 16.4836 25.1632 17.2619 26.3906 18.9338C27.6234 20.6133 28.3876 23.2121 28.3877 26.8684C28.3877 30.5233 27.5936 33.8377 26.1767 36.2307C24.7614 38.6211 22.7376 40.0753 20.2646 40.0754C20.0792 40.0754 19.9355 40.0102 19.8144 39.8811C19.6871 39.7453 19.5773 39.5309 19.4912 39.2239C19.3185 38.6082 19.2584 37.6963 19.2588 36.5305C19.2591 35.3693 19.3192 33.9783 19.3799 32.4114C19.4405 30.8462 19.5009 29.1093 19.5009 27.2649C19.5009 23.5717 19.4349 20.8481 19.6767 19.0403C19.7977 18.1361 19.9922 17.4937 20.2881 17.0803C20.5725 16.683 20.9601 16.4837 21.5244 16.4836Z" fill="#9BD8B9" stroke="#303030" stroke-width="0.4"/>
<path d="M16.6484 16.4836C14.698 16.4836 12.9792 17.2628 11.7422 18.9348C10.4998 20.6142 9.72948 23.2125 9.72946 26.8684C9.72946 30.5247 10.4902 33.8402 11.8789 36.2336C13.2656 38.6237 15.266 40.0784 17.7588 40.0784C17.9468 40.0784 18.0955 40.0121 18.2226 39.8811C18.3556 39.744 18.4715 39.5279 18.5654 39.2209C18.7535 38.6053 18.8339 37.6937 18.8535 36.5286C18.873 35.3676 18.8323 33.976 18.7861 32.4094C18.74 30.8447 18.6884 29.1085 18.6884 27.2649C18.6884 23.5716 18.7554 20.848 18.5117 19.0403C18.3898 18.1364 18.1936 17.4946 17.8955 17.0813C17.6088 16.6839 17.2181 16.4838 16.6484 16.4836Z" fill="#9BD8B9" stroke="#303030" stroke-width="0.4"/>
<path d="M23.8331 20.3908C24.2101 20.391 24.6068 20.7058 24.921 21.3419C25.2291 21.9656 25.4249 22.8414 25.4249 23.8195C25.4249 24.7975 25.229 25.6733 24.921 26.297C24.6068 26.9332 24.2101 27.2489 23.8331 27.2492C23.456 27.2492 23.0586 26.9334 22.7443 26.297C22.4363 25.6733 22.2404 24.7975 22.2404 23.8195C22.2404 22.8414 22.4362 21.9656 22.7443 21.3419C23.0586 20.7056 23.456 20.3908 23.8331 20.3908Z" fill="#A9C0D3" stroke="#303030" stroke-width="0.4"/>
<path d="M14.2937 20.3908C13.9167 20.391 13.5201 20.7058 13.2058 21.3419C12.8978 21.9656 12.702 22.8414 12.7019 23.8195C12.7019 24.7975 12.8978 25.6733 13.2058 26.297C13.5201 26.9332 13.9167 27.2489 14.2937 27.2492C14.6709 27.2492 15.0683 26.9334 15.3826 26.297C15.6906 25.6733 15.8865 24.7975 15.8865 23.8195C15.8865 22.8414 15.6907 21.9656 15.3826 21.3419C15.0683 20.7056 14.6709 20.3908 14.2937 20.3908Z" fill="#A9C0D3" stroke="#303030" stroke-width="0.4"/>
<path d="M24.3252 31.1105C24.6025 31.2301 24.8037 31.5588 24.8556 32.072C24.9067 32.5774 24.8051 33.2157 24.5263 33.8612C24.2474 34.5069 23.852 35.0193 23.4488 35.329C23.0395 35.6432 22.662 35.7225 22.3847 35.6029C22.1076 35.4832 21.9062 35.1544 21.8543 34.6415C21.8033 34.136 21.9061 33.4972 22.1849 32.8517C22.4637 32.2063 22.8582 31.6941 23.2612 31.3845C23.6703 31.0703 24.0479 30.9911 24.3252 31.1105Z" fill="#7F99AE" stroke="#303030" stroke-width="0.4"/>
<path d="M13.8016 31.1105C13.5243 31.2301 13.3231 31.5588 13.2712 32.072C13.2201 32.5774 13.3218 33.2157 13.6005 33.8612C13.8794 34.5069 14.2749 35.0193 14.6781 35.329C15.0874 35.6432 15.4648 35.7225 15.7421 35.6029C16.0192 35.4832 16.2206 35.1544 16.2725 34.6415C16.3235 34.136 16.2208 33.4972 15.9419 32.8517C15.6631 32.2063 15.2687 31.6941 14.8656 31.3845C14.4565 31.0703 14.0789 30.9911 13.8016 31.1105Z" fill="#7F99AE" stroke="#303030" stroke-width="0.4"/>
</svg>
