<svg width="32" height="42" viewBox="0 0 32 42" fill="none" xmlns="http://www.w3.org/2000/svg">
<path d="M30.255 1H1V41H30.255V1Z" stroke="#303030" stroke-width="0.4" stroke-miterlimit="10"/>
<path d="M20.1002 32.0497H11.1558V40.9941H20.1002V32.0497Z" stroke="#303030" stroke-width="0.4" stroke-miterlimit="10"/>
<path d="M15.628 32.0497V40.9941" stroke="#303030" stroke-width="0.4" stroke-miterlimit="10"/>
<path d="M7.88033 5.15436H4.68436V9.56941H7.88033V5.15436Z" stroke="#303030" stroke-width="0.4" stroke-miterlimit="10"/>
<path d="M12.997 5.15436H9.896V14.1288H12.997V5.15436Z" stroke="#303030" stroke-width="0.4" stroke-miterlimit="10"/>
<path d="M13.6521 14.1298H8.48501H3.31894V10.6034H8.48501H13.6521V14.1298Z" stroke="#303030" stroke-width="0.4" stroke-miterlimit="10"/>
<path d="M7.7515 10.6034V14.1298" stroke="#303030" stroke-width="0.2" stroke-miterlimit="10"/>
<path d="M6.28238 10.6034V14.1298" stroke="#303030" stroke-width="0.2" stroke-miterlimit="10"/>
<path d="M4.81424 10.6034V14.1298" stroke="#303030" stroke-width="0.2" stroke-miterlimit="10"/>
<path d="M9.2196 10.6034V14.1298" stroke="#303030" stroke-width="0.2" stroke-miterlimit="10"/>
<path d="M12.1568 10.6034V14.1298" stroke="#303030" stroke-width="0.2" stroke-miterlimit="10"/>
<path d="M10.6877 10.6034V14.1298" stroke="#303030" stroke-width="0.2" stroke-miterlimit="10"/>
<path d="M7.88033 18.3734H4.68436V22.7884H7.88033V18.3734Z" stroke="#303030" stroke-width="0.4" stroke-miterlimit="10"/>
<path d="M12.997 18.3734H9.896V27.3478H12.997V18.3734Z" stroke="#303030" stroke-width="0.4" stroke-miterlimit="10"/>
<path d="M13.6521 27.3478H8.48501H3.31894V23.8214H8.48501H13.6521V27.3478Z" stroke="#303030" stroke-width="0.4" stroke-miterlimit="10"/>
<path d="M7.7515 23.8214V27.3478" stroke="#303030" stroke-width="0.2" stroke-miterlimit="10"/>
<path d="M6.28238 23.8214V27.3478" stroke="#303030" stroke-width="0.2" stroke-miterlimit="10"/>
<path d="M4.81424 23.8214V27.3478" stroke="#303030" stroke-width="0.2" stroke-miterlimit="10"/>
<path d="M9.2196 23.8214V27.3478" stroke="#303030" stroke-width="0.2" stroke-miterlimit="10"/>
<path d="M12.1568 23.8214V27.3478" stroke="#303030" stroke-width="0.2" stroke-miterlimit="10"/>
<path d="M10.6877 23.8214V27.3478" stroke="#303030" stroke-width="0.2" stroke-miterlimit="10"/>
<path d="M23.3746 9.57037H26.5706V5.15532H23.3746V9.57037Z" stroke="#303030" stroke-width="0.4" stroke-miterlimit="10"/>
<path d="M18.258 14.1298H21.359V5.15533H18.258V14.1298Z" stroke="#303030" stroke-width="0.4" stroke-miterlimit="10"/>
<path d="M17.6029 14.1298H22.7699H27.937V10.6034H22.7699H17.6029V14.1298Z" stroke="#303030" stroke-width="0.4" stroke-miterlimit="10"/>
<path d="M23.5045 10.6034V14.1298" stroke="#303030" stroke-width="0.2" stroke-miterlimit="10"/>
<path d="M24.9727 10.6034V14.1298" stroke="#303030" stroke-width="0.2" stroke-miterlimit="10"/>
<path d="M26.4408 10.6034V14.1298" stroke="#303030" stroke-width="0.2" stroke-miterlimit="10"/>
<path d="M22.0354 10.6034V14.1298" stroke="#303030" stroke-width="0.2" stroke-miterlimit="10"/>
<path d="M19.0992 10.6034V14.1298" stroke="#303030" stroke-width="0.2" stroke-miterlimit="10"/>
<path d="M20.5673 10.6034V14.1298" stroke="#303030" stroke-width="0.2" stroke-miterlimit="10"/>
<path d="M23.3746 36.4648H26.5706V32.0497H23.3746V36.4648Z" stroke="#303030" stroke-width="0.4" stroke-miterlimit="10"/>
<path d="M4.68532 36.4648H7.88129L7.88129 32.0497H4.68532V36.4648Z" stroke="#303030" stroke-width="0.4" stroke-miterlimit="10"/>
<path d="M23.3746 22.7874H26.5706V18.3724H23.3746V22.7874Z" stroke="#303030" stroke-width="0.4" stroke-miterlimit="10"/>
<path d="M18.258 27.3478H21.359V18.3733H18.258V27.3478Z" stroke="#303030" stroke-width="0.4" stroke-miterlimit="10"/>
<path d="M17.6029 27.3478H22.7699H27.937V23.8214H22.7699H17.6029V27.3478Z" stroke="#303030" stroke-width="0.4" stroke-miterlimit="10"/>
<path d="M23.5045 23.8214V27.3478" stroke="#303030" stroke-width="0.2" stroke-miterlimit="10"/>
<path d="M24.9727 23.8214V27.3478" stroke="#303030" stroke-width="0.2" stroke-miterlimit="10"/>
<path d="M26.4408 23.8214V27.3478" stroke="#303030" stroke-width="0.2" stroke-miterlimit="10"/>
<path d="M22.0354 23.8214V27.3478" stroke="#303030" stroke-width="0.2" stroke-miterlimit="10"/>
<path d="M19.0992 23.8214V27.3478" stroke="#303030" stroke-width="0.2" stroke-miterlimit="10"/>
<path d="M20.5673 23.8214V27.3478" stroke="#303030" stroke-width="0.2" stroke-miterlimit="10"/>
</svg>
