<svg width="33" height="42" viewBox="0 0 33 42" fill="none" xmlns="http://www.w3.org/2000/svg">
<g clip-path="url(#clip0_394_451)">
<path d="M2.13892 40.6674C2.13892 40.6674 11.6552 17.7499 17.1185 14.7747C17.1185 14.7747 12.303 17.5245 2.89181 40.9999L2.13892 40.6693V40.6674Z" fill="#76C69D" stroke="#303030" stroke-width="0.4" stroke-miterlimit="10"/>
<path d="M5.1792 35.5234C5.1792 35.5234 8.42774 36.41 11.0457 36.1692C13.4343 35.9495 12.9451 33.4577 15.9873 33.387C15.9873 33.387 15.7522 31.8239 13.3999 31.0251C9.80359 29.804 9.68511 30.9544 8.32073 31.7321C6.16905 32.9589 5.1792 35.5234 5.1792 35.5234Z" fill="#76C69D" stroke="#303030" stroke-width="0.4" stroke-miterlimit="10"/>
<path d="M6.26263 31.3288C6.26263 31.3288 3.50519 29.3969 2.0166 27.228C0.659859 25.2502 2.88797 24.0349 1 21.6482C1 21.6482 2.35292 20.8303 4.4702 22.1297C7.70727 24.1151 6.89705 24.9426 7.17222 26.4885C7.60408 28.9268 6.26454 31.3269 6.26454 31.3269L6.26263 31.3288Z" fill="#76C69D" stroke="#303030" stroke-width="0.4" stroke-miterlimit="10"/>
<path d="M24.3972 3.55774C24.3972 3.55774 27.3553 -0.453247 29.0503 4.98901C29.0503 4.98901 33.9307 6.93813 29.7 9.70703C29.7 9.70703 34.5059 12.1492 29.6751 14.5626C29.6751 14.5626 29.7611 19.1889 25.3259 16.6876C25.3259 16.6876 24.4832 21.6425 20.6652 18.3252C20.6652 18.3252 15.8727 19.8788 17.2562 14.5989C17.2562 14.5989 12.9452 15.864 14.2809 10.7771C14.2809 10.7771 11.7528 6.19861 16.7823 6.5483C16.7823 6.5483 13.7516 2.43604 19.5951 2.50101C19.5951 2.50101 23.0099 -1.49851 24.3934 3.55965L24.3972 3.55774Z" fill="#F2E8DA" stroke="#303030" stroke-width="0.4" stroke-miterlimit="10"/>
<path d="M21.5707 10.4729C21.8071 10.4729 21.9988 10.2813 21.9988 10.0449C21.9988 9.80846 21.8071 9.61682 21.5707 9.61682C21.3343 9.61682 21.1427 9.80846 21.1427 10.0449C21.1427 10.2813 21.3343 10.4729 21.5707 10.4729Z" fill="#7F99AE" stroke="#303030" stroke-width="0.206752" stroke-miterlimit="10"/>
<path d="M22.4384 11.7437C22.7339 11.7437 22.9734 11.5041 22.9734 11.2086C22.9734 10.9131 22.7339 10.6736 22.4384 10.6736C22.1429 10.6736 21.9033 10.9131 21.9033 11.2086C21.9033 11.5041 22.1429 11.7437 22.4384 11.7437Z" fill="#BED5E8" stroke="#303030" stroke-width="0.206752" stroke-miterlimit="10"/>
<path d="M23.6882 11.0652C23.9277 11.0652 24.1219 10.871 24.1219 10.6314C24.1219 10.3918 23.9277 10.1976 23.6882 10.1976C23.4486 10.1976 23.2544 10.3918 23.2544 10.6314C23.2544 10.871 23.4486 11.0652 23.6882 11.0652Z" fill="#7F99AE" stroke="#303030" stroke-width="0.206752" stroke-miterlimit="10"/>
<path d="M22.8741 9.98744C23.2202 9.98744 23.5009 9.70682 23.5009 9.36066C23.5009 9.0145 23.2202 8.73389 22.8741 8.73389C22.5279 8.73389 22.2473 9.0145 22.2473 9.36066C22.2473 9.70682 22.5279 9.98744 22.8741 9.98744Z" fill="#BED5E8" stroke="#303030" stroke-width="0.206752" stroke-miterlimit="10"/>
<path d="M27.8884 16.3245C25.1749 17.6239 24.4335 11.6371 24.4335 11.6371C24.4335 11.6371 30.921 14.8722 27.8884 16.3245Z" fill="#D6B689" stroke="#303030" stroke-width="0.206752" stroke-miterlimit="10"/>
<path d="M30.7203 12.474C29.2451 15.0957 25.1997 10.6204 25.1997 10.6204C25.1997 10.6204 32.3694 9.54265 30.7203 12.474Z" fill="#BFA687" stroke="#303030" stroke-width="0.206752" stroke-miterlimit="10"/>
<path d="M30.3362 7.11585C30.8063 10.0873 24.8557 9.08599 24.8557 9.08599C24.8557 9.08599 29.8107 3.7947 30.3362 7.11585Z" fill="#D6B689" stroke="#303030" stroke-width="0.206752" stroke-miterlimit="10"/>
<path d="M27.4583 3.30169C29.5489 5.46483 24.1028 8.06175 24.1028 8.06175C24.1028 8.06175 25.1213 0.884394 27.4583 3.30169Z" fill="#BFA687" stroke="#303030" stroke-width="0.206752" stroke-miterlimit="10"/>
<path d="M22.0295 1.9928C24.9952 2.49346 22.1518 7.81533 22.1518 7.81533C22.1518 7.81533 18.7141 1.43291 22.0295 1.9928Z" fill="#D6B689" stroke="#303030" stroke-width="0.206752" stroke-miterlimit="10"/>
<path d="M17.4968 3.50614C20.2121 2.21245 20.9402 8.20123 20.9402 8.20123C20.9402 8.20123 14.4603 4.95078 17.4968 3.50614Z" fill="#BFA687" stroke="#303030" stroke-width="0.206752" stroke-miterlimit="10"/>
<path d="M14.6228 8.10577C15.9471 5.40375 20.239 9.64404 20.239 9.64404C20.239 9.64404 13.1419 11.125 14.6228 8.10577Z" fill="#D6B689" stroke="#303030" stroke-width="0.206752" stroke-miterlimit="10"/>
<path d="M14.7853 12.8829C14.3191 9.91147 20.2658 10.9166 20.2658 10.9166C20.2658 10.9166 15.307 16.2041 14.7853 12.8829Z" fill="#BFA687" stroke="#303030" stroke-width="0.206752" stroke-miterlimit="10"/>
<path d="M18.1751 17.3562C15.9718 15.3077 21.2708 12.4242 21.2708 12.4242C21.2708 12.4242 20.6383 19.6455 18.1751 17.3562Z" fill="#D6B689" stroke="#303030" stroke-width="0.206752" stroke-miterlimit="10"/>
<path d="M22.7939 18.5814C19.8148 18.1705 22.4958 12.7665 22.4958 12.7665C22.4958 12.7665 26.1247 19.0419 22.7939 18.5814Z" fill="#BFA687" stroke="#303030" stroke-width="0.206752" stroke-miterlimit="10"/>
</g>
<defs>
<clipPath id="clip0_394_451">
<rect width="32.8285" height="42" fill="white"/>
</clipPath>
</defs>
</svg>
