<svg width="36" height="42" viewBox="0 0 36 42" fill="none" xmlns="http://www.w3.org/2000/svg">
<path d="M19.8851 3.48664C20.6112 3.59638 21.105 4.27238 20.996 4.99859L16.0212 38.1533C15.9119 38.8816 15.2357 39.3854 14.5065 39.2818L9.72381 38.6019C8.99071 38.4977 8.48089 37.819 8.58506 37.0859L13.3048 3.8716C13.4093 3.13599 14.0905 2.62546 14.8255 2.7339C16.2242 2.94026 18.4204 3.26525 19.8851 3.48664Z" fill="#BED5E8" stroke="#303030" stroke-width="0.4" stroke-miterlimit="10"/>
<path d="M11.144 31.0071L9.48352 30.7703" stroke="#303030" stroke-width="0.2" stroke-miterlimit="10"/>
<path d="M11.4189 34.9879L8.93319 34.6346" stroke="#303030" stroke-width="0.2" stroke-miterlimit="10"/>
<path d="M12.5174 27.2585L10.0313 26.9063" stroke="#303030" stroke-width="0.2" stroke-miterlimit="10"/>
<path d="M14.7137 11.8018L12.2279 11.4486" stroke="#303030" stroke-width="0.2" stroke-miterlimit="10"/>
<path d="M14.4387 7.82116L12.7782 7.58437" stroke="#303030" stroke-width="0.2" stroke-miterlimit="10"/>
<path d="M12.2426 23.2777L10.5817 23.0419" stroke="#303030" stroke-width="0.2" stroke-miterlimit="10"/>
<path d="M13.6155 19.5303L11.1297 19.177" stroke="#303030" stroke-width="0.2" stroke-miterlimit="10"/>
<path d="M13.3406 15.5494L11.6801 15.3126" stroke="#303030" stroke-width="0.2" stroke-miterlimit="10"/>
<path d="M27.4424 34.1874L23.7854 34.1709C23.7854 34.1709 23.7724 34.1671 23.7719 34.1642L23.8263 5.11629L27.6649 5.13325L27.455 34.1804C27.455 34.1804 27.4486 34.1877 27.4424 34.1874Z" fill="#5BA27E" stroke="#303030" stroke-width="0.4" stroke-miterlimit="10"/>
<path d="M26.2839 34.1785L24.9181 34.1723C24.9181 34.1723 24.9128 34.1687 24.9137 34.1654L25.0174 5.11774L26.4509 5.12386L26.2887 34.1715C26.2887 34.1715 26.2869 34.178 26.2839 34.1785Z" fill="#76C69D" stroke="#303030" stroke-width="0.2" stroke-miterlimit="10"/>
<path d="M23.7769 34.1833L25.5905 39.3445L27.4511 34.2012C27.4511 34.2012 27.4472 34.1881 27.438 34.1883L23.7887 34.1719C23.781 34.1718 23.7743 34.1776 23.7754 34.1836L23.7769 34.1833Z" fill="#E5CEAE" stroke="#303030" stroke-width="0.4" stroke-miterlimit="10"/>
<path d="M24.8283 37.1365L25.5905 39.3444L26.3725 37.1423L24.8283 37.1365Z" fill="#303030" stroke="#303030" stroke-width="0.4" stroke-miterlimit="10"/>
<path d="M25.1648 2.40466L26.3511 2.41001C27.0835 2.41332 27.6771 3.01071 27.6737 3.74462L27.6675 5.12921C27.6675 5.12921 27.666 5.13223 27.6644 5.13222L23.833 5.11492C23.833 5.11492 23.83 5.11339 23.83 5.11188L23.8362 3.72426C23.8395 2.99338 24.4354 2.40287 25.1663 2.40618L25.1648 2.40466Z" fill="#BED5E8" stroke="#303030" stroke-width="0.4" stroke-miterlimit="10"/>
</svg>
