<svg width="23" height="42" viewBox="0 0 23 42" fill="none" xmlns="http://www.w3.org/2000/svg">
<path d="M6.28433 35.7508L2.48806 34.0228C2.48806 34.0228 2.4763 34.0128 2.47712 34.0094L16.1235 3.81946L20.1085 5.63296L6.30065 35.7494C6.30065 35.7494 6.29063 35.7541 6.28433 35.7508Z" stroke="#303030" stroke-width="0.4" stroke-miterlimit="10"/>
<path d="M5.08329 35.1994L3.66551 34.554C3.66551 34.554 3.66171 34.5477 3.66421 34.5447L17.3618 4.37805L18.85 5.05505L5.09164 35.1944C5.09164 35.1944 5.08664 35.2002 5.08329 35.1994Z" stroke="#303030" stroke-width="0.3" stroke-miterlimit="10"/>
<path d="M2.47343 34.0317L1.94527 40.2487L6.2869 35.7692C6.2869 35.7692 6.28894 35.7537 6.27929 35.7496L2.49099 34.0253C2.48302 34.0216 2.4734 34.0246 2.47175 34.0313L2.47343 34.0317Z" stroke="#303030" stroke-width="0.4" stroke-miterlimit="10"/>
<path d="M2.18539 37.5955L1.9453 40.2487L3.78894 38.3239L2.18539 37.5955Z" stroke="#303030" stroke-width="0.4" stroke-miterlimit="10"/>
<path d="M20.0159 2.18556C20.7761 2.53165 21.114 3.43072 20.7672 4.19257L20.113 5.62989L20.1084 5.6316L16.131 3.82109L16.1293 3.81651L16.785 2.37606C17.1304 1.61734 18.0265 1.28187 18.7852 1.62724L20.0159 2.18556Z" stroke="#303030" stroke-width="0.4" stroke-miterlimit="10"/>
</svg>
