<svg width="36" height="42" viewBox="0 0 36 42" fill="none" xmlns="http://www.w3.org/2000/svg">
<path d="M11.28 33.2956L2.90125 3.96598L25.2005 1L34.2688 28.3638L11.28 33.2956Z" fill="#BED5E8" stroke="#303030" stroke-width="0.4"/>
<path d="M1.01237 5.71503C1.01237 4.44377 2.40073 4.04807 2.90185 3.96454L11.2794 33.2956C9.98447 33.5742 8.8633 34.3604 8.8633 35.6988V40.6266L1.01237 9.44349C0.984533 8.77532 1.01237 7.04768 1.01237 5.71503Z" fill="#7F99AE" stroke="#303030" stroke-width="0.4"/>
<path d="M10.7891 39.9858C9.34167 40.375 8.99437 40.1856 8.86627 39.256V40.5834C8.86627 40.5834 8.95572 41.1004 9.70348 40.9824C10.4512 40.8644 34.1917 35.3645 34.1917 35.3645L33.0415 30.1634V34.8529C25.7004 36.521 12.2649 39.5889 10.7891 39.9858Z" fill="#7F99AE" stroke="#303030" stroke-width="0.4"/>
<path d="M33.0471 34.8142V28.617C26.5775 30.0207 12.6395 32.9995 11.2996 33.2927C9.68552 33.6459 8.86981 34.6291 8.86981 35.5729V38.9187C8.86981 40.0283 9.28574 40.2584 9.94367 40.1697L33.0471 34.8142Z" fill="#F2E8DA" stroke="#303030" stroke-width="0.4"/>
<path d="M10.4351 35.5092L30.6233 31.0229M17.5307 35.5092L28.6548 33.0372M13.2734 37.8897L24.8095 35.2345" stroke="#303030" stroke-width="0.2"/>
</svg>
