<svg width="43" height="27" viewBox="0 0 43 27" fill="none" xmlns="http://www.w3.org/2000/svg">
<path d="M38.5811 11.6822C38.5711 11.744 38.5591 11.8159 38.5463 11.8963C38.5014 12.1786 38.4418 12.5661 38.382 12.985C38.2631 13.8167 38.1411 14.794 38.1411 15.3177C38.1411 15.8438 38.2636 16.6805 38.3826 17.3716C38.4426 17.7197 38.5029 18.0358 38.5479 18.265C38.5576 18.3148 38.5664 18.3609 38.5746 18.4019L13.968 20.0019L13.7173 13.1168L38.5811 11.6822Z" fill="#F2E8DA" stroke="#303030" stroke-width="0.4"/>
<path d="M25.1198 3.22987L39.5967 12.008L14.7596 13.5446L4.19613 3.76412L25.1198 3.22987Z" fill="#D6B689" stroke="#303030" stroke-width="0.4"/>
<path d="M32.587 16.2026L32.587 13.908L35.1082 13.6837L35.1746 16.0533L33.828 15.0789L32.587 16.2026Z" fill="#6D889D" stroke="#303030" stroke-width="0.2"/>
<path d="M16.8338 14.9817L37.352 13.5209" stroke="#303030" stroke-width="0.2"/>
<path d="M20.3519 16.7695L28.7424 16.1616" stroke="#303030" stroke-width="0.2"/>
<path d="M3.22275 4.66784C3.22271 3.92214 3.32587 3.7252 4.08501 3.7252L14.7383 13.5676C14.0872 13.7642 14.0952 14.1561 14.0872 14.5512L14.0872 18.9229C14.0872 19.356 14.4396 19.7999 15.0503 19.7694C15.661 19.7388 38.5929 18.2478 38.5929 18.2478L38.3604 16.8528L40.1746 18.5823C40.1746 18.5823 14.7444 20.2703 14.3321 20.2703C13.9198 20.2703 4.92724 10.6892 3.54313 9.05118C3.22267 8.67193 3.22272 8.25465 3.22275 7.98799L3.22275 7.98013L3.22275 4.66784Z" fill="#937A57" stroke="#303030" stroke-width="0.4"/>
</svg>
