<svg width="42" height="27" viewBox="0 0 42 27" fill="none" xmlns="http://www.w3.org/2000/svg">
<path d="M23.4286 23.3484C25.862 21.9434 26.5348 18.553 24.9313 15.7757C23.3278 12.9983 20.0552 11.8857 17.6218 13.2907C15.1884 14.6956 14.5156 18.0861 16.1191 20.8634C17.7226 23.6408 20.9952 24.7533 23.4286 23.3484Z" fill="#D3E6F6" stroke="#303030" stroke-width="0.4" stroke-miterlimit="10"/>
<path d="M16.2827 14.4731C15.917 13.7689 14.6148 12.7162 13.4782 13.1709" stroke="#303030" stroke-width="0.4" stroke-miterlimit="10"/>
<path d="M11.2129 18.6855C13.6464 17.2806 14.3192 13.8901 12.7157 11.1128C11.1122 8.33543 7.83956 7.22287 5.40613 8.62781C2.97269 10.0328 2.2999 13.4232 3.90341 16.2005C5.50691 18.9779 8.7795 20.0905 11.2129 18.6855Z" fill="#D3E6F6" stroke="#303030" stroke-width="0.4" stroke-miterlimit="10"/>
<path d="M21.714 4.6312C19.8237 -1.91196 14.3727 2.38508 14.3727 2.38508L6.40378 8.19683" stroke="#303030" stroke-width="0.4" stroke-miterlimit="10"/>
<path d="M41 11.1595C40.5675 6.19777 37.1329 8.96775 37.1329 8.96775L25.7021 17.6804" stroke="#303030" stroke-width="0.4" stroke-miterlimit="10"/>
<path d="M7.84683 17.6335C8.55848 17.9844 10.2313 18.061 10.8787 17.0232" stroke="#303030" stroke-width="0.4" stroke-miterlimit="10"/>
<path d="M19.8088 22.2468C20.5205 22.5977 22.1933 22.6743 22.8407 21.6365" stroke="#303030" stroke-width="0.4" stroke-miterlimit="10"/>
</svg>
