<svg width="39" height="42" viewBox="0 0 39 42" fill="none" xmlns="http://www.w3.org/2000/svg">
<path d="M1 7.47944C4.02151 13.4889 6.12628 31.0217 6.84708 38.8652C18.2945 35.0055 24.3874 35.7214 34.0711 39.3302C33.6538 25.3607 35.8833 10.3144 37.0367 4.62721C34.0378 7.11613 29.5007 13.0328 28.2222 15.5378C28.1143 11.6878 25.7368 4.14831 23.9463 1.00201C22.1087 4.79014 19.8649 11.9427 19.2804 15.0514C18.0547 9.60795 14.4425 3.41964 12.482 1C11.8232 2.40623 10.695 11.8247 10.2133 16.3582C7.95844 12.7925 3.13158 8.9533 1 7.47944Z" fill="#E5CEAE" stroke="#303030" stroke-width="0.4"/>
<path d="M8.20966 38.113C14.9445 35.6581 25.2282 35.5499 32.0541 38.015C44.0472 42.346 -1.35066 41.5979 8.20966 38.113Z" fill="#BFA687" stroke="#303030" stroke-width="0.4"/>
<path d="M5.02017 15.8907C4.98055 15.2566 5.53535 14.7811 6.16942 14.5433C7.51681 14.3055 7.70275 15.7815 7.60051 16.2467C7.51429 16.639 6.72423 17.1588 6.16942 17.1985C5.6146 17.2381 5.0598 16.5248 5.02017 15.8907Z" fill="#5BA27E" stroke="#303030" stroke-width="0.2"/>
<path d="M15.8582 13.6996C15.625 14.2906 14.9208 14.4857 14.2458 14.4319C12.9248 14.0753 13.3829 12.6599 13.673 12.2821C13.9175 11.9635 14.8535 11.8281 15.3727 12.0277C15.8919 12.2273 16.0915 13.1087 15.8582 13.6996Z" fill="#BED5E8" stroke="#303030" stroke-width="0.2"/>
<path d="M24.8915 12.3077C25.3332 12.7644 25.2197 13.4862 24.8916 14.0787C24.0209 15.134 22.9215 14.1318 22.6974 13.7115C22.5084 13.3571 22.772 12.4489 23.1684 12.0586C23.5648 11.6684 24.4498 11.851 24.8915 12.3077Z" fill="#9BD8B9" stroke="#303030" stroke-width="0.2"/>
<path d="M32.0857 15.7757C31.4658 15.6366 31.1642 14.9711 31.1129 14.2958C31.261 12.9357 32.7302 13.1694 33.1483 13.3975C33.5009 13.5899 33.7793 14.4937 33.6624 15.0375C33.5455 15.5813 32.7056 15.9148 32.0857 15.7757Z" fill="#7F99AE" stroke="#303030" stroke-width="0.2"/>
<path d="M12.3157 19.9362C12.3401 19.8809 12.4183 19.8809 12.4426 19.9362L12.9475 21.0807C12.9949 21.1882 13.1071 21.2526 13.2239 21.2399L14.468 21.1042C14.5277 21.098 14.5667 21.1659 14.5315 21.2145L13.7923 22.2243C13.7229 22.319 13.7229 22.4479 13.7923 22.5426L14.5315 23.5524C14.5671 23.6011 14.5279 23.669 14.468 23.6628L13.2239 23.528C13.1071 23.5153 12.9949 23.5797 12.9475 23.6872L12.4426 24.8317C12.4182 24.8869 12.34 24.887 12.3157 24.8317L11.8108 23.6872C11.7634 23.5797 11.6522 23.5154 11.5354 23.528L10.2913 23.6628C10.2312 23.6693 10.1921 23.6012 10.2278 23.5524L10.9671 22.5426C11.0362 22.4479 11.0364 22.319 10.9671 22.2243L10.2278 21.2145C10.1922 21.1658 10.2312 21.0976 10.2913 21.1042L11.5354 21.2399C11.6521 21.2525 11.7634 21.1881 11.8108 21.0807L12.3157 19.9362Z" fill="#9BD8B9" stroke="#303030" stroke-width="0.2"/>
<path d="M26.0223 17.0961C26.0467 17.0408 26.1249 17.0408 26.1493 17.0961L26.6542 18.2406C26.7016 18.3481 26.8138 18.4125 26.9305 18.3998L28.1747 18.2641C28.2344 18.2579 28.2734 18.3258 28.2382 18.3744L27.4989 19.3842C27.4295 19.4789 27.4296 19.6078 27.4989 19.7025L28.2382 20.7123C28.2738 20.761 28.2346 20.8289 28.1747 20.8226L26.9305 20.6879C26.8138 20.6752 26.7016 20.7396 26.6542 20.8471L26.1493 21.9916C26.1248 22.0468 26.0467 22.0468 26.0223 21.9916L25.5175 20.8471C25.4701 20.7396 25.3588 20.6752 25.2421 20.6879L23.9979 20.8226C23.9379 20.8292 23.8988 20.7611 23.9344 20.7123L24.6737 19.7025C24.7429 19.6078 24.743 19.4789 24.6737 19.3842L23.9344 18.3744C23.8989 18.3257 23.9379 18.2575 23.9979 18.2641L25.2421 18.3998C25.3588 18.4124 25.4701 18.348 25.5175 18.2406L26.0223 17.0961Z" fill="#BED5E8" stroke="#303030" stroke-width="0.2"/>
<path d="M18.5201 31.7352H17.6457C16.9553 30.6295 16.2369 28.2515 16.2369 27.058C16.2369 25.5057 17.7855 24.6065 18.2895 22.8913C18.6928 21.5191 16.0739 19.8236 14.784 19.1979L15.0429 18.7125C16.0246 19.0037 18.1627 20.0135 18.8617 21.7223C19.7356 23.8582 17.6457 24.7644 17.2112 26.7062C16.8636 28.2596 17.939 30.7062 18.5201 31.7352Z" fill="#9BD8B9" stroke="#303030" stroke-width="0.2"/>
<path d="M30.2962 21.0842L31.1607 20.9949C31.0367 22.7215 30.54 24.0593 29.2238 24.6899C27.8207 25.3621 29.729 27.6284 26.3539 27.9771C24.6535 28.1528 25.9145 30.9147 23.8929 32.6622L23.2908 32.0909C24.8667 30.9928 24.1259 28.74 25.0565 27.866C26.3464 26.6545 27.7245 27.4982 27.8008 25.8786C27.9376 22.9745 30.4643 24.6625 30.2962 21.0842Z" fill="#5BA27E" stroke="#303030" stroke-width="0.2"/>
<path d="M14.5287 33.022L15.1798 33.01C15.503 31.889 15.7433 30.3376 15.2291 29.8879C14.1856 28.9751 14.0299 30.3858 12.151 30.4205C11.1714 30.4385 12.8478 29.1451 12.6775 27.9725C12.5073 26.8 10.7082 28.171 10.8349 26.9794C10.9616 25.7879 9.95216 25.2794 9.95216 25.2794L9.49932 25.6391C9.49932 25.6391 10.4327 26.4193 10.2234 27.5313C10.0141 28.6432 12.2206 27.3806 11.9322 28.5944C11.6438 29.8082 10.4791 30.8306 11.8413 31.0344C13.3492 31.2601 14.1493 30.0045 14.6846 30.3738C15.4206 30.8815 14.7023 32.1565 14.5287 33.022Z" fill="#7F99AE" stroke="#303030" stroke-width="0.2"/>
<path d="M23.1095 23.1002L22.6559 22.6329C21.6164 23.1627 20.3193 24.047 20.3421 24.7297C20.3885 26.1154 21.525 25.2654 22.8339 26.6138C23.5163 27.3169 21.4265 26.9762 20.6865 27.9016C19.9465 28.827 22.1768 29.2042 21.2201 29.9257C20.2633 30.6472 20.5816 31.7317 20.5816 31.7317L21.1536 31.8166C21.1536 31.8166 21.0857 30.6021 22.0408 29.9953C22.9958 29.3885 20.5663 28.6396 21.6498 28.0211C22.7332 27.4025 24.2755 27.5546 23.4938 26.4206C22.6285 25.1652 21.165 25.4386 21.069 24.7955C20.937 23.9111 22.3588 23.5647 23.1095 23.1002Z" fill="#BED5E8" stroke="#303030" stroke-width="0.2"/>
</svg>
