<svg width="39" height="42" viewBox="0 0 39 42" fill="none" xmlns="http://www.w3.org/2000/svg">
<path d="M1 7.47944C4.02151 13.4889 6.12628 31.0217 6.84708 38.8652C18.2945 35.0055 24.3874 35.7214 34.0711 39.3302C33.6538 25.3607 35.8833 10.3144 37.0367 4.62721C34.0378 7.11613 29.5007 13.0328 28.2222 15.5378C28.1143 11.6878 25.7368 4.14831 23.9463 1.00201C22.1087 4.79014 19.8649 11.9427 19.2804 15.0514C18.0547 9.60795 14.4425 3.41964 12.482 1C11.8232 2.40623 10.695 11.8247 10.2133 16.3582C7.95844 12.7925 3.13158 8.9533 1 7.47944Z" fill="#BED5E8" stroke="#303030" stroke-width="0.4"/>
<path d="M8.20966 38.113C14.9445 35.6581 25.2282 35.5499 32.0541 38.015C44.0472 42.346 -1.35066 41.5979 8.20966 38.113Z" fill="#7F99AE" stroke="#303030" stroke-width="0.4"/>
<path d="M5.02017 15.8907C4.98055 15.2566 5.53535 14.7811 6.16942 14.5433C7.51681 14.3055 7.70275 15.7815 7.60051 16.2467C7.51429 16.639 6.72423 17.1588 6.16942 17.1985C5.6146 17.2381 5.0598 16.5248 5.02017 15.8907Z" fill="#BFA687" stroke="#303030" stroke-width="0.2"/>
<path d="M15.8582 13.6996C15.625 14.2906 14.9208 14.4857 14.2458 14.4319C12.9248 14.0753 13.3829 12.6599 13.673 12.2821C13.9175 11.9635 14.8535 11.8281 15.3727 12.0277C15.8919 12.2273 16.0915 13.1087 15.8582 13.6996Z" fill="#ECDBC2" stroke="#303030" stroke-width="0.2"/>
<path d="M24.8915 12.3077C25.3332 12.7644 25.2197 13.4863 24.8916 14.0787C24.0209 15.134 22.9215 14.1318 22.6974 13.7115C22.5084 13.3571 22.772 12.4489 23.1684 12.0587C23.5648 11.6684 24.4498 11.8511 24.8915 12.3077Z" fill="#D6B689" stroke="#303030" stroke-width="0.2"/>
<path d="M32.0857 15.7757C31.4658 15.6366 31.1642 14.9711 31.1129 14.2958C31.261 12.9357 32.7302 13.1694 33.1483 13.3975C33.5009 13.5899 33.7793 14.4937 33.6624 15.0375C33.5455 15.5813 32.7056 15.9148 32.0857 15.7757Z" fill="#5BA27E" stroke="#303030" stroke-width="0.2"/>
<path d="M12.3157 20.4323C12.3401 20.377 12.4183 20.377 12.4427 20.4323L12.9475 21.5768C12.9949 21.6843 13.1071 21.7487 13.2239 21.736L14.468 21.6003C14.5278 21.5941 14.5667 21.662 14.5315 21.7106L13.7923 22.7204C13.7229 22.8151 13.723 22.944 13.7923 23.0388L14.5315 24.0485C14.5671 24.0972 14.5279 24.1651 14.468 24.1589L13.2239 24.0241C13.1071 24.0114 12.9949 24.0758 12.9475 24.1833L12.4427 25.3278C12.4182 25.383 12.3401 25.3831 12.3157 25.3278L11.8108 24.1833C11.7634 24.0758 11.6522 24.0115 11.5354 24.0241L10.2913 24.1589C10.2312 24.1654 10.1921 24.0973 10.2278 24.0485L10.9671 23.0388C11.0362 22.944 11.0364 22.8151 10.9671 22.7204L10.2278 21.7106C10.1923 21.6619 10.2313 21.5938 10.2913 21.6003L11.5354 21.736C11.6521 21.7486 11.7634 21.6842 11.8108 21.5768L12.3157 20.4323Z" fill="#ECDBC2" stroke="#303030" stroke-width="0.2"/>
<path d="M26.0224 17.5922C26.0467 17.5369 26.1249 17.5369 26.1493 17.5922L26.6542 18.7367C26.7016 18.8442 26.8138 18.9086 26.9306 18.8959L28.1747 18.7602C28.2344 18.754 28.2734 18.8219 28.2382 18.8705L27.4989 19.8803C27.4296 19.975 27.4296 20.1039 27.4989 20.1986L28.2382 21.2084C28.2738 21.2571 28.2346 21.325 28.1747 21.3188L26.9306 21.184C26.8138 21.1713 26.7016 21.2357 26.6542 21.3432L26.1493 22.4877C26.1249 22.5429 26.0467 22.543 26.0224 22.4877L25.5175 21.3432C25.4701 21.2357 25.3588 21.1714 25.2421 21.184L23.998 21.3188C23.9379 21.3253 23.8988 21.2572 23.9345 21.2084L24.6737 20.1986C24.7429 20.1039 24.743 19.975 24.6737 19.8803L23.9345 18.8705C23.8989 18.8218 23.9379 18.7536 23.998 18.7602L25.2421 18.8959C25.3588 18.9085 25.4701 18.8441 25.5175 18.7367L26.0224 17.5922Z" fill="#9BD8B9" stroke="#303030" stroke-width="0.2"/>
<path d="M18.5201 32.2314H17.6457C16.9554 31.1256 16.237 28.7476 16.237 27.5541C16.237 26.0018 17.7855 25.1026 18.2895 23.3874C18.6928 22.0152 16.0739 20.3197 14.784 19.694L15.0429 19.2086C16.0246 19.4998 18.1627 20.5096 18.8618 22.2184C19.7356 24.3543 17.6457 25.2605 17.2112 27.2023C16.8636 28.7557 17.939 31.2023 18.5201 32.2314Z" fill="#9BD8B9" stroke="#303030" stroke-width="0.2"/>
<path d="M30.2962 21.5803L31.1607 21.491C31.0367 23.2176 30.5401 24.5554 29.2238 25.186C27.8207 25.8582 29.7291 28.1245 26.354 28.4733C24.6536 28.6489 25.9145 31.4109 23.8929 33.1583L23.2908 32.587C24.8667 31.489 24.1259 29.2361 25.0565 28.3621C26.3465 27.1506 27.7246 27.9943 27.8008 26.3747C27.9376 23.4706 30.4643 25.1586 30.2962 21.5803Z" fill="#FBF3E8" stroke="#303030" stroke-width="0.2"/>
<path d="M14.5287 33.5181L15.1798 33.5061C15.503 32.3851 15.7433 30.8337 15.2292 30.384C14.1856 29.4712 14.0299 30.882 12.151 30.9166C11.1714 30.9346 12.8478 29.6412 12.6776 28.4686C12.5073 27.2961 10.7082 28.6671 10.8349 27.4755C10.9616 26.284 9.95218 25.7755 9.95218 25.7755L9.49933 26.1352C9.49933 26.1352 10.4327 26.9154 10.2234 28.0274C10.0141 29.1394 12.2207 27.8767 11.9322 29.0905C11.6438 30.3043 10.4791 31.3267 11.8413 31.5305C13.3492 31.7562 14.1493 30.5006 14.6846 30.8699C15.4206 31.3776 14.7023 32.6526 14.5287 33.5181Z" fill="#BBE3CE" stroke="#303030" stroke-width="0.2"/>
<path d="M23.1095 23.5963L22.6559 23.129C21.6164 23.6589 20.3193 24.5431 20.3421 25.2259C20.3885 26.6115 21.525 25.7615 22.8339 27.1099C23.5163 27.813 21.4265 27.4723 20.6865 28.3977C19.9465 29.3231 22.1768 29.7003 21.2201 30.4218C20.2633 31.1433 20.5816 32.2278 20.5816 32.2278L21.1536 32.3128C21.1536 32.3128 21.0857 31.0982 22.0408 30.4914C22.9958 29.8846 20.5663 29.1358 21.6498 28.5172C22.7332 27.8986 24.2755 28.0507 23.4938 26.9167C22.6285 25.6613 21.165 25.9347 21.069 25.2916C20.937 24.4073 22.3588 24.0608 23.1095 23.5963Z" fill="#CCEADA" stroke="#303030" stroke-width="0.2"/>
</svg>
