<svg width="42" height="24" viewBox="0 0 42 24" fill="none" xmlns="http://www.w3.org/2000/svg">
<g clip-path="url(#clip0_1067_2945)">
<path d="M9.3803 22.2772V5.54475L21.0226 1.00001L32.6193 5.54475V22.2772H9.3803Z" fill="#ECDBC2" stroke="#303030" stroke-width="0.4"/>
<path d="M32.6193 22.2772V7.77H41V22.2772H32.6193Z" fill="#F2E8DA" stroke="#303030" stroke-width="0.4"/>
<path d="M1.00001 22.2772V7.77H9.38073V22.2772H1.00001Z" fill="#F2E8DA" stroke="#303030" stroke-width="0.4"/>
<path d="M24.7397 10.2687C24.5699 9.28889 23.6318 8.66638 22.5581 8.91888C21.5452 9.15708 20.9998 10.3481 20.9998 10.3481C20.9998 10.3481 20.4544 9.15708 19.4415 8.91888C18.3678 8.66638 17.4297 9.28889 17.2599 10.2687C17.0261 11.6185 17.8832 12.8889 18.5844 14.0006C19.2857 15.1122 20.9998 17.4148 20.9998 17.4148C20.9998 17.4148 22.7139 15.1122 23.4152 14.0006C24.1164 12.8889 24.9735 11.6185 24.7397 10.2687Z" fill="#76C69D" stroke="#303030" stroke-width="0.4" stroke-miterlimit="10"/>
</g>
<defs>
<clipPath id="clip0_1067_2945">
<rect width="41.9997" height="23.2771" fill="white"/>
</clipPath>
</defs>
</svg>
