<svg width="37" height="42" viewBox="0 0 37 42" fill="none" xmlns="http://www.w3.org/2000/svg">
<path d="M3.26375 27.2778C4.97092 26.144 7.93201 24.5405 10.2391 23.5244M14.4574 29.3645C14.039 30.1966 6.67483 33.6946 6.24146 33.8484M28.0426 25.1285C29.8685 24.9296 32.0021 24.1767 32.9015 23.346C33.9889 22.3416 32.4549 18.2405 31.1917 18.0572C29.443 17.8034 29.3315 18.1869 28.4905 18.3645" stroke="#303030" stroke-width="0.4"/>
<path d="M33.9552 28.4598C32.5298 27.5123 29.8329 26.2859 27.9916 25.2399M31.297 35.2328C30.5567 35.045 24.6096 32.773 24.257 32.1002C24.1031 31.8064 23.4483 31.0952 22.6168 30.3926M9.27001 17.5092C8.98057 17.4234 8.73744 17.36 8.49556 17.3628C7.69813 17.372 4.83056 18.753 5.55087 22.6712C5.70928 23.5328 8.08302 23.3441 10.1829 23.2772" stroke="#303030" stroke-width="0.4"/>
<path d="M20.4864 36.4564C21.7586 34.6108 21.9764 31.4428 22.5232 30.4211C22.5804 30.3143 22.6326 30.2132 22.6806 30.1156M10.5724 36.1141C10.5724 36.1141 13.0815 30.6254 13.7217 30.2872C13.9154 30.1849 14.3548 29.8903 14.8678 29.4927" stroke="#303030" stroke-width="0.4"/>
<path d="M6.50746 29.2662C6.04038 28.5366 4.2936 27.392 3.45063 27.2513C2.60762 27.1106 1.49141 29.958 1.4661 30.8919C1.4408 31.8258 2.44492 34.1707 3.0307 34.3109C3.61648 34.451 5.58667 34.5606 6.30568 33.7825C7.0247 33.0045 8.14379 31.8221 6.50746 29.2662Z" stroke="#303030" stroke-width="0.4"/>
<path d="M31.2314 30.082C31.6114 29.5212 33.0702 28.5182 33.7627 28.4302C34.7797 28.4304 35.389 30.6096 35.415 31.3441C35.441 32.0787 34.6282 33.8946 34.1473 33.989C33.6663 34.0835 31.999 35.6864 31.3374 35.259C29.7082 34.2064 29.8998 32.0468 31.2314 30.082Z" stroke="#303030" stroke-width="0.4"/>
<path d="M18.5021 33.919C19.1793 34.1945 20.393 35.7454 20.56 36.3512C20.6572 37.2554 19.0328 39.4191 18.1961 39.5239C17.3594 39.6287 14.4385 39.925 12.6776 39.5873C11.5019 39.3618 10.1681 36.7055 10.593 36.0698C11.6393 34.5043 15.2322 32.5887 18.5021 33.919Z" stroke="#303030" stroke-width="0.4"/>
<path d="M16.8299 11.5505C18.7883 8.97689 17.1293 3.69026 19.413 1.661C19.4533 5.14768 23.4694 4.61743 23.5283 9.71674C23.5351 10.3093 23.5833 10.8798 23.658 11.4298" stroke="#303030" stroke-width="0.4"/>
<path d="M27.2395 14.4251C27.748 11.2459 26.8865 8.45706 25.3319 6.18956C25.3362 8.42363 24.4813 9.90299 23.6572 11.4801C23.0355 12.4772 21.879 15.1797 22.2273 18.0122M12.0785 15.0746C12.2755 14.4495 12.5017 13.7114 12.7384 12.6851C13.5467 9.18051 12.9506 9.0041 14.7173 6.31214C15.1348 10.5248 16.6988 10.4534 17.5915 13.2759C17.7763 13.8604 17.9033 14.4649 17.9912 15.0746" stroke="#303030" stroke-width="0.4"/>
<path d="M10.2511 23.5878C12.0608 29.5179 16.1166 30.2489 18.5381 30.221C21.7811 30.1836 24.7888 31.1107 27.3635 26.5369C29.4812 22.7751 27.748 18.5916 28.6582 12.7841C25.8859 15.0498 24.9226 20.8609 23.7557 20.1964C21.4219 18.8673 20.1266 10.0395 20.1266 10.0395C20.1266 10.0395 18.6228 14.7913 17.3052 15.7389C15.6649 16.9187 16.9808 24.4493 15.6472 22.5529C14.3136 20.6564 14.1069 15.3718 9.49161 13.0054C10.1295 16.6468 8.17669 16.7906 10.2511 23.5878Z" stroke="#303030" stroke-width="0.4"/>
</svg>
