<svg width="37" height="42" viewBox="0 0 37 42" fill="none" xmlns="http://www.w3.org/2000/svg">
<path d="M13.0121 22.6732C11.5984 22.5869 5.8231 25.6232 3.19245 27.3709C6.24776 27.8142 8.67524 31.6488 6.45265 33.6044C4.89035 34.979 14.0152 30.2129 14.4329 29.3821C14.8505 28.5514 16.573 24.6933 18.6312 24.8434C20.6893 24.9934 23.8184 23.8097 25.4261 24.8434C26.9182 25.8027 31.4222 24.685 32.8426 23.3726C33.928 22.3698 32.397 18.2754 31.1362 18.0924C28.5884 17.7226 29.5225 18.7085 26.5914 18.4317C23.6603 18.155 20.0348 17.7811 19.9292 18.5086C19.8236 19.2361 17.9509 19.8558 14.75 19.3913C13.2339 18.5771 14.7792 22.781 13.0121 22.6732Z" fill="#5E4521" stroke="#303030" stroke-width="0.4"/>
<path d="M26.0417 23.7934C26.4747 24.8941 31.6966 27.0183 33.8931 28.4788C31.3561 28.7484 29.1106 33.3689 30.9691 34.9837C32.2755 36.1187 24.5651 32.7852 24.2132 32.1135C23.8613 31.4418 20.8885 28.5851 19.1787 28.6487C17.4689 28.7122 13.6332 25.4504 13.3943 23.9394C13.1554 22.4284 5.8246 24.2354 5.54231 22.6995C4.82336 18.7876 7.68553 17.4088 8.48145 17.3996C9.27738 17.3903 10.0868 18.0995 12.5216 17.959C14.9563 17.8184 19.3914 20.7148 19.9314 20.9806C23.0775 22.5289 25.5139 22.4521 26.0417 23.7934Z" fill="#5E4521" stroke="#303030" stroke-width="0.4"/>
<path d="M22.4824 30.4368C21.9365 31.4569 21.7189 34.6201 20.4487 36.4628C19.0936 31.4401 12.1479 34.2095 10.696 35.8054C9.67547 36.9272 13.0566 30.6411 13.6957 30.3034C14.3348 29.9658 17.6538 27.5312 17.4478 26.2132C17.2419 24.8952 18.7932 21.918 20.277 21.5865C28.5581 19.7361 24.45 22.258 23.7105 25.8992C23.1348 28.7338 23.1375 29.2129 22.4824 30.4368Z" fill="#705C40" stroke="#303030" stroke-width="0.4"/>
<path d="M6.49897 29.2848C6.03263 28.5563 4.28861 27.4134 3.44697 27.273C2.6053 27.1325 1.49084 29.9755 1.46557 30.9079C1.44031 31.8403 2.44284 34.1816 3.0277 34.3215C3.61255 34.4615 5.66083 34.604 6.37871 33.8271C7.09659 33.0503 8.13271 31.8366 6.49897 29.2848Z" fill="#705C40" stroke="#303030" stroke-width="0.4"/>
<path d="M31.1731 30.0986C31.5526 29.5387 33.0092 28.5372 33.7006 28.4493C34.716 28.4495 35.3242 30.6253 35.3501 31.3587C35.3761 32.0921 34.5645 33.9052 34.0843 33.9995C33.604 34.0938 31.9465 35.7702 31.286 35.3434C29.6593 34.2925 29.8436 32.0604 31.1731 30.0986Z" fill="#937A57" stroke="#303030" stroke-width="0.4"/>
<path d="M18.469 33.9296C19.1451 34.2047 20.3568 35.7531 20.5235 36.358C20.6205 37.2607 18.9985 39.4212 18.1632 39.5259C17.3278 39.6306 14.4115 39.9266 12.6535 39.5895C11.4797 39.3644 10.1481 36.7123 10.5724 36.0775C11.6171 34.5144 15.2044 32.6016 18.469 33.9296Z" fill="#BFA687" stroke="#303030" stroke-width="0.4"/>
<path d="M16.801 11.5966C18.7562 9.02699 17.1001 3.74866 19.3799 1.72248C19.4201 5.20373 23.4294 4.67415 23.4881 9.76551C23.5454 14.7309 26.5108 18.1423 23.6174 20.9665C20.5197 23.9902 18.1756 25.4427 16.2879 22.2571C11.6263 14.39 13.0669 16.5041 16.801 11.5966Z" fill="#E5CEAE" stroke="#303030" stroke-width="0.4"/>
<path d="M17.5619 13.3195C16.6707 10.5014 15.1091 10.5727 14.6923 6.36657C12.9285 9.05432 13.5236 9.23046 12.7165 12.7296C11.7077 17.1035 10.8918 16.2331 11.7053 23.737C12.5187 31.2409 18.5594 27.8645 22.7014 28.2907C26.8435 28.7169 26.2717 19.8449 27.2132 18.2842C28.1547 16.7234 26.8531 16.0885 27.1653 14.1361C27.673 10.9619 26.842 8.50814 25.2899 6.24419C25.2984 10.7428 21.8181 12.1765 22.1378 17.5269C22.2396 19.2296 19.907 23.9073 19.0825 23.2307C17.476 21.9123 18.782 17.1775 17.5619 13.3195Z" fill="#ECDBC2" stroke="#303030" stroke-width="0.4"/>
<path d="M10.2337 23.6146C12.04 29.5351 16.0882 30.2651 18.5051 30.2372C21.7419 30.1998 24.744 31.1255 27.3139 26.5589C29.4275 22.8032 27.6977 18.6263 28.6061 12.8281C25.8391 15.0902 24.8775 20.892 23.7128 20.2285C21.3834 18.9015 20.0907 10.0879 20.0907 10.0879C20.0907 10.0879 18.5896 14.8321 17.2746 15.7782C15.6373 16.9561 16.9508 24.4747 15.6196 22.5813C14.2885 20.6878 14.0823 15.4116 9.47565 13.049C10.1123 16.6846 8.16321 16.8282 10.2337 23.6146Z" fill="#D6B689" stroke="#303030" stroke-width="0.4"/>
</svg>
