<svg width="44" height="40" viewBox="0 0 44 40" fill="none" xmlns="http://www.w3.org/2000/svg">
<path d="M38.7244 23.4924C38.7149 23.5506 38.7043 23.6183 38.6924 23.6933C38.649 23.9662 38.5908 24.3405 38.533 24.7454C38.4181 25.5494 38.3004 26.4946 38.3004 27.0012C38.3005 27.5104 38.4191 28.3187 38.5341 28.9865C38.5922 29.3234 38.6495 29.6302 38.6929 29.8519C38.7018 29.897 38.7097 29.9386 38.7172 29.9763L14.9427 31.5224L14.701 24.8785L38.7244 23.4924Z" fill="#D3E6F6" stroke="#303030" stroke-width="0.4"/>
<path d="M25.7149 15.3209L39.6954 23.7968L15.7045 25.2811L5.5053 15.8373L25.7149 15.3209Z" fill="#A9DBC2" stroke="#303030" stroke-width="0.4"/>
<path d="M32.9365 27.8562L32.9365 25.638L35.3738 25.4212L35.438 27.7118L34.1362 26.7699L32.9365 27.8562Z" fill="#E5CEAE" stroke="#303030" stroke-width="0.2"/>
<path d="M17.7079 26.6757L37.5429 25.2636" stroke="#303030" stroke-width="0.2"/>
<path d="M21.1087 28.4039L29.2199 27.8163" stroke="#303030" stroke-width="0.2"/>
<path d="M4.54997 16.7051C4.54993 15.9843 4.64966 15.7939 5.38352 15.7939L15.6821 25.3086C15.0527 25.4986 15.0604 25.8775 15.0527 26.2594L15.0527 30.4855C15.0527 30.9042 15.3933 31.3334 15.9837 31.3038C16.5741 31.2743 38.7425 29.833 38.7425 29.833L38.5177 28.4843L40.2715 30.1563C40.2715 30.1563 15.688 31.7881 15.2894 31.7881C14.8909 31.7881 6.1977 22.526 4.85968 20.9425C4.54989 20.5759 4.54994 20.1725 4.54997 19.9147L4.54997 19.9071L4.54997 16.7051Z" fill="#76C69D" stroke="#303030" stroke-width="0.4"/>
<path d="M36.1651 16.3412C36.1596 16.402 36.153 16.4754 36.1457 16.5584C36.1232 16.8152 36.0934 17.168 36.0655 17.5522C36.01 18.3168 35.9594 19.2206 35.9851 19.7333C36.011 20.2485 36.1584 21.0641 36.296 21.7407C36.3654 22.0814 36.4331 22.3912 36.4835 22.6152C36.4955 22.6688 36.5063 22.7175 36.5162 22.7606L15.3613 24.1751L14.7991 17.3587L36.1651 16.3412Z" fill="#F2E8DA" stroke="#303030" stroke-width="0.360206"/>
<path d="M24.137 9.52905L36.9459 16.4093L15.7319 17.7622L6.74411 10.253L24.137 9.52905Z" fill="#7F99AE" stroke="#303030" stroke-width="0.360206"/>
<path d="M17.7038 19.685L32.3187 18.7009" stroke="#303030" stroke-width="0.180103"/>
<path d="M21.4943 20.9968L30.4964 20.4137" stroke="#303030" stroke-width="0.180103"/>
<path d="M5.93124 11.1592C5.89432 10.4234 5.97427 10.2244 6.63423 10.1897L15.706 17.763C15.1497 17.9868 15.176 18.3731 15.1886 18.7633L15.4048 23.0769C15.4262 23.5042 15.7545 23.9261 16.2839 23.8681C16.8133 23.81 36.5247 22.6778 36.5247 22.6778L36.2717 21.4538L37.9344 23.0774C37.9344 23.0774 16.0427 24.3763 15.6843 24.3951C15.3259 24.414 7.71078 17.0226 6.42651 15.4696C6.12917 15.11 6.10858 14.6983 6.09542 14.4352L6.09503 14.4274L5.93124 11.1592Z" fill="#BED5E8" stroke="#303030" stroke-width="0.360206"/>
<path d="M35.2511 10.0451C35.2458 10.0918 35.2399 10.146 35.2334 10.2054C35.2086 10.4316 35.1767 10.7424 35.1453 11.0807C35.083 11.7533 35.0235 12.5516 35.0447 13.0055C35.0661 13.4622 35.2064 14.1813 35.3378 14.7741C35.404 15.0728 35.4697 15.3436 35.5181 15.54C35.5268 15.5755 35.5348 15.6092 35.5424 15.6396L14.4014 17.1861L13.9047 11.2447L35.2511 10.0451Z" fill="#EAEAEA" stroke="#303030" stroke-width="0.360206"/>
<path d="M23.3112 4.22603L35.9589 10.0524L14.8226 11.5426L5.96986 5.10832L23.3112 4.22603Z" fill="#E5CEAE" stroke="#303030" stroke-width="0.360206"/>
<path d="M16.206 14.3952L30.8141 13.3208" stroke="#303030" stroke-width="0.180103"/>
<path d="M24.0425 14.8786L33.0403 14.2371" stroke="#303030" stroke-width="0.180103"/>
<path d="M18.1809 12.8936L33.213 11.7844" stroke="#303030" stroke-width="0.180103"/>
<path d="M5.10066 5.89792C5.07044 5.25145 5.15209 5.07529 5.81166 5.03532L14.8053 11.5649C14.2475 11.7696 14.2703 12.109 14.2794 12.4519L14.4564 16.2418C14.4739 16.6173 14.798 16.9836 15.3274 16.925C15.8567 16.8664 35.5572 15.5887 35.5572 15.5887L35.3156 14.516L36.9619 15.9199C36.9619 15.9199 15.0819 17.3753 14.7237 17.397C14.3655 17.4187 6.82532 11.0283 5.55646 9.68106C5.26269 9.36915 5.24584 9.0074 5.23507 8.77622L5.23475 8.76941L5.10066 5.89792Z" fill="#BFA687" stroke="#303030" stroke-width="0.360206"/>
</svg>
