<svg width="44" height="40" viewBox="0 0 44 40" fill="none" xmlns="http://www.w3.org/2000/svg">
<path d="M38.8674 23.9967C38.8674 23.9967 38.5101 26.0195 38.5101 26.9984C38.5101 27.9772 38.7178 29.8328 38.7178 29.8328" stroke="#303030" stroke-width="0.4"/>
<path d="M6.1837 15.6369L5.27046 15.8081L15.7068 25.3132L40.2029 23.8634L36.3746 21.3245" stroke="#303030" stroke-width="0.4"/>
<path d="M32.9435 27.8593L32.9435 25.6408L35.3811 25.424L35.4453 27.715L34.1433 26.7729L32.9435 27.8593Z" stroke="#303030" stroke-width="0.2"/>
<path d="M17.7127 26.6788L37.5505 25.2665" stroke="#303030" stroke-width="0.2"/>
<path d="M21.114 28.4073L29.2264 27.8196" stroke="#303030" stroke-width="0.2"/>
<path d="M4.55289 16.707C4.55286 16.1499 4.55449 15.8259 5.28846 15.8259L15.6866 25.3117C15.0571 25.5017 15.0648 25.8807 15.0571 26.2627L15.0571 30.4894C15.0571 30.9081 15.3978 31.3373 15.9882 31.3078C16.5787 31.2783 38.7503 29.8367 38.7503 29.8367L38.6219 28.6815L40.2795 30.1601C40.2795 30.1601 15.6925 31.7921 15.2939 31.7921C14.8952 31.7921 6.20085 22.5288 4.86264 20.945C4.55281 20.5783 4.55285 20.1749 4.55289 19.9171L4.55289 19.9095L4.55289 16.707Z" stroke="#303030" stroke-width="0.4"/>
<path d="M36.3358 16.557C36.3358 16.557 36.1241 18.7188 36.1742 19.7179C36.2243 20.7171 36.7149 22.6998 36.7149 22.6998" stroke="#303030" stroke-width="0.360206"/>
<path d="M36.5422 15.9761L37.1853 16.4399L15.738 17.8068" stroke="#303030" stroke-width="0.360206"/>
<path d="M17.7087 19.6868L32.3256 18.7027" stroke="#303030" stroke-width="0.180103"/>
<path d="M21.4996 20.9992L30.5031 20.416" stroke="#303030" stroke-width="0.180103"/>
<path d="M5.93436 11.1604C5.89744 10.4245 6.05047 10.3592 6.32572 10.3594L10.3469 13.9198L14.7315 17.4437L15.193 17.4437L15.7787 17.8171C15.2223 18.0408 15.1804 18.3754 15.193 18.7656L15.4092 23.0798C15.4307 23.5072 15.759 23.9291 16.2885 23.8711C16.8179 23.813 36.715 22.6439 36.715 22.6439L36.5289 21.8065L37.9421 23.0803C37.9421 23.0803 16.0473 24.3794 15.6888 24.3982C15.3303 24.4171 7.61016 17.3376 6.32571 15.7844C6.02539 15.4213 5.94753 14.8107 5.93436 14.548C5.89724 13.8072 5.97129 11.8963 5.93436 11.1604Z" stroke="#303030" stroke-width="0.360206"/>
<path d="M35.4644 9.85136C35.4644 9.85136 35.1938 12.1127 35.2348 12.9905C35.2758 13.8683 35.5833 15.7044 35.5833 15.7044" stroke="#303030" stroke-width="0.360206"/>
<path d="M23.3172 4.22566L35.9689 10.0545L14.8257 11.5435L5.97292 5.1083L23.3172 4.22566Z" stroke="#303030" stroke-width="0.360206"/>
<path d="M16.2106 14.3966L30.8207 13.3221" stroke="#303030" stroke-width="0.180103"/>
<path d="M24.0482 14.88L33.0473 14.2384" stroke="#303030" stroke-width="0.180103"/>
<path d="M18.1858 12.8947L33.22 11.7854" stroke="#303030" stroke-width="0.180103"/>
<path d="M5.10369 5.89802C5.07346 5.25146 5.15513 5.07527 5.81479 5.0353L14.8097 11.5659C14.2519 11.7706 14.2747 12.11 14.2837 12.453L14.4607 16.2434C14.4783 16.6189 14.8024 16.9853 15.3319 16.9266C15.8613 16.868 35.5646 15.5902 35.5646 15.5902L35.4381 14.5857L36.9695 15.9214C36.9695 15.9214 15.0863 17.3771 14.7281 17.3988C14.3698 17.4205 6.8286 11.0291 5.55956 9.6817C5.26574 9.36975 5.24889 9.00795 5.23812 8.77674L5.2378 8.76992L5.10369 5.89802Z" stroke="#303030" stroke-width="0.360206"/>
</svg>
