<svg width="42" height="42" viewBox="0 0 42 42" fill="none" xmlns="http://www.w3.org/2000/svg">
<line x1="9.59587" y1="1" x2="9.59587" y2="5.24463" stroke="#303030" stroke-width="0.4"/>
<line x1="9.59587" y1="36.7553" x2="9.59587" y2="40.9999" stroke="#303030" stroke-width="0.4"/>
<line x1="5.24463" y1="9.59597" x2="0.999998" y2="9.59597" stroke="#303030" stroke-width="0.4"/>
<line x1="41" y1="9.59597" x2="36.7554" y2="9.59597" stroke="#303030" stroke-width="0.4"/>
<line x1="32.8041" y1="1" x2="32.8041" y2="5.24463" stroke="#303030" stroke-width="0.4"/>
<line x1="32.8041" y1="36.7553" x2="32.8041" y2="40.9999" stroke="#303030" stroke-width="0.4"/>
<line x1="5.24463" y1="32.804" x2="0.999998" y2="32.804" stroke="#303030" stroke-width="0.4"/>
<line x1="41" y1="32.804" x2="36.7554" y2="32.804" stroke="#303030" stroke-width="0.4"/>
<line x1="21.2" y1="1" x2="21.2" y2="5.24463" stroke="#303030" stroke-width="0.4"/>
<line x1="21.2" y1="36.7553" x2="21.2" y2="40.9999" stroke="#303030" stroke-width="0.4"/>
<line x1="5.24463" y1="21.2" x2="0.999998" y2="21.2" stroke="#303030" stroke-width="0.4"/>
<line x1="41" y1="21.2" x2="36.7554" y2="21.2" stroke="#303030" stroke-width="0.4"/>
<line x1="17.332" y1="1" x2="17.332" y2="5.24463" stroke="#303030" stroke-width="0.4"/>
<line x1="17.332" y1="36.7553" x2="17.332" y2="40.9999" stroke="#303030" stroke-width="0.4"/>
<line x1="5.24463" y1="17.332" x2="0.999998" y2="17.332" stroke="#303030" stroke-width="0.4"/>
<line x1="41" y1="17.332" x2="36.7554" y2="17.332" stroke="#303030" stroke-width="0.4"/>
<line x1="28.9361" y1="1" x2="28.9361" y2="5.24463" stroke="#303030" stroke-width="0.4"/>
<line x1="28.9361" y1="36.7553" x2="28.9361" y2="40.9999" stroke="#303030" stroke-width="0.4"/>
<line x1="5.24463" y1="28.9361" x2="0.999998" y2="28.9361" stroke="#303030" stroke-width="0.4"/>
<line x1="41" y1="28.9361" x2="36.7554" y2="28.9361" stroke="#303030" stroke-width="0.4"/>
<line x1="25.068" y1="1" x2="25.068" y2="5.24463" stroke="#303030" stroke-width="0.4"/>
<line x1="25.068" y1="36.7553" x2="25.068" y2="40.9999" stroke="#303030" stroke-width="0.4"/>
<line x1="5.24463" y1="25.068" x2="0.999998" y2="25.0679" stroke="#303030" stroke-width="0.4"/>
<line x1="41" y1="25.068" x2="36.7554" y2="25.0679" stroke="#303030" stroke-width="0.4"/>
<line x1="13.4639" y1="1" x2="13.4639" y2="5.24463" stroke="#303030" stroke-width="0.4"/>
<line x1="13.4639" y1="36.7553" x2="13.4639" y2="40.9999" stroke="#303030" stroke-width="0.4"/>
<line x1="5.24463" y1="13.464" x2="0.999998" y2="13.464" stroke="#303030" stroke-width="0.4"/>
<line x1="41" y1="13.464" x2="36.7554" y2="13.464" stroke="#303030" stroke-width="0.4"/>
<mask id="path-29-inside-1_1331_431" fill="white">
<path fill-rule="evenodd" clip-rule="evenodd" d="M7.58929 5.24463C6.29437 5.24463 5.24463 6.29437 5.24463 7.58929V34.4107C5.24463 35.7056 6.29437 36.7553 7.58929 36.7553H34.4107C35.7056 36.7553 36.7553 35.7056 36.7553 34.4107V7.58929C36.7553 6.29437 35.7056 5.24463 34.4107 5.24463H7.58929ZM11.4323 13.7003C12.7439 13.7003 13.8071 12.637 13.8071 11.3254C13.8071 10.0138 12.7439 8.95056 11.4323 8.95056C10.1206 8.95056 9.05737 10.0138 9.05737 11.3254C9.05737 12.637 10.1206 13.7003 11.4323 13.7003Z"/>
</mask>
<path fill-rule="evenodd" clip-rule="evenodd" d="M7.58929 5.24463C6.29437 5.24463 5.24463 6.29437 5.24463 7.58929V34.4107C5.24463 35.7056 6.29437 36.7553 7.58929 36.7553H34.4107C35.7056 36.7553 36.7553 35.7056 36.7553 34.4107V7.58929C36.7553 6.29437 35.7056 5.24463 34.4107 5.24463H7.58929ZM11.4323 13.7003C12.7439 13.7003 13.8071 12.637 13.8071 11.3254C13.8071 10.0138 12.7439 8.95056 11.4323 8.95056C10.1206 8.95056 9.05737 10.0138 9.05737 11.3254C9.05737 12.637 10.1206 13.7003 11.4323 13.7003Z" fill="#A0A0A0"/>
<path d="M5.64463 7.58929C5.64463 6.51528 6.51528 5.64463 7.58929 5.64463V4.84463C6.07345 4.84463 4.84463 6.07346 4.84463 7.58929H5.64463ZM5.64463 34.4107V7.58929H4.84463V34.4107H5.64463ZM7.58929 36.3553C6.51528 36.3553 5.64463 35.4847 5.64463 34.4107H4.84463C4.84463 35.9265 6.07346 37.1553 7.58929 37.1553V36.3553ZM34.4107 36.3553H7.58929V37.1553H34.4107V36.3553ZM36.3553 34.4107C36.3553 35.4847 35.4847 36.3553 34.4107 36.3553V37.1553C35.9265 37.1553 37.1553 35.9265 37.1553 34.4107H36.3553ZM36.3553 7.58929V34.4107H37.1553V7.58929H36.3553ZM34.4107 5.64463C35.4847 5.64463 36.3553 6.51528 36.3553 7.58929H37.1553C37.1553 6.07345 35.9265 4.84463 34.4107 4.84463V5.64463ZM7.58929 5.64463H34.4107V4.84463H7.58929V5.64463ZM13.4071 11.3254C13.4071 12.4161 12.5229 13.3003 11.4323 13.3003V14.1003C12.9648 14.1003 14.2071 12.858 14.2071 11.3254H13.4071ZM11.4323 9.35056C12.5229 9.35056 13.4071 10.2347 13.4071 11.3254H14.2071C14.2071 9.79292 12.9648 8.55056 11.4323 8.55056V9.35056ZM9.45737 11.3254C9.45737 10.2347 10.3416 9.35056 11.4323 9.35056V8.55056C9.89973 8.55056 8.65737 9.79292 8.65737 11.3254H9.45737ZM11.4323 13.3003C10.3416 13.3003 9.45737 12.4161 9.45737 11.3254H8.65737C8.65737 12.858 9.89973 14.1003 11.4323 14.1003V13.3003Z" fill="#303030" mask="url(#path-29-inside-1_1331_431)"/>
</svg>
