<svg width="42" height="27" viewBox="0 0 42 27" fill="none" xmlns="http://www.w3.org/2000/svg">
<g clip-path="url(#clip0_394_744)">
<path d="M34.0064 1H7.93681C7.26413 1 6.71881 1.54532 6.71881 2.218V18.5551C6.71881 19.2278 7.26413 19.7731 7.93681 19.7731H34.0064C34.6791 19.7731 35.2244 19.2278 35.2244 18.5551V2.218C35.2244 1.54532 34.6791 1 34.0064 1Z" stroke="#303030" stroke-width="0.4" stroke-miterlimit="10"/>
<path d="M33.4061 1.60876H8.53666C7.86398 1.60876 7.31866 2.15408 7.31866 2.82676V17.0486C7.31866 17.7213 7.86398 18.2666 8.53666 18.2666H33.4061C34.0787 18.2666 34.6241 17.7213 34.6241 17.0486V2.82676C34.6241 2.15408 34.0787 1.60876 33.4061 1.60876Z" stroke="#303030" stroke-width="0.2" stroke-miterlimit="10"/>
<path d="M40.9995 24.8951L41 25.333C41.0005 25.4949 40.8697 25.6264 40.7078 25.6269L1.29442 25.7011C1.13254 25.7016 1.00097 25.5708 1.00048 25.4089L1 24.971C0.999661 24.879 1.04296 24.7928 1.11601 24.737L6.27843 20.8323C6.28785 20.8251 6.29714 20.8189 6.30643 20.8128C6.59472 20.6347 6.92686 20.5396 7.26544 20.5385L34.7209 20.4866C35.0562 20.4861 35.3854 20.5789 35.6718 20.7537C35.6816 20.7593 35.6903 20.7657 35.7 20.7723L40.8829 24.6605C40.9569 24.7159 41.0004 24.8021 40.9997 24.894L40.9995 24.8951Z" stroke="#303030" stroke-width="0.4" stroke-miterlimit="10"/>
<path d="M2.11981 24.8705L39.8775 24.8705" stroke="#303030" stroke-width="0.2"/>
</g>
<defs>
<clipPath id="clip0_394_744">
<rect width="42" height="26.7011" fill="white"/>
</clipPath>
</defs>
</svg>
