<svg width="15" height="42" viewBox="0 0 15 42" fill="none" xmlns="http://www.w3.org/2000/svg">
<path d="M11.8571 13.2454L12.5766 4.79469C12.7401 2.87102 11.3127 1.17819 9.38908 1.01276C7.46541 0.849245 5.77258 2.27661 5.60715 4.20027L4.8877 12.6509L11.8571 13.2434V13.2454Z" fill="#7F99AE" stroke="#303030" stroke-width="0.4" stroke-miterlimit="10"/>
<path d="M12.4288 13.2905L4.32097 12.6011C3.81073 12.5578 3.36192 12.9362 3.31854 13.4465C3.27516 13.9567 3.65362 14.4055 4.16386 14.4489L12.2717 15.1383C12.782 15.1817 13.2308 14.8032 13.2741 14.293C13.3175 13.7827 12.9391 13.3339 12.4288 13.2905Z" fill="#7F99AE" stroke="#303030" stroke-width="0.4" stroke-miterlimit="10"/>
<path d="M1 40.6789C1 40.6789 3.86627 31.7915 5.80725 14.5901" stroke="#303030" stroke-width="0.4" stroke-miterlimit="10"/>
<path d="M11.1608 41C11.1608 41 10.249 29.8177 10.5567 14.9958" stroke="#303030" stroke-width="0.4" stroke-miterlimit="10"/>
</svg>
