<svg width="41" height="42" viewBox="0 0 41 42" fill="none" xmlns="http://www.w3.org/2000/svg">
<path d="M39.9233 38.808V37.1229C39.9233 36.7452 39.6171 36.439 39.2394 36.439H19.9743C19.5965 36.439 19.2903 36.7452 19.2903 37.1229V38.808C19.2903 39.1857 19.5965 39.492 19.9743 39.492H39.2394C39.6171 39.492 39.9233 39.1857 39.9233 38.808Z" stroke="#303030" stroke-width="0.4" stroke-miterlimit="10"/>
<path d="M39.0736 35.7552V35.5956C39.0736 35.2178 38.7674 34.9116 38.3896 34.9116H20.8241C20.4463 34.9116 20.1401 35.2178 20.1401 35.5956V35.7552C20.1401 36.1329 20.4463 36.4391 20.8241 36.4391H38.3896C38.7674 36.4391 39.0736 36.1329 39.0736 35.7552Z" stroke="#303030" stroke-width="0.4" stroke-miterlimit="10"/>
<path d="M16.865 9.96094L19.4383 11.3373L4.02689 40.1519C3.77665 40.6197 3.19318 40.7966 2.7253 40.5463L1.84803 40.0771C1.38015 39.8269 1.20333 39.2434 1.45357 38.7755L16.865 9.96094Z" stroke="#303030" stroke-width="0.4" stroke-miterlimit="10"/>
<path d="M11.3179 7.01211C11.0438 6.86486 10.9394 6.52349 11.0866 6.24933L13.4259 1.87768C13.5732 1.60352 13.9145 1.49912 14.1887 1.64637" stroke="#303030" stroke-width="0.4" stroke-miterlimit="10"/>
<path d="M27.9013 8.96091C28.1754 9.10815 28.2798 9.44953 28.1326 9.72368L25.7933 14.0953C25.646 14.3695 25.3047 14.4739 25.0305 14.3266" stroke="#303030" stroke-width="0.4" stroke-miterlimit="10"/>
<path d="M18.1 10.6293L16.0407 9.52831L18.9115 4.16257L20.9296 5.24108L23.126 6.41569L20.2552 11.7814L18.1 10.6293Z" stroke="#303030" stroke-width="0.4" stroke-miterlimit="10"/>
<path d="M22.3152 12.884L21.4276 12.4087L24.2984 7.04294L25.1694 7.50892L26.1169 8.01544L23.2461 13.3812L22.3152 12.884Z" stroke="#303030" stroke-width="0.4" stroke-miterlimit="10"/>
<path d="M13.9752 8.42254L13.1015 7.95531L15.9723 2.58957L16.8293 3.04741L17.7635 3.54773L14.8928 8.91348L13.9752 8.42254Z" stroke="#303030" stroke-width="0.4" stroke-miterlimit="10"/>
<path d="M27.5746 7.92L27.0848 7.65803C26.7517 7.47987 26.3373 7.60548 26.1591 7.93857L23.2129 13.4471C23.0348 13.7802 23.1604 14.1946 23.4935 14.3728L23.9833 14.6348C24.3164 14.8129 24.7308 14.6873 24.909 14.3542L27.8552 8.8457C28.0333 8.51261 27.9077 8.09816 27.5746 7.92Z" stroke="#303030" stroke-width="0.4" stroke-miterlimit="10"/>
<path d="M24.2942 6.99513C24.4637 6.67818 24.3442 6.28383 24.0273 6.11431C23.7103 5.94479 23.316 6.06431 23.1464 6.38125L20.2452 11.8057C20.0757 12.1226 20.1952 12.517 20.5121 12.6865C20.8291 12.856 21.2234 12.7365 21.393 12.4196L24.2942 6.99513Z" stroke="#303030" stroke-width="0.4" stroke-miterlimit="10"/>
<path d="M18.9301 4.12599C19.0997 3.80904 18.9802 3.41469 18.6632 3.24517C18.3463 3.07565 17.9519 3.19517 17.7824 3.51211L14.8811 8.93655C14.7116 9.25349 14.8311 9.64785 15.1481 9.81737C15.465 9.98688 15.8594 9.86737 16.0289 9.55043L18.9301 4.12599Z" stroke="#303030" stroke-width="0.4" stroke-miterlimit="10"/>
<path d="M15.7311 1.58455L15.2413 1.32258C14.9082 1.14442 14.4938 1.27003 14.3156 1.60312L11.3694 7.11163C11.1913 7.44473 11.3169 7.85917 11.65 8.03733L12.1398 8.2993C12.4729 8.47746 12.8873 8.35185 13.0655 8.01876L16.0117 2.51025C16.1898 2.17716 16.0642 1.76271 15.7311 1.58455Z" stroke="#303030" stroke-width="0.4" stroke-miterlimit="10"/>
</svg>
