<svg width="41" height="42" viewBox="0 0 41 42" fill="none" xmlns="http://www.w3.org/2000/svg">
<path d="M39.915 38.8052V37.1202C39.915 36.7425 39.6087 36.4363 39.231 36.4363H19.9665C19.5888 36.4363 19.2826 36.7425 19.2826 37.1202V38.8052C19.2826 39.183 19.5888 39.4892 19.9665 39.4892H39.231C39.6087 39.4892 39.915 39.183 39.915 38.8052Z" fill="#937A57" stroke="#303030" stroke-width="0.4" stroke-miterlimit="10"/>
<path d="M39.0652 35.7522V35.5926C39.0652 35.2149 38.759 34.9087 38.3813 34.9087H20.8163C20.4385 34.9087 20.1323 35.2149 20.1323 35.5926V35.7522C20.1323 36.13 20.4385 36.4362 20.8163 36.4362H38.3813C38.759 36.4362 39.0652 36.13 39.0652 35.7522Z" fill="#BFA687" stroke="#303030" stroke-width="0.4" stroke-miterlimit="10"/>
<path d="M16.8645 9.96216L19.4377 11.3384L4.02681 40.1521C3.77657 40.62 3.19312 40.7968 2.72526 40.5466L1.84802 40.0774C1.38016 39.8271 1.20334 39.2437 1.45357 38.7758L16.8645 9.96216Z" fill="#76C69D" stroke="#303030" stroke-width="0.4" stroke-miterlimit="10"/>
<path d="M27.5963 8.79877L14.4432 1.76385C13.9748 1.51336 13.3921 1.68996 13.1416 2.1583L11.1789 5.82809C10.9284 6.29642 11.105 6.87915 11.5733 7.12964L24.7264 14.1646C25.1948 14.415 25.7775 14.2384 26.028 13.7701L27.9907 10.1003C28.2412 9.63198 28.0646 9.04926 27.5963 8.79877Z" fill="#76C69D" stroke="#303030" stroke-width="0.4" stroke-miterlimit="10"/>
<path d="M27.5738 7.92096L27.084 7.65899C26.7509 7.48084 26.3365 7.60644 26.1583 7.93953L23.2122 13.4479C23.0341 13.7809 23.1597 14.1954 23.4927 14.3735L23.9825 14.6355C24.3156 14.8136 24.7301 14.688 24.9082 14.355L27.8543 8.84663C28.0325 8.51354 27.9069 8.09911 27.5738 7.92096Z" fill="#5BA27E" stroke="#303030" stroke-width="0.4" stroke-miterlimit="10"/>
<path d="M24.2925 6.99534C24.462 6.6784 24.3425 6.28406 24.0256 6.11455C23.7087 5.94503 23.3143 6.06454 23.1448 6.38148L20.2437 11.8057C20.0741 12.1227 20.1936 12.517 20.5106 12.6865C20.8275 12.856 21.2219 12.7365 21.3914 12.4196L24.2925 6.99534Z" fill="#5BA27E" stroke="#303030" stroke-width="0.4" stroke-miterlimit="10"/>
<path d="M18.9305 4.12546C19.1 3.80853 18.9805 3.41418 18.6636 3.24467C18.3466 3.07516 17.9523 3.19467 17.7828 3.51161L14.8816 8.93587C14.7121 9.25281 14.8316 9.64715 15.1485 9.81666C15.4655 9.98617 15.8598 9.86666 16.0293 9.54973L18.9305 4.12546Z" fill="#5BA27E" stroke="#303030" stroke-width="0.4" stroke-miterlimit="10"/>
<path d="M15.7296 1.58453L15.2399 1.32257C14.9068 1.14442 14.4923 1.27002 14.3142 1.6031L11.3681 7.11144C11.1899 7.44452 11.3155 7.85896 11.6486 8.03711L12.1384 8.29907C12.4715 8.47722 12.8859 8.35162 13.0641 8.01854L16.0102 2.5102C16.1883 2.17712 16.0627 1.76268 15.7296 1.58453Z" fill="#5BA27E" stroke="#303030" stroke-width="0.4" stroke-miterlimit="10"/>
</svg>
