<svg width="24" height="42" viewBox="0 0 24 42" fill="none" xmlns="http://www.w3.org/2000/svg">
<g clip-path="url(#clip0_584_44)">
<path d="M9.71563 15.0897C10.0065 15.0897 10.1255 15.1625 10.2592 14.9085C10.4723 14.5035 10.2664 13.802 10.4723 13.8408C10.8781 13.9173 12.7427 13.8408 12.849 13.8408C12.9565 13.8408 12.9875 14.674 13.222 14.9938C13.3234 15.132 13.6472 15.0897 13.7975 15.0897C13.9478 15.0897 13.4671 15.7398 13.2966 16.3686C13.1496 16.9106 12.7744 17.1159 11.7833 17.1253C10.6737 17.1359 9.2025 15.0897 9.71563 15.0897Z" fill="#ECDBC2" stroke="#303030" stroke-width="0.4"/>
<path d="M8.95205 12.6772C7.95759 10.7202 6.82725 4.8378 6.82725 3.82903C6.7733 2.56137 9.54546 1.84632 11.9332 1.84632C14.1144 1.84632 16.6425 2.36983 16.6425 3.82903C16.6425 4.83181 15.6179 10.819 14.5987 12.6772C13.4932 14.6926 10.0823 14.9014 8.95205 12.6772Z" fill="#ECDBC2" stroke="#303030" stroke-width="0.4"/>
<path d="M8.45467 5.12816C10.429 4.68683 11.9679 3.29896 11.7065 1.12134C9.09337 0.598709 7.061 1.90528 6.42223 2.36984C5.91122 2.74149 6.34481 4.47971 6.62548 5.30237C6.87711 5.31204 7.59524 5.29075 8.45467 5.12816Z" fill="#937A57" stroke="#303030" stroke-width="0.4"/>
<path d="M15.0165 5.12816C13.0421 4.68683 11.5032 3.29896 11.7646 1.12134C14.3778 0.598709 16.4101 1.90528 17.0489 2.36984C17.5599 2.74149 17.1263 4.47971 16.8457 5.30237C16.594 5.31204 15.8759 5.29075 15.0165 5.12816Z" fill="#937A57" stroke="#303030" stroke-width="0.4"/>
<path d="M6.17173 3.08266C6.17176 3.3274 6.23566 3.7708 6.28304 3.99979C6.36317 4.38711 6.48316 4.78454 6.5279 4.99703C6.57263 5.20953 5.94926 5.29968 5.91364 5.17503C5.86448 5.00297 5.64202 3.47888 5.52181 3.18949C5.47541 3.07778 6.17172 2.92568 6.17173 3.08266Z" fill="#9BD8B9" stroke="#303030" stroke-width="0.4"/>
<path d="M16.905 5.1344C16.9992 4.90852 17.111 4.47471 17.1554 4.24514C17.2306 3.85683 17.273 3.44385 17.3135 3.23051C17.354 3.01718 17.9641 3.17404 17.9489 3.3028C17.928 3.48051 17.5464 4.97274 17.5459 5.28609C17.5457 5.40706 16.8445 5.27928 16.905 5.1344Z" fill="#9BD8B9" stroke="#303030" stroke-width="0.4"/>
<path d="M5.45865 5.6648C5.39437 5.2844 5.71026 5.05674 5.88586 5.03666C5.88586 5.03666 5.82821 4.70263 5.72702 4.13084C5.62583 3.55906 5.55101 3.28942 5.55101 3.28942C4.68446 3.38544 3.87436 3.397 3.27048 4.16797C1.85308 5.97754 2.4124 7.67937 2.59639 9.04896C2.90306 11.3318 2.71612 12.085 1.08786 12.849C2.59639 13.5701 3.10844 12.5128 4.33831 13.117C4.87503 13.3806 4.87648 14.318 4.85382 14.7598C6.01414 14.1067 6.72786 12.8266 6.88181 10.9985C7.07425 8.71348 5.53901 6.14029 5.45865 5.6648Z" fill="#937A57" stroke="#303030" stroke-width="0.4"/>
<path d="M17.9825 5.77626C18.0545 5.39725 17.7433 5.16321 17.5682 5.13955C17.5682 5.13955 17.6326 4.80677 17.7454 4.23716C17.8582 3.66755 17.9385 3.3995 17.9385 3.3995C18.8029 3.51314 19.6126 3.54118 20.2007 4.32429C21.581 6.16233 20.9871 7.85243 20.7753 9.21799C20.4222 11.4941 20.5938 12.2509 22.2062 13.0479C20.6833 13.7382 20.1928 12.6707 18.9509 13.2497C18.409 13.5024 18.3884 14.4395 18.4021 14.8817C17.2553 14.2051 16.5678 12.9107 16.4511 11.0799C16.3052 8.79142 17.8925 6.25002 17.9825 5.77626Z" fill="#937A57" stroke="#303030" stroke-width="0.4"/>
<path d="M9.77308 14.9384C10.2135 14.9384 10.2277 15.8224 10.6267 16.3212C11.1971 17.0342 12.2545 17.0927 12.8132 16.4955C13.2727 16.0043 13.2666 14.9384 13.5912 14.9384C15.709 14.9384 15.6935 15.6186 16.5437 17.4117C17.3246 19.0587 17.6014 19.4611 18.3013 20.478L15.9218 21.998L14.6971 20.3709C14.7474 23.8908 17.2863 29.7955 17.9149 31.8279C13.3206 32.46 9.44387 32.4179 5.10301 31.8279C5.95785 30.5205 8.3183 23.3251 8.38116 20.3709L6.929 21.998L4.42719 20.478C4.6367 20.1218 5.7147 19.1214 6.41869 17.4117C7.29866 15.2746 7.68624 14.9384 9.77308 14.9384Z" fill="#9BD8B9" stroke="#303030" stroke-width="0.4"/>
<path d="M8.7603 38.2377C9.05653 37.2967 8.6531 33.7496 8.62483 32.1962L9.68834 32.2501L10.7608 32.277C10.4625 34.4763 9.8098 38.6148 9.84742 39.6288C9.8914 40.8146 8.77236 41.001 8.42154 40.9271C7.90741 40.8187 8.39002 39.414 8.7603 38.2377Z" fill="#ECDBC2" stroke="#303030" stroke-width="0.4"/>
<path d="M13.8868 38.2308C13.6041 37.2857 14.0399 33.7635 14.0905 32.2107L13.0404 32.268L11.974 32.3141C12.2407 34.5174 12.832 38.5928 12.7798 39.6062C12.7189 40.7912 13.8351 40.9937 14.187 40.9248C14.7026 40.8238 14.2402 39.4123 13.8868 38.2308Z" fill="#ECDBC2" stroke="#303030" stroke-width="0.4"/>
<path d="M19.7293 23.9357C19.0161 23.2541 18.7386 22.0451 18.0145 20.6706L17.1302 21.2397L16.2261 21.8073C17.5478 23.5902 18.0946 23.9079 18.5505 24.8145C19.0837 25.8745 19.822 25.6271 20.0937 25.3932C20.4919 25.0504 20.6208 24.7877 19.7293 23.9357Z" fill="#ECDBC2" stroke="#303030" stroke-width="0.4"/>
<path d="M3.15518 24.0106C3.85735 23.3176 4.11534 22.1042 4.81729 20.7183L5.71058 21.2731L6.62367 21.8261C5.33082 23.63 4.78926 23.9565 4.34796 24.8702C3.83191 25.9387 3.0897 25.7032 2.81426 25.4737C2.41062 25.1373 2.27747 24.8768 3.15518 24.0106Z" fill="#ECDBC2" stroke="#303030" stroke-width="0.4"/>
<circle cx="10.3088" cy="7.55006" r="0.507127" fill="#303030"/>
<circle cx="13.1793" cy="7.55006" r="0.507127" fill="#303030"/>
<path d="M10.4413 10.4892C10.4413 10.4892 11.1396 10.7907 11.7423 10.7882C12.345 10.7857 13.0468 10.4636 13.0468 10.4636" stroke="#303030" stroke-width="0.4"/>
<path d="M13.1216 24.967C11.6875 25.2089 10.2634 25.0678 9.73066 24.967C9.1979 26.1477 8.45638 28.3795 9.19072 29.3299C10.0791 30.4795 12.5601 30.5826 13.5104 29.3299C14.2027 28.4172 13.6975 26.2845 13.1216 24.967Z" fill="#7F99AE" stroke="#303030" stroke-width="0.4"/>
</g>
<defs>
<clipPath id="clip0_584_44">
<rect width="23.2592" height="42" fill="white"/>
</clipPath>
</defs>
</svg>
