<svg width="45" height="54" viewBox="0 0 45 54" fill="none" xmlns="http://www.w3.org/2000/svg">
<rect x="19.5889" y="7.66183" width="10.5815" height="37.8659" transform="rotate(12.2484 19.5889 7.66183)" fill="#EAEAEA" stroke="#303030" stroke-width="0.4"/>
<rect x="13.8249" y="39.0093" width="8.54646" height="4.8843" transform="rotate(12.2484 13.8249 39.0093)" fill="#2F4960" stroke="#303030" stroke-width="0.3"/>
<rect x="16.464" y="26.8524" width="8.54646" height="4.8843" transform="rotate(12.2484 16.464 26.8524)" fill="#6D889D" stroke="#303030" stroke-width="0.3"/>
<rect x="15.1445" y="32.9307" width="8.54646" height="4.8843" transform="rotate(12.2484 15.1445 32.9307)" fill="#536D81" stroke="#303030" stroke-width="0.3"/>
<rect x="17.7836" y="20.7739" width="8.54646" height="4.8843" transform="rotate(12.2484 17.7836 20.7739)" fill="#7F99AE" stroke="#303030" stroke-width="0.3"/>
<rect x="19.1031" y="14.6956" width="8.54646" height="4.8843" transform="rotate(12.2484 19.1031 14.6956)" fill="#BED5E8" stroke="#303030" stroke-width="0.3"/>
<rect x="18.8359" y="8.27751" width="10.5815" height="37.8659" transform="rotate(-8.89436 18.8359 8.27751)" fill="#EAEAEA" stroke="#303030" stroke-width="0.4"/>
<rect x="24.7666" y="39.5938" width="8.54646" height="4.8843" transform="rotate(-8.89436 24.7666 39.5938)" fill="#112E1F" stroke="#303030" stroke-width="0.3"/>
<rect x="22.8432" y="27.3035" width="8.54646" height="4.8843" transform="rotate(-8.89436 22.8432 27.3035)" fill="#5BA27E" stroke="#303030" stroke-width="0.3"/>
<rect x="23.8049" y="33.4485" width="8.54646" height="4.8843" transform="rotate(-8.89436 23.8049 33.4485)" fill="#254B38" stroke="#303030" stroke-width="0.3"/>
<rect x="21.8815" y="21.1581" width="8.54646" height="4.8843" transform="rotate(-8.89436 21.8815 21.1581)" fill="#76C69D" stroke="#303030" stroke-width="0.3"/>
<rect x="20.9198" y="15.0131" width="8.54646" height="4.8843" transform="rotate(-8.89436 20.9198 15.0131)" fill="#9BD8B9" stroke="#303030" stroke-width="0.3"/>
<circle cx="20.4876" cy="9.42488" r="0.691609" transform="rotate(0.38079 20.4876 9.42488)" fill="#303030"/>
</svg>
