<svg width="45" height="53" viewBox="0 0 45 53" fill="none" xmlns="http://www.w3.org/2000/svg">
<path d="M21.1649 7.80333L19.2589 7.33991L11.1358 44.0689L21.6763 46.4L22.6916 41.8089L23.1993 39.5133L23.3474 38.8621" stroke="#303030" stroke-width="0.4"/>
<rect x="13.6243" y="38.3709" width="8.39632" height="4.79632" transform="rotate(12.4709 13.6243 38.3709)" stroke="#303030" stroke-width="0.3"/>
<path d="M21.7233 27.484L21.458 27.4253L20.3966 27.1906L16.151 26.2516L15.0505 31.2277L19.2961 32.1666L21.4189 32.6361L22.4803 32.8708" stroke="#303030" stroke-width="0.3"/>
<path d="M22.6587 33.9465L22.2605 33.8649L21.1991 33.6302L19.0763 33.1607L14.8307 32.2217L13.7302 37.1978L22.2213 39.0757L22.7716 36.5877L22.9092 35.9657" stroke="#303030" stroke-width="0.3"/>
<path d="M20.6557 20.9855L19.5943 20.7507L17.4716 20.2812L16.371 25.2573L20.6166 26.1963L21.5384 26.4022" stroke="#303030" stroke-width="0.3"/>
<path d="M19.73 14.5298L18.7919 14.3111L17.6914 19.2872L19.8142 19.7567L20.3449 19.8741" stroke="#303030" stroke-width="0.3"/>
<rect x="18.6709" y="8.17725" width="10.3951" height="37.2165" transform="rotate(-8.67183 18.6709 8.17725)" stroke="#303030" stroke-width="0.4"/>
<rect x="24.3804" y="38.9837" width="8.39632" height="4.79632" transform="rotate(-8.67183 24.3804 38.9837)" stroke="#303030" stroke-width="0.3"/>
<rect x="22.5366" y="26.8948" width="8.39632" height="4.79632" transform="rotate(-8.67183 22.5366 26.8948)" stroke="#303030" stroke-width="0.3"/>
<rect x="23.4585" y="32.9391" width="8.39632" height="4.79632" transform="rotate(-8.67183 23.4585 32.9391)" stroke="#303030" stroke-width="0.3"/>
<rect x="21.6147" y="20.8499" width="8.39632" height="4.79632" transform="rotate(-8.67183 21.6147 20.8499)" stroke="#303030" stroke-width="0.3"/>
<rect x="20.6928" y="14.8056" width="8.39632" height="4.79632" transform="rotate(-8.67183 20.6928 14.8056)" stroke="#303030" stroke-width="0.3"/>
<circle cx="20.4712" cy="9.47201" r="0.685656" transform="rotate(0.38079 20.4712 9.47201)" fill="#303030"/>
</svg>
