<svg width="42" height="22" viewBox="0 0 42 22" fill="none" xmlns="http://www.w3.org/2000/svg">
<path d="M40.9989 6.5979L37.5127 7.69099C37.1393 7.80794 36.7424 7.5999 36.6254 7.22654L35.7494 4.43197C35.6324 4.05861 35.8405 3.66164 36.2138 3.54468L39.6989 2.45159C38.4742 1.19769 36.6063 0.661271 34.8205 1.22131C33.0346 1.78135 31.8077 3.28828 31.5187 5.01562L9.18016 12.0184C7.95549 10.7656 6.0887 10.228 4.30288 10.7881C2.51705 11.3481 1.28902 12.855 1 14.5824H1.00112L4.50305 13.4848C4.87641 13.3678 5.27338 13.5759 5.39034 13.9492L6.26638 16.7438C6.38334 17.1172 6.17529 17.5141 5.80193 17.6311L2.30001 18.7287C3.52467 19.9826 5.39259 20.519 7.17841 19.959C8.96424 19.3989 10.1911 17.892 10.4802 16.1647L32.8187 9.16193C34.0434 10.4147 35.9102 10.9523 37.696 10.3922C39.4818 9.83218 40.7099 8.32525 41 6.5979H40.9989Z" fill="#7F99AE" stroke="#303030" stroke-width="0.4" stroke-miterlimit="10"/>
</svg>
