<svg width="42" height="31" viewBox="0 0 42 31" fill="none" xmlns="http://www.w3.org/2000/svg">
<g clip-path="url(#clip0_348_302)">
<path d="M32.6766 5.43319L29.9158 6.29885C29.6201 6.39147 29.3057 6.22671 29.2131 5.93103L28.5193 3.71791C28.4267 3.42223 28.5915 3.10785 28.8872 3.01523L31.6471 2.14957C30.6773 1.15656 29.198 0.731747 27.7837 1.17526C26.3695 1.61878 25.3978 2.81217 25.1689 4.18013L7.47818 9.72585C6.50832 8.73373 5.02994 8.30803 3.61567 8.75154C2.20141 9.19506 1.22888 10.3885 1 11.7564H1.00089L3.7742 10.8872C4.06988 10.7946 4.38426 10.9593 4.47688 11.255L5.17065 13.4681C5.26327 13.7638 5.09851 14.0782 4.80283 14.1708L2.02953 15.04C2.99938 16.033 4.47866 16.4579 5.89292 16.0143C7.30718 15.5708 8.27882 14.3774 8.5077 13.0095L26.1985 7.46374C27.1683 8.45587 28.6467 8.88157 30.061 8.43805C31.4752 7.99454 32.4478 6.80114 32.6775 5.43319H32.6766Z" stroke="#303030" stroke-width="0.4" stroke-miterlimit="10"/>
<path d="M40.6056 17.5775C40.5264 16.9131 39.9225 16.4393 39.2582 16.5185L11.5767 19.8378C10.9123 19.917 10.4385 20.5209 10.5178 21.1853C10.5178 21.1853 11.2828 25.7478 11.3567 26.2314C11.6702 28.5896 14.9084 30.1384 18.6169 29.694C21.7624 29.3164 24.2392 27.626 24.7646 25.6783C24.8555 25.3408 24.8893 23.0466 25.2375 23.0047L26.7382 22.8248C27.0829 22.7839 27.6564 25.0032 27.8238 25.3078C28.7928 27.0792 31.6008 28.1372 34.7482 27.7605C38.4566 27.3161 41.2362 25.046 40.9841 22.6797C40.9423 22.0901 40.6065 17.5783 40.6065 17.5783L40.6056 17.5775Z" stroke="#303030" stroke-width="0.4" stroke-miterlimit="10"/>
<path d="M12.1912 19.7638C12.1912 19.7638 16.1989 14.7978 17.875 13.453C19.1851 12.4021 20.9556 12.2552 21.0001 14.0052C21.0544 16.1453 19.7506 16.1061 19.9055 15.1523C20.0712 14.1334 19.6722 13.5207 18.1698 14.9777C16.6673 16.4347 15.3733 19.3826 15.3733 19.3826L12.193 19.7638H12.1912Z" stroke="#303030" stroke-width="0.4" stroke-miterlimit="10"/>
<path d="M38.7523 16.579C38.7523 16.579 33.6839 12.7014 31.738 11.7912C30.2159 11.0796 28.4615 11.3548 28.832 13.0665C29.2853 15.1585 30.5428 14.8121 30.167 13.9224C29.7653 12.9712 30.0084 12.2819 31.8128 13.3417C33.6171 14.4024 35.5711 16.9602 35.5711 16.9602L38.7514 16.579H38.7523Z" stroke="#303030" stroke-width="0.4" stroke-miterlimit="10"/>
<path d="M11.5232 19.8428L39.3144 16.5092L39.4167 17.3616C39.4248 17.4297 39.373 17.4924 39.3015 17.501L11.7703 20.8034C11.6979 20.8121 11.6336 20.7633 11.6254 20.6952L11.5233 19.8436L11.5232 19.8428Z" stroke="#303030" stroke-width="0.3" stroke-miterlimit="10"/>
</g>
<defs>
<clipPath id="clip0_348_302">
<rect width="42" height="30.77" fill="white"/>
</clipPath>
</defs>
</svg>
