<svg width="42" height="30" viewBox="0 0 42 30" fill="none" xmlns="http://www.w3.org/2000/svg">
<path d="M31.6622 2.54538L7.99303 5.76661C7.38228 5.84973 6.95456 6.41222 7.03768 7.02296L9.05634 21.8558C9.13946 22.4666 9.70194 22.8943 10.3127 22.8112L33.9819 19.5899C34.5926 19.5068 35.0203 18.9443 34.9372 18.3336L32.9186 3.50073C32.8354 2.88999 32.273 2.46226 31.6622 2.54538Z" fill="#BED5E8" stroke="#303030" stroke-width="0.4" stroke-miterlimit="10"/>
<path d="M31.1932 3.17219L8.61365 6.24513C8.0029 6.32825 7.57518 6.89074 7.6583 7.50148L9.41559 20.4139C9.49871 21.0246 10.0612 21.4523 10.6719 21.3692L33.2515 18.2963C33.8622 18.2131 34.2899 17.6507 34.2068 17.0399L32.4495 4.12754C32.3664 3.5168 31.8039 3.08907 31.1932 3.17219Z" fill="#7F99AE" stroke="#303030" stroke-width="0.2" stroke-miterlimit="10"/>
<path d="M40.9437 23.4141L40.9975 23.8117C41.0176 23.9587 40.9149 24.0941 40.7679 24.1143L4.98343 28.9837C4.83648 29.0039 4.70106 28.9011 4.68089 28.7542L4.6271 28.3566C4.61558 28.273 4.64439 28.1895 4.70394 28.1299L8.91648 23.9548C8.92416 23.9471 8.93185 23.9404 8.93953 23.9337C9.17964 23.7368 9.4697 23.61 9.77705 23.5678L24.3183 21.5892L31.6993 20.5846L34.7046 20.1754C35.0091 20.1341 35.3193 20.1783 35.6007 20.3022C35.6103 20.3061 35.6189 20.3109 35.6286 20.3157L40.8092 23.2153C40.8832 23.2566 40.9331 23.3296 40.9437 23.4131V23.4141Z" fill="#BED5E8" stroke="#303030" stroke-width="0.4" stroke-miterlimit="10"/>
<path d="M5.47711 28.1827L40.0764 23.4746" stroke="#303030" stroke-width="0.2" stroke-miterlimit="10"/>
<path d="M21.1315 7.10403L2.51991 4.72974L2.24754 6.8648L20.8591 9.2391L21.1315 7.10403Z" stroke="#303030" stroke-width="0.4" stroke-miterlimit="10"/>
<path d="M2.24834 6.86423L20.8599 9.23853L19.786 17.6569C19.6897 18.4114 18.999 18.9459 18.2444 18.8496L2.3643 16.8238C1.61165 16.7278 1.07802 16.0381 1.17404 15.2854L2.24846 6.86328L2.24834 6.86423Z" fill="#76C69D" stroke="#303030" stroke-width="0.4" stroke-miterlimit="10"/>
<path d="M4.06141 7.09228L2.41808 6.88195L4.35531 4.96008L5.99864 5.16946L4.06141 7.09228Z" fill="white" stroke="#303030" stroke-width="0.1" stroke-miterlimit="10"/>
<path d="M2.40653 6.88086L2.24902 6.86069L2.49201 4.95611L2.70043 4.74866L4.34377 4.95804L2.40653 6.88086Z" fill="#303030" stroke="#303030" stroke-width="0.4" stroke-miterlimit="10"/>
<path d="M5.71529 7.30249L4.07196 7.09311L6.00919 5.17029L7.65252 5.38063L5.71529 7.30249Z" fill="#303030" stroke="#303030" stroke-width="0.4" stroke-miterlimit="10"/>
<path d="M7.37015 7.51392L5.72586 7.30454L7.66406 5.38171L9.30739 5.59109L7.37015 7.51392Z" fill="white" stroke="#303030" stroke-width="0.1" stroke-miterlimit="10"/>
<path d="M9.02405 7.72426L7.38072 7.51488L9.31795 5.59302L10.9613 5.8024L9.02405 7.72426Z" fill="#303030" stroke="#303030" stroke-width="0.4" stroke-miterlimit="10"/>
<path d="M10.6789 7.93555L9.03462 7.72617L10.9719 5.80334L12.6161 6.01272L10.6789 7.93555Z" fill="white" stroke="#303030" stroke-width="0.1" stroke-miterlimit="10"/>
<path d="M12.3328 8.14673L10.6895 7.93735L12.6267 6.01453L14.27 6.2239L12.3328 8.14673Z" fill="#303030" stroke="#303030" stroke-width="0.4" stroke-miterlimit="10"/>
<path d="M13.9867 8.35718L12.3434 8.1478L14.2806 6.22498L15.9249 6.43531L13.9867 8.35718Z" fill="white" stroke="#303030" stroke-width="0.1" stroke-miterlimit="10"/>
<path d="M15.6416 8.56836L13.9982 8.35898L15.9355 6.43616L17.5788 6.64554L15.6416 8.56836Z" fill="#303030" stroke="#303030" stroke-width="0.4" stroke-miterlimit="10"/>
<path d="M17.2955 8.77966L15.6521 8.56932L17.5894 6.64746L19.2327 6.85684L17.2955 8.77966Z" fill="white" stroke="#303030" stroke-width="0.1" stroke-miterlimit="10"/>
<path d="M18.9503 8.99011L17.307 8.78073L19.2442 6.85791L20.8875 7.06825L18.9503 8.99011Z" fill="#303030" stroke="#303030" stroke-width="0.4" stroke-miterlimit="10"/>
<path d="M20.6042 9.20129L18.9609 8.99191L20.8981 7.06909L21.1325 7.09887L20.9019 8.90547L20.6042 9.20129Z" fill="white" stroke="#303030" stroke-width="0.1" stroke-miterlimit="10"/>
<path d="M21.078 0.999927L2.36719 2.39038L2.5267 4.53683L21.2375 3.14638L21.078 0.999927Z" stroke="#303030" stroke-width="0.4" stroke-miterlimit="10"/>
<path d="M4.34857 4.40198L2.69659 4.52491L4.21123 2.25441L5.8632 2.13147L4.34857 4.40198Z" fill="white" stroke="#303030" stroke-width="0.1" stroke-miterlimit="10"/>
<path d="M2.68604 4.526L2.52661 4.53753L2.38446 2.62239L2.54774 2.37747L4.19972 2.25549L2.68604 4.526Z" fill="#303030" stroke="#303030" stroke-width="0.4" stroke-miterlimit="10"/>
<path d="M6.01207 4.2782L4.35913 4.40114L5.87376 2.13063L7.5267 2.00769L6.01207 4.2782Z" fill="#303030" stroke="#303030" stroke-width="0.4" stroke-miterlimit="10"/>
<path d="M7.67462 4.15503L6.02264 4.27797L7.53728 2.0065L9.18925 1.88452L7.67462 4.15503Z" fill="white" stroke="#303030" stroke-width="0.1" stroke-miterlimit="10"/>
<path d="M9.33812 4.03137L7.68614 4.15431L9.20078 1.8838L10.8527 1.76086L9.33812 4.03137Z" fill="#303030" stroke="#303030" stroke-width="0.4" stroke-miterlimit="10"/>
<path d="M11.0016 3.90735L9.34869 4.03029L10.8633 1.75978L12.5163 1.63684L11.0016 3.90735Z" fill="white" stroke="#303030" stroke-width="0.1" stroke-miterlimit="10"/>
<path d="M12.6642 3.78442L11.0122 3.90736L12.5268 1.63685L14.1788 1.51392L12.6642 3.78442Z" fill="#303030" stroke="#303030" stroke-width="0.4" stroke-miterlimit="10"/>
<path d="M14.3277 3.6604L12.6757 3.78334L14.1894 1.51283L15.8423 1.38989L14.3277 3.6604Z" fill="white" stroke="#303030" stroke-width="0.1" stroke-miterlimit="10"/>
<path d="M15.9912 3.5377L14.3382 3.65968L15.8529 1.38917L17.5048 1.26624L15.9912 3.5377Z" fill="#303030" stroke="#303030" stroke-width="0.4" stroke-miterlimit="10"/>
<path d="M17.6537 3.41357L16.0017 3.53651L17.5164 1.266L19.1683 1.14307L17.6537 3.41357Z" fill="white" stroke="#303030" stroke-width="0.1" stroke-miterlimit="10"/>
<path d="M19.3172 3.28979L17.6643 3.41273L19.1789 1.14222L20.8318 1.01929L19.3172 3.28979Z" fill="#303030" stroke="#303030" stroke-width="0.4" stroke-miterlimit="10"/>
<path d="M20.9798 3.16679L19.3278 3.28877L20.8424 1.01826L21.0777 1.00098L21.2131 2.81719L20.9798 3.16679Z" fill="white" stroke="#303030" stroke-width="0.1" stroke-miterlimit="10"/>
<path d="M4.55026 9.68835L17.9226 11.3932" stroke="#303030" stroke-width="0.2" stroke-miterlimit="10"/>
<path d="M4.34474 12.4323L17.7171 14.1371" stroke="#303030" stroke-width="0.2" stroke-miterlimit="10"/>
<path d="M7.73225 12.8645L7.40186 15.4577" stroke="#303030" stroke-width="0.2" stroke-miterlimit="10"/>
<path d="M14.0453 13.6693L13.7149 16.2625" stroke="#303030" stroke-width="0.2" stroke-miterlimit="10"/>
</svg>
