<svg width="42" height="39" viewBox="0 0 42 39" fill="none" xmlns="http://www.w3.org/2000/svg">
<path d="M40.1142 14.7184L5.46033 8.16919L4.70902 12.1446L39.3629 18.6938L40.1142 14.7184Z" stroke="#303030" stroke-width="0.4" stroke-miterlimit="10"/>
<path d="M4.7106 12.1434L39.3645 18.6926L36.4022 34.3671C36.1366 35.7721 34.7804 36.6971 33.3755 36.4316L3.80748 30.8436C2.40606 30.5787 1.48243 29.2246 1.74728 27.8232L4.71094 12.1416L4.7106 12.1434Z" stroke="#303030" stroke-width="0.4" stroke-miterlimit="10"/>
<path d="M8.08676 12.7754L5.02702 12.1958L8.87813 8.80784L11.938 9.38561L8.08676 12.7754Z" stroke="#303030" stroke-width="0.188589" stroke-miterlimit="10"/>
<path d="M5.00556 12.1926L4.71229 12.137L5.38253 8.59079L5.79693 8.22499L8.85677 8.80277L5.00556 12.1926Z" stroke="#303030" stroke-width="0.4" stroke-miterlimit="10"/>
<path d="M11.1663 13.3561L8.10651 12.7783L11.9577 9.38852L15.0174 9.9681L11.1663 13.3561Z" stroke="#303030" stroke-width="0.4" stroke-miterlimit="10"/>
<path d="M14.2475 13.939L11.1859 13.3611L15.0389 9.9714L18.0987 10.5492L14.2475 13.939Z" stroke="#303030" stroke-width="0.188589" stroke-miterlimit="10"/>
<path d="M17.3271 14.5196L14.2673 13.9418L18.1184 10.5538L21.1782 11.1316L17.3271 14.5196Z" stroke="#303030" stroke-width="0.4" stroke-miterlimit="10"/>
<path d="M20.4084 15.1022L17.3467 14.5243L21.1979 11.1345L24.2596 11.7124L20.4084 15.1022Z" stroke="#303030" stroke-width="0.188589" stroke-miterlimit="10"/>
<path d="M23.4878 15.6847L20.4279 15.107L24.2791 11.7171L27.339 12.2949L23.4878 15.6847Z" stroke="#303030" stroke-width="0.4" stroke-miterlimit="10"/>
<path d="M26.5673 16.2657L23.5075 15.6879L27.3587 12.2981L30.4202 12.8778L26.5673 16.2657Z" stroke="#303030" stroke-width="0.188589" stroke-miterlimit="10"/>
<path d="M29.6486 16.8481L26.5888 16.2703L30.44 12.8805L33.4999 13.4582L29.6486 16.8481Z" stroke="#303030" stroke-width="0.4" stroke-miterlimit="10"/>
<path d="M32.728 17.4308L29.6683 16.8512L33.5194 13.4632L36.5792 14.041L32.728 17.4308Z" stroke="#303030" stroke-width="0.188589" stroke-miterlimit="10"/>
<path d="M35.8095 18.0116L32.7497 17.4339L36.6009 14.044L39.6606 14.6236L35.8095 18.0116Z" stroke="#303030" stroke-width="0.4" stroke-miterlimit="10"/>
<path d="M38.8889 18.5942L35.829 18.0164L39.6802 14.6266L40.1166 14.7088L39.4808 18.0726L38.8889 18.5942Z" stroke="#303030" stroke-width="0.188589" stroke-miterlimit="10"/>
<path d="M40.7007 3.25925L5.43701 3.7627L5.49477 7.80805L40.7585 7.3046L40.7007 3.25925Z" stroke="#303030" stroke-width="0.4" stroke-miterlimit="10"/>
<path d="M8.92835 7.76003L5.8149 7.8048L8.91231 3.71507L12.0258 3.67029L8.92835 7.76003Z" stroke="#303030" stroke-width="0.188589" stroke-miterlimit="10"/>
<path d="M5.79487 7.80558L5.49441 7.80926L5.44321 4.19988L5.77713 3.75871L8.89047 3.71574L5.79487 7.80558Z" stroke="#303030" stroke-width="0.4" stroke-miterlimit="10"/>
<path d="M12.0636 7.71485L8.94832 7.75951L12.0457 3.66978L15.161 3.62511L12.0636 7.71485Z" stroke="#303030" stroke-width="0.4" stroke-miterlimit="10"/>
<path d="M15.1968 7.67104L12.0833 7.71581L15.1809 3.62428L18.2942 3.5813L15.1968 7.67104Z" stroke="#303030" stroke-width="0.188589" stroke-miterlimit="10"/>
<path d="M18.332 7.62599L15.2186 7.67077L18.316 3.58104L21.4294 3.53626L18.332 7.62599Z" stroke="#303030" stroke-width="0.4" stroke-miterlimit="10"/>
<path d="M21.4671 7.58069L18.3519 7.62536L21.4493 3.53563L24.5645 3.49096L21.4671 7.58069Z" stroke="#303030" stroke-width="0.188589" stroke-miterlimit="10"/>
<path d="M24.6005 7.537L21.487 7.58178L24.5844 3.49205L27.6979 3.44727L24.6005 7.537Z" stroke="#303030" stroke-width="0.4" stroke-miterlimit="10"/>
<path d="M27.7357 7.49159L24.6223 7.53637L27.7179 3.44653L30.8331 3.40186L27.7357 7.49159Z" stroke="#303030" stroke-width="0.188589" stroke-miterlimit="10"/>
<path d="M30.8706 7.44846L27.7555 7.49133L30.8529 3.40159L33.9663 3.35682L30.8706 7.44846Z" stroke="#303030" stroke-width="0.4" stroke-miterlimit="10"/>
<path d="M34.0041 7.4026L30.8907 7.44738L33.9881 3.35765L37.1016 3.31287L34.0041 7.4026Z" stroke="#303030" stroke-width="0.188589" stroke-miterlimit="10"/>
<path d="M37.1393 7.35742L34.024 7.40209L37.1214 3.31236L40.2367 3.26769L37.1393 7.35742Z" stroke="#303030" stroke-width="0.4" stroke-miterlimit="10"/>
<path d="M40.2725 7.31384L37.1592 7.35682L40.2566 3.26708L40.7001 3.26113L40.7498 6.68414L40.2725 7.31384Z" stroke="#303030" stroke-width="0.188589" stroke-miterlimit="10"/>
<path d="M8.71179 17.7014L33.6106 22.4049" stroke="#303030" stroke-width="0.3" stroke-miterlimit="10"/>
<path d="M8.01758 22.8268L32.9164 27.5303" stroke="#303030" stroke-width="0.3" stroke-miterlimit="10"/>
<path d="M14.3249 24.0191L13.4131 28.8476" stroke="#303030" stroke-width="0.3" stroke-miterlimit="10"/>
<path d="M26.0795 26.2396L25.1678 31.0681" stroke="#303030" stroke-width="0.3" stroke-miterlimit="10"/>
</svg>
