<svg width="42" height="30" viewBox="0 0 42 30" fill="none" xmlns="http://www.w3.org/2000/svg">
<path d="M21.1326 7.10002L2.52089 4.72571L2.24851 6.8608L20.8603 9.23511L21.1326 7.10002Z" stroke="#303030" stroke-width="0.4" stroke-miterlimit="10"/>
<path d="M2.24931 6.86045L20.8611 9.23477L19.7871 17.6532C19.6909 18.4077 19.0001 18.9422 18.2455 18.8459L2.36432 16.82C1.61166 16.7239 1.07803 16.0342 1.17405 15.2816L2.24847 6.85938L2.24931 6.86045Z" stroke="#303030" stroke-width="0.4" stroke-miterlimit="10"/>
<path d="M4.06205 7.09145L2.41774 6.88111L4.35499 4.95923L5.9993 5.16861L4.06205 7.09145Z" stroke="#303030" stroke-width="0.4" stroke-miterlimit="10"/>
<path d="M2.40715 6.88015L2.24963 6.85998L2.49263 4.95538L2.70105 4.74792L4.3444 4.95731L2.40715 6.88015Z" stroke="#303030" stroke-width="0.4" stroke-miterlimit="10"/>
<path d="M5.71595 7.30202L4.0726 7.09264L6.00985 5.1698L7.6532 5.37918L5.71595 7.30202Z" stroke="#303030" stroke-width="0.4" stroke-miterlimit="10"/>
<path d="M7.36985 7.51333L5.7265 7.30394L7.66375 5.3811L9.30806 5.59048L7.36985 7.51333Z" stroke="#303030" stroke-width="0.4" stroke-miterlimit="10"/>
<path d="M9.02471 7.72342L7.38136 7.51404L9.31861 5.59216L10.962 5.80154L9.02471 7.72342Z" stroke="#303030" stroke-width="0.4" stroke-miterlimit="10"/>
<path d="M10.6786 7.93471L9.03528 7.72533L10.9725 5.80249L12.6159 6.01187L10.6786 7.93471Z" stroke="#303030" stroke-width="0.4" stroke-miterlimit="10"/>
<path d="M12.3335 8.14601L10.6902 7.93567L12.6274 6.01379L14.2708 6.22317L12.3335 8.14601Z" stroke="#303030" stroke-width="0.4" stroke-miterlimit="10"/>
<path d="M13.9874 8.35634L12.3441 8.14696L14.2813 6.22412L15.9247 6.43446L13.9874 8.35634Z" stroke="#303030" stroke-width="0.4" stroke-miterlimit="10"/>
<path d="M15.6423 8.56765L13.999 8.35827L15.9362 6.43542L17.5796 6.64481L15.6423 8.56765Z" stroke="#303030" stroke-width="0.4" stroke-miterlimit="10"/>
<path d="M17.2962 8.77895L15.6529 8.56861L17.5901 6.64673L19.2335 6.85611L17.2962 8.77895Z" stroke="#303030" stroke-width="0.4" stroke-miterlimit="10"/>
<path d="M18.9511 8.9894L17.3068 8.78002L19.245 6.85718L20.8883 7.06656L18.9511 8.9894Z" stroke="#303030" stroke-width="0.4" stroke-miterlimit="10"/>
<path d="M20.605 9.2007L18.9616 8.99132L20.8989 7.06848L21.1332 7.09826L20.9027 8.90488L20.605 9.2007Z" stroke="#303030" stroke-width="0.4" stroke-miterlimit="10"/>
<path d="M21.0783 0.999914L2.36729 2.39038L2.5268 4.53685L21.2378 3.14639L21.0783 0.999914Z" stroke="#303030" stroke-width="0.4" stroke-miterlimit="10"/>
<path d="M4.34921 4.40126L2.69722 4.5242L4.21187 2.25368L5.86386 2.13074L4.34921 4.40126Z" stroke="#303030" stroke-width="0.4" stroke-miterlimit="10"/>
<path d="M2.68569 4.52517L2.52722 4.53669L2.38507 2.62153L2.54835 2.37662L4.20034 2.25464L2.68569 4.52517Z" stroke="#303030" stroke-width="0.4" stroke-miterlimit="10"/>
<path d="M6.01274 4.27724L4.35979 4.40018L5.87443 2.12965L7.52642 2.00671L6.01274 4.27724Z" stroke="#303030" stroke-width="0.4" stroke-miterlimit="10"/>
<path d="M7.67529 4.15432L6.0233 4.27629L7.53795 2.00577L9.18994 1.88379L7.67529 4.15432Z" stroke="#303030" stroke-width="0.4" stroke-miterlimit="10"/>
<path d="M9.3388 4.03054L7.68681 4.15348L9.2005 1.88295L10.8534 1.76001L9.3388 4.03054Z" stroke="#303030" stroke-width="0.4" stroke-miterlimit="10"/>
<path d="M11.0014 3.90664L9.34937 4.02957L10.864 1.75905L12.516 1.63611L11.0014 3.90664Z" stroke="#303030" stroke-width="0.4" stroke-miterlimit="10"/>
<path d="M12.6649 3.78371L11.0129 3.90665L12.5275 1.63612L14.1795 1.51318L12.6649 3.78371Z" stroke="#303030" stroke-width="0.4" stroke-miterlimit="10"/>
<path d="M14.3284 3.65969L12.6754 3.78263L14.1901 1.5121L15.843 1.38916L14.3284 3.65969Z" stroke="#303030" stroke-width="0.4" stroke-miterlimit="10"/>
<path d="M15.9909 3.53591L14.3389 3.65885L15.8536 1.38832L17.5056 1.26538L15.9909 3.53591Z" stroke="#303030" stroke-width="0.4" stroke-miterlimit="10"/>
<path d="M17.6544 3.41286L16.0025 3.5358L17.5171 1.26527L19.1691 1.14233L17.6544 3.41286Z" stroke="#303030" stroke-width="0.4" stroke-miterlimit="10"/>
<path d="M19.318 3.28908L17.665 3.41202L19.1797 1.14149L20.8326 1.01855L19.318 3.28908Z" stroke="#303030" stroke-width="0.4" stroke-miterlimit="10"/>
<path d="M20.9805 3.16608L19.3285 3.28806L20.8432 1.01753L21.0785 1.00024L21.213 2.81647L20.9805 3.16608Z" stroke="#303030" stroke-width="0.4" stroke-miterlimit="10"/>
<path d="M4.5509 9.68774L17.9234 11.3926" stroke="#303030" stroke-width="0.2" stroke-miterlimit="10"/>
<path d="M4.34442 12.4316L17.7179 14.1365" stroke="#303030" stroke-width="0.2" stroke-miterlimit="10"/>
<path d="M7.73291 12.8639L7.40251 15.4571" stroke="#303030" stroke-width="0.2" stroke-miterlimit="10"/>
<path d="M14.046 13.6686L13.7156 16.2618" stroke="#303030" stroke-width="0.2" stroke-miterlimit="10"/>
<path d="M9.30806 5.59035L31.6637 2.54569C32.2746 2.46213 32.8365 2.8905 32.92 3.50039L34.9389 18.3347C35.0225 18.9455 34.5941 19.5074 33.9842 19.591L10.3146 22.8124C9.70377 22.8959 9.1419 22.4676 9.05834 21.8577L8.47919 17.5999" stroke="#303030" stroke-width="0.4" stroke-miterlimit="10"/>
<path d="M11.4345 5.8612L31.1941 3.17192C31.8049 3.08836 32.3668 3.51672 32.4504 4.12661L34.208 17.04C34.2916 17.6508 33.8632 18.2127 33.2533 18.2963L10.6729 21.3688C10.062 21.4523 9.50016 21.024 9.4166 20.4141L9.04298 17.671" stroke="#303030" stroke-width="0.2" stroke-miterlimit="10"/>
<path d="M40.9437 23.4136L40.9975 23.8113C41.0176 23.9582 40.9149 24.0936 40.7679 24.1138L4.9831 28.9833C4.83615 29.0035 4.70072 28.9007 4.68055 28.7538L4.62677 28.3562C4.61524 28.2726 4.64405 28.189 4.7036 28.1295L8.91618 23.9544C8.92386 23.9467 8.93155 23.94 8.93923 23.9332C9.17935 23.7363 9.46941 23.6096 9.77675 23.5673L24.3181 21.5888L31.6993 20.5841L34.7045 20.175C35.009 20.1337 35.3192 20.1778 35.6006 20.3017C35.6102 20.3056 35.6189 20.3104 35.6285 20.3152L40.8092 23.2148C40.8832 23.2561 40.9331 23.3291 40.9437 23.4127V23.4136Z" stroke="#303030" stroke-width="0.4" stroke-miterlimit="10"/>
<path d="M5.47775 28.1823L40.0774 23.4731" stroke="#303030" stroke-width="0.2" stroke-miterlimit="10"/>
</svg>
