<svg width="42" height="42" viewBox="0 0 42 42" fill="none" xmlns="http://www.w3.org/2000/svg">
<rect x="14.5333" y="14.5333" width="26.2667" height="26.2667" rx="0.8" fill="#BED5E8" stroke="#303030" stroke-width="0.4"/>
<rect x="1.2" y="1.2" width="26.2667" height="26.2667" rx="0.8" fill="#A9DBC2" stroke="#303030" stroke-width="0.4"/>
<mask id="path-3-inside-1_3451_63" fill="white">
<path d="M27.6663 26.6663C27.6663 27.2186 27.2186 27.6663 26.6663 27.6663H14.3333V15.3333C14.3333 14.781 14.781 14.3333 15.3333 14.3333H27.6663V26.6663Z"/>
</mask>
<path d="M27.6663 26.6663C27.6663 27.2186 27.2186 27.6663 26.6663 27.6663H14.3333V15.3333C14.3333 14.781 14.781 14.3333 15.3333 14.3333H27.6663V26.6663Z" fill="#D6B689"/>
<path d="M27.6663 26.6663L28.0663 26.6663V26.6663H27.6663ZM26.6663 27.6663V28.0663H26.6664L26.6663 27.6663ZM14.3333 27.6663H13.9333V28.0663H14.3333V27.6663ZM27.6663 14.3333H28.0663V13.9333H27.6663V14.3333ZM27.6663 26.6663L27.2663 26.6663C27.2663 26.9976 26.9977 27.2663 26.6663 27.2663L26.6663 27.6663L26.6664 28.0663C27.4395 28.0663 28.0663 27.4395 28.0663 26.6663L27.6663 26.6663ZM26.6663 27.6663V27.2663H14.3333V27.6663V28.0663H26.6663V27.6663ZM14.3333 27.6663H14.7333V15.3333H14.3333H13.9333V27.6663H14.3333ZM14.3333 15.3333H14.7333C14.7333 15.0019 15.002 14.7333 15.3333 14.7333V14.3333V13.9333C14.5601 13.9333 13.9333 14.5601 13.9333 15.3333H14.3333ZM15.3333 14.3333V14.7333H27.6663V14.3333V13.9333H15.3333V14.3333ZM27.6663 14.3333H27.2663V26.6663H27.6663H28.0663V14.3333H27.6663Z" fill="#303030" mask="url(#path-3-inside-1_3451_63)"/>
</svg>
