<svg width="40" height="40" viewBox="0 0 40 40" fill="none" xmlns="http://www.w3.org/2000/svg">
<rect x="13.5333" y="13.5333" width="26.2667" height="26.2667" rx="0.8" fill="#BED5E8" stroke="#303030" stroke-width="0.4"/>
<rect x="0.2" y="0.2" width="26.2667" height="26.2667" rx="0.8" fill="#A9DBC2" stroke="#303030" stroke-width="0.4"/>
<mask id="path-3-inside-1_3451_63" fill="white">
<path d="M26.6663 25.6663C26.6663 26.2186 26.2186 26.6663 25.6663 26.6663H13.3333V14.3333C13.3333 13.781 13.781 13.3333 14.3333 13.3333H26.6663V25.6663Z"/>
</mask>
<path d="M26.6663 25.6663C26.6663 26.2186 26.2186 26.6663 25.6663 26.6663H13.3333V14.3333C13.3333 13.781 13.781 13.3333 14.3333 13.3333H26.6663V25.6663Z" fill="#D6B689"/>
<path d="M26.6663 25.6663L27.0663 25.6663V25.6663H26.6663ZM25.6663 26.6663V27.0663H25.6664L25.6663 26.6663ZM13.3333 26.6663H12.9333V27.0663H13.3333V26.6663ZM26.6663 13.3333H27.0663V12.9333H26.6663V13.3333ZM26.6663 25.6663L26.2663 25.6663C26.2663 25.9976 25.9977 26.2663 25.6663 26.2663L25.6663 26.6663L25.6664 27.0663C26.4395 27.0663 27.0663 26.4395 27.0663 25.6663L26.6663 25.6663ZM25.6663 26.6663V26.2663H13.3333V26.6663V27.0663H25.6663V26.6663ZM13.3333 26.6663H13.7333V14.3333H13.3333H12.9333V26.6663H13.3333ZM13.3333 14.3333H13.7333C13.7333 14.0019 14.002 13.7333 14.3333 13.7333V13.3333V12.9333C13.5601 12.9333 12.9333 13.5601 12.9333 14.3333H13.3333ZM14.3333 13.3333V13.7333H26.6663V13.3333V12.9333H14.3333V13.3333ZM26.6663 13.3333H26.2663V25.6663H26.6663H27.0663V13.3333H26.6663Z" fill="#303030" mask="url(#path-3-inside-1_3451_63)"/>
</svg>
