<svg width="37" height="42" viewBox="0 0 37 42" fill="none" xmlns="http://www.w3.org/2000/svg">
<path d="M5.86886 3.6642C5.32534 4.52299 6.10012 6.00988 7.59899 6.98526L17.6236 13.5045L17.9971 11.5512L19.5924 10.3934L9.56781 3.8742C8.06832 2.89945 6.41239 2.80542 5.86886 3.6642Z" fill="#A9DBC2" stroke="#303030" stroke-width="0.4" stroke-miterlimit="10"/>
<path d="M17.9971 11.5511L17.0436 16.5409L18.9122 17.7563L19.9696 12.8343L23.9418 9.80848L22.0732 8.59302L17.9971 11.5511Z" fill="#BED5E8" stroke="#303030" stroke-width="0.4" stroke-miterlimit="10"/>
<path d="M18.7162 1L10.5967 4.54296L14.8639 7.31802L20.9015 2.42107L18.7162 1Z" fill="#76C69D" stroke="#303030" stroke-width="0.4" stroke-miterlimit="10"/>
<path d="M8.62793 7.65405L8.83569 16.613L11.0215 18.0341L12.8951 10.4291L8.62793 7.65405Z" fill="#76C69D" stroke="#303030" stroke-width="0.4" stroke-miterlimit="10"/>
<path d="M21.6812 13.9276C21.6812 13.9276 21.7832 14.0179 21.9687 14.1646" stroke="#303030" stroke-width="0.4" stroke-miterlimit="10"/>
<path d="M22.5716 14.6133C23.7347 15.4282 25.8822 16.6668 28.0718 16.5559C37.018 16.1046 37.4651 27.2531 33.9702 31.1659C29.0556 36.669 21.7826 36.2565 19.2251 36.3819C11.839 36.7436 6.70607 30.5835 10.9275 28.2159C15.149 25.8483 18.5789 29.7511 16.4698 33.8952C14.5269 37.7133 5.17443 40.9259 1.74261 40.9999" stroke="#303030" stroke-width="0.4" stroke-miterlimit="10" stroke-dasharray="0.75 0.75"/>
<path d="M1.36792 40.9938C1.23126 40.9857 1.10821 40.9709 1 40.9486" stroke="#303030" stroke-width="0.4" stroke-miterlimit="10"/>
</svg>
