<svg width="28" height="42" viewBox="0 0 28 42" fill="none" xmlns="http://www.w3.org/2000/svg">
<path d="M17.5842 5.52165C22.1161 7.65154 24.063 13.0521 21.9333 17.5841C19.8034 22.1158 14.4036 24.063 9.87168 21.9336C5.33971 19.8038 3.39181 14.4036 5.52133 9.87158C7.65112 5.3395 13.0521 3.39187 17.5842 5.52165Z" stroke="#303030" stroke-miterlimit="10"/>
<path d="M8.99421 8.38316C7.86236 9.22019 6.25922 11.3535 6.65482 14.1392" stroke="#303030" stroke-width="0.4" stroke-linecap="round"/>
<path d="M8.80767 10.0972C7.92841 10.9025 7.09761 12.3256 7.64679 14.7357" stroke="#303030" stroke-width="0.4" stroke-linecap="round"/>
<path d="M18.6742 21.9406L24.655 38.8475C24.8023 39.2639 24.584 39.7208 24.1677 39.8683L22.4451 40.4776C22.0286 40.6249 21.5717 40.4068 21.4244 39.9903L15.4436 23.0834L18.6742 21.9406Z" stroke="#303030" stroke-width="0.4"/>
</svg>
