<svg width="42" height="42" viewBox="0 0 42 42" fill="none" xmlns="http://www.w3.org/2000/svg">
<circle cx="21" cy="21" r="19.8" stroke="#303030" stroke-width="0.4"/>
<path d="M20.4872 4.58974L25.1026 2.02563L27.6667 2.53846L30.2308 3.5641L32.282 5.10256L33.8205 6.1282L33.5745 9.54292L26.0027 9.27121L20.4872 4.58974Z" fill="#303030"/>
<path d="M14.3333 5.61538L11.2564 4.07692L9.20512 5.10256L7.66666 6.64102L5.61538 8.6923L4.07692 10.7436L5.63121 14.4337L12.1213 11.9883L14.3333 5.61538Z" fill="#303030"/>
<path d="M14.7353 24.4869L16.0874 16.0639L24.5605 14.7054L28.5266 22.4944L22.3972 28.6531L14.7353 24.4869Z" fill="#303030"/>
<path d="M9.23679 26.0266L4.58974 20.4872L2.02563 25.1026L2.53846 27.1538L3.5641 29.7179L4.58974 31.7692L5.92028 33.5439H9.59735L9.23679 26.0266Z" fill="#303030"/>
<path d="M23.569 33.3628L16.3846 36.8974L18.9487 40.4872H21.5128H24.0769L27.1538 39.4615L29.7179 38.4359L29.6083 34.359L23.569 33.3628Z" fill="#303030"/>
<path d="M33.2139 23.5812L36.5491 16.3357L40.4872 18.9487V23.5641L39.9744 26.641L38.6752 29.4683H34.2956L33.2139 23.5812Z" fill="#303030"/>
<path d="M20.4872 4.58974L25.1026 2.02563L27.6667 2.53846L30.2308 3.5641L32.282 5.10256L33.8205 6.1282L33.5745 9.54292L26.0027 9.27121L20.4872 4.58974Z" stroke="#303030" stroke-width="0.4" stroke-linecap="round"/>
<path d="M14.3333 5.61538L11.2564 4.07692L9.20512 5.10256L7.66666 6.64102L5.61538 8.6923L4.07692 10.7436L5.63121 14.4337L12.1213 11.9883L14.3333 5.61538Z" stroke="#303030" stroke-width="0.4" stroke-linecap="round"/>
<path d="M14.7353 24.4869L16.0874 16.0639L24.5605 14.7054L28.5266 22.4944L22.3972 28.6531L14.7353 24.4869Z" stroke="#303030" stroke-width="0.4" stroke-linecap="round"/>
<path d="M9.23679 26.0266L4.58974 20.4872L2.02563 25.1026L2.53846 27.1538L3.5641 29.7179L4.58974 31.7692L5.92028 33.5439H9.59735L9.23679 26.0266Z" stroke="#303030" stroke-width="0.4" stroke-linecap="round"/>
<path d="M23.569 33.3628L16.3846 36.8974L18.9487 40.4872H21.5128H24.0769L27.1538 39.4615L29.7179 38.4359L29.6083 34.359L23.569 33.3628Z" stroke="#303030" stroke-width="0.4" stroke-linecap="round"/>
<path d="M33.2139 23.5812L36.5491 16.3357L40.4872 18.9487V23.5641L39.9744 26.641L38.6752 29.4683H34.2956L33.2139 23.5812Z" stroke="#303030" stroke-width="0.4" stroke-linecap="round"/>
<path d="M4.58975 20.4871L5.61538 14.3333" stroke="#303030" stroke-width="0.4"/>
<line x1="9.08435" y1="33.546" x2="16.9025" y2="37.1823" stroke="#303030" stroke-width="0.4"/>
<path d="M23.7108 34.507L22.0256 27.6666" stroke="#303030" stroke-width="0.4"/>
<line x1="8.57936" y1="26.4446" x2="15.3066" y2="24.4446" stroke="#303030" stroke-width="0.4"/>
<path d="M29.2235 34.8503L34.3334 29.2051" stroke="#303030" stroke-width="0.4"/>
<path d="M28.1795 22.5385L33.9589 24.0737" stroke="#303030" stroke-width="0.4"/>
<path d="M24.5898 15.359L26.0771 9.12021" stroke="#303030" stroke-width="0.4"/>
<line x1="36.6337" y1="17.0772" x2="33.361" y2="9.25905" stroke="#303030" stroke-width="0.4"/>
<path d="M16.3846 16.3846L11.7693 11.7693" stroke="#303030" stroke-width="0.4"/>
<path d="M14.3333 5.61546L21 4.58979" stroke="#303030" stroke-width="0.4"/>
</svg>
