<svg width="33" height="42" viewBox="0 0 33 42" fill="none" xmlns="http://www.w3.org/2000/svg">
<g clip-path="url(#clip0_359_55)">
<path d="M7.70058 33.0555L3.95407 32.5149C3.75488 32.4862 3.5701 32.6244 3.54136 32.8236L3.36456 34.049C3.33582 34.2482 3.474 34.433 3.6732 34.4617L7.4197 35.0022C7.61889 35.031 7.80367 34.8928 7.83241 34.6936L8.00922 33.4682C8.03796 33.269 7.89977 33.0842 7.70058 33.0555Z" fill="#BFA687" stroke="#303030" stroke-width="0.4" stroke-miterlimit="10"/>
<path d="M7.6118 33.0428L4.04331 32.528L7.94485 7.42306L10.9653 7.85943L7.6118 33.0428Z" fill="#E5CEAE" stroke="#303030" stroke-width="0.4" stroke-miterlimit="10"/>
<path d="M17.5588 1.96276L15.3774 1.64803C15.1898 1.62096 15.0158 1.7511 14.9887 1.9387L14.3745 6.19563C14.3475 6.38323 14.4776 6.55725 14.6652 6.58431L16.8466 6.89905C17.0342 6.92612 17.2083 6.79598 17.2353 6.60838L17.8495 2.35145C17.8766 2.16385 17.7464 1.98983 17.5588 1.96276Z" fill="#7F99AE" stroke="#303030" stroke-width="0.4" stroke-miterlimit="10"/>
<path d="M3.86156 2.21797C1.99798 3.95147 1.29406 5.02811 1.0505 5.80214C0.806943 6.57618 1.47211 6.72563 2.4528 6.00418C3.64292 5.12867 6.28699 3.08979 7.57398 4.82053C8.15243 5.59918 7.94485 7.42309 7.94485 7.42309L10.9653 7.85854C10.9653 7.85854 11.4589 5.34178 12.3178 5.35931C13.4793 5.38237 13.0955 6.04754 13.531 6.15917C13.7183 6.20715 14.3641 6.26896 14.3641 6.26896L14.996 1.88676L14.1713 1.7576C13.5845 1.69764 13.7819 2.44215 12.8077 2.27793C12.0005 2.14139 12.3695 1.49744 11.7929 1.41441C9.94128 1.14687 5.91243 0.309174 3.86156 2.21797Z" fill="#7F99AE" stroke="#303030" stroke-width="0.4" stroke-miterlimit="10"/>
<path d="M24.0999 32.2549L18.9862 9.38442L24.9542 8.05039L31.3993 36.8769C31.3993 36.8769 31.3956 36.8852 31.3919 36.8825L24.0999 32.2549Z" fill="#BED5E8" stroke="#303030" stroke-width="0.4" stroke-miterlimit="10"/>
<path d="M11.6766 35.0327L24.0999 32.2549L31.379 36.8733C31.3882 36.8788 31.3855 36.8926 31.3753 36.8945L13.0116 40.9999L11.6766 35.0327Z" fill="#76C69D" stroke="#303030" stroke-width="0.4" stroke-miterlimit="10"/>
<path d="M24.9921 14.4899L26.3279 14.1919" stroke="#303030" stroke-width="0.3" stroke-miterlimit="10"/>
<path d="M23.6359 11.5331L25.6333 11.0866" stroke="#303030" stroke-width="0.3" stroke-miterlimit="10"/>
<path d="M25.0244 17.7438L27.0217 17.2963" stroke="#303030" stroke-width="0.3" stroke-miterlimit="10"/>
<path d="M27.8013 30.1634L29.7986 29.7169" stroke="#303030" stroke-width="0.3" stroke-miterlimit="10"/>
<path d="M13.5827 39.3532L27.3963 36.2645" stroke="#303030" stroke-width="0.3" stroke-miterlimit="10"/>
<path d="M29.1575 33.1201L30.4933 32.8222" stroke="#303030" stroke-width="0.3" stroke-miterlimit="10"/>
<path d="M26.3805 20.7006L27.7164 20.4017" stroke="#303030" stroke-width="0.3" stroke-miterlimit="10"/>
<path d="M26.4128 23.9535L28.4102 23.507" stroke="#303030" stroke-width="0.3" stroke-miterlimit="10"/>
<path d="M27.769 26.9105L29.1049 26.6125" stroke="#303030" stroke-width="0.3" stroke-miterlimit="10"/>
</g>
<defs>
<clipPath id="clip0_359_55">
<rect width="32.3989" height="41.9995" fill="white"/>
</clipPath>
</defs>
</svg>
