<svg width="33" height="42" viewBox="0 0 33 42" fill="none" xmlns="http://www.w3.org/2000/svg">
<path d="M7.70049 33.0556L3.95403 32.5151C3.75483 32.4863 3.57006 32.6245 3.54132 32.8237L3.36452 34.0491C3.33578 34.2483 3.47396 34.433 3.67315 34.4618L7.41961 35.0023C7.61881 35.0311 7.80358 34.8929 7.83232 34.6937L8.00912 33.4683C8.03786 33.2691 7.89968 33.0843 7.70049 33.0556Z" stroke="#303030" stroke-width="0.4" stroke-miterlimit="10"/>
<path d="M7.61172 33.0429L4.04327 32.5281L7.94476 7.42346L10.9652 7.85983L7.61172 33.0429Z" stroke="#303030" stroke-width="0.4" stroke-miterlimit="10"/>
<path d="M17.5586 1.96323L15.3772 1.6485C15.1896 1.62143 15.0156 1.75156 14.9886 1.93916L14.3744 6.19604C14.3473 6.38364 14.4774 6.55766 14.665 6.58472L16.8464 6.89946C17.034 6.92652 17.2081 6.79639 17.2351 6.60879L17.8493 2.35191C17.8764 2.16431 17.7462 1.9903 17.5586 1.96323Z" stroke="#303030" stroke-width="0.4" stroke-miterlimit="10"/>
<path d="M3.86152 2.21841C1.99795 3.95189 1.29404 5.02852 1.05049 5.80254C0.806934 6.57657 1.4721 6.72602 2.45277 6.00458C3.64287 5.12907 6.28692 3.09022 7.57389 4.82094C8.15233 5.59958 7.94476 7.42347 7.94476 7.42347L10.9652 7.85892C10.9652 7.85892 11.4588 5.34218 12.3177 5.35971C13.4792 5.38278 13.0954 6.04794 13.5308 6.15957C13.7181 6.20754 14.3639 6.26935 14.3639 6.26935L14.9959 1.88721L14.1711 1.75805C13.5843 1.69809 13.7818 2.44259 12.8076 2.27837C12.0003 2.14184 12.3693 1.49789 11.7927 1.41486C9.94117 1.14732 5.91236 0.308714 3.86152 2.21748V2.21841Z" stroke="#303030" stroke-width="0.4" stroke-miterlimit="10"/>
<path d="M24.0996 32.255L18.9859 9.3848L24.9539 8.05078L31.3989 36.877C31.3989 36.877 31.3952 36.8853 31.3915 36.8825L24.0996 32.255Z" stroke="#303030" stroke-width="0.4" stroke-miterlimit="10"/>
<path d="M11.6765 35.0328L24.0996 32.255L31.3786 36.8733C31.3878 36.8789 31.3851 36.8927 31.3749 36.8945L13.0114 40.9999L11.6765 35.0328Z" stroke="#303030" stroke-width="0.4" stroke-miterlimit="10"/>
<path d="M24.9918 14.4902L26.3276 14.1923" stroke="#303030" stroke-width="0.3" stroke-miterlimit="10"/>
<path d="M23.6356 11.5334L25.6329 11.0869" stroke="#303030" stroke-width="0.3" stroke-miterlimit="10"/>
<path d="M25.024 17.7441L27.0214 17.2966" stroke="#303030" stroke-width="0.3" stroke-miterlimit="10"/>
<path d="M27.8009 30.1636L29.7983 29.717" stroke="#303030" stroke-width="0.3" stroke-miterlimit="10"/>
<path d="M13.5825 39.3532L27.3959 36.2645" stroke="#303030" stroke-width="0.3" stroke-miterlimit="10"/>
<path d="M29.1571 33.1203L30.493 32.8223" stroke="#303030" stroke-width="0.3" stroke-miterlimit="10"/>
<path d="M26.3802 20.7009L27.7161 20.402" stroke="#303030" stroke-width="0.3" stroke-miterlimit="10"/>
<path d="M26.4125 23.9537L28.4098 23.5072" stroke="#303030" stroke-width="0.3" stroke-miterlimit="10"/>
<path d="M27.7687 26.9107L29.1045 26.6127" stroke="#303030" stroke-width="0.3" stroke-miterlimit="10"/>
</svg>
