<svg width="22" height="42" viewBox="0 0 22 42" fill="none" xmlns="http://www.w3.org/2000/svg">
<g clip-path="url(#clip0_394_841)">
<path d="M8.87048 38.6522L4.46986 38.0173C4.23588 37.9835 4.01884 38.1459 3.98508 38.3798L3.77741 39.8192C3.74365 40.0532 3.90596 40.2702 4.13994 40.304L8.54057 40.9389C8.77454 40.9726 8.99158 40.8103 9.02534 40.5764L9.23301 39.137C9.26677 38.903 9.10446 38.686 8.87048 38.6522Z" fill="#BFA687" stroke="#303030" stroke-width="0.4" stroke-miterlimit="10"/>
<path d="M8.76618 38.6373L4.57465 38.0326L9.15738 8.54443L12.7052 9.057L8.76618 38.6373Z" fill="#E5CEAE" stroke="#303030" stroke-width="0.4" stroke-miterlimit="10"/>
<path d="M20.45 2.13087L17.8877 1.76118C17.6673 1.72939 17.4629 1.88224 17.4311 2.1026L16.7097 7.10277C16.6779 7.32313 16.8308 7.52753 17.0511 7.55932L19.6134 7.92901C19.8338 7.96081 20.0382 7.80795 20.07 7.58759L20.7914 2.58742C20.8232 2.36706 20.6703 2.16266 20.45 2.13087Z" fill="#A9C0D3" stroke="#303030" stroke-width="0.4" stroke-miterlimit="10"/>
<path d="M4.36117 2.43061C2.17221 4.46677 1.34539 5.73139 1.0593 6.64057C0.773222 7.54974 1.55453 7.7253 2.70644 6.87788C4.10435 5.84951 7.21007 3.45465 8.72176 5.48757C9.4012 6.40216 9.15738 8.54453 9.15738 8.54453L12.7052 9.05601C12.7052 9.05601 13.285 6.09983 14.2939 6.12042C15.6582 6.14751 15.2074 6.92882 15.7189 7.05994C15.9388 7.11629 16.6974 7.18889 16.6974 7.18889L17.4397 2.04158L16.4709 1.88987C15.7817 1.81943 16.0136 2.69393 14.8693 2.50104C13.9211 2.34066 14.3545 1.58428 13.6773 1.48675C11.5024 1.17249 6.77011 0.188544 4.36117 2.43061Z" fill="#7F99AE" stroke="#303030" stroke-width="0.4" stroke-miterlimit="10"/>
</g>
<defs>
<clipPath id="clip0_394_841">
<rect width="21.8489" height="42" fill="white"/>
</clipPath>
</defs>
</svg>
