<svg width="42" height="42" viewBox="0 0 42 42" fill="none" xmlns="http://www.w3.org/2000/svg">
<path d="M25.4004 1C25.7318 1.00001 26 1.26922 26 1.60059V16H40.4004C40.7318 16 41 16.2692 41 16.6006V25.4004C40.9999 25.7317 40.7317 26 40.4004 26H26V40.4004C25.9999 40.7317 25.7317 41 25.4004 41H16.6006C16.2693 41 16.0001 40.7317 16 40.4004V26H1.60059C1.26926 26 1.00008 25.7317 1 25.4004V16.6006C1 16.2692 1.26922 16 1.60059 16H16V1.60059C16 1.26922 16.2692 1 16.6006 1H25.4004Z" fill="#76C69D"/>
<path d="M25.4004 1L25.4004 0.8H25.4004V1ZM26 16H25.8V16.2H26V16ZM40.4004 16L40.4004 15.8H40.4004V16ZM41 16.6006H40.8V16.6006H41ZM41 25.4004L41.2 25.4004V25.4004H41ZM40.4004 26V26.2H40.4004L40.4004 26ZM26 26V25.8H25.8V26H26ZM26 40.4004L26.2 40.4004V40.4004H26ZM25.4004 41V41.2H25.4004L25.4004 41ZM16 40.4004H15.8V40.4004L16 40.4004ZM16 26H16.2V25.8H16V26ZM1.60059 26V26.2V26.2V26ZM1 25.4004H0.8V25.4004L1 25.4004ZM1 16.6006H0.8V16.6006H1ZM1.60059 16V16.2V16.2V16ZM16 16V16.2H16.2V16H16ZM25.4004 1L25.4004 1.2C25.6209 1.20001 25.8 1.37926 25.8 1.60059H26H26.2C26.2 1.15918 25.8426 0.800018 25.4004 0.8L25.4004 1ZM26 1.60059H25.8V16H26H26.2V1.60059H26ZM26 16V16.2H40.4004V16V15.8H26V16ZM40.4004 16L40.4004 16.2C40.6209 16.2 40.8 16.3793 40.8 16.6006H41H41.2C41.2 16.1592 40.8426 15.8 40.4004 15.8L40.4004 16ZM41 16.6006H40.8V25.4004H41H41.2V16.6006H41ZM41 25.4004L40.8 25.4003C40.7999 25.6213 40.6212 25.8 40.4004 25.8L40.4004 26L40.4004 26.2C40.8422 26.2 41.1999 25.8421 41.2 25.4004L41 25.4004ZM40.4004 26V25.8H26V26V26.2H40.4004V26ZM26 26H25.8V40.4004H26H26.2V26H26ZM26 40.4004L25.8 40.4003C25.7999 40.6213 25.6212 40.8 25.4004 40.8L25.4004 41L25.4004 41.2C25.8422 41.2 26.1999 40.8421 26.2 40.4004L26 40.4004ZM25.4004 41V40.8H16.6006V41V41.2H25.4004V41ZM16.6006 41V40.8C16.3793 40.8 16.2001 40.6208 16.2 40.4003L16 40.4004L15.8 40.4004C15.8001 40.8425 16.1592 41.2 16.6006 41.2V41ZM16 40.4004H16.2V26H16H15.8V40.4004H16ZM16 26V25.8H1.60059V26V26.2H16V26ZM1.60059 26V25.8C1.37935 25.8 1.20005 25.6208 1.2 25.4003L1 25.4004L0.8 25.4004C0.800107 25.8425 1.15918 26.2 1.60059 26.2V26ZM1 25.4004H1.2V16.6006H1H0.8V25.4004H1ZM1 16.6006H1.2C1.2 16.3797 1.37967 16.2 1.60059 16.2V16V15.8C1.15876 15.8 0.8 16.1588 0.8 16.6006H1ZM1.60059 16V16.2H16V16V15.8H1.60059V16ZM16 16H16.2V1.60059H16H15.8V16H16ZM16 1.60059H16.2C16.2 1.37967 16.3797 1.2 16.6006 1.2V1V0.8C16.1588 0.8 15.8 1.15876 15.8 1.60059H16ZM16.6006 1V1.2H25.4004V1V0.8H16.6006V1Z" fill="#303030"/>
</svg>
