<svg width="42" height="42" viewBox="0 0 42 42" fill="none" xmlns="http://www.w3.org/2000/svg">
<path d="M40.7998 10.0474V37.6285C40.7998 39.3416 39.4113 40.7309 37.6982 40.731H4.30176C2.58868 40.7309 1.2002 39.3416 1.2002 37.6285V10.0474H40.7998Z" fill="#E0EFFB" stroke="#303030" stroke-width="0.4"/>
<path d="M4.30176 3.29395H37.6982C39.4112 3.29411 40.7997 4.68253 40.7998 6.39551V10.0869H1.2002V6.39551C1.20035 4.68252 2.58877 3.2941 4.30176 3.29395Z" fill="#C8DEF0" stroke="#303030" stroke-width="0.4"/>
<circle cx="9.73265" cy="6.69023" r="1.46301" fill="#6D889D" stroke="#303030" stroke-width="0.4"/>
<circle cx="32.2674" cy="6.69023" r="1.46301" fill="#6D889D" stroke="#303030" stroke-width="0.4"/>
<rect x="9.23244" y="1.2" width="1.00045" height="5.47685" rx="0.212755" fill="#BED5E8" stroke="#303030" stroke-width="0.4"/>
<rect x="31.7671" y="1.2" width="1.00045" height="5.47685" rx="0.212755" fill="#BED5E8" stroke="#303030" stroke-width="0.4"/>
<path d="M21.4597 25.6313C20.9029 25.6275 20.3593 25.5309 19.829 25.3415C19.2987 25.1484 18.8214 24.8359 18.3972 24.404C17.9729 23.9684 17.6358 23.3908 17.3858 22.6711C17.1358 21.9476 17.0127 21.0518 17.0165 19.9836C17.0165 18.9874 17.1225 18.0991 17.3347 17.3188C17.5468 16.5385 17.8517 15.8794 18.2494 15.3415C18.6472 14.7999 19.1263 14.387 19.6869 14.1029C20.2513 13.8188 20.882 13.6768 21.579 13.6768C22.31 13.6768 22.9578 13.8207 23.5222 14.1086C24.0904 14.3965 24.5487 14.7904 24.8972 15.2904C25.2457 15.7866 25.4616 16.3472 25.5449 16.9722H23.471C23.365 16.5253 23.1472 16.1692 22.8176 15.904C22.4919 15.6351 22.079 15.5006 21.579 15.5006C20.7722 15.5006 20.151 15.851 19.7154 16.5518C19.2835 17.2525 19.0657 18.2147 19.0619 19.4381H19.1415C19.3271 19.1048 19.5676 18.8188 19.8631 18.5802C20.1585 18.3415 20.4919 18.1578 20.8631 18.029C21.2381 17.8965 21.6339 17.8302 22.0506 17.8302C22.7324 17.8302 23.3441 17.9931 23.8858 18.3188C24.4313 18.6446 24.8631 19.0934 25.1813 19.6654C25.4994 20.2336 25.6566 20.8851 25.6529 21.62C25.6566 22.3851 25.4824 23.0726 25.1301 23.6825C24.7779 24.2885 24.2873 24.7658 23.6585 25.1143C23.0297 25.4628 22.2968 25.6351 21.4597 25.6313ZM21.4483 23.9268C21.8612 23.9268 22.2305 23.8264 22.5563 23.6256C22.882 23.4249 23.1396 23.154 23.329 22.8131C23.5184 22.4722 23.6112 22.0897 23.6074 21.6654C23.6112 21.2487 23.5203 20.8719 23.3347 20.5347C23.1529 20.1976 22.901 19.9306 22.579 19.7336C22.257 19.5366 21.8896 19.4381 21.4767 19.4381C21.1699 19.4381 20.8839 19.4969 20.6188 19.6143C20.3536 19.7317 20.1225 19.8946 19.9256 20.1029C19.7286 20.3075 19.5733 20.5461 19.4597 20.8188C19.3498 21.0878 19.293 21.3756 19.2892 21.6825C19.293 22.0878 19.3877 22.4609 19.5733 22.8018C19.7589 23.1427 20.0146 23.4154 20.3404 23.62C20.6661 23.8245 21.0354 23.9268 21.4483 23.9268Z" fill="#303030"/>
<path d="M14.0083 31.9679C13.9681 31.5631 13.7894 31.2411 13.4721 31.002C13.1549 30.7629 12.756 30.6434 12.2754 30.6434C11.9368 30.6434 11.6385 30.7014 11.3805 30.8174C11.1248 30.9334 10.9236 31.0944 10.7768 31.3003C10.6324 31.5039 10.5602 31.7359 10.5602 31.9963C10.5602 32.1881 10.6016 32.3562 10.6845 32.5006C10.7673 32.645 10.8786 32.7693 11.0183 32.8735C11.1603 32.9753 11.3166 33.0629 11.487 33.1363C11.6599 33.2097 11.8339 33.2712 12.0091 33.3209L12.7761 33.5411C13.0081 33.605 13.2401 33.6867 13.4721 33.7861C13.7041 33.8856 13.916 34.011 14.1078 34.1625C14.3019 34.3117 14.457 34.4952 14.573 34.713C14.6913 34.9284 14.7505 35.1876 14.7505 35.4907C14.7505 35.8789 14.6499 36.2281 14.4487 36.5383C14.2474 36.8484 13.9586 37.0946 13.5822 37.2769C13.2058 37.4568 12.7548 37.5468 12.2292 37.5468C11.7344 37.5468 11.3047 37.4651 10.9402 37.3017C10.5756 37.136 10.2891 36.9076 10.0808 36.6164C9.87245 36.3252 9.75526 35.9878 9.72922 35.6043H10.411C10.4347 35.8908 10.5294 36.1334 10.6951 36.3323C10.8608 36.5312 11.0763 36.6827 11.3414 36.7868C11.6066 36.8886 11.9025 36.9395 12.2292 36.9395C12.5914 36.9395 12.9134 36.8792 13.1951 36.7584C13.4792 36.6353 13.7018 36.4649 13.8627 36.2471C14.0261 36.0269 14.1078 35.7712 14.1078 35.48C14.1078 35.2338 14.0439 35.0278 13.916 34.8621C13.7882 34.694 13.6094 34.5532 13.3798 34.4395C13.1525 34.3259 12.8885 34.2253 12.5879 34.1377L11.7179 33.882C11.1473 33.7115 10.7046 33.476 10.3897 33.1753C10.0749 32.8747 9.91743 32.4911 9.91743 32.0248C9.91743 31.6341 10.0216 31.2909 10.2299 30.9949C10.4406 30.6966 10.7247 30.4646 11.0822 30.2989C11.4421 30.1308 11.8457 30.0468 12.2931 30.0468C12.7453 30.0468 13.1454 30.1296 13.4934 30.2954C13.8414 30.4611 14.1172 30.6895 14.3208 30.9807C14.5268 31.2695 14.6369 31.5986 14.6511 31.9679H14.0083ZM16.3485 37.4225V30.1498H20.5673V30.7463H17.0126V33.4843H20.3436V34.0809H17.0126V36.8259H20.6383V37.4225H16.3485ZM22.286 37.4225V30.1498H24.6333C25.1494 30.1498 25.5803 30.2492 25.926 30.4481C26.274 30.6445 26.5356 30.9121 26.7108 31.2506C26.8883 31.5892 26.9771 31.9703 26.9771 32.3941C26.9771 32.8178 26.8895 33.2002 26.7143 33.5411C26.5391 33.8796 26.2787 34.1483 25.9331 34.3472C25.5874 34.5437 25.1577 34.6419 24.644 34.6419H22.7974V34.0454H24.6262C25.0074 34.0454 25.3234 33.9743 25.5744 33.8323C25.8253 33.6879 26.0124 33.4914 26.1355 33.2428C26.2609 32.9942 26.3237 32.7113 26.3237 32.3941C26.3237 32.0768 26.2609 31.7939 26.1355 31.5454C26.0124 31.2968 25.8242 31.1015 25.5708 30.9594C25.3199 30.8174 25.0015 30.7463 24.6156 30.7463H22.9501V37.4225H22.286ZM28.0957 30.7463V30.1498H33.3691V30.7463H31.0644V37.4225H30.4004V30.7463H28.0957Z" fill="#303030"/>
</svg>
