<svg width="42" height="42" viewBox="0 0 42 42" fill="none" xmlns="http://www.w3.org/2000/svg">
<path d="M40.7998 10.0474V37.6285C40.7998 39.3416 39.4113 40.7309 37.6982 40.731H4.30176C2.58868 40.7309 1.2002 39.3416 1.2002 37.6285V10.0474H40.7998Z" stroke="#303030" stroke-width="0.4"/>
<path d="M10.3388 3.09375H16.7886H25.2083H31.6727M9.37437 3.09375H4.51731C2.69365 3.09375 1.21527 4.57212 1.21527 6.39579V10.0617H40.7813V6.39579C40.7813 4.57212 39.3029 3.09375 37.4792 3.09375H32.6304" stroke="#303030" stroke-width="0.4"/>
<path d="M10.2098 5.2616C10.8389 5.40316 11.2687 6.07687 11.2687 6.69454C11.2687 7.54294 10.581 8.2307 9.73258 8.2307C8.88418 8.2307 8.19641 7.54294 8.19641 6.69454C8.19641 6.07687 8.63682 5.42938 9.24502 5.2616" stroke="#303030" stroke-width="0.4"/>
<path d="M32.7446 5.2616C33.3738 5.40316 33.8036 6.07687 33.8036 6.69454C33.8036 7.54294 33.1158 8.2307 32.2674 8.2307C31.419 8.2307 30.7313 7.54294 30.7313 6.69454C30.7313 6.07687 31.1717 5.42938 31.7799 5.2616" stroke="#303030" stroke-width="0.4"/>
<rect x="9.23241" y="1.2" width="1.00045" height="5.47685" rx="0.212755" stroke="#303030" stroke-width="0.4"/>
<rect x="31.7672" y="1.2" width="1.00045" height="5.47685" rx="0.212755" stroke="#303030" stroke-width="0.4"/>
</svg>
