<svg width="42" height="42" viewBox="0 0 42 42" fill="none" xmlns="http://www.w3.org/2000/svg">
<path d="M40.7998 10.0474V37.6285C40.7998 39.3416 39.4113 40.7309 37.6982 40.731H4.30176C2.58868 40.7309 1.2002 39.3416 1.2002 37.6285V10.0474H40.7998Z" stroke="#303030" stroke-width="0.4"/>
<path d="M10.3388 3.09375H16.7885H25.2083H31.6727M9.37434 3.09375H4.51728C2.69362 3.09375 1.21524 4.57212 1.21524 6.39579V10.0617H40.7812V6.39579C40.7812 4.57212 39.3029 3.09375 37.4792 3.09375H32.6304" stroke="#303030" stroke-width="0.4"/>
<path d="M10.2098 5.2616C10.839 5.40316 11.2688 6.07687 11.2688 6.69454C11.2688 7.54294 10.581 8.2307 9.73261 8.2307C8.88421 8.2307 8.19644 7.54294 8.19644 6.69454C8.19644 6.07687 8.63685 5.42938 9.24505 5.2616" stroke="#303030" stroke-width="0.4"/>
<path d="M32.7446 5.2616C33.3738 5.40316 33.8036 6.07687 33.8036 6.69454C33.8036 7.54294 33.1158 8.2307 32.2674 8.2307C31.419 8.2307 30.7313 7.54294 30.7313 6.69454C30.7313 6.07687 31.1717 5.42938 31.7799 5.2616" stroke="#303030" stroke-width="0.4"/>
<rect x="9.23241" y="1.2" width="1.00045" height="5.47685" rx="0.212755" stroke="#303030" stroke-width="0.4"/>
<rect x="31.7672" y="1.2" width="1.00045" height="5.47685" rx="0.212755" stroke="#303030" stroke-width="0.4"/>
<path d="M21.4012 25.6313C20.8443 25.6275 20.3008 25.5309 19.7705 25.3415C19.2402 25.1484 18.7629 24.8359 18.3387 24.404C17.9144 23.9684 17.5773 23.3908 17.3273 22.6711C17.0773 21.9476 16.9542 21.0518 16.958 19.9836C16.958 18.9874 17.064 18.0991 17.2762 17.3188C17.4883 16.5385 17.7932 15.8794 18.1909 15.3415C18.5887 14.7999 19.0678 14.387 19.6284 14.1029C20.1928 13.8188 20.8235 13.6768 21.5205 13.6768C22.2515 13.6768 22.8993 13.8207 23.4637 14.1086C24.0318 14.3965 24.4902 14.7904 24.8387 15.2904C25.1872 15.7866 25.4031 16.3472 25.4864 16.9722H23.4125C23.3065 16.5253 23.0887 16.1692 22.7591 15.904C22.4334 15.6351 22.0205 15.5006 21.5205 15.5006C20.7137 15.5006 20.0925 15.851 19.6568 16.5518C19.225 17.2525 19.0072 18.2147 19.0034 19.4381H19.083C19.2686 19.1048 19.5091 18.8188 19.8046 18.5802C20.1 18.3415 20.4334 18.1578 20.8046 18.029C21.1796 17.8965 21.5754 17.8302 21.9921 17.8302C22.6739 17.8302 23.2856 17.9931 23.8273 18.3188C24.3728 18.6446 24.8046 19.0934 25.1228 19.6654C25.4409 20.2336 25.5981 20.8851 25.5943 21.62C25.5981 22.3851 25.4239 23.0726 25.0716 23.6825C24.7193 24.2885 24.2288 24.7658 23.6 25.1143C22.9712 25.4628 22.2383 25.6351 21.4012 25.6313ZM21.3898 23.9268C21.8027 23.9268 22.172 23.8264 22.4978 23.6256C22.8235 23.4249 23.0811 23.154 23.2705 22.8131C23.4599 22.4722 23.5527 22.0897 23.5489 21.6654C23.5527 21.2487 23.4618 20.8719 23.2762 20.5347C23.0943 20.1976 22.8425 19.9306 22.5205 19.7336C22.1985 19.5366 21.8311 19.4381 21.4182 19.4381C21.1114 19.4381 20.8254 19.4969 20.5603 19.6143C20.2951 19.7317 20.064 19.8946 19.8671 20.1029C19.6701 20.3075 19.5148 20.5461 19.4012 20.8188C19.2913 21.0878 19.2345 21.3756 19.2307 21.6825C19.2345 22.0878 19.3292 22.4609 19.5148 22.8018C19.7004 23.1427 19.9561 23.4154 20.2818 23.62C20.6076 23.8245 20.9769 23.9268 21.3898 23.9268Z" fill="#303030"/>
<path d="M13.9499 31.968C13.9096 31.5632 13.7309 31.2412 13.4136 31.0021C13.0964 30.763 12.6975 30.6434 12.2169 30.6434C11.8784 30.6434 11.5801 30.7014 11.322 30.8174C11.0663 30.9334 10.8651 31.0944 10.7183 31.3004C10.5739 31.504 10.5017 31.736 10.5017 31.9964C10.5017 32.1882 10.5431 32.3563 10.626 32.5007C10.7089 32.6451 10.8201 32.7694 10.9598 32.8735C11.1019 32.9753 11.2581 33.0629 11.4286 33.1363C11.6014 33.2097 11.7754 33.2713 11.9506 33.321L12.7176 33.5412C12.9496 33.6051 13.1816 33.6868 13.4136 33.7862C13.6457 33.8856 13.8575 34.0111 14.0493 34.1626C14.2434 34.3118 14.3985 34.4952 14.5145 34.713C14.6329 34.9285 14.6921 35.1877 14.6921 35.4907C14.6921 35.879 14.5914 36.2282 14.3902 36.5383C14.189 36.8484 13.9002 37.0947 13.5237 37.2769C13.1473 37.4569 12.6963 37.5468 12.1707 37.5468C11.676 37.5468 11.2463 37.4652 10.8817 37.3018C10.5171 37.1361 10.2306 36.9076 10.0223 36.6164C9.81398 36.3252 9.69679 35.9879 9.67075 35.6044H10.3526C10.3762 35.8908 10.4709 36.1335 10.6367 36.3323C10.8024 36.5312 11.0178 36.6827 11.283 36.7869C11.5481 36.8887 11.844 36.9396 12.1707 36.9396C12.533 36.9396 12.8549 36.8792 13.1367 36.7585C13.4207 36.6354 13.6433 36.4649 13.8043 36.2471C13.9676 36.0269 14.0493 35.7713 14.0493 35.4801C14.0493 35.2339 13.9854 35.0279 13.8575 34.8622C13.7297 34.6941 13.551 34.5532 13.3213 34.4396C13.094 34.326 12.8301 34.2253 12.5294 34.1377L11.6594 33.8821C11.0888 33.7116 10.6461 33.476 10.3313 33.1754C10.0164 32.8747 9.85896 32.4912 9.85896 32.0248C9.85896 31.6342 9.96313 31.2909 10.1715 30.995C10.3822 30.6967 10.6663 30.4647 11.0237 30.299C11.3836 30.1309 11.7872 30.0468 12.2347 30.0468C12.6868 30.0468 13.0869 30.1297 13.435 30.2954C13.783 30.4611 14.0588 30.6896 14.2624 30.9808C14.4683 31.2696 14.5784 31.5987 14.5926 31.968H13.9499ZM16.2901 37.4225V30.1498H20.5088V30.7464H16.9541V33.4843H20.2851V34.0809H16.9541V36.826H20.5798V37.4225H16.2901ZM22.2276 37.4225V30.1498H24.5749C25.091 30.1498 25.5218 30.2493 25.8675 30.4481C26.2155 30.6446 26.4771 30.9121 26.6523 31.2507C26.8298 31.5892 26.9186 31.9704 26.9186 32.3941C26.9186 32.8179 26.831 33.2002 26.6558 33.5412C26.4806 33.8797 26.2202 34.1484 25.8746 34.3473C25.5289 34.5438 25.0993 34.642 24.5855 34.642H22.7389V34.0454H24.5678C24.9489 34.0454 25.265 33.9744 25.5159 33.8323C25.7669 33.6879 25.9539 33.4914 26.077 33.2429C26.2025 32.9943 26.2652 32.7114 26.2652 32.3941C26.2652 32.0769 26.2025 31.794 26.077 31.5454C25.9539 31.2968 25.7657 31.1015 25.5124 30.9595C25.2614 30.8174 24.943 30.7464 24.5571 30.7464H22.8916V37.4225H22.2276ZM28.0372 30.7464V30.1498H33.3107V30.7464H31.006V37.4225H30.3419V30.7464H28.0372Z" fill="#303030"/>
</svg>
