<svg width="41" height="42" viewBox="0 0 41 42" fill="none" xmlns="http://www.w3.org/2000/svg">
<path d="M20.528 20.6433L20.2762 19.7481C20.2762 19.7481 19.7019 13.6674 19.3348 11.9917C18.9449 10.3168 17.6136 10.225 17.43 11.2119C17.2699 12.198 17.1781 14.608 17.1319 15.6867C17.0628 17.1553 17.43 20.6433 17.43 20.6433L16.7647 20.7351C16.7647 20.7351 15.9849 16.0539 15.8931 15.2043C15.755 14.011 15.4342 12.1298 15.1353 10.2477C14.7917 8.11387 12.9324 8.68734 12.8633 10.0414C12.8178 10.8675 13.651 18.7848 13.6283 20.2298C13.6283 22.1119 13.185 20.8041 13.185 20.8041C13.185 20.8041 12.3589 17.3154 12.2208 16.6046C11.969 15.2961 11.6474 13.4603 11.3492 12.0835C11.0048 10.5921 9.37542 11.1429 9.44445 12.4506C9.4672 13.3458 9.67431 16.0304 9.7661 17.04C9.83435 17.7979 10.7295 23.535 10.7295 23.535L10.4086 23.7876C10.4086 23.7876 8.18218 18.9448 7.53966 18.1187C6.89715 17.2926 6.1401 17.9579 6.36918 18.7848C6.59904 19.5873 8.80194 25.5771 8.80194 25.5771C8.80194 25.5771 10.1097 32.0829 10.2705 33.0463C10.4541 34.0105 13.1276 36.5514 13.1276 36.5514L14.6297 39.5557C15.7132 39.6451 17.2059 39.0595 18.6355 38.2508" stroke="#303030" stroke-width="0.4" stroke-linecap="round" stroke-linejoin="round"/>
<path d="M15.1816 33.8298C15.1816 33.8298 14.2402 32.4757 14.3782 31.0534C14.5163 29.6303 15.4106 26.8994 16.5584 25.7297C16.7205 25.5628 16.9154 25.4071 17.1334 25.2595" stroke="#303030" stroke-width="0.2" stroke-linecap="round" stroke-linejoin="round"/>
<path d="M17.1091 22.2644C16.214 23.3886 15.2506 24.7427 14.4245 25.1781C12.9551 26.0049 10.1787 27.7254 10.1787 27.7254" stroke="#303030" stroke-width="0.2" stroke-linecap="round" stroke-linejoin="round"/>
<path d="M19.1363 32.0449C18.6934 30.5477 17.7093 27.8289 17.3689 26.545C17.248 26.0918 17.1962 25.6252 17.2191 25.1574C17.2889 23.9426 17.4474 21.9754 17.4711 21.5626C17.4696 21.5075 17.4821 21.4532 17.503 21.4042L17.5943 21.0181C17.6418 20.7937 17.6552 20.5595 17.6338 20.3312C17.5898 19.8918 17.4988 19.0819 17.4868 18.484C17.47 17.5864 18.4344 17.5954 19.2863 18.7712C19.6915 19.3233 19.9887 24.4282 20.1377 25.0348L20.6384 21.5626C20.6384 21.5626 21.3926 14.1113 21.8553 12.4594C22.3413 10.8096 23.6749 10.7943 23.8016 11.7901C23.9056 12.7838 23.8591 15.1951 23.8427 16.2747C23.8274 17.7448 23.5031 21.7522 23.5031 21.7522L24.1908 21.7917C24.1908 21.7917 24.9889 16.731 25.1519 15.8901C25.3582 14.7068 25.7864 12.8462 26.1927 10.9844C26.6589 8.8738 28.4814 9.55288 28.4727 10.9087C28.4708 11.736 27.208 19.5733 27.1479 21.0181C27.04 22.8962 27.7633 22.0196 27.7633 22.0196C27.7633 22.0196 28.5593 18.2004 28.738 17.4979C29.0643 16.2067 29.4907 14.3924 29.8673 13.0342C30.2966 11.565 31.8918 12.2083 31.7479 13.5099C31.6739 14.4023 31.3132 17.0714 31.1636 18.0741C31.0521 18.826 30.0582 24.8868 30.0582 24.8868L30.3641 25.1574C30.3641 25.1574 32.6358 20.0666 33.3246 19.2779C34.0134 18.49 34.7311 19.1983 34.455 20.0099C34.1795 20.7988 31.6369 26.6516 31.6369 26.6516C31.6369 26.6516 30.5799 32.093 30.3641 33.0464C30.1256 33.9976 28.2554 35.0493 28.2554 35.0493L26.6471 40.9987C23.8622 41.0682 18.2816 38.5954 18.1348 37.5529C18.5012 36.7693 19.1363 32.0449 19.1363 32.0449Z" stroke="#303030" stroke-width="0.4" stroke-linecap="round" stroke-linejoin="round"/>
<path d="M2.67491 20.6889L0.999985 20.0464" stroke="#303030" stroke-width="0.4" stroke-linecap="round" stroke-linejoin="round"/>
<path d="M5.80587 10.7493L2.11162 7.00879" stroke="#303030" stroke-width="0.4" stroke-linecap="round" stroke-linejoin="round"/>
<path d="M18.4632 6.98973L17.43 1" stroke="#303030" stroke-width="0.4" stroke-linecap="round" stroke-linejoin="round"/>
<path d="M29.5507 6.43809L30.9738 1.71143" stroke="#303030" stroke-width="0.4" stroke-linecap="round" stroke-linejoin="round"/>
<path d="M35.811 15.5173L39.2762 12.6719" stroke="#303030" stroke-width="0.4" stroke-linecap="round" stroke-linejoin="round"/>
<path d="M36.3477 23.9932L37.5637 23.5806" stroke="#303030" stroke-width="0.4" stroke-linecap="round" stroke-linejoin="round"/>
</svg>
