<svg width="42" height="39" viewBox="0 0 42 39" fill="none" xmlns="http://www.w3.org/2000/svg">
<path d="M7.60303 13.565C7.60303 13.565 8.15642 15.0888 6.01032 15.5732C3.86422 16.0576 6.28177 17.0279 6.80368 18.2052C7.32558 19.3825 6.40175 20.9752 6.40175 20.9752C6.40175 20.9752 1.78561 20.7907 1.09424 16.521C0.40287 12.2513 3.72025 10.3811 4.38163 10.0347C5.043 9.68826 6.1498 11.6274 5.04151 13.0821" stroke="#303030" stroke-width="0.4" stroke-miterlimit="10"/>
<path d="M31.6315 8.78699C31.6315 8.78699 29.346 10.6571 28.8616 13.0117C28.3771 15.3663 28.9095 16.4971 25.4587 16.521C22.0078 16.545 17.1592 13.982 13.005 23.6072C13.005 23.6072 13.7669 29.0077 19.9982 27.6925C19.9982 27.6925 24.1524 33.093 29.139 27.277C29.139 27.277 31.909 28.5923 34.3325 26.3082C34.3325 26.3082 38.6607 30.1865 40.6344 24.1621C41.9496 20.1459 39.2936 16.9605 39.2936 16.9605C39.2936 16.9605 40.9793 14.3989 37.5179 12.8752C37.5179 12.8752 39.0417 9.13642 35.0254 8.51254C35.0254 8.51254 34.0566 4.56527 30.0403 5.18916C30.0403 5.18916 28.4176 0.688497 23.3786 2.48816C23.3786 2.48816 19.9307 -0.766232 16.2609 2.35019C16.2609 2.35019 13.4909 1.58833 11.2758 4.28933C11.2758 4.28933 4.76105 3.80492 4.38312 10.0363" stroke="#303030" stroke-width="0.4" stroke-miterlimit="10"/>
<path d="M4.35013 10.0348C4.35013 10.0348 1.2997 11.161 1.02525 14.6944C0.567835 20.6033 6.47673 21.0157 6.47673 21.0157C6.47673 21.0157 8.43687 25.1774 12.9735 23.6072C12.9735 23.6072 13.7354 29.0077 19.9667 27.6925C19.9667 27.6925 24.1209 33.093 29.1075 27.277C29.1075 27.277 31.8775 28.5923 34.301 26.3082C34.301 26.3082 38.6292 30.1865 40.6029 24.1621C41.9181 20.1459 39.2621 16.9605 39.2621 16.9605C39.2621 16.9605 40.9478 14.3989 37.4865 12.8752C37.4865 12.8752 39.0102 9.13642 34.9939 8.51254C34.9939 8.51254 34.0251 4.56527 30.0088 5.18916C30.0088 5.18916 28.3862 0.688497 23.3471 2.48816C23.3471 2.48816 19.8992 -0.766232 16.2294 2.35019C16.2294 2.35019 13.4594 1.58833 11.2443 4.28933C11.2443 4.28933 4.72956 3.80492 4.35163 10.0363L4.35013 10.0348Z" stroke="#303030" stroke-width="0.4" stroke-miterlimit="10"/>
<path d="M9.68015 14.0496C9.68015 14.0496 12.6931 16.6321 14.2663 13.6342C15.5815 11.1296 15.2546 10.8342 18.3515 9.72138C21.045 8.75406 21.8429 7.56478 22.6887 5.3317C23.3756 3.52004 23.3756 2.48523 23.3756 2.48523" stroke="#303030" stroke-width="0.4" stroke-miterlimit="10"/>
<path d="M7.66751 11.683C7.66751 11.683 7.92396 10.7366 10.622 10.6886C13.32 10.6407 12.9885 8.70002 12.894 8.03864C12.7996 7.37727 11.2743 4.28784 11.2743 4.28784" stroke="#303030" stroke-width="0.4" stroke-miterlimit="10"/>
<path d="M18.8104 24.6526C18.8104 24.6526 21.144 22.0416 23.608 22.523C26.0721 23.0044 26.6075 23.2804 28.7191 21.2797C30.7062 19.3976 32.4324 21.4747 33.7971 20.5959C35.0629 19.78 35.4468 18.3868 35.0629 16.5196C34.9204 15.8253 34.7495 13.9596 37.5179 12.8723" stroke="#303030" stroke-width="0.4" stroke-miterlimit="10"/>
<path d="M22.2358 9.67344C22.2358 9.67344 24.7103 11.2422 26.4185 9.67344C28.1267 8.10474 30.0388 5.18628 30.0388 5.18628" stroke="#303030" stroke-width="0.4" stroke-miterlimit="10"/>
<path d="M25.3387 12.8722C25.3387 12.8722 19.8332 16.3215 17.3062 10.1217" stroke="#303030" stroke-width="0.4" stroke-miterlimit="10"/>
<path d="M6.40176 20.9736C6.40176 20.9736 8.02446 25.0244 13.0035 23.6056" stroke="#303030" stroke-width="0.4" stroke-miterlimit="10"/>
<path d="M18.0966 3.82153C18.0966 3.82153 16.5219 5.22677 16.5294 6.24208C16.5294 6.24208 18.5 6.85697 19.2933 9.34051" stroke="#303030" stroke-width="0.4" stroke-miterlimit="10"/>
<path d="M9.2362 6.58105C9.2362 6.58105 7.59701 8.75265 8.80728 8.78564C10.0176 8.81864 11.3838 8.29823 12.945 8.4602" stroke="#303030" stroke-width="0.4" stroke-miterlimit="10"/>
<path d="M9.31419 17.052C9.31419 17.052 9.11623 21.1972 14.1523 21.2722" stroke="#303030" stroke-width="0.4" stroke-miterlimit="10"/>
<path d="M25.0433 7.68328C25.0433 7.68328 23.9935 6.90642 22.4683 5.89111" stroke="#303030" stroke-width="0.4" stroke-miterlimit="10"/>
<path d="M25.0433 5.18628C25.0433 5.18628 27.2629 5.20728 28.1642 7.7538" stroke="#303030" stroke-width="0.4" stroke-miterlimit="10"/>
<path d="M27.3079 12.8722C27.3079 12.8722 26.1456 11.5015 26.765 9.33887" stroke="#303030" stroke-width="0.4" stroke-miterlimit="10"/>
<path d="M33.4357 11.4716C33.4357 11.4716 34.2726 9.37495 35.0254 8.51111" stroke="#303030" stroke-width="0.4" stroke-miterlimit="10"/>
<path d="M32.8493 13.8291C32.8493 13.8291 31.3256 11.9439 29.082 12.2544" stroke="#303030" stroke-width="0.4" stroke-miterlimit="10"/>
<path d="M32.2644 18.0282C32.2644 18.0282 32.6199 14.7933 28.5001 15.0828" stroke="#303030" stroke-width="0.4" stroke-miterlimit="10"/>
<path d="M28.5001 20.0185C28.5001 20.0185 25.8996 20.6034 24.6518 16.4867" stroke="#303030" stroke-width="0.4" stroke-miterlimit="10"/>
<path d="M24.6518 20.9737C24.6518 20.9737 25.2067 20.4248 25.5532 18.4677" stroke="#303030" stroke-width="0.4" stroke-miterlimit="10"/>
<path d="M23.3771 18.7617C23.3771 18.7617 21.3525 19.906 22.6902 22.4405" stroke="#303030" stroke-width="0.4" stroke-miterlimit="10"/>
<path d="M19.1118 18.7617C19.1118 18.7617 16.5578 20.6919 19.6113 23.9073" stroke="#303030" stroke-width="0.4" stroke-miterlimit="10"/>
<path d="M15.715 21.7745C15.715 21.7745 17.7726 21.3441 18.11 20.9736" stroke="#303030" stroke-width="0.4" stroke-miterlimit="10"/>
<path d="M15.715 16.5466C15.715 16.5466 13.8029 17.052 13.1325 14.8564" stroke="#303030" stroke-width="0.4" stroke-miterlimit="10"/>
<path d="M36.948 17.7943C36.948 17.7943 37.4249 16.6305 39.2936 16.9589" stroke="#303030" stroke-width="0.4" stroke-miterlimit="10"/>
<path d="M37.6889 24.6526C37.6889 24.6526 39.2651 20.0589 35.1993 18.0283" stroke="#303030" stroke-width="0.4" stroke-miterlimit="10"/>
<path d="M35.0239 21.7745C35.0239 21.7745 34.0191 22.5634 34.331 26.3052" stroke="#303030" stroke-width="0.4" stroke-miterlimit="10"/>
<path d="M30.9656 25.4833C30.9656 25.4833 33.0353 23.3462 30.3853 20.4728" stroke="#303030" stroke-width="0.4" stroke-miterlimit="10"/>
<path d="M29.7659 23.9071C29.7659 23.9071 28.1597 24.8924 29.139 27.2755" stroke="#303030" stroke-width="0.4" stroke-miterlimit="10"/>
<path d="M23.7565 26.3067C23.7565 26.3067 27.6543 27.0101 26.6045 22.7389" stroke="#303030" stroke-width="0.4" stroke-miterlimit="10"/>
<path d="M14.4252 6.58089C14.4252 6.58089 14.6487 6.08598 16.5293 6.24195" stroke="#303030" stroke-width="0.4" stroke-miterlimit="10"/>
<path d="M17.9196 27.8964C17.9196 27.8964 18.2795 31.1253 20.829 31.4538C20.829 31.4538 22.3603 37.7556 27.0949 37.3821C31.8295 37.0087 35.7558 33.5534 35.0989 30.8734C34.3865 27.9684 35.9117 27.2635 35.9117 27.2635C34.9909 26.9126 34.3085 26.3037 34.3085 26.3037C31.885 28.5893 29.115 27.2725 29.115 27.2725C24.1299 33.0884 19.9742 27.688 19.9742 27.688C18.8779 27.9384 17.9196 27.8949 17.9196 27.8949V27.8964Z" stroke="#303030" stroke-width="0.4" stroke-miterlimit="10"/>
</svg>
