<svg width="42" height="41" viewBox="0 0 42 41" fill="none" xmlns="http://www.w3.org/2000/svg">
<path d="M33.3633 7.98096C35.8434 11.3165 37.2776 15.97 36.643 20.6165" stroke="#303030" stroke-width="0.4" stroke-miterlimit="10"/>
<path d="M7.10899 16.5789C7.74588 11.9231 10.398 7.87861 13.6917 5.33105" stroke="#303030" stroke-width="0.4" stroke-miterlimit="10"/>
<path d="M33.3633 7.98094C31.7827 8.94325 31.9175 4.65006 23.9331 3.55758C15.9488 2.46511 14.747 6.82803 13.6615 5.28462C12.8736 4.16425 16.2742 0.0918843 24.2585 1.18436C32.2429 2.27683 34.6301 7.20924 33.3656 7.97862L33.3633 7.98094Z" stroke="#303030" stroke-width="0.4" stroke-miterlimit="10"/>
<path d="M35.009 32.5082C35.009 32.5082 34.4162 39.7325 29.3235 39.0351C24.5817 38.3866 23.5217 38.2425 23.5217 38.2425" stroke="#303030" stroke-width="0.4" stroke-miterlimit="10"/>
<path d="M35.6656 32.5932L33.9361 32.3566L35.5627 20.4664L37.2922 20.703C39.3373 20.9828 40.7729 22.8707 40.4928 24.9181L39.8803 29.395C39.6005 31.44 37.7126 32.8756 35.6653 32.5955L35.6656 32.5932Z" stroke="#303030" stroke-width="0.4" stroke-miterlimit="10"/>
<path d="M6.33442 16.4766L8.06395 16.7132L6.43731 28.6034L4.70778 28.3668C2.66275 28.087 1.22717 26.1991 1.50726 24.1518L2.11973 19.6748C2.3995 17.6298 4.28741 16.1942 6.33474 16.4743L6.33442 16.4766Z" stroke="#303030" stroke-width="0.4" stroke-miterlimit="10"/>
<path d="M22.5385 36.8825L17.8889 36.2464C17.2567 36.1599 16.6742 36.6023 16.5877 37.2344L16.571 37.3565C16.4845 37.9886 16.9269 38.5711 17.559 38.6576L22.2087 39.2937C22.8408 39.3802 23.4233 38.9379 23.5098 38.3057L23.5265 38.1837C23.613 37.5516 23.1707 36.969 22.5385 36.8825Z" stroke="#303030" stroke-width="0.4" stroke-miterlimit="10"/>
</svg>
