<svg width="41" height="42" viewBox="0 0 41 42" fill="none" xmlns="http://www.w3.org/2000/svg">
<path d="M18.0418 18.5228C17.7282 17.9489 17.4014 17.3714 17.085 16.7886L9.78934 1L1 4.4979C1 4.4979 7.91757 15.634 10.5241 21.3353C10.715 21.7531 10.9217 22.2127 11.1411 22.6942" stroke="#303030" stroke-width="0.4" stroke-miterlimit="10"/>
<path d="M10.1594 25.7761C9.55262 26.3529 8.80491 27.0612 8.48502 27.3543C7.41247 28.3372 7.92663 32.0794 8.99039 32.2687C9.41597 32.3446 9.86086 32.129 10.2614 31.7864" stroke="#303030" stroke-width="0.4" stroke-miterlimit="10"/>
<path d="M20.9694 40.207C20.2607 40.9453 19.5898 41.1834 18.6081 40.8567C17.7184 40.5605 17.6393 39.523 18.8602 37.5046C18.8602 37.5046 17.18 39.8742 15.8649 39.6412C14.3173 38.9764 13.9937 38.3436 14.6749 37.4976C15.2967 36.7247 16.1447 35.5105 16.1447 35.5105C16.1447 35.5105 14.8883 37.2662 13.2126 36.4042C11.7183 35.2778 12.2382 34.5999 13.3566 33.1418L13.3594 33.1381C13.3594 33.1381 11.3948 35.5741 10.5771 32.9045C9.40051 29.0635 10.1615 29.1469 10.5771 28.1082C10.9926 27.0694 9.80819 25.7147 9.88854 24.5286C9.96889 23.3425 11.4037 22.9098 13.2126 20.3905C14.5528 18.524 17.9631 18.7592 20.4624 18.1561C22.2457 17.7257 23.0748 16.2049 23.0748 16.2049L32.806 1.8606L39.5126 6.85783C39.5126 6.85783 30.4662 21.1046 28.9611 23.7385C28.2846 24.9226 28.1251 26.727 26.9973 29.6997" stroke="#303030" stroke-width="0.4" stroke-miterlimit="10"/>
<path d="M21.7257 37.1238L22.7575 37.9634C23.4326 38.5135 23.6069 39.4181 23.1464 39.9831L23.0041 40.158C22.5435 40.723 21.6231 40.7363 20.947 40.1862L19.9152 39.3466C19.2401 38.7965 18.6451 37.7462 18.8922 37.0466C19.1604 36.2888 20.4986 36.0914 21.7248 37.1228L21.7257 37.1238Z" stroke="#303030" stroke-width="0.4" stroke-miterlimit="10"/>
<path d="M23.9627 31.1622L27.3035 33.4218C27.8905 33.8539 27.975 34.8991 27.4494 35.4499C26.9237 36.0008 26.19 36.1623 25.6031 35.7302L22.338 33.5264C21.7511 33.0943 20.5816 31.8273 21.383 30.9029C22.0904 30.0861 23.9627 31.1622 23.9627 31.1622Z" stroke="#303030" stroke-width="0.4" stroke-miterlimit="10"/>
<path d="M22.2397 33.6917L25.4928 36.088C26.0945 36.531 26.3824 37.4264 25.9962 37.9514L25.6955 38.3594C25.3092 38.8844 24.3941 38.8394 23.7924 38.3964L20.5393 36.0001C19.9376 35.557 18.6978 34.1553 19.4131 33.263C19.821 32.7549 21.638 33.2487 22.2387 33.6917L22.2397 33.6917Z" stroke="#303030" stroke-width="0.4" stroke-miterlimit="10"/>
<path d="M26.3399 29.4371L28.3768 30.319C28.9918 30.5852 29.2754 31.3009 29.0083 31.9161L28.9097 32.1446C28.6436 32.7597 27.9279 33.0432 27.3126 32.7761L25.2757 31.8942C24.6607 31.628 23.8547 30.9877 24.0124 30.1824C24.1922 29.2629 25.7246 29.17 26.3399 29.4371Z" stroke="#303030" stroke-width="0.4" stroke-miterlimit="10"/>
</svg>
