<svg width="41" height="42" viewBox="0 0 41 42" fill="none" xmlns="http://www.w3.org/2000/svg">
<path d="M10.524 21.3353C7.91757 15.634 1 4.4979 1 4.4979L9.78934 1L17.085 16.7886C19.3749 21.006 22.2061 24.9512 16.6569 29.1757C14.6001 30.7416 12.0571 24.6888 10.524 21.3353Z" fill="#BFA687" stroke="#303030" stroke-width="0.4" stroke-miterlimit="10"/>
<path d="M8.485 27.3544C9.06547 26.8225 11.0545 24.9236 11.0545 24.9236C12.0601 23.952 12.708 26.9062 12.6299 27.7101C12.6299 27.7101 11.695 28.9125 11.6245 29.6379C11.554 30.3632 10.1948 32.4837 8.99038 32.2687C7.92662 32.0795 7.41245 28.3372 8.485 27.3544Z" fill="#BFA687" stroke="#303030" stroke-width="0.4" stroke-miterlimit="10"/>
<path d="M22.5737 38.0327C28.1603 29.6137 27.8024 25.7663 28.9611 23.7385C30.4662 21.1046 39.5126 6.85783 39.5126 6.85783L32.806 1.8606L23.0748 16.2049C23.0748 16.2049 22.2457 17.7257 20.4624 18.1561C17.9631 18.7592 14.5528 18.524 13.2126 20.3905C11.4037 22.9098 9.96889 23.3425 9.88854 24.5286C9.80819 25.7147 10.9926 27.0694 10.5771 28.1082C10.1615 29.1469 9.40051 29.0635 10.5771 32.9045C11.3948 35.5741 13.3594 33.1381 13.3594 33.1381L13.3566 33.1418C12.2382 34.5999 11.7183 35.2778 13.2126 36.4042C14.8883 37.2662 16.1447 35.5105 16.1447 35.5105C16.1447 35.5105 15.2967 36.7247 14.6749 37.4976C13.9937 38.3436 14.3173 38.9764 15.8649 39.6412C17.18 39.8742 18.9912 37.3146 18.9912 37.3146C17.7703 39.3329 17.7184 40.5605 18.6081 40.8567C20.2562 41.4052 21.0282 40.3619 22.5737 38.0327Z" fill="#E5CEAE" stroke="#303030" stroke-width="0.4" stroke-miterlimit="10"/>
<path d="M21.7257 37.1238L22.7575 37.9634C23.4326 38.5135 23.6069 39.4181 23.1464 39.9831L23.0041 40.158C22.5435 40.723 21.6231 40.7363 20.947 40.1862L19.9152 39.3466C19.2401 38.7965 18.6451 37.7462 18.8922 37.0466C19.1604 36.2888 20.4986 36.0914 21.7248 37.1228L21.7257 37.1238Z" fill="#BFA687" stroke="#303030" stroke-width="0.4" stroke-miterlimit="10"/>
<path d="M23.9627 31.1622L27.3035 33.4217C27.8905 33.8538 27.975 34.8991 27.4494 35.4499C26.9237 36.0007 26.19 36.1622 25.6031 35.7301L22.338 33.5263C21.7511 33.0942 20.5816 31.8272 21.383 30.9028C22.0904 30.0861 23.9627 31.1622 23.9627 31.1622Z" fill="#BFA687" stroke="#303030" stroke-width="0.4" stroke-miterlimit="10"/>
<path d="M22.2397 33.6917L25.4928 36.088C26.0945 36.531 26.3824 37.4264 25.9962 37.9514L25.6955 38.3594C25.3092 38.8844 24.3941 38.8394 23.7924 38.3964L20.5393 36.0001C19.9376 35.557 18.6978 34.1553 19.4131 33.263C19.821 32.7549 21.638 33.2487 22.2387 33.6917L22.2397 33.6917Z" fill="#BFA687" stroke="#303030" stroke-width="0.4" stroke-miterlimit="10"/>
<path d="M26.3399 29.437L28.3768 30.319C28.9918 30.5851 29.2754 31.3008 29.0083 31.9161L28.9097 32.1445C28.6436 32.7596 27.9279 33.0432 27.3126 32.7761L25.2757 31.8941C24.6607 31.628 23.8547 30.9877 24.0124 30.1824C24.1922 29.2628 25.7246 29.1699 26.3399 29.437Z" fill="#BFA687" stroke="#303030" stroke-width="0.4" stroke-miterlimit="10"/>
</svg>
