<svg width="15" height="42" viewBox="0 0 15 42" fill="none" xmlns="http://www.w3.org/2000/svg">
<g clip-path="url(#clip0_394_354)">
<path d="M2.8446 8.85345C2.68762 8.08039 1.94495 2.83944 1.88924 2.4816C1.81835 2.02249 1.56179 1.87564 1.3508 1.94654C1.13981 2.01743 0.950769 2.18284 1.01153 2.65714C1.0588 3.02004 1.64619 8.95641 1.68332 9.3345C1.72045 9.71259 2.11542 11.7381 3.54677 12.4419C4.21349 12.7694 5.32245 12.9888 6.31493 12.8504C7.30742 12.712 8.10749 12.3677 8.69488 11.8478C9.24514 11.36 9.53377 10.7945 9.72788 10.1498C9.93212 9.4746 9.89498 8.59689 9.77852 7.87446C9.53884 6.37054 9.00208 3.37957 8.65437 1.56676C8.5531 1.03844 8.26784 0.957422 8.08724 1.0165C7.83405 1.09752 7.67876 1.25787 7.82899 2.2031C8.08386 3.93658 8.38937 6.32159 8.59698 8.023C8.73708 9.16909 8.60036 10.0738 7.41376 10.143C6.33519 10.2055 6.28286 9.04925 6.13433 8.06857C5.98579 7.08959 5.20598 1.71192 5.20598 1.71192C5.20598 1.71192 5.15028 1.08739 4.67598 1.1701C4.37722 1.22242 4.18649 1.39628 4.24387 1.84526C4.28607 2.17778 5.1891 8.70998 5.27856 9.35644C5.39503 10.2038 4.63716 10.6004 3.84215 10.4418C3.15855 10.305 2.96444 9.43578 2.84629 8.85682L2.8446 8.85345Z" stroke="#303030" stroke-width="0.4" stroke-miterlimit="10"/>
<path d="M5.20091 12.869C5.20091 12.869 5.98578 12.9298 6.51072 12.8217C7.06604 12.7087 7.59098 12.5162 7.59098 12.5162C7.59098 12.5162 9.87641 30.2595 10.1093 32.0774C10.1482 32.3728 10.3068 34.0624 10.636 34.6025C11.0985 35.3604 12.8859 38.2382 12.8859 38.2382L10.9938 38.5218C10.9398 38.4425 10.403 36.8828 9.67892 36.9335C8.95481 36.9841 8.8586 38.8661 8.8586 38.8661L6.85505 39.1885C6.85505 39.1885 7.9235 35.6692 8.20032 34.8996C8.41806 34.2919 8.2172 32.9281 8.1193 32.2158C7.91844 30.7625 5.20091 12.869 5.19922 12.8673L5.20091 12.869Z" stroke="#303030" stroke-width="0.4" stroke-miterlimit="10"/>
<path d="M13.0033 38.2196L6.71901 39.2094C6.57904 39.2314 6.48345 39.3627 6.50549 39.5027L6.70138 40.7466C6.72343 40.8865 6.85477 40.9821 6.99474 40.9601L13.279 39.9704C13.419 39.9483 13.5146 39.817 13.4925 39.677L13.2966 38.4332C13.2746 38.2932 13.1432 38.1976 13.0033 38.2196Z" stroke="#303030" stroke-width="0.4" stroke-miterlimit="10"/>
</g>
<defs>
<clipPath id="clip0_394_354">
<rect width="14.5324" height="42" fill="white"/>
</clipPath>
</defs>
</svg>
