<svg width="42" height="26" viewBox="0 0 42 26" fill="none" xmlns="http://www.w3.org/2000/svg">
<g clip-path="url(#clip0_497_38)">
<path d="M40.4999 9.95282L35.8993 1.98431C35.6232 1.506 35.0115 1.34211 34.5332 1.61827L32.1373 3.00153C31.659 3.27769 31.4951 3.88931 31.7713 4.36762L36.3719 12.3361C36.6481 12.8144 37.2597 12.9783 37.738 12.7022L40.1339 11.3189C40.6122 11.0427 40.7761 10.4311 40.4999 9.95282Z" stroke="#303030" stroke-width="0.4" stroke-miterlimit="10"/>
<path d="M5.71836 12.3342L10.359 4.30021C10.6352 3.82195 10.4714 3.21045 9.99301 2.9344L7.50722 1.4999C7.02885 1.22384 6.41711 1.38776 6.14085 1.86602L1.50024 9.90002C1.22399 10.3783 1.38784 10.9898 1.86621 11.2658L4.35199 12.7003C4.83036 12.9764 5.44211 12.8125 5.71836 12.3342Z" stroke="#303030" stroke-width="0.4" stroke-miterlimit="10"/>
<path d="M18.613 23.0566C21.2884 24.1513 23.5287 25.5194 24.5355 24.2532C25.1775 23.4454 23.936 22.4563 20.7802 20.6757C20.7802 20.6757 26.2727 23.5176 27.479 22.4626C28.6384 21.4491 26.745 20.4175 25.9143 19.8733C25.1558 19.3761 23.0041 17.8707 23.0041 17.8707C23.0041 17.8707 28.6799 21.5069 29.8953 20.2858C31.1991 18.9753 29.3029 18.0331 28.5896 17.5584C27.8763 17.0837 24.6673 14.7832 24.6673 14.7832C24.6673 14.7832 30.5083 19.4564 32.6275 17.9104C34.1923 16.7687 30.707 14.7336 29.8302 14.2083C26.0046 11.9142 22.3017 8.68415 20.271 7.18691M16.1853 5.98881C15.7737 5.95053 15.319 5.90472 14.8056 5.83677C12.1122 5.48028 11.1226 4.37202 11.1226 4.37202L6.21158 12.962C6.21158 12.962 7.49806 14.2363 9.28901 15.8875M11.2392 17.6487C11.3499 17.7465 11.4882 17.8673 11.6351 17.9949M13.6582 19.7118C13.8119 19.8375 13.9652 19.9618 14.118 20.0844" stroke="#303030" stroke-width="0.4" stroke-miterlimit="10"/>
<path d="M32.9029 15.3753C35.5458 13.3609 35.7643 12.7427 35.7643 12.7427L30.9977 4.42435C30.9977 4.42435 29.7273 5.17432 26.773 4.57777C23.8484 3.98754 22.6936 3.63105 17.7491 4.62199C17.3744 4.6969 17.0376 4.90267 16.8002 5.2023C16.2864 5.84849 15.2589 7.23382 13.695 9.74999C13.695 9.74999 13.063 10.7834 14.3839 10.6687C15.7049 10.5541 18.2313 8.71753 18.5762 7.91341C18.7989 7.39428 20.0374 6.99648 20.271 7.1878C28.3226 13.7812 31.3849 15.0291 32.2275 15.8437M32.9029 15.3753C32.6885 15.524 32.2275 15.8437 32.2275 15.8437M32.9029 15.3753L32.2275 15.8437" stroke="#303030" stroke-width="0.4" stroke-miterlimit="10"/>
<path d="M11.3167 17.5449L10.5546 18.4925C10.0553 19.1125 9.22914 19.2768 8.70996 18.8589L8.54924 18.7298C8.03006 18.312 8.0129 17.4709 8.51222 16.8499L9.27429 15.9023C9.7736 15.2823 10.7307 14.7327 11.3718 14.9547C12.0661 15.1957 12.2539 16.4176 11.3176 17.544L11.3167 17.5449Z" stroke="#303030" stroke-width="0.4" stroke-miterlimit="10"/>
<path d="M17.0593 20.515L15.2616 22.9861C14.8697 23.5248 13.9144 23.6079 13.4079 23.1305C12.9014 22.653 12.7497 21.9834 13.1415 21.4446L14.8887 19.043C15.2806 18.5042 16.4327 17.4285 17.2823 18.1559C17.7889 18.5891 17.4521 19.9744 17.0602 20.5141L17.0593 20.515Z" stroke="#303030" stroke-width="0.4" stroke-miterlimit="10"/>
<path d="M14.6539 18.331L12.4805 21.3173C12.0787 21.8697 11.2616 22.1377 10.7794 21.7875L10.4047 21.515C9.92256 21.1648 9.95868 20.3282 10.3605 19.7759L12.5338 16.7895C12.9356 16.2372 14.2105 15.0964 15.0304 15.7453C15.4972 16.1153 15.0557 17.7786 14.6539 18.3301V18.331Z" stroke="#303030" stroke-width="0.4" stroke-miterlimit="10"/>
<path d="M19.0069 22.6557L17.8133 24.2965C17.453 24.792 16.7577 24.9021 16.262 24.5411L16.0778 24.4075C15.5821 24.0474 15.472 23.3525 15.8332 22.857L17.0268 21.2163C17.3871 20.7208 18.1194 20.1296 18.8065 20.4311C19.5911 20.7749 19.3681 22.1603 19.0069 22.6557Z" stroke="#303030" stroke-width="0.4" stroke-miterlimit="10"/>
</g>
<defs>
<clipPath id="clip0_497_38">
<rect width="41.998" height="25.76" fill="white"/>
</clipPath>
</defs>
</svg>
