<svg width="42" height="33" viewBox="0 0 42 33" fill="none" xmlns="http://www.w3.org/2000/svg">
<path d="M3.35572 12.821C3.43677 12.629 3.6699 12.4463 4.06634 12.2896C4.45319 12.1368 4.9517 12.0264 5.49118 11.947C6.56853 11.7884 7.77028 11.7606 8.48371 11.7528C10.2517 11.7336 12.4339 11.63 15.501 11.6704C16.5759 11.6845 17.8091 11.6194 18.8722 11.5935C19.4069 11.5805 19.8996 11.5771 20.3162 11.5983C20.7377 11.6197 21.0627 11.6651 21.2712 11.7404C21.7432 11.9109 22.2881 12.1258 22.8722 12.3548C23.455 12.5832 24.0756 12.8252 24.6947 13.049C25.9268 13.4945 27.1782 13.8772 28.1308 13.9273C29.8697 14.0186 31.5738 13.9044 33.3549 13.7414C35.1021 13.5814 36.9197 13.3761 38.9334 13.2649C38.9849 13.3785 39.0325 13.5272 39.0706 13.711C39.121 13.9541 39.1553 14.2459 39.1731 14.5738C39.2089 15.2301 39.1788 16.0177 39.0922 16.8203C39.0056 17.6226 38.8632 18.4354 38.6755 19.1428C38.4977 19.8131 38.2822 20.3728 38.0464 20.7413C38.0222 20.7451 37.9916 20.7516 37.953 20.7556C37.8699 20.7642 37.7631 20.7715 37.6349 20.7777C37.3785 20.7901 37.0438 20.7975 36.6548 20.8016C35.8765 20.81 34.89 20.8057 33.8922 20.8059C32.8958 20.806 31.8885 20.8111 31.0743 20.8369C30.6673 20.8499 30.3057 20.8677 30.0166 20.8939C29.7362 20.9192 29.4994 20.9542 29.3585 21.0081C28.9908 21.1489 28.7397 21.286 28.551 21.427C28.3613 21.5686 28.2422 21.7083 28.1362 21.8366C28.0303 21.9647 27.9416 22.0763 27.8026 22.1928C27.6645 22.3085 27.4706 22.4342 27.1582 22.5708C26.2843 22.953 25.0697 23.1643 23.8255 23.3424C22.5961 23.5184 21.3343 23.6618 20.4155 23.9149C19.5415 24.1556 18.8899 24.1556 18.2883 24.0953C17.6977 24.0362 17.0951 23.9079 16.407 23.9079C15.7656 23.9079 15.3678 23.7349 15.1322 23.5172C14.8966 23.2996 14.8011 23.0175 14.801 22.7538C14.801 22.6471 14.8449 22.5194 14.923 22.3739C15.0003 22.2299 15.0988 22.0911 15.1911 21.9569C15.2357 21.892 15.2803 21.826 15.316 21.7654C15.3497 21.708 15.3858 21.6381 15.4016 21.5671C15.4182 21.4922 15.419 21.3722 15.3183 21.2829C15.2369 21.2108 15.1299 21.1998 15.0531 21.1998C14.6142 21.1998 14.2063 21.1356 13.9142 20.9619C13.6393 20.7982 13.4472 20.5268 13.4472 20.0458C13.4472 19.6185 13.7973 19.3346 14.2033 19.0695C14.2964 19.0087 14.3981 18.9439 14.4826 18.887C14.5681 18.8295 14.6536 18.7673 14.7204 18.7012C14.7845 18.6377 14.8569 18.546 14.871 18.4264C14.8867 18.2937 14.8264 18.1824 14.7427 18.0988C14.6073 17.9634 14.4437 17.8676 14.282 17.7867C14.2008 17.7461 14.1163 17.707 14.0342 17.6695C13.951 17.6314 13.8688 17.5944 13.7878 17.5538C13.4677 17.3938 13.1731 17.1929 12.975 16.7968C12.8802 16.607 12.8632 16.4427 12.8921 16.2993C12.9216 16.1532 13.0019 16.0117 13.1272 15.8781C13.3814 15.6071 13.796 15.3956 14.2072 15.2732C14.3652 15.2261 14.5866 15.165 14.7441 15.1176C14.8289 15.092 14.9095 15.0656 14.9788 15.0404C15.0449 15.0163 15.1132 14.9883 15.165 14.9561C15.1887 14.9413 15.2282 14.9144 15.2582 14.8716C15.2746 14.8482 15.2939 14.8131 15.2994 14.7671C15.3053 14.7179 15.2939 14.6704 15.2712 14.6307C15.2322 14.5626 15.1684 14.5334 15.1405 14.5219C15.1049 14.5072 15.0655 14.4971 15.0272 14.4899C14.8777 14.4614 14.6107 14.4476 14.196 14.4476C13.3737 14.4476 12.1331 14.3319 10.7443 14.2141C9.36198 14.0969 7.84068 13.979 6.47718 13.979C5.24246 13.979 4.35185 13.8524 3.82529 13.6272C3.56268 13.5148 3.41517 13.3887 3.34795 13.2658C3.28604 13.1525 3.27527 13.0116 3.35572 12.821Z" fill="#ECDBC2" stroke="#303030" stroke-width="0.4"/>
</svg>
