<svg width="33" height="42" viewBox="0 0 33 42" fill="none" xmlns="http://www.w3.org/2000/svg">
<path d="M9.39519 3.2065C9.7436 3.11964 10.1132 3.33902 10.4919 3.81197C10.7679 4.15679 11.0167 4.59806 11.2246 5.03131L11.4181 5.45832C11.9353 6.67082 14.8732 13.2846 15.2689 14.0283C15.3535 14.1871 15.4921 14.3235 15.6544 14.4067C15.8177 14.4903 16.0193 14.5267 16.2179 14.46C16.6256 14.3228 16.8671 13.8232 16.8672 12.9572C16.8672 12.0866 16.6821 10.4828 16.4995 8.99086C16.4077 8.24133 16.3156 7.5177 16.247 6.91923C16.1778 6.31619 16.1337 5.85453 16.1337 5.62389C16.1337 5.12566 16.1196 4.60421 16.2248 4.19107C16.2765 3.98848 16.3528 3.83007 16.4597 3.71981C16.5626 3.61378 16.7068 3.53882 16.9225 3.52121C17.1814 3.50006 17.3822 3.55635 17.545 3.66014C17.7108 3.76592 17.8495 3.92865 17.9664 4.13766C18.144 4.45514 18.2591 4.85452 18.3466 5.25786L18.4263 5.66059C18.5819 6.48382 18.7377 7.58896 18.9046 8.72368C19.071 9.85456 19.2488 11.0146 19.4464 11.9368C19.5476 12.4084 19.625 13.0217 19.7208 13.6776C19.8158 14.327 19.9276 15.0127 20.0956 15.6064C20.2613 16.1922 20.4919 16.7278 20.8489 17.0406C21.0328 17.2017 21.2522 17.305 21.5075 17.3228C21.6966 17.3359 21.8962 17.3013 22.1062 17.2207L22.3202 17.1244C22.8365 16.8591 23.1015 16.4662 23.2925 16.0544C23.3859 15.853 23.4653 15.6388 23.5443 15.4396C23.625 15.2365 23.7083 15.0418 23.8147 14.8572C24.5863 13.5147 25.557 12.3689 26.9892 12.232C27.5759 12.1754 27.8059 12.3156 27.8956 12.4642C27.9982 12.6346 27.9909 12.9225 27.8668 13.3099C27.6244 14.0661 27.0169 14.9568 26.7465 15.3336C26.5956 15.544 26.4075 15.9402 26.218 16.4411C26.0262 16.948 25.8268 17.5788 25.6572 18.2699C25.3189 19.6481 25.0931 21.2879 25.2974 22.6727C25.3887 23.2957 25.1569 24.078 24.9085 24.7992C24.788 25.1489 24.6631 25.4881 24.5855 25.7623C24.5465 25.9002 24.5159 26.0324 24.505 26.149C24.4947 26.2601 24.4991 26.3889 24.5588 26.4977C25.0552 27.4013 26.3031 29.523 26.7917 30.4682C27.2884 31.4289 28.1446 32.6471 28.8972 33.7053C29.2755 34.2373 29.6279 34.7292 29.9016 35.1343C30.0383 35.3366 30.1534 35.5153 30.2416 35.6644C30.3006 35.764 30.3432 35.8464 30.3731 35.9108C30.2935 36.0166 30.1759 36.1366 30.0177 36.2661C29.8201 36.4279 29.5697 36.5982 29.2794 36.7706C28.6989 37.1151 27.9681 37.462 27.1966 37.7645C26.4252 38.067 25.6173 38.3235 24.8842 38.4889C24.1876 38.6461 23.5739 38.7154 23.1254 38.6751C23.1102 38.6546 23.0894 38.629 23.0671 38.5953C23.0197 38.5237 22.963 38.4297 22.8964 38.316C22.7633 38.0885 22.5968 37.7874 22.4081 37.4353C22.0307 36.731 21.5658 35.8314 21.0916 34.9235C20.6181 34.017 20.136 33.1027 19.7256 32.3741C19.5205 32.01 19.3321 31.6896 19.1711 31.4391C19.0147 31.1958 18.8711 30.9971 18.7557 30.895C18.661 30.8112 18.5128 30.7346 18.348 30.6656C18.1778 30.5943 17.97 30.5235 17.7414 30.459C17.2844 30.33 16.7308 30.2209 16.1991 30.176L16.1792 30.1743L16.1783 30.1744C15.8333 30.1417 15.4203 29.9879 14.9486 29.7208C14.472 29.451 13.9484 29.0742 13.3927 28.6176C12.2812 27.7042 11.0562 26.4849 9.83645 25.201C8.61556 23.9158 7.41085 22.5764 6.32919 21.415C5.388 20.4045 4.53765 19.5265 3.86665 18.9552L3.59008 18.7294C3.3072 18.511 2.9785 18.1669 2.83018 17.7953C2.75746 17.6128 2.731 17.4315 2.76645 17.257C2.79284 17.1275 2.85529 16.9906 2.97356 16.8519L3.11185 16.7121C3.44371 16.4187 3.83568 16.4426 4.2537 16.6234C4.67688 16.8064 5.07138 17.1291 5.35439 17.3493C5.62116 17.557 6.51252 18.397 7.44559 19.263C7.90871 19.6928 8.37936 20.1259 8.77982 20.4821C9.17606 20.8346 9.51572 21.1224 9.71275 21.2538L9.72238 21.2606L9.73383 21.2661C10.0562 21.4273 10.4074 21.3521 10.6273 21.1459C10.8552 20.9322 10.9354 20.5828 10.7258 20.248C10.5656 19.9922 8.92888 17.5986 7.33815 15.2776C6.54146 14.1151 5.75489 12.9681 5.16715 12.1119C4.87324 11.6837 4.62855 11.328 4.45791 11.0796C4.37275 10.9555 4.30629 10.8579 4.26071 10.7916C4.2379 10.7584 4.21958 10.7332 4.20781 10.7161C4.20193 10.7075 4.19767 10.7003 4.19468 10.6959C4.19333 10.694 4.19192 10.6924 4.19122 10.6914L4.19002 10.6896C4.18897 10.6879 4.18782 10.6856 4.18633 10.6831C4.18089 10.6741 4.17321 10.6599 4.16289 10.6416C4.14215 10.6048 4.11232 10.5508 4.08079 10.4829C4.0173 10.3463 3.94575 10.1591 3.90783 9.95231C3.86988 9.74525 3.86791 9.52632 3.93359 9.32025C3.99816 9.11803 4.1319 8.91531 4.38897 8.74013L4.38994 8.74002C4.66431 8.55258 4.90626 8.5138 5.12564 8.55533C5.35292 8.59838 5.57897 8.73176 5.80382 8.93163C6.26179 9.33873 6.63921 9.94374 6.97466 10.3887C7.12327 10.5857 7.46094 11.045 7.89615 11.6345C8.3306 12.223 8.86133 12.9389 9.39402 13.6458C9.92646 14.3523 10.4619 15.0514 10.9066 15.6053C11.1288 15.8821 11.3293 16.1249 11.4961 16.3142C11.6589 16.4987 11.8017 16.6462 11.9038 16.7225C12.0775 16.8524 12.2451 16.9545 12.3964 17.0149C12.5375 17.0712 12.7113 17.1107 12.8625 17.042C13.0393 16.9616 13.0946 16.7828 13.0936 16.6154C13.0926 16.4487 13.0392 16.2396 12.9425 15.9919C12.6415 15.2211 11.6801 12.9833 10.7579 10.7891C10.2959 9.68989 9.84289 8.59968 9.48594 7.70596C9.12657 6.80619 8.87007 6.12026 8.79465 5.81936C8.61544 5.1 8.56763 4.48228 8.66847 4.02615C8.75427 3.63849 8.94259 3.37799 9.25397 3.2522L9.39519 3.2065Z" fill="#F2E8DA" stroke="#303030" stroke-width="0.4"/>
</svg>
