<svg width="42" height="26" viewBox="0 0 42 26" fill="none" xmlns="http://www.w3.org/2000/svg">
<g clip-path="url(#clip0_497_39)">
<path d="M40.5 9.95481L35.8982 1.98425C35.622 1.50595 35.0104 1.34207 34.5321 1.61822L32.136 3.00163C31.6577 3.27778 31.4938 3.88938 31.77 4.36768L36.3718 12.3382C36.6479 12.8165 37.2595 12.9804 37.7378 12.7043L40.134 11.3209C40.6123 11.0447 40.7761 10.4331 40.5 9.95481Z" fill="#76C69D" stroke="#303030" stroke-width="0.4" stroke-miterlimit="10"/>
<path d="M5.71807 12.3376L10.3588 4.30091C10.635 3.82263 10.4711 3.21107 9.99277 2.93495L7.50692 1.49997C7.0286 1.22385 6.41696 1.38774 6.14079 1.86602L1.50008 9.90273C1.2239 10.381 1.38777 10.9926 1.86609 11.2687L4.35193 12.7037C4.83025 12.9798 5.44189 12.8159 5.71807 12.3376Z" fill="#BED5E8" stroke="#303030" stroke-width="0.4" stroke-miterlimit="10"/>
<path d="M6.21139 12.9654C6.21139 12.9654 14.8431 21.5181 18.5151 23.0212C21.1904 24.1162 23.528 25.5263 24.5347 24.2598C25.1767 23.4518 23.9352 22.4624 20.7796 20.6812C20.7796 20.6812 26.2719 23.524 27.4782 22.4687C28.6375 21.4549 26.7441 20.4231 25.9135 19.8787C25.155 19.3813 23.0034 17.8755 23.0034 17.8755C23.0034 17.8755 28.679 21.5127 29.8943 20.2913C31.1981 18.9805 29.302 18.038 28.5887 17.5631C27.8754 17.0883 24.6666 14.7871 24.6666 14.7871C24.6666 14.7871 30.5074 19.4616 32.6265 17.9152C34.1912 16.7732 30.706 14.7375 29.8293 14.2121C26.0037 11.9173 22.301 8.68631 20.2704 7.18864C18.5792 5.94193 17.4985 6.1947 14.8051 5.83811C12.1118 5.48152 11.1222 4.37294 11.1222 4.37294L6.21139 12.9654Z" fill="#ECDBC2" stroke="#303030" stroke-width="0.4" stroke-miterlimit="10"/>
<path d="M30.9968 4.42531C30.9968 4.42531 29.7264 5.1755 26.7721 4.57877C23.8476 3.98837 22.6928 3.63178 17.7486 4.62301C17.3739 4.69794 17.0371 4.90377 16.7996 5.20348C16.2859 5.84986 15.2584 7.23559 13.6946 9.75247C13.6946 9.75247 13.0626 10.7861 14.3835 10.6715C15.7044 10.5568 18.2307 8.71972 18.5756 7.91536C18.7983 7.39609 20.0367 6.99817 20.2704 7.18955C28.3218 13.7849 31.3839 15.0331 32.2265 15.8479C32.2265 15.8479 32.6875 15.5281 32.9019 15.3794C35.5446 13.3644 35.7631 12.746 35.7631 12.746L30.9968 4.42531Z" fill="#BFA687"/>
<path d="M32.9019 15.3794C35.5446 13.3644 35.7631 12.746 35.7631 12.746L30.9968 4.42531C30.9968 4.42531 29.7264 5.1755 26.7721 4.57877C23.8476 3.98837 22.6928 3.63178 17.7486 4.62301C17.3739 4.69794 17.0371 4.90377 16.7996 5.20348C16.2859 5.84986 15.2584 7.23559 13.6946 9.75247C13.6946 9.75247 13.0626 10.7861 14.3835 10.6715C15.7044 10.5568 18.2307 8.71972 18.5756 7.91536C18.7983 7.39609 20.0367 6.99817 20.2704 7.18955C28.3218 13.7849 31.3839 15.0331 32.2265 15.8479M32.9019 15.3794C32.6875 15.5281 32.2265 15.8479 32.2265 15.8479M32.9019 15.3794L32.2265 15.8479" stroke="#303030" stroke-width="0.4" stroke-miterlimit="10"/>
<path d="M11.3163 17.55L10.5543 18.498C10.055 19.1183 9.22885 19.2826 8.70968 18.8646L8.54897 18.7355C8.0298 18.3174 8.01265 17.4759 8.51195 16.8548L9.27399 15.9067C9.77329 15.2864 10.7304 14.7366 11.3714 14.9587C12.0657 15.1998 12.2535 16.4223 11.3172 17.5491L11.3163 17.55Z" fill="#BFA687" stroke="#303030" stroke-width="0.4" stroke-miterlimit="10"/>
<path d="M17.0588 20.521L15.2611 22.9931C14.8693 23.5321 13.914 23.6152 13.4075 23.1375C12.9009 22.6599 12.7493 21.99 13.1411 21.4509L14.8882 19.0483C15.2801 18.5093 16.4322 17.4331 17.2818 18.1608C17.7883 18.5942 17.4515 19.9801 17.0597 20.5201L17.0588 20.521Z" fill="#BFA687" stroke="#303030" stroke-width="0.4" stroke-miterlimit="10"/>
<path d="M14.6534 18.3363L12.4802 21.324C12.0784 21.8766 11.2612 22.1447 10.7791 21.7944L10.4044 21.5217C9.92225 21.1714 9.95837 20.3344 10.3602 19.7818L12.5334 16.7942C12.9352 16.2416 14.2101 15.1003 15.0299 15.7495C15.4967 16.1197 15.0552 17.7837 14.6534 18.3354V18.3363Z" fill="#BFA687" stroke="#303030" stroke-width="0.4" stroke-miterlimit="10"/>
<path d="M19.0063 22.6622L17.8127 24.3037C17.4524 24.7994 16.7572 24.9096 16.2615 24.5484L16.0773 24.4148C15.5817 24.0545 15.4715 23.3593 15.8327 22.8636L17.0263 21.2221C17.3865 20.7264 18.1188 20.135 18.8059 20.4366C19.5905 20.7806 19.3675 22.1666 19.0063 22.6622Z" fill="#BFA687" stroke="#303030" stroke-width="0.4" stroke-miterlimit="10"/>
</g>
<defs>
<clipPath id="clip0_497_39">
<rect width="41.9994" height="25.7607" fill="white"/>
</clipPath>
</defs>
</svg>
