<svg width="30" height="42" viewBox="0 0 30 42" fill="none" xmlns="http://www.w3.org/2000/svg">
<path d="M19.7827 35.1781C19.7827 35.1781 19.9583 31.7078 21.5854 30.9381C23.4826 30.0418 23.9805 30.2309 25.3883 29.4797C25.3883 29.4797 25.2093 32.5703 23.7375 33.3805C21.6968 34.5029 20.9085 34.4574 19.7844 35.1781H19.7827Z" stroke="#303030" stroke-width="0.4" stroke-miterlimit="10"/>
<path d="M19.1329 35.0852C19.1329 35.0852 19.9296 31.7026 18.5793 30.5126C17.0061 29.1252 16.4745 29.1674 15.3317 28.0551C15.3317 28.0551 14.6448 31.0747 15.8347 32.2613C17.4838 33.9053 18.2535 34.0826 19.1329 35.0852Z" stroke="#303030" stroke-width="0.4" stroke-miterlimit="10"/>
<path d="M20.49 30.4638C20.49 30.4638 20.6655 26.9934 22.2927 26.2237C24.1899 25.3275 24.6878 25.5165 26.0955 24.7654C26.0955 24.7654 25.9166 27.8559 24.4448 28.6661C22.4041 29.7886 21.6158 29.743 20.4917 30.4638H20.49Z" stroke="#303030" stroke-width="0.4" stroke-miterlimit="10"/>
<path d="M19.8401 30.3708C19.8401 30.3708 20.6367 26.9883 19.2864 25.7983C17.7133 24.4108 17.1816 24.453 16.0389 23.3407C16.0389 23.3407 15.3519 26.3604 16.5419 27.547C18.191 29.191 18.9607 29.3682 19.8401 30.3708Z" stroke="#303030" stroke-width="0.4" stroke-miterlimit="10"/>
<path d="M21.1094 25.7156C21.1094 25.7156 21.285 22.2452 22.9121 21.4756C24.8093 20.5793 25.3073 20.7683 26.715 20.0172C26.715 20.0172 26.5361 23.1078 25.0642 23.918C23.0235 25.0404 22.2353 24.9948 21.1111 25.7156H21.1094Z" stroke="#303030" stroke-width="0.4" stroke-miterlimit="10"/>
<path d="M20.4613 25.6245C20.4613 25.6245 21.258 22.2419 19.9076 21.052C18.3345 19.6645 17.8028 19.7067 16.6601 18.5944C16.6601 18.5944 15.9731 21.614 17.1631 22.8006C18.8122 24.4446 19.5819 24.6219 20.4613 25.6245Z" stroke="#303030" stroke-width="0.4" stroke-miterlimit="10"/>
<path d="M21.766 21.0132C21.766 21.0132 21.9415 17.5429 23.5687 16.7732C25.4659 15.8769 25.9638 16.0659 27.3715 15.3148C27.3715 15.3148 27.1926 18.4054 25.7208 19.2156C23.6801 20.338 22.8918 20.2925 21.7677 21.0132H21.766Z" stroke="#303030" stroke-width="0.4" stroke-miterlimit="10"/>
<path d="M21.1162 20.9203C21.1162 20.9203 21.9129 17.5377 20.5625 16.3477C18.9894 14.9603 18.4577 15.0025 17.315 13.8901C17.315 13.8901 16.628 16.9098 17.818 18.0964C19.4671 19.7404 20.2368 19.9176 21.1162 20.9203Z" stroke="#303030" stroke-width="0.4" stroke-miterlimit="10"/>
<path d="M22.421 16.3375C22.421 16.3375 22.5965 12.8672 24.2236 12.0975C26.1208 11.2012 26.6188 11.3903 28.0265 10.6392C28.0265 10.6392 27.8476 13.7297 26.3757 14.5399C24.335 15.6624 23.5468 15.6168 22.4226 16.3375H22.421Z" stroke="#303030" stroke-width="0.4" stroke-miterlimit="10"/>
<path d="M21.7711 16.2447C21.7711 16.2447 22.5678 12.8622 21.2175 11.6722C19.6443 10.2847 19.1126 10.3269 17.9699 9.2146C17.9699 9.2146 17.2829 12.2343 18.4729 13.4209C20.122 15.0649 20.8917 15.2421 21.7711 16.2447Z" stroke="#303030" stroke-width="0.4" stroke-miterlimit="10"/>
<path d="M23.0049 11.8747C23.0049 11.8747 22.9999 9.20279 24.1055 8.52931C25.395 7.74275 25.7478 7.86259 26.7015 7.21106C26.7015 7.21106 26.6896 9.59101 25.6938 10.2898C24.3131 11.257 23.7628 11.2637 23.0049 11.8747Z" stroke="#303030" stroke-width="0.4" stroke-miterlimit="10"/>
<path d="M22.3855 11.7903C22.3855 11.7903 23.14 9.22805 22.2673 8.27101C21.2512 7.1553 20.8782 7.17049 20.1456 6.27759C20.1456 6.27759 19.489 8.5647 20.2503 9.51499C21.3035 10.8299 21.8318 10.9919 22.3855 11.7903Z" stroke="#303030" stroke-width="0.4" stroke-miterlimit="10"/>
<path d="M24.2557 2.54236C24.2557 2.54236 22.8378 3.59224 22.5982 5.28689C22.3585 6.98155 23.1265 8.29643 23.1265 8.29643C23.1265 8.29643 24.5848 7.59426 24.8616 5.6768C25.0709 4.22858 24.6 3.21415 24.254 2.54236H24.2557Z" stroke="#303030" stroke-width="0.4" stroke-miterlimit="10"/>
<path d="M2.8446 8.85345C2.68762 8.08039 1.94495 2.83944 1.88924 2.4816C1.81835 2.02249 1.56179 1.87564 1.3508 1.94654C1.13981 2.01743 0.950769 2.18284 1.01153 2.65714C1.0588 3.02004 1.64619 8.95641 1.68332 9.3345C1.72045 9.71259 2.11542 11.7381 3.54677 12.4419C4.21349 12.7694 5.32245 12.9888 6.31493 12.8504C7.30742 12.712 8.10749 12.3677 8.69488 11.8478C9.24514 11.36 9.53377 10.7945 9.72788 10.1498C9.93212 9.4746 9.89498 8.59689 9.77852 7.87446C9.53884 6.37054 9.00208 3.37957 8.65437 1.56676C8.5531 1.03844 8.26784 0.957422 8.08724 1.0165C7.83405 1.09752 7.67876 1.25787 7.82899 2.2031C8.08386 3.93658 8.38937 6.32159 8.59698 8.023C8.73708 9.16909 8.60036 10.0738 7.41376 10.143C6.33519 10.2055 6.28286 9.04925 6.13433 8.06857C5.98579 7.08959 5.20598 1.71192 5.20598 1.71192C5.20598 1.71192 5.15028 1.08739 4.67598 1.1701C4.37722 1.22242 4.18649 1.39628 4.24387 1.84526C4.28607 2.17778 5.1891 8.70998 5.27856 9.35644C5.39503 10.2038 4.63716 10.6004 3.84215 10.4418C3.15855 10.305 2.96444 9.43578 2.84629 8.85682L2.8446 8.85345Z" stroke="#303030" stroke-width="0.4" stroke-miterlimit="10"/>
<path d="M5.20091 12.869C5.20091 12.869 5.98578 12.9298 6.51072 12.8217C7.06604 12.7087 7.59098 12.5162 7.59098 12.5162C7.59098 12.5162 9.87641 30.2595 10.1093 32.0774C10.1482 32.3728 10.3068 34.0624 10.636 34.6025C11.0985 35.3604 12.8859 38.2382 12.8859 38.2382L10.9938 38.5218C10.9398 38.4425 10.403 36.8828 9.67892 36.9335C8.95481 36.9841 8.8586 38.8661 8.8586 38.8661L6.85505 39.1885C6.85505 39.1885 7.9235 35.6692 8.20032 34.8996C8.41806 34.2919 8.2172 32.9281 8.1193 32.2158C7.91844 30.7625 5.20091 12.869 5.19922 12.8673L5.20091 12.869Z" stroke="#303030" stroke-width="0.4" stroke-miterlimit="10"/>
<path d="M13.0033 38.2196L6.71901 39.2094C6.57904 39.2314 6.48345 39.3627 6.50549 39.5027L6.70138 40.7466C6.72343 40.8865 6.85477 40.9821 6.99474 40.9601L13.279 39.9704C13.419 39.9483 13.5146 39.817 13.4925 39.677L13.2966 38.4332C13.2746 38.2932 13.1432 38.1976 13.0033 38.2196Z" stroke="#303030" stroke-width="0.4" stroke-miterlimit="10"/>
</svg>
