<svg width="42" height="42" viewBox="0 0 42 42" fill="none" xmlns="http://www.w3.org/2000/svg">
<path d="M40.9688 19.4453L40.8127 17.8504C40.7494 17.4437 40.4059 17.0994 40.0929 17.1619H40.0617C40.0617 17.1619 38.7166 17.0058 37.4348 16.9745C36.8408 16.9433 36.1834 16.9433 35.6518 16.9745H35.3357C35.022 15.7879 34.5649 14.6597 33.984 13.6093C34.3031 13.3228 34.9146 12.7703 35.5269 12.158C35.9024 11.7825 36.3404 11.3133 36.7463 10.845L37.3099 10.1876C37.4348 10.1252 37.4973 10.0003 37.4973 9.90663C37.5285 9.68726 37.466 9.43746 37.3411 9.21809C37.3411 9.21809 37.2467 9.03074 37.0593 8.81137L37.0281 8.74893C36.8408 8.53035 36.6214 8.24854 36.4028 7.96752C36.1522 7.65447 35.9024 7.37345 35.6831 7.15408L35.3396 6.80981C35.0265 6.49757 34.5886 6.43512 34.37 6.65369L34.3388 6.68491C34.3388 6.68491 34.057 6.84184 33.619 7.09163C33.1499 7.37345 32.587 7.74815 32.0867 8.06119C31.2982 8.60729 30.5987 9.12292 30.3865 9.29578C29.4611 8.5381 28.4423 7.89039 27.3502 7.37198C27.3658 7.29936 27.3717 7.22648 27.3958 7.15408V7.09163C27.4582 6.74737 27.5831 6.09085 27.708 5.34067C27.8962 4.05807 27.9899 2.71302 27.9899 2.71302V2.65057C28.0523 2.52567 28.0211 2.40077 27.9586 2.24385C27.865 2.0565 27.6768 1.90038 27.427 1.80591L25.8946 1.33754L24.331 1.0245C24.0492 0.962052 23.8306 1.0245 23.6425 1.1494C23.5488 1.24307 23.4551 1.33754 23.4551 1.46244V1.49366C23.4551 1.49366 22.8923 2.71302 22.4543 3.93317C22.267 4.46478 22.0476 5.09007 21.8915 5.62169C21.8603 5.71536 21.829 5.77781 21.829 5.87228L21.7972 5.96783C21.5332 5.95384 21.2675 5.94637 21 5.94637C20.0525 5.94637 19.1261 6.03631 18.228 6.20618C18.1002 5.88818 17.7594 5.11369 17.3255 4.30786C17.0437 3.77624 16.7307 3.21341 16.4497 2.71302C16.1991 2.27507 16.0117 1.99405 16.0117 1.99405L15.9805 1.96283C15.918 1.68101 15.4801 1.52489 15.0422 1.64979C15.0422 1.64979 14.8548 1.71224 14.573 1.80591C14.2607 1.90038 13.854 2.0565 13.541 2.1814L12.5402 2.61935C12.2904 2.74424 12.1023 2.83872 12.1023 2.83872C11.8525 2.96361 11.6643 3.18218 11.6019 3.37033C11.5706 3.464 11.5706 3.5889 11.6331 3.7138V3.74502C11.6331 3.74502 11.6955 4.05806 11.8212 4.55846C11.9774 5.21497 12.1335 5.77781 12.2904 6.30942C12.5067 7.0833 12.7541 7.82621 12.9408 8.32653C11.9335 8.98004 11.0108 9.7525 10.192 10.624C10.0991 10.5621 10.0062 10.5002 9.91335 10.4382C9.63153 10.2813 9.00624 9.93785 8.31851 9.59358C7.16081 9.03074 5.75411 8.37423 5.65964 8.37423C5.40984 8.34301 5.12802 8.49913 4.90945 8.74893L3.22014 11.439C3.12646 11.6264 3.06401 11.8457 3.09524 12.0331C3.12646 12.1892 4.40906 13.3469 5.44107 14.1283C6.1288 14.6599 6.81734 15.1291 7.16081 15.3797L7.1797 15.3922C6.75243 16.4885 6.45166 17.6481 6.29575 18.8532C5.93962 18.8861 5.11093 18.979 4.22092 19.1322C2.93912 19.3516 1.62529 19.6638 1.62529 19.6638H1.59407C1.43794 19.6638 1.31305 19.7263 1.18735 19.852C1.06245 20.0081 1 20.1955 1 20.446V21.2899C1 21.5093 1 21.7903 1.03123 22.0409L1.18735 23.6357C1.2506 24.0112 1.50039 24.2923 1.78221 24.3235H1.93833C1.93833 24.3235 3.28338 24.4804 4.56518 24.5116C5.12802 24.5428 5.78533 24.5428 6.34817 24.5116H6.64743C6.9518 25.6838 7.39563 26.7997 7.96072 27.8403L7.94302 27.8582C7.34895 28.3898 6.84856 28.8902 6.3794 29.3274C5.91023 29.7965 5.50351 30.2657 5.15925 30.6412C4.847 31.0167 4.62763 31.2665 4.62763 31.2665L4.59641 31.2977C4.47151 31.361 4.40906 31.4859 4.40906 31.5795C4.37783 31.7981 4.44029 32.0487 4.56518 32.2673C4.56518 32.2673 4.65885 32.4242 4.847 32.674C4.94068 32.7989 5.06557 32.9558 5.2217 33.1432L5.53474 33.5499C5.78533 33.8629 6.03513 34.1752 6.2545 34.3633L6.59797 34.738C6.91101 35.051 7.38018 35.1135 7.56753 34.8949L7.59875 34.8637C7.59875 34.8637 7.88057 34.7068 8.31851 34.457C8.63075 34.2688 9.22482 33.8941 9.8509 33.4874C10.3825 33.1432 10.9766 32.7052 11.5706 32.236L11.5805 32.2262C12.4933 32.9779 13.4974 33.6227 14.5739 34.1412L14.573 34.1439C14.5418 34.2376 14.5418 34.3633 14.5105 34.4882C14.4169 35.0198 14.292 35.6451 14.1975 36.2392C14.0101 37.5218 13.9165 38.8668 13.9165 38.8668V38.9293C13.854 39.0542 13.8853 39.1791 13.9477 39.304C14.0414 39.4921 14.2287 39.6482 14.4793 39.7419L16.0117 40.2111L17.5753 40.5241C17.8571 40.5866 18.0757 40.5241 18.2639 40.3992C18.3575 40.3047 18.4512 40.2111 18.4512 40.0862V40.0237C18.4512 40.0237 19.0141 38.8036 19.452 37.5842C19.7018 36.8653 19.9212 36.2079 20.0148 35.8957C20.0461 35.77 20.0773 35.6763 20.1085 35.5827L20.1111 35.575C20.4052 35.5924 20.7015 35.6022 21 35.6022C21.9168 35.6022 22.814 35.5184 23.6849 35.3591C23.8199 35.6877 24.1848 36.4488 24.5808 37.2399C24.9251 37.9285 25.2693 38.5225 25.4567 38.8348C25.7065 39.2727 25.8946 39.5233 25.8946 39.5546L25.9258 39.5858C25.9883 39.8676 26.4262 40.0237 26.8642 39.8988C26.8642 39.8988 27.0515 39.8356 27.3333 39.7419C27.6144 39.6795 27.9586 39.5233 28.3653 39.3672C28.74 39.2103 29.0843 39.0542 29.3661 38.9293C29.6159 38.8036 29.8041 38.7099 29.8041 38.7099C30.0539 38.585 30.2412 38.3977 30.3045 38.1783C30.3357 38.0846 30.3357 37.9597 30.2732 37.834V37.8028L30.0851 36.9902C29.929 36.3328 29.7728 35.7388 29.6471 35.2384C29.4072 34.428 29.1382 33.6754 29.0066 33.2567C30.037 32.5944 30.9796 31.8074 31.8142 30.918C31.8946 30.9711 31.975 31.0211 32.0554 31.0479C32.5558 31.3289 33.1187 31.642 33.6503 31.8926C34.808 32.4554 36.0273 32.9558 36.0585 32.987L36.0898 33.0183C36.3404 33.2056 36.7783 33.0807 37.0593 32.7364C37.0593 32.7364 37.4973 32.0799 37.9664 31.4234C38.1226 31.204 38.2475 30.9855 38.3419 30.7661C38.4044 30.6724 38.4668 30.5788 38.498 30.4851C38.6229 30.2345 38.7478 30.0471 38.7478 30.0471C38.8423 29.8278 38.9048 29.6404 38.8735 29.4531C38.8423 29.2649 38.7478 29.14 38.5917 29.0776L38.5605 29.0464C38.5605 29.0464 37.5597 28.1392 36.5277 27.3578C35.8554 26.8374 35.1833 26.3787 34.8325 26.1242C35.2541 25.0349 35.5513 23.8836 35.7054 22.6874C36.2334 22.6251 36.9748 22.5348 37.7158 22.4164C38.9984 22.197 40.281 21.8848 40.3123 21.8848H40.3435C40.4996 21.8848 40.6245 21.8215 40.7494 21.6966C40.8751 21.5405 40.9376 21.3532 40.9376 21.1026C41 21.0401 41 20.8207 41 20.5397V20.1955C41 19.9769 41 19.6951 40.9688 19.4453ZM21.0156 28.6481C16.6272 28.6481 13.0698 25.0906 13.0698 20.7022C13.0698 16.3139 16.6272 12.7564 21.0156 12.7564C25.404 12.7564 28.9615 16.3139 28.9615 20.7022C28.9615 25.0906 25.404 28.6481 21.0156 28.6481Z" stroke="#303030" stroke-width="0.4" stroke-linecap="round"/>
<path d="M31.4093 25.744C32.1326 24.2345 32.5376 22.5436 32.5376 20.7584C32.5376 14.3771 27.3656 9.20508 20.9844 9.20508C17.0491 9.20508 13.5738 11.172 11.4877 14.1765" stroke="#303030" stroke-width="0.4"/>
<path d="M10.3929 16.1355C9.77426 17.551 9.43109 19.1145 9.43109 20.7582C9.43109 27.1372 14.6031 32.3115 20.9844 32.3115C24.7202 32.3115 28.0415 30.5381 30.1533 27.7878" stroke="#303030" stroke-width="0.4"/>
<path d="M13.9939 14.0693L11.4621 14.1587L11.3727 11.627" stroke="#303030" stroke-width="0.4" stroke-linecap="round"/>
<path d="M27.6279 27.8821L30.1596 27.7927L30.249 30.3245" stroke="#303030" stroke-width="0.4" stroke-linecap="round"/>
</svg>
