<svg width="42" height="14" viewBox="0 0 42 14" fill="none" xmlns="http://www.w3.org/2000/svg">
<mask id="path-1-inside-1_1389_142" fill="white">
<path d="M13.3505 8.68602L13.0126 8.58251C12.9919 8.66521 11.9983 12.5735 9.07121 12.5737H0.999991V10.9848H8.37297C10.8045 10.9848 11.3975 8.14664 11.4091 8.09033L11.0419 7.97802L12.5858 6.9585L13.3505 8.68602Z"/>
</mask>
<path d="M13.3505 8.68602L13.0126 8.58251C12.9919 8.66521 11.9983 12.5735 9.07121 12.5737H0.999991V10.9848H8.37297C10.8045 10.9848 11.3975 8.14664 11.4091 8.09033L11.0419 7.97802L12.5858 6.9585L13.3505 8.68602Z" fill="#5BA27E"/>
<path d="M13.3505 8.68602L13.2333 9.06848L14.0707 9.32503L13.7162 8.52413L13.3505 8.68602ZM13.0126 8.58251L13.1297 8.20006L12.7269 8.07664L12.6246 8.48538L13.0126 8.58251ZM9.07121 12.5737V12.9737H9.07124L9.07121 12.5737ZM0.999991 12.5737H0.599995V12.9737H0.999991V12.5737ZM0.999991 10.9848V10.5848H0.599995V10.9848H0.999991ZM11.4091 8.09033L11.8009 8.17066L11.874 7.81424L11.5261 7.70782L11.4091 8.09033ZM11.0419 7.97802L10.8215 7.64423L10.1129 8.11216L10.9249 8.36053L11.0419 7.97802ZM12.5858 6.9585L12.9516 6.7966L12.7601 6.36406L12.3654 6.62471L12.5858 6.9585ZM13.3505 8.68602L13.4676 8.30357L13.1297 8.20006L13.0126 8.58251L12.8954 8.96496L13.2333 9.06848L13.3505 8.68602ZM13.0126 8.58251L12.6246 8.48538C12.618 8.51172 12.3766 9.46214 11.7925 10.3971C11.2047 11.3381 10.3302 12.1736 9.07118 12.1737L9.07121 12.5737L9.07124 12.9737C10.7392 12.9736 11.8251 11.8548 12.471 10.821C13.1207 9.78105 13.3865 8.736 13.4006 8.67964L13.0126 8.58251ZM9.07121 12.5737V12.1737H0.999991V12.5737V12.9737H9.07121V12.5737ZM0.999991 12.5737H1.39999V10.9848H0.999991H0.599995V12.5737H0.999991ZM0.999991 10.9848V11.3848H8.37297V10.9848V10.5848H0.999991V10.9848ZM8.37297 10.9848V11.3848C9.77502 11.3848 10.6404 10.5563 11.1365 9.77265C11.6283 8.99577 11.7915 8.21686 11.8009 8.17066L11.4091 8.09033L11.0172 8.00999C11.0152 8.02011 10.876 8.68845 10.4605 9.34474C10.0493 9.99429 9.40243 10.5848 8.37297 10.5848V10.9848ZM11.4091 8.09033L11.5261 7.70782L11.1589 7.59552L11.0419 7.97802L10.9249 8.36053L11.2921 8.47283L11.4091 8.09033ZM11.0419 7.97802L11.2623 8.31181L12.8062 7.29229L12.5858 6.9585L12.3654 6.62471L10.8215 7.64423L11.0419 7.97802ZM12.5858 6.9585L12.2201 7.1204L12.9847 8.84792L13.3505 8.68602L13.7162 8.52413L12.9516 6.7966L12.5858 6.9585Z" fill="#303030" mask="url(#path-1-inside-1_1389_142)"/>
<mask id="path-3-inside-2_1389_142" fill="white">
<path d="M38.8618 8.68588L38.5239 8.58236C38.5032 8.66486 37.5096 12.5733 34.5825 12.5735H28.397V10.9847H33.8843C36.3159 10.9847 36.9089 8.1463 36.9204 8.09018L36.5532 7.97787L38.0971 6.95835L38.8618 8.68588Z"/>
</mask>
<path d="M38.8618 8.68588L38.5239 8.58236C38.5032 8.66486 37.5096 12.5733 34.5825 12.5735H28.397V10.9847H33.8843C36.3159 10.9847 36.9089 8.1463 36.9204 8.09018L36.5532 7.97787L38.0971 6.95835L38.8618 8.68588Z" fill="#BED5E8"/>
<path d="M38.8618 8.68588L38.7446 9.06833L39.582 9.32488L39.2276 8.52398L38.8618 8.68588ZM38.5239 8.58236L38.6411 8.19991L38.2382 8.07649L38.1359 8.48523L38.5239 8.58236ZM34.5825 12.5735V12.9735H34.5826L34.5825 12.5735ZM28.397 12.5735H27.997V12.9735H28.397V12.5735ZM28.397 10.9847V10.5847H27.997V10.9847H28.397ZM36.9204 8.09018L37.3122 8.17051L37.3853 7.81409L37.0374 7.70767L36.9204 8.09018ZM36.5532 7.97787L36.3328 7.64409L35.6242 8.11202L36.4362 8.36038L36.5532 7.97787ZM38.0971 6.95835L38.4629 6.79645L38.2715 6.36391L37.8767 6.62456L38.0971 6.95835ZM38.8618 8.68588L38.979 8.30342L38.6411 8.19991L38.5239 8.58236L38.4067 8.96481L38.7446 9.06833L38.8618 8.68588ZM38.5239 8.58236L38.1359 8.48523C38.1293 8.51148 37.888 9.4619 37.3039 10.3969C36.716 11.3379 35.8416 12.1734 34.5825 12.1735L34.5825 12.5735L34.5826 12.9735C36.2506 12.9734 37.3365 11.8546 37.9824 10.8207C38.632 9.78079 38.8978 8.73575 38.9119 8.67949L38.5239 8.58236ZM34.5825 12.5735V12.1735H28.397V12.5735V12.9735H34.5825V12.5735ZM28.397 12.5735H28.797V10.9847H28.397H27.997V12.5735H28.397ZM28.397 10.9847V11.3847H33.8843V10.9847V10.5847H28.397V10.9847ZM33.8843 10.9847V11.3847C35.2864 11.3847 36.1518 10.5561 36.6478 9.77242C37.1397 8.99552 37.3028 8.21661 37.3122 8.17051L36.9204 8.09018L36.5285 8.00985C36.5265 8.01987 36.3874 8.68822 35.9719 9.34453C35.5607 9.99411 34.9138 10.5847 33.8843 10.5847V10.9847ZM36.9204 8.09018L37.0374 7.70767L36.6702 7.59537L36.5532 7.97787L36.4362 8.36038L36.8034 8.47268L36.9204 8.09018ZM36.5532 7.97787L36.7736 8.31166L38.3176 7.29214L38.0971 6.95835L37.8767 6.62456L36.3328 7.64409L36.5532 7.97787ZM38.0971 6.95835L37.7314 7.12025L38.496 8.84777L38.8618 8.68588L39.2276 8.52398L38.4629 6.79645L38.0971 6.95835Z" fill="#303030" mask="url(#path-3-inside-2_1389_142)"/>
<mask id="path-5-inside-3_1389_142" fill="white">
<path d="M26.5115 8.24287L26.1248 8.19599C25.9332 8.86941 24.7486 12.5736 21.8406 12.5739H15.8329V10.986C15.8329 10.986 18.3127 10.9792 21.0174 10.9792C23.4833 10.9792 24.2703 8.43789 24.3904 7.98896L24.0808 7.95283L25.4529 6.67452L26.5115 8.24287Z"/>
</mask>
<path d="M26.5115 8.24287L26.1248 8.19599C25.9332 8.86941 24.7486 12.5736 21.8406 12.5739H15.8329V10.986C15.8329 10.986 18.3127 10.9792 21.0174 10.9792C23.4833 10.9792 24.2703 8.43789 24.3904 7.98896L24.0808 7.95283L25.4529 6.67452L26.5115 8.24287Z" fill="#6D889D"/>
<path d="M26.5115 8.24287L26.4634 8.63996L27.3333 8.7454L26.843 8.01909L26.5115 8.24287ZM26.1248 8.19599L26.1729 7.7989L25.8335 7.75777L25.74 8.08657L26.1248 8.19599ZM21.8406 12.5739V12.9739H21.8407L21.8406 12.5739ZM15.8329 12.5739H15.4329V12.9739H15.8329V12.5739ZM15.8329 10.986L15.8318 10.586L15.4329 10.5871V10.986H15.8329ZM21.0174 10.9792V10.5792V10.9792ZM24.3904 7.98896L24.7768 8.09231L24.8964 7.64531L24.4368 7.59166L24.3904 7.98896ZM24.0808 7.95283L23.8082 7.66017L23.1753 8.24984L24.0345 8.35013L24.0808 7.95283ZM25.4529 6.67452L25.7844 6.45074L25.5226 6.06286L25.1802 6.38186L25.4529 6.67452ZM26.5115 8.24287L26.5596 7.84578L26.1729 7.7989L26.1248 8.19599L26.0766 8.59308L26.4634 8.63996L26.5115 8.24287ZM26.1248 8.19599L25.74 8.08657C25.6488 8.4075 25.3187 9.45462 24.6701 10.4132C24.0191 11.3753 23.1015 12.1738 21.8406 12.1739L21.8406 12.5739L21.8407 12.9739C23.4878 12.9737 24.6165 11.9199 25.3327 10.8615C26.0512 9.79958 26.4093 8.6579 26.5095 8.30542L26.1248 8.19599ZM21.8406 12.5739V12.1739H15.8329V12.5739V12.9739H21.8406V12.5739ZM15.8329 12.5739H16.2329V10.986H15.8329H15.4329V12.5739H15.8329ZM15.8329 10.986C15.834 11.386 15.834 11.386 15.834 11.386C15.834 11.386 15.834 11.386 15.8341 11.386C15.8342 11.386 15.8343 11.386 15.8344 11.386C15.8347 11.386 15.8352 11.386 15.8358 11.386C15.837 11.386 15.8388 11.386 15.8411 11.386C15.8459 11.386 15.853 11.386 15.8624 11.3859C15.8813 11.3859 15.9092 11.3858 15.9457 11.3857C16.0188 11.3855 16.1262 11.3853 16.2635 11.3849C16.5382 11.3843 16.9327 11.3834 17.4116 11.3826C18.3695 11.3809 19.6654 11.3792 21.0174 11.3792V10.9792V10.5792C19.6648 10.5792 18.3684 10.5809 17.4102 10.5826C16.9311 10.5834 16.5365 10.5843 16.2617 10.5849C16.1243 10.5853 16.0168 10.5855 15.9437 10.5857C15.9071 10.5858 15.8792 10.5859 15.8603 10.5859C15.8509 10.586 15.8438 10.586 15.839 10.586C15.8366 10.586 15.8348 10.586 15.8336 10.586C15.833 10.586 15.8325 10.586 15.8322 10.586C15.8321 10.586 15.832 10.586 15.8319 10.586C15.8318 10.586 15.8318 10.586 15.8318 10.586C15.8318 10.586 15.8318 10.586 15.8329 10.986ZM21.0174 10.9792V11.3792C22.4112 11.3792 23.3317 10.6528 23.9033 9.89284C24.4679 9.14213 24.7111 8.33798 24.7768 8.09231L24.3904 7.98896L24.004 7.88562C23.9496 8.08888 23.7393 8.77983 23.2639 9.41199C22.7955 10.0349 22.0894 10.5792 21.0174 10.5792V10.9792ZM24.3904 7.98896L24.4368 7.59166L24.1272 7.55553L24.0808 7.95283L24.0345 8.35013L24.344 8.38626L24.3904 7.98896ZM24.0808 7.95283L24.3535 8.24549L25.7256 6.96718L25.4529 6.67452L25.1802 6.38186L23.8082 7.66017L24.0808 7.95283ZM25.4529 6.67452L25.1214 6.8983L26.1799 8.46665L26.5115 8.24287L26.843 8.01909L25.7844 6.45074L25.4529 6.67452Z" fill="#303030" mask="url(#path-5-inside-3_1389_142)"/>
<mask id="path-7-inside-4_1389_142" fill="white">
<path d="M17.1732 7.82892C17.1752 7.84767 17.5158 10.9851 20.5355 10.9851H26.7112V10.6404L28.0471 11.782L26.7083 12.9197V12.574H20.0443C15.9476 12.574 15.4929 7.85271 15.4906 7.82892H17.1732Z"/>
</mask>
<path d="M17.1732 7.82892C17.1752 7.84767 17.5158 10.9851 20.5355 10.9851H26.7112V10.6404L28.0471 11.782L26.7083 12.9197V12.574H20.0443C15.9476 12.574 15.4929 7.85271 15.4906 7.82892H17.1732Z" fill="#9BD8B9"/>
<path d="M17.1732 7.82892L17.5709 7.7863L17.5326 7.42893H17.1732V7.82892ZM26.7112 10.9851V11.3851H27.1112V10.9851H26.7112ZM26.7112 10.6404L26.971 10.3363L26.3112 9.77246V10.6404H26.7112ZM28.0471 11.782L28.3061 12.0868L28.6638 11.7829L28.307 11.4779L28.0471 11.782ZM26.7083 12.9197H26.3083V13.7845L26.9673 13.2245L26.7083 12.9197ZM26.7083 12.574H27.1083V12.174H26.7083V12.574ZM15.4906 7.82892V7.42893H15.0507L15.0924 7.86683L15.4906 7.82892ZM17.1732 7.82892L16.7755 7.87154C16.7787 7.9019 16.8724 8.75761 17.378 9.6169C17.8953 10.4963 18.8527 11.3851 20.5355 11.3851V10.9851V10.5851C19.1985 10.5851 18.4758 9.90527 18.0675 9.21123C17.6473 8.4971 17.5697 7.7747 17.5709 7.7863L17.1732 7.82892ZM20.5355 10.9851V11.3851H26.7112V10.9851V10.5851H20.5355V10.9851ZM26.7112 10.9851H27.1112V10.6404H26.7112H26.3112V10.9851H26.7112ZM26.7112 10.6404L26.4513 10.9445L27.7873 12.0861L28.0471 11.782L28.307 11.4779L26.971 10.3363L26.7112 10.6404ZM28.0471 11.782L27.7881 11.4772L26.4493 12.6149L26.7083 12.9197L26.9673 13.2245L28.3061 12.0868L28.0471 11.782ZM26.7083 12.9197H27.1083V12.574H26.7083H26.3083V12.9197H26.7083ZM26.7083 12.574V12.174H20.0443V12.574V12.974H26.7083V12.574ZM20.0443 12.574V12.174C18.1902 12.174 17.1669 11.1221 16.5856 10.0233C15.9961 8.90923 15.8882 7.7849 15.8888 7.79101L15.4906 7.82892L15.0924 7.86683C15.0952 7.89674 15.2158 9.14494 15.8784 10.3974C16.5492 11.6653 17.8017 12.974 20.0443 12.974V12.574ZM15.4906 7.82892V8.22892H17.1732V7.82892V7.42893H15.4906V7.82892Z" fill="#303030" mask="url(#path-7-inside-4_1389_142)"/>
<mask id="path-9-inside-5_1389_142" fill="white">
<path d="M4.4468 8.26582C4.44985 8.27819 5.11836 10.9853 7.36474 10.9855H14.1127V10.6584L15.4887 11.7756L14.1098 12.8888V12.5734H6.66748C3.57008 12.5734 2.70267 8.26582 2.70267 8.26582H4.4468Z"/>
</mask>
<path d="M4.4468 8.26582C4.44985 8.27819 5.11836 10.9853 7.36474 10.9855H14.1127V10.6584L15.4887 11.7756L14.1098 12.8888V12.5734H6.66748C3.57008 12.5734 2.70267 8.26582 2.70267 8.26582H4.4468Z" fill="#BED5E8"/>
<path d="M4.4468 8.26582L4.83521 8.17022L4.76029 7.86582H4.4468V8.26582ZM7.36474 10.9855L7.3647 11.3855H7.36474V10.9855ZM14.1127 10.9855V11.3855H14.5127V10.9855H14.1127ZM14.1127 10.6584L14.3649 10.3478L13.7127 9.81837V10.6584H14.1127ZM15.4887 11.7756L15.74 12.0868L16.1244 11.7764L15.7408 11.465L15.4887 11.7756ZM14.1098 12.8888H13.7098V13.7259L14.3611 13.2L14.1098 12.8888ZM14.1098 12.5734H14.5098V12.1734H14.1098V12.5734ZM2.70267 8.26582V7.86582H2.2141L2.31055 8.34478L2.70267 8.26582ZM4.4468 8.26582L4.05839 8.36141C4.06416 8.38485 4.24541 9.11628 4.73081 9.85076C5.21772 10.5875 6.05363 11.3854 7.3647 11.3855L7.36474 10.9855L7.36478 10.5855C6.42947 10.5854 5.80792 10.0296 5.39822 9.40968C4.98701 8.78746 4.83248 8.15916 4.83521 8.17022L4.4468 8.26582ZM7.36474 10.9855V11.3855H14.1127V10.9855V10.5855H7.36474V10.9855ZM14.1127 10.9855H14.5127V10.6584H14.1127H13.7127V10.9855H14.1127ZM14.1127 10.6584L13.8606 10.9689L15.2366 12.0861L15.4887 11.7756L15.7408 11.465L14.3649 10.3478L14.1127 10.6584ZM15.4887 11.7756L15.2374 11.4643L13.8585 12.5776L14.1098 12.8888L14.3611 13.2L15.74 12.0868L15.4887 11.7756ZM14.1098 12.8888H14.5098V12.5734H14.1098H13.7098V12.8888H14.1098ZM14.1098 12.5734V12.1734H6.66748V12.5734V12.9734H14.1098V12.5734ZM6.66748 12.5734V12.1734C5.3363 12.1734 4.45047 11.2545 3.87242 10.2239C3.58731 9.71562 3.39177 9.20365 3.26744 8.81655C3.2055 8.62372 3.16179 8.46366 3.1338 8.3529C3.11981 8.29756 3.10978 8.25466 3.10338 8.22626C3.10019 8.21207 3.0979 8.20151 3.09648 8.19486C3.09577 8.19153 3.09528 8.18918 3.095 8.18783C3.09486 8.18716 3.09478 8.18674 3.09474 8.18657C3.09473 8.18649 3.09472 8.18647 3.09473 8.18652C3.09474 8.18654 3.09475 8.18663 3.09476 8.18664C3.09478 8.18674 3.0948 8.18686 2.70267 8.26582C2.31055 8.34478 2.31058 8.34493 2.31061 8.34509C2.31063 8.34517 2.31066 8.34535 2.3107 8.3455C2.31076 8.34581 2.31083 8.34619 2.31092 8.34663C2.3111 8.34751 2.31134 8.34865 2.31163 8.35005C2.31221 8.35284 2.31301 8.35667 2.31403 8.36149C2.31609 8.37113 2.31905 8.38476 2.32296 8.40212C2.33078 8.43683 2.34241 8.48647 2.35819 8.54892C2.38974 8.67373 2.43799 8.8502 2.50577 9.0612C2.64086 9.48178 2.85577 10.0467 3.17469 10.6153C3.80469 11.7385 4.90126 12.9734 6.66748 12.9734V12.5734ZM2.70267 8.26582V8.66581H4.4468V8.26582V7.86582H2.70267V8.26582Z" fill="#303030" mask="url(#path-9-inside-5_1389_142)"/>
<mask id="path-11-inside-6_1389_142" fill="white">
<path d="M29.9581 8.26567C29.9614 8.27894 30.63 10.9852 32.8761 10.9854H39.624V10.6582L41 11.7754L39.6211 12.8887V12.5733H32.1788C29.0814 12.5733 28.214 8.26567 28.214 8.26567H29.9581Z"/>
</mask>
<path d="M29.9581 8.26567C29.9614 8.27894 30.63 10.9852 32.8761 10.9854H39.624V10.6582L41 11.7754L39.6211 12.8887V12.5733H32.1788C29.0814 12.5733 28.214 8.26567 28.214 8.26567H29.9581Z" fill="#E5CEAE"/>
<path d="M29.9581 8.26567L30.3465 8.17005L30.2716 7.86567H29.9581V8.26567ZM32.8761 10.9854L32.876 11.3854H32.8761V10.9854ZM39.624 10.9854V11.3854H40.024V10.9854H39.624ZM39.624 10.6582L39.8762 10.3477L39.224 9.81822V10.6582H39.624ZM41 11.7754L41.2513 12.0866L41.6357 11.7763L41.2521 11.4649L41 11.7754ZM39.6211 12.8887H39.2211V13.7257L39.8724 13.1999L39.6211 12.8887ZM39.6211 12.5733H40.0211V12.1733H39.6211V12.5733ZM28.214 8.26567V7.86567H27.7254L27.8219 8.34463L28.214 8.26567ZM29.9581 8.26567L29.5697 8.36129C29.5756 8.38518 29.7569 9.11661 30.2424 9.85099C30.7293 10.5877 31.5652 11.3852 32.876 11.3854L32.8761 10.9854L32.8761 10.5854C31.9409 10.5853 31.3194 10.0297 30.9097 9.40985C30.4985 8.78774 30.3439 8.15943 30.3465 8.17005L29.9581 8.26567ZM32.8761 10.9854V11.3854H39.624V10.9854V10.5854H32.8761V10.9854ZM39.624 10.9854H40.024V10.6582H39.624H39.224V10.9854H39.624ZM39.624 10.6582L39.3719 10.9688L40.7479 12.0859L41 11.7754L41.2521 11.4649L39.8762 10.3477L39.624 10.6582ZM41 11.7754L40.7487 11.4642L39.3698 12.5775L39.6211 12.8887L39.8724 13.1999L41.2513 12.0866L41 11.7754ZM39.6211 12.8887H40.0211V12.5733H39.6211H39.2211V12.8887H39.6211ZM39.6211 12.5733V12.1733H32.1788V12.5733V12.9732H39.6211V12.5733ZM32.1788 12.5733V12.1733C30.8476 12.1733 29.9618 11.2544 29.3837 10.2238C29.0986 9.71548 28.9031 9.2035 28.7787 8.8164C28.7168 8.62357 28.6731 8.46351 28.6451 8.35275C28.6311 8.29742 28.6211 8.25451 28.6147 8.22612C28.6115 8.21193 28.6092 8.20137 28.6078 8.19471C28.6071 8.19138 28.6066 8.18903 28.6063 8.18769C28.6062 8.18701 28.6061 8.18659 28.6061 8.18643C28.606 8.18635 28.606 8.18633 28.606 8.18638C28.6061 8.1864 28.6061 8.18648 28.6061 8.18649C28.6061 8.18659 28.6061 8.18671 28.214 8.26567C27.8219 8.34463 27.8219 8.34478 27.8219 8.34495C27.8219 8.34502 27.822 8.34521 27.822 8.34536C27.8221 8.34567 27.8221 8.34604 27.8222 8.34648C27.8224 8.34736 27.8227 8.3485 27.8229 8.3499C27.8235 8.3527 27.8243 8.35652 27.8253 8.36134C27.8274 8.37099 27.8304 8.38462 27.8343 8.40198C27.8421 8.43668 27.8537 8.48632 27.8695 8.54877C27.901 8.67359 27.9493 8.85005 28.0171 9.06106C28.1522 9.48163 28.3671 10.0466 28.686 10.6151C29.316 11.7383 30.4126 12.9732 32.1788 12.9732V12.5733ZM28.214 8.26567V8.66567H29.9581V8.26567V7.86567H28.214V8.26567Z" fill="#303030" mask="url(#path-11-inside-6_1389_142)"/>
<mask id="path-13-inside-7_1389_142" fill="white">
<path d="M8.90935 1.78003C11.564 1.78055 13.4777 3.90902 13.4777 6.5339H11.7804C11.7804 5.02112 10.384 3.56384 8.91228 3.56127L8.91325 3.93529L7.53436 2.66674L8.90935 1.39429V1.78003Z"/>
</mask>
<path d="M8.90935 1.78003C11.564 1.78055 13.4777 3.90902 13.4777 6.5339H11.7804C11.7804 5.02112 10.384 3.56384 8.91228 3.56127L8.91325 3.93529L7.53436 2.66674L8.90935 1.39429V1.78003Z" fill="#7F99AE"/>
<path d="M8.90935 1.78003H8.50935V2.17995L8.90927 2.18003L8.90935 1.78003ZM13.4777 6.5339V6.93389H13.8777V6.5339H13.4777ZM11.7804 6.5339H11.3804V6.93389H11.7804V6.5339ZM8.91228 3.56127L8.91298 3.16127L8.51123 3.16057L8.51228 3.56231L8.91228 3.56127ZM8.91325 3.93529L8.64244 4.22966L9.31564 4.84899L9.31325 3.93424L8.91325 3.93529ZM7.53436 2.66674L7.26268 2.37317L6.94451 2.66761L7.26354 2.96112L7.53436 2.66674ZM8.90935 1.39429H9.30934V0.47913L8.63766 1.10072L8.90935 1.39429ZM8.90935 1.78003L8.90927 2.18003C11.3209 2.1805 13.0777 4.10705 13.0777 6.5339H13.4777H13.8777C13.8777 3.71098 11.8072 1.38061 8.90942 1.38004L8.90935 1.78003ZM13.4777 6.5339V6.1339H11.7804V6.5339V6.93389H13.4777V6.5339ZM11.7804 6.5339H12.1804C12.1804 5.65653 11.7781 4.81845 11.1864 4.20385C10.5952 3.58974 9.77975 3.16279 8.91298 3.16127L8.91228 3.56127L8.91158 3.96126C9.51652 3.96232 10.1351 4.2653 10.6101 4.75867C11.0845 5.25154 11.3804 5.89849 11.3804 6.5339H11.7804ZM8.91228 3.56127L8.51228 3.56231L8.51326 3.93633L8.91325 3.93529L9.31325 3.93424L9.31227 3.56022L8.91228 3.56127ZM8.91325 3.93529L9.18407 3.64091L7.80517 2.37237L7.53436 2.66674L7.26354 2.96112L8.64244 4.22966L8.91325 3.93529ZM7.53436 2.66674L7.80604 2.96032L9.18103 1.68787L8.90935 1.39429L8.63766 1.10072L7.26268 2.37317L7.53436 2.66674ZM8.90935 1.39429H8.50935V1.78003H8.90935H9.30934V1.39429H8.90935Z" fill="#303030" mask="url(#path-13-inside-7_1389_142)"/>
<mask id="path-15-inside-8_1389_142" fill="white">
<path d="M34.4206 1.77988C37.0753 1.78037 38.9899 3.90885 38.9899 6.53375H37.2917C37.2917 5.02095 35.8953 3.56365 34.4235 3.56112L34.4245 3.93514L33.0456 2.6666L34.4206 1.39415V1.77988Z"/>
</mask>
<path d="M34.4206 1.77988C37.0753 1.78037 38.9899 3.90885 38.9899 6.53375H37.2917C37.2917 5.02095 35.8953 3.56365 34.4235 3.56112L34.4245 3.93514L33.0456 2.6666L34.4206 1.39415V1.77988Z" fill="#5BA27E"/>
<path d="M34.4206 1.77988H34.0206V2.17981L34.4205 2.17988L34.4206 1.77988ZM38.9899 6.53375V6.93375H39.3899V6.53375H38.9899ZM37.2917 6.53375H36.8917V6.93375H37.2917V6.53375ZM34.4235 3.56112L34.4242 3.16112L34.0225 3.16043L34.0235 3.56216L34.4235 3.56112ZM34.4245 3.93514L34.1537 4.22951L34.8269 4.84884L34.8245 3.93409L34.4245 3.93514ZM33.0456 2.6666L32.7739 2.37302L32.4558 2.66746L32.7748 2.96097L33.0456 2.6666ZM34.4206 1.39415H34.8206V0.478982L34.1489 1.10057L34.4206 1.39415ZM34.4206 1.77988L34.4205 2.17988C36.8323 2.18032 38.5899 4.107 38.5899 6.53375H38.9899H39.3899C39.3899 3.7107 37.3183 1.38042 34.4207 1.37989L34.4206 1.77988ZM38.9899 6.53375V6.13375H37.2917V6.53375V6.93375H38.9899V6.53375ZM37.2917 6.53375H37.6917C37.6917 5.65637 37.2893 4.81829 36.6977 4.20368C36.1065 3.58957 35.291 3.16262 34.4242 3.16112L34.4235 3.56112L34.4228 3.96111C35.0278 3.96216 35.6464 4.26512 36.1213 4.7585C36.5958 5.25137 36.8917 5.89833 36.8917 6.53375H37.2917ZM34.4235 3.56112L34.0235 3.56216L34.0245 3.93618L34.4245 3.93514L34.8245 3.93409L34.8235 3.56007L34.4235 3.56112ZM34.4245 3.93514L34.6953 3.64076L33.3164 2.37222L33.0456 2.6666L32.7748 2.96097L34.1537 4.22951L34.4245 3.93514ZM33.0456 2.6666L33.3173 2.96017L34.6923 1.68772L34.4206 1.39415L34.1489 1.10057L32.7739 2.37302L33.0456 2.6666ZM34.4206 1.39415H34.0206V1.77988H34.4206H34.8206V1.39415H34.4206Z" fill="#303030" mask="url(#path-15-inside-8_1389_142)"/>
<mask id="path-17-inside-9_1389_142" fill="white">
<path d="M7.29779 3.45856C5.84335 3.4611 4.44511 4.91685 4.44527 6.44779L4.79 6.44682L3.58298 7.88235L2.36717 6.45463L2.7324 6.45268C2.72915 3.82836 4.77167 1.69738 7.29486 1.69295L7.29779 3.45856Z"/>
</mask>
<path d="M7.29779 3.45856C5.84335 3.4611 4.44511 4.91685 4.44527 6.44779L4.79 6.44682L3.58298 7.88235L2.36717 6.45463L2.7324 6.45268C2.72915 3.82836 4.77167 1.69738 7.29486 1.69295L7.29779 3.45856Z" fill="#E5CEAE"/>
<path d="M7.29779 3.45856L7.29849 3.85856L7.69845 3.85786L7.69778 3.4579L7.29779 3.45856ZM4.44527 6.44779L4.04528 6.44784L4.04532 6.84892L4.44641 6.84779L4.44527 6.44779ZM4.79 6.44682L5.09615 6.70424L5.65097 6.04438L4.78886 6.04682L4.79 6.44682ZM3.58298 7.88235L3.27844 8.14169L3.58492 8.50158L3.88913 8.13977L3.58298 7.88235ZM2.36717 6.45463L2.36503 6.05464L1.50508 6.05924L2.06263 6.71396L2.36717 6.45463ZM2.7324 6.45268L2.73454 6.85267L3.13289 6.85054L3.13239 6.45218L2.7324 6.45268ZM7.29486 1.69295L7.69485 1.69229L7.69419 1.29225L7.29416 1.29296L7.29486 1.69295ZM7.29779 3.45856L7.29709 3.05857C6.43781 3.06006 5.62597 3.48765 5.03697 4.10357C4.44706 4.72043 4.04518 5.56243 4.04528 6.44784L4.44527 6.44779L4.84527 6.44775C4.8452 5.80221 5.14236 5.15086 5.61514 4.65648C6.08883 4.16115 6.70333 3.8596 7.29849 3.85856L7.29779 3.45856ZM4.44527 6.44779L4.44641 6.84779L4.79113 6.84681L4.79 6.44682L4.78886 6.04682L4.44414 6.0478L4.44527 6.44779ZM4.79 6.44682L4.48384 6.1894L3.27682 7.62493L3.58298 7.88235L3.88913 8.13977L5.09615 6.70424L4.79 6.44682ZM3.58298 7.88235L3.88751 7.62302L2.6717 6.19529L2.36717 6.45463L2.06263 6.71396L3.27844 8.14169L3.58298 7.88235ZM2.36717 6.45463L2.36931 6.85462L2.73454 6.85267L2.7324 6.45268L2.73026 6.05268L2.36503 6.05464L2.36717 6.45463ZM2.7324 6.45268L3.13239 6.45218C3.1294 4.03372 5.00789 2.09696 7.29556 2.09295L7.29486 1.69295L7.29416 1.29296C4.53545 1.2978 2.32889 3.623 2.3324 6.45317L2.7324 6.45268ZM7.29486 1.69295L6.89486 1.69362L6.89779 3.45923L7.29779 3.45856L7.69778 3.4579L7.69485 1.69229L7.29486 1.69295Z" fill="#303030" mask="url(#path-17-inside-9_1389_142)"/>
<mask id="path-19-inside-10_1389_142" fill="white">
<path d="M32.809 3.45841C31.3546 3.46097 29.9564 4.91671 29.9565 6.44764L30.3012 6.44667L29.0942 7.8822L27.8784 6.45448L28.2437 6.45253C28.2404 3.82823 30.283 1.69726 32.8061 1.6928L32.809 3.45841Z"/>
</mask>
<path d="M32.809 3.45841C31.3546 3.46097 29.9564 4.91671 29.9565 6.44764L30.3012 6.44667L29.0942 7.8822L27.8784 6.45448L28.2437 6.45253C28.2404 3.82823 30.283 1.69726 32.8061 1.6928L32.809 3.45841Z" fill="#A9DBC2"/>
<path d="M32.809 3.45841L32.8097 3.85841L33.2097 3.85771L33.209 3.45775L32.809 3.45841ZM29.9565 6.44764L29.5565 6.44769L29.5566 6.84878L29.9577 6.84764L29.9565 6.44764ZM30.3012 6.44667L30.6074 6.70409L31.1622 6.04423L30.3001 6.04667L30.3012 6.44667ZM29.0942 7.8822L28.7897 8.14154L29.0962 8.50143L29.4004 8.13962L29.0942 7.8822ZM27.8784 6.45448L27.8763 6.05449L27.0163 6.05909L27.5739 6.71382L27.8784 6.45448ZM28.2437 6.45253L28.2458 6.85252L28.6441 6.85039L28.6436 6.45203L28.2437 6.45253ZM32.8061 1.6928L33.2061 1.69214L33.2054 1.2921L32.8054 1.29281L32.8061 1.6928ZM32.809 3.45841L32.8083 3.05842C31.9491 3.05992 31.1372 3.48752 30.5482 4.10343C29.9583 4.72029 29.5564 5.56228 29.5565 6.44769L29.9565 6.44764L30.3565 6.4476C30.3565 5.80207 30.6536 5.15072 31.1264 4.65634C31.6001 4.16101 32.2146 3.85945 32.8097 3.85841L32.809 3.45841ZM29.9565 6.44764L29.9577 6.84764L30.3024 6.84666L30.3012 6.44667L30.3001 6.04667L29.9554 6.04765L29.9565 6.44764ZM30.3012 6.44667L29.9951 6.18925L28.7881 7.62478L29.0942 7.8822L29.4004 8.13962L30.6074 6.70409L30.3012 6.44667ZM29.0942 7.8822L29.3988 7.62287L28.183 6.19514L27.8784 6.45448L27.5739 6.71382L28.7897 8.14154L29.0942 7.8822ZM27.8784 6.45448L27.8806 6.85447L28.2458 6.85252L28.2437 6.45253L28.2415 6.05254L27.8763 6.05449L27.8784 6.45448ZM28.2437 6.45253L28.6436 6.45203C28.6407 4.0336 30.5192 2.09684 32.8068 2.0928L32.8061 1.6928L32.8054 1.29281C30.0467 1.29768 27.8401 3.62287 27.8437 6.45302L28.2437 6.45253ZM32.8061 1.6928L32.4061 1.69347L32.409 3.45908L32.809 3.45841L33.209 3.45775L33.2061 1.69214L32.8061 1.6928Z" fill="#303030" mask="url(#path-19-inside-10_1389_142)"/>
<mask id="path-21-inside-11_1389_142" fill="white">
<path d="M21.5684 1.39661C24.019 1.39274 26.1959 3.51987 26.2001 6.14462H24.3642C24.3617 4.63167 23.0028 3.17732 21.5732 3.17785L21.5752 3.56359L20.2344 2.28625L21.5674 1.00013L21.5684 1.39661Z"/>
</mask>
<path d="M21.5684 1.39661C24.019 1.39274 26.1959 3.51987 26.2001 6.14462H24.3642C24.3617 4.63167 23.0028 3.17732 21.5732 3.17785L21.5752 3.56359L20.2344 2.28625L21.5674 1.00013L21.5684 1.39661Z" fill="#D6B689"/>
<path d="M21.5684 1.39661L21.1684 1.3976L21.1693 1.79724L21.569 1.79661L21.5684 1.39661ZM26.2001 6.14462V6.54462H26.6008L26.6001 6.14397L26.2001 6.14462ZM24.3642 6.14462L23.9642 6.14529L23.9649 6.54462H24.3642V6.14462ZM21.5732 3.17785L21.5731 2.77785L21.1712 2.778L21.1732 3.17987L21.5732 3.17785ZM21.5752 3.56359L21.2993 3.8532L21.9799 4.50163L21.9752 3.56156L21.5752 3.56359ZM20.2344 2.28625L19.9566 1.9984L19.6564 2.28809L19.9585 2.57587L20.2344 2.28625ZM21.5674 1.00013L21.9674 0.999147L21.9651 0.0606098L21.2896 0.712276L21.5674 1.00013ZM21.5684 1.39661L21.569 1.79661C23.7939 1.7931 25.7962 3.73654 25.8002 6.14527L26.2001 6.14462L26.6001 6.14397C26.5955 3.3032 24.2441 0.992391 21.5677 0.996617L21.5684 1.39661ZM26.2001 6.14462V5.74462H24.3642V6.14462V6.54462H26.2001V6.14462ZM24.3642 6.14462L24.7642 6.14395C24.7628 5.27034 24.3722 4.43429 23.7955 3.81993C23.2198 3.20663 22.423 2.77754 21.5731 2.77785L21.5732 3.17785L21.5734 3.57784C22.153 3.57763 22.7504 3.87545 23.2122 4.36743C23.673 4.85835 23.9632 5.50595 23.9642 6.14529L24.3642 6.14462ZM21.5732 3.17785L21.1732 3.17987L21.1752 3.56561L21.5752 3.56359L21.9752 3.56156L21.9732 3.17582L21.5732 3.17785ZM21.5752 3.56359L21.8511 3.27397L20.5103 1.99664L20.2344 2.28625L19.9585 2.57587L21.2993 3.8532L21.5752 3.56359ZM20.2344 2.28625L20.5121 2.57411L21.8451 1.28799L21.5674 1.00013L21.2896 0.712276L19.9566 1.9984L20.2344 2.28625ZM21.5674 1.00013L21.1674 1.00112L21.1684 1.3976L21.5684 1.39661L21.9683 1.39563L21.9674 0.999147L21.5674 1.00013Z" fill="#303030" mask="url(#path-21-inside-11_1389_142)"/>
<mask id="path-23-inside-12_1389_142" fill="white">
<path d="M20.0632 3.15401C18.609 3.15654 17.211 4.61163 17.2107 6.14226L17.5681 6.14128L16.3533 7.5778L15.1306 6.1491L15.4978 6.14714C15.495 3.52321 17.5373 1.3928 20.0602 1.3884L20.0632 3.15401Z"/>
</mask>
<path d="M20.0632 3.15401C18.609 3.15654 17.211 4.61163 17.2107 6.14226L17.5681 6.14128L16.3533 7.5778L15.1306 6.1491L15.4978 6.14714C15.495 3.52321 17.5373 1.3928 20.0602 1.3884L20.0632 3.15401Z" fill="#D3E6F6"/>
<path d="M20.0632 3.15401L20.0639 3.554L20.4638 3.5533L20.4632 3.15334L20.0632 3.15401ZM17.2107 6.14226L16.8107 6.14217L16.8106 6.54335L17.2118 6.54226L17.2107 6.14226ZM17.5681 6.14128L17.8735 6.39958L18.4322 5.73893L17.567 5.74129L17.5681 6.14128ZM16.3533 7.5778L16.0493 7.83787L16.3551 8.1951L16.6587 7.83609L16.3533 7.5778ZM15.1306 6.1491L15.1285 5.74911L14.2658 5.7537L14.8267 6.40917L15.1306 6.1491ZM15.4978 6.14714L15.4999 6.54714L15.8982 6.54502L15.8978 6.14672L15.4978 6.14714ZM20.0602 1.3884L20.4602 1.38773L20.4596 0.987703L20.0596 0.988401L20.0602 1.3884ZM20.0632 3.15401L20.0625 2.75401C19.2034 2.75551 18.3917 3.1829 17.8027 3.7986C17.2128 4.41525 16.8109 5.25696 16.8107 6.14217L17.2107 6.14226L17.6107 6.14236C17.6108 5.49693 17.908 4.84579 18.3808 4.3516C18.8544 3.85646 19.4688 3.55504 20.0639 3.554L20.0632 3.15401ZM17.2107 6.14226L17.2118 6.54226L17.5692 6.54128L17.5681 6.14128L17.567 5.74129L17.2096 5.74227L17.2107 6.14226ZM17.5681 6.14128L17.2627 5.88299L16.0478 7.3195L16.3533 7.5778L16.6587 7.83609L17.8735 6.39958L17.5681 6.14128ZM16.3533 7.5778L16.6572 7.31772L15.4345 5.88902L15.1306 6.1491L14.8267 6.40917L16.0493 7.83787L16.3533 7.5778ZM15.1306 6.1491L15.1327 6.54909L15.4999 6.54714L15.4978 6.14714L15.4957 5.74715L15.1285 5.74911L15.1306 6.1491ZM15.4978 6.14714L15.8978 6.14672C15.8952 3.72861 17.7735 1.79238 20.0609 1.78839L20.0602 1.3884L20.0596 0.988401C17.3011 0.993211 15.0948 3.3178 15.0978 6.14757L15.4978 6.14714ZM20.0602 1.3884L19.6603 1.38906L19.6632 3.15467L20.0632 3.15401L20.4632 3.15334L20.4602 1.38773L20.0602 1.3884Z" fill="#303030" mask="url(#path-23-inside-12_1389_142)"/>
</svg>
