<svg width="42" height="19" viewBox="0 0 42 19" fill="none" xmlns="http://www.w3.org/2000/svg">
<mask id="path-1-inside-1_1383_154" fill="white">
<path d="M18.3553 11.8253L17.8797 11.6788C17.8616 11.7518 16.4717 17.3017 12.3417 17.3018H0.99999V15.0645H11.3612C14.7883 15.0645 15.6165 11.0421 15.6278 10.9864L15.1112 10.8282L17.2801 9.3927L18.3553 11.8253Z"/>
</mask>
<path d="M18.3553 11.8253L17.8797 11.6788C17.8616 11.7518 16.4717 17.3017 12.3417 17.3018H0.99999V15.0645H11.3612C14.7883 15.0645 15.6165 11.0421 15.6278 10.9864L15.1112 10.8282L17.2801 9.3927L18.3553 11.8253Z" fill="#76C69D"/>
<path d="M18.3553 11.8253L18.2375 12.2076L19.0757 12.4657L18.7211 11.6636L18.3553 11.8253ZM17.8797 11.6788L17.9974 11.2965L17.5934 11.1721L17.4915 11.5824L17.8797 11.6788ZM12.3417 17.3018V17.7018H12.3417L12.3417 17.3018ZM0.99999 17.3018H0.599994V17.7018H0.99999V17.3018ZM0.99999 15.0645V14.6645H0.599994V15.0645H0.99999ZM11.3612 15.0645V15.4645H11.3612L11.3612 15.0645ZM15.6278 10.9864L16.0198 11.0661L16.0921 10.7103L15.7449 10.604L15.6278 10.9864ZM15.1112 10.8282L14.8904 10.4947L14.1836 10.9625L14.994 11.2107L15.1112 10.8282ZM17.2801 9.3927L17.646 9.23099L17.4544 8.79765L17.0593 9.05914L17.2801 9.3927ZM18.3553 11.8253L18.473 11.443L17.9974 11.2965L17.8797 11.6788L17.762 12.0611L18.2375 12.2076L18.3553 11.8253ZM17.8797 11.6788L17.4915 11.5824C17.4861 11.6041 17.1462 12.9627 16.3127 14.3068C15.4752 15.6575 14.2009 16.9017 12.3417 16.9018L12.3417 17.3018L12.3417 17.7018C14.6125 17.7017 16.0981 16.1709 16.9926 14.7284C17.8911 13.2794 18.2552 11.8265 18.2679 11.7752L17.8797 11.6788ZM12.3417 17.3018V16.9018H0.99999V17.3018V17.7018H12.3417V17.3018ZM0.99999 17.3018H1.39999V15.0645H0.99999H0.599994V17.3018H0.99999ZM0.99999 15.0645V15.4645H11.3612V15.0645V14.6645H0.99999V15.0645ZM11.3612 15.0645L11.3612 15.4645C13.2622 15.4645 14.4352 14.3386 15.114 13.2593C15.7887 12.1865 16.0105 11.1118 16.0198 11.0661L15.6278 10.9864L15.2358 10.9068C15.2338 10.9167 15.0358 11.881 14.4368 12.8334C13.8419 13.7792 12.8873 14.6645 11.3612 14.6645L11.3612 15.0645ZM15.6278 10.9864L15.7449 10.604L15.2283 10.4458L15.1112 10.8282L14.994 11.2107L15.5106 11.3689L15.6278 10.9864ZM15.1112 10.8282L15.3319 11.1618L17.5009 9.72625L17.2801 9.3927L17.0593 9.05914L14.8904 10.4947L15.1112 10.8282ZM17.2801 9.3927L16.9142 9.5544L17.9894 11.987L18.3553 11.8253L18.7211 11.6636L17.646 9.23099L17.2801 9.3927Z" fill="#303030" mask="url(#path-1-inside-1_1383_154)"/>
<mask id="path-3-inside-2_1383_154" fill="white">
<path d="M36.8493 11.2016L36.3054 11.1362C36.0357 12.0864 34.3708 17.3031 30.2849 17.3031H21.8436V15.0659C21.8436 15.0659 25.3288 15.0561 29.1296 15.0561C32.5951 15.0561 33.7013 11.4761 33.8698 10.8442L33.4333 10.7925L35.362 8.99365L36.8493 11.2016Z"/>
</mask>
<path d="M36.8493 11.2016L36.3054 11.1362C36.0357 12.0864 34.3708 17.3031 30.2849 17.3031H21.8436V15.0659C21.8436 15.0659 25.3288 15.0561 29.1296 15.0561C32.5951 15.0561 33.7013 11.4761 33.8698 10.8442L33.4333 10.7925L35.362 8.99365L36.8493 11.2016Z" fill="#BFA687"/>
<path d="M36.8493 11.2016L36.8015 11.5988L37.6694 11.7032L37.181 10.9782L36.8493 11.2016ZM36.3054 11.1362L36.3531 10.7391L36.0139 10.6983L35.9206 11.027L36.3054 11.1362ZM21.8436 17.3031H21.4436V17.7031H21.8436V17.3031ZM21.8436 15.0659L21.8425 14.6659L21.4436 14.667V15.0659H21.8436ZM29.1296 15.0561V15.4561H29.1296L29.1296 15.0561ZM33.8698 10.8442L34.2563 10.9473L34.3753 10.5013L33.9169 10.447L33.8698 10.8442ZM33.4333 10.7925L33.1605 10.4999L32.5298 11.0881L33.3862 11.1897L33.4333 10.7925ZM35.362 8.99365L35.6938 8.77018L35.4319 8.38147L35.0892 8.70113L35.362 8.99365ZM36.8493 11.2016L36.8971 10.8045L36.3531 10.7391L36.3054 11.1362L36.2576 11.5333L36.8015 11.5988L36.8493 11.2016ZM36.3054 11.1362L35.9206 11.027C35.7902 11.4864 35.3205 12.9809 34.3947 14.3522C33.4664 15.7272 32.1343 16.9031 30.2849 16.9031V17.3031V17.7031C32.5214 17.7031 34.0647 16.2707 35.0577 14.7998C36.0533 13.3252 36.5509 11.7362 36.6902 11.2454L36.3054 11.1362ZM30.2849 17.3031V16.9031H21.8436V17.3031V17.7031H30.2849V17.3031ZM21.8436 17.3031H22.2436V15.0659H21.8436H21.4436V17.3031H21.8436ZM21.8436 15.0659C21.8447 15.4658 21.8447 15.4658 21.8447 15.4658C21.8448 15.4658 21.8448 15.4658 21.8449 15.4658C21.845 15.4658 21.8451 15.4658 21.8453 15.4658C21.8458 15.4658 21.8464 15.4658 21.8472 15.4658C21.8489 15.4658 21.8515 15.4658 21.8548 15.4658C21.8615 15.4658 21.8715 15.4658 21.8847 15.4657C21.9112 15.4657 21.9505 15.4656 22.0018 15.4654C22.1045 15.4652 22.2555 15.4648 22.4485 15.4643C22.8345 15.4634 23.3889 15.4622 24.062 15.461C25.4083 15.4585 27.2295 15.4561 29.1296 15.4561V15.0561V14.6561C27.2289 14.6561 25.4071 14.6585 24.0606 14.661C23.3873 14.6622 22.8328 14.6634 22.4466 14.6643C22.2535 14.6648 22.1025 14.6652 21.9997 14.6654C21.9484 14.6656 21.909 14.6657 21.8826 14.6657C21.8693 14.6658 21.8593 14.6658 21.8526 14.6658C21.8492 14.6658 21.8467 14.6658 21.845 14.6659C21.8442 14.6659 21.8435 14.6659 21.8431 14.6659C21.8429 14.6659 21.8427 14.6659 21.8426 14.6659C21.8426 14.6659 21.8425 14.6659 21.8425 14.6659C21.8425 14.6659 21.8425 14.6659 21.8436 15.0659ZM29.1296 15.0561L29.1296 15.4561C31.0237 15.4561 32.2738 14.4696 33.056 13.4272C33.8313 12.3939 34.1664 11.2844 34.2563 10.9473L33.8698 10.8442L33.4834 10.7411C33.4047 11.0359 33.1025 12.0323 32.4161 12.947C31.7367 13.8525 30.701 14.6561 29.1296 14.6561L29.1296 15.0561ZM33.8698 10.8442L33.9169 10.447L33.4804 10.3952L33.4333 10.7925L33.3862 11.1897L33.8227 11.2414L33.8698 10.8442ZM33.4333 10.7925L33.7061 11.085L35.6348 9.28617L35.362 8.99365L35.0892 8.70113L33.1605 10.4999L33.4333 10.7925ZM35.362 8.99365L35.0303 9.21712L36.5175 11.4251L36.8493 11.2016L37.181 10.9782L35.6938 8.77018L35.362 8.99365Z" fill="#303030" mask="url(#path-3-inside-2_1383_154)"/>
<mask id="path-5-inside-3_1383_154" fill="white">
<path d="M23.7267 10.6187C23.7293 10.6424 24.2071 15.0647 28.4513 15.065H39.1221L39.1231 14.5786L41 16.187L39.1192 17.7895L39.1201 17.3022H27.7609C22.0041 17.3021 21.3657 10.652 21.3625 10.6187H23.7267Z"/>
</mask>
<path d="M23.7267 10.6187C23.7293 10.6424 24.2071 15.0647 28.4513 15.065H39.1221L39.1231 14.5786L41 16.187L39.1192 17.7895L39.1201 17.3022H27.7609C22.0041 17.3021 21.3657 10.652 21.3625 10.6187H23.7267Z" fill="#6D889D"/>
<path d="M23.7267 10.6187L24.1245 10.5763L24.0863 10.2187H23.7267V10.6187ZM28.4513 15.065L28.4513 15.465H28.4513V15.065ZM39.1221 15.065V15.465H39.5213L39.5221 15.0658L39.1221 15.065ZM39.1231 14.5786L39.3834 14.2749L38.7248 13.7106L38.7231 14.5778L39.1231 14.5786ZM41 16.187L41.2594 16.4915L41.6157 16.1879L41.2603 15.8833L41 16.187ZM39.1192 17.7895L38.7192 17.7887L38.7174 18.6573L39.3786 18.094L39.1192 17.7895ZM39.1201 17.3022L39.5201 17.303L39.5209 16.9022H39.1201V17.3022ZM27.7609 17.3022L27.7609 17.7022H27.7609V17.3022ZM21.3625 10.6187V10.2187H20.9227L20.9643 10.6565L21.3625 10.6187ZM23.7267 10.6187L23.329 10.6612C23.3325 10.6939 23.4605 11.8719 24.1534 13.053C24.8579 14.2541 26.1557 15.4648 28.4513 15.465L28.4513 15.065L28.4513 14.665C26.5027 14.6648 25.4394 13.6643 24.8434 12.6482C24.2356 11.6121 24.1235 10.5672 24.1245 10.5763L23.7267 10.6187ZM28.4513 15.065V15.465H39.1221V15.065V14.665H28.4513V15.065ZM39.1221 15.065L39.5221 15.0658L39.5231 14.5794L39.1231 14.5786L38.7231 14.5778L38.7221 15.0642L39.1221 15.065ZM39.1231 14.5786L38.8628 14.8824L40.7397 16.4908L41 16.187L41.2603 15.8833L39.3834 14.2749L39.1231 14.5786ZM41 16.187L40.7406 15.8826L38.8598 17.4851L39.1192 17.7895L39.3786 18.094L41.2594 16.4915L41 16.187ZM39.1192 17.7895L39.5192 17.7903L39.5201 17.303L39.1201 17.3022L38.7202 17.3014L38.7192 17.7887L39.1192 17.7895ZM39.1201 17.3022V16.9022H27.7609V17.3022V17.7022H39.1201V17.3022ZM27.7609 17.3022L27.7609 16.9022C25.0773 16.9022 23.5929 15.3686 22.7579 13.7862C21.9147 12.1887 21.7606 10.5796 21.7607 10.5809L21.3625 10.6187L20.9643 10.6565C20.9676 10.6911 21.1343 12.4238 22.0503 14.1596C22.9745 15.9107 24.6877 17.7022 27.7609 17.7022L27.7609 17.3022ZM21.3625 10.6187V11.0187H23.7267V10.6187V10.2187H21.3625V10.6187Z" fill="#303030" mask="url(#path-5-inside-3_1383_154)"/>
<mask id="path-7-inside-4_1383_154" fill="white">
<path d="M5.84284 11.2341C5.84284 11.2341 6.78011 15.0651 9.94436 15.0651H19.4257L19.4267 14.6042L21.3593 16.1774L19.4228 17.7458L19.4238 17.3014H8.9639C4.61135 17.3014 3.39267 11.2341 3.39267 11.2341H5.84284Z"/>
</mask>
<path d="M5.84284 11.2341C5.84284 11.2341 6.78011 15.0651 9.94436 15.0651H19.4257L19.4267 14.6042L21.3593 16.1774L19.4228 17.7458L19.4238 17.3014H8.9639C4.61135 17.3014 3.39267 11.2341 3.39267 11.2341H5.84284Z" fill="#BED5E8"/>
<path d="M5.84284 11.2341L6.23137 11.1391L6.15677 10.8341H5.84284V11.2341ZM19.4257 15.0651V15.4651H19.8249L19.8257 15.066L19.4257 15.0651ZM19.4267 14.6042L19.6792 14.294L19.0285 13.7643L19.0267 14.6034L19.4267 14.6042ZM21.3593 16.1774L21.611 16.4883L21.9939 16.1782L21.6118 15.8672L21.3593 16.1774ZM19.4228 17.7458L19.0228 17.7449L19.0209 18.586L19.6745 18.0566L19.4228 17.7458ZM19.4238 17.3014L19.8237 17.3023L19.8246 16.9015H19.4238V17.3014ZM8.9639 17.3014L8.9639 17.7014H8.9639V17.3014ZM3.39267 11.2341V10.8341H2.90434L3.0005 11.3129L3.39267 11.2341ZM5.84284 11.2341C5.4543 11.3292 5.45434 11.3293 5.45438 11.3295C5.4544 11.3296 5.45445 11.3298 5.45449 11.33C5.45457 11.3303 5.45466 11.3306 5.45476 11.3311C5.45498 11.3319 5.45525 11.333 5.45559 11.3344C5.45625 11.337 5.45716 11.3406 5.45831 11.345C5.46061 11.3539 5.46388 11.3664 5.46818 11.3822C5.47677 11.4138 5.48945 11.4587 5.50655 11.515C5.54072 11.6275 5.59268 11.7861 5.6651 11.9756C5.80948 12.3532 6.03766 12.8598 6.3728 13.3694C7.04087 14.3853 8.17344 15.4651 9.94436 15.4651V15.0651V14.6651C8.55103 14.6651 7.63284 13.8295 7.04121 12.9299C6.7465 12.4817 6.5426 12.0306 6.41235 11.6899C6.34746 11.5202 6.30148 11.3795 6.27203 11.2825C6.25732 11.2341 6.24677 11.1967 6.24009 11.1721C6.23675 11.1598 6.23438 11.1508 6.23294 11.1452C6.23222 11.1424 6.23173 11.1405 6.23147 11.1394C6.23134 11.1389 6.23127 11.1386 6.23125 11.1386C6.23124 11.1385 6.23125 11.1386 6.23127 11.1387C6.23128 11.1387 6.23131 11.1388 6.23131 11.1388C6.23134 11.1389 6.23137 11.1391 5.84284 11.2341ZM9.94436 15.0651V15.4651H19.4257V15.0651V14.6651H9.94436V15.0651ZM19.4257 15.0651L19.8257 15.066L19.8267 14.6051L19.4267 14.6042L19.0267 14.6034L19.0257 15.0643L19.4257 15.0651ZM19.4267 14.6042L19.1742 14.9144L21.1068 16.4876L21.3593 16.1774L21.6118 15.8672L19.6792 14.294L19.4267 14.6042ZM21.3593 16.1774L21.1075 15.8666L19.171 17.4349L19.4228 17.7458L19.6745 18.0566L21.611 16.4883L21.3593 16.1774ZM19.4228 17.7458L19.8228 17.7467L19.8237 17.3023L19.4238 17.3014L19.0238 17.3006L19.0228 17.7449L19.4228 17.7458ZM19.4238 17.3014V16.9015H8.9639V17.3014V17.7014H19.4238V17.3014ZM8.9639 17.3014L8.9639 16.9015C7.00562 16.9014 5.71813 15.5433 4.89514 14.0725C4.48763 13.3442 4.20892 12.6122 4.03201 12.0601C3.94379 11.7848 3.88145 11.5559 3.84139 11.3971C3.82138 11.3176 3.80695 11.2558 3.79767 11.2145C3.79303 11.1939 3.78968 11.1784 3.78756 11.1684C3.7865 11.1634 3.78575 11.1598 3.78529 11.1576C3.78507 11.1565 3.78491 11.1558 3.78484 11.1554C3.7848 11.1552 3.78478 11.1551 3.78478 11.1551C3.78478 11.1551 3.78479 11.1552 3.78479 11.1552C3.78481 11.1552 3.78483 11.1554 3.39267 11.2341C3.0005 11.3129 3.00053 11.3131 3.00057 11.3132C3.00059 11.3133 3.00063 11.3135 3.00067 11.3137C3.00074 11.3141 3.00083 11.3145 3.00094 11.3151C3.00116 11.3162 3.00146 11.3176 3.00184 11.3194C3.00259 11.3231 3.00365 11.3282 3.00503 11.3346C3.00778 11.3476 3.01181 11.3662 3.01716 11.39C3.02785 11.4376 3.04386 11.5061 3.06567 11.5926C3.10926 11.7655 3.17614 12.0107 3.27017 12.3042C3.45779 12.8897 3.75579 13.6746 4.19701 14.4631C5.07151 16.026 6.56963 17.7014 8.9639 17.7014L8.9639 17.3014ZM3.39267 11.2341V11.6341H5.84284V11.2341V10.8341H3.39267V11.2341Z" fill="#303030" mask="url(#path-7-inside-4_1383_154)"/>
<mask id="path-9-inside-5_1383_154" fill="white">
<path d="M12.1149 2.0991C15.8451 2.10004 18.5347 5.09718 18.5347 8.79434H16.149C16.149 6.66324 14.1862 4.61097 12.1178 4.60786L12.1188 5.13422L10.1823 3.34713L12.1149 1.55418V2.0991Z"/>
</mask>
<path d="M12.1149 2.0991C15.8451 2.10004 18.5347 5.09718 18.5347 8.79434H16.149C16.149 6.66324 14.1862 4.61097 12.1178 4.60786L12.1188 5.13422L10.1823 3.34713L12.1149 1.55418V2.0991Z" fill="#7F99AE"/>
<path d="M12.1149 2.0991H11.7149V2.49899L12.1148 2.49909L12.1149 2.0991ZM18.5347 8.79434V9.19434H18.9347V8.79434H18.5347ZM16.149 8.79434H15.749V9.19434H16.149V8.79434ZM12.1178 4.60786L12.1184 4.20786L11.7171 4.20726L11.7178 4.6086L12.1178 4.60786ZM12.1188 5.13422L11.8475 5.42817L12.5205 6.04922L12.5188 5.13348L12.1188 5.13422ZM10.1823 3.34713L9.91022 3.05389L9.59331 3.34791L9.911 3.64108L10.1823 3.34713ZM12.1149 1.55418H12.5149V0.637462L11.8428 1.26094L12.1149 1.55418ZM12.1149 2.0991L12.1148 2.49909C15.6012 2.49998 18.1347 5.29442 18.1347 8.79434H18.5347H18.9347C18.9347 4.89994 16.089 1.70011 12.115 1.6991L12.1149 2.0991ZM18.5347 8.79434V8.39434H16.149V8.79434V9.19434H18.5347V8.79434ZM16.149 8.79434H16.549C16.549 7.6081 16.0053 6.46678 15.1975 5.62598C14.3902 4.78572 13.2838 4.20961 12.1184 4.20786L12.1178 4.60786L12.1172 5.00786C13.0201 5.00921 13.9294 5.46079 14.6206 6.18023C15.3113 6.89912 15.749 7.84948 15.749 8.79434H16.149ZM12.1178 4.60786L11.7178 4.6086L11.7188 5.13496L12.1188 5.13422L12.5188 5.13348L12.5178 4.60712L12.1178 4.60786ZM12.1188 5.13422L12.39 4.84027L10.4535 3.05318L10.1823 3.34713L9.911 3.64108L11.8475 5.42817L12.1188 5.13422ZM10.1823 3.34713L10.4543 3.64037L12.3869 1.84742L12.1149 1.55418L11.8428 1.26094L9.91022 3.05389L10.1823 3.34713ZM12.1149 1.55418H11.7149V2.0991H12.1149H12.5149V1.55418H12.1149Z" fill="#303030" mask="url(#path-9-inside-5_1383_154)"/>
<mask id="path-11-inside-6_1383_154" fill="white">
<path d="M9.84981 4.46309C7.80639 4.46666 5.84159 6.51606 5.84107 8.67203L6.32641 8.67105L4.62916 10.6945L2.92117 8.6818L3.43484 8.67984C3.43043 4.98346 6.30033 1.98201 9.84591 1.97581L9.84981 4.46309Z"/>
</mask>
<path d="M9.84981 4.46309C7.80639 4.46666 5.84159 6.51606 5.84107 8.67203L6.32641 8.67105L4.62916 10.6945L2.92117 8.6818L3.43484 8.67984C3.43043 4.98346 6.30033 1.98201 9.84591 1.97581L9.84981 4.46309Z" fill="#E5CEAE"/>
<path d="M9.84981 4.46309L9.85051 4.86308L10.2504 4.86239L10.2498 4.46246L9.84981 4.46309ZM5.84107 8.67203L5.44107 8.67193L5.44097 9.07283L5.84187 9.07203L5.84107 8.67203ZM6.32641 8.67105L6.63287 8.92811L7.18546 8.26933L6.32561 8.27106L6.32641 8.67105ZM4.62916 10.6945L4.32418 10.9533L4.63094 11.3148L4.93562 10.9515L4.62916 10.6945ZM2.92117 8.6818L2.91965 8.2818L2.05989 8.28507L2.61619 8.94061L2.92117 8.6818ZM3.43484 8.67984L3.43636 9.07984L3.83531 9.07832L3.83484 8.67937L3.43484 8.67984ZM9.84591 1.97581L10.2459 1.97518L10.2453 1.57512L9.84521 1.57581L9.84591 1.97581ZM9.84981 4.46309L9.84912 4.06309C8.69505 4.06511 7.59426 4.64163 6.79 5.48423C5.9848 6.32782 5.44136 7.47435 5.44107 8.67193L5.84107 8.67203L6.24106 8.67213C6.24129 7.71374 6.68051 6.75759 7.3687 6.03659C8.05783 5.3146 8.96116 4.86464 9.85051 4.86308L9.84981 4.46309ZM5.84107 8.67203L5.84187 9.07203L6.32722 9.07105L6.32641 8.67105L6.32561 8.27106L5.84026 8.27204L5.84107 8.67203ZM6.32641 8.67105L6.01995 8.414L4.3227 10.4374L4.62916 10.6945L4.93562 10.9515L6.63287 8.92811L6.32641 8.67105ZM4.62916 10.6945L4.93415 10.4357L3.22615 8.42298L2.92117 8.6818L2.61619 8.94061L4.32418 10.9533L4.62916 10.6945ZM2.92117 8.6818L2.92269 9.08179L3.43636 9.07984L3.43484 8.67984L3.43332 8.27985L2.91965 8.2818L2.92117 8.6818ZM3.43484 8.67984L3.83484 8.67937C3.83067 5.1879 6.53743 2.38159 9.84661 2.37581L9.84591 1.97581L9.84521 1.57581C6.06322 1.58243 3.03019 4.77903 3.03484 8.68032L3.43484 8.67984ZM9.84591 1.97581L9.44591 1.97644L9.44982 4.46372L9.84981 4.46309L10.2498 4.46246L10.2459 1.97518L9.84591 1.97581Z" fill="#303030" mask="url(#path-11-inside-6_1383_154)"/>
<mask id="path-13-inside-7_1383_154" fill="white">
<path d="M29.9037 1.55858C33.3473 1.55341 36.4066 4.54988 36.4124 8.24699H33.8324C33.829 6.11594 31.9193 4.06692 29.9105 4.06734L29.9125 4.61128L28.0287 2.81149L29.9027 0.99999L29.9037 1.55858Z"/>
</mask>
<path d="M29.9037 1.55858C33.3473 1.55341 36.4066 4.54988 36.4124 8.24699H33.8324C33.829 6.11594 31.9193 4.06692 29.9105 4.06734L29.9125 4.61128L28.0287 2.81149L29.9027 0.99999L29.9037 1.55858Z" fill="#5BA27E"/>
<path d="M29.9037 1.55858L29.5037 1.55928L29.5044 1.95917L29.9043 1.95857L29.9037 1.55858ZM36.4124 8.24699V8.64698H36.813L36.8124 8.24636L36.4124 8.24699ZM33.8324 8.24699L33.4324 8.24761L33.433 8.64698H33.8324V8.24699ZM29.9105 4.06734L29.9104 3.66735L29.5091 3.66743L29.5105 4.06878L29.9105 4.06734ZM29.9125 4.61128L29.6362 4.90049L30.3158 5.54988L30.3125 4.60984L29.9125 4.61128ZM28.0287 2.81149L27.7507 2.5239L27.4514 2.81318L27.7524 3.10071L28.0287 2.81149ZM29.9027 0.99999L30.3027 0.999291L30.3011 0.0585976L29.6247 0.712395L29.9027 0.99999ZM29.9037 1.55858L29.9043 1.95857C33.1213 1.95374 36.007 4.76566 36.0124 8.24761L36.4124 8.24699L36.8124 8.24636C36.8063 4.33411 33.5733 1.15307 29.9031 1.15858L29.9037 1.55858ZM36.4124 8.24699V7.84699H33.8324V8.24699V8.64698H36.4124V8.24699ZM33.8324 8.24699L34.2324 8.24636C34.2305 7.06399 33.7023 5.92485 32.9155 5.08448C32.1297 4.24523 31.0504 3.6671 29.9104 3.66735L29.9105 4.06734L29.9106 4.46734C30.7795 4.46715 31.6593 4.91333 32.3315 5.63124C33.0026 6.34804 33.4309 7.29893 33.4324 8.24761L33.8324 8.24699ZM29.9105 4.06734L29.5105 4.06878L29.5125 4.61272L29.9125 4.61128L30.3125 4.60984L30.3105 4.06591L29.9105 4.06734ZM29.9125 4.61128L30.1888 4.32207L28.305 2.52228L28.0287 2.81149L27.7524 3.10071L29.6362 4.90049L29.9125 4.61128ZM28.0287 2.81149L28.3067 3.09909L30.1807 1.28758L29.9027 0.99999L29.6247 0.712395L27.7507 2.5239L28.0287 2.81149ZM29.9027 0.99999L29.5027 1.00069L29.5037 1.55928L29.9037 1.55858L30.3037 1.55788L30.3027 0.999291L29.9027 0.99999Z" fill="#303030" mask="url(#path-13-inside-7_1383_154)"/>
<mask id="path-15-inside-8_1383_154" fill="white">
<path d="M27.7882 4.03415C25.7448 4.03772 23.7799 6.08706 23.7795 8.24309L24.2824 8.24212L22.5754 10.2646L20.8567 8.25286L21.3733 8.2509C21.3688 4.5546 24.2379 1.55331 27.7833 1.54687L27.7882 4.03415Z"/>
</mask>
<path d="M27.7882 4.03415C25.7448 4.03772 23.7799 6.08706 23.7795 8.24309L24.2824 8.24212L22.5754 10.2646L20.8567 8.25286L21.3733 8.2509C21.3688 4.5546 24.2379 1.55331 27.7833 1.54687L27.7882 4.03415Z" fill="#CCEADA"/>
<path d="M27.7882 4.03415L27.7889 4.43415L28.189 4.43345L28.1882 4.03336L27.7882 4.03415ZM23.7795 8.24309L23.3795 8.24301L23.3794 8.64387L23.7803 8.64309L23.7795 8.24309ZM24.2824 8.24212L24.5881 8.50011L25.1449 7.84044L24.2816 7.84212L24.2824 8.24212ZM22.5754 10.2646L22.2713 10.5244L22.5772 10.8825L22.8811 10.5226L22.5754 10.2646ZM20.8567 8.25286L20.8551 7.85286L19.9916 7.85613L20.5525 8.51268L20.8567 8.25286ZM21.3733 8.2509L21.3748 8.6509L21.7737 8.64939L21.7733 8.25042L21.3733 8.2509ZM27.7833 1.54687L28.1833 1.54609L28.1826 1.14615L27.7826 1.14688L27.7833 1.54687ZM27.7882 4.03415L27.7875 3.63415C26.6334 3.63617 25.5326 4.21268 24.7284 5.05527C23.9232 5.89886 23.3797 7.04539 23.3795 8.24301L23.7795 8.24309L24.1795 8.24317C24.1797 7.28477 24.6189 6.32862 25.3071 5.60763C25.9962 4.88565 26.8995 4.4357 27.7889 4.43415L27.7882 4.03415ZM23.7795 8.24309L23.7803 8.64309L24.2832 8.64211L24.2824 8.24212L24.2816 7.84212L23.7787 7.8431L23.7795 8.24309ZM24.2824 8.24212L23.9767 7.98412L22.2697 10.0066L22.5754 10.2646L22.8811 10.5226L24.5881 8.50011L24.2824 8.24212ZM22.5754 10.2646L22.8795 10.0047L21.1608 7.99303L20.8567 8.25286L20.5525 8.51268L22.2713 10.5244L22.5754 10.2646ZM20.8567 8.25286L20.8582 8.65285L21.3748 8.6509L21.3733 8.2509L21.3717 7.85091L20.8551 7.85286L20.8567 8.25286ZM21.3733 8.2509L21.7733 8.25042C21.769 4.75899 24.4751 1.95287 27.7841 1.94687L27.7833 1.54687L27.7826 1.14688C24.0008 1.15374 20.9685 4.35021 20.9733 8.25139L21.3733 8.2509ZM27.7833 1.54687L27.3834 1.54766L27.3882 4.03494L27.7882 4.03415L28.1882 4.03336L28.1833 1.54609L27.7833 1.54687Z" fill="#303030" mask="url(#path-15-inside-8_1383_154)"/>
</svg>
