<svg width="42" height="14" viewBox="0 0 42 14" fill="none" xmlns="http://www.w3.org/2000/svg">
<path d="M4.23248 11.0114C4.26098 11.0476 5.49553 12.6032 7.47861 12.6032H1.00001V11.0114H4.23248ZM1.44338 12.1598H4.836C4.45998 11.8914 4.18894 11.6223 4.03423 11.4547H1.44338V12.1598Z" fill="#303030"/>
<path d="M16.9809 11.0121C17.0005 11.0371 18.2375 12.6049 20.228 12.6049H15.7817V11.0121H16.9809ZM16.2251 12.1616H17.5854C17.2854 11.9475 17.0511 11.7345 16.8911 11.5727C16.8494 11.5305 16.8136 11.4901 16.7817 11.4555H16.2251V12.1616Z" fill="#303030"/>
<path d="M29.7304 11.0121C29.7499 11.0371 30.987 12.6049 32.9775 12.6049H28.5311V11.0121H29.7304ZM28.9745 12.1616H30.3349C30.0348 11.9475 29.8005 11.7345 29.6405 11.5727C29.5988 11.5305 29.563 11.4901 29.5311 11.4555H28.9745V12.1616Z" fill="#303030"/>
<mask id="path-4-inside-1_1389_141" fill="white">
<path d="M4.4494 8.28391C4.4494 8.28391 5.11744 11.0105 7.37131 11.0105H14.1253V10.6834L15.5023 11.8035L14.1224 12.9197V12.6033H6.67306C3.57546 12.6033 2.70577 8.29141 2.70426 8.28391H4.4494Z"/>
</mask>
<path d="M4.4494 8.28391L4.83791 8.18872L4.76323 7.8839H4.4494V8.28391ZM14.1253 11.0105V11.4105H14.5253V11.0105H14.1253ZM14.1253 10.6834L14.3777 10.3731L13.7253 9.84232V10.6834H14.1253ZM15.5023 11.8035L15.7538 12.1145L16.1372 11.8044L15.7547 11.4932L15.5023 11.8035ZM14.1224 12.9197H13.7224V13.7578L14.3739 13.2307L14.1224 12.9197ZM14.1224 12.6033H14.5224V12.2033H14.1224V12.6033ZM2.70426 8.28391V7.8839H2.2157L2.31212 8.36285L2.70426 8.28391ZM4.4494 8.28391C4.06088 8.3791 4.06092 8.37925 4.06097 8.37942C4.06098 8.37949 4.06103 8.37967 4.06106 8.37981C4.06113 8.3801 4.06121 8.38042 4.0613 8.38078C4.06148 8.38151 4.06171 8.38241 4.06197 8.38347C4.06251 8.38559 4.06321 8.38837 4.06409 8.39178C4.06586 8.3986 4.06832 8.40797 4.07152 8.41972C4.07792 8.4432 4.08727 8.47622 4.0998 8.51743C4.12483 8.59976 4.16272 8.71525 4.21542 8.85293C4.32034 9.12703 4.48644 9.49559 4.73105 9.86715C5.21808 10.607 6.05574 11.4105 7.37131 11.4105V11.0105V10.6105C6.43301 10.6105 5.80972 10.0507 5.39926 9.42726C5.19512 9.11717 5.05334 8.80408 4.96257 8.56694C4.91742 8.449 4.88552 8.35148 4.86521 8.2847C4.85507 8.25135 4.84786 8.2258 4.84338 8.20934C4.84114 8.20111 4.83958 8.19517 4.83867 8.19168C4.83822 8.18993 4.83794 8.18879 4.83781 8.18829C4.83775 8.18804 4.83772 8.18795 4.83774 8.18802C4.83775 8.18806 4.83777 8.18813 4.8378 8.18825C4.83781 8.18831 4.83784 8.18842 4.83785 8.18845C4.83788 8.18858 4.83791 8.18872 4.4494 8.28391ZM7.37131 11.0105V11.4105H14.1253V11.0105V10.6105H7.37131V11.0105ZM14.1253 11.0105H14.5253V10.6834H14.1253H13.7253V11.0105H14.1253ZM14.1253 10.6834L13.8729 10.9937L15.2499 12.1138L15.5023 11.8035L15.7547 11.4932L14.3777 10.3731L14.1253 10.6834ZM15.5023 11.8035L15.2507 11.4925L13.8708 12.6087L14.1224 12.9197L14.3739 13.2307L15.7538 12.1145L15.5023 11.8035ZM14.1224 12.9197H14.5224V12.6033H14.1224H13.7224V12.9197H14.1224ZM14.1224 12.6033V12.2033H6.67306V12.6033V13.0033H14.1224V12.6033ZM6.67306 12.6033V12.2033C5.34194 12.2033 4.45547 11.2836 3.87655 10.2508C3.30214 9.22615 3.09427 8.1944 3.0964 8.20497L2.70426 8.28391L2.31212 8.36285C2.31576 8.38091 2.54349 9.50886 3.17871 10.642C3.8094 11.7671 4.90658 13.0033 6.67306 13.0033V12.6033ZM2.70426 8.28391V8.68391H4.4494V8.28391V7.8839H2.70426V8.28391Z" fill="#303030" mask="url(#path-4-inside-1_1389_141)"/>
<mask id="path-6-inside-2_1389_141" fill="white">
<path d="M17.1985 8.28391C17.1985 8.28391 17.8666 11.0105 20.1204 11.0105H26.8744V10.6834L28.2514 11.8035L26.8715 12.9197V12.6033H19.4222C16.3247 12.6033 15.455 8.29173 15.4534 8.28391H17.1985Z"/>
</mask>
<path d="M17.1985 8.28391L17.587 8.18872L17.5124 7.8839H17.1985V8.28391ZM26.8744 11.0105V11.4105H27.2744V11.0105H26.8744ZM26.8744 10.6834L27.1269 10.3731L26.4744 9.84232V10.6834H26.8744ZM28.2514 11.8035L28.503 12.1145L28.8864 11.8044L28.5038 11.4932L28.2514 11.8035ZM26.8715 12.9197H26.4715V13.7578L27.1231 13.2307L26.8715 12.9197ZM26.8715 12.6033H27.2715V12.2033H26.8715V12.6033ZM15.4534 8.28391V7.8839H14.9648L15.0613 8.36285L15.4534 8.28391ZM17.1985 8.28391C16.81 8.3791 16.8101 8.37925 16.8101 8.37942C16.8101 8.37949 16.8102 8.37967 16.8102 8.37981C16.8103 8.3801 16.8103 8.38042 16.8104 8.38078C16.8106 8.38151 16.8108 8.38241 16.8111 8.38347C16.8116 8.38559 16.8123 8.38837 16.8132 8.39178C16.815 8.3986 16.8175 8.40797 16.8207 8.41972C16.8271 8.4432 16.8364 8.47622 16.8489 8.51743C16.874 8.59976 16.9119 8.71525 16.9646 8.85293C17.0695 9.12703 17.2356 9.49559 17.4802 9.86715C17.9672 10.607 18.8049 11.4105 20.1204 11.4105V11.0105V10.6105C19.1821 10.6105 18.5588 10.0507 18.1484 9.42726C17.9443 9.11717 17.8025 8.80408 17.7117 8.56694C17.6666 8.449 17.6346 8.35148 17.6143 8.2847C17.6042 8.25135 17.597 8.2258 17.5925 8.20934C17.5903 8.20111 17.5887 8.19517 17.5878 8.19168C17.5874 8.18993 17.5871 8.18879 17.5869 8.18829C17.5869 8.18804 17.5869 8.18795 17.5869 8.18802C17.5869 8.18806 17.5869 8.18813 17.5869 8.18825C17.5869 8.18831 17.587 8.18842 17.587 8.18845C17.587 8.18858 17.587 8.18872 17.1985 8.28391ZM20.1204 11.0105V11.4105H26.8744V11.0105V10.6105H20.1204V11.0105ZM26.8744 11.0105H27.2744V10.6834H26.8744H26.4744V11.0105H26.8744ZM26.8744 10.6834L26.622 10.9937L27.999 12.1138L28.2514 11.8035L28.5038 11.4932L27.1269 10.3731L26.8744 10.6834ZM28.2514 11.8035L27.9998 11.4925L26.6199 12.6087L26.8715 12.9197L27.1231 13.2307L28.503 12.1145L28.2514 11.8035ZM26.8715 12.9197H27.2715V12.6033H26.8715H26.4715V12.9197H26.8715ZM26.8715 12.6033V12.2033H19.4222V12.6033V13.0033H26.8715V12.6033ZM19.4222 12.6033V12.2033C18.0911 12.2033 17.2047 11.2836 16.6257 10.2509C16.0513 9.2263 15.8434 8.19456 15.8455 8.20496L15.4534 8.28391L15.0613 8.36285C15.0649 8.38108 15.2927 9.50903 15.9279 10.6421C16.5586 11.7672 17.6558 13.0033 19.4222 13.0033V12.6033ZM15.4534 8.28391V8.68391H17.1985V8.28391V7.8839H15.4534V8.28391Z" fill="#303030" mask="url(#path-6-inside-2_1389_141)"/>
<mask id="path-8-inside-3_1389_141" fill="white">
<path d="M29.9481 8.28391C29.9481 8.28391 30.6161 11.0105 32.87 11.0105H39.624V10.6834L41 11.8035L39.6211 12.9197V12.6033H32.1717C29.076 12.6033 28.2055 8.29649 28.2029 8.28391H29.9481Z"/>
</mask>
<path d="M29.9481 8.28391L30.3366 8.18872L30.2619 7.8839H29.9481V8.28391ZM39.624 11.0105V11.4105H40.024V11.0105H39.624ZM39.624 10.6834L39.8765 10.3731L39.224 9.84194V10.6834H39.624ZM41 11.8035L41.2517 12.1144L41.6347 11.8044L41.2525 11.4933L41 11.8035ZM39.6211 12.9197H39.2211V13.7581L39.8727 13.2306L39.6211 12.9197ZM39.6211 12.6033H40.0211V12.2033H39.6211V12.6033ZM28.2029 8.28391V7.8839H27.7143L27.8108 8.36293L28.2029 8.28391ZM29.9481 8.28391C29.5596 8.3791 29.5596 8.37925 29.5597 8.37942C29.5597 8.37949 29.5597 8.37967 29.5597 8.37981C29.5598 8.3801 29.5599 8.38042 29.56 8.38078C29.5602 8.38151 29.5604 8.38241 29.5607 8.38347C29.5612 8.38559 29.5619 8.38837 29.5628 8.39178C29.5645 8.3986 29.567 8.40797 29.5702 8.41972C29.5766 8.4432 29.586 8.47622 29.5985 8.51743C29.6235 8.59976 29.6614 8.71525 29.7141 8.85293C29.819 9.12703 29.9851 9.49559 30.2297 9.86715C30.7168 10.607 31.5544 11.4105 32.87 11.4105V11.0105V10.6105C31.9317 10.6105 31.3084 10.0507 30.8979 9.42726C30.6938 9.11717 30.552 8.80408 30.4613 8.56694C30.4161 8.449 30.3842 8.35148 30.3639 8.2847C30.3538 8.25135 30.3466 8.2258 30.3421 8.20934C30.3398 8.20111 30.3383 8.19517 30.3374 8.19168C30.3369 8.18993 30.3366 8.18879 30.3365 8.18829C30.3364 8.18804 30.3364 8.18795 30.3364 8.18802C30.3364 8.18806 30.3365 8.18813 30.3365 8.18825C30.3365 8.18831 30.3365 8.18842 30.3365 8.18845C30.3366 8.18858 30.3366 8.18872 29.9481 8.28391ZM32.87 11.0105V11.4105H39.624V11.0105V10.6105H32.87V11.0105ZM39.624 11.0105H40.024V10.6834H39.624H39.224V11.0105H39.624ZM39.624 10.6834L39.3715 10.9936L40.7475 12.1137L41 11.8035L41.2525 11.4933L39.8765 10.3731L39.624 10.6834ZM41 11.8035L40.7483 11.4926L39.3694 12.6088L39.6211 12.9197L39.8727 13.2306L41.2517 12.1144L41 11.8035ZM39.6211 12.9197H40.0211V12.6033H39.6211H39.2211V12.9197H39.6211ZM39.6211 12.6033V12.2033H32.1717V12.6033V13.0033H39.6211V12.6033ZM32.1717 12.6033V12.2033C30.8414 12.2033 29.9552 11.2847 29.3762 10.2526C28.8018 9.22859 28.5934 8.19685 28.5951 8.20489L28.2029 8.28391L27.8108 8.36293C27.815 8.38355 28.0432 9.51151 28.6785 10.644C29.3094 11.7685 30.4063 13.0033 32.1717 13.0033V12.6033ZM28.2029 8.28391V8.68391H29.9481V8.28391V7.8839H28.2029V8.28391Z" fill="#303030" mask="url(#path-8-inside-3_1389_141)"/>
<mask id="path-10-inside-4_1389_141" fill="white">
<path d="M8.9165 1.78077C11.5737 1.78114 13.4896 3.91474 13.4898 6.54646H11.7906C11.7903 5.02974 10.3925 3.56931 8.91943 3.56693L8.9204 3.94193L7.5405 2.67043L8.9165 1.39502V1.78077Z"/>
</mask>
<path d="M8.9165 1.78077H8.51649V2.18072L8.91644 2.18077L8.9165 1.78077ZM13.4898 6.54646V6.94646H13.8898L13.8898 6.54642L13.4898 6.54646ZM11.7906 6.54646L11.3906 6.54653L11.3906 6.94646H11.7906V6.54646ZM8.91943 3.56693L8.92008 3.16692L8.51838 3.16627L8.51942 3.56797L8.91943 3.56693ZM8.9204 3.94193L8.64935 4.2361L9.32279 4.85664L9.32041 3.94089L8.9204 3.94193ZM7.5405 2.67043L7.26858 2.37706L6.95115 2.6713L7.26945 2.96459L7.5405 2.67043ZM8.9165 1.39502H9.3165V0.47885L8.64458 1.10166L8.9165 1.39502ZM8.9165 1.78077L8.91644 2.18077C11.33 2.18111 13.0896 4.11224 13.0898 6.54649L13.4898 6.54646L13.8898 6.54642C13.8896 3.71725 11.8173 1.38116 8.91655 1.38076L8.9165 1.78077ZM13.4898 6.54646V6.14645H11.7906V6.54646V6.94646H13.4898V6.54646ZM11.7906 6.54646L12.1906 6.54638C12.1904 5.66727 11.7878 4.8275 11.1956 4.21158C10.6039 3.59619 9.78772 3.16833 8.92008 3.16692L8.91943 3.56693L8.91878 3.96693C9.52419 3.96791 10.1434 4.27145 10.6189 4.76606C11.094 5.26013 11.3904 5.90893 11.3906 6.54653L11.7906 6.54646ZM8.91943 3.56693L8.51942 3.56797L8.5204 3.94297L8.9204 3.94193L9.32041 3.94089L9.31943 3.56588L8.91943 3.56693ZM8.9204 3.94193L9.19146 3.64777L7.81156 2.37627L7.5405 2.67043L7.26945 2.96459L8.64935 4.2361L8.9204 3.94193ZM7.5405 2.67043L7.81242 2.9638L9.18842 1.68839L8.9165 1.39502L8.64458 1.10166L7.26858 2.37706L7.5405 2.67043ZM8.9165 1.39502H8.51649V1.78077H8.9165H9.3165V1.39502H8.9165Z" fill="#303030" mask="url(#path-10-inside-4_1389_141)"/>
<mask id="path-12-inside-5_1389_141" fill="white">
<path d="M13.4122 8.18491C13.412 10.9526 12.2598 11.2523 12.2598 11.2523L9.03125 11.2523C10.4871 11.2523 11.6974 9.72255 11.6992 8.18784L11.3389 8.18881L12.5596 6.75129L13.7842 8.18491L13.4122 8.18491Z"/>
</mask>
<path d="M13.4122 8.18491L13.4122 7.7849L13.0122 7.7849L13.0122 8.18488L13.4122 8.18491ZM12.2598 11.2523L12.2598 11.6523L12.311 11.6523L12.3605 11.6395L12.2598 11.2523ZM11.6992 8.18784L12.0993 8.18832L12.0997 7.78674L11.6982 7.78783L11.6992 8.18784ZM11.3389 8.18881L11.034 7.92989L10.4724 8.59117L11.34 8.58882L11.3389 8.18881ZM12.5596 6.75129L12.8638 6.49149L12.5587 6.13438L12.2547 6.49238L12.5596 6.75129ZM13.7842 8.18491L13.7842 8.58491L14.652 8.58491L14.0884 7.9251L13.7842 8.18491ZM13.4122 8.18491L13.0122 8.18488C13.0121 9.5162 12.7347 10.1961 12.5058 10.5306C12.3915 10.6977 12.2849 10.7852 12.2194 10.8285C12.1861 10.8504 12.162 10.862 12.1508 10.8668C12.1451 10.8692 12.1427 10.87 12.1439 10.8696C12.1445 10.8694 12.1461 10.8689 12.1486 10.8681C12.1498 10.8678 12.1513 10.8673 12.1531 10.8668C12.154 10.8666 12.1549 10.8663 12.1559 10.8661C12.1564 10.8659 12.1569 10.8658 12.1575 10.8656C12.1577 10.8656 12.1581 10.8655 12.1583 10.8654C12.1587 10.8653 12.1591 10.8652 12.2598 11.2523C12.3605 11.6395 12.3609 11.6393 12.3614 11.6392C12.3615 11.6392 12.362 11.6391 12.3623 11.639C12.3629 11.6388 12.3635 11.6387 12.3641 11.6385C12.3654 11.6381 12.3668 11.6378 12.3682 11.6374C12.3711 11.6366 12.3742 11.6357 12.3777 11.6346C12.3845 11.6326 12.3925 11.6301 12.4016 11.627C12.4197 11.6208 12.442 11.6125 12.4679 11.6013C12.5196 11.5789 12.5855 11.5454 12.6603 11.496C12.8108 11.3966 12.9923 11.2362 13.166 10.9824C13.5133 10.4751 13.8121 9.62132 13.8122 8.18493L13.4122 8.18491ZM12.2598 11.2523L12.2598 10.8523L9.03125 10.8523L9.03125 11.2523L9.03125 11.6523L12.2598 11.6523L12.2598 11.2523ZM9.03125 11.2523L9.03125 11.6523C9.9045 11.6523 10.6751 11.1946 11.2162 10.5536C11.7573 9.91255 12.0982 9.05661 12.0993 8.18832L11.6992 8.18784L11.2992 8.18735C11.2984 8.85378 11.0332 9.53009 10.6048 10.0376C10.1763 10.5452 9.61386 10.8523 9.03125 10.8523L9.03125 11.2523ZM11.6992 8.18784L11.6982 7.78783L11.3378 7.78881L11.3389 8.18881L11.34 8.58882L11.7003 8.58784L11.6992 8.18784ZM11.3389 8.18881L11.6438 8.44773L12.8645 7.01021L12.5596 6.75129L12.2547 6.49238L11.034 7.92989L11.3389 8.18881ZM12.5596 6.75129L12.2555 7.0111L13.4801 8.44471L13.7842 8.18491L14.0884 7.9251L12.8638 6.49149L12.5596 6.75129ZM13.7842 8.18491L13.7842 7.7849L13.4122 7.7849L13.4122 8.18491L13.4122 8.58491L13.7842 8.58491L13.7842 8.18491Z" fill="#303030" mask="url(#path-12-inside-5_1389_141)"/>
<mask id="path-14-inside-6_1389_141" fill="white">
<path d="M26.1614 8.18491C26.1612 10.9276 25.0505 11.2382 25.0305 11.2435L21.7687 11.2435C23.2246 11.2435 24.4466 9.72254 24.4484 8.18784L24.0881 8.18881L25.3088 6.75129L26.5334 8.18491L26.1614 8.18491Z"/>
</mask>
<path d="M26.1614 8.18491L26.1614 7.7849L25.7614 7.7849L25.7613 8.18488L26.1614 8.18491ZM25.0305 11.2435L25.0305 11.6435L25.0832 11.6435L25.1342 11.6299L25.0305 11.2435ZM24.4484 8.18784L24.8484 8.18833L24.8489 7.78674L24.4474 7.78783L24.4484 8.18784ZM24.0881 8.18881L23.7832 7.92989L23.2216 8.59117L24.0892 8.58882L24.0881 8.18881ZM25.3088 6.75129L25.6129 6.49149L25.3079 6.13438L25.0039 6.49238L25.3088 6.75129ZM26.5334 8.18491L26.5334 8.58491L27.4012 8.58491L26.8376 7.9251L26.5334 8.18491ZM26.1614 8.18491L25.7613 8.18488C25.7613 9.50556 25.4935 10.1837 25.2703 10.5192C25.0519 10.8475 24.8576 10.8758 24.9267 10.8572L25.0305 11.2435L25.1342 11.6299C25.2234 11.6059 25.5945 11.4762 25.9364 10.9623C26.2736 10.4554 26.5613 9.60697 26.5614 8.18493L26.1614 8.18491ZM25.0305 11.2435L25.0305 10.8435L21.7687 10.8435L21.7687 11.2435L21.7687 11.6435L25.0305 11.6435L25.0305 11.2435ZM21.7687 11.2435L21.7687 11.6435C22.6407 11.6435 23.4139 11.1892 23.9582 10.5507C24.5027 9.91204 24.8474 9.05783 24.8484 8.18833L24.4484 8.18784L24.0484 8.18734C24.0476 8.85254 23.7804 9.52618 23.3494 10.0317C22.9183 10.5374 22.3526 10.8435 21.7687 10.8435L21.7687 11.2435ZM24.4484 8.18784L24.4474 7.78783L24.087 7.78881L24.0881 8.18881L24.0892 8.58882L24.4495 8.58784L24.4484 8.18784ZM24.0881 8.18881L24.393 8.44773L25.6137 7.01021L25.3088 6.75129L25.0039 6.49238L23.7832 7.92989L24.0881 8.18881ZM25.3088 6.75129L25.0047 7.0111L26.2293 8.44471L26.5334 8.18491L26.8376 7.9251L25.6129 6.49149L25.3088 6.75129ZM26.5334 8.18491L26.5334 7.7849L26.1614 7.7849L26.1614 8.18491L26.1614 8.58491L26.5334 8.58491L26.5334 8.18491Z" fill="#303030" mask="url(#path-14-inside-6_1389_141)"/>
<mask id="path-16-inside-7_1389_141" fill="white">
<path d="M38.9118 8.18491C38.9116 10.9304 37.7978 11.2388 37.7799 11.2435L34.5182 11.2435C35.974 11.2435 37.196 9.72254 37.1979 8.18784L36.8375 8.18881L38.0582 6.75129L39.2829 8.18491L38.9118 8.18491Z"/>
</mask>
<path d="M38.9118 8.18491L38.9118 7.7849L38.5118 7.7849L38.5118 8.18488L38.9118 8.18491ZM37.7799 11.2435L37.7799 11.6435L37.8324 11.6435L37.8832 11.63L37.7799 11.2435ZM37.1979 8.18784L37.5979 8.18833L37.5984 7.78674L37.1968 7.78783L37.1979 8.18784ZM36.8375 8.18881L36.5326 7.92989L35.9711 8.59117L36.8386 8.58882L36.8375 8.18881ZM38.0582 6.75129L38.3624 6.49149L38.0573 6.13438L37.7533 6.49238L38.0582 6.75129ZM39.2829 8.18491L39.2829 8.58491L40.1506 8.58491L39.587 7.9251L39.2829 8.18491ZM38.9118 8.18491L38.5118 8.18488C38.5117 9.50684 38.2432 10.185 38.0197 10.52C37.801 10.848 37.6066 10.8758 37.6766 10.8571L37.7799 11.2435L37.8832 11.63C37.9712 11.6065 38.3426 11.4777 38.6853 10.9639C39.0232 10.4573 39.3117 9.60845 39.3118 8.18493L38.9118 8.18491ZM37.7799 11.2435L37.7799 10.8435L34.5182 10.8435L34.5182 11.2435L34.5182 11.6435L37.7799 11.6435L37.7799 11.2435ZM34.5182 11.2435L34.5182 11.6435C35.3902 11.6435 36.1634 11.1892 36.7077 10.5507C37.2521 9.91204 37.5968 9.05783 37.5979 8.18833L37.1979 8.18784L36.7979 8.18734C36.7971 8.85254 36.5298 9.52618 36.0989 10.0317C35.6677 10.5374 35.102 10.8435 34.5182 10.8435L34.5182 11.2435ZM37.1979 8.18784L37.1968 7.78783L36.8364 7.78881L36.8375 8.18881L36.8386 8.58882L37.199 8.58784L37.1979 8.18784ZM36.8375 8.18881L37.1424 8.44773L38.3631 7.01021L38.0582 6.75129L37.7533 6.49238L36.5326 7.92989L36.8375 8.18881ZM38.0582 6.75129L37.7541 7.0111L38.9787 8.44471L39.2829 8.18491L39.587 7.9251L38.3624 6.49149L38.0582 6.75129ZM39.2829 8.18491L39.2829 7.7849L38.9118 7.7849L38.9118 8.18491L38.9118 8.58491L39.2829 8.58491L39.2829 8.18491Z" fill="#303030" mask="url(#path-16-inside-7_1389_141)"/>
<mask id="path-18-inside-8_1389_141" fill="white">
<path d="M7.30411 3.46492C5.84833 3.46746 4.44847 4.92607 4.44861 6.46105L4.79431 6.46008L3.58531 7.89955L2.3685 6.46789L2.73472 6.46594C2.73149 3.83469 4.77564 1.6988 7.30118 1.69439L7.30411 3.46492Z"/>
</mask>
<path d="M7.30411 3.46492L7.30481 3.86492L7.70478 3.86423L7.70412 3.46426L7.30411 3.46492ZM4.44861 6.46105L4.0486 6.46109L4.04864 6.86219L4.44974 6.86106L4.44861 6.46105ZM4.79431 6.46008L5.10062 6.71734L5.65469 6.05764L4.79318 6.06007L4.79431 6.46008ZM3.58531 7.89955L3.28052 8.1586L3.58713 8.51934L3.89162 8.15681L3.58531 7.89955ZM2.3685 6.46789L2.36637 6.06789L1.50746 6.07247L2.06371 6.72694L2.3685 6.46789ZM2.73472 6.46594L2.73685 6.86594L3.13521 6.86381L3.13472 6.46545L2.73472 6.46594ZM7.30118 1.69439L7.70119 1.69373L7.70052 1.29369L7.30048 1.29438L7.30118 1.69439ZM7.30411 3.46492L7.30341 3.06491C6.44331 3.06642 5.63069 3.49486 5.04115 4.11202C4.45067 4.73017 4.04852 5.57384 4.0486 6.46109L4.44861 6.46105L4.84861 6.46102C4.84855 5.81329 5.14627 5.16016 5.61964 4.66462C6.09394 4.1681 6.70914 3.86596 7.30481 3.86492L7.30411 3.46492ZM4.44861 6.46105L4.44974 6.86106L4.79544 6.86008L4.79431 6.46008L4.79318 6.06007L4.44748 6.06105L4.44861 6.46105ZM4.79431 6.46008L4.48801 6.20282L3.27901 7.64229L3.58531 7.89955L3.89162 8.15681L5.10062 6.71734L4.79431 6.46008ZM3.58531 7.89955L3.8901 7.6405L2.67329 6.20884L2.3685 6.46789L2.06371 6.72694L3.28052 8.1586L3.58531 7.89955ZM2.3685 6.46789L2.37063 6.86789L2.73685 6.86594L2.73472 6.46594L2.73258 6.06594L2.36637 6.06789L2.3685 6.46789ZM2.73472 6.46594L3.13472 6.46545C3.13175 4.03944 5.01245 2.09839 7.30188 2.09439L7.30118 1.69439L7.30048 1.29438C4.53883 1.29921 2.33124 3.62993 2.33471 6.46643L2.73472 6.46594ZM7.30118 1.69439L6.90118 1.69505L6.90411 3.46558L7.30411 3.46492L7.70412 3.46426L7.70119 1.69373L7.30118 1.69439Z" fill="#303030" mask="url(#path-18-inside-8_1389_141)"/>
<mask id="path-20-inside-9_1389_141" fill="white">
<path d="M21.5884 1.3965C24.0411 1.39306 26.22 3.52576 26.2242 6.15731H24.3862C24.3839 4.64018 23.0233 3.181 21.5923 3.18168L21.5942 3.56938L20.2524 2.28909L21.5874 1.00001L21.5884 1.3965Z"/>
</mask>
<path d="M21.5884 1.3965L21.1884 1.39749L21.1893 1.79707L21.5889 1.79651L21.5884 1.3965ZM26.2242 6.15731V6.55731H26.6248L26.6242 6.15668L26.2242 6.15731ZM24.3862 6.15731L23.9862 6.15793L23.9869 6.55731H24.3862V6.15731ZM21.5923 3.18168L21.5921 2.78168L21.1902 2.78187L21.1923 3.1837L21.5923 3.18168ZM21.5942 3.56938L21.3181 3.85879L21.999 4.50844L21.9942 3.56737L21.5942 3.56938ZM20.2524 2.28909L19.9745 2.00134L19.6748 2.29082L19.9763 2.5785L20.2524 2.28909ZM21.5874 1.00001L21.9874 0.999028L21.9851 0.0599423L21.3095 0.712263L21.5874 1.00001ZM21.5884 1.3965L21.5889 1.79651C23.8153 1.79339 25.8204 3.74181 25.8242 6.15793L26.2242 6.15731L26.6242 6.15668C26.6197 3.30971 24.2668 0.992741 21.5878 0.996498L21.5884 1.3965ZM26.2242 6.15731V5.7573H24.3862V6.15731V6.55731H26.2242V6.15731ZM24.3862 6.15731L24.7862 6.15668C24.7849 5.28118 24.3941 4.44295 23.8169 3.82684C23.2408 3.21183 22.4431 2.78127 21.5921 2.78168L21.5923 3.18168L21.5925 3.58169C22.1725 3.58141 22.7706 3.8801 23.2331 4.37379C23.6945 4.86638 23.9852 5.5163 23.9862 6.15793L24.3862 6.15731ZM21.5923 3.18168L21.1923 3.1837L21.1942 3.5714L21.5942 3.56938L21.9942 3.56737L21.9923 3.17967L21.5923 3.18168ZM21.5942 3.56938L21.8703 3.27998L20.5285 1.99969L20.2524 2.28909L19.9763 2.5785L21.3181 3.85879L21.5942 3.56938ZM20.2524 2.28909L20.5303 2.57684L21.8652 1.28776L21.5874 1.00001L21.3095 0.712263L19.9745 2.00134L20.2524 2.28909ZM21.5874 1.00001L21.1874 1.001L21.1884 1.39749L21.5884 1.3965L21.9884 1.39552L21.9874 0.999028L21.5874 1.00001Z" fill="#303030" mask="url(#path-20-inside-9_1389_141)"/>
<mask id="path-22-inside-10_1389_141" fill="white">
<path d="M34.3378 1.3965C36.7905 1.39304 38.9695 3.52575 38.9736 6.15731H37.1357C37.1333 4.64016 35.7727 3.18098 34.3417 3.18168L34.3436 3.56938L33.0018 2.28909L34.3368 1.00001L34.3378 1.3965Z"/>
</mask>
<path d="M34.3378 1.3965L33.9378 1.39749L33.9388 1.79707L34.3384 1.79651L34.3378 1.3965ZM38.9736 6.15731V6.55731H39.3742L39.3736 6.15668L38.9736 6.15731ZM37.1357 6.15731L36.7357 6.15793L36.7363 6.55731H37.1357V6.15731ZM34.3417 3.18168L34.3415 2.78168L33.9397 2.78187L33.9417 3.1837L34.3417 3.18168ZM34.3436 3.56938L34.0675 3.85879L34.7484 4.50844L34.7437 3.56737L34.3436 3.56938ZM33.0018 2.28909L32.724 2.00134L32.4242 2.29082L32.7257 2.5785L33.0018 2.28909ZM34.3368 1.00001L34.7368 0.999028L34.7345 0.0599423L34.059 0.712263L34.3368 1.00001ZM34.3378 1.3965L34.3384 1.79651C36.5648 1.79337 38.5698 3.74179 38.5736 6.15793L38.9736 6.15731L39.3736 6.15668C39.3691 3.3097 37.0163 0.992719 34.3372 0.996498L34.3378 1.3965ZM38.9736 6.15731V5.7573H37.1357V6.15731V6.55731H38.9736V6.15731ZM37.1357 6.15731L37.5357 6.15668C37.5343 5.28118 37.1435 4.44294 36.5664 3.82683C35.9902 3.21182 35.1925 2.78126 34.3415 2.78168L34.3417 3.18168L34.3419 3.58169C34.9219 3.5814 35.52 3.88009 35.9825 4.37377C36.444 4.86636 36.7347 5.51629 36.7357 6.15793L37.1357 6.15731ZM34.3417 3.18168L33.9417 3.1837L33.9436 3.5714L34.3436 3.56938L34.7437 3.56737L34.7417 3.17967L34.3417 3.18168ZM34.3436 3.56938L34.6198 3.27998L33.278 1.99969L33.0018 2.28909L32.7257 2.5785L34.0675 3.85879L34.3436 3.56938ZM33.0018 2.28909L33.2797 2.57684L34.6147 1.28776L34.3368 1.00001L34.059 0.712263L32.724 2.00134L33.0018 2.28909ZM34.3368 1.00001L33.9368 1.001L33.9378 1.39749L34.3378 1.3965L34.7378 1.39552L34.7368 0.999028L34.3368 1.00001Z" fill="#303030" mask="url(#path-22-inside-10_1389_141)"/>
<mask id="path-24-inside-11_1389_141" fill="white">
<path d="M20.0803 3.15875C18.6246 3.16156 17.2255 4.62092 17.2258 6.15586L17.5832 6.15488L16.3674 7.59435L15.1438 6.16269L15.5119 6.16074C15.5086 3.52953 17.552 1.3929 20.0774 1.38822L20.0803 3.15875Z"/>
</mask>
<path d="M20.0803 3.15875L20.0811 3.55875L20.481 3.55798L20.4803 3.15809L20.0803 3.15875ZM17.2258 6.15586L16.8258 6.15594L16.8259 6.55696L17.2269 6.55586L17.2258 6.15586ZM17.5832 6.15488L17.8888 6.41299L18.4467 5.75252L17.5821 5.75488L17.5832 6.15488ZM16.3674 7.59435L16.0633 7.85425L16.3692 8.21212L16.673 7.85246L16.3674 7.59435ZM15.1438 6.16269L15.1416 5.76269L14.2796 5.76727L14.8397 6.42259L15.1438 6.16269ZM15.5119 6.16074L15.514 6.56074L15.9124 6.55863L15.9119 6.16023L15.5119 6.16074ZM20.0774 1.38822L20.4774 1.38756L20.4768 0.98747L20.0767 0.988212L20.0774 1.38822ZM20.0803 3.15875L20.0796 2.75874C19.2194 2.76041 18.407 3.18918 17.8177 3.80657C17.2275 4.42494 16.8256 5.26877 16.8258 6.15594L17.2258 6.15586L17.6258 6.15578C17.6257 5.508 17.9232 4.85468 18.3964 4.35894C18.8705 3.86222 19.4855 3.5599 20.0811 3.55875L20.0803 3.15875ZM17.2258 6.15586L17.2269 6.55586L17.5843 6.55488L17.5832 6.15488L17.5821 5.75488L17.2247 5.75585L17.2258 6.15586ZM17.5832 6.15488L17.2777 5.89677L16.0618 7.33624L16.3674 7.59435L16.673 7.85246L17.8888 6.41299L17.5832 6.15488ZM16.3674 7.59435L16.6715 7.33446L15.4478 5.9028L15.1438 6.16269L14.8397 6.42259L16.0633 7.85425L16.3674 7.59435ZM15.1438 6.16269L15.1459 6.56269L15.514 6.56074L15.5119 6.16074L15.5098 5.76074L15.1416 5.76269L15.1438 6.16269ZM15.5119 6.16074L15.9119 6.16023C15.9088 3.73413 17.789 1.79247 20.0782 1.78822L20.0774 1.38822L20.0767 0.988212C17.315 0.993336 15.1083 3.32494 15.1119 6.16125L15.5119 6.16074ZM20.0774 1.38822L19.6774 1.38888L19.6803 3.15941L20.0803 3.15875L20.4803 3.15809L20.4774 1.38756L20.0774 1.38822Z" fill="#303030" mask="url(#path-24-inside-11_1389_141)"/>
<mask id="path-26-inside-12_1389_141" fill="white">
<path d="M32.8299 3.15875C31.3742 3.16152 29.9741 4.6209 29.9744 6.15586L30.3328 6.15488L29.117 7.59435L27.8933 6.16269L28.2615 6.16074C28.2581 3.52951 30.3015 1.39287 32.827 1.38822L32.8299 3.15875Z"/>
</mask>
<path d="M32.8299 3.15875L32.8307 3.55875L33.2306 3.55799L33.2299 3.15809L32.8299 3.15875ZM29.9744 6.15586L29.5744 6.15594L29.5745 6.55695L29.9755 6.55586L29.9744 6.15586ZM30.3328 6.15488L30.6384 6.41299L31.1962 5.75252L30.3317 5.75488L30.3328 6.15488ZM29.117 7.59435L28.8129 7.85425L29.1188 8.21212L29.4225 7.85246L29.117 7.59435ZM27.8933 6.16269L27.8912 5.76269L27.0291 5.76727L27.5892 6.42259L27.8933 6.16269ZM28.2615 6.16074L28.2636 6.56074L28.662 6.55863L28.6615 6.16023L28.2615 6.16074ZM32.827 1.38822L33.227 1.38756L33.2263 0.987476L32.8262 0.988212L32.827 1.38822ZM32.8299 3.15875L32.8291 2.75874C31.969 2.76038 31.1564 3.18912 30.5668 3.80648C29.9764 4.42482 29.5742 5.26868 29.5744 6.15594L29.9744 6.15586L30.3744 6.15578C30.3743 5.50808 30.672 4.85476 31.1454 4.35898C31.6198 3.86222 32.235 3.55989 32.8307 3.55875L32.8299 3.15875ZM29.9744 6.15586L29.9755 6.55586L30.3339 6.55488L30.3328 6.15488L30.3317 5.75488L29.9733 5.75585L29.9744 6.15586ZM30.3328 6.15488L30.0272 5.89677L28.8114 7.33624L29.117 7.59435L29.4225 7.85246L30.6384 6.41299L30.3328 6.15488ZM29.117 7.59435L29.421 7.33446L28.1974 5.9028L27.8933 6.16269L27.5892 6.42259L28.8129 7.85425L29.117 7.59435ZM27.8933 6.16269L27.8954 6.56269L28.2636 6.56074L28.2615 6.16074L28.2594 5.76074L27.8912 5.76269L27.8933 6.16269ZM28.2615 6.16074L28.6615 6.16023C28.6584 3.7341 30.5385 1.79244 32.8277 1.78822L32.827 1.38822L32.8262 0.988212C30.0646 0.993298 27.8578 3.32492 27.8615 6.16125L28.2615 6.16074ZM32.827 1.38822L32.427 1.38888L32.4299 3.15941L32.8299 3.15875L33.2299 3.15809L33.227 1.38756L32.827 1.38822Z" fill="#303030" mask="url(#path-26-inside-12_1389_141)"/>
</svg>
