<svg width="42" height="19" viewBox="0 0 42 19" fill="none" xmlns="http://www.w3.org/2000/svg">
<path d="M5.74425 15.1048C5.77951 15.1479 7.59363 17.348 10.51 17.348H1.00002V15.1048H5.74425ZM1.44339 16.9047H7.27846C6.40256 16.4046 5.80682 15.8262 5.54796 15.5482H1.44339V16.9047Z" fill="#303030"/>
<path d="M24.458 15.106C24.4819 15.1352 26.298 17.3502 29.2238 17.3502H22.6973V15.106H24.458ZM23.1406 16.9068H25.9942C25.8134 16.8036 25.6429 16.7003 25.4874 16.5943C25.0509 16.2969 24.7108 15.9985 24.4795 15.774C24.3907 15.6877 24.3187 15.6105 24.2617 15.5494H23.1406V16.9068Z" fill="#303030"/>
<mask id="path-3-inside-1_1383_153" fill="white">
<path d="M6.06414 11.2626C6.06854 11.2798 7.05064 15.1033 10.3513 15.1035H20.2646L20.2656 14.6425L22.2861 16.2197L20.2617 17.793L20.2627 17.3477H9.3269C4.77613 17.3477 3.50159 11.2626 3.50159 11.2626H6.06414Z"/>
</mask>
<path d="M6.06414 11.2626L6.45165 11.1634L6.37465 10.8626H6.06414V11.2626ZM10.3513 15.1035L10.3513 15.5035H10.3513V15.1035ZM20.2646 15.1035V15.5035H20.6638L20.6646 15.1043L20.2646 15.1035ZM20.2656 14.6425L20.5117 14.3272L19.8673 13.8242L19.8656 14.6417L20.2656 14.6425ZM22.2861 16.2197L22.5316 16.5356L22.9371 16.2204L22.5323 15.9044L22.2861 16.2197ZM20.2617 17.793L19.8617 17.7921L19.8599 18.6119L20.5071 18.1088L20.2617 17.793ZM20.2627 17.3477L20.6627 17.3486L20.6635 16.9477H20.2627V17.3477ZM3.50159 11.2626V10.8626H3.00912L3.11008 11.3446L3.50159 11.2626ZM6.06414 11.2626L5.67663 11.3618C5.68348 11.3886 5.94439 12.4013 6.642 13.416C7.34257 14.435 8.52048 15.5034 10.3513 15.5035L10.3513 15.1035L10.3514 14.7035C8.8815 14.7034 7.918 13.8599 7.30125 12.9628C6.68154 12.0614 6.44919 11.1538 6.45165 11.1634L6.06414 11.2626ZM10.3513 15.1035V15.5035H20.2646V15.1035V14.7035H10.3513V15.1035ZM20.2646 15.1035L20.6646 15.1043L20.6656 14.6434L20.2656 14.6425L19.8656 14.6417L19.8646 15.1026L20.2646 15.1035ZM20.2656 14.6425L20.0195 14.9579L22.04 16.535L22.2861 16.2197L22.5323 15.9044L20.5117 14.3272L20.2656 14.6425ZM22.2861 16.2197L22.0407 15.9039L20.0162 17.4772L20.2617 17.793L20.5071 18.1088L22.5316 16.5356L22.2861 16.2197ZM20.2617 17.793L20.6617 17.7939L20.6627 17.3486L20.2627 17.3477L19.8626 17.3468L19.8617 17.7921L20.2617 17.793ZM20.2627 17.3477V16.9477H9.3269V17.3477V17.7477H20.2627V17.3477ZM9.3269 17.3477V16.9477C7.2611 16.9477 5.91108 15.5741 5.05322 14.1036C4.62729 13.3735 4.33606 12.6398 4.15124 12.0866C4.05906 11.8107 3.99394 11.5815 3.95211 11.4224C3.93121 11.3429 3.91615 11.281 3.90647 11.2397C3.90163 11.219 3.89814 11.2035 3.89593 11.1935C3.89482 11.1886 3.89404 11.185 3.89357 11.1828C3.89334 11.1817 3.89318 11.181 3.89311 11.1806C3.89307 11.1804 3.89305 11.1803 3.89305 11.1803C3.89305 11.1803 3.89306 11.1804 3.89306 11.1804C3.89308 11.1805 3.8931 11.1806 3.50159 11.2626C3.11008 11.3446 3.11011 11.3448 3.11015 11.3449C3.11017 11.345 3.11022 11.3452 3.11025 11.3454C3.11033 11.3458 3.11043 11.3463 3.11055 11.3468C3.11078 11.3479 3.1111 11.3494 3.11149 11.3512C3.11229 11.3549 3.1134 11.36 3.11485 11.3666C3.11774 11.3796 3.12196 11.3983 3.12756 11.4222C3.13877 11.4701 3.15555 11.5389 3.17838 11.6258C3.22403 11.7994 3.29403 12.0456 3.39245 12.3401C3.58882 12.9279 3.90064 13.7155 4.36219 14.5067C5.27929 16.0787 6.84192 17.7477 9.3269 17.7477V17.3477ZM3.50159 11.2626V11.6626H6.06414V11.2626V10.8626H3.50159V11.2626Z" fill="#303030" mask="url(#path-3-inside-1_1383_153)"/>
<mask id="path-5-inside-2_1383_153" fill="white">
<path d="M24.778 11.2626C24.7825 11.2801 25.7646 15.1033 29.0652 15.1035H38.9785L38.9794 14.6425L41 16.2197L38.9755 17.793L38.9765 17.3477H28.0408C23.49 17.3477 22.2154 11.2626 22.2154 11.2626H24.778Z"/>
</mask>
<path d="M24.778 11.2626L25.1655 11.1634L25.0885 10.8626H24.778V11.2626ZM29.0652 15.1035L29.0652 15.5035H29.0652V15.1035ZM38.9785 15.1035V15.5035H39.3776L39.3785 15.1043L38.9785 15.1035ZM38.9794 14.6425L39.2256 14.3272L38.5812 13.8242L38.5794 14.6417L38.9794 14.6425ZM41 16.2197L41.2454 16.5356L41.651 16.2204L41.2461 15.9044L41 16.2197ZM38.9755 17.793L38.5755 17.7921L38.5737 18.6119L39.221 18.1088L38.9755 17.793ZM38.9765 17.3477L39.3765 17.3486L39.3774 16.9477H38.9765V17.3477ZM22.2154 11.2626V10.8626H21.723L21.8239 11.3446L22.2154 11.2626ZM24.778 11.2626L24.3905 11.3618C24.3974 11.3887 24.6583 12.4015 25.3559 13.4161C26.0565 14.4351 27.2344 15.5034 29.0652 15.5035L29.0652 15.1035L29.0652 14.7035C27.5954 14.7034 26.6319 13.8599 26.0152 12.9629C25.3955 12.0615 25.1631 11.1539 25.1655 11.1634L24.778 11.2626ZM29.0652 15.1035V15.5035H38.9785V15.1035V14.7035H29.0652V15.1035ZM38.9785 15.1035L39.3785 15.1043L39.3794 14.6434L38.9794 14.6425L38.5794 14.6417L38.5785 15.1026L38.9785 15.1035ZM38.9794 14.6425L38.7333 14.9579L40.7539 16.535L41 16.2197L41.2461 15.9044L39.2256 14.3272L38.9794 14.6425ZM41 16.2197L40.7545 15.9039L38.7301 17.4772L38.9755 17.793L39.221 18.1088L41.2454 16.5356L41 16.2197ZM38.9755 17.793L39.3755 17.7939L39.3765 17.3486L38.9765 17.3477L38.5765 17.3468L38.5755 17.7921L38.9755 17.793ZM38.9765 17.3477V16.9477H28.0408V17.3477V17.7477H38.9765V17.3477ZM28.0408 17.3477V16.9477C25.975 16.9477 24.6249 15.5741 23.7671 14.1036C23.3411 13.3735 23.0499 12.6398 22.8651 12.0866C22.7729 11.8107 22.7078 11.5815 22.666 11.4224C22.6451 11.3429 22.63 11.281 22.6203 11.2397C22.6155 11.219 22.612 11.2035 22.6098 11.1935C22.6087 11.1886 22.6079 11.185 22.6074 11.1828C22.6072 11.1817 22.607 11.181 22.607 11.1806C22.6069 11.1804 22.6069 11.1803 22.6069 11.1803C22.6069 11.1803 22.6069 11.1804 22.6069 11.1804C22.6069 11.1805 22.607 11.1806 22.2154 11.2626C21.8239 11.3446 21.824 11.3448 21.824 11.3449C21.824 11.345 21.8241 11.3452 21.8241 11.3454C21.8242 11.3458 21.8243 11.3463 21.8244 11.3468C21.8246 11.3479 21.825 11.3494 21.8253 11.3512C21.8261 11.3549 21.8273 11.36 21.8287 11.3666C21.8316 11.3796 21.8358 11.3983 21.8414 11.4222C21.8526 11.4701 21.8694 11.5389 21.8922 11.6258C21.9379 11.7994 22.0079 12.0456 22.1063 12.3401C22.3027 12.9279 22.6145 13.7155 23.076 14.5067C23.9931 16.0787 25.5558 17.7477 28.0408 17.7477V17.3477ZM22.2154 11.2626V11.6626H24.778V11.2626V10.8626H22.2154V11.2626Z" fill="#303030" mask="url(#path-5-inside-2_1383_153)"/>
<mask id="path-7-inside-3_1383_153" fill="white">
<path d="M12.621 2.10163C16.521 2.10253 19.3329 5.10832 19.3331 8.81563H16.8389C16.8386 6.67898 14.7871 4.62089 12.6249 4.61731L12.6259 5.14564L10.6005 3.35361L12.621 1.5567V2.10163Z"/>
</mask>
<path d="M12.621 2.10163H12.221V2.50155L12.6209 2.50164L12.621 2.10163ZM19.3331 8.81563V9.21563H19.7331L19.7331 8.81561L19.3331 8.81563ZM16.8389 8.81563L16.4389 8.81567L16.4389 9.21563H16.8389V8.81563ZM12.6249 4.61731L12.6256 4.2173L12.2242 4.21663L12.2249 4.61804L12.6249 4.61731ZM12.6259 5.14564L12.3609 5.44522L13.0276 6.0351L13.0259 5.1449L12.6259 5.14564ZM10.6005 3.35361L10.3347 3.0547L9.99769 3.35438L10.3354 3.65319L10.6005 3.35361ZM12.621 1.5567H13.021V0.66566L12.3552 1.25779L12.621 1.5567ZM12.621 2.10163L12.6209 2.50164C16.2925 2.50249 18.9329 5.32157 18.9331 8.81565L19.3331 8.81563L19.7331 8.81561C19.7329 4.89507 16.7496 1.70258 12.6211 1.70163L12.621 2.10163ZM19.3331 8.81563V8.41562H16.8389V8.81563V9.21563H19.3331V8.81563ZM16.8389 8.81563L17.2389 8.81558C17.2388 7.62089 16.668 6.475 15.8253 5.63351C14.9824 4.79181 13.832 4.2193 12.6256 4.2173L12.6249 4.61731L12.6243 5.01731C13.58 5.0189 14.5365 5.47722 15.26 6.19962C15.9837 6.92224 16.4388 7.87372 16.4389 8.81567L16.8389 8.81563ZM12.6249 4.61731L12.2249 4.61804L12.2259 5.14637L12.6259 5.14564L13.0259 5.1449L13.0249 4.61657L12.6249 4.61731ZM12.6259 5.14564L12.891 4.84605L10.8655 3.05403L10.6005 3.35361L10.3354 3.65319L12.3609 5.44522L12.6259 5.14564ZM10.6005 3.35361L10.8663 3.65252L12.8868 1.85561L12.621 1.5567L12.3552 1.25779L10.3347 3.0547L10.6005 3.35361ZM12.621 1.5567H12.221V2.10163H12.621H13.021V1.5567H12.621Z" fill="#303030" mask="url(#path-7-inside-3_1383_153)"/>
<mask id="path-9-inside-4_1383_153" fill="white">
<path d="M19.2194 11.124C19.2189 15.0234 17.5602 15.4141 17.5602 15.4141L12.8004 15.4141C14.9371 15.414 16.7016 13.2903 16.7047 11.1279L16.1764 11.1289L17.9684 9.10346L19.7653 11.124L19.2194 11.124Z"/>
</mask>
<path d="M19.2194 11.124L19.2194 10.724L18.8195 10.724L18.8194 11.124L19.2194 11.124ZM17.5602 15.4141L17.5602 15.8141L17.6067 15.8141L17.6519 15.8035L17.5602 15.4141ZM12.8004 15.4141L12.8003 15.0141L12.8004 15.8141L12.8004 15.4141ZM16.7047 11.1279L17.1047 11.1285L17.1053 10.7272L16.704 10.7279L16.7047 11.1279ZM16.1764 11.1289L15.8768 10.8638L15.2869 11.5305L16.1771 11.5289L16.1764 11.1289ZM17.9684 9.10346L18.2673 8.83764L17.9676 8.50067L17.6688 8.8384L17.9684 9.10346ZM19.7653 11.124L19.7653 11.524L20.6564 11.524L20.0642 10.8582L19.7653 11.124ZM19.2194 11.124L18.8194 11.124C18.8192 13.02 18.4156 14.0029 18.0633 14.5C17.8871 14.7485 17.7188 14.8831 17.6068 14.9533C17.5503 14.9888 17.5067 15.0087 17.4818 15.0188C17.4693 15.0238 17.4615 15.0264 17.459 15.0271C17.4578 15.0275 17.4579 15.0275 17.4594 15.027C17.4602 15.0268 17.4614 15.0265 17.4629 15.0261C17.4636 15.026 17.4645 15.0257 17.4654 15.0255C17.4659 15.0254 17.4664 15.0253 17.4669 15.0252C17.4671 15.0251 17.4675 15.025 17.4677 15.025C17.4681 15.0249 17.4685 15.0248 17.5602 15.4141C17.6519 15.8035 17.6524 15.8034 17.6528 15.8033C17.6529 15.8032 17.6534 15.8031 17.6537 15.8031C17.6543 15.8029 17.655 15.8027 17.6556 15.8026C17.657 15.8023 17.6584 15.8019 17.66 15.8015C17.6631 15.8007 17.6666 15.7998 17.6705 15.7987C17.6783 15.7966 17.6877 15.7939 17.6986 15.7904C17.7205 15.7836 17.7483 15.7739 17.7811 15.7607C17.847 15.7341 17.933 15.6931 18.032 15.631C18.231 15.5061 18.4774 15.2992 18.716 14.9627C19.1931 14.2895 19.6192 13.1274 19.6194 11.1241L19.2194 11.124ZM17.5602 15.4141L17.5602 15.0141L12.8004 15.0141L12.8004 15.4141L12.8004 15.8141L17.5602 15.8141L17.5602 15.4141ZM12.8004 15.4141L12.8004 15.8141C14.0058 15.8141 15.084 15.2156 15.8523 14.3469C16.62 13.4789 17.103 12.3151 17.1047 11.1285L16.7047 11.1279L16.3047 11.1273C16.3033 12.1031 15.9026 13.0824 15.253 13.8169C14.6041 14.5507 13.7317 15.0141 12.8003 15.0141L12.8004 15.4141ZM16.7047 11.1279L16.704 10.7279L16.1757 10.7289L16.1764 11.1289L16.1771 11.5289L16.7055 11.5279L16.7047 11.1279ZM16.1764 11.1289L16.476 11.3939L18.268 9.36852L17.9684 9.10346L17.6688 8.8384L15.8768 10.8638L16.1764 11.1289ZM17.9684 9.10346L17.6695 9.36928L19.4664 11.3898L19.7653 11.124L20.0642 10.8582L18.2673 8.83764L17.9684 9.10346ZM19.7653 11.124L19.7653 10.724L19.2194 10.724L19.2194 11.124L19.2194 11.524L19.7653 11.524L19.7653 11.124Z" fill="#303030" mask="url(#path-9-inside-4_1383_153)"/>
<mask id="path-11-inside-5_1383_153" fill="white">
<path d="M37.9333 11.124C37.9328 15.0234 36.2545 15.4102 36.2545 15.4102L31.3843 15.4102C33.5211 15.4102 35.4153 13.2903 35.4186 11.1279L34.8902 11.1289L36.6823 9.10346L38.4792 11.124L37.9333 11.124Z"/>
</mask>
<path d="M37.9333 11.124L37.9333 10.724L37.5333 10.724L37.5333 11.124L37.9333 11.124ZM36.2545 15.4102L36.2545 15.8102L36.3 15.8102L36.3444 15.8L36.2545 15.4102ZM35.4186 11.1279L35.8186 11.1285L35.8192 10.7272L35.4178 10.7279L35.4186 11.1279ZM34.8902 11.1289L34.5907 10.8638L34.0008 11.5305L34.891 11.5289L34.8902 11.1289ZM36.6823 9.10346L36.9812 8.83764L36.6815 8.50067L36.3827 8.8384L36.6823 9.10346ZM38.4792 11.124L38.4792 11.524L39.3702 11.524L38.7781 10.8582L38.4792 11.124ZM37.9333 11.124L37.5333 11.124C37.533 13.0192 37.125 14.0003 36.7688 14.496C36.5907 14.744 36.4203 14.8783 36.3065 14.9485C36.2491 14.984 36.2048 15.004 36.1792 15.0141C36.1664 15.0192 36.1583 15.0218 36.1557 15.0226C36.1543 15.023 36.1543 15.023 36.1558 15.0226C36.1565 15.0224 36.1576 15.0221 36.1591 15.0218C36.1599 15.0216 36.1607 15.0214 36.1616 15.0212C36.1621 15.021 36.1626 15.0209 36.1631 15.0208C36.1633 15.0207 36.1637 15.0207 36.1639 15.0206C36.1643 15.0205 36.1647 15.0204 36.2545 15.4102C36.3444 15.8 36.3448 15.7999 36.3452 15.7998C36.3454 15.7998 36.3458 15.7997 36.3461 15.7996C36.3467 15.7995 36.3474 15.7993 36.3481 15.7991C36.3494 15.7988 36.3508 15.7985 36.3524 15.7981C36.3555 15.7973 36.359 15.7964 36.3629 15.7954C36.3707 15.7933 36.3801 15.7906 36.3911 15.7872C36.413 15.7805 36.441 15.771 36.4741 15.7578C36.5403 15.7316 36.627 15.6909 36.727 15.6292C36.9279 15.5051 37.1771 15.2989 37.4186 14.9628C37.9017 14.2902 38.333 13.1282 38.3333 11.1241L37.9333 11.124ZM36.2545 15.4102L36.2545 15.0102L31.3843 15.0102L31.3843 15.4102L31.3843 15.8102L36.2545 15.8102L36.2545 15.4102ZM31.3843 15.4102L31.3843 15.8102C32.5867 15.8102 33.6951 15.2156 34.495 14.3518C35.2949 13.488 35.8168 12.3235 35.8186 11.1285L35.4186 11.1279L35.0186 11.1273C35.0171 12.0947 34.5903 13.0714 33.908 13.8082C33.2258 14.5449 32.3187 15.0102 31.3843 15.0102L31.3843 15.4102ZM35.4186 11.1279L35.4178 10.7279L34.8895 10.7289L34.8902 11.1289L34.891 11.5289L35.4193 11.5279L35.4186 11.1279ZM34.8902 11.1289L35.1898 11.3939L36.9819 9.36852L36.6823 9.10346L36.3827 8.8384L34.5907 10.8638L34.8902 11.1289ZM36.6823 9.10346L36.3834 9.36928L38.1803 11.3898L38.4792 11.124L38.7781 10.8582L36.9812 8.83764L36.6823 9.10346ZM38.4792 11.124L38.4792 10.724L37.9333 10.724L37.9333 11.124L37.9333 11.524L38.4792 11.524L38.4792 11.124Z" fill="#303030" mask="url(#path-11-inside-5_1383_153)"/>
<mask id="path-13-inside-6_1383_153" fill="white">
<path d="M10.253 4.47367C8.11652 4.47725 6.06206 6.53151 6.06152 8.69348L6.56934 8.6925L4.79489 10.7209L3.00872 8.70324L3.54584 8.70129C3.54124 4.99463 6.54206 1.9857 10.2491 1.97948L10.253 4.47367Z"/>
</mask>
<path d="M10.253 4.47367L10.2537 4.87368L10.6536 4.87301L10.653 4.47304L10.253 4.47367ZM6.06152 8.69348L5.66151 8.69338L5.66141 9.09426L6.06229 9.09348L6.06152 8.69348ZM6.56934 8.6925L6.8704 8.95588L7.45223 8.2908L6.56857 8.29249L6.56934 8.6925ZM4.79489 10.7209L4.49539 10.986L4.79668 11.3263L5.09595 10.9842L4.79489 10.7209ZM3.00872 8.70324L3.00727 8.30324L2.12322 8.30645L2.70922 8.96839L3.00872 8.70324ZM3.54584 8.70129L3.5473 9.1013L3.94635 9.09984L3.94585 8.70079L3.54584 8.70129ZM10.2491 1.97948L10.6491 1.97886L10.6485 1.57881L10.2484 1.57948L10.2491 1.97948ZM10.253 4.47367L10.2523 4.07366C9.05774 4.07567 7.91289 4.6481 7.0728 5.49197C6.2325 6.33605 5.66181 7.48708 5.66151 8.69338L6.06152 8.69348L6.46152 8.69358C6.46177 7.7379 6.91859 6.78082 7.63977 6.05639C8.36117 5.33175 9.31179 4.87526 10.2537 4.87368L10.253 4.47367ZM6.06152 8.69348L6.06229 9.09348L6.57011 9.09251L6.56934 8.6925L6.56857 8.29249L6.06075 8.29347L6.06152 8.69348ZM6.56934 8.6925L6.26827 8.42913L4.49383 10.4575L4.79489 10.7209L5.09595 10.9842L6.8704 8.95588L6.56934 8.6925ZM4.79489 10.7209L5.0944 10.4557L3.30823 8.4381L3.00872 8.70324L2.70922 8.96839L4.49539 10.986L4.79489 10.7209ZM3.00872 8.70324L3.01018 9.10325L3.5473 9.1013L3.54584 8.70129L3.54439 8.30129L3.00727 8.30324L3.00872 8.70324ZM3.54584 8.70129L3.94585 8.70079C3.94153 5.21505 6.76351 2.38534 10.2498 2.37949L10.2491 1.97948L10.2484 1.57948C6.3206 1.58606 3.14096 4.77421 3.14584 8.70179L3.54584 8.70129ZM10.2491 1.97948L9.84909 1.98011L9.85299 4.4743L10.253 4.47367L10.653 4.47304L10.6491 1.97886L10.2491 1.97948Z" fill="#303030" mask="url(#path-13-inside-6_1383_153)"/>
<mask id="path-15-inside-7_1383_153" fill="white">
<path d="M31.2196 1.5596C34.8203 1.5542 38.0194 4.55924 38.0254 8.26676H35.3271C35.3236 6.12988 33.3276 4.07502 31.2275 4.07527L31.2294 4.62118L29.2596 2.81744L31.2187 1.00002L31.2196 1.5596Z"/>
</mask>
<path d="M31.2196 1.5596L30.8196 1.5603L30.8203 1.96021L31.2202 1.95961L31.2196 1.5596ZM38.0254 8.26676V8.66677H38.4261L38.4254 8.2661L38.0254 8.26676ZM35.3271 8.26676L34.9271 8.26741L34.9278 8.66677H35.3271V8.26676ZM31.2275 4.07527L31.2274 3.67526L30.826 3.67531L30.8275 4.0767L31.2275 4.07527ZM31.2294 4.62118L30.9593 4.91619L31.6327 5.53284L31.6294 4.61975L31.2294 4.62118ZM29.2596 2.81744L28.9876 2.52419L28.6694 2.81935L28.9895 3.11244L29.2596 2.81744ZM31.2187 1.00002L31.6187 0.999321L31.6171 0.0847723L30.9466 0.706771L31.2187 1.00002ZM31.2196 1.5596L31.2202 1.95961C34.61 1.95452 37.6197 4.79074 37.6254 8.26741L38.0254 8.26676L38.4254 8.2661C38.419 4.32775 35.0305 1.15387 31.219 1.15959L31.2196 1.5596ZM38.0254 8.26676V7.86675H35.3271V8.26676V8.66677H38.0254V8.26676ZM35.3271 8.26676L35.7272 8.2661C35.7252 7.0753 35.1708 5.93144 34.3498 5.09022C33.5292 4.2493 32.4069 3.67513 31.2274 3.67526L31.2275 4.07527L31.2275 4.47528C32.1481 4.47517 33.074 4.9283 33.7773 5.64897C34.4803 6.36933 34.9256 7.32134 34.9271 8.26741L35.3271 8.26676ZM31.2275 4.07527L30.8275 4.0767L30.8294 4.62261L31.2294 4.62118L31.6294 4.61975L31.6275 4.07384L31.2275 4.07527ZM31.2294 4.62118L31.4996 4.32617L29.5298 2.52243L29.2596 2.81744L28.9895 3.11244L30.9593 4.91619L31.2294 4.62118ZM29.2596 2.81744L29.5317 3.11068L31.4907 1.29327L31.2187 1.00002L30.9466 0.706771L28.9876 2.52419L29.2596 2.81744ZM31.2187 1.00002L30.8187 1.00072L30.8196 1.5603L31.2196 1.5596L31.6197 1.5589L31.6187 0.999321L31.2187 1.00002Z" fill="#303030" mask="url(#path-15-inside-7_1383_153)"/>
<mask id="path-17-inside-8_1383_153" fill="white">
<path d="M29.0072 4.04256C26.8708 4.04644 24.817 6.10142 24.8167 8.26334L25.3421 8.26236L23.5579 10.2907L21.761 8.27311L22.301 8.27115C22.2963 4.56442 25.2962 1.55469 29.0033 1.54837L29.0072 4.04256Z"/>
</mask>
<path d="M29.0072 4.04256L29.0079 4.44256L29.4078 4.44184L29.4072 4.04193L29.0072 4.04256ZM24.8167 8.26334L24.4167 8.26327L24.4166 8.66409L24.8174 8.66335L24.8167 8.26334ZM25.3421 8.26236L25.6424 8.52656L26.2281 7.86071L25.3413 7.86236L25.3421 8.26236ZM23.5579 10.2907L23.2592 10.5568L23.5597 10.8942L23.8582 10.5549L23.5579 10.2907ZM21.761 8.27311L21.7595 7.8731L20.8719 7.87631L21.4623 8.53914L21.761 8.27311ZM22.301 8.27115L22.3025 8.67116L22.7015 8.66971L22.701 8.27064L22.301 8.27115ZM29.0033 1.54837L29.4033 1.54774L29.4027 1.14768L29.0026 1.14836L29.0033 1.54837ZM29.0072 4.04256L29.0065 3.64255C27.8119 3.64472 26.6672 4.21746 25.8274 5.06155C24.9873 5.90586 24.4169 7.05705 24.4167 8.26327L24.8167 8.26334L25.2167 8.26341C25.2169 7.30771 25.6735 6.35045 26.3945 5.62582C27.1157 4.90097 28.0661 4.44428 29.0079 4.44256L29.0072 4.04256ZM24.8167 8.26334L24.8174 8.66335L25.3428 8.66237L25.3421 8.26236L25.3413 7.86236L24.8159 7.86333L24.8167 8.26334ZM25.3421 8.26236L25.0417 7.99817L23.2575 10.0265L23.5579 10.2907L23.8582 10.5549L25.6424 8.52656L25.3421 8.26236ZM23.5579 10.2907L23.8566 10.0247L22.0597 8.00707L21.761 8.27311L21.4623 8.53914L23.2592 10.5568L23.5579 10.2907ZM21.761 8.27311L21.7624 8.67311L22.3025 8.67116L22.301 8.27115L22.2996 7.87115L21.7595 7.8731L21.761 8.27311ZM22.301 8.27115L22.701 8.27064C22.6965 4.78471 25.5178 1.95432 29.004 1.94838L29.0033 1.54837L29.0026 1.14836C25.0747 1.15506 21.896 4.34412 21.901 8.27167L22.301 8.27115ZM29.0033 1.54837L28.6033 1.549L28.6072 4.04318L29.0072 4.04256L29.4072 4.04193L29.4033 1.54774L29.0033 1.54837Z" fill="#303030" mask="url(#path-17-inside-8_1383_153)"/>
</svg>
