<svg width="29" height="42" viewBox="0 0 29 42" fill="none" xmlns="http://www.w3.org/2000/svg">
<path d="M3.4502 1.20021H24.7979C26.0406 1.20033 27.0477 2.20751 27.0479 3.45021V38.5479C27.0479 39.7916 26.0396 40.7998 24.7959 40.7998H3.45215C2.2084 40.7998 1.2002 39.7916 1.2002 38.5479V3.45021C1.20036 2.20753 2.20752 1.20037 3.4502 1.20021Z" stroke="#303030" stroke-width="0.4"/>
<rect x="3.70134" y="15.6341" width="4.12066" height="4.13014" rx="0.542574" stroke="#303030" stroke-width="0.4"/>
<rect x="3.70134" y="21.3416" width="4.12066" height="4.13014" rx="0.542574" stroke="#303030" stroke-width="0.4"/>
<rect x="3.70134" y="27.0493" width="4.12066" height="4.13014" rx="0.542574" stroke="#303030" stroke-width="0.4"/>
<rect x="3.70134" y="32.757" width="4.12066" height="4.13014" rx="0.542574" stroke="#303030" stroke-width="0.4"/>
<rect x="14.8512" y="15.6341" width="4.12066" height="4.13014" rx="0.542574" stroke="#303030" stroke-width="0.4"/>
<rect x="14.8512" y="21.3416" width="4.12066" height="4.13014" rx="0.542574" stroke="#303030" stroke-width="0.4"/>
<rect x="14.8512" y="27.0493" width="4.12066" height="4.13014" rx="0.542574" stroke="#303030" stroke-width="0.4"/>
<rect x="14.8512" y="32.757" width="4.12066" height="4.13014" rx="0.542574" stroke="#303030" stroke-width="0.4"/>
<rect x="9.27629" y="15.6341" width="4.12066" height="4.13014" rx="0.542574" stroke="#303030" stroke-width="0.4"/>
<rect x="9.27629" y="21.3416" width="4.12066" height="4.13014" rx="0.542574" stroke="#303030" stroke-width="0.4"/>
<rect x="9.27629" y="27.0493" width="4.12066" height="4.13014" rx="0.542574" stroke="#303030" stroke-width="0.4"/>
<rect x="9.27629" y="32.757" width="4.12066" height="4.13014" rx="0.542574" stroke="#303030" stroke-width="0.4"/>
<rect x="20.4261" y="15.6341" width="4.12066" height="4.13014" rx="0.542574" stroke="#303030" stroke-width="0.4"/>
<rect x="20.4261" y="21.3416" width="4.12066" height="4.13014" rx="0.542574" stroke="#303030" stroke-width="0.4"/>
<rect x="20.4261" y="27.0493" width="4.12066" height="4.13014" rx="0.542574" stroke="#303030" stroke-width="0.4"/>
<rect x="20.4261" y="32.757" width="4.12066" height="4.13014" rx="0.542574" stroke="#303030" stroke-width="0.4"/>
<path d="M24.0044 3.89548H4.24404C3.83393 3.89548 3.50146 4.22794 3.50146 4.63805V12.1823C3.50146 12.5924 3.83393 12.9249 4.24404 12.9249H24.0044C24.4145 12.9249 24.7469 12.5924 24.7469 12.1823V4.63805C24.7469 4.22794 24.4145 3.89548 24.0044 3.89548Z" stroke="#303030" stroke-width="0.4" stroke-miterlimit="10"/>
</svg>
