<svg width="42" height="34" viewBox="0 0 42 34" fill="none" xmlns="http://www.w3.org/2000/svg">
<path d="M2.86035 6.66321H39.1143C40.0282 6.66321 40.771 7.40163 40.7754 8.31555L40.7988 13.2999H1.2002V8.32336C1.20026 7.4064 1.94339 6.66327 2.86035 6.66321Z" fill="#CCEADA" stroke="#303030" stroke-width="0.4"/>
<path d="M40.7998 13.2002V31.1396C40.7997 32.0566 40.0566 32.7997 39.1396 32.7998H2.86035C1.94339 32.7997 1.20026 32.0566 1.2002 31.1396V13.2002H40.7998Z" fill="#76C69D" stroke="#303030" stroke-width="0.4"/>
<path d="M9.11882 3.98816H10.9958C11.2886 3.98816 11.526 4.22559 11.526 4.51843V6.35046H8.58855V4.51843C8.58855 4.22559 8.82598 3.98816 9.11882 3.98816Z" fill="#76C69D" stroke="#303030" stroke-width="0.8"/>
<path d="M25.8727 1.2002L27.7458 6.55078H14.5075L16.3805 1.2002H25.8727Z" fill="#BED5E8" stroke="#303030" stroke-width="0.4"/>
<circle cx="21.1269" cy="19.9768" r="11.0909" fill="#BED5E8" stroke="#303030" stroke-width="1.39535"/>
<circle cx="21.1268" cy="19.9768" r="7.85074" fill="#D3E6F6" stroke="#303030" stroke-width="0.4"/>
<line x1="36.3658" y1="15.4514" x2="39.241" y2="15.4514" stroke="#303030"/>
<line x1="38.2909" y1="27.4525" x2="38.2909" y2="30.3278" stroke="#303030" stroke-width="0.4"/>
<line x1="6.663" y1="17.964" x2="6.663" y2="32.6278" stroke="#303030" stroke-width="0.4"/>
</svg>
