<svg width="42" height="42" viewBox="0 0 42 42" fill="none" xmlns="http://www.w3.org/2000/svg">
<circle cx="21" cy="21" r="19.8" stroke="#303030" stroke-width="0.4"/>
<circle cx="21" cy="21" r="17.0451" stroke="#303030" stroke-width="0.4"/>
<path d="M21 5.00482V7.77145" stroke="#303030" stroke-width="0.4"/>
<path d="M5.00186 21.0029L7.76849 21.0029" stroke="#303030" stroke-width="0.4"/>
<path d="M21 34.2344V37.0011" stroke="#303030" stroke-width="0.4"/>
<path d="M34.2315 21.0029L36.9981 21.0029" stroke="#303030" stroke-width="0.4"/>
<path d="M7.1452 29.002L9.54118 27.6187" stroke="#303030" stroke-width="0.4"/>
<path d="M32.4588 14.3872L34.8548 13.0039" stroke="#303030" stroke-width="0.4"/>
<path d="M13.0009 34.8577L14.3843 32.4618" stroke="#303030" stroke-width="0.4"/>
<path d="M27.6158 9.5441L28.9991 7.14812" stroke="#303030" stroke-width="0.4"/>
<path d="M13.0009 7.14813L14.3842 9.54411" stroke="#303030" stroke-width="0.4"/>
<path d="M27.6158 32.4618L28.9991 34.8577" stroke="#303030" stroke-width="0.4"/>
<path d="M7.1452 13.0039L9.54118 14.3872" stroke="#303030" stroke-width="0.4"/>
<path d="M32.4588 27.6187L34.8548 29.002" stroke="#303030" stroke-width="0.4"/>
<path d="M22.0883 17.3984L21.4956 20.243C21.4756 20.3391 21.5915 20.4035 21.6625 20.3358L23.7553 18.3408C23.7651 18.3314 23.773 18.3201 23.7783 18.3076L26.7311 11.3876C26.7778 11.2783 26.6288 11.1933 26.5585 11.2892L22.1055 17.3597C22.0971 17.3712 22.0912 17.3844 22.0883 17.3984Z" stroke="#303030" stroke-width="0.4"/>
<path d="M18.0519 21.9248L19.9682 21.0953C20.047 21.0612 20.049 20.9502 19.9715 20.9133L18.1046 20.0234C18.0871 20.015 18.0675 20.0119 18.0482 20.0145L12.9153 20.7063C12.8035 20.7214 12.7983 20.8811 12.9088 20.9034L17.9924 21.9311C18.0124 21.9351 18.0332 21.933 18.0519 21.9248Z" stroke="#303030" stroke-width="0.4"/>
<circle cx="21" cy="20.9973" r="0.8" stroke="#303030" stroke-width="0.4"/>
</svg>
