<svg width="42" height="14" viewBox="0 0 42 14" fill="none" xmlns="http://www.w3.org/2000/svg">
<path d="M37.0679 11.0657L38.626 7.90037L39.6542 8.40651C40.3975 8.77238 40.7034 9.67151 40.3375 10.4148L40.1043 10.8885C39.7385 11.6318 38.8393 11.9377 38.0961 11.5718L37.0679 11.0657Z" stroke="#303030" stroke-width="0.4"/>
<path d="M23.6153 4.44356L24.9459 4.1552L23.8873 2.67144L25.187 2.26799L24.9354 1.16105L38.626 7.90041L37.0678 11.0657L23.6153 4.44356Z" stroke="#303030" stroke-width="0.4"/>
<path d="M24.9377 2.40935L38.081 8.87926L37.5112 10.0367L24.7377 3.74877L24.0615 2.67029L24.9377 2.40935Z" stroke="#303030" stroke-width="0.3"/>
<path d="M20.7142 1.16585L19.9083 2.26314L21.6841 2.67377L20.9775 3.8368L21.8991 4.49953L7.17805 8.51723L6.24915 5.11368L20.7142 1.16585Z" stroke="#303030" stroke-width="0.4"/>
<path d="M21.0706 3.56587L6.93811 7.42293L6.59845 6.17841L20.3334 2.42985L21.5543 2.79005L21.0706 3.56587Z" stroke="#303030" stroke-width="0.3"/>
<path d="M6.10532 5.15293L7.03422 8.55648L1.46444 8.24805L6.10532 5.15293Z" stroke="#303030" stroke-width="0.4" stroke-linejoin="round"/>
<path d="M4.24932 8.4022L1.46443 8.24799L3.78487 6.70043L4.24932 8.4022Z" stroke="#303030" stroke-width="0.4" stroke-linejoin="round"/>
</svg>
