<svg width="33" height="42" viewBox="0 0 33 42" fill="none" xmlns="http://www.w3.org/2000/svg">
<path d="M8.7213 29.9089C8.7213 29.9089 5.88502 25.2433 5.71695 24.2229C5.54887 23.2024 6.69539 22.2255 6.15064 20.6843C5.6059 19.1431 -0.575396 14.9487 1.38149 14.1008C3.33837 13.2529 1.8407 8.33069 4.98762 7.28772C8.13454 6.24475 8.55323 9.02851 11.0308 6.5704C13.1723 4.44694 20.0334 -0.761917 21.5881 1.60315C23.1428 3.96672 28.9534 1.54162 30.9043 4.19032C32.8552 6.83902 26.5674 11.5481 28.4882 14.635C30.7077 18.1992 28.1836 21.166 28.5873 22.206C28.991 23.2459 29.4547 26.5189 28.8049 27.7615L17.4477 31.4051L9.47464 30.7553L8.7183 29.9119L8.7213 29.9089Z" fill="#C8DEF0" stroke="#303030" stroke-width="0.4" stroke-miterlimit="10"/>
<path d="M19.7558 29.3703C17.4792 29.693 14.673 29.627 12.6696 30.1897C10.6661 30.754 9.07993 29.9661 9.39807 31.5448C9.71622 33.1235 9.21049 36.41 9.83177 38.0548C10.4531 39.6995 9.51663 40.3778 11.376 40.7125C13.2368 41.0456 18.1665 41.2812 22.4285 40.2863C26.6904 39.2913 29.8748 39.1743 30.292 37.474C30.7107 35.7737 29.7923 31.2672 29.2535 31.1802C28.7148 31.0931 29.8823 27.9312 28.8063 27.7601C27.7304 27.589 25.2347 27.6431 23.704 28.2493C22.1733 28.8541 21.0673 29.1843 19.7543 29.3703H19.7558Z" fill="#BED5E8" stroke="#303030" stroke-width="0.4" stroke-miterlimit="10"/>
<path d="M12.7941 27.9805C12.7941 27.9805 10.6707 25.4459 11.2619 22.2674C11.8517 19.089 9.97136 18.022 9.29456 15.9045" stroke="#303030" stroke-width="0.245072" stroke-miterlimit="10"/>
<path d="M18.039 24.2965C18.039 24.2965 20.0259 22.11 18.5852 18.1752C16.6148 12.7953 16.9135 8.48982 18.1155 7.83252" stroke="#303030" stroke-width="0.245072" stroke-miterlimit="10"/>
<path d="M24.5804 10.6748C22.511 16.562 26.4293 16.0998 24.7365 21.2891C23.9621 23.6647 25.9205 25.6831 25.877 25.8211" stroke="#303030" stroke-width="0.245072" stroke-miterlimit="10"/>
<path d="M28.7748 32.0325C28.7748 32.0325 27.4302 34.0644 17.7224 35.1014" stroke="#303030" stroke-width="0.245072" stroke-miterlimit="10"/>
</svg>
