<svg width="42" height="42" viewBox="0 0 42 42" fill="none" xmlns="http://www.w3.org/2000/svg">
<g clip-path="url(#clip0_348_272)">
<path d="M23.6912 22.8397C24.2215 21.8257 23.8431 19.1546 23.5136 18.3059C23.1842 17.4572 25.2441 15.036 23.4328 12.1274C21.8652 9.60821 26.9966 5.76515 25.4046 3.60358C23.8125 1.44201 19.0705 3.4211 17.8017 1.49222C16.5329 -0.437879 10.9337 3.813 9.18605 5.54593C7.1641 7.55197 6.82241 5.28018 4.25425 6.13133C1.68608 6.98249 2.90832 10.9995 1.31133 11.6914C-0.285662 12.3833 4.75882 15.8063 5.20338 17.0641C5.64794 18.3218 4.71228 19.1191 4.84944 19.9519C4.98661 20.7847 7.30126 24.5922 7.30126 24.5922L7.91605 25.283" stroke="#303030" stroke-width="0.4" stroke-miterlimit="10"/>
<path d="M16.3064 24.1527C14.4485 24.416 12.1584 24.3621 10.5234 24.8213C8.88845 25.2818 7.59395 24.6389 7.85359 25.9272C8.11322 27.2156 7.7005 29.8977 8.20752 31.2399C8.71454 32.5822 7.95034 33.1357 9.46772 33.4088C10.9863 33.6807 15.0094 33.873 18.4875 33.061C21.9656 32.2491 24.5644 32.1535 24.9049 30.766C25.2466 29.3784 24.4971 25.7007 24.0574 25.6296C23.6177 25.5586 24.5705 22.9782 23.6924 22.8386C22.8143 22.699 20.7777 22.7431 19.5285 23.2378C18.2793 23.7314 17.3767 24.0008 16.3051 24.1527H16.3064Z" stroke="#303030" stroke-width="0.4" stroke-miterlimit="10"/>
<path d="M10.6251 23.0185C10.6251 23.0185 8.89214 20.95 9.37467 18.3561C9.85597 15.7622 8.32144 14.8915 7.7691 13.1635" stroke="#303030" stroke-width="0.2" stroke-miterlimit="10"/>
<path d="M14.9053 20.0119C14.9053 20.0119 16.5268 18.2276 15.3511 15.0165C13.7431 10.626 13.9868 7.11234 14.9678 6.57593" stroke="#303030" stroke-width="0.2" stroke-miterlimit="10"/>
<path d="M20.2437 8.89551C18.5549 13.6999 21.7525 13.3227 20.3711 17.5577C19.7391 19.4964 21.3373 21.1436 21.3018 21.2563" stroke="#303030" stroke-width="0.2" stroke-miterlimit="10"/>
<path d="M23.6667 26.3252C23.6667 26.3252 22.5694 27.9834 14.6469 28.8297" stroke="#303030" stroke-width="0.2" stroke-miterlimit="10"/>
<path d="M37.2436 5.66842C34.6816 5.02546 32.8996 4.33597 32.2408 6.54897C31.0859 10.4214 30.4784 12.6773 30.7711 13.9167C31.092 15.27 32.64 17.87 31.8868 21.3468C31.1287 24.8494 30.171 27.2192 29.6493 28.9423C29.0627 30.8773 27.0456 36.6444 26.8766 38.1005C26.7076 39.5579 26.7468 40.763 27.5392 40.9724C28.3316 41.1806 29.0958 40.1898 29.5342 38.6406C29.9726 37.0914 31.054 32.6299 32.3326 26.346C33.6112 20.0621 35.2425 18.2557 37.2387 16.6538C38.8712 15.3447 38.9043 15.1855 40.5466 8.94568C41.1393 6.69349 39.8044 6.31016 37.2424 5.66842H37.2436ZM28.5777 38.7104C28.4932 39.0301 28.3426 39.2554 28.3426 39.2554C28.2826 39.3228 28.2177 39.384 27.9556 39.3154C27.6935 39.2468 27.669 39.1697 27.6506 39.084C27.6506 39.084 27.6372 38.7962 27.7131 38.4961C27.7952 38.1703 27.9409 37.9413 27.9409 37.9413C27.9923 37.8519 28.0658 37.8335 28.3279 37.9021C28.59 37.9707 28.6684 38.027 28.661 38.125C28.661 38.125 28.6549 38.4189 28.579 38.7104H28.5777ZM33.61 12.692C33.4961 12.9467 33.3773 13.1868 33.0833 13.1096C32.7894 13.0325 32.8017 12.7949 32.8262 12.523C32.8262 12.523 32.9731 11.5861 33.2401 10.5574C33.5304 9.44168 33.8463 8.60644 33.8463 8.60644C33.9614 8.28558 34.0668 8.18148 34.3607 8.25863C34.6546 8.33579 34.7244 8.47418 34.6571 8.80117C34.6571 8.80117 34.4832 9.76867 34.2199 10.7692C33.9308 11.8678 33.61 12.692 33.61 12.692ZM35.9822 11.0803C35.6001 12.5328 35.2069 13.6326 35.2069 13.6326C35.0698 13.973 34.9302 14.2951 34.6362 14.2179C34.3423 14.1408 34.3742 13.8309 34.4195 13.4746C34.4195 13.4746 34.6436 12.2438 34.9987 10.8819C35.3833 9.40616 35.7727 8.29415 35.7727 8.29415C35.916 7.86673 36.0312 7.72345 36.3263 7.8006C36.6215 7.87776 36.6802 8.05166 36.5859 8.48275C36.5859 8.48275 36.3312 9.75642 35.9822 11.0803ZM38.1205 9.71356C38.1205 9.71356 37.9466 10.6811 37.6833 11.6816C37.3942 12.7802 37.0734 13.6044 37.0734 13.6044C36.9595 13.8591 36.8407 14.0992 36.5468 14.022C36.2528 13.9448 36.2651 13.7073 36.2896 13.4354C36.2896 13.4354 36.4365 12.4985 36.7035 11.4698C36.9938 10.3541 37.3097 9.51883 37.3097 9.51883C37.4249 9.19797 37.5302 9.09387 37.8241 9.17102C38.118 9.24818 38.1878 9.38657 38.1205 9.71356Z" stroke="#303030" stroke-width="0.4" stroke-miterlimit="10"/>
</g>
<defs>
<clipPath id="clip0_348_272">
<rect width="41.6859" height="42" fill="white"/>
</clipPath>
</defs>
</svg>
