<svg width="18" height="42" viewBox="0 0 18 42" fill="none" xmlns="http://www.w3.org/2000/svg">
<g clip-path="url(#clip0_394_364)">
<path d="M8.90661 35.8032C11.2319 34.7047 11.8422 34.9364 13.5676 34.0157C13.5676 34.0157 13.3483 37.8037 11.5443 38.7967C9.04315 40.1725 8.07496 40.1166 6.69714 41C6.69714 39.307 7.22137 36.6003 8.90661 35.8032Z" fill="#F2E8DA" stroke="#303030" stroke-width="0.4" stroke-miterlimit="10"/>
<path d="M5.9007 40.8863C5.9007 40.8863 6.87717 36.7404 5.22214 35.2819C3.29403 33.5814 2.64236 33.6331 1.24179 32.2698C1.24179 32.2698 0.399796 35.9708 1.85829 37.4252C3.8795 39.4402 4.82286 39.6574 5.9007 40.8863Z" fill="#E5CEAE" stroke="#303030" stroke-width="0.4" stroke-miterlimit="10"/>
<path d="M9.7735 30.025C12.0988 28.9265 12.7091 29.1582 14.4345 28.2375C14.4345 28.2375 14.2152 32.0255 12.4112 33.0185C9.91004 34.3943 8.94184 34.3384 7.56403 35.2218C7.56403 33.5288 8.08826 30.8221 9.7735 30.025Z" fill="#E5CEAE" stroke="#303030" stroke-width="0.4" stroke-miterlimit="10"/>
<path d="M6.76746 35.1081C6.76746 35.1081 7.74393 30.9622 6.0889 29.5037C4.16079 27.8032 3.50912 27.8549 2.10855 26.4916C2.10855 26.4916 1.26656 30.1926 2.72505 31.647C4.74626 33.662 5.68963 33.8792 6.76746 35.1081Z" fill="#F2E8DA" stroke="#303030" stroke-width="0.4" stroke-miterlimit="10"/>
<path d="M10.5327 24.2054C12.858 23.1069 13.4683 23.3386 15.1937 22.418C15.1937 22.418 14.9744 26.2059 13.1704 27.1989C10.6693 28.5747 9.70105 28.5188 8.32324 29.4022C8.32324 27.7092 8.84747 25.0026 10.5327 24.2054Z" fill="#F2E8DA" stroke="#303030" stroke-width="0.4" stroke-miterlimit="10"/>
<path d="M7.52888 29.2907C7.52888 29.2907 8.50534 25.1448 6.85031 23.6864C4.9222 21.9858 4.27054 22.0375 2.86997 20.6742C2.86997 20.6742 2.02797 24.3753 3.48647 25.8296C5.50767 27.8446 6.45104 28.0618 7.52888 29.2907Z" fill="#E5CEAE" stroke="#303030" stroke-width="0.4" stroke-miterlimit="10"/>
<path d="M11.3375 18.442C13.6628 17.3434 14.2731 17.5752 15.9984 16.6545C15.9984 16.6545 15.7791 20.4425 13.9752 21.4355C11.474 22.8113 10.5058 22.7554 9.12799 23.6388C9.12799 21.9457 9.65222 19.2391 11.3375 18.442Z" fill="#E5CEAE" stroke="#303030" stroke-width="0.4" stroke-miterlimit="10"/>
<path d="M8.33149 23.5249C8.33149 23.5249 9.30796 19.3791 7.65293 17.9206C5.72482 16.2201 5.07315 16.2718 3.67258 14.9084C3.67258 14.9084 2.83058 18.6095 4.28908 20.0639C6.31028 22.0789 7.25365 22.2961 8.33149 23.5249Z" fill="#F2E8DA" stroke="#303030" stroke-width="0.4" stroke-miterlimit="10"/>
<path d="M12.1402 12.7113C14.4655 11.6127 15.0758 11.8444 16.8012 10.9238C16.8012 10.9238 16.5819 14.7118 14.7779 15.7048C12.2767 17.0805 11.3085 17.0247 9.93073 17.9081C9.93073 16.2215 10.4605 13.5058 12.1402 12.7113Z" fill="#E5CEAE" stroke="#303030" stroke-width="0.4" stroke-miterlimit="10"/>
<path d="M9.13422 17.7942C9.13422 17.7942 10.1107 13.6484 8.45566 12.1899C6.52755 10.4893 5.87588 10.5411 4.47531 9.17773C4.47531 9.17773 3.63332 12.8788 5.09181 14.3332C7.11302 16.3482 8.05638 16.5654 9.13422 17.7942Z" fill="#F2E8DA" stroke="#303030" stroke-width="0.4" stroke-miterlimit="10"/>
<path d="M10.6465 12.4382C10.6465 12.4382 10.6403 9.16334 11.9953 8.33789C13.5759 7.37384 14.0083 7.52072 15.1771 6.72217C15.1771 6.72217 15.1627 9.63916 13.9421 10.4956C12.2498 11.6811 11.5754 11.6893 10.6465 12.4382Z" fill="#E5CEAE" stroke="#303030" stroke-width="0.4" stroke-miterlimit="10"/>
<path d="M9.88723 12.3347C9.88723 12.3347 10.812 9.19424 9.74242 8.02124C8.49701 6.65377 8.03981 6.67239 7.14195 5.578C7.14195 5.578 6.33719 8.38121 7.27022 9.54594C8.56114 11.1575 9.20867 11.3561 9.88723 12.3347Z" fill="#E5CEAE" stroke="#303030" stroke-width="0.4" stroke-miterlimit="10"/>
<path d="M12.1774 1C12.1774 1 10.4417 2.28679 10.1479 4.36385C9.85416 6.44091 10.7955 8.0525 10.7955 8.0525C10.7955 8.0525 12.5829 7.19188 12.9222 4.84174C13.1787 3.06672 12.6015 1.82338 12.1774 1Z" fill="#E5CEAE" stroke="#303030" stroke-width="0.4" stroke-miterlimit="10"/>
</g>
<defs>
<clipPath id="clip0_394_364">
<rect width="17.8012" height="42" fill="white"/>
</clipPath>
</defs>
</svg>
