<svg width="42" height="42" viewBox="0 0 42 42" fill="none" xmlns="http://www.w3.org/2000/svg">
<rect x="1.2" y="1.20013" width="2.52789" height="39.3384" fill="#E5CEAE" stroke="#303030" stroke-width="0.4"/>
<rect x="38.2721" y="1.2" width="2.52789" height="39.3384" fill="#E5CEAE" stroke="#303030" stroke-width="0.4"/>
<rect x="3.71819" y="6.08955" width="1.30794" height="34.5638" transform="rotate(-90 3.71819 6.08955)" fill="#E5CEAE" stroke="#303030" stroke-width="0.4"/>
<rect x="3.71819" y="19.3973" width="1.30794" height="34.5638" transform="rotate(-90 3.71819 19.3973)" fill="#E5CEAE" stroke="#303030" stroke-width="0.4"/>
<rect x="3.71819" y="32.705" width="1.30794" height="34.5638" transform="rotate(-90 3.71819 32.705)" fill="#E5CEAE" stroke="#303030" stroke-width="0.4"/>
<rect x="3.71819" y="12.7434" width="1.30794" height="34.5638" transform="rotate(-90 3.71819 12.7434)" fill="#E5CEAE" stroke="#303030" stroke-width="0.4"/>
<rect x="3.71819" y="26.0511" width="1.30794" height="34.5638" transform="rotate(-90 3.71819 26.0511)" fill="#E5CEAE" stroke="#303030" stroke-width="0.4"/>
<rect x="4.12786" y="30.1846" width="2.94142" height="3.73285" rx="1.47071" fill="#7F99AE" stroke="#303030" stroke-width="0.4"/>
<rect x="4.12822" y="23.5308" width="2.94142" height="3.73285" rx="1.47071" fill="#A9DBC2" stroke="#303030" stroke-width="0.4"/>
<rect x="4.12804" y="16.8765" width="2.94142" height="3.73285" rx="1.47071" fill="#BFA687" stroke="#303030" stroke-width="0.4"/>
<rect x="4.12822" y="10.223" width="2.94142" height="3.73285" rx="1.47071" fill="#5BA27E" stroke="#303030" stroke-width="0.4"/>
<rect x="4.12822" y="3.56915" width="2.94142" height="3.73285" rx="1.47071" fill="#A9C0D3" stroke="#303030" stroke-width="0.4"/>
<rect x="7.46929" y="30.1846" width="2.94142" height="3.73285" rx="1.47071" fill="#7F99AE" stroke="#303030" stroke-width="0.4"/>
<rect x="7.46965" y="23.5308" width="2.94142" height="3.73285" rx="1.47071" fill="#A9DBC2" stroke="#303030" stroke-width="0.4"/>
<rect x="7.46947" y="16.8765" width="2.94142" height="3.73285" rx="1.47071" fill="#BFA687" stroke="#303030" stroke-width="0.4"/>
<rect x="7.46965" y="10.223" width="2.94142" height="3.73285" rx="1.47071" fill="#5BA27E" stroke="#303030" stroke-width="0.4"/>
<rect x="7.46965" y="3.56915" width="2.94142" height="3.73285" rx="1.47071" fill="#A9C0D3" stroke="#303030" stroke-width="0.4"/>
<rect x="10.8107" y="30.1846" width="2.94142" height="3.73285" rx="1.47071" fill="#7F99AE" stroke="#303030" stroke-width="0.4"/>
<rect x="18.224" y="23.5308" width="2.94142" height="3.73285" rx="1.47071" fill="#A9DBC2" stroke="#303030" stroke-width="0.4"/>
<rect x="10.8109" y="16.8765" width="2.94142" height="3.73285" rx="1.47071" fill="#BFA687" stroke="#303030" stroke-width="0.4"/>
<rect x="10.8111" y="10.223" width="2.94142" height="3.73285" rx="1.47071" fill="#5BA27E" stroke="#303030" stroke-width="0.4"/>
<rect x="10.8111" y="3.56915" width="2.94142" height="3.73285" rx="1.47071" fill="#A9C0D3" stroke="#303030" stroke-width="0.4"/>
<rect x="14.1521" y="30.1846" width="2.94142" height="3.73285" rx="1.47071" fill="#7F99AE" stroke="#303030" stroke-width="0.4"/>
<rect x="21.5655" y="23.5308" width="2.94142" height="3.73285" rx="1.47071" fill="#A9DBC2" stroke="#303030" stroke-width="0.4"/>
<rect x="14.1523" y="16.8765" width="2.94142" height="3.73285" rx="1.47071" fill="#BFA687" stroke="#303030" stroke-width="0.4"/>
<rect x="14.1525" y="10.223" width="2.94142" height="3.73285" rx="1.47071" fill="#5BA27E" stroke="#303030" stroke-width="0.4"/>
<rect x="14.1525" y="3.56915" width="2.94142" height="3.73285" rx="1.47071" fill="#A9C0D3" stroke="#303030" stroke-width="0.4"/>
<rect x="17.4932" y="30.1846" width="2.94142" height="3.73285" rx="1.47071" fill="#7F99AE" stroke="#303030" stroke-width="0.4"/>
<rect x="24.9064" y="23.5308" width="2.94142" height="3.73285" rx="1.47071" fill="#A9DBC2" stroke="#303030" stroke-width="0.4"/>
<rect x="17.4934" y="16.8765" width="2.94142" height="3.73285" rx="1.47071" fill="#BFA687" stroke="#303030" stroke-width="0.4"/>
<rect x="24.9063" y="10.223" width="2.94142" height="3.73285" rx="1.47071" fill="#5BA27E" stroke="#303030" stroke-width="0.4"/>
<rect x="17.4936" y="3.56915" width="2.94142" height="3.73285" rx="1.47071" fill="#A9C0D3" stroke="#303030" stroke-width="0.4"/>
<rect x="24.9068" y="30.1846" width="2.94142" height="3.73285" rx="1.47071" fill="#7F99AE" stroke="#303030" stroke-width="0.4"/>
<rect x="28.2477" y="23.5308" width="2.94142" height="3.73285" rx="1.47071" fill="#A9DBC2" stroke="#303030" stroke-width="0.4"/>
<rect x="20.8349" y="16.8765" width="2.94142" height="3.73285" rx="1.47071" fill="#BFA687" stroke="#303030" stroke-width="0.4"/>
<rect x="28.2476" y="10.223" width="2.94142" height="3.73285" rx="1.47071" fill="#5BA27E" stroke="#303030" stroke-width="0.4"/>
<rect x="28.2476" y="3.56918" width="2.94142" height="3.73285" rx="1.47071" fill="#A9C0D3" stroke="#303030" stroke-width="0.4"/>
<rect x="28.2482" y="30.1846" width="2.94142" height="3.73285" rx="1.47071" fill="#7F99AE" stroke="#303030" stroke-width="0.4"/>
<rect x="31.5893" y="23.5308" width="2.94142" height="3.73285" rx="1.47071" fill="#A9DBC2" stroke="#303030" stroke-width="0.4"/>
<rect x="31.589" y="16.8765" width="2.94142" height="3.73285" rx="1.47071" fill="#BFA687" stroke="#303030" stroke-width="0.4"/>
<rect x="31.589" y="10.223" width="2.94142" height="3.73285" rx="1.47071" fill="#5BA27E" stroke="#303030" stroke-width="0.4"/>
<rect x="31.589" y="3.56918" width="2.94142" height="3.73285" rx="1.47071" fill="#A9C0D3" stroke="#303030" stroke-width="0.4"/>
<rect x="31.5896" y="30.1846" width="2.94142" height="3.73285" rx="1.47071" fill="#7F99AE" stroke="#303030" stroke-width="0.4"/>
<rect x="34.9306" y="23.5308" width="2.94142" height="3.73285" rx="1.47071" fill="#A9DBC2" stroke="#303030" stroke-width="0.4"/>
<rect x="34.9305" y="16.8765" width="2.94142" height="3.73285" rx="1.47071" fill="#BFA687" stroke="#303030" stroke-width="0.4"/>
<rect x="34.9305" y="10.223" width="2.94142" height="3.73285" rx="1.47071" fill="#5BA27E" stroke="#303030" stroke-width="0.4"/>
<rect x="34.9305" y="3.56918" width="2.94142" height="3.73285" rx="1.47071" fill="#A9C0D3" stroke="#303030" stroke-width="0.4"/>
</svg>
