<svg width="40" height="42" viewBox="0 0 40 42" fill="none" xmlns="http://www.w3.org/2000/svg">
<g clip-path="url(#clip0_332_383)">
<path d="M10.375 9.1036L10.375 4.12491L4.81567 4.12491M29.75 9.96654L29.75 2.24976L34.5299 2.24976M13.5 29.8362L13.5 39.7499L7.4101 39.7499" stroke="#303030" stroke-width="0.4"/>
<circle cx="2.875" cy="4.12488" r="2.075" stroke="#303030" stroke-width="0.4"/>
<circle cx="5.99994" cy="39.75" r="1.45" stroke="#303030" stroke-width="0.4"/>
<circle cx="36" cy="2.25" r="1.45" stroke="#303030" stroke-width="0.4"/>
<path d="M4.1522 14.5011C4.1522 14.5011 1 15.3751 1.02376 18.8854C0.593368 24.4452 6.15316 24.8333 6.15316 24.8333C6.15316 24.8333 7.99748 28.7491 12.2661 27.2717C12.2661 27.2717 12.9829 32.3531 18.8461 31.1155C18.8461 31.1155 22.7549 36.197 27.4469 30.7247C27.4469 30.7247 30.0532 31.9622 32.3336 29.8131C32.3336 29.8131 36.406 33.4622 38.2631 27.7938C39.5006 24.0148 37.0015 21.0176 37.0015 21.0176C37.0015 21.0176 38.5876 18.6074 35.3308 17.1737C35.3308 17.1737 36.7645 13.6558 32.9855 13.0688C32.9855 13.0688 32.0739 9.35475 28.2949 9.94178C28.2949 9.94178 26.7681 5.70702 22.0268 7.40036C22.0268 7.40036 18.7826 4.33824 15.3296 7.27054C15.3296 7.27054 12.7233 6.55369 10.6391 9.09511C10.6391 9.09511 4.125 7.87512 4.125 13.5001L4.1522 14.5011Z" stroke="#303030" stroke-width="0.4" stroke-miterlimit="10"/>
<path d="M16.9199 31.3072C16.9199 31.3072 17.2586 34.3453 19.6575 34.6544C19.6575 34.6544 21.0982 40.5839 25.5531 40.2325C30.008 39.8811 33.7023 36.6299 33.0842 34.1083C32.4139 31.3749 33.849 30.7117 33.849 30.7117C32.9826 30.3815 32.3405 29.8086 32.3405 29.8086C30.0602 31.9591 27.4539 30.7202 27.4539 30.7202C22.7633 36.1925 18.8531 31.1111 18.8531 31.1111C17.8216 31.3467 16.9199 31.3058 16.9199 31.3058V31.3072Z" stroke="#303030" stroke-width="0.4" stroke-miterlimit="10"/>
<path d="M18.873 18.9162L18.892 18.5129C18.891 18.4093 18.8179 18.311 18.7376 18.3152L18.7298 18.314C18.7298 18.314 18.4002 18.2263 18.0818 18.172C17.9348 18.1426 17.771 18.1188 17.6373 18.1073L17.5585 18.0958C17.5234 17.7886 17.4504 17.4908 17.3437 17.2079C17.4337 17.148 17.6062 17.0325 17.781 16.9021C17.8883 16.8221 18.0145 16.7211 18.1326 16.619L18.297 16.4757C18.3304 16.4646 18.3505 16.4358 18.3539 16.4124C18.3697 16.3589 18.3632 16.2943 18.34 16.2351C18.34 16.2351 18.3232 16.185 18.2845 16.1235L18.279 16.1068C18.2402 16.0455 18.1958 15.9673 18.1515 15.8893C18.1004 15.8022 18.0483 15.7231 18.0016 15.6604L17.9285 15.5621C17.8618 15.4729 17.7549 15.4415 17.6924 15.488L17.6835 15.4947C17.6835 15.4947 17.6076 15.5236 17.4893 15.5699C17.3622 15.6231 17.2083 15.6961 17.0722 15.756C16.8558 15.8635 16.6627 15.9666 16.6036 16.002C16.4004 15.7796 16.1699 15.5811 15.9165 15.4123C15.923 15.3947 15.9271 15.3768 15.9358 15.3596L15.938 15.344C15.9661 15.2605 16.0211 15.1014 16.0794 14.9189C16.1729 14.606 16.2451 14.2741 16.2451 14.2741L16.2473 14.2586C16.2674 14.2297 16.2642 14.1974 16.2543 14.156C16.2378 14.1059 16.1965 14.0602 16.1377 14.0276L15.7727 13.8552L15.3943 13.7204C15.3263 13.6946 15.2696 13.7022 15.2181 13.7265C15.1914 13.7465 15.1646 13.7666 15.1601 13.7978L15.1589 13.8056C15.1589 13.8056 14.9744 14.0891 14.8209 14.3773C14.7549 14.5031 14.6775 14.651 14.6193 14.7778C14.6081 14.8 14.5981 14.8145 14.5947 14.838L14.5832 14.8607C14.5179 14.8476 14.452 14.8361 14.3853 14.8264C14.1491 14.792 13.9149 14.7808 13.6849 14.7905C13.6646 14.7066 13.6077 14.5012 13.5288 14.2846C13.4779 14.1418 13.4203 13.9902 13.3684 13.8552C13.3218 13.737 13.2853 13.6601 13.2853 13.6601L13.2787 13.6512C13.2733 13.5787 13.1698 13.5239 13.0561 13.5391C13.0561 13.5391 13.0071 13.5479 12.9335 13.561C12.8522 13.5732 12.7452 13.5974 12.6626 13.6171L12.3973 13.69C12.3304 13.712 12.2801 13.7288 12.2801 13.7288C12.2133 13.7508 12.1585 13.7985 12.1361 13.8431C12.1249 13.8653 12.1204 13.8965 12.1314 13.9299L12.1303 13.9377C12.1303 13.9377 12.1345 14.018 12.1476 14.1473C12.1627 14.3166 12.1812 14.4625 12.201 14.6008C12.2269 14.8015 12.2616 14.9957 12.29 15.1272C12.0151 15.2535 11.7571 15.4126 11.5213 15.6001C11.5004 15.5813 11.4795 15.5625 11.4586 15.5437C11.3941 15.4943 11.2507 15.386 11.0917 15.2752C10.8236 15.0929 10.4968 14.8782 10.4732 14.8748C10.4121 14.8579 10.3362 14.8866 10.2726 14.9409L9.75386 15.5502C9.7237 15.5935 9.70017 15.6459 9.70116 15.6938C9.70327 15.7338 9.98097 16.0689 10.2099 16.3012C10.362 16.4587 10.5166 16.6006 10.5931 16.6756L10.5974 16.6794C10.4511 16.9371 10.334 17.2153 10.2514 17.51C10.1614 17.5053 9.9515 17.4984 9.72408 17.5043C9.39659 17.5124 9.05776 17.5426 9.05776 17.5426L9.04997 17.5414C9.01106 17.5358 8.97766 17.5468 8.94176 17.5736C8.90496 17.6079 8.88259 17.6524 8.8735 17.7148L8.84286 17.9252C8.8349 17.9799 8.8247 18.0499 8.82339 18.1135L8.80442 18.5168C8.80655 18.6126 8.85862 18.6918 8.92774 18.7098L8.96666 18.7154C8.96666 18.7154 9.29625 18.8034 9.61463 18.8577C9.7538 18.8859 9.91765 18.9098 10.0591 18.9224L10.1337 18.9333C10.167 19.2365 10.2371 19.5308 10.3402 19.8107L10.3352 19.8145C10.1678 19.9255 10.0249 20.0321 9.89207 20.124C9.75809 20.2239 9.63967 20.3261 9.54023 20.4072C9.44876 20.4895 9.38501 20.5438 9.38501 20.5438L9.3761 20.5504C9.34267 20.5617 9.32257 20.5905 9.31917 20.6139C9.30345 20.6672 9.30992 20.732 9.33312 20.791C9.33312 20.791 9.35077 20.8335 9.38861 20.9026C9.40742 20.9371 9.43286 20.9808 9.46498 21.0332L9.52825 21.1459C9.57935 21.233 9.63029 21.3199 9.67814 21.3748L9.75016 21.4807C9.81683 21.5701 9.93152 21.6027 9.98615 21.555L9.99507 21.5483C9.99507 21.5483 10.071 21.5194 10.1892 21.4731C10.2739 21.4375 10.4356 21.3657 10.6064 21.287C10.7514 21.2205 10.9154 21.1329 11.0805 21.0375L11.0833 21.0354C11.2836 21.2559 11.5105 21.4531 11.76 21.6214L11.7597 21.6221C11.7485 21.6443 11.744 21.6756 11.7316 21.7056C11.689 21.8347 11.6352 21.9861 11.59 22.1307C11.4968 22.4436 11.4246 22.7755 11.4246 22.7755L11.4223 22.7911C11.4022 22.82 11.4055 22.8522 11.4165 22.8856C11.4331 22.9359 11.4741 22.9816 11.5332 23.0141L11.8981 23.1867L12.2765 23.3214C12.3445 23.3472 12.4013 23.3396 12.4527 23.3153C12.4795 23.2952 12.5062 23.2752 12.5108 23.2441L12.513 23.2285C12.513 23.2285 12.6976 22.9448 12.851 22.6567C12.9394 22.4866 13.0179 22.3307 13.0526 22.2563C13.065 22.2261 13.0762 22.2038 13.0873 22.1816L13.0883 22.1798C13.161 22.1948 13.2344 22.208 13.3089 22.2189C13.5374 22.2521 13.7641 22.2638 13.9869 22.2557C14.0087 22.3425 14.072 22.5455 14.142 22.7571C14.2028 22.9412 14.2671 23.1018 14.3025 23.1864C14.3488 23.3047 14.3866 23.374 14.3855 23.3817L14.3922 23.3907C14.3975 23.4632 14.501 23.518 14.6147 23.5027C14.6147 23.5027 14.6637 23.4938 14.7373 23.4807C14.8097 23.4753 14.9011 23.4489 15.0082 23.4247C15.1073 23.3992 15.1988 23.3728 15.2736 23.3519C15.3404 23.3296 15.3907 23.3131 15.3907 23.3131C15.4575 23.291 15.511 23.2511 15.5347 23.1987C15.5459 23.1765 15.5504 23.1454 15.5394 23.1118L15.5406 23.104L15.5232 22.8946C15.5081 22.7251 15.4907 22.5713 15.4776 22.442C15.4472 22.2313 15.4075 22.0339 15.3898 21.9248C15.6707 21.7971 15.9343 21.6351 16.1746 21.4437C16.1927 21.4599 16.2109 21.4753 16.23 21.4849C16.3445 21.5731 16.4735 21.6715 16.5969 21.7533C16.8651 21.9356 17.1509 22.1046 17.1575 22.1135L17.1642 22.1225C17.2198 22.1783 17.3335 22.163 17.4161 22.0874C17.4161 22.0874 17.5491 21.9396 17.6898 21.793C17.7367 21.744 17.7758 21.6941 17.8073 21.6428C17.8263 21.6217 17.8452 21.6006 17.8564 21.5784C17.8967 21.5205 17.9346 21.4783 17.9346 21.4783C17.9661 21.4271 17.9885 21.3826 17.9875 21.3348C17.9865 21.2868 17.9675 21.2522 17.9309 21.231L17.9242 21.222C17.9242 21.222 17.7077 20.9596 17.4788 20.7274C17.3301 20.5732 17.1792 20.4345 17.101 20.3583C17.2456 20.1021 17.3615 19.8259 17.4433 19.5333C17.5772 19.5369 17.7653 19.5413 17.9543 19.5387C18.282 19.5306 18.6131 19.4993 18.6208 19.5004L18.6286 19.5016C18.6675 19.5072 18.701 19.496 18.7366 19.4694C18.7736 19.435 18.796 19.3906 18.8051 19.3281C18.8229 19.3148 18.8309 19.2602 18.8411 19.1901L18.8536 19.1043C18.8615 19.0498 18.8718 18.9796 18.873 18.9162ZM13.5652 20.4859C12.4713 20.3266 11.7136 19.3107 11.8729 18.2168C12.0322 17.1229 13.0481 16.3652 14.142 16.5245C15.2359 16.6838 15.9936 17.6997 15.8343 18.7936C15.675 19.8876 14.6591 20.6452 13.5652 20.4859Z" stroke="#303030" stroke-width="0.213375" stroke-linecap="round"/>
<path d="M16.2615 20.1394C16.4966 19.7894 16.6589 19.3826 16.7237 18.9376C16.9553 17.3469 15.8538 15.8699 14.2631 15.6383C13.2822 15.4954 12.3445 15.8596 11.7154 16.5328" stroke="#303030" stroke-width="0.213375"/>
<path d="M11.3714 16.9813C11.1658 17.3117 11.0236 17.689 10.9639 18.0987C10.7323 19.6889 11.8338 21.1664 13.4245 21.398C14.3557 21.5336 15.248 21.2121 15.8743 20.6032" stroke="#303030" stroke-width="0.213375"/>
<path d="M12.3439 16.5972L11.7096 16.5275L11.7792 15.8932" stroke="#303030" stroke-width="0.213375" stroke-linecap="round"/>
<path d="M15.2412 20.535L15.8755 20.6046L15.8059 21.2389" stroke="#303030" stroke-width="0.213375" stroke-linecap="round"/>
<path d="M28.0685 14.9095L27.9549 14.5222C27.9201 14.4245 27.8189 14.3555 27.7444 14.3857L27.7367 14.3871C27.7367 14.3871 27.3965 14.4118 27.0778 14.4643C26.9293 14.4845 26.7666 14.5155 26.6365 14.5482L26.5583 14.5631C26.4248 14.2841 26.2587 14.0264 26.0655 13.7938C26.131 13.7079 26.2563 13.5424 26.3791 13.3621C26.4543 13.2515 26.5406 13.1148 26.6191 12.9798L26.7276 12.7906C26.7556 12.7693 26.7652 12.7354 26.7608 12.7123C26.7582 12.6565 26.731 12.5976 26.6898 12.5492C26.6898 12.5492 26.6576 12.5073 26.6009 12.4618L26.5902 12.4478C26.5336 12.4025 26.466 12.3431 26.3987 12.2839C26.322 12.2182 26.247 12.1604 26.1824 12.1164L26.0812 12.0474C25.989 11.9848 25.8777 11.99 25.8339 12.0543L25.8276 12.0635C25.8276 12.0635 25.7653 12.1156 25.6686 12.198C25.5658 12.2898 25.4441 12.409 25.335 12.51C25.1656 12.6823 25.0167 12.8428 24.9723 12.8955C24.7077 12.7516 24.4251 12.6392 24.1304 12.5623C24.1309 12.5436 24.1289 12.5252 24.1315 12.5062L24.1285 12.4907C24.1278 12.4026 24.1278 12.2343 24.1235 12.0427C24.1097 11.7165 24.0696 11.3792 24.0696 11.3792L24.0667 11.3638C24.0762 11.3299 24.0626 11.3005 24.0398 11.2646C24.0078 11.2226 23.9539 11.1928 23.8877 11.1812L23.4864 11.1374L23.0847 11.1334C23.012 11.1312 22.9609 11.157 22.9202 11.1967C22.9014 11.2243 22.8827 11.2521 22.8886 11.283L22.89 11.2907C22.89 11.2907 22.8081 11.619 22.7571 11.9415C22.7357 12.0819 22.7109 12.247 22.6972 12.3859C22.6939 12.4105 22.6891 12.4274 22.6936 12.4508L22.6902 12.476C22.6242 12.4849 22.5581 12.4956 22.4919 12.5081C22.2574 12.5527 22.0324 12.6185 21.8181 12.7028C21.7715 12.6301 21.6507 12.4545 21.5055 12.2755C21.4107 12.1572 21.3068 12.0326 21.2137 11.922C21.1311 11.8254 21.0715 11.7647 21.0715 11.7647L21.0623 11.7584C21.0336 11.6916 20.9179 11.6736 20.8154 11.7251C20.8154 11.7251 20.772 11.7493 20.7066 11.7858C20.6338 11.8238 20.5405 11.8816 20.4689 11.9272L20.2418 12.0827C20.1859 12.1253 20.1438 12.1576 20.1438 12.1576C20.0878 12.2002 20.0515 12.2632 20.0449 12.3127C20.0416 12.3373 20.0475 12.3682 20.0688 12.3962L20.0703 12.4039C20.0703 12.4039 20.1005 12.4785 20.1551 12.5964C20.2246 12.7515 20.2897 12.8835 20.3536 13.0076C20.4435 13.189 20.5397 13.3612 20.6094 13.4762C20.3908 13.6853 20.1988 13.9199 20.0372 14.1741C20.0113 14.1631 19.9854 14.1522 19.9595 14.1412C19.8824 14.1156 19.7115 14.06 19.5251 14.0072C19.2121 13.9224 18.8331 13.8261 18.8097 13.8305C18.7464 13.8345 18.684 13.8864 18.6417 13.9585L18.3502 14.7037C18.3358 14.7545 18.3307 14.8117 18.3472 14.8566C18.3623 14.8938 18.7341 15.1199 19.0263 15.2648C19.2215 15.364 19.4139 15.4477 19.5107 15.4936L19.516 15.4958C19.4618 15.7872 19.4419 16.0883 19.46 16.3938C19.3734 16.4187 19.1727 16.4807 18.9597 16.5605C18.6528 16.6751 18.3423 16.8141 18.3423 16.8141L18.3346 16.8156C18.296 16.8229 18.268 16.8443 18.2428 16.8813C18.2192 16.9258 18.2126 16.9751 18.2244 17.0371L18.2641 17.2459C18.2744 17.3002 18.2876 17.3698 18.3071 17.4303L18.4208 17.8177C18.4541 17.9076 18.5291 17.9654 18.6003 17.9599L18.639 17.9525C18.639 17.9525 18.9792 17.9281 19.2979 17.8756C19.4387 17.8568 19.6013 17.8259 19.7391 17.7917L19.8132 17.7776C19.9437 18.0534 20.106 18.3087 20.2948 18.5396L20.2912 18.5449C20.1692 18.7044 20.0689 18.8517 19.9734 18.982C19.8793 19.1202 19.8007 19.2554 19.7332 19.3645C19.6736 19.4721 19.6311 19.5443 19.6311 19.5443L19.6248 19.5535C19.5969 19.575 19.5873 19.6088 19.5917 19.632C19.5942 19.6876 19.6215 19.7467 19.6627 19.7949C19.6627 19.7949 19.6932 19.8293 19.7516 19.8823C19.7806 19.9088 19.8189 19.9417 19.8663 19.9808L19.9629 20.0667C20.0397 20.1324 20.1162 20.1979 20.1793 20.2341L20.2819 20.3107C20.3741 20.3734 20.4932 20.3668 20.5293 20.3039L20.5355 20.2947C20.5355 20.2947 20.5979 20.2426 20.6945 20.1602C20.7629 20.099 20.8923 19.9783 21.0281 19.8482C21.1435 19.738 21.2699 19.6017 21.3949 19.4576L21.3968 19.4548C21.6581 19.5979 21.9369 19.7102 22.2277 19.7879L22.2276 19.7886C22.2243 19.8132 22.2302 19.8443 22.2284 19.8767C22.2302 20.0127 22.2287 20.1733 22.2332 20.3248C22.2472 20.651 22.2873 20.9883 22.2873 20.9883L22.2902 21.0037C22.2806 21.0376 22.2942 21.067 22.3156 21.095C22.3476 21.1371 22.4013 21.1669 22.4677 21.1783L22.869 21.2224L23.2707 21.2263C23.3434 21.2285 23.3945 21.2028 23.4352 21.163C23.454 21.1352 23.4727 21.1076 23.4669 21.0767L23.4639 21.0613C23.4639 21.0613 23.5458 20.7328 23.5969 20.4105C23.6249 20.2208 23.6482 20.0478 23.6567 19.9662C23.6585 19.9336 23.6619 19.9089 23.6652 19.8843L23.6655 19.8823C23.7391 19.8727 23.8128 19.8612 23.8867 19.8472C24.1136 19.8041 24.3317 19.7411 24.5397 19.6607C24.5886 19.7357 24.7147 19.9069 24.8499 20.0841C24.9675 20.2383 25.0806 20.3691 25.1417 20.4375C25.2241 20.5342 25.2824 20.5873 25.2839 20.5951L25.2931 20.6013C25.3218 20.6681 25.4375 20.6862 25.54 20.6347C25.54 20.6347 25.5834 20.6102 25.6488 20.5738C25.7154 20.5451 25.7932 20.4903 25.8865 20.4325C25.9719 20.376 26.0497 20.3212 26.1136 20.277C26.1695 20.2342 26.2117 20.2022 26.2117 20.2022C26.2676 20.1595 26.3052 20.1043 26.3105 20.0471C26.3138 20.0224 26.3079 19.9915 26.2866 19.9633L26.2851 19.9556L26.2003 19.7634C26.1308 19.608 26.0642 19.4684 26.0096 19.3504C25.9121 19.1612 25.8101 18.9876 25.7578 18.8901C25.9817 18.6778 26.1779 18.4387 26.3426 18.1793C26.365 18.1887 26.3873 18.1973 26.4084 18.2001C26.5455 18.2461 26.6995 18.2971 26.8429 18.3341C27.1558 18.419 27.4811 18.4855 27.4903 18.4917L27.4995 18.498C27.5703 18.5326 27.6728 18.4811 27.7262 18.3826C27.7262 18.3826 27.8037 18.1996 27.8889 18.015C27.9172 17.9534 27.9379 17.8934 27.9509 17.8347C27.962 17.8086 27.973 17.7825 27.9763 17.7578C27.9955 17.6899 28.0176 17.6377 28.0176 17.6377C28.0306 17.579 28.0373 17.5297 28.0207 17.4848C28.0042 17.4397 27.9749 17.4132 27.9333 17.4051L27.9241 17.3988C27.9241 17.3988 27.6338 17.2214 27.3417 17.0766C27.1508 16.9794 26.9629 16.8975 26.8641 16.851C26.9172 16.5616 26.9366 16.2627 26.9185 15.9595C27.0462 15.9192 27.2254 15.862 27.4033 15.7978C27.7104 15.6832 28.0131 15.5456 28.0208 15.5441L28.0285 15.5427C28.0672 15.5353 28.0951 15.5138 28.1201 15.477C28.1439 15.4325 28.1505 15.3832 28.1388 15.3212C28.1513 15.3028 28.141 15.2485 28.1277 15.1789L28.1116 15.0937C28.1013 15.0396 28.088 14.9699 28.0685 14.9095ZM23.5635 18.1255C22.4775 18.3319 21.4298 17.6188 21.2234 16.5328C21.017 15.4468 21.73 14.3991 22.816 14.1927C23.9021 13.9863 24.9498 14.6994 25.1562 15.7854C25.3626 16.8714 24.6495 17.9191 23.5635 18.1255Z" stroke="#303030" stroke-width="0.213375" stroke-linecap="round"/>
<path d="M25.999 16.918C26.107 16.5104 26.1278 16.0729 26.0438 15.6311C25.7437 14.052 24.2205 13.0153 22.6413 13.3154C21.6674 13.5005 20.8998 14.1507 20.5249 14.9924" stroke="#303030" stroke-width="0.213375"/>
<path d="M20.3461 15.5287C20.2596 15.9081 20.2482 16.3112 20.3255 16.718C20.6256 18.2966 22.1489 19.3339 23.7281 19.0337C24.6526 18.858 25.3911 18.2629 25.7844 17.483" stroke="#303030" stroke-width="0.213375"/>
<path d="M21.14 14.8481L20.5177 14.9893L20.3765 14.3669" stroke="#303030" stroke-width="0.213375" stroke-linecap="round"/>
<path d="M25.1638 17.6252L25.7861 17.4839L25.9273 18.1063" stroke="#303030" stroke-width="0.213375" stroke-linecap="round"/>
<path d="M24.2869 20.5607L23.9976 20.6548C23.9248 20.6831 23.875 20.7609 23.8993 20.8164L23.9006 20.8222C23.9006 20.8222 23.9266 21.0779 23.9732 21.3169C23.9917 21.4283 24.0186 21.5502 24.0461 21.6475L24.059 21.7061C23.8518 21.8128 23.6613 21.9436 23.4903 22.0942C23.4241 22.0468 23.2967 21.956 23.1581 21.8675C23.0731 21.8132 22.9683 21.7512 22.8648 21.695L22.7199 21.6174C22.7032 21.5968 22.6775 21.5903 22.6602 21.5941C22.6182 21.5973 22.5744 21.6191 22.5389 21.6512C22.5389 21.6512 22.508 21.6764 22.475 21.7201L22.4647 21.7284C22.4318 21.7721 22.3885 21.8243 22.3453 21.8763C22.2975 21.9356 22.2556 21.9934 22.2239 22.043L22.1741 22.1208C22.129 22.1916 22.1353 22.2753 22.1848 22.3069L22.1919 22.3114C22.1919 22.3114 22.2325 22.3573 22.2967 22.4283C22.3681 22.5037 22.4606 22.5928 22.5391 22.6728C22.6726 22.7967 22.7968 22.9053 22.8375 22.9376C22.7348 23.1401 22.6563 23.3555 22.6048 23.5792C22.5907 23.5792 22.577 23.5811 22.5626 23.5796L22.551 23.5822C22.4846 23.5847 22.3578 23.5883 22.2136 23.5958C21.9681 23.6133 21.7148 23.6509 21.7148 23.6509L21.7033 23.6535C21.6776 23.647 21.6557 23.6579 21.6291 23.6759C21.5982 23.7009 21.577 23.7422 21.5697 23.7924L21.5454 24.0956L21.5513 24.3984C21.5512 24.4532 21.5717 24.4911 21.6026 24.5209C21.6238 24.5345 21.6451 24.548 21.6683 24.5429L21.6741 24.5416C21.6741 24.5416 21.9232 24.5961 22.1673 24.6275C22.2735 24.6405 22.3984 24.6556 22.5034 24.6628C22.522 24.6648 22.5349 24.668 22.5524 24.6642L22.5714 24.6662C22.5796 24.7157 22.5891 24.7653 22.6 24.8149C22.6387 24.9905 22.6933 25.1586 22.7615 25.3182C22.7077 25.3549 22.578 25.4498 22.4464 25.5631C22.3593 25.6371 22.2677 25.7181 22.1864 25.7907C22.1155 25.8551 22.071 25.9013 22.071 25.9013L22.0665 25.9083C22.0168 25.9314 22.0058 26.019 22.0468 26.0951C22.0468 26.0951 22.066 26.1273 22.0949 26.1757C22.1252 26.2298 22.1708 26.2988 22.2067 26.3517L22.3288 26.5194C22.3622 26.5606 22.3874 26.5916 22.3874 26.5916C22.4208 26.6329 22.469 26.6588 22.5064 26.6627C22.5251 26.6647 22.5482 26.6596 22.5688 26.6429L22.5746 26.6416C22.5746 26.6416 22.6301 26.6172 22.7177 26.5735C22.8331 26.5177 22.9311 26.4658 23.0232 26.4149C23.1579 26.3432 23.2855 26.267 23.3707 26.2119C23.533 26.372 23.7139 26.5115 23.909 26.6277C23.9013 26.6475 23.8936 26.6672 23.8859 26.687C23.8684 26.7456 23.8302 26.8756 23.7945 27.0172C23.7374 27.2548 23.6732 27.5425 23.6771 27.56C23.6815 27.6076 23.7219 27.6535 23.7772 27.6838L24.345 27.8871C24.3836 27.8968 24.4268 27.8994 24.4603 27.886C24.4879 27.8738 24.6502 27.5887 24.7529 27.3654C24.8234 27.2162 24.8822 27.0693 24.9146 26.9954L24.9162 26.9914C25.1369 27.0258 25.3642 27.0342 25.594 27.0139C25.6147 27.0785 25.6658 27.2284 25.7306 27.3872C25.8236 27.6159 25.9352 27.8467 25.9352 27.8467L25.9365 27.8525C25.9429 27.8814 25.9595 27.9021 25.988 27.9202C26.022 27.937 26.0593 27.9409 26.1058 27.9307L26.2623 27.8962C26.3029 27.8872 26.355 27.8758 26.4002 27.8597L26.6896 27.7656C26.7566 27.7385 26.7985 27.6807 26.7928 27.6272L26.7864 27.5983C26.7864 27.5983 26.7605 27.3424 26.7139 27.1035C26.6967 26.9979 26.6699 26.876 26.6411 26.7729L26.6288 26.7174C26.8337 26.6131 27.0225 26.4852 27.1924 26.3379L27.1964 26.3404C27.3193 26.4289 27.4325 26.5012 27.5327 26.5703C27.6389 26.6381 27.7425 26.6944 27.8262 26.7429C27.9086 26.7854 27.9639 26.8159 27.9639 26.8159L27.9709 26.8204C27.9878 26.841 28.0135 26.8474 28.0308 26.8436C28.0726 26.8405 28.1165 26.8187 28.152 26.7866C28.152 26.7866 28.1772 26.7628 28.2159 26.7177C28.2352 26.6952 28.2592 26.6657 28.2875 26.629L28.3502 26.5544C28.398 26.4951 28.4457 26.4361 28.4716 26.3877L28.527 26.3087C28.5723 26.2379 28.5647 26.1483 28.5165 26.1225L28.5094 26.118C28.5094 26.118 28.4688 26.0721 28.4046 26.0012C28.357 25.9509 28.2632 25.8561 28.1622 25.7566C28.0767 25.6721 27.9712 25.5799 27.8599 25.4889L27.8577 25.4875C27.9598 25.2875 28.0383 25.075 28.0904 24.8542C28.1091 24.8562 28.1329 24.8511 28.1574 24.8518C28.2598 24.8474 28.3808 24.845 28.4948 24.8383C28.7403 24.8206 28.9935 24.783 28.9935 24.783L29.0051 24.7804C29.0308 24.7869 29.0527 24.776 29.0733 24.7593C29.1043 24.7343 29.1256 24.6932 29.1328 24.6429L29.1571 24.3396L29.1513 24.0368C29.1513 23.982 29.1308 23.9441 29.1 23.9143C29.0786 23.9008 29.0574 23.8872 29.0343 23.8923L29.0227 23.8949C29.0227 23.8949 28.7735 23.8404 28.5295 23.809C28.386 23.7921 28.2551 23.7783 28.1934 23.7737C28.1688 23.773 28.1502 23.771 28.1315 23.7691L28.13 23.7689C28.1212 23.7137 28.1109 23.6583 28.0987 23.603C28.0613 23.433 28.0091 23.2701 27.9439 23.1151C27.9994 23.0766 28.1255 22.9779 28.2561 22.8721C28.3697 22.7801 28.4657 22.692 28.516 22.6445C28.587 22.5803 28.6258 22.5352 28.6315 22.5339L28.6361 22.5269C28.6858 22.5038 28.6968 22.4162 28.6558 22.3401C28.6558 22.3401 28.6364 22.3079 28.6075 22.2595C28.5844 22.2099 28.5414 22.1525 28.4958 22.0835C28.4514 22.0204 28.4084 21.9629 28.3737 21.9158C28.3402 21.8746 28.3152 21.8436 28.3152 21.8436C28.2818 21.8023 28.2394 21.7753 28.1962 21.7725C28.1775 21.7705 28.1543 21.7756 28.1336 21.7924L28.1278 21.7936L27.9848 21.8617C27.8693 21.9175 27.7655 21.9708 27.6779 22.0145C27.5374 22.0921 27.4089 22.1727 27.3366 22.2143C27.1717 22.0503 26.9873 21.9077 26.7883 21.7893C26.7948 21.7722 26.8008 21.7552 26.8025 21.7392C26.8342 21.635 26.8692 21.5178 26.8939 21.409C26.951 21.1713 26.994 20.9248 26.9985 20.9177L27.003 20.9107C27.0275 20.8565 26.9864 20.7804 26.9111 20.7424C26.9111 20.7424 26.7715 20.688 26.6306 20.6279C26.5835 20.6079 26.5379 20.5937 26.4934 20.5851C26.4734 20.5774 26.4535 20.5696 26.4349 20.5676C26.3833 20.5547 26.3435 20.5392 26.3435 20.5392C26.2989 20.5307 26.2616 20.5267 26.2282 20.5402C26.1946 20.5537 26.1753 20.5763 26.1701 20.6078L26.1656 20.6149C26.1656 20.6149 26.0383 20.8375 25.9355 21.0608C25.8665 21.2067 25.8089 21.3501 25.7761 21.4255C25.5569 21.3918 25.3313 21.3838 25.1032 21.4041C25.07 21.3087 25.023 21.175 24.9708 21.0424C24.8777 20.8135 24.7674 20.5885 24.7661 20.5827L24.7648 20.5769C24.7584 20.548 24.7416 20.5274 24.7133 20.5093C24.6792 20.4924 24.642 20.4885 24.5955 20.4987C24.5814 20.4897 24.5407 20.4987 24.4886 20.5101L24.4247 20.5242C24.3842 20.5331 24.332 20.5447 24.2869 20.5607ZM26.8087 23.8843C26.988 24.6979 26.4738 25.5029 25.6601 25.6823C24.8464 25.8616 24.0414 25.3474 23.8621 24.5337C23.6827 23.72 24.197 22.915 25.0107 22.7357C25.8243 22.5563 26.6293 23.0706 26.8087 23.8843Z" stroke="#303030" stroke-width="0.213375" stroke-linecap="round"/>
<path d="M25.8454 22.076C25.536 22.0036 25.2059 21.9976 24.8749 22.0705C23.6917 22.3313 22.9441 23.5016 23.2048 24.6848C23.3657 25.4145 23.8724 25.9785 24.5147 26.2425" stroke="#303030" stroke-width="0.213375"/>
<path d="M24.9227 26.365C25.2105 26.4219 25.5144 26.4216 25.8192 26.3544C27.0019 26.0938 27.75 24.9233 27.4892 23.7401C27.3366 23.0474 26.872 22.5041 26.2758 22.2249" stroke="#303030" stroke-width="0.213375"/>
<path d="M24.3924 25.7821L24.5124 26.2479L24.0466 26.3679" stroke="#303030" stroke-width="0.213375" stroke-linecap="round"/>
<path d="M26.3964 22.6896L26.2764 22.2238L26.7422 22.1038" stroke="#303030" stroke-width="0.213375" stroke-linecap="round"/>
</g>
<defs>
<clipPath id="clip0_332_383">
<rect width="39.6071" height="42" fill="white"/>
</clipPath>
</defs>
</svg>
