<svg width="42" height="20" viewBox="0 0 42 20" fill="none" xmlns="http://www.w3.org/2000/svg">
<path d="M34.7755 8.59665V18.3711C34.7755 18.3842 34.7652 18.3955 34.752 18.3955H1.42001V8.59665H34.7755Z" fill="#76C69D" stroke="#303030" stroke-width="0.4"/>
<path d="M40.5651 11.6671L34.7858 18.3966V8.6954L40.527 2.05576L40.5651 11.6671Z" fill="#5BA27E" stroke="#303030" stroke-width="0.4" stroke-linejoin="round"/>
<path d="M40.4561 1.98007C40.4986 1.9804 40.521 2.02983 40.4932 2.0621L34.8594 8.58359H1.48242C1.47501 8.58359 1.47085 8.58206 1.46875 8.58066C1.46596 8.57878 1.46331 8.57486 1.46094 8.56992C1.45854 8.56475 1.45763 8.55967 1.45801 8.55624C1.45829 8.55376 1.45924 8.55006 1.46387 8.54453L7.13086 1.83456L40.4561 1.98007Z" fill="#BBE3CE" stroke="#303030" stroke-width="0.4"/>
<path d="M36.9966 1.88879V3.68372C36.986 3.69198 36.9749 3.70289 36.9605 3.71301C36.8883 3.76382 36.7666 3.83668 36.5797 3.91125C36.2054 4.06051 35.5668 4.2179 34.5406 4.2179C33.5147 4.21785 32.8794 4.06034 32.5074 3.91125C32.3217 3.83683 32.2008 3.76464 32.1295 3.71399C32.1157 3.70424 32.1045 3.69368 32.0943 3.68567V1.88879H36.9966Z" fill="#76C69D" stroke="#303030" stroke-width="0.4"/>
<path d="M34.5454 1.2002C35.2655 1.20022 35.9107 1.27628 36.3697 1.39551C36.6006 1.4555 36.7733 1.52322 36.8833 1.59082C37.0047 1.66539 36.9966 1.70401 36.9966 1.68848C36.9967 1.67345 37.0041 1.71193 36.8833 1.78613C36.7732 1.85374 36.6006 1.92242 36.3697 1.98242C35.9107 2.10165 35.2655 2.17771 34.5454 2.17773C33.8255 2.17773 33.1802 2.1016 32.7212 1.98242C32.4904 1.92246 32.3177 1.8537 32.2076 1.78613C32.0866 1.71186 32.0942 1.67343 32.0943 1.68848C32.0943 1.70401 32.0861 1.66539 32.2076 1.59082C32.3177 1.52329 32.4905 1.45544 32.7212 1.39551C33.1803 1.27631 33.8254 1.2002 34.5454 1.2002Z" fill="#CCEADA" stroke="#303030" stroke-width="0.4"/>
<path d="M34.4784 4.61813V6.50095C34.4667 6.51012 34.4536 6.52174 34.4374 6.53317C34.3616 6.58648 34.2342 6.66232 34.0389 6.7402C33.648 6.89611 32.9825 7.06051 31.913 7.06052C30.8437 7.06052 30.1805 6.8969 29.7919 6.74118C29.5979 6.66341 29.4712 6.5873 29.3964 6.53415C29.3805 6.52289 29.3678 6.51098 29.3563 6.50192V4.61813H34.4784Z" fill="#76C69D" stroke="#303030" stroke-width="0.4"/>
<path d="M31.9169 3.90091C32.6674 3.90091 33.3403 3.97964 33.8192 4.10403C34.06 4.16659 34.2407 4.23812 34.3564 4.30911C34.4833 4.3871 34.4784 4.4291 34.4784 4.41751C34.4785 4.40752 34.4816 4.44995 34.3564 4.52689C34.2407 4.59786 34.06 4.66942 33.8192 4.73196C33.3403 4.85636 32.6674 4.93509 31.9169 4.93509C31.1667 4.93507 30.4944 4.85629 30.0155 4.73196C29.7746 4.66937 29.5931 4.59793 29.4774 4.52689C29.3523 4.45001 29.3562 4.40751 29.3564 4.41751C29.3564 4.42909 29.3507 4.38701 29.4774 4.30911C29.5931 4.23807 29.7746 4.16663 30.0155 4.10403C30.4944 3.9797 31.1667 3.90093 31.9169 3.90091Z" fill="#CCEADA" stroke="#303030" stroke-width="0.4"/>
<path d="M28.9954 1.88879V3.68372C28.9848 3.69198 28.9736 3.70289 28.9593 3.71301C28.8871 3.76382 28.7653 3.83668 28.5784 3.91125C28.2041 4.06051 27.5655 4.2179 26.5393 4.2179C25.5135 4.21785 24.8781 4.06034 24.5061 3.91125C24.3205 3.83683 24.1996 3.76464 24.1282 3.71399C24.1145 3.70424 24.1033 3.69368 24.093 3.68567V1.88879H28.9954Z" fill="#76C69D" stroke="#303030" stroke-width="0.4"/>
<path d="M26.5442 1.2002C27.2643 1.20022 27.9094 1.27628 28.3684 1.39551C28.5993 1.4555 28.772 1.52322 28.8821 1.59082C29.0035 1.66539 28.9954 1.70401 28.9954 1.68848C28.9955 1.67345 29.0029 1.71193 28.8821 1.78613C28.772 1.85374 28.5994 1.92242 28.3684 1.98242C27.9094 2.10165 27.2643 2.17771 26.5442 2.17773C25.8243 2.17773 25.179 2.1016 24.72 1.98242C24.4892 1.92246 24.3164 1.8537 24.2063 1.78613C24.0854 1.71186 24.093 1.67343 24.093 1.68848C24.093 1.70401 24.0849 1.66539 24.2063 1.59082C24.3165 1.52329 24.4893 1.45544 24.72 1.39551C25.179 1.27631 25.8242 1.2002 26.5442 1.2002Z" fill="#CCEADA" stroke="#303030" stroke-width="0.4"/>
<path d="M26.6252 4.61813V6.50095C26.6135 6.51012 26.6004 6.52174 26.5842 6.53317C26.5084 6.58648 26.381 6.66232 26.1857 6.7402C25.7948 6.89611 25.1293 7.06051 24.0598 7.06052C22.9905 7.06052 22.3273 6.8969 21.9387 6.74118C21.7446 6.66341 21.618 6.5873 21.5432 6.53415C21.5273 6.52289 21.5146 6.51098 21.5031 6.50192V4.61813H26.6252Z" fill="#76C69D" stroke="#303030" stroke-width="0.4"/>
<path d="M24.0637 3.90091C24.8141 3.90091 25.4871 3.97964 25.966 4.10403C26.2068 4.16659 26.3874 4.23812 26.5031 4.30911C26.6301 4.3871 26.6252 4.4291 26.6252 4.41751C26.6253 4.40752 26.6284 4.44995 26.5031 4.52689C26.3874 4.59786 26.2068 4.66942 25.966 4.73196C25.4871 4.85636 24.8141 4.93509 24.0637 4.93509C23.3135 4.93507 22.6412 4.85629 22.1623 4.73196C21.9213 4.66937 21.7399 4.59793 21.6242 4.52689C21.4991 4.45001 21.503 4.40751 21.5031 4.41751C21.5031 4.42909 21.4975 4.38701 21.6242 4.30911C21.7399 4.23807 21.9213 4.16663 22.1623 4.10403C22.6412 3.9797 23.3135 3.90093 24.0637 3.90091Z" fill="#CCEADA" stroke="#303030" stroke-width="0.4"/>
<path d="M20.9942 1.88879V3.68372C20.9836 3.69198 20.9724 3.70289 20.9581 3.71301C20.8859 3.76382 20.7642 3.83668 20.5772 3.91125C20.2029 4.06051 19.5643 4.2179 18.5381 4.2179C17.5123 4.21785 16.8769 4.06034 16.5049 3.91125C16.3193 3.83683 16.1984 3.76464 16.127 3.71399C16.1133 3.70424 16.1021 3.69368 16.0919 3.68567V1.88879H20.9942Z" fill="#76C69D" stroke="#303030" stroke-width="0.4"/>
<path d="M18.5431 1.2002C19.2631 1.20022 19.9083 1.27628 20.3673 1.39551C20.5982 1.4555 20.7709 1.52322 20.881 1.59082C21.0024 1.66539 20.9942 1.70401 20.9942 1.68848C20.9943 1.67345 21.0017 1.71193 20.881 1.78613C20.7709 1.85374 20.5982 1.92242 20.3673 1.98242C19.9083 2.10165 19.2631 2.17771 18.5431 2.17773C17.8231 2.17773 17.1779 2.1016 16.7188 1.98242C16.488 1.92246 16.3153 1.8537 16.2052 1.78613C16.0842 1.71186 16.0918 1.67343 16.0919 1.68848C16.0919 1.70401 16.0838 1.66539 16.2052 1.59082C16.3153 1.52329 16.4881 1.45544 16.7188 1.39551C17.1779 1.27631 17.823 1.2002 18.5431 1.2002Z" fill="#CCEADA" stroke="#303030" stroke-width="0.4"/>
<path d="M18.772 4.61813V6.50095C18.7603 6.51012 18.7472 6.52174 18.7309 6.53317C18.6552 6.58648 18.5278 6.66232 18.3325 6.7402C17.9415 6.89611 17.2761 7.06051 16.2065 7.06052C15.1373 7.06052 14.4741 6.8969 14.0854 6.74118C13.8914 6.66341 13.7648 6.5873 13.6899 6.53415C13.6741 6.52289 13.6613 6.51098 13.6499 6.50192V4.61813H18.772Z" fill="#76C69D" stroke="#303030" stroke-width="0.4"/>
<path d="M16.2104 3.90091C16.9609 3.90091 17.6338 3.97964 18.1128 4.10403C18.3536 4.16659 18.5342 4.23812 18.6499 4.30911C18.7769 4.3871 18.772 4.4291 18.772 4.41751C18.7721 4.40752 18.7752 4.44995 18.6499 4.52689C18.5342 4.59786 18.3536 4.66942 18.1128 4.73196C17.6338 4.85636 16.9609 4.93509 16.2104 4.93509C15.4603 4.93507 14.7879 4.85629 14.3091 4.73196C14.0681 4.66937 13.8867 4.59793 13.771 4.52689C13.6459 4.45001 13.6498 4.40751 13.6499 4.41751C13.6499 4.42909 13.6442 4.38701 13.771 4.30911C13.8867 4.23807 14.0681 4.16663 14.3091 4.10403C14.7879 3.9797 15.4603 3.90093 16.2104 3.90091Z" fill="#CCEADA" stroke="#303030" stroke-width="0.4"/>
<path d="M12.993 1.88879V3.68372C12.9824 3.69198 12.9712 3.70289 12.9568 3.71301C12.8847 3.76382 12.7629 3.83668 12.576 3.91125C12.2017 4.06051 11.5631 4.2179 10.5369 4.2179C9.51105 4.21785 8.87567 4.06034 8.50371 3.91125C8.31802 3.83683 8.19713 3.76464 8.12578 3.71399C8.11205 3.70424 8.10085 3.69368 8.09062 3.68567V1.88879H12.993Z" fill="#76C69D" stroke="#303030" stroke-width="0.4"/>
<path d="M10.5418 1.2002C11.2618 1.20022 11.907 1.27628 12.366 1.39551C12.5969 1.4555 12.7696 1.52322 12.8797 1.59082C13.0011 1.66539 12.993 1.70401 12.993 1.68848C12.993 1.67345 13.0004 1.71193 12.8797 1.78613C12.7696 1.85374 12.597 1.92242 12.366 1.98242C11.907 2.10165 11.2618 2.17771 10.5418 2.17773C9.82184 2.17773 9.17659 2.1016 8.71756 1.98242C8.48673 1.92246 8.31401 1.8537 8.20389 1.78613C8.08295 1.71186 8.09054 1.67343 8.09061 1.68848C8.09061 1.70401 8.08247 1.66539 8.20389 1.59082C8.31401 1.52329 8.48684 1.45544 8.71756 1.39551C9.17659 1.27631 9.82176 1.2002 10.5418 1.2002Z" fill="#CCEADA" stroke="#303030" stroke-width="0.4"/>
<path d="M10.9188 4.61813V6.50095C10.9071 6.51012 10.894 6.52174 10.8778 6.53317C10.8021 6.58648 10.6746 6.66232 10.4794 6.7402C10.0884 6.89611 9.42294 7.06051 8.35338 7.06052C7.28411 7.06052 6.62095 6.8969 6.23228 6.74118C6.03827 6.66341 5.91163 6.5873 5.83678 6.53415C5.82093 6.52289 5.80819 6.51098 5.79674 6.50192V4.61813H10.9188Z" fill="#76C69D" stroke="#303030" stroke-width="0.4"/>
<path d="M8.35727 3.90091C9.10774 3.90091 9.78066 3.97964 10.2596 4.10403C10.5004 4.16659 10.681 4.23812 10.7967 4.30911C10.9237 4.3871 10.9188 4.4291 10.9188 4.41751C10.9189 4.40752 10.922 4.44995 10.7967 4.52689C10.681 4.59786 10.5004 4.66942 10.2596 4.73196C9.78066 4.85636 9.10773 4.93509 8.35727 4.93509C7.60709 4.93507 6.93476 4.85629 6.4559 4.73196C6.21492 4.66937 6.03349 4.59793 5.91782 4.52689C5.79272 4.45001 5.79661 4.40751 5.79672 4.41751C5.79672 4.42909 5.79106 4.38701 5.91782 4.30911C6.03349 4.23807 6.21492 4.16663 6.4559 4.10403C6.93476 3.9797 7.60708 3.90093 8.35727 3.90091Z" fill="#CCEADA" stroke="#303030" stroke-width="0.4"/>
</svg>
