<svg width="42" height="20" viewBox="0 0 42 20" fill="none" xmlns="http://www.w3.org/2000/svg">
<path d="M34.9523 8.59814V18.3745C34.9523 18.3876 34.942 18.3989 34.9289 18.3989H1.25996V8.59814H34.9523Z" stroke="#303030" stroke-width="0.4"/>
<path d="M40.7994 11.6691L34.9586 18.4045V8.69647L40.7613 2.05194L40.7994 11.6691Z" stroke="#303030" stroke-width="0.4" stroke-linejoin="round"/>
<path d="M8.06095 1.63887L7.04767 1.63446L1.3191 8.27754C1.19401 8.4226 1.29707 8.64755 1.48862 8.64755H35.0042L40.7121 2.1119C40.8248 1.98286 40.7337 1.78109 40.5623 1.78034L36.7414 1.76371M13.05 1.66059L15.7603 1.67239M20.8725 1.69464L23.7214 1.72877M28.7134 1.72877L31.7449 1.74196" stroke="#303030" stroke-width="0.4"/>
<path d="M8.02505 1.68872V3.77695M12.9237 1.68872V3.77695C12.9237 3.77695 12.4745 4.33166 10.8574 4.40959" stroke="#303030" stroke-width="0.4"/>
<path d="M10.4746 1.2002C11.2019 1.20021 11.8534 1.27621 12.3174 1.39551C12.5509 1.45558 12.7264 1.52397 12.8379 1.5918C12.9609 1.66668 12.9521 1.70492 12.9521 1.68848C12.9522 1.67288 12.9602 1.71171 12.8379 1.78613C12.7264 1.85396 12.5509 1.92235 12.3174 1.98242C11.8534 2.10171 11.2018 2.17772 10.4746 2.17773C9.74699 2.17773 9.09486 2.10179 8.63084 1.98242C8.39742 1.92237 8.22284 1.85394 8.11131 1.78613C7.98881 1.71162 7.99694 1.67287 7.99706 1.68848C7.99706 1.70494 7.988 1.6668 8.11131 1.5918C8.22282 1.52398 8.39737 1.45558 8.63084 1.39551C9.09486 1.27614 9.74699 1.2002 10.4746 1.2002Z" stroke="#303030" stroke-width="0.4"/>
<path d="M15.8732 1.68872V3.77695M20.7718 1.68872V3.77695C20.7718 3.77695 20.3226 4.33166 18.7055 4.40959" stroke="#303030" stroke-width="0.4"/>
<path d="M18.3227 1.2002C19.05 1.20021 19.7015 1.27621 20.1655 1.39551C20.399 1.45558 20.5745 1.52397 20.686 1.5918C20.809 1.66668 20.8002 1.70492 20.8002 1.68848C20.8003 1.67288 20.8083 1.71171 20.686 1.78613C20.5745 1.85396 20.399 1.92235 20.1655 1.98242C19.7015 2.10171 19.0499 2.17772 18.3227 2.17773C17.5951 2.17773 16.943 2.10179 16.4789 1.98242C16.2455 1.92237 16.0709 1.85394 15.9594 1.78613C15.8369 1.71162 15.845 1.67287 15.8452 1.68848C15.8452 1.70494 15.8361 1.6668 15.9594 1.5918C16.0709 1.52398 16.2455 1.45558 16.4789 1.39551C16.943 1.27614 17.5951 1.2002 18.3227 1.2002Z" stroke="#303030" stroke-width="0.4"/>
<path d="M23.7488 1.68872V3.77695M28.6475 1.68872V3.77695C28.6475 3.77695 28.1983 4.33166 26.5812 4.40959" stroke="#303030" stroke-width="0.4"/>
<path d="M26.1984 1.2002C26.9257 1.20021 27.5772 1.27621 28.0412 1.39551C28.2747 1.45558 28.4502 1.52397 28.5617 1.5918C28.6847 1.66668 28.6759 1.70492 28.6759 1.68848C28.676 1.67288 28.684 1.71171 28.5617 1.78613C28.4502 1.85396 28.2747 1.92235 28.0412 1.98242C27.5772 2.10171 26.9256 2.17772 26.1984 2.17773C25.4708 2.17773 24.8187 2.10179 24.3546 1.98242C24.1212 1.92237 23.9466 1.85394 23.8351 1.78613C23.7126 1.71162 23.7207 1.67287 23.7209 1.68848C23.7209 1.70494 23.7118 1.6668 23.8351 1.5918C23.9466 1.52398 24.1212 1.45558 24.3546 1.39551C24.8187 1.27614 25.4708 1.2002 26.1984 1.2002Z" stroke="#303030" stroke-width="0.4"/>
<path d="M31.8009 1.68872V3.77695M36.6996 1.68872V3.77695C36.6996 3.77695 36.2504 4.33166 34.6333 4.40959" stroke="#303030" stroke-width="0.4"/>
<path d="M34.2505 1.2002C34.9778 1.20021 35.6293 1.27621 36.0933 1.39551C36.3268 1.45558 36.5023 1.52397 36.6138 1.5918C36.7367 1.66668 36.728 1.70492 36.728 1.68848C36.7281 1.67288 36.7361 1.71171 36.6138 1.78613C36.5023 1.85396 36.3268 1.92235 36.0933 1.98242C35.6293 2.10171 34.9777 2.17772 34.2505 2.17773C33.5229 2.17773 32.8708 2.10179 32.4067 1.98242C32.1733 1.92237 31.9987 1.85394 31.8872 1.78613C31.7647 1.71162 31.7728 1.67287 31.7729 1.68848C31.7729 1.70494 31.7639 1.6668 31.8872 1.5918C31.9987 1.52398 32.1733 1.45558 32.4067 1.39551C32.8708 1.27614 33.5229 1.2002 34.2505 1.2002Z" stroke="#303030" stroke-width="0.4"/>
<path d="M5.67282 4.41864V6.37694C5.67282 6.37694 6.21547 6.97869 8.26468 6.97869C10.3139 6.97869 10.8646 6.37694 10.8646 6.37694V4.41864" stroke="#303030" stroke-width="0.4"/>
<path d="M8.26918 3.90149C9.02728 3.90152 9.70703 3.98107 10.1911 4.10559C10.4344 4.16822 10.6169 4.23947 10.734 4.31067C10.8616 4.38826 10.8572 4.43028 10.8571 4.41907C10.8571 4.40655 10.863 4.44903 10.734 4.52747C10.6169 4.59862 10.4343 4.66997 10.1911 4.73254C9.70703 4.85706 9.02728 4.93564 8.26918 4.93567C7.5109 4.93567 6.83045 4.85709 6.34633 4.73254C6.10312 4.66996 5.92047 4.59862 5.80336 4.52747C5.6744 4.44903 5.68031 4.40655 5.68031 4.41907C5.6802 4.43028 5.67582 4.38825 5.80336 4.31067C5.92042 4.23947 6.103 4.16822 6.34633 4.10559C6.83045 3.98105 7.5109 3.90149 8.26918 3.90149Z" stroke="#303030" stroke-width="0.4"/>
<path d="M13.5209 4.41864V6.37694C13.5209 6.37694 14.0636 6.97869 16.1128 6.97869C18.162 6.97869 18.7127 6.37694 18.7127 6.37694V4.41864" stroke="#303030" stroke-width="0.4"/>
<path d="M16.1173 3.90149C16.8754 3.90152 17.5551 3.98107 18.0391 4.10559C18.2825 4.16822 18.465 4.23947 18.5821 4.31067C18.7097 4.38826 18.7053 4.43028 18.7052 4.41907C18.7052 4.40655 18.7111 4.44903 18.5821 4.52747C18.465 4.59862 18.2823 4.66997 18.0391 4.73254C17.5551 4.85706 16.8754 4.93564 16.1173 4.93567C15.359 4.93567 14.6785 4.85709 14.1944 4.73254C13.9512 4.66996 13.7685 4.59862 13.6514 4.52747C13.5225 4.44903 13.5284 4.40655 13.5284 4.41907C13.5283 4.43028 13.5239 4.38825 13.6514 4.31067C13.7685 4.23947 13.9511 4.16822 14.1944 4.10559C14.6785 3.98105 15.359 3.90149 16.1173 3.90149Z" stroke="#303030" stroke-width="0.4"/>
<path d="M21.3966 4.41864V6.37694C21.3966 6.37694 21.9393 6.97869 23.9885 6.97869C26.0377 6.97869 26.5884 6.37694 26.5884 6.37694V4.41864" stroke="#303030" stroke-width="0.4"/>
<path d="M23.993 3.90149C24.7511 3.90152 25.4308 3.98107 25.9149 4.10559C26.1582 4.16822 26.3407 4.23947 26.4578 4.31067C26.5854 4.38826 26.581 4.43028 26.5809 4.41907C26.5809 4.40655 26.5868 4.44903 26.4578 4.52747C26.3407 4.59862 26.1581 4.66997 25.9149 4.73254C25.4308 4.85706 24.7511 4.93564 23.993 4.93567C23.2347 4.93567 22.5542 4.85709 22.0701 4.73254C21.8269 4.66996 21.6443 4.59862 21.5272 4.52747C21.3982 4.44903 21.4041 4.40655 21.4041 4.41907C21.404 4.43028 21.3996 4.38825 21.5272 4.31067C21.6442 4.23947 21.8268 4.16822 22.0701 4.10559C22.5542 3.98105 23.2347 3.90149 23.993 3.90149Z" stroke="#303030" stroke-width="0.4"/>
<path d="M29.4487 4.41864V6.37694C29.4487 6.37694 29.9914 6.97869 32.0406 6.97869C34.0898 6.97869 34.6405 6.37694 34.6405 6.37694V4.41864" stroke="#303030" stroke-width="0.4"/>
<path d="M32.0451 3.90149C32.8032 3.90152 33.4829 3.98107 33.9669 4.10559C34.2103 4.16822 34.3928 4.23947 34.5099 4.31067C34.6375 4.38826 34.6331 4.43028 34.633 4.41907C34.633 4.40655 34.6389 4.44903 34.5099 4.52747C34.3928 4.59862 34.2102 4.66997 33.9669 4.73254C33.4829 4.85706 32.8032 4.93564 32.0451 4.93567C31.2868 4.93567 30.6063 4.85709 30.1222 4.73254C29.879 4.66996 29.6964 4.59862 29.5793 4.52747C29.4503 4.44903 29.4562 4.40655 29.4562 4.41907C29.4561 4.43028 29.4517 4.38825 29.5793 4.31067C29.6963 4.23947 29.8789 4.16822 30.1222 4.10559C30.6063 3.98105 31.2868 3.90149 32.0451 3.90149Z" stroke="#303030" stroke-width="0.4"/>
</svg>
