<svg width="42" height="20" viewBox="0 0 42 20" fill="none" xmlns="http://www.w3.org/2000/svg">
<path d="M34.7755 8.59662V18.371C34.7755 18.3842 34.7652 18.3954 34.752 18.3954H1.42001V8.59662H34.7755Z" fill="#A9C0D3" stroke="#303030" stroke-width="0.4"/>
<path d="M40.5651 11.6671L34.7858 18.3965V8.69537L40.527 2.05573L40.5651 11.6671Z" fill="#6D889D" stroke="#303030" stroke-width="0.4" stroke-linejoin="round"/>
<path d="M40.4561 1.98004C40.4986 1.98037 40.521 2.0298 40.4932 2.06207L34.8594 8.58356H1.48242C1.47501 8.58356 1.47085 8.58203 1.46875 8.58063C1.46596 8.57875 1.46331 8.57483 1.46094 8.56989C1.45854 8.56472 1.45763 8.55964 1.45801 8.55621C1.45829 8.55373 1.45924 8.55002 1.46387 8.54449L7.13086 1.83453L40.4561 1.98004Z" fill="#C8DEF0" stroke="#303030" stroke-width="0.4"/>
<path d="M36.9966 1.88879V3.68372C36.986 3.69198 36.9749 3.70289 36.9605 3.71301C36.8883 3.76382 36.7666 3.83668 36.5797 3.91125C36.2054 4.06051 35.5668 4.2179 34.5406 4.2179C33.5147 4.21785 32.8794 4.06034 32.5074 3.91125C32.3217 3.83683 32.2008 3.76464 32.1295 3.71399C32.1157 3.70424 32.1045 3.69368 32.0943 3.68567V1.88879H36.9966Z" fill="#A9C0D3" stroke="#303030" stroke-width="0.4"/>
<path d="M34.5454 1.2002C35.2655 1.20022 35.9107 1.27628 36.3697 1.39551C36.6006 1.4555 36.7733 1.52322 36.8833 1.59082C37.0047 1.66539 36.9966 1.70401 36.9966 1.68848C36.9967 1.67345 37.0041 1.71193 36.8833 1.78613C36.7732 1.85374 36.6006 1.92242 36.3697 1.98242C35.9107 2.10165 35.2655 2.17771 34.5454 2.17773C33.8255 2.17773 33.1802 2.1016 32.7212 1.98242C32.4904 1.92246 32.3177 1.8537 32.2076 1.78613C32.0866 1.71186 32.0942 1.67343 32.0943 1.68848C32.0943 1.70401 32.0861 1.66539 32.2076 1.59082C32.3177 1.52329 32.4905 1.45544 32.7212 1.39551C33.1803 1.27631 33.8254 1.2002 34.5454 1.2002Z" fill="#D3E6F6" stroke="#303030" stroke-width="0.4"/>
<path d="M34.4784 4.6181V6.50092C34.4667 6.51009 34.4536 6.52171 34.4374 6.53314C34.3616 6.58645 34.2342 6.66229 34.0389 6.74017C33.648 6.89608 32.9825 7.06048 31.913 7.06049C30.8437 7.06049 30.1805 6.89687 29.7919 6.74115C29.5979 6.66338 29.4712 6.58727 29.3964 6.53412C29.3805 6.52286 29.3678 6.51095 29.3563 6.50189V4.6181H34.4784Z" fill="#A9C0D3" stroke="#303030" stroke-width="0.4"/>
<path d="M31.9169 3.90094C32.6674 3.90094 33.3403 3.97967 33.8192 4.10406C34.06 4.16662 34.2407 4.23816 34.3564 4.30914C34.4833 4.38713 34.4784 4.42913 34.4784 4.41754C34.4785 4.40755 34.4816 4.44998 34.3564 4.52692C34.2407 4.5979 34.06 4.66945 33.8192 4.73199C33.3403 4.85639 32.6674 4.93512 31.9169 4.93512C31.1667 4.9351 30.4944 4.85632 30.0155 4.73199C29.7746 4.6694 29.5931 4.59796 29.4774 4.52692C29.3523 4.45004 29.3562 4.40754 29.3564 4.41754C29.3564 4.42912 29.3507 4.38704 29.4774 4.30914C29.5931 4.2381 29.7746 4.16666 30.0155 4.10406C30.4944 3.97973 31.1667 3.90096 31.9169 3.90094Z" fill="#D3E6F6" stroke="#303030" stroke-width="0.4"/>
<path d="M28.9954 1.88879V3.68372C28.9848 3.69198 28.9736 3.70289 28.9593 3.71301C28.8871 3.76382 28.7653 3.83668 28.5784 3.91125C28.2041 4.06051 27.5655 4.2179 26.5393 4.2179C25.5135 4.21785 24.8781 4.06034 24.5061 3.91125C24.3205 3.83683 24.1996 3.76464 24.1282 3.71399C24.1145 3.70424 24.1033 3.69368 24.093 3.68567V1.88879H28.9954Z" fill="#A9C0D3" stroke="#303030" stroke-width="0.4"/>
<path d="M26.5442 1.2002C27.2643 1.20022 27.9094 1.27628 28.3684 1.39551C28.5993 1.4555 28.772 1.52322 28.8821 1.59082C29.0035 1.66539 28.9954 1.70401 28.9954 1.68848C28.9955 1.67345 29.0029 1.71193 28.8821 1.78613C28.772 1.85374 28.5994 1.92242 28.3684 1.98242C27.9094 2.10165 27.2643 2.17771 26.5442 2.17773C25.8243 2.17773 25.179 2.1016 24.72 1.98242C24.4892 1.92246 24.3164 1.8537 24.2063 1.78613C24.0854 1.71186 24.093 1.67343 24.093 1.68848C24.093 1.70401 24.0849 1.66539 24.2063 1.59082C24.3165 1.52329 24.4893 1.45544 24.72 1.39551C25.179 1.27631 25.8242 1.2002 26.5442 1.2002Z" fill="#D3E6F6" stroke="#303030" stroke-width="0.4"/>
<path d="M26.6252 4.6181V6.50092C26.6135 6.51009 26.6004 6.52171 26.5842 6.53314C26.5084 6.58645 26.381 6.66229 26.1857 6.74017C25.7948 6.89608 25.1293 7.06048 24.0598 7.06049C22.9905 7.06049 22.3273 6.89687 21.9387 6.74115C21.7446 6.66338 21.618 6.58727 21.5432 6.53412C21.5273 6.52286 21.5146 6.51095 21.5031 6.50189V4.6181H26.6252Z" fill="#A9C0D3" stroke="#303030" stroke-width="0.4"/>
<path d="M24.0637 3.90094C24.8141 3.90094 25.4871 3.97967 25.966 4.10406C26.2068 4.16662 26.3874 4.23816 26.5031 4.30914C26.6301 4.38713 26.6252 4.42913 26.6252 4.41754C26.6253 4.40755 26.6284 4.44998 26.5031 4.52692C26.3874 4.5979 26.2068 4.66945 25.966 4.73199C25.4871 4.85639 24.8141 4.93512 24.0637 4.93512C23.3135 4.9351 22.6412 4.85632 22.1623 4.73199C21.9213 4.6694 21.7399 4.59796 21.6242 4.52692C21.4991 4.45004 21.503 4.40754 21.5031 4.41754C21.5031 4.42912 21.4975 4.38704 21.6242 4.30914C21.7399 4.2381 21.9213 4.16666 22.1623 4.10406C22.6412 3.97973 23.3135 3.90096 24.0637 3.90094Z" fill="#D3E6F6" stroke="#303030" stroke-width="0.4"/>
<path d="M20.9942 1.88879V3.68372C20.9836 3.69198 20.9724 3.70289 20.9581 3.71301C20.8859 3.76382 20.7642 3.83668 20.5772 3.91125C20.2029 4.06051 19.5643 4.2179 18.5381 4.2179C17.5123 4.21785 16.8769 4.06034 16.5049 3.91125C16.3193 3.83683 16.1984 3.76464 16.127 3.71399C16.1133 3.70424 16.1021 3.69368 16.0919 3.68567V1.88879H20.9942Z" fill="#A9C0D3" stroke="#303030" stroke-width="0.4"/>
<path d="M18.5431 1.2002C19.2631 1.20022 19.9083 1.27628 20.3673 1.39551C20.5982 1.4555 20.7709 1.52322 20.881 1.59082C21.0024 1.66539 20.9942 1.70401 20.9942 1.68848C20.9943 1.67345 21.0017 1.71193 20.881 1.78613C20.7709 1.85374 20.5982 1.92242 20.3673 1.98242C19.9083 2.10165 19.2631 2.17771 18.5431 2.17773C17.8231 2.17773 17.1779 2.1016 16.7188 1.98242C16.488 1.92246 16.3153 1.8537 16.2052 1.78613C16.0842 1.71186 16.0918 1.67343 16.0919 1.68848C16.0919 1.70401 16.0838 1.66539 16.2052 1.59082C16.3153 1.52329 16.4881 1.45544 16.7188 1.39551C17.1779 1.27631 17.823 1.2002 18.5431 1.2002Z" fill="#D3E6F6" stroke="#303030" stroke-width="0.4"/>
<path d="M18.772 4.6181V6.50092C18.7603 6.51009 18.7472 6.52171 18.7309 6.53314C18.6552 6.58645 18.5278 6.66229 18.3325 6.74017C17.9415 6.89608 17.2761 7.06048 16.2065 7.06049C15.1373 7.06049 14.4741 6.89687 14.0854 6.74115C13.8914 6.66338 13.7648 6.58727 13.6899 6.53412C13.6741 6.52286 13.6613 6.51095 13.6499 6.50189V4.6181H18.772Z" fill="#A9C0D3" stroke="#303030" stroke-width="0.4"/>
<path d="M16.2104 3.90094C16.9609 3.90094 17.6338 3.97967 18.1128 4.10406C18.3536 4.16662 18.5342 4.23816 18.6499 4.30914C18.7769 4.38713 18.772 4.42913 18.772 4.41754C18.7721 4.40755 18.7752 4.44998 18.6499 4.52692C18.5342 4.5979 18.3536 4.66945 18.1128 4.73199C17.6338 4.85639 16.9609 4.93512 16.2104 4.93512C15.4603 4.9351 14.7879 4.85632 14.3091 4.73199C14.0681 4.6694 13.8867 4.59796 13.771 4.52692C13.6459 4.45004 13.6498 4.40754 13.6499 4.41754C13.6499 4.42912 13.6442 4.38704 13.771 4.30914C13.8867 4.2381 14.0681 4.16666 14.3091 4.10406C14.7879 3.97973 15.4603 3.90096 16.2104 3.90094Z" fill="#D3E6F6" stroke="#303030" stroke-width="0.4"/>
<path d="M12.993 1.88879V3.68372C12.9824 3.69198 12.9712 3.70289 12.9568 3.71301C12.8847 3.76382 12.7629 3.83668 12.576 3.91125C12.2017 4.06051 11.5631 4.2179 10.5369 4.2179C9.51105 4.21785 8.87567 4.06034 8.50371 3.91125C8.31802 3.83683 8.19713 3.76464 8.12578 3.71399C8.11205 3.70424 8.10085 3.69368 8.09062 3.68567V1.88879H12.993Z" fill="#A9C0D3" stroke="#303030" stroke-width="0.4"/>
<path d="M10.5418 1.2002C11.2618 1.20022 11.907 1.27628 12.366 1.39551C12.5969 1.4555 12.7696 1.52322 12.8797 1.59082C13.0011 1.66539 12.993 1.70401 12.993 1.68848C12.993 1.67345 13.0004 1.71193 12.8797 1.78613C12.7696 1.85374 12.597 1.92242 12.366 1.98242C11.907 2.10165 11.2618 2.17771 10.5418 2.17773C9.82184 2.17773 9.17659 2.1016 8.71756 1.98242C8.48673 1.92246 8.31401 1.8537 8.20389 1.78613C8.08295 1.71186 8.09054 1.67343 8.09061 1.68848C8.09061 1.70401 8.08247 1.66539 8.20389 1.59082C8.31401 1.52329 8.48684 1.45544 8.71756 1.39551C9.17659 1.27631 9.82176 1.2002 10.5418 1.2002Z" fill="#D3E6F6" stroke="#303030" stroke-width="0.4"/>
<path d="M10.9188 4.6181V6.50092C10.9071 6.51009 10.894 6.52171 10.8778 6.53314C10.8021 6.58645 10.6746 6.66229 10.4794 6.74017C10.0884 6.89608 9.42294 7.06048 8.35338 7.06049C7.28411 7.06049 6.62095 6.89687 6.23228 6.74115C6.03827 6.66338 5.91163 6.58727 5.83678 6.53412C5.82093 6.52286 5.80819 6.51095 5.79674 6.50189V4.6181H10.9188Z" fill="#A9C0D3" stroke="#303030" stroke-width="0.4"/>
<path d="M8.35727 3.90094C9.10774 3.90094 9.78066 3.97967 10.2596 4.10406C10.5004 4.16662 10.681 4.23816 10.7967 4.30914C10.9237 4.38713 10.9188 4.42913 10.9188 4.41754C10.9189 4.40755 10.922 4.44998 10.7967 4.52692C10.681 4.5979 10.5004 4.66945 10.2596 4.73199C9.78066 4.85639 9.10773 4.93512 8.35727 4.93512C7.60709 4.9351 6.93476 4.85632 6.4559 4.73199C6.21492 4.6694 6.03349 4.59796 5.91782 4.52692C5.79272 4.45004 5.79661 4.40754 5.79672 4.41754C5.79672 4.42912 5.79106 4.38704 5.91782 4.30914C6.03349 4.2381 6.21492 4.16666 6.4559 4.10406C6.93476 3.97973 7.60708 3.90096 8.35727 3.90094Z" fill="#D3E6F6" stroke="#303030" stroke-width="0.4"/>
</svg>
