<svg width="42" height="41" viewBox="0 0 42 41" fill="none" xmlns="http://www.w3.org/2000/svg">
<g clip-path="url(#clip0_5_716)">
<path d="M4.1319 16.1381C4.14539 16.0369 4.17893 15.9382 4.23181 15.8478L9.26044 7.35723C9.36446 7.18294 9.53509 7.0552 9.7331 7.00501C9.93111 6.953 10.141 6.98312 10.3171 7.08531L13.2752 8.83774" stroke="#303030" stroke-width="0.4" stroke-miterlimit="10"/>
<path d="M38.4412 16.1392C38.4646 15.9087 38.4766 15.6749 38.4766 15.4383C38.4766 11.6543 35.4088 8.58472 31.623 8.58472C30.5629 8.58472 29.5592 8.82538 28.6633 9.25499" stroke="#303030" stroke-width="0.4" stroke-miterlimit="10"/>
<path d="M7.01984 16.1383C7.78744 14.7955 9.70594 12.2068 13.5044 11.1584C13.507 11.1564 13.5088 11.1563 13.5105 11.1543C13.5122 11.1524 13.5138 11.1504 13.5156 11.1494C13.5164 11.1475 13.5161 11.1438 13.516 11.142L13.5155 11.1356C13.4398 10.9327 12.7586 8.95525 13.913 6.63758C15.3577 3.88753 18.1233 3.08547 18.3377 3.00347C18.3412 3.00138 18.3438 2.99935 18.3454 2.99649C18.347 2.99271 18.3485 2.98894 18.3483 2.98621C18.3325 2.82543 18.2165 1.20903 19.3203 1.01716C20.4279 0.827752 20.8947 2.26589 20.9368 2.39907C20.937 2.40271 20.9382 2.40628 20.9402 2.40796C20.9439 2.4086 20.9458 2.41028 20.9487 2.41189C21.1896 2.45143 25.5762 3.21608 27.4473 6.28174C27.4485 6.28531 27.4522 6.28595 27.456 6.28749C27.4588 6.28911 27.4643 6.2887 27.4679 6.28842C27.6294 6.22047 29.2161 5.60066 29.6627 6.57456C30.113 7.5619 28.7223 8.68397 28.6021 8.7781C28.6005 8.78006 28.597 8.78215 28.5972 8.78579C28.5956 8.78866 28.5959 8.7923 28.5962 8.79594C28.6495 9.04888 29.6129 13.9446 24.2958 16.1383" stroke="#303030" stroke-width="0.4" stroke-miterlimit="10"/>
<path d="M23.957 12.6924C25.1264 10.9272 24.4059 8.39091 22.3468 7.02489C20.2888 5.65971 17.6703 5.98191 16.5008 7.74528C15.3295 9.51061 16.05 12.0469 18.1091 13.413C20.1681 14.7781 22.7865 14.4559 23.957 12.6924Z" stroke="#303030" stroke-width="0.4" stroke-miterlimit="10"/>
<path d="M20.7748 5.01635C20.4928 5.03755 20.2806 5.28378 20.3018 5.56528C20.323 5.84723 20.5696 6.05937 20.8516 6.03817C21.1336 6.01698 21.3457 5.77035 21.3245 5.4884C21.3033 5.2069 21.0568 4.99516 20.7748 5.01635Z" fill="#303030"/>
<path d="M24.8233 7.94116C24.5413 7.96236 24.3291 8.20899 24.3503 8.49098C24.3715 8.77297 24.6182 8.98511 24.9001 8.96391C25.1821 8.94271 25.3943 8.69608 25.3731 8.41409C25.3519 8.1321 25.1053 7.91996 24.8233 7.94116Z" fill="#303030"/>
<path d="M20.8639 9.19067L19.2236 11.6604C18.4243 11.8619 17.8099 11.8107 17.3963 11.5081C16.9024 11.1468 16.8658 10.5331 16.8655 10.527C16.8618 10.4517 16.7979 10.3934 16.7225 10.3968C16.6484 10.4009 16.5886 10.4643 16.592 10.5398C16.5934 10.57 16.6325 11.286 17.2314 11.7267C17.5768 11.9808 18.0297 12.0873 18.5835 12.0456C18.8187 12.0279 19.0723 11.9835 19.3434 11.9123C19.3759 11.9037 19.4041 11.8836 19.4226 11.8556L21.0966 9.33505C21.0217 9.28221 20.9463 9.22971 20.8639 9.19067Z" fill="#303030" stroke="#303030" stroke-width="0.1"/>
<path d="M20.8013 13.7121C20.5089 13.7341 20.1926 13.6973 19.9135 13.5309C19.4377 13.2473 19.187 12.6593 19.1681 11.7832C19.1664 11.7075 19.2276 11.6449 19.302 11.6433C19.3775 11.6417 19.4401 11.7017 19.4418 11.7772C19.4584 12.5523 19.6641 13.063 20.0529 13.2953C20.6952 13.679 21.655 13.1969 21.6647 13.192C21.7318 13.1576 21.8144 13.1843 21.8488 13.2515C21.8832 13.3187 21.8567 13.4011 21.7895 13.4356C21.761 13.4502 21.3186 13.6732 20.8013 13.7121Z" fill="#303030" stroke="#303030" stroke-width="0.1"/>
<path d="M20.5155 7.0938C20.316 7.10514 20.6119 8.99717 20.9027 9.26172C21.1944 9.52712 22.986 9.65963 23.2563 9.43434C23.5258 9.20911 22.2595 6.99473 20.5155 7.0938Z" stroke="#303030" stroke-width="0.4" stroke-miterlimit="10"/>
<path d="M41 16.9942C41 16.7678 40.9104 16.5502 40.7488 16.3894C40.588 16.2294 40.3704 16.1398 40.144 16.1382H1.856C1.6296 16.1398 1.412 16.2294 1.2512 16.3894C1.0912 16.5502 1 16.7678 1 16.9942V17.5942C1 17.6766 1.032 17.7558 1.0912 17.8134C1.1488 17.8702 1.2264 17.903 1.3088 17.903H1.9408C1.9456 17.903 1.9488 17.9054 1.9512 17.907C1.9544 17.9102 1.956 17.9142 1.956 17.9174V35.9614C1.956 36.9854 2.3616 37.9662 3.0856 38.6878C3.8088 39.4118 4.7896 39.8174 5.812 39.8174H36.1C37.1224 39.8174 38.1032 39.4118 38.8264 38.6878C39.5504 37.9662 39.956 36.9854 39.956 35.9614V17.9174C39.956 17.9142 39.9576 17.9102 39.96 17.907C39.9632 17.9054 39.9664 17.903 39.9704 17.903H40.6912C40.732 17.903 40.772 17.8958 40.8088 17.879C40.8472 17.8646 40.8808 17.8414 40.9088 17.8134C40.9384 17.7838 40.96 17.7502 40.9768 17.7134C40.9928 17.675 41 17.635 41 17.5942V16.9942Z" stroke="#303030" stroke-width="0.4" stroke-miterlimit="10"/>
<path d="M1.95599 17.9175H39.956" stroke="#303030" stroke-width="0.4" stroke-miterlimit="10"/>
</g>
<defs>
<clipPath id="clip0_5_716">
<rect width="42" height="40.8175" fill="white"/>
</clipPath>
</defs>
</svg>
