<svg width="42" height="20" viewBox="0 0 42 20" fill="none" xmlns="http://www.w3.org/2000/svg">
<g clip-path="url(#clip0_6_1237)">
<path d="M27.5267 15.5613L18.7543 15.4468" stroke="#303030" stroke-width="0.4"/>
<path d="M14.1548 8.68043L14.2422 1.99193C14.2456 1.72629 14.3549 1.47224 14.5449 1.28613C14.735 1.10003 14.9918 0.99841 15.2575 1.00002L29.5894 1.18715C29.7213 1.18888 29.8519 1.21752 29.9729 1.26927C30.0949 1.3201 30.2035 1.39677 30.2952 1.49086C30.3878 1.58497 30.4606 1.6974 30.5101 1.81974C30.5587 1.94208 30.5821 2.07244 30.5804 2.20526L30.5502 4.51226" stroke="#303030" stroke-width="0.4"/>
<path d="M18.5559 17.5017H1.84471C1.69144 17.5017 1.54003 17.4608 1.40905 17.3809C1.27622 17.302 1.16939 17.1877 1.09694 17.0521C1.02634 16.9165 0.992899 16.7641 1.00126 16.6109C1.00869 16.4576 1.05978 16.3099 1.14524 16.1826L9.50175 3.89031C9.57978 3.77606 9.68381 3.68409 9.80457 3.62C9.92626 3.5559 10.0619 3.52246 10.2003 3.52246C10.3378 3.52246 10.4734 3.5559 10.5951 3.62C10.7177 3.68409 10.8208 3.77606 10.8988 3.89031L19.2544 16.1826C19.3408 16.3099 19.3919 16.4576 19.3993 16.6109C19.4086 16.7641 19.3742 16.9165 19.3027 17.0521C19.2303 17.1877 19.1234 17.302 18.9915 17.3809C18.8606 17.4608 18.7101 17.5017 18.5559 17.5017Z" stroke="#303030" stroke-width="0.4"/>
<path d="M41 11.3005C41.0018 12.2991 40.8003 13.2884 40.4101 14.2071C40.0191 15.1267 39.4468 15.9571 38.726 16.6492C38.7167 16.6575 38.7093 16.6668 38.7 16.6743C37.3196 17.997 35.4813 18.7337 33.5705 18.73C29.6236 18.73 26.1411 15.4035 26.1411 11.3005C26.1411 9.32934 26.9232 7.44086 28.3166 6.04656C29.7109 4.65319 31.6003 3.87012 33.5705 3.87012C35.5408 3.87012 37.4311 4.65319 38.8235 6.04656C40.2178 7.44086 41 9.32934 41 11.3005Z" stroke="#303030" stroke-width="0.4"/>
</g>
<defs>
<clipPath id="clip0_6_1237">
<rect width="42" height="19.7302" fill="white"/>
</clipPath>
</defs>
</svg>
