<svg width="42" height="41" viewBox="0 0 42 41" fill="none" xmlns="http://www.w3.org/2000/svg">
<g clip-path="url(#clip0_5_717)">
<path d="M12.5107 21.6484L4.50373 16.9044C4.32671 16.8004 4.2017 16.6316 4.14969 16.4336C4.09859 16.2356 4.12779 16.0257 4.23181 15.8478L9.26045 7.35723C9.36447 7.18294 9.5351 7.0552 9.73311 7.00501C9.93111 6.953 10.141 6.98312 10.3171 7.08531L18.325 11.8293C18.5011 11.9351 18.6261 12.1039 18.6781 12.3019C18.7292 12.4999 18.7 12.7098 18.596 12.8859L13.5673 21.3765C13.5153 21.4659 13.4487 21.5407 13.3684 21.6028C13.2863 21.663 13.1932 21.7068 13.0965 21.7341C12.997 21.7588 12.8948 21.7643 12.7945 21.7487C12.695 21.736 12.5983 21.7004 12.5107 21.6484Z" fill="#ECDBC2" stroke="#303030" stroke-width="0.4" stroke-miterlimit="10"/>
<path d="M31.623 22.2919C35.4088 22.2919 38.4766 19.2241 38.4766 15.4383C38.4766 11.6543 35.4088 8.58472 31.623 8.58472C27.8371 8.58472 24.7694 11.6543 24.7694 15.4383C24.7694 19.2241 27.8371 22.2919 31.623 22.2919Z" fill="#76C69D" stroke="#303030" stroke-width="0.4" stroke-miterlimit="10"/>
<path d="M6.60335 16.9763C6.60503 16.9744 8.26914 12.6034 13.5044 11.1584C13.507 11.1564 13.5088 11.1563 13.5105 11.1543C13.5122 11.1524 13.5139 11.1504 13.5156 11.1494C13.5164 11.1475 13.5161 11.1438 13.516 11.142L13.5155 11.1356C13.4398 10.9327 12.7586 8.95525 13.913 6.63758C15.3577 3.88753 18.1233 3.08547 18.3377 3.00347C18.3412 3.00138 18.3438 2.99935 18.3454 2.99649C18.347 2.99271 18.3485 2.98894 18.3483 2.98621C18.3326 2.82543 18.2165 1.20903 19.3203 1.01716C20.4279 0.827752 20.8947 2.26589 20.9368 2.39907C20.937 2.40271 20.9382 2.40628 20.9402 2.40796C20.9439 2.4086 20.9458 2.41028 20.9487 2.41189C21.1896 2.45143 25.5762 3.21608 27.4473 6.28174C27.4485 6.28531 27.4522 6.28595 27.456 6.28749C27.4588 6.28911 27.4643 6.2887 27.4679 6.28842C27.6294 6.22047 29.2161 5.60066 29.6627 6.57456C30.113 7.5619 28.7223 8.68398 28.6022 8.7781C28.6005 8.78006 28.597 8.78215 28.5972 8.78579C28.5956 8.78866 28.5959 8.7923 28.5962 8.79594C28.6516 9.05896 29.6912 14.3421 23.6299 16.3872C23.6264 16.3893 23.6228 16.3904 23.6205 16.3961C23.619 16.3999 23.6173 16.4028 23.6196 16.4081C23.7554 16.8755 26.8079 27.805 15.7772 30.7178C4.51066 33.6932 4.64879 21.454 6.60335 16.9763Z" fill="#7F99AE" stroke="#303030" stroke-width="0.4" stroke-miterlimit="10"/>
<path d="M23.957 12.6922C25.1264 10.927 24.4059 8.39066 22.3468 7.02464C20.2888 5.65946 17.6703 5.98166 16.5008 7.74503C15.3295 9.51036 16.05 12.0467 18.1091 13.4127C20.1681 14.7778 22.7865 14.4556 23.957 12.6922Z" fill="#BED5E8" stroke="#303030" stroke-width="0.4" stroke-miterlimit="10"/>
<path d="M20.7749 5.01635C20.4929 5.03755 20.2807 5.28378 20.3019 5.56528C20.3231 5.84723 20.5697 6.05937 20.8517 6.03817C21.1336 6.01698 21.3458 5.77035 21.3246 5.4884C21.3034 5.2069 21.0568 4.99516 20.7749 5.01635Z" fill="#303030"/>
<path d="M24.8233 7.94116C24.5413 7.96236 24.3291 8.20899 24.3503 8.49098C24.3715 8.77297 24.6182 8.98511 24.9001 8.96391C25.1821 8.94271 25.3943 8.69608 25.3731 8.41409C25.3519 8.1321 25.1053 7.91996 24.8233 7.94116Z" fill="#303030"/>
<path d="M18.5835 12.0456C18.0297 12.0872 17.5768 11.9807 17.2315 11.7266C16.6325 11.2859 16.5934 10.5699 16.592 10.5397C16.5886 10.4642 16.6484 10.4008 16.7225 10.3967C16.7979 10.3934 16.8619 10.4516 16.8655 10.5269C16.8658 10.5331 16.9024 11.1467 17.3963 11.508C17.8099 11.8106 18.4243 11.8618 19.2236 11.6603L21.017 8.96012C21.0588 8.89707 21.1437 8.87996 21.2067 8.92187C21.2697 8.96369 21.2868 9.04864 21.245 9.11161L19.4226 11.8555C19.4041 11.8835 19.3759 11.9037 19.3434 11.9122C19.0723 11.9834 18.8187 12.0278 18.5835 12.0456Z" fill="#303030" stroke="#303030" stroke-width="0.1"/>
<path d="M20.8013 13.7121C20.5089 13.7341 20.1927 13.6973 19.9135 13.5309C19.4378 13.2473 19.187 12.6593 19.1681 11.7832C19.1665 11.7075 19.2277 11.6449 19.302 11.6433C19.3776 11.6417 19.4402 11.7017 19.4418 11.7772C19.4585 12.5523 19.6641 13.063 20.0529 13.2953C20.6953 13.679 21.655 13.1969 21.6647 13.192C21.7318 13.1576 21.8144 13.1843 21.8489 13.2515C21.8833 13.3187 21.8568 13.4011 21.7896 13.4356C21.761 13.4502 21.3187 13.6732 20.8013 13.7121Z" fill="#303030" stroke="#303030" stroke-width="0.1"/>
<path d="M20.5156 7.0938C20.316 7.10514 20.612 8.99717 20.9027 9.26172C21.1945 9.52712 22.986 9.65963 23.2564 9.43434C23.5259 9.20911 22.2595 6.99473 20.5156 7.0938Z" fill="#303030"/>
<path d="M41 16.9942C41 16.7678 40.9104 16.5502 40.7488 16.3894C40.588 16.2294 40.3704 16.1398 40.144 16.1382H1.856C1.6296 16.1398 1.412 16.2294 1.2512 16.3894C1.0912 16.5502 1 16.7678 1 16.9942V17.5942C1 17.6766 1.032 17.7558 1.0912 17.8134C1.1488 17.8702 1.2264 17.903 1.3088 17.903H1.9408C1.9456 17.903 1.9488 17.9054 1.9512 17.907C1.9544 17.9102 1.956 17.9142 1.956 17.9174V35.9614C1.956 36.9854 2.3616 37.9662 3.0856 38.6878C3.8088 39.4118 4.7896 39.8174 5.812 39.8174H36.1C37.1224 39.8174 38.1032 39.4118 38.8264 38.6878C39.5504 37.9662 39.956 36.9854 39.956 35.9614V17.9174C39.956 17.9142 39.9576 17.9102 39.96 17.907C39.9632 17.9054 39.9664 17.903 39.9704 17.903H40.6912C40.732 17.903 40.772 17.8958 40.8088 17.879C40.8472 17.8646 40.8808 17.8414 40.9088 17.8134C40.9384 17.7838 40.96 17.7502 40.9768 17.7134C40.9928 17.675 41 17.635 41 17.5942V16.9942Z" fill="#BFA687" stroke="#303030" stroke-width="0.4" stroke-miterlimit="10"/>
<path d="M1.95599 17.9175H39.956" stroke="#303030" stroke-width="0.4" stroke-miterlimit="10"/>
</g>
<defs>
<clipPath id="clip0_5_717">
<rect width="42" height="40.8174" fill="white"/>
</clipPath>
</defs>
</svg>
