<svg width="36" height="42" viewBox="0 0 36 42" fill="none" xmlns="http://www.w3.org/2000/svg">
<g clip-path="url(#clip0_394_885)">
<path d="M24.3404 23.9286L1 7.09034L5.39433 1L34.8128 22.2239C34.8128 22.2239 34.8162 22.2345 34.8105 22.235L24.3404 23.9286Z" stroke="#303030" stroke-width="0.4" stroke-miterlimit="10"/>
<path d="M15.1939 36.6073L24.3405 23.9287L34.7912 22.2371C34.8042 22.2346 34.8129 22.2496 34.8051 22.2596L21.2843 41L15.1939 36.6073Z" stroke="#303030" stroke-width="0.4" stroke-miterlimit="10"/>
<path d="M10.6784 6.88394L11.6625 5.52126" stroke="#303030" stroke-width="0.3" stroke-miterlimit="10"/>
<path d="M7.02238 5.27354L8.493 3.23522" stroke="#303030" stroke-width="0.3" stroke-miterlimit="10"/>
<path d="M13.3605 9.84629L14.8304 7.80712" stroke="#303030" stroke-width="0.3" stroke-miterlimit="10"/>
<path d="M26.0353 18.9903L27.5059 16.952" stroke="#303030" stroke-width="0.3" stroke-miterlimit="10"/>
<path d="M20.4665 39.0219L30.6366 24.9244" stroke="#303030" stroke-width="0.3" stroke-miterlimit="10"/>
<path d="M29.6912 20.6007L30.6754 19.2381" stroke="#303030" stroke-width="0.3" stroke-miterlimit="10"/>
<path d="M17.0165 11.4568L17.9999 10.0933" stroke="#303030" stroke-width="0.3" stroke-miterlimit="10"/>
<path d="M19.6978 14.4183L21.1684 12.38" stroke="#303030" stroke-width="0.3" stroke-miterlimit="10"/>
<path d="M23.3539 16.0287L24.338 14.666" stroke="#303030" stroke-width="0.3" stroke-miterlimit="10"/>
</g>
<defs>
<clipPath id="clip0_394_885">
<rect width="35.8138" height="42" fill="white"/>
</clipPath>
</defs>
</svg>
