<svg width="36" height="42" viewBox="0 0 36 42" fill="none" xmlns="http://www.w3.org/2000/svg">
<g clip-path="url(#clip0_394_886)">
<path d="M24.3403 23.9286L1 7.09032L5.39432 1L34.8127 22.2238C34.8127 22.2238 34.8161 22.2344 34.8104 22.2349L24.3403 23.9286Z" fill="#BED5E8" stroke="#303030" stroke-width="0.4" stroke-miterlimit="10"/>
<path d="M15.1939 36.6073L24.3404 23.9287L34.7911 22.2371C34.8041 22.2346 34.8128 22.2496 34.805 22.2596L21.2843 41L15.1939 36.6073Z" fill="#76C69D" stroke="#303030" stroke-width="0.4" stroke-miterlimit="10"/>
<path d="M10.6784 6.88406L11.6625 5.52139" stroke="#303030" stroke-width="0.3" stroke-miterlimit="10"/>
<path d="M7.02241 5.27366L8.49302 3.23534" stroke="#303030" stroke-width="0.3" stroke-miterlimit="10"/>
<path d="M13.3605 9.84641L14.8304 7.80724" stroke="#303030" stroke-width="0.3" stroke-miterlimit="10"/>
<path d="M26.0353 18.9905L27.5059 16.9521" stroke="#303030" stroke-width="0.3" stroke-miterlimit="10"/>
<path d="M20.4664 39.0219L30.6366 24.9244" stroke="#303030" stroke-width="0.3" stroke-miterlimit="10"/>
<path d="M29.6912 20.6007L30.6753 19.2381" stroke="#303030" stroke-width="0.3" stroke-miterlimit="10"/>
<path d="M17.0165 11.4569L17.9999 10.0934" stroke="#303030" stroke-width="0.3" stroke-miterlimit="10"/>
<path d="M19.6978 14.4183L21.1684 12.38" stroke="#303030" stroke-width="0.3" stroke-miterlimit="10"/>
<path d="M23.3539 16.0288L24.338 14.6662" stroke="#303030" stroke-width="0.3" stroke-miterlimit="10"/>
</g>
<defs>
<clipPath id="clip0_394_886">
<rect width="35.8137" height="42" fill="white"/>
</clipPath>
</defs>
</svg>
