<svg width="42" height="41" viewBox="0 0 42 41" fill="none" xmlns="http://www.w3.org/2000/svg">
<path d="M28.9166 39.6572C27.949 39.6572 27.1646 38.8727 27.1646 37.9051C27.1646 36.9374 27.949 36.153 28.9166 36.153C31.5764 36.153 33.8306 36.1329 35.4408 35.5884C36.8498 35.1118 37.4957 34.1336 37.4957 32.6488L37.4957 8.00837C37.4956 6.7911 36.6166 5.46654 35.4408 5.06883C33.8306 4.52435 31.5763 4.50419 28.9166 4.50419C27.949 4.50419 27.1645 3.71976 27.1645 2.75211C27.1648 1.78469 27.9492 1.00001 28.9166 1.00001C31.3776 1.00001 34.2884 0.980255 36.5632 1.74944C37.7515 2.15136 38.9009 2.8078 39.7423 3.90191C40.594 5.00951 40.9998 6.39495 40.9999 8.00837L40.9999 32.6488C40.9999 34.2624 40.594 35.6476 39.7423 36.7553C38.9009 37.8494 37.7515 38.5058 36.5632 38.9078C34.2884 39.677 31.3776 39.6572 28.9166 39.6572Z" fill="#BED5E8" stroke="#303030" stroke-width="0.4" stroke-miterlimit="10" stroke-linecap="round"/>
<path d="M30.6352 20.2073L21.3576 9.75916C21.2433 9.55877 20.9487 9.64265 20.9487 9.88032V12.01C20.9487 12.1405 20.852 12.243 20.7289 12.243H1.2252C0.93767 12.243 0.912462 28.4139 1.2252 28.4139H20.7289C20.852 28.4139 20.9487 28.5165 20.9487 28.6469V30.7766C20.9487 31.0143 21.2433 31.0982 21.3576 30.8978L30.6352 20.4497C30.6792 20.3751 30.6792 20.2819 30.6352 20.2073Z" fill="#BED5E8" stroke="#303030" stroke-width="0.4" stroke-miterlimit="10"/>
</svg>
