<svg width="34" height="42" viewBox="0 0 34 42" fill="none" xmlns="http://www.w3.org/2000/svg">
<mask id="path-1-inside-1_1172_131" fill="white">
<path d="M1 2.92105C1 1.86008 1.86008 1 2.92105 1H31.468C31.9985 1 32.4286 1.43004 32.4286 1.96053V40.0395C32.4286 40.57 31.9985 41 31.468 41H2.92105C1.86008 41 1 40.1399 1 39.0789V2.92105Z"/>
</mask>
<path d="M1 2.92105C1 1.86008 1.86008 1 2.92105 1H31.468C31.9985 1 32.4286 1.43004 32.4286 1.96053V40.0395C32.4286 40.57 31.9985 41 31.468 41H2.92105C1.86008 41 1 40.1399 1 39.0789V2.92105Z" fill="#BED5E8"/>
<path d="M0 2.92105C0 1.63917 1.03917 0.6 2.32105 0.6H31.468C32.2194 0.6 32.8286 1.20913 32.8286 1.96053H32.0286C32.0286 1.65096 31.7776 1.4 31.468 1.4H2.92105C2.41237 1.4 2 2.081 2 2.92105L0 2.92105ZM32.8286 40.6395C32.8286 41.3909 32.2194 42 31.468 42H2.92105C1.3078 42 0 40.6922 0 39.0789H2C2 39.5876 2.41237 40 2.92105 40H31.468C31.7776 40 32.0286 40 32.0286 40L32.8286 40.6395ZM2.92105 42C1.3078 42 0 40.6922 0 39.0789V2.92105C0 1.63917 1.03917 0.6 2.32105 0.6L2.92105 1.4C2.41237 1.4 2 2.081 2 2.92105V39.0789C2 39.5876 2.41237 40 2.92105 40V42ZM31.468 0.6C32.2194 0.6 32.8286 1.20913 32.8286 1.96053V40.6395C32.8286 41.3909 32.2194 42 31.468 42V40C31.7776 40 32.0286 40 32.0286 40V1.96053C32.0286 1.65096 31.7776 1.4 31.468 1.4V0.6Z" fill="#303030" mask="url(#path-1-inside-1_1172_131)"/>
<path d="M26.8525 6.45292C26.8377 5.20192 25.8994 4.57643 24.976 4.88913C23.4517 5.40528 24.0229 7.07847 25.2739 7.70399C26.5249 8.3295 27.4632 9.12433 27.4632 10.2061C27.4632 11.1443 27.1653 11.4571 26.8525 11.7698" stroke="#303030" stroke-width="0.768421" stroke-linecap="round"/>
<path d="M24.6484 7.3913C24.0229 8.01681 23.3973 8.95509 24.3356 9.89336C25.2739 10.8316 26.261 10.9293 26.8377 12.0827C27.3068 13.0209 26.8377 13.9592 25.8994 14.272C24.9611 14.5847 24.0229 13.6465 24.0229 12.7082" stroke="#303030" stroke-width="0.768421" stroke-linecap="round"/>
</svg>
