<svg width="34" height="42" viewBox="0 0 34 42" fill="none" xmlns="http://www.w3.org/2000/svg">
<mask id="path-1-inside-1_1172_187" fill="white">
<path d="M1 2.92105C1 1.86008 1.86008 1 2.92105 1H31.468C31.9985 1 32.4286 1.43004 32.4286 1.96053V40.0395C32.4286 40.57 31.9985 41 31.468 41H2.92105C1.86008 41 1 40.1399 1 39.0789V2.92105Z"/>
</mask>
<path d="M1 2.92105C1 1.86008 1.86008 1 2.92105 1H31.468C31.9985 1 32.4286 1.43004 32.4286 1.96053V40.0395C32.4286 40.57 31.9985 41 31.468 41H2.92105C1.86008 41 1 40.1399 1 39.0789V2.92105Z" fill="#BED5E8"/>
<path d="M0 2.92105C0 1.63917 1.03917 0.6 2.32105 0.6H31.468C32.2194 0.6 32.8286 1.20913 32.8286 1.96053H32.0286C32.0286 1.65096 31.7776 1.4 31.468 1.4H2.92105C2.41237 1.4 2 2.081 2 2.92105L0 2.92105ZM32.8286 40.6395C32.8286 41.3909 32.2194 42 31.468 42H2.92105C1.3078 42 0 40.6922 0 39.0789H2C2 39.5876 2.41237 40 2.92105 40H31.468C31.7776 40 32.0286 40 32.0286 40L32.8286 40.6395ZM2.92105 42C1.3078 42 0 40.6922 0 39.0789V2.92105C0 1.63917 1.03917 0.6 2.32105 0.6L2.92105 1.4C2.41237 1.4 2 2.081 2 2.92105V39.0789C2 39.5876 2.41237 40 2.92105 40V42ZM31.468 0.6C32.2194 0.6 32.8286 1.20913 32.8286 1.96053V40.6395C32.8286 41.3909 32.2194 42 31.468 42V40C31.7776 40 32.0286 40 32.0286 40V1.96053C32.0286 1.65096 31.7776 1.4 31.468 1.4V0.6Z" fill="#303030" mask="url(#path-1-inside-1_1172_187)"/>
<path fill-rule="evenodd" clip-rule="evenodd" d="M20.9798 12.8183C20.9592 11.0755 20.2876 9.65895 19.1818 8.79883C18.0754 7.93835 16.6256 7.71007 15.2333 8.18152C14.1511 8.54799 13.3468 9.15474 12.8709 9.96063C12.396 10.765 12.3058 11.6706 12.4717 12.5274C12.6351 13.3709 13.0484 14.1956 13.6379 14.9169C12.9841 15.6436 12.3389 16.5539 12.0561 17.5909C11.8772 18.2466 11.8417 18.9593 12.0451 19.6949C12.2481 20.4285 12.6733 21.1294 13.3316 21.7877C14.3155 22.7716 15.3449 23.4188 16.2219 23.9702L16.2221 23.9703C16.4332 24.103 16.6355 24.2302 16.8262 24.3552C17.8201 25.0066 18.6099 25.6526 19.2014 26.8354C19.6517 27.7361 19.6316 28.5792 19.3269 29.2564C19.0178 29.9433 18.3813 30.5335 17.4675 30.8381C16.7209 31.087 15.9225 30.8621 15.2541 30.268C14.5769 29.6661 14.1468 28.7743 14.1468 27.9345C14.1468 27.4265 13.7349 27.0146 13.2268 27.0146C12.7187 27.0146 12.3069 27.4265 12.3069 27.9345C12.3069 29.3606 13.0096 30.7346 14.0318 31.6432C15.0627 32.5596 16.53 33.09 18.0493 32.5836C19.4012 32.1329 20.4641 31.2127 21.0047 30.0114C21.5346 28.8338 21.5302 27.4561 20.902 26.1258C21.2398 25.7793 21.617 25.35 21.9085 24.7479C22.2589 24.0243 22.4546 23.1233 22.4546 21.8924C22.4546 20.292 21.7523 18.9432 20.6916 17.8251C19.643 16.7198 18.2149 15.8053 16.6593 15.0275C15.362 14.3789 14.4776 13.2083 14.278 12.1776C14.1816 11.6798 14.248 11.2471 14.4552 10.8961C14.6616 10.5467 15.0652 10.1809 15.8234 9.9242C16.6611 9.64054 17.4592 9.78993 18.0522 10.2511C18.6457 10.7127 19.1249 11.5619 19.1401 12.8401C19.1461 13.3481 19.5628 13.7551 20.0708 13.749C20.5789 13.743 20.9858 13.3263 20.9798 12.8183ZM19.8695 24.5293C20.0203 24.3495 20.1459 24.1663 20.2526 23.9461C20.4507 23.5368 20.6148 22.9273 20.6148 21.8924C20.6148 20.8806 20.1842 19.9636 19.3568 19.0914C18.5171 18.2063 17.3018 17.4058 15.8364 16.6731C15.5407 16.5253 15.257 16.3555 14.9882 16.1673C14.4442 16.7758 14.008 17.4263 13.8311 18.075C13.7267 18.4577 13.7151 18.8307 13.8184 19.2044C13.9224 19.5801 14.158 20.0121 14.6326 20.4867C15.4563 21.3104 16.2731 21.8256 17.1324 22.3675L17.1325 22.3676C17.3632 22.5131 17.597 22.6605 17.8348 22.8164C18.5432 23.2807 19.2457 23.7998 19.8695 24.5293Z" fill="#303030"/>
<path d="M19.1818 8.79883L19.3046 8.64096L19.1818 8.79883ZM20.9798 12.8183L20.7798 12.8206L20.9798 12.8183ZM15.2333 8.18152L15.1692 7.99209V7.99209L15.2333 8.18152ZM12.8709 9.96063L12.6987 9.85894L12.6987 9.85894L12.8709 9.96063ZM12.4717 12.5274L12.6681 12.4894L12.4717 12.5274ZM13.6379 14.9169L13.7866 15.0507L13.9013 14.9231L13.7928 14.7903L13.6379 14.9169ZM12.0561 17.5909L11.8631 17.5382H11.8631L12.0561 17.5909ZM12.0451 19.6949L12.2379 19.6416L12.0451 19.6949ZM13.3316 21.7877L13.1902 21.9291H13.1902L13.3316 21.7877ZM16.2219 23.9702L16.3296 23.8016L16.3284 23.8008L16.2219 23.9702ZM16.2221 23.9703L16.1144 24.1388L16.1156 24.1396L16.2221 23.9703ZM16.8262 24.3552L16.9359 24.1879H16.9359L16.8262 24.3552ZM19.2014 26.8354L19.3802 26.746L19.2014 26.8354ZM19.3269 29.2564L19.1445 29.1743L19.3269 29.2564ZM17.4675 30.8381L17.5307 31.0279H17.5307L17.4675 30.8381ZM15.2541 30.268L15.387 30.1185L15.387 30.1185L15.2541 30.268ZM14.0318 31.6432L13.8989 31.7926L14.0318 31.6432ZM18.0493 32.5836L17.9861 32.3938H17.9861L18.0493 32.5836ZM21.0047 30.0114L21.1871 30.0935L21.0047 30.0114ZM20.902 26.1258L20.7588 25.9862L20.6619 26.0857L20.7212 26.2112L20.902 26.1258ZM21.9085 24.7479L22.0885 24.8351V24.8351L21.9085 24.7479ZM20.6916 17.8251L20.8367 17.6874L20.6916 17.8251ZM16.6593 15.0275L16.5698 15.2064L16.6593 15.0275ZM14.278 12.1776L14.4744 12.1396L14.278 12.1776ZM14.4552 10.8961L14.6274 10.9978H14.6274L14.4552 10.8961ZM15.8234 9.9242L15.7593 9.73477V9.73477L15.8234 9.9242ZM18.0522 10.2511L17.9294 10.409L18.0522 10.2511ZM19.1401 12.8401L19.34 12.8377L19.1401 12.8401ZM20.0708 13.749L20.0685 13.5491L20.0708 13.749ZM19.8695 24.5293L19.7175 24.6592L19.871 24.8387L20.0227 24.6578L19.8695 24.5293ZM20.2526 23.9461L20.4326 24.0332V24.0332L20.2526 23.9461ZM19.3568 19.0914L19.5018 18.9537L19.5018 18.9537L19.3568 19.0914ZM15.8364 16.6731L15.747 16.852L15.8364 16.6731ZM14.9882 16.1673L15.1029 16.0035L14.9575 15.9016L14.8391 16.034L14.9882 16.1673ZM13.8311 18.075L13.6382 18.0224L13.8311 18.075ZM13.8184 19.2044L13.6257 19.2577L13.8184 19.2044ZM14.6326 20.4867L14.4912 20.6281H14.4912L14.6326 20.4867ZM17.1324 22.3675L17.2404 22.1992L17.2391 22.1983L17.1324 22.3675ZM17.1325 22.3676L17.0245 22.5359L17.0258 22.5367L17.1325 22.3676ZM17.8348 22.8164L17.9445 22.6491L17.8348 22.8164ZM19.1818 8.79883L19.059 8.9567C20.1091 9.77341 20.7598 11.1282 20.7798 12.8206L20.9798 12.8183L21.1798 12.8159C21.1586 11.0228 20.4662 9.54448 19.3046 8.64096L19.1818 8.79883ZM15.2333 8.18152L15.2975 8.37095C16.6296 7.91989 18.0085 8.13967 19.059 8.9567L19.1818 8.79883L19.3046 8.64096C18.1424 7.73703 16.6217 7.50024 15.1692 7.99209L15.2333 8.18152ZM12.8709 9.96063L13.0432 10.0623C13.4897 9.30613 14.2503 8.72553 15.2975 8.37095L15.2333 8.18152L15.1692 7.99209C14.0518 8.37045 13.2039 9.00336 12.6987 9.85894L12.8709 9.96063ZM12.4717 12.5274L12.6681 12.4894C12.5097 11.6715 12.5973 10.8173 13.0432 10.0623L12.8709 9.96063L12.6987 9.85894C12.1946 10.7127 12.1019 11.6697 12.2754 12.5655L12.4717 12.5274ZM13.6379 14.9169L13.7928 14.7903C13.2209 14.0906 12.8242 13.2955 12.6681 12.4894L12.4717 12.5274L12.2754 12.5655C12.4459 13.4462 12.876 14.3007 13.4831 15.0435L13.6379 14.9169ZM12.0561 17.5909L12.249 17.6435C12.52 16.6499 13.1421 15.767 13.7866 15.0507L13.6379 14.9169L13.4892 14.7831C12.8261 15.5202 12.1577 16.458 11.8631 17.5382L12.0561 17.5909ZM12.0451 19.6949L12.2379 19.6416C12.0453 18.9453 12.0783 18.2696 12.249 17.6435L12.0561 17.5909L11.8631 17.5382C11.6762 18.2236 11.638 18.9732 11.8524 19.7482L12.0451 19.6949ZM13.3316 21.7877L13.473 21.6463C12.8346 21.0079 12.4301 20.3363 12.2379 19.6416L12.0451 19.6949L11.8524 19.7482C12.0661 20.5208 12.5119 21.2508 13.1902 21.9291L13.3316 21.7877ZM16.2219 23.9702L16.3284 23.8008C15.4508 23.2491 14.4391 22.6124 13.473 21.6463L13.3316 21.7877L13.1902 21.9291C14.1918 22.9307 15.239 23.5885 16.1155 24.1395L16.2219 23.9702ZM16.2221 23.9703L16.3297 23.8017L16.3296 23.8016L16.2219 23.9702L16.1143 24.1387L16.1144 24.1388L16.2221 23.9703ZM16.8262 24.3552L16.9359 24.1879C16.7433 24.0617 16.5393 23.9335 16.3285 23.8009L16.2221 23.9703L16.1156 24.1396C16.3271 24.2725 16.5278 24.3987 16.7166 24.5225L16.8262 24.3552ZM19.2014 26.8354L19.3802 26.746C18.766 25.5175 17.9426 24.8478 16.9359 24.1879L16.8262 24.3552L16.7166 24.5225C17.6975 25.1654 18.4538 25.7876 19.0225 26.9249L19.2014 26.8354ZM19.3269 29.2564L19.5093 29.3384C19.84 28.6034 19.8559 27.6973 19.3802 26.746L19.2014 26.8354L19.0225 26.9249C19.4475 27.775 19.4231 28.5551 19.1445 29.1743L19.3269 29.2564ZM17.4675 30.8381L17.5307 31.0279C18.4923 30.7073 19.175 30.0811 19.5093 29.3384L19.3269 29.2564L19.1445 29.1743C18.8605 29.8054 18.2704 30.3597 17.4042 30.6484L17.4675 30.8381ZM15.2541 30.268L15.1212 30.4175C15.8297 31.0472 16.7009 31.3045 17.5307 31.0279L17.4675 30.8381L17.4042 30.6484C16.741 30.8695 16.0153 30.677 15.387 30.1185L15.2541 30.268ZM14.1468 27.9345H13.9468C13.9468 28.8379 14.4064 29.7821 15.1212 30.4175L15.2541 30.268L15.387 30.1185C14.7474 29.55 14.3468 28.7106 14.3468 27.9345H14.1468ZM13.2268 27.0146V27.2146C13.6244 27.2146 13.9468 27.5369 13.9468 27.9345H14.1468H14.3468C14.3468 27.316 13.8453 26.8146 13.2268 26.8146V27.0146ZM12.3069 27.9345H12.5069C12.5069 27.5369 12.8292 27.2146 13.2268 27.2146V27.0146V26.8146C12.6083 26.8146 12.1069 27.316 12.1069 27.9345H12.3069ZM14.0318 31.6432L14.1646 31.4937C13.1799 30.6184 12.5069 29.2968 12.5069 27.9345H12.3069H12.1069C12.1069 29.4244 12.8393 30.8508 13.8989 31.7926L14.0318 31.6432ZM18.0493 32.5836L17.9861 32.3938C16.5512 32.8721 15.1565 32.3754 14.1646 31.4937L14.0318 31.6432L13.8989 31.7926C14.9689 32.7438 16.5089 33.3079 18.1125 32.7733L18.0493 32.5836ZM21.0047 30.0114L20.8223 29.9293C20.3069 31.0746 19.2904 31.9591 17.9861 32.3938L18.0493 32.5836L18.1125 32.7733C19.512 32.3068 20.6213 31.3507 21.1871 30.0935L21.0047 30.0114ZM20.902 26.1258L20.7212 26.2112C21.3258 27.4916 21.3269 28.8081 20.8223 29.9293L21.0047 30.0114L21.1871 30.0935C21.7423 28.8596 21.7346 27.4206 21.0829 26.0404L20.902 26.1258ZM21.9085 24.7479L21.7285 24.6608C21.4506 25.2347 21.0904 25.646 20.7588 25.9862L20.902 26.1258L21.0452 26.2654C21.3892 25.9126 21.7833 25.4654 22.0885 24.8351L21.9085 24.7479ZM22.4546 21.8924H22.2546C22.2546 23.102 22.0624 23.9713 21.7285 24.6608L21.9085 24.7479L22.0885 24.8351C22.4555 24.0773 22.6546 23.1446 22.6546 21.8924H22.4546ZM20.6916 17.8251L20.5465 17.9627C21.5819 19.0542 22.2546 20.3561 22.2546 21.8924H22.4546H22.6546C22.6546 20.2279 21.9227 18.8322 20.8367 17.6874L20.6916 17.8251ZM16.6593 15.0275L16.5698 15.2064C18.1157 15.9793 19.5206 16.8814 20.5465 17.9627L20.6916 17.8251L20.8367 17.6874C19.7654 16.5582 18.3142 15.6314 16.7487 14.8486L16.6593 15.0275ZM14.278 12.1776L14.0817 12.2157C14.2949 13.3166 15.226 14.5345 16.5698 15.2064L16.6593 15.0275L16.7487 14.8486C15.498 14.2232 14.6604 13.0999 14.4744 12.1396L14.278 12.1776ZM14.4552 10.8961L14.283 10.7944C14.0468 11.1945 13.9777 11.6785 14.0817 12.2157L14.278 12.1776L14.4744 12.1396C14.3856 11.681 14.4492 11.2997 14.6274 10.9978L14.4552 10.8961ZM15.8234 9.9242L15.7593 9.73477C14.9657 10.0035 14.5186 10.3955 14.283 10.7944L14.4552 10.8961L14.6274 10.9978C14.8046 10.6978 15.1648 10.3584 15.8876 10.1136L15.8234 9.9242ZM18.0522 10.2511L18.175 10.0933C17.5263 9.58874 16.6574 9.43064 15.7593 9.73477L15.8234 9.9242L15.8876 10.1136C16.6649 9.85043 17.3921 9.99112 17.9294 10.409L18.0522 10.2511ZM19.1401 12.8401L19.34 12.8377C19.3243 11.5088 18.824 10.598 18.175 10.0933L18.0522 10.2511L17.9294 10.409C18.4673 10.8274 18.9255 11.615 18.9401 12.8424L19.1401 12.8401ZM20.0708 13.749L20.0685 13.5491C19.6709 13.5538 19.3447 13.2353 19.34 12.8377L19.1401 12.8401L18.9401 12.8424C18.9474 13.4609 19.4547 13.9564 20.0732 13.949L20.0708 13.749ZM20.9798 12.8183L20.7798 12.8206C20.7845 13.2182 20.466 13.5443 20.0685 13.5491L20.0708 13.749L20.0732 13.949C20.6917 13.9417 21.1871 13.4344 21.1798 12.8159L20.9798 12.8183ZM19.8695 24.5293L20.0227 24.6578C20.1821 24.4678 20.3174 24.271 20.4326 24.0332L20.2526 23.9461L20.0725 23.8589C19.9744 24.0617 19.8586 24.2311 19.7163 24.4007L19.8695 24.5293ZM20.2526 23.9461L20.4326 24.0332C20.6473 23.5898 20.8148 22.9486 20.8148 21.8924H20.6148H20.4148C20.4148 22.906 20.2542 23.4838 20.0725 23.8589L20.2526 23.9461ZM20.6148 21.8924H20.8148C20.8148 20.8168 20.3548 19.8528 19.5018 18.9537L19.3568 19.0914L19.2117 19.229C20.0136 20.0744 20.4148 20.9445 20.4148 21.8924H20.6148ZM19.3568 19.0914L19.5018 18.9537C18.6395 18.0447 17.401 17.2318 15.9259 16.4942L15.8364 16.6731L15.747 16.852C17.2025 17.5798 18.3948 18.3679 19.2117 19.229L19.3568 19.0914ZM15.8364 16.6731L15.9259 16.4942C15.6391 16.3509 15.3638 16.1862 15.1029 16.0035L14.9882 16.1673L14.8735 16.3311C15.1501 16.5249 15.4423 16.6997 15.747 16.852L15.8364 16.6731ZM14.9882 16.1673L14.8391 16.034C14.2865 16.6521 13.827 17.3301 13.6382 18.0224L13.8311 18.075L14.0241 18.1276C14.1891 17.5225 14.6018 16.8996 15.1373 16.3006L14.9882 16.1673ZM13.8311 18.075L13.6382 18.0224C13.5257 18.4348 13.5115 18.8448 13.6257 19.2577L13.8184 19.2044L14.0112 19.1511C13.9187 18.8167 13.9278 18.4806 14.0241 18.1276L13.8311 18.075ZM13.8184 19.2044L13.6257 19.2577C13.7403 19.6723 13.9966 20.1335 14.4912 20.6281L14.6326 20.4867L14.774 20.3453C14.3194 19.8907 14.1044 19.4879 14.0112 19.1511L13.8184 19.2044ZM14.6326 20.4867L14.4912 20.6281C15.3326 21.4696 16.1672 21.9952 17.0257 22.5367L17.1324 22.3675L17.2391 22.1983C16.379 21.6559 15.58 21.1513 14.774 20.3453L14.6326 20.4867ZM17.1324 22.3675L17.0244 22.5358L17.0245 22.5359L17.1325 22.3676L17.2405 22.1992L17.2404 22.1992L17.1324 22.3675ZM17.1325 22.3676L17.0258 22.5367C17.2567 22.6824 17.4891 22.8289 17.7252 22.9837L17.8348 22.8164L17.9445 22.6491C17.705 22.4921 17.4697 22.3438 17.2392 22.1984L17.1325 22.3676ZM17.8348 22.8164L17.7252 22.9837C18.4274 23.4439 19.1118 23.9509 19.7175 24.6592L19.8695 24.5293L20.0215 24.3993C19.3797 23.6488 18.659 23.1175 17.9445 22.6491L17.8348 22.8164Z" fill="#303030"/>
</svg>
