<svg width="34" height="42" viewBox="0 0 34 42" fill="none" xmlns="http://www.w3.org/2000/svg">
<g clip-path="url(#clip0_6_1362)">
<path d="M18.5212 34.5308H15.4021L13.5967 31.2475C13.5967 29.93 13.3172 28.629 12.7799 27.427C12.2418 26.2241 11.4579 25.1487 10.4776 24.2704C8.99153 22.9529 7.94083 21.2172 7.46869 19.2882C6.99731 17.3592 7.12396 15.332 7.83441 13.4809C8.54412 11.6253 9.8039 10.0336 11.4421 8.91316C13.0834 7.79202 15.0244 7.19698 17.0111 7.21347C18.9934 7.22621 20.9306 7.84149 22.5516 8.98286C24.1771 10.1235 25.4167 11.7325 26.1016 13.5956C26.7874 15.4586 26.89 17.4866 26.3932 19.4074C25.8971 21.3319 24.8254 23.0556 23.3235 24.3528C22.338 25.2102 21.5541 26.2691 21.025 27.4599C20.4914 28.65 20.2247 29.9428 20.2449 31.2475L18.5212 34.5308Z" fill="#FBF3E8" stroke="#303030" stroke-width="0.4"/>
<path d="M18.1525 33.2995V19.5506C18.1525 19.3085 18.2012 19.0709 18.2919 18.8491C18.3863 18.6273 18.5212 18.4264 18.6936 18.2578C18.8659 18.0899 19.0713 17.9588 19.2969 17.8726C19.5187 17.7819 19.757 17.7407 19.9991 17.7452C20.4832 17.7407 20.9471 17.9296 21.2956 18.2661C21.6403 18.607 21.8374 19.0664 21.8457 19.5506C21.8457 19.7934 21.7969 20.0309 21.7063 20.2528C21.6118 20.4746 21.4762 20.6755 21.3038 20.8441C21.1315 21.0119 20.9269 21.1431 20.7005 21.2293C20.4795 21.32 20.2411 21.3612 19.9991 21.3567H13.7196C13.2355 21.3612 12.7671 21.1723 12.4224 20.8358C12.0777 20.4948 11.8813 20.0354 11.8731 19.5506C11.8731 19.3085 11.9218 19.0709 12.0125 18.8491C12.1069 18.6273 12.2418 18.4264 12.4141 18.2578C12.5865 18.0899 12.7919 17.9588 13.0182 17.8726C13.2393 17.7819 13.4776 17.7407 13.7196 17.7452C14.2038 17.7407 14.6677 17.9296 15.0169 18.2661C15.3616 18.607 15.558 19.0664 15.5662 19.5506V33.2995" stroke="#303030" stroke-width="0.4" stroke-linecap="round" stroke-linejoin="round"/>
<path d="M16.9212 4.24201V1" stroke="#303030" stroke-width="0.4" stroke-linecap="round" stroke-linejoin="round"/>
<path d="M4.24201 16.6418H1" stroke="#303030" stroke-width="0.4" stroke-linecap="round" stroke-linejoin="round"/>
<path d="M32.8923 16.6418H29.6503" stroke="#303030" stroke-width="0.4" stroke-linecap="round" stroke-linejoin="round"/>
<path d="M6.94784 8.18256L4.64935 5.92529" stroke="#303030" stroke-width="0.4" stroke-linecap="round" stroke-linejoin="round"/>
<path d="M26.4426 8.34662L28.6999 6.08936" stroke="#303030" stroke-width="0.4" stroke-linecap="round" stroke-linejoin="round"/>
<path d="M16.9848 41C18.553 41 19.8231 39.8312 19.8231 38.3913C19.8231 36.9514 18.553 35.7839 16.9848 35.7839C15.4172 35.7839 14.1459 36.9514 14.1459 38.3913C14.1459 39.8312 15.4172 41 16.9848 41Z" fill="#303030" stroke="#303030" stroke-width="0.4"/>
<path d="M20.0395 31.1687H13.9333C12.3166 31.1687 12.2758 33.7251 13.8075 33.8566C13.8094 33.8566 13.8106 33.8566 13.8125 33.8585C13.8125 33.8585 13.8138 33.8598 13.8138 33.8617C13.8138 33.8629 13.8125 33.8648 13.8125 33.8648C13.8106 33.8661 13.8094 33.8661 13.8075 33.8661C12.3166 33.995 12.3104 36.4288 13.8201 36.5496C13.8264 36.5496 13.8264 36.5578 13.8201 36.5578C12.2676 36.6798 12.3198 39.2457 13.9333 39.2457H20.0395C21.6555 39.2457 21.7014 36.6798 20.1521 36.5578C20.1458 36.5578 20.1458 36.5496 20.1521 36.5496C21.6637 36.4288 21.6542 33.995 20.1646 33.8661C20.1634 33.8661 20.1615 33.8661 20.1602 33.8648C20.1602 33.8648 20.1584 33.8629 20.1584 33.8617C20.1584 33.8598 20.1602 33.8585 20.1602 33.8585C20.1615 33.8566 20.1634 33.8566 20.1646 33.8566C21.697 33.7251 21.6555 31.1687 20.0395 31.1687Z" fill="#76C69D" stroke="#303030" stroke-width="0.4"/>
</g>
<defs>
<clipPath id="clip0_6_1362">
<rect width="33.8923" height="42" fill="white"/>
</clipPath>
</defs>
</svg>
