<svg width="40" height="42" viewBox="0 0 40 42" fill="none" xmlns="http://www.w3.org/2000/svg">
<path d="M19.7969 12.6362C24.1748 12.6362 26.8094 13.4993 28.3614 15.2592C29.919 17.0257 30.4337 19.746 30.4337 23.5864C30.4335 31.2161 25.6272 37.311 19.7969 37.311C13.9668 37.3109 9.16139 31.216 9.16119 23.5864C9.16119 19.7502 9.74496 17.0289 11.338 15.2612C12.9263 13.4987 15.5627 12.6362 19.7969 12.6362Z" fill="#303030" stroke="#303030" stroke-width="0.4"/>
<path d="M25.1522 13.6378C25.3137 12.4158 25.9996 12.255 26.7106 12.0124C27.3368 11.7672 27.912 11.827 28.248 11.325C28.5613 10.8569 29.0338 9.9654 28.9363 9.566C28.6406 8.35381 29.1988 7.80434 29.7866 7.37718C30.3744 6.95002 30.5942 6.18717 31.188 5.71486C31.7818 5.24256 31.6134 7.61857 30.3719 7.72529C29.7689 7.77713 29.5229 9.21355 29.7208 9.66965C30.1778 10.7227 28.8146 10.9926 28.0371 12.9214C27.5979 14.0108 25.0576 14.3536 25.1522 13.6378Z" fill="#303030" stroke="#303030" stroke-width="0.4"/>
<path d="M14.4421 13.6378C14.2806 12.4158 13.5947 12.255 12.8837 12.0124C12.2575 11.7672 11.6823 11.827 11.3463 11.325C11.033 10.8569 10.5605 9.9654 10.658 9.566C10.9537 8.35381 10.3955 7.80434 9.80766 7.37718C9.21985 6.95002 9.00006 6.18717 8.40629 5.71486C7.81251 5.24256 7.98091 7.61857 9.22242 7.72529C9.82543 7.77713 10.0714 9.21355 9.87349 9.66965C9.41646 10.7227 10.7797 10.9926 11.5572 12.9214C11.9964 14.0108 14.5367 14.3536 14.4421 13.6378Z" fill="#303030" stroke="#303030" stroke-width="0.4"/>
<path d="M29.2309 30.0806C29.2309 31.5286 29.9088 31.8213 30.6014 32.2134C31.2072 32.5952 31.8019 32.6142 32.077 33.2506C32.3335 33.8439 31.8867 35.5627 31.7334 36.0128C31.2684 37.3791 32.7486 37.3336 32.8264 38.3167C32.9435 39.796 33.0186 41 33.4587 41C34.1547 41 34.6307 37.9473 33.6226 37.3879C33.1825 37.1436 32.445 36.055 32.6239 35.4793C33.6389 32.2134 32.6102 33.7249 32.077 31.3588C31.7759 30.0225 29.2309 29.2323 29.2309 30.0806Z" fill="#303030" stroke="#303030" stroke-width="0.4"/>
<path d="M10.3635 30.0806C10.3635 31.5286 9.68548 31.8213 8.99291 32.2134C8.38716 32.5952 7.79244 32.6142 7.51731 33.2506C7.2608 33.8439 7.70766 35.5627 7.86088 36.0128C8.32592 37.3791 6.84578 37.3336 6.76796 38.3167C6.65086 39.796 6.57577 41 6.13565 41C5.43963 41 4.96359 37.9473 5.97172 37.3879C6.41184 37.1436 7.14935 36.055 6.97044 35.4793C5.95545 32.2134 6.98416 33.7249 7.51731 31.3588C7.81844 30.0225 10.3635 29.2323 10.3635 30.0806Z" fill="#303030" stroke="#303030" stroke-width="0.4"/>
<path d="M30.1167 20.2265C30.434 21.5056 30.8947 22.0471 31.6534 22.0744C32.2629 22.0964 32.8025 22.0051 33.2754 22.3549C33.7164 22.681 33.9281 23.9153 34.0056 24.3111C34.2408 25.5124 36.1343 25.2582 36.4887 26.0148C37.3462 27.8451 39.0827 27.4832 38.3241 26.7838C37.5196 26.0421 36.9176 24.7524 36.1707 24.7326C35.7367 24.7211 34.5152 23.6063 34.4035 23.1075C33.7698 20.277 33.304 21.981 31.9075 20.4716C31.1187 19.6191 29.9507 19.557 30.1167 20.2265Z" fill="#303030" stroke="#303030" stroke-width="0.4"/>
<path d="M9.47749 20.2265C9.16025 21.5056 8.69954 22.0471 7.94077 22.0744C7.33128 22.0964 6.79173 22.0051 6.31876 22.3549C5.87778 22.681 5.66615 23.9153 5.58865 24.3111C5.35343 25.5124 3.45994 25.2582 3.10551 26.0148C2.24804 27.8451 0.51148 27.4832 1.27011 26.7838C2.07463 26.0421 2.67658 24.7524 3.4235 24.7326C3.85749 24.7211 5.07901 23.6063 5.1907 23.1075C5.82442 20.277 6.2902 21.981 7.68673 20.4716C8.47549 19.6191 9.64354 19.557 9.47749 20.2265Z" fill="#303030" stroke="#303030" stroke-width="0.4"/>
<path d="M21.5059 6.54908C21.5059 6.54908 21.436 4.82242 23.0162 4.19522C24.5964 3.56802 25.9006 2.85814 25.9006 1" stroke="#303030" stroke-width="0.4"/>
<path d="M18.0883 6.54908C18.0883 6.54908 18.1582 4.82242 16.578 4.19522C14.9977 3.56802 13.6935 2.85814 13.6935 1" stroke="#303030" stroke-width="0.4"/>
<path d="M19.7976 6.4325C23.0892 6.43268 25.7244 8.85762 25.7244 11.8104C25.7243 12.5514 25.56 13.0658 25.2839 13.4296C25.008 13.7931 24.6027 14.0306 24.075 14.1825C23.5448 14.3351 22.9038 14.3975 22.1755 14.4208C21.4469 14.4441 20.6493 14.4276 19.7976 14.4276C18.9457 14.4276 18.1475 14.4441 17.4187 14.4208C16.6905 14.3975 16.0495 14.3351 15.5193 14.1825C14.9916 14.0305 14.5863 13.7931 14.3103 13.4296C14.0342 13.0658 13.8699 12.5514 13.8699 11.8104C13.8699 8.8575 16.5058 6.4325 19.7976 6.4325Z" fill="#303030" stroke="#303030" stroke-width="0.4"/>
<path d="M22.8626 12.8373C25.2936 12.8373 27.43 13.6733 28.9612 15.4525C30.4955 17.2353 31.4436 19.9892 31.4436 23.8617C31.4436 27.7333 30.4581 31.2456 28.6966 33.7836C26.9377 36.3175 24.4081 37.8793 21.2962 37.8793C21.0421 37.8793 20.8471 37.8017 20.6897 37.6586C20.5276 37.511 20.3926 37.2815 20.2864 36.9584C20.0726 36.308 19.9969 35.3436 19.9973 34.1078C19.9978 32.8769 20.0723 31.4024 20.1477 29.7406C20.2231 28.0809 20.2991 26.2388 20.2991 24.2826C20.2991 20.3651 20.2156 17.4791 20.5159 15.5638C20.6659 14.6078 20.9077 13.9275 21.2766 13.4877C21.6357 13.0598 22.1348 12.8373 22.8626 12.8373Z" fill="#D6B689" stroke="#303030" stroke-width="0.4"/>
<path d="M16.8001 12.8373C14.3492 12.8373 12.196 13.6741 10.6526 15.4535C9.10641 17.2363 8.15071 19.9896 8.15067 23.8617C8.15067 27.7351 9.09516 31.2483 10.8216 33.7865C12.5446 36.3197 15.0444 37.8821 18.1809 37.8822C18.4378 37.8822 18.6389 37.8036 18.804 37.6586C18.9735 37.5096 19.1178 37.2787 19.2337 36.9554C19.4667 36.3049 19.5668 35.3407 19.5911 34.1058C19.6153 32.8754 19.5645 31.4 19.5071 29.7386C19.4497 28.0795 19.386 26.2379 19.386 24.2826C19.386 20.3648 19.469 17.4789 19.1663 15.5638C19.0152 14.6079 18.7726 13.9274 18.4007 13.4877C18.0386 13.0596 17.5346 12.8373 16.8001 12.8373Z" fill="#D6B689" stroke="#303030" stroke-width="0.4"/>
<path d="M27.7314 26.6151C28.7239 26.6151 29.5273 27.4166 29.5273 28.4031C29.527 29.3895 28.7238 30.1902 27.7314 30.1902C26.7389 30.1902 25.9357 29.3895 25.9355 28.4031C25.9355 27.4165 26.7387 26.6151 27.7314 26.6151Z" fill="#303030" stroke="#303030" stroke-width="0.4"/>
<path d="M11.863 26.6151C10.8705 26.6151 10.0671 27.4166 10.0671 28.4031C10.0674 29.3895 10.8706 30.1902 11.863 30.1902C12.8555 30.1902 13.6587 29.3895 13.6589 28.4031C13.6589 27.4165 12.8557 26.6151 11.863 26.6151Z" fill="#303030" stroke="#303030" stroke-width="0.4"/>
<path d="M22.7701 20.9764C22.0614 21.832 22.1779 23.0968 23.0284 23.8014C23.879 24.5059 25.1433 24.3849 25.8521 23.5293C26.5606 22.6737 26.4436 21.4096 25.5931 20.7051C24.7426 20.0007 23.4788 20.1211 22.7701 20.9764Z" fill="#303030" stroke="#303030" stroke-width="0.4"/>
<path d="M16.8243 20.9764C17.533 21.832 17.4165 23.0968 16.566 23.8014C15.7154 24.5059 14.4511 24.3849 13.7424 23.5293C13.0339 22.6737 13.1508 21.4096 14.0013 20.7051C14.8518 20.0007 16.1156 20.1211 16.8243 20.9764Z" fill="#303030" stroke="#303030" stroke-width="0.4"/>
<path d="M23.9857 31.1947C24.7225 31.5127 25.0607 32.344 24.7582 33.0448C24.4557 33.7455 23.6189 34.0698 22.8821 33.7519C22.1453 33.4339 21.8073 32.6026 22.1096 31.9018C22.4121 31.2009 23.2488 30.8767 23.9857 31.1947Z" fill="#303030" stroke="#303030" stroke-width="0.4"/>
<path d="M15.6087 31.1947C14.8719 31.5127 14.5338 32.344 14.8362 33.0448C15.1387 33.7455 15.9755 34.0698 16.7123 33.7519C17.4491 33.4339 17.7872 32.6026 17.4849 31.9018C17.1824 31.2009 16.3456 30.8767 15.6087 31.1947Z" fill="#303030" stroke="#303030" stroke-width="0.4"/>
<path d="M27.7247 15.9706C28.4615 16.2886 28.7996 17.1199 28.4972 17.8207C28.1947 18.5214 27.3579 18.8457 26.6211 18.5278C25.8843 18.2098 25.5462 17.3785 25.8485 16.6776C26.151 15.9768 26.9878 15.6526 27.7247 15.9706Z" fill="#303030" stroke="#303030" stroke-width="0.4"/>
<path d="M11.8697 15.9706C11.1329 16.2886 10.7948 17.1199 11.0972 17.8207C11.3997 18.5214 12.2365 18.8457 12.9733 18.5278C13.7101 18.2098 14.0482 17.3785 13.7458 16.6776C13.4434 15.9768 12.6066 15.6526 11.8697 15.9706Z" fill="#303030" stroke="#303030" stroke-width="0.4"/>
<circle cx="17.3934" cy="8.33882" r="1.01538" fill="#757575" stroke="#303030" stroke-width="0.4"/>
<circle cx="22.2011" cy="8.33882" r="1.01538" fill="#757575" stroke="#303030" stroke-width="0.4"/>
</svg>
