<svg width="40" height="42" viewBox="0 0 40 42" fill="none" xmlns="http://www.w3.org/2000/svg">
<path d="M20.9926 37.4698C20.5982 37.4973 20.1995 37.5113 19.7973 37.5113C19.395 37.5113 18.9964 37.4973 18.6019 37.4698" stroke="#303030" stroke-width="0.4"/>
<path d="M25.9578 12.3056C26.1885 12.1805 26.4478 12.102 26.7106 12.0124C27.3369 11.7672 27.912 11.827 28.2481 11.3249C28.5614 10.8569 29.0338 9.96537 28.9364 9.56598C28.6406 8.35379 29.1989 7.80431 29.7867 7.37716C30.3745 6.95 30.5943 6.18715 31.188 5.71484C31.7818 5.24254 31.6134 7.61855 30.3719 7.72527C29.7689 7.77711 29.5229 9.21353 29.7208 9.66963C30.1779 10.7227 28.8146 10.9925 28.0371 12.9214C27.8753 13.3227 27.4283 13.6228 26.933 13.8058" stroke="#303030" stroke-width="0.4"/>
<path d="M13.6626 12.3199C13.4254 12.1865 13.1564 12.1054 12.8837 12.0124C12.2575 11.7672 11.6823 11.827 11.3463 11.325C11.033 10.8569 10.5605 9.96539 10.658 9.56599C10.9537 8.3538 10.3955 7.80433 9.80767 7.37717C9.21986 6.95002 9.00007 6.18717 8.4063 5.71486C7.81253 5.24255 7.98093 7.61856 9.22243 7.72528C9.82545 7.77712 10.0715 9.21354 9.8735 9.66964C9.41647 10.7227 10.7797 10.9926 11.5572 12.9214C11.7211 13.3279 12.1776 13.6305 12.6805 13.8129" stroke="#303030" stroke-width="0.4"/>
<path d="M29.9509 31.8175C30.1508 31.968 30.3753 32.0854 30.6014 32.2134C31.2071 32.5952 31.8019 32.6142 32.077 33.2506C32.3335 33.8439 31.8866 35.5627 31.7334 36.0128C31.2684 37.3791 32.7485 37.3336 32.8264 38.3167C32.9434 39.796 33.0185 41 33.4587 41C34.1547 41 34.6307 37.9473 33.6226 37.3879C33.1825 37.1436 32.445 36.055 32.6239 35.4793C33.6389 32.2134 32.6101 33.7249 32.077 31.3588C31.9309 30.7106 31.2569 30.1908 30.6014 29.9243" stroke="#303030" stroke-width="0.4"/>
<path d="M9.59622 31.8522C9.4085 31.9864 9.20136 32.0954 8.99291 32.2134C8.38716 32.5952 7.79244 32.6142 7.51731 33.2506C7.2608 33.8439 7.70766 35.5627 7.86088 36.0128C8.32591 37.3791 6.84578 37.3336 6.76795 38.3167C6.65086 39.796 6.57577 41 6.13565 41C5.43962 41 4.96359 37.9473 5.97172 37.3879C6.41184 37.1436 7.14934 36.055 6.97044 35.4793C5.95545 32.2134 6.98416 33.7249 7.51731 31.3588C7.66338 30.7106 8.33745 30.1908 8.99291 29.9243" stroke="#303030" stroke-width="0.4"/>
<path d="M31.0307 19.8709C31.3215 19.9796 31.6368 20.1791 31.9075 20.4717C33.304 21.9811 33.7698 20.2771 34.4035 23.1075C34.5152 23.6064 35.7367 24.7211 36.1707 24.7326C36.9176 24.7524 37.5196 26.0421 38.3241 26.7838C39.0827 27.4832 37.3462 27.8452 36.4887 26.0148C36.1343 25.2582 34.2408 25.5125 34.0056 24.3112C33.9281 23.9154 33.7164 22.681 33.2755 22.3549C32.8025 22.0051 32.2629 22.0964 31.6535 22.0745C31.5455 22.0706 31.4436 22.0563 31.3472 22.0309" stroke="#303030" stroke-width="0.4"/>
<path d="M8.24204 22.0322C8.14717 22.0567 8.04689 22.0706 7.94079 22.0744C7.3313 22.0963 6.79176 22.0051 6.31878 22.3548C5.87781 22.681 5.66618 23.9153 5.58868 24.3111C5.35346 25.5124 3.45996 25.2582 3.10553 26.0148C2.24806 27.8451 0.511503 27.4832 1.27014 26.7838C2.07465 26.0421 2.6766 24.7524 3.42353 24.7326C3.85751 24.7211 5.07903 23.6063 5.19073 23.1074C5.82444 20.277 6.29022 21.981 7.68676 20.4716C7.96153 20.1746 8.28233 19.9736 8.57673 19.8659" stroke="#303030" stroke-width="0.4"/>
<path d="M21.5059 6.54908C21.5059 6.54908 21.436 4.82242 23.0162 4.19522C24.5964 3.56802 25.9006 2.85814 25.9006 1" stroke="#303030" stroke-width="0.4"/>
<path d="M18.0883 6.54908C18.0883 6.54908 18.1582 4.82242 16.578 4.19522C14.9977 3.56802 13.6935 2.85814 13.6935 1" stroke="#303030" stroke-width="0.4"/>
<path d="M18.9248 14.6313C19.2098 14.6296 19.501 14.6276 19.7972 14.6276C20.0934 14.6276 20.3847 14.6296 20.6697 14.6313M25.6243 13.2637C25.8194 12.8896 25.9248 12.4142 25.9248 11.8103C25.9248 8.72966 23.1814 6.2323 19.7972 6.2323C16.4131 6.2323 13.6697 8.72966 13.6697 11.8103C13.6697 12.4142 13.7751 12.8896 13.9701 13.2637" stroke="#303030" stroke-width="0.4"/>
<path d="M22.8628 12.8373C25.2939 12.8373 27.4302 13.6733 28.9615 15.4525C30.4957 17.2353 31.4438 19.9893 31.4439 23.8617C31.4439 27.7383 30.5775 31.2495 28.9361 33.7845C27.2987 36.3132 24.8923 37.8704 21.7827 37.8705C21.5284 37.8705 21.3226 37.7928 21.1499 37.6459C20.9732 37.4954 20.8198 37.2628 20.6919 36.9398C20.4347 36.2898 20.3 35.3266 20.2398 34.0941C20.1193 31.6276 20.2993 28.2033 20.2993 24.2826C20.2993 20.3651 20.2158 17.4791 20.5161 15.5638C20.6661 14.6078 20.9079 13.9275 21.2769 13.4877C21.636 13.0598 22.1349 12.8373 22.8628 12.8373Z" stroke="#303030" stroke-width="0.4"/>
<path d="M16.8003 12.8373C14.3493 12.8373 12.1962 13.6741 10.6528 15.4535C9.10657 17.2362 8.15089 19.9896 8.15085 23.8617C8.15085 27.7393 8.99569 31.2571 10.6216 33.7982C12.243 36.3324 14.6394 37.8959 17.7739 37.8959C18.0307 37.8958 18.2405 37.8169 18.4184 37.6683C18.6002 37.5164 18.759 37.2825 18.893 36.9584C19.1628 36.3059 19.3121 35.3392 19.3872 34.1039C19.5373 31.6339 19.3862 28.2002 19.3862 24.2826C19.3862 20.3648 19.4692 17.4789 19.1665 15.5638C19.0154 14.6079 18.7728 13.9274 18.4008 13.4877C18.0387 13.0596 17.5348 12.8373 16.8003 12.8373Z" stroke="#303030" stroke-width="0.4"/>
<path d="M27.7314 26.6151C28.7239 26.6151 29.5273 27.4166 29.5273 28.4031C29.527 29.3895 28.7238 30.1902 27.7314 30.1902C26.7389 30.1902 25.9357 29.3895 25.9355 28.4031C25.9355 27.4165 26.7387 26.6151 27.7314 26.6151Z" stroke="#303030" stroke-width="0.4"/>
<path d="M11.863 26.6151C10.8705 26.6151 10.0671 27.4166 10.0671 28.4031C10.0674 29.3895 10.8706 30.1902 11.863 30.1902C12.8555 30.1902 13.6587 29.3895 13.6589 28.4031C13.6589 27.4165 12.8557 26.6151 11.863 26.6151Z" stroke="#303030" stroke-width="0.4"/>
<path d="M22.7701 20.9765C22.0614 21.8321 22.1779 23.0969 23.0284 23.8014C23.879 24.506 25.1433 24.3849 25.8521 23.5293C26.5606 22.6738 26.4436 21.4097 25.5931 20.7052C24.7426 20.0007 23.4788 20.1211 22.7701 20.9765Z" stroke="#303030" stroke-width="0.4"/>
<path d="M16.8243 20.9765C17.533 21.8321 17.4165 23.0969 16.566 23.8014C15.7154 24.506 14.4511 24.3849 13.7424 23.5293C13.0339 22.6738 13.1508 21.4097 14.0013 20.7052C14.8518 20.0007 16.1156 20.1211 16.8243 20.9765Z" stroke="#303030" stroke-width="0.4"/>
<path d="M23.9857 31.1947C24.7225 31.5127 25.0607 32.344 24.7582 33.0448C24.4557 33.7455 23.6189 34.0698 22.8821 33.7519C22.1453 33.4339 21.8073 32.6026 22.1096 31.9018C22.4121 31.2009 23.2488 30.8767 23.9857 31.1947Z" stroke="#303030" stroke-width="0.4"/>
<path d="M15.6087 31.1947C14.8719 31.5127 14.5338 32.344 14.8362 33.0448C15.1387 33.7455 15.9755 34.0698 16.7123 33.7519C17.4491 33.4339 17.7872 32.6026 17.4849 31.9018C17.1824 31.2009 16.3456 30.8767 15.6087 31.1947Z" stroke="#303030" stroke-width="0.4"/>
<path d="M27.7247 15.9706C28.4615 16.2886 28.7996 17.1199 28.4972 17.8207C28.1947 18.5214 27.3579 18.8457 26.6211 18.5278C25.8843 18.2098 25.5462 17.3785 25.8485 16.6776C26.151 15.9768 26.9878 15.6526 27.7247 15.9706Z" stroke="#303030" stroke-width="0.4"/>
<path d="M11.8697 15.9706C11.1329 16.2886 10.7948 17.1199 11.0972 17.8207C11.3997 18.5214 12.2365 18.8457 12.9733 18.5278C13.7101 18.2098 14.0482 17.3785 13.7458 16.6776C13.4434 15.9768 12.6066 15.6526 11.8697 15.9706Z" stroke="#303030" stroke-width="0.4"/>
<circle cx="17.2802" cy="8.4691" r="0.884942" stroke="#303030" stroke-width="0.4"/>
<circle cx="22.3142" cy="8.4691" r="0.884942" stroke="#303030" stroke-width="0.4"/>
</svg>
