<svg width="42" height="40" viewBox="0 0 42 40" fill="none" xmlns="http://www.w3.org/2000/svg">
<g clip-path="url(#clip0_5_720)">
<path d="M35.7026 17.9433C35.7026 16.5033 35.8834 12.8977 35.8834 10.8225C35.8834 8.74725 33.9921 6.58643 30.9265 6.58643C30.3273 6.58643 29.5641 6.59683 28.6945 6.61523C28.6881 6.61523 28.6841 6.61363 28.6801 6.60883C28.6761 6.60483 28.6737 6.60083 28.6737 6.59683C28.6553 6.40083 28.5569 5.38723 28.3161 3.61522C28.0457 1.6304 26.6457 1 24.8001 1C22.9545 1 18.0929 1.4952 16.648 1.5856C15.2032 1.6752 11.688 1.5408 10.9672 1.6304C10.2472 1.7208 9.70881 2.17521 9.392 3.16561V3.16721C9.1336 4.21682 8.9336 5.28083 8.7944 6.35523C8.792 6.35923 8.7904 6.36563 8.7864 6.36803C8.784 6.37203 8.7776 6.37363 8.7736 6.37363C8.432 6.35123 8.1008 6.33283 7.7728 6.31683C6.38559 6.27363 5.03358 6.76484 3.99597 7.68564C2.95597 8.60645 2.30956 9.88965 2.18716 11.2729C2.10316 12.3057 2.03516 13.6713 1.96796 15.2201C1.94956 15.6049 1.93276 15.9793 1.91676 16.3881C1.84476 18.0625 1.77516 19.9465 1.67116 21.8809C1.57276 23.6977 1.44396 25.5577 1.28236 27.4058C1.22316 28.069 1.18796 28.6746 1.14716 29.2538C0.811954 34.101 1.07996 36.117 1.64236 37.4082C2.27276 38.8522 4.09837 38.9386 4.70798 38.9386H31.0169C33.4521 38.9386 36.0634 39.4786 36.0634 37.0474C36.0634 34.617 35.7026 19.3841 35.7026 17.9433ZM11.6752 6.56643C11.6712 6.56403 11.6648 6.56243 11.6632 6.55763C11.6592 6.55603 11.6568 6.54963 11.6568 6.54563C11.6424 6.13443 11.5648 4.03682 11.5648 3.75042V3.74882C11.5768 3.58642 11.6464 3.43521 11.7616 3.32081C11.8736 3.20401 12.0256 3.13441 12.1872 3.12001H16.8728C18.5841 3.12001 21.6489 2.71521 23.1793 2.62481C24.7105 2.53521 24.9801 2.58001 25.1601 3.61522C25.3225 4.54482 25.4473 6.81729 25.4697 7.16289C24.3398 7.3573 12.9792 6.64403 11.6752 6.56643Z" fill="#BED5E8" stroke="#303030" stroke-width="0.4"/>
<path d="M31.7727 26.6082C30.6375 27.2987 29.3703 28.051 28.1739 28.633H28.1711C27.1269 29.0507 26.2386 28.5281 25.2418 28.2673C24.2449 28.0055 22.9436 28.0584 22.421 28.9977C21.8994 29.938 22.1082 30.8977 21.7945 31.6143C21.4808 32.3317 20.6454 32.8153 21.168 33.6516C21.6896 34.487 22.3171 34.2781 22.4739 34.2261C22.6299 34.1742 23.779 32.1368 23.9358 32.0848C24.0927 32.0319 24.3015 32.3457 24.5104 32.7615V32.7633C24.6746 33.2005 24.8835 33.6182 25.135 34.0127C25.1369 34.0145 25.1397 34.0173 25.1424 34.0192C25.2984 34.112 25.5601 33.7509 25.5081 33.3379C25.4794 33.143 25.5081 32.9462 25.5935 32.768C25.6761 32.5926 25.8135 32.445 25.9824 32.3457H25.9852C26.298 32.1888 28.0745 32.2937 28.5962 32.5025C29.1187 32.7114 28.805 33.5996 28.7011 34.0693C28.5962 34.5389 28.2834 35.3205 28.3855 35.688V35.6908C28.4022 35.7808 28.4421 35.8662 28.5015 35.9377C28.5609 36.011 28.637 36.0658 28.7224 36.102H28.7345C28.7363 36.102 28.741 36.102 28.7437 36.0992C28.7456 36.0964 28.7512 36.0946 28.7512 36.0918C28.753 36.0899 28.7558 36.0853 28.7558 36.0825L28.8004 35.7641C28.8004 35.7623 28.8004 35.7576 28.8032 35.7548C28.805 35.753 28.8078 35.7502 28.8097 35.7502C28.8124 35.7474 28.8152 35.7474 28.8171 35.7456C28.8199 35.7456 28.8245 35.7456 28.8264 35.7474L29.1475 35.8384C29.1521 35.8402 29.1586 35.8402 29.1661 35.8384C29.1707 35.8337 29.1754 35.8282 29.1781 35.8235L29.3183 35.4485C29.3201 35.4439 29.3257 35.4365 29.3304 35.4346C29.3369 35.43 29.3415 35.4272 29.3489 35.4272H29.8047C29.8074 35.4272 29.8121 35.4272 29.8167 35.4253C29.8195 35.4226 29.8241 35.4179 29.8241 35.4151C29.826 35.4105 29.8288 35.4058 29.8288 35.404C29.826 35.3984 29.826 35.3938 29.8241 35.3919C29.6766 35.1664 29.5791 34.9121 29.5364 34.6485C29.5346 34.6466 29.5346 34.641 29.5364 34.6392C29.6506 34.0814 29.8074 33.53 30.0024 32.9935C30.0042 32.9889 30.0089 32.9842 30.0135 32.9824C30.0181 32.9796 30.0256 32.9768 30.033 32.9796L31.6712 33.6057M23.8838 30.3612C23.8838 30.4299 23.8578 30.4958 23.8077 30.5459C23.7576 30.5933 23.6936 30.622 23.623 30.622H23.6175C23.5655 30.622 23.5153 30.6053 23.4708 30.5766C23.4281 30.5487 23.3947 30.5079 23.3733 30.4587C23.3548 30.4104 23.3473 30.3584 23.3566 30.3065C23.3687 30.2545 23.3919 30.2062 23.4281 30.1691C23.4662 30.1329 23.5135 30.1069 23.5636 30.0948C23.6156 30.0856 23.6676 30.0902 23.7177 30.1097C23.765 30.1283 23.8077 30.1617 23.8365 30.2044C23.8671 30.2471 23.8838 30.299 23.8838 30.351V30.3612Z" fill="#76C69D"/>
<path d="M31.7727 26.6082C30.6375 27.2987 29.3703 28.051 28.1739 28.633H28.1711C27.1269 29.0507 26.2386 28.5281 25.2418 28.2673C24.2449 28.0055 22.9436 28.0584 22.421 28.9977C21.8994 29.938 22.1082 30.8977 21.7945 31.6143C21.4808 32.3317 20.6454 32.8153 21.168 33.6516C21.6896 34.487 22.3171 34.2781 22.4739 34.2261C22.6299 34.1742 23.779 32.1368 23.9358 32.0848C24.0927 32.0319 24.3015 32.3457 24.5104 32.7615V32.7633C24.6746 33.2005 24.8835 33.6182 25.135 34.0127C25.1369 34.0145 25.1397 34.0173 25.1424 34.0192C25.2984 34.112 25.5601 33.7509 25.5081 33.3379C25.4794 33.143 25.5081 32.9462 25.5935 32.768C25.6761 32.5926 25.8135 32.445 25.9824 32.3457H25.9852C26.298 32.1888 28.0745 32.2937 28.5962 32.5025C29.1187 32.7114 28.805 33.5996 28.7011 34.0693C28.5962 34.5389 28.2834 35.3205 28.3855 35.688V35.6908C28.4022 35.7808 28.4421 35.8662 28.5015 35.9377C28.5609 36.011 28.637 36.0658 28.7224 36.102H28.7345C28.7363 36.102 28.741 36.102 28.7437 36.0992C28.7456 36.0964 28.7512 36.0946 28.7512 36.0918C28.753 36.0899 28.7558 36.0853 28.7558 36.0825L28.8004 35.7641C28.8004 35.7623 28.8004 35.7576 28.8032 35.7548C28.805 35.753 28.8078 35.7502 28.8097 35.7502C28.8124 35.7474 28.8152 35.7474 28.8171 35.7456C28.8199 35.7456 28.8245 35.7456 28.8264 35.7474L29.1475 35.8384C29.1521 35.8402 29.1586 35.8402 29.1661 35.8384C29.1707 35.8337 29.1754 35.8282 29.1781 35.8235L29.3183 35.4485C29.3201 35.4439 29.3257 35.4365 29.3304 35.4346C29.3369 35.43 29.3415 35.4272 29.3489 35.4272H29.8047C29.8074 35.4272 29.8121 35.4272 29.8167 35.4253C29.8195 35.4226 29.8241 35.4179 29.8241 35.4151C29.826 35.4105 29.8288 35.4058 29.8288 35.404C29.826 35.3984 29.826 35.3938 29.8241 35.3919C29.6766 35.1664 29.5791 34.9121 29.5364 34.6485C29.5346 34.6466 29.5346 34.641 29.5364 34.6392C29.6506 34.0814 29.8074 33.53 30.0024 32.9935C30.0042 32.9889 30.0089 32.9842 30.0135 32.9824C30.0181 32.9796 30.0256 32.9768 30.033 32.9796L31.6712 33.6057M23.8838 30.3612C23.8838 30.4299 23.8578 30.4958 23.8077 30.5459C23.7576 30.5933 23.6936 30.622 23.623 30.622H23.6175C23.5655 30.622 23.5153 30.6053 23.4708 30.5766C23.4281 30.5487 23.3947 30.5079 23.3733 30.4587C23.3548 30.4104 23.3473 30.3584 23.3566 30.3065C23.3687 30.2545 23.3919 30.2062 23.4281 30.1691C23.4662 30.1329 23.5135 30.1069 23.5636 30.0948C23.6156 30.0856 23.6676 30.0902 23.7177 30.1097C23.765 30.1283 23.8077 30.1617 23.8365 30.2044C23.8671 30.2471 23.8838 30.299 23.8838 30.351V30.3612Z" stroke="#303030" stroke-width="0.4"/>
<path d="M15.5567 10.5072V10.509C15.5307 10.7773 15.0824 10.8181 15.0824 10.5044C15.0824 10.4404 15.1084 10.381 15.1539 10.3355C15.1966 10.2909 15.2578 10.2668 15.32 10.2668C15.384 10.2668 15.4435 10.2909 15.488 10.3355C15.5335 10.381 15.5567 10.4404 15.5567 10.5044V10.5072ZM28.4089 7.19908C27.0009 7.10627 23.5039 7.16284 20.3584 7.07617C20.0493 7.31193 19.9683 7.3941 19.6833 7.66048C19.0039 8.287 18.5343 8.23502 17.4891 8.287C16.4449 8.33898 15.4527 8.44386 14.9302 9.17526C14.4076 9.90573 14.5125 10.3763 14.3556 11.1077C14.1988 11.8382 13.6196 12.7311 14.0373 13.0448C14.4559 13.3585 14.8782 13.2537 15.3478 12.7311C15.7089 12.228 16.1312 11.7695 16.6018 11.3685C16.9768 11.1504 17.4084 11.053 17.8381 11.0882C18.2827 11.0882 18.7737 11.1356 19.2657 11.1597C19.8328 11.195 20.3999 11.1783 20.9633 11.1124H20.9744C20.9772 11.1142 20.9819 11.1142 20.9846 11.117C20.9865 11.1216 20.9893 11.1244 20.9893 11.1263C20.9911 11.1309 20.9911 11.1337 20.9893 11.1383C20.9698 11.2924 20.877 12.0266 20.7851 12.6791C20.6802 13.4152 20.9419 13.4625 21.2594 13.5674C21.5183 13.6528 21.4617 13.2871 21.4302 13.1469C21.4302 13.1423 21.4302 13.1376 21.4329 13.1348C21.4329 13.1302 21.4376 13.1256 21.4404 13.1228C21.4422 13.1209 21.4469 13.1181 21.4515 13.1181C21.4571 13.1181 21.4617 13.1181 21.4636 13.1209C21.5592 13.1701 21.768 13.2629 21.8915 13.1441C22.0149 13.0253 21.8321 12.7264 21.7365 12.5863C21.7346 12.5817 21.7318 12.577 21.7346 12.5724C21.7346 12.5677 21.7346 12.5631 21.7392 12.5585C21.742 12.5529 21.7467 12.551 21.7513 12.551C21.756 12.5482 21.7606 12.5482 21.7652 12.551C21.8794 12.5984 22.0808 12.6457 22.1569 12.461C22.2665 12.1946 21.794 12.1992 21.7912 11.8883V11.8837C21.8553 11.4781 21.9602 11.0789 22.1003 10.6947C22.1049 10.6873 22.1096 10.6826 22.1142 10.6798C23.0665 10.3308 24.0402 10.0533 25.0296 9.84911C25.0584 9.84633 25.0844 9.84447 25.1104 9.84447C25.9179 9.84447 25.8659 11.3184 27.3324 11.5727C28.8472 11.8335 29.777 10.5744 29.9963 10.2148C30.3377 9.65504 30.9325 9.91942 31.3069 10.6873C31.3069 10.6885 31.3078 10.69 31.3096 10.6919C31.5666 11.1698 31.7871 11.9684 31.754 11.7937L31.7866 10.4376C31.7263 8.45011 30.8064 7.36523 28.4089 7.19908Z" fill="#76C69D" stroke="#303030" stroke-width="0.4"/>
<path d="M2.11279 15.2178L31.8026 15.2386" stroke="#303030" stroke-width="0.4" stroke-linecap="round" stroke-linejoin="round"/>
<path d="M20.1994 7.07373C20.1994 7.07373 27.4153 7.13278 28.6289 7.21278C30.6953 7.35598 31.7865 8.47119 31.7865 10.4376V10.72C31.7865 11.856 31.7865 13.5992 31.8025 15.2384C31.8065 15.6232 31.8105 15.9992 31.8169 16.364C31.8273 16.9384 31.8393 17.4768 31.8561 17.9392C31.8985 19.1873 31.8129 24.2641 31.7433 28.3425V28.3553L31.7289 29.1121C31.6881 31.4425 31.6529 33.4561 31.6513 34.2425V34.5633C31.6577 35.6481 31.6617 36.6714 30.9497 37.385C30.3065 38.0322 29.1281 38.345 27.3457 38.345H2.43835" stroke="#303030" stroke-width="0.4" stroke-linecap="round" stroke-linejoin="round"/>
<path d="M35.453 16.9192H37.5818C37.6698 16.9192 37.753 16.9544 37.817 17.016C37.8778 17.0792 37.913 17.1632 37.913 17.2512V19.6448H35.1178V17.2512C35.1178 17.1632 35.1522 17.0792 35.2162 17.016C35.277 16.9544 35.361 16.9192 35.449 16.9192H35.453Z" fill="white" stroke="#303030" stroke-width="0.4"/>
<path d="M34.7946 18.8345H38.4122C38.5778 18.8345 38.7354 18.9001 38.8522 19.0169C38.969 19.1337 39.0346 19.2913 39.0346 19.4569V21.2001H34.1722V19.4569C34.1722 19.2913 34.2378 19.1337 34.3546 19.0169C34.4714 18.9001 34.6306 18.8345 34.7946 18.8345Z" fill="#7F99AE" stroke="#303030" stroke-width="0.4"/>
<path d="M34.2914 20.6602H39.0466C39.3498 20.6602 39.6402 20.781 39.8546 20.9938C40.0698 21.209 40.1882 21.4994 40.1882 21.8018V23.0706L33.1514 23.065L33.145 21.7938C33.1474 21.4914 33.2698 21.2026 33.485 20.9898C33.6994 20.777 33.9906 20.6586 34.2914 20.6602Z" fill="#2F4960" stroke="#303030" stroke-width="0.4"/>
<path d="M32.6865 25.3105C32.6865 25.3105 32.5513 33.8226 32.6169 35.7834C32.6825 37.7434 34.3769 38.4882 36.6073 38.4882C38.8378 38.4882 41.0642 38.0138 40.9986 35.513C40.933 33.0122 40.8634 25.4449 40.8634 25.4449C40.8634 25.4449 41.3386 23.0105 40.1882 23.0105H32.8873C32.2121 23.0105 32.6865 25.3105 32.6865 25.3105Z" fill="#BED5E8" stroke="#303030" stroke-width="0.4"/>
<path d="M1.08978 31.1702C3.46707 30.8086 3.32675 30.605 3.83612 31.5062C4.34994 32.4152 4.56415 33.6064 4.90663 33.809C5.24911 34.0116 6.15145 33.5493 6.14695 33.18C6.14246 32.8106 5.29704 30.8 5.2342 30.4764C5.17055 30.1518 5.57358 29.8878 5.77836 30.3365C5.98419 30.7843 6.64918 32.5553 6.92363 32.8783C7.19808 33.2012 8.41972 32.7523 8.21401 32.3035C8.0091 31.8557 7.28036 30.1289 7.21003 29.8558C7.14049 29.5838 8.70991 28.8927 8.89146 29.1165C9.07288 29.3413 9.86524 31.3497 10.032 31.6877C10.1987 32.0256 11.419 31.5513 11.2589 31.1617C10.8838 30.3812 10.5475 29.5831 10.2537 28.7672C10.1967 28.3911 10.9691 28.1225 11.1224 28.5636C11.2758 29.0047 11.9429 30.3557 12.1554 30.752C12.367 31.1483 13.6912 30.6874 13.4921 30.1879C13.294 29.6877 12.7232 28.4025 12.4927 27.7409C12.2631 27.0793 12.8962 26.2611 13.698 25.8382C14.8772 25.161 15.7796 24.0922 16.2538 22.8181C16.7671 21.3001 16.8926 20.7371 18.1876 20.9051C19.4818 21.073 20.1438 19.1812 18.4903 18.4931C16.8422 17.8001 15.5646 18.9035 14.8038 20.4895C14.042 22.0763 14.147 23.5172 11.6946 22.9351C9.24196 22.3538 8.36997 22.1349 7.1699 22.4538C4.00608 23.2928 3.57863 25.7794 2.40354 27.8966C2.08967 28.4621 1.40394 29.3188 1.20028 29.4494L1.08978 31.1702ZM17.4671 19.8869C17.4064 19.879 17.3498 19.853 17.3017 19.813C17.2547 19.7713 17.2212 19.7193 17.2049 19.6573C17.1884 19.5971 17.1916 19.5357 17.2116 19.4756C17.2312 19.4183 17.267 19.3658 17.3167 19.3292C17.3649 19.2896 17.4255 19.2694 17.4882 19.2625C17.5485 19.2591 17.6112 19.2738 17.6643 19.305C17.7183 19.3355 17.7628 19.3824 17.7883 19.4381C17.8178 19.4925 17.8265 19.5554 17.8185 19.6171C17.8078 19.699 17.7643 19.7748 17.6998 19.8244C17.6342 19.8758 17.5499 19.8976 17.4671 19.8869Z" fill="#76C69D" stroke="#303030" stroke-width="0.4"/>
</g>
<defs>
<clipPath id="clip0_5_720">
<rect width="42" height="39.9897" fill="white"/>
</clipPath>
</defs>
</svg>
