<svg width="42" height="42" viewBox="0 0 42 42" fill="none" xmlns="http://www.w3.org/2000/svg">
<mask id="path-1-inside-1_1447_17" fill="white">
<path d="M25 17H41V25H25V41H17V25H1V17H17V1H25V17Z"/>
</mask>
<path d="M25 17H41V25H25V41H17V25H1V17H17V1H25V17Z" fill="#BED5E8"/>
<path d="M25 17H24.6V17.4H25V17ZM41 17H41.4V16.6H41V17ZM41 25V25.4H41.4V25H41ZM25 25V24.6H24.6V25H25ZM25 41V41.4H25.4V41H25ZM17 41H16.6V41.4H17V41ZM17 25H17.4V24.6H17V25ZM1 25H0.6V25.4H1V25ZM1 17V16.6H0.6V17H1ZM17 17V17.4H17.4V17H17ZM17 1V0.6H16.6V1H17ZM25 1H25.4V0.6H25V1ZM25 17V17.4H41V17V16.6H25V17ZM41 17H40.6V25H41H41.4V17H41ZM41 25V24.6H25V25V25.4H41V25ZM25 25H24.6V41H25H25.4V25H25ZM25 41V40.6H17V41V41.4H25V41ZM17 41H17.4V25H17H16.6V41H17ZM17 25V24.6H1V25V25.4H17V25ZM1 25H1.4V17H1H0.6V25H1ZM1 17V17.4H17V17V16.6H1V17ZM17 17H17.4V1H17H16.6V17H17ZM17 1V1.4H25V1V0.6H17V1ZM25 1H24.6V17H25H25.4V1H25Z" fill="#303030" mask="url(#path-1-inside-1_1447_17)"/>
</svg>
