<svg width="42" height="27" viewBox="0 0 42 27" fill="none" xmlns="http://www.w3.org/2000/svg">
<path d="M34.0064 1H7.93679C7.26411 1 6.7188 1.54533 6.7188 2.21802V18.5555C6.7188 19.2282 7.26411 19.7735 7.93679 19.7735H34.0064C34.679 19.7735 35.2244 19.2282 35.2244 18.5555V2.21802C35.2244 1.54533 34.679 1 34.0064 1Z" fill="#BED5E8" stroke="#303030" stroke-width="0.400004" stroke-miterlimit="10"/>
<path d="M33.4062 1.60889H8.53685C7.86416 1.60889 7.31885 2.15421 7.31885 2.82691V17.0491C7.31885 17.7218 7.86416 18.2671 8.53685 18.2671H33.4062C34.0789 18.2671 34.6242 17.7218 34.6242 17.0491V2.82691C34.6242 2.15421 34.0789 1.60889 33.4062 1.60889Z" fill="#7F99AE" stroke="#303030" stroke-width="0.200002" stroke-miterlimit="10"/>
<path d="M40.9995 24.8951L41 25.333C41.0005 25.4948 40.8697 25.6264 40.7078 25.6269L1.29442 25.7011C1.13254 25.7016 1.00097 25.5708 1.00048 25.4089L1 24.971C0.999661 24.879 1.04296 24.7927 1.11601 24.737L6.27843 20.8322C6.28786 20.825 6.29714 20.8188 6.30643 20.8127C6.59472 20.6345 6.92686 20.5395 7.26544 20.5384L34.7209 20.4865C35.0562 20.486 35.3854 20.5788 35.6718 20.7536C35.6816 20.7592 35.6903 20.7656 35.7 20.7722L40.8829 24.6605C40.9569 24.7159 41.0004 24.8021 40.9997 24.894L40.9995 24.8951Z" fill="#BED5E8" stroke="#303030" stroke-width="0.400004" stroke-miterlimit="10"/>
<path d="M2.1196 24.8711L39.8773 24.8711" stroke="#303030" stroke-width="0.200002"/>
<rect x="26.5617" y="6.49771" width="1.46784" height="8.13942" transform="rotate(90 26.5617 6.49771)" fill="#9BD8B9" stroke="#303030" stroke-width="0.2"/>
<path d="M22.4915 3.16077C23.0118 3.16077 23.4336 3.58287 23.4339 4.10315C23.4339 4.62362 23.012 5.04553 22.4915 5.04553C21.9712 5.0453 21.5491 4.62347 21.5491 4.10315C21.5493 3.58301 21.9713 3.161 22.4915 3.16077Z" fill="#9BD8B9" stroke="#303030" stroke-width="0.2"/>
<path d="M22.4918 9.41528C23.0121 9.41528 23.434 9.83738 23.4342 10.3577C23.4342 10.8781 23.0123 11.3 22.4918 11.3C21.9715 11.2998 21.5494 10.878 21.5494 10.3577C21.5496 9.83753 21.9716 9.41552 22.4918 9.41528Z" fill="#9BD8B9" stroke="#303030" stroke-width="0.2"/>
<mask id="path-8-inside-1_3827_65" fill="white">
<path d="M14.0882 11.5671H16.8949V12.9705H14.0882V15.7751H12.6849V12.9705H9.87924V11.5671H12.6849V8.7605H14.0882V11.5671Z"/>
</mask>
<path d="M14.0882 11.5671H16.8949V12.9705H14.0882V15.7751H12.6849V12.9705H9.87924V11.5671H12.6849V8.7605H14.0882V11.5671Z" fill="#E5CEAE"/>
<path d="M14.0882 11.5671H13.8882V11.7671H14.0882V11.5671ZM16.8949 11.5671H17.0949V11.3671H16.8949V11.5671ZM16.8949 12.9705V13.1705H17.0949V12.9705H16.8949ZM14.0882 12.9705V12.7705H13.8882V12.9705H14.0882ZM14.0882 15.7751V15.9751H14.2882V15.7751H14.0882ZM12.6849 15.7751H12.4849V15.9751H12.6849V15.7751ZM12.6849 12.9705H12.8849V12.7705H12.6849V12.9705ZM9.87924 12.9705H9.67924V13.1705H9.87924V12.9705ZM9.87924 11.5671V11.3671H9.67924V11.5671H9.87924ZM12.6849 11.5671V11.7671H12.8849V11.5671H12.6849ZM12.6849 8.7605V8.5605H12.4849V8.7605H12.6849ZM14.0882 8.7605H14.2882V8.5605H14.0882V8.7605ZM14.0882 11.5671V11.7671H16.8949V11.5671V11.3671H14.0882V11.5671ZM16.8949 11.5671H16.6949V12.9705H16.8949H17.0949V11.5671H16.8949ZM16.8949 12.9705V12.7705H14.0882V12.9705V13.1705H16.8949V12.9705ZM14.0882 12.9705H13.8882V15.7751H14.0882H14.2882V12.9705H14.0882ZM14.0882 15.7751V15.5751H12.6849V15.7751V15.9751H14.0882V15.7751ZM12.6849 15.7751H12.8849V12.9705H12.6849H12.4849V15.7751H12.6849ZM12.6849 12.9705V12.7705H9.87924V12.9705V13.1705H12.6849V12.9705ZM9.87924 12.9705H10.0792V11.5671H9.87924H9.67924V12.9705H9.87924ZM9.87924 11.5671V11.7671H12.6849V11.5671V11.3671H9.87924V11.5671ZM12.6849 11.5671H12.8849V8.7605H12.6849H12.4849V11.5671H12.6849ZM12.6849 8.7605V8.9605H14.0882V8.7605V8.5605H12.6849V8.7605ZM14.0882 8.7605H13.8882V11.5671H14.0882H14.2882V8.7605H14.0882Z" fill="#303030" mask="url(#path-8-inside-1_3827_65)"/>
<rect x="32.3994" y="12.9168" width="0.866949" height="5.15481" transform="rotate(90 32.3994 12.9168)" fill="#BED5E8" stroke="#303030" stroke-width="0.2"/>
<rect x="32.3995" y="15.317" width="0.866949" height="5.15481" transform="rotate(90 32.3995 15.317)" fill="#BED5E8" stroke="#303030" stroke-width="0.2"/>
</svg>
