<svg width="33" height="42" viewBox="0 0 33 42" fill="none" xmlns="http://www.w3.org/2000/svg">
<path d="M5.30069 20.7283C3.74393 23.7936 1.20076 30.2408 1.0001 39.8984C0.995298 40.0528 1.1689 40.1464 1.2945 40.0576L5.32967 37.2425C5.40487 37.1913 5.50327 37.2001 5.56887 37.2609L9.27604 40.9456C9.39764 41.0624 9.59924 40.9784 9.59444 40.8104C9.53554 38.7281 9.51856 30.1355 12.9104 23.853" stroke="#303030" stroke-width="0.4"/>
<path d="M13.4886 23.8549C14.3215 25.9573 18.5922 35.6671 27.1616 37.6817C27.1895 37.6865 27.2176 37.6681 27.2224 37.6401L27.5776 33.4273C27.5776 33.4129 27.5871 33.3993 27.6007 33.3897L31.2343 31.5241C31.2711 31.5049 31.2711 31.4537 31.2343 31.4401C30.2965 31.0675 22.6491 27.8411 20.5324 21.3145" stroke="#303030" stroke-width="0.4"/>
<path d="M13.2513 1.00041C6.94003 0.947563 1.78092 6.021 1.72807 12.3322C1.67522 18.6435 6.74866 23.8026 13.0599 23.8555C13.1237 23.856 13.1875 23.856 13.2513 23.8555C19.5625 23.9083 24.7216 18.8349 24.7745 12.5236C24.8273 6.21237 19.7539 1.05326 13.4426 1.00041C13.3789 0.999876 13.3151 0.999876 13.2513 1.00041Z" stroke="#303030" stroke-width="0.4"/>
</svg>
