<svg width="33" height="42" viewBox="0 0 33 42" fill="none" xmlns="http://www.w3.org/2000/svg">
<path d="M6.39606 18.8106C5.66167 19.9138 1.2665 27.077 1.0001 39.8985C0.995298 40.0529 1.1689 40.1465 1.2945 40.0577L5.32967 37.2425C5.40487 37.1913 5.50327 37.2001 5.56887 37.2609L9.27604 40.9457C9.39764 41.0625 9.59924 40.9785 9.59444 40.8105C9.52884 38.4913 9.51524 28.097 14.2048 21.8122C14.2984 21.6858 14.2464 21.5082 14.1016 21.457L6.66726 18.717C6.56886 18.6842 6.45686 18.7218 6.39606 18.8106Z" fill="#76C69D" stroke="#303030" stroke-width="0.4"/>
<path d="M13.3912 23.6036C13.9152 24.9924 18.1744 35.5691 27.1616 37.6819C27.1895 37.6867 27.2176 37.6683 27.2224 37.6403L27.5775 33.4275C27.5775 33.4131 27.5871 33.3995 27.6007 33.3899L31.2343 31.5243C31.2711 31.5051 31.2711 31.4539 31.2343 31.4403C30.2335 31.0427 21.5928 27.3955 20.1848 19.9564C20.1616 19.83 20.0264 19.7644 19.9136 19.8252L13.4752 23.374C13.396 23.4212 13.3584 23.5196 13.3912 23.6036Z" fill="#76C69D" stroke="#303030" stroke-width="0.4"/>
<path d="M13.2512 1.00041C6.93991 0.947563 1.78079 6.021 1.72795 12.3322C1.6751 18.6435 6.74854 23.8026 13.0598 23.8554C13.1236 23.856 13.1874 23.856 13.2512 23.8554C19.5624 23.9083 24.7215 18.8349 24.7744 12.5236C24.8272 6.21237 19.7538 1.05326 13.4425 1.00041C13.3787 0.999876 13.3149 0.999876 13.2512 1.00041Z" fill="#E5CEAE" stroke="#303030" stroke-width="0.4"/>
</svg>
