<svg width="42" height="29" viewBox="0 0 42 29" fill="none" xmlns="http://www.w3.org/2000/svg">
<path d="M10.881 8.77161H4.67194V17.3257H10.881V8.77161Z" fill="#76C69D" stroke="#303030" stroke-width="0.4" stroke-miterlimit="10"/>
<path d="M7.00605 27.3428H10.0246V17.3257H5.52826L7.00605 27.3428Z" fill="#D3E6F6" stroke="#303030" stroke-width="0.4" stroke-miterlimit="10"/>
<path d="M32.0235 1H29.4701L10.881 8.77786V17.3195L29.4701 25.0974H32.0235C32.3245 25.0974 32.568 24.8539 32.568 24.5529V1.54445C32.568 1.24345 32.3245 1 32.0235 1Z" fill="#D3E6F6" stroke="#303030" stroke-width="0.4" stroke-miterlimit="10"/>
<path d="M35.0577 13.0486C35.0577 11.0209 33.9431 9.37671 32.5688 9.37671V16.7206C33.9431 16.7206 35.0577 15.0763 35.0577 13.0486Z" fill="#76C69D" stroke="#303030" stroke-width="0.4" stroke-miterlimit="10"/>
<path d="M1 13.0487C1 15.4108 2.64424 17.3257 4.67193 17.3257V8.77161C2.64424 8.77161 1 10.6865 1 13.0487Z" fill="#D3E6F6" stroke="#303030" stroke-width="0.4" stroke-miterlimit="10"/>
<path d="M38.1556 13.0487H41" stroke="#303030" stroke-width="0.4" stroke-miterlimit="10"/>
<path d="M37.4634 8.87975L40.1366 7.90674" stroke="#303030" stroke-width="0.4" stroke-miterlimit="10"/>
<path d="M35.4606 4.74341L37.4719 2.73206" stroke="#303030" stroke-width="0.4" stroke-miterlimit="10"/>
<path d="M35.4606 21.3539L37.4719 23.3652" stroke="#303030" stroke-width="0.4" stroke-miterlimit="10"/>
<path d="M37.4634 17.2175L40.1366 18.1905" stroke="#303030" stroke-width="0.4" stroke-miterlimit="10"/>
</svg>
