<svg width="42" height="40" viewBox="0 0 42 40" fill="none" xmlns="http://www.w3.org/2000/svg">
<path d="M24.314 14.6399C24.5614 14.3812 24.8764 12.7486 24.8764 12.3437M29.522 14.7537C29.4103 14.4431 29.2055 13.0746 29.1203 12.3437" stroke="#303030" stroke-width="0.395377"/>
<path d="M12.617 34.1173C11.0556 35.2109 10.1941 36.4642 9.33183 35.4677C7.82622 33.7278 8.83894 33.2644 9.76337 32.7631C9.27788 32.869 8.75106 31.3781 9.33183 31.5994C9.57562 31.6924 10.1396 32.221 10.8871 31.7736" stroke="#303030" stroke-width="0.395377"/>
<path d="M23.4455 9.64C23.6879 10.473 24.0309 11.4014 24.3905 11.9505C25.1499 13.1101 28.9034 13.1684 29.7008 11.9505C30.1017 11.3383 30.4114 10.3989 30.6436 9.40454" stroke="#303030" stroke-width="0.395377"/>
<path d="M28.4186 1.7821C23.3875 -0.160249 24.5252 2.12702 22.7062 2.12701C21.987 2.12701 20.9408 7.24122 20.1782 8.15637C19.7853 8.62781 22.0009 11.3296 22.8626 10.9933C24.0088 10.2755 23.2245 5.15344 24.9691 4.9332C25.7432 4.83547 26.686 4.40432 27.3928 3.72622" stroke="#303030" stroke-width="0.395377"/>
<path d="M31.3698 2.32036C32.1785 2.97822 33.839 8.2528 34.1015 8.56146C34.4932 9.02194 31.1872 11.673 30.8841 11.0372C30.4007 10.023 31.1041 4.64302 27.5957 3.86391C26.6422 3.65216 28.4456 2.20364 28.4456 1.78601C28.4456 1.17497 30.7637 1.8273 31.3698 2.32036Z" stroke="#303030" stroke-width="0.395377"/>
<path d="M22.5269 14.3733L24.0574 14.291C24.0574 14.291 24.9528 15.9577 26.9462 15.9024C28.9397 15.847 29.8355 14.291 29.8355 14.291L31.2815 14.3602" stroke="#303030" stroke-width="0.395377"/>
<path d="M38.9521 30.1696C38.9521 30.1696 39.0475 31.6857 39.0475 32.5164M37.6759 21.9651C37.0915 18.7673 36.4962 15.8778 36.3133 15.8156C35.4441 15.5206 32.6969 14.7533 31.2815 14.261C31.2815 14.261 29.3038 20.3558 26.9562 20.3382C24.6261 20.3209 22.548 14.261 22.548 14.261C20.2724 14.9589 18.0784 15.4038 17.2345 15.8156C16.8955 15.9811 15.9949 21.808 14.6737 25.5916C14.4373 26.2686 11.2866 30.7276 10.9096 31.1517C10.5326 31.5759 12.3851 34.3398 12.9892 34.3398C13.5933 34.3398 18.5969 28.1036 18.8425 27.2106C19.1702 26.0191 19.5976 23.3395 19.5976 21.6772L19.9206 30.6586L18.8425 37.785L25.0367 38.1542H27.7902L33.813 37.785L33.3026 33.8219M34.2183 23.0433L34.0115 21.6772L33.8368 23.0433" stroke="#303030" stroke-width="0.395377"/>
<path d="M38.6028 31.749L41 20.7663L34.6209 23.0313L26.3306 22.7194L24.2019 33.8903L32.4626 34.1922L33.9977 33.5814L34.7652 33.276" stroke="#303030" stroke-width="0.395377"/>
<path d="M36.2739 24.7461L39.0435 23.7298" stroke="#303030" stroke-width="0.395377"/>
<path d="M36.0452 25.9912L38.8403 24.924" stroke="#303030" stroke-width="0.395377"/>
<path d="M35.969 27.1854L38.6116 26.1945" stroke="#303030" stroke-width="0.395377"/>
<path d="M37.6183 31.5656C36.986 30.9664 36.1739 29.1211 35.9594 29.4216C35.7449 29.7221 35.7062 30.1353 35.9391 30.5743C35.2072 29.8192 33.5342 28.1146 32.8483 30.2516C32.542 31.2058 34.0355 32.649 35.2677 33.6224" stroke="#303030" stroke-width="0.395377"/>
<path d="M11.4537 37.4647C11.5027 37.5623 11.6215 37.6017 11.7191 37.5527C11.8167 37.5038 11.8561 37.385 11.8071 37.2874L11.6304 37.3761L11.4537 37.4647ZM10.6381 35.399L10.4614 35.4877L11.4537 37.4647L11.6304 37.3761L11.8071 37.2874L10.8148 35.3104L10.6381 35.399Z" fill="#303030"/>
<path d="M2.58294 18.6163C2.53469 18.5184 2.41618 18.4781 2.31824 18.5264C2.2203 18.5746 2.18002 18.6931 2.22827 18.7911L2.4056 18.7037L2.58294 18.6163ZM2.4056 18.7037L2.22827 18.7911L10.5479 35.6781L10.7252 35.5908L10.9026 35.5034L2.58294 18.6163L2.4056 18.7037Z" fill="#303030"/>
<path d="M34.903 33.9891C35.0041 34.3663 36.2528 34.9413 36.4827 34.9594C38.5984 35.1262 39.3697 32.8048 38.9303 31.9261L37.7097 31.4756L34.903 33.9891Z" stroke="#303030" stroke-width="0.395377"/>
</svg>
