<svg width="15" height="42" viewBox="0 0 15 42" fill="none" xmlns="http://www.w3.org/2000/svg">
<path d="M7.49041 23.7208L8.1851 38.468C8.21908 38.629 8.50543 38.8256 8.44359 38.9543C8.35056 39.1487 8.19346 39.8657 8.32103 39.9393C9.05304 40.3604 9.41626 40.8584 9.96722 40.9715C10.5182 41.0852 11.8713 40.8573 11.5978 40.3097C11.2368 39.5877 10.4224 39.2084 10.3822 38.8975C10.3332 38.5198 10.7756 38.3137 10.7494 37.9259C10.7132 37.3761 11.3176 24.4188 11.2201 21.8646C11.2118 21.6512 11.8981 21.903 11.8981 21.903C11.8981 21.903 11.8557 22.5353 11.8095 22.8111C11.7683 23.0579 12.2307 23.0523 12.5137 23.1787C12.7616 23.2891 12.4724 23.9893 12.8507 23.8985C13.7398 23.684 13.1666 21.4757 13.1666 21.4757C13.3783 21.3777 13.5476 21.2457 13.6445 21.2122C13.9855 21.0941 13.332 16.2163 12.9794 14.1339C12.7443 12.7456 12.2039 9.57693 11.3248 8.77361C10.8898 8.37585 9.26362 8.54632 8.3617 7.90121C8.11714 7.72629 8.44192 6.48064 8.44192 6.48064C8.69874 6.38204 9.04413 6.35641 9.11376 5.95976C9.16223 5.68234 9.13215 4.79378 9.46584 4.77039C9.85079 4.74309 10.0369 3.73866 9.64021 3.47516L9.95385 2.23954C8.89483 2.04289 9.26139 0.902535 7.3751 1.00671C7.3751 1.00671 7.37287 1.00671 7.37231 1.00671C5.46262 1.07078 5.12893 1.77605 5.10107 2.39051L5.10776 3.47516C4.71167 3.73866 4.89718 4.74365 5.28213 4.77039C5.61638 4.79378 5.58574 5.68234 5.6342 5.95976C5.70384 6.35641 6.04923 6.38259 6.30605 6.48064C6.48822 6.93634 6.62303 7.72573 6.37847 7.90121C5.47655 8.54632 3.85041 8.37585 3.41533 8.77361C2.5368 9.57693 1.99587 12.7456 1.76078 14.1339C1.40815 16.2163 0.754685 21.0941 1.09562 21.2122C1.19255 21.2457 1.36191 21.3777 1.5736 21.4757C1.5736 21.4757 0.999803 23.684 1.88947 23.8985C2.26717 23.9893 1.97805 23.2896 2.22651 23.1787C2.50951 23.0528 2.97189 23.0584 2.93066 22.8111C2.88498 22.5353 2.84209 21.903 2.84209 21.903C2.84209 21.903 3.52842 21.6512 3.52006 21.8646C3.42257 24.4188 4.02757 37.3761 3.9908 37.9259C3.96517 38.3137 4.40694 38.5192 4.35792 38.8975C4.31781 39.2084 3.50335 39.5883 3.14236 40.3097C2.86883 40.8568 4.22199 41.0846 4.77295 40.9715C5.32391 40.8579 5.68768 40.3599 6.41914 39.9393C6.54671 39.8657 6.38961 39.1493 6.29658 38.9543C6.2353 38.8256 6.52109 38.629 6.55507 38.468L7.24975 23.7208C7.25254 23.6573 7.30546 23.6071 7.36897 23.6071C7.43304 23.6071 7.4854 23.6573 7.48819 23.7208H7.49041Z" fill="#303030" stroke="#303030" stroke-width="0.4" stroke-miterlimit="10"/>
</svg>
