<svg width="29" height="42" viewBox="0 0 29 42" fill="none" xmlns="http://www.w3.org/2000/svg">
<path d="M7.34907 17.0207C8.10897 16.8195 8.52497 17.0848 8.93029 17.669C9.23412 18.1068 9.27752 19.0419 9.46516 19.4289C9.71623 19.9468 9.10524 20.7302 8.89557 21.2228C8.6859 21.7154 7.85255 21.9654 7.85255 21.9654C7.68962 22.2093 7.64822 22.7614 7.7377 22.9131C7.81115 23.0368 8.91494 23.2199 9.32761 23.4458C10.161 23.9017 11.2086 25.7745 11.5959 26.7336C12.054 27.8658 12.8413 29.8095 12.4126 29.8737C12.3198 29.8877 12.0774 29.9552 12.0774 29.9552C12.0774 29.9552 12.468 31.0901 12.0807 31.3294C11.8243 31.4878 11.7722 30.7573 11.5372 30.6951C11.2687 30.6236 11.3041 30.8689 11.1145 30.7833C10.9249 30.6978 10.9048 30.1571 10.9048 30.1571C10.9048 30.1571 10.2584 29.9572 10.2758 30.1571C10.581 33.6941 10.0087 38.1429 9.80638 38.5773C9.71423 38.7752 9.22143 39.2578 9.41708 39.3179C10.7138 39.7156 10.6357 40.6527 10.4094 40.8539C10.1336 41.0978 9.51858 40.9695 9.0171 40.9394C8.49159 40.908 8.36071 40.5925 7.66692 40.3532C7.54606 40.3118 7.58278 39.6588 7.61951 39.5178C7.70231 39.1983 7.31502 39.0619 7.2823 38.971L6.87898 33.0538C6.87631 32.9977 6.82756 32.9536 6.76813 32.9536C6.7087 32.9536 6.66063 32.9977 6.65729 33.0538L6.25397 38.971C6.22192 39.0626 5.83462 39.1989 5.91675 39.5178C5.95348 39.6588 5.99021 40.3118 5.86935 40.3532C5.17489 40.5925 5.04401 40.908 4.51916 40.9394C4.01769 40.9695 3.40269 41.0978 3.12691 40.8539C2.89988 40.6527 2.82175 39.7156 4.11918 39.3179C4.31483 39.2578 3.82203 38.7752 3.72988 38.5773C3.52756 38.1429 2.95597 33.6941 3.26046 30.1571C3.27783 29.9572 2.63144 30.1571 2.63144 30.1571C2.63144 30.1571 2.61208 30.6985 2.42177 30.7833C2.23213 30.8689 2.26752 30.6236 1.99909 30.6951C1.76404 30.7579 1.71196 31.4885 1.45554 31.3294C1.06825 31.0901 1.45888 29.9552 1.45888 29.9552C1.45888 29.9552 1.21649 29.8877 1.12368 29.8737C0.694982 29.8095 1.48225 27.8658 1.94033 26.7336C2.32829 25.7745 3.37531 23.9017 4.20866 23.4458C4.62133 23.2199 5.72511 23.0368 5.79856 22.9131C5.88871 22.7614 5.84664 22.2093 5.68371 21.9654C5.68371 21.9654 4.84502 21.7007 4.64069 21.2228C4.43035 20.7309 3.79332 19.991 4.04106 19.4716C4.26208 19.0071 3.97628 18.6595 4.28011 18.2224C4.68543 17.6383 5.23032 17.0334 5.99756 17.2092C6.58985 17.3455 6.98448 17.1189 7.35174 17.0213L7.34907 17.0207Z" fill="#D6B689" stroke="#303030" stroke-width="0.4" stroke-miterlimit="10"/>
<path d="M20.962 23.5414L21.6645 38.459C21.699 38.6205 21.9858 38.8178 21.9237 38.9469C21.83 39.1421 21.6728 39.8619 21.801 39.935C22.5346 40.3573 22.8992 40.8576 23.4521 40.9715C24.005 41.0853 25.3618 40.8569 25.0874 40.3076C24.7255 39.5831 23.9085 39.2022 23.8685 38.8903C23.8196 38.5107 24.2629 38.3044 24.2367 37.9152C24.2001 37.3632 24.8068 24.357 24.7089 21.7928C24.7006 21.5782 25.3887 21.8314 25.3887 21.8314C25.3887 21.8314 25.3459 22.4663 25.2997 22.743C25.2584 22.9907 25.7223 22.9852 26.0057 23.1121C26.2546 23.2232 25.9643 23.9257 26.3435 23.8346C27.2356 23.6193 26.6599 21.4029 26.6599 21.4029C26.8723 21.3042 27.0418 21.1717 27.139 21.1379C27.481 21.0192 26.8254 16.1226 26.4717 14.0324C26.2359 12.6385 25.6941 9.45801 24.8123 8.65134C24.3759 8.2518 22.7448 8.42293 21.841 7.77566L21.9548 6.71573C21.981 6.49767 22.4766 6.33068 22.6842 6.2044C22.831 6.11538 22.8951 5.43982 23.6569 5.08582C23.6569 5.08582 23.8782 1.08557 21.1751 1H20.496C17.8005 1.10558 18.0142 5.08582 18.0142 5.08582C18.7766 5.43982 18.8408 6.11538 18.9869 6.2044C19.1944 6.33068 19.6901 6.49767 19.7163 6.71573L19.8521 7.77566C18.9476 8.42293 17.3172 8.2518 16.8808 8.65134C15.9997 9.45801 15.4572 12.6385 15.2214 14.0324C14.8677 16.1226 14.2121 21.0192 14.5541 21.1379C14.6513 21.1717 14.8216 21.3042 15.0332 21.4029C15.0332 21.4029 14.4576 23.62 15.3496 23.8346C15.7288 23.9257 15.4386 23.2232 15.6874 23.1121C15.9715 22.9859 16.4348 22.9914 16.3934 22.743C16.3472 22.4663 16.3045 21.8314 16.3045 21.8314C16.3045 21.8314 16.9925 21.5788 16.9842 21.7928C16.8863 24.357 17.493 37.3632 17.4564 37.9152C17.4309 38.3044 17.8735 38.5107 17.8246 38.8903C17.7846 39.2022 16.9677 39.5831 16.6057 40.3076C16.3313 40.8569 17.6881 41.0853 18.241 40.9715C18.7939 40.8576 19.1579 40.358 19.8921 39.935C20.0196 39.8612 19.8624 39.1421 19.7694 38.9469C19.7073 38.8178 19.9941 38.6205 20.0286 38.459L20.7311 23.5414" fill="#BED5E8"/>
<path d="M20.962 23.5414L21.6645 38.459C21.699 38.6205 21.9858 38.8178 21.9237 38.9469C21.83 39.1421 21.6728 39.8619 21.801 39.935C22.5346 40.3573 22.8992 40.8576 23.4521 40.9715C24.005 41.0853 25.3618 40.8569 25.0874 40.3076C24.7255 39.5831 23.9085 39.2022 23.8685 38.8903C23.8196 38.5107 24.2629 38.3044 24.2367 37.9152C24.2001 37.3632 24.8068 24.357 24.7089 21.7928C24.7006 21.5782 25.3887 21.8314 25.3887 21.8314C25.3887 21.8314 25.3459 22.4663 25.2997 22.743C25.2584 22.9907 25.7223 22.9852 26.0057 23.1121C26.2546 23.2232 25.9643 23.9257 26.3435 23.8346C27.2356 23.6193 26.6599 21.4029 26.6599 21.4029C26.8723 21.3042 27.0418 21.1717 27.139 21.1379C27.481 21.0192 26.8254 16.1226 26.4717 14.0324C26.2359 12.6385 25.6941 9.45801 24.8123 8.65134C24.3759 8.2518 22.7448 8.42293 21.841 7.77566L21.9548 6.71573C21.981 6.49767 22.4766 6.33068 22.6842 6.2044C22.831 6.11538 22.8951 5.43982 23.6569 5.08582C23.6569 5.08582 23.8782 1.08557 21.1751 1H20.496C17.8005 1.10558 18.0142 5.08582 18.0142 5.08582C18.7766 5.43982 18.8408 6.11538 18.9869 6.2044C19.1944 6.33068 19.6901 6.49767 19.7163 6.71573L19.8521 7.77566C18.9476 8.42293 17.3172 8.2518 16.8808 8.65134C15.9997 9.45801 15.4572 12.6385 15.2214 14.0324C14.8677 16.1226 14.2121 21.0192 14.5541 21.1379C14.6513 21.1717 14.8216 21.3042 15.0332 21.4029C15.0332 21.4029 14.4576 23.62 15.3496 23.8346C15.7288 23.9257 15.4386 23.2232 15.6874 23.1121C15.9715 22.9859 16.4348 22.9914 16.3934 22.743C16.3472 22.4663 16.3045 21.8314 16.3045 21.8314C16.3045 21.8314 16.9925 21.5788 16.9842 21.7928C16.8863 24.357 17.493 37.3632 17.4564 37.9152C17.4309 38.3044 17.8735 38.5107 17.8246 38.8903C17.7846 39.2022 16.9677 39.5831 16.6057 40.3076C16.3313 40.8569 17.6881 41.0853 18.241 40.9715C18.7939 40.8576 19.1579 40.358 19.8921 39.935C20.0196 39.8612 19.8624 39.1421 19.7694 38.9469C19.7073 38.8178 19.9941 38.6205 20.0286 38.459L20.7311 23.5414" stroke="#303030" stroke-width="0.4" stroke-miterlimit="10"/>
</svg>
