<svg width="25" height="42" viewBox="0 0 25 42" fill="none" xmlns="http://www.w3.org/2000/svg">
<path d="M12.5109 19.1473C10.934 19.1624 9.06613 16.6857 9.57019 16.1586C9.83424 15.8826 10.1463 13.6621 10.1463 13.23C10.1463 12.643 14.6215 12.805 14.671 13.2299C14.7619 14.0099 15.0683 15.9232 15.1875 16.2547C15.3559 16.7228 14.0466 19.1327 12.5109 19.1473Z" fill="#BFA687" stroke="#303030" stroke-width="0.4"/>
<path d="M9.62704 13.0353C8.38755 11.1424 7.81519 6.76265 7.81519 5.74892C7.75977 4.47502 9.97612 2.44128 12.429 2.44128C14.6698 2.44128 16.9165 4.28254 16.9165 5.74892C16.9165 6.75663 16.4766 11.2297 15.2943 13.0353C14.4432 14.3351 10.4375 14.2729 9.62704 13.0353Z" fill="#BFA687" stroke="#303030" stroke-width="0.4"/>
<path d="M6.1676 11.1874C5.83085 11.7491 8.5222 11.9807 8.99818 11.3196C9.92656 10.0302 8.40453 6.13383 10.2663 5.89879C11.7226 5.71493 13.7262 5.35045 13.5981 3.14868C8.22886 1.0758 9.31095 6.62712 7.36972 6.62711C6.60224 6.62711 7.59439 8.80747 6.1676 11.1874Z" fill="#5E4521" stroke="#303030" stroke-width="0.4"/>
<path d="M18.7551 11.399C19.0275 11.9283 16.0752 11.8332 15.9251 11.0817C15.6017 9.46253 15.9482 7.46103 15.6248 6.78252C15.1089 5.70013 15.3917 4.87426 15.6248 4.47205C17.46 3.6676 16.9659 5.77187 17.7411 6.78254C18.3613 7.59107 18.1425 10.2091 18.7551 11.399Z" fill="#5E4521" stroke="#303030" stroke-width="0.4"/>
<path d="M22.46 18.4726C21.5324 18.1577 17.1932 16.4648 15.6827 15.9394C15.6827 15.9394 14.9424 16.7574 12.437 16.7387C9.95033 16.7202 9.16716 15.8183 9.16716 15.8183C6.73865 16.5631 3.15582 18.0331 2.25525 18.4726C2.05948 18.5681 1.15046 20.325 1.03517 22.2325C0.956075 23.5412 1.03517 30.7137 1.03517 31.4547C1.03519 32.5617 4.226 34.5084 4.85684 34.5084C5.24954 34.5084 5.24954 25.7115 5.24954 24.2566L5.7927 32.4787L4.85684 40.6059L11.4571 41H13.2552L19.6828 40.6059L18.6484 32.4787V24.2566C19.2059 28.6881 18.9803 35.0866 19.6828 34.8485C21.1144 34.3633 23.3737 32.6652 23.3737 31.4547C23.3737 30.4991 22.8721 18.6125 22.46 18.4726Z" fill="#A9DBC2" stroke="#303030" stroke-width="0.4"/>
<path d="M7.35681 15.8861L5.01577 16.7735L6.01485 22.4246L5.2513 24.4908L5.25135 31.1866L4.79221 36.6964L10.5316 36.6964L11.765 35.2425L11.765 21.6466L7.35681 15.8861Z" fill="#D6B689" stroke="#303030" stroke-width="0.4"/>
<path d="M16.7535 15.7837L19.0941 16.6736L18.0893 22.3559L18.851 24.4324L19.0621 31.1325L19.817 36.7086L13.5578 36.7086L12.3255 35.2481L12.3255 21.6461L16.7535 15.7837Z" fill="#D6B689" stroke="#303030" stroke-width="0.4"/>
<path d="M12.5856 1.00037C8.49081 1.04724 6.91262 5.25737 6.63537 7.15134C6.63537 7.15134 10.4245 6.04663 12.5856 6.04663C14.7466 6.04663 18.2798 7.15134 18.2798 7.15134C18.0879 5.21831 16.6803 0.953502 12.5856 1.00037Z" fill="#D6B689" stroke="#303030" stroke-width="0.4"/>
<path d="M12.5548 6.01264C14.7303 6.01264 18.2735 7.15051 18.2735 7.15051C18.2735 6.20934 15.4286 4.76905 12.5548 4.79319C9.6219 4.81782 6.65882 6.32492 6.65882 7.15051C6.65882 7.15051 10.3794 6.01264 12.5548 6.01264Z" fill="#937A57" stroke="#303030" stroke-width="0.4"/>
<path d="M6.28531 25.9858C7.11045 26.2096 9.10118 26.4884 10.463 25.8135" stroke="#303030" stroke-width="0.4"/>
</svg>
