<svg width="31" height="42" viewBox="0 0 31 42" fill="none" xmlns="http://www.w3.org/2000/svg">
<path d="M17.904 13.6592C17.9603 14.1425 18.0891 14.969 18.2067 15.6024M13.3859 13.6592C13.3859 13.9388 13.2524 14.8691 13.0868 15.5593" stroke="#303030" stroke-width="0.4"/>
<path d="M11.9291 11.0034C12.1826 11.8614 12.4939 12.6542 12.8656 13.2218C13.6706 14.4512 17.6496 14.513 18.495 13.2218C18.8547 12.6726 19.1452 11.8748 19.3751 11.0034" stroke="#303030" stroke-width="0.4"/>
<path d="M15.631 5.10027C15.631 4.04702 15.1508 4.05874 15.4825 3.37166C15.6265 3.07325 15.9577 2.5693 15.4825 1.76847C15.0073 0.967649 14.7456 1.97178 13.4652 1.52792C11.8945 0.983438 12.404 2.78928 10.9549 2.78928C10.2946 2.78928 9.14611 2.79753 9.32961 3.88127C9.5403 5.12564 8.69473 4.32934 8.44077 5.78594C8.23586 6.96129 9.77356 7.48743 8.63076 7.89376C7.64034 8.45246 9.49185 10.4713 9.32961 11.0174C9.11209 11.7495 10.819 11.9119 11.8945 11.0174C12.9604 10.131 10.6512 8.09692 11.5136 7.89376C12.5109 7.65883 12.7746 5.60395 13.3286 5.78594C14.3986 6.1374 15.631 5.63214 15.631 5.10027Z" stroke="#303030" stroke-width="0.4"/>
<path d="M15.631 5.10015C15.631 5.63202 17.9103 4.67898 18.1463 5.62823C18.3567 6.47439 18.3703 7.84246 19.3675 8.07738C20.2299 8.28055 18.5025 9.9339 19.3675 11.0173C20.1137 11.9519 22.0978 11.9212 21.8803 11.189C21.4099 9.60567 23.9882 9.38226 23.0647 8.07738C22.3664 7.09065 23.4302 6.96117 23.2253 5.78582C22.9714 4.32922 21.3082 5.32682 21.5189 4.08245C21.7024 2.99872 20.8231 1.73277 19.8329 1.88644C18.401 2.10869 18.9281 0.776739 17.3575 1.03286C16.6986 1.14032 16.3201 1.7152 15.4836 1.7152" stroke="#303030" stroke-width="0.4"/>
<path d="M28.486 32.3114C28.486 29.2482 25.9141 18.4769 25.5047 18.3379C24.5833 18.0251 21.6711 17.2118 20.1707 16.6899C20.1707 16.6899 19.0998 16.3672 18.9706 15.5145C18.2983 15.5147 16.6532 15.8052 15.7922 15.7987C14.8981 15.7921 13.0102 15.5141 12.252 15.5145C12.097 16.3414 10.9124 16.6899 10.9124 16.6899C8.50013 17.4297 6.17429 17.9014 5.27974 18.3379C4.92036 18.5133 1.17967 27.8512 1.00052 32.5356C0.941084 34.0896 6.01161 34.9962 6.37736 34.7243C6.65261 34.5197 7.27187 30.4066 7.27187 29.9416C7.27187 29.4766 5.90521 29.8707 6.37736 29.6728C7.73159 29.1054 7.20906 24.2487 7.78474 23.533L8.0312 30.3843M7.9925 33.9445L6.98434 40.6086L13.5507 41H16.4696L22.8543 40.6086L22.0194 34.0486" stroke="#303030" stroke-width="0.4"/>
<path d="M6.72728 33.4784C7.82526 33.9696 9.77942 34.7321 10.3958 33.4785C11.3319 31.5744 10.3444 31.8352 9.36441 31.3039C9.87906 31.4162 10.6271 30.0766 10.0114 30.3113C9.75301 30.4098 7.88698 30.492 7.20963 30.2149L6.72728 33.4784Z" stroke="#303030" stroke-width="0.4"/>
<path d="M9.86888 31.4947L12.9057 27.3618L13.337 27.7262L10.3778 31.7377L9.86888 31.4947Z" stroke="#303030" stroke-width="0.4"/>
<path d="M7.9686 34.0251L7.39418 34.7496L7.83505 35.1354L8.58264 34.1642L7.9686 34.0251Z" stroke="#303030" stroke-width="0.4"/>
<path d="M24.0045 35.8181C23.8013 36.4952 26.5849 36.4757 26.8247 36.4283C29.0317 35.9916 28.8794 32.4426 28.179 31.6719L26.668 31.5294L25.4717 33.6737L24.0045 35.8181Z" stroke="#303030" stroke-width="0.4"/>
<mask id="path-10-inside-1_1111_701" fill="white">
<path d="M22.8519 34.387C20.9748 34.6719 18.0186 33.5251 16.0391 30.1326C14.2775 27.113 15.1126 24.3327 16.6761 23.0912C17.6134 22.347 18.5039 21.9692 19.6187 22.1039C20.7131 22.2363 21.9971 22.861 23.7367 24.0369C25.6737 25.3465 27.1971 27.338 27.266 29.4295C27.2902 30.1673 27.0928 31.2284 26.7797 31.8405C26.7008 31.9949 26.6069 32.1348 26.4966 32.2338C26.3846 32.3344 26.2359 32.4078 26.0633 32.3776C25.8982 32.3486 25.7635 32.233 25.6539 32.0817C25.5427 31.9279 25.4379 31.7118 25.3393 31.4314C25.2259 31.1091 25.1138 30.9189 25.0184 30.8237C24.9727 30.7782 24.9374 30.762 24.9164 30.7565C24.8983 30.7517 24.88 30.7521 24.8552 30.7626C24.7937 30.7887 24.6992 30.8747 24.594 31.07C24.4928 31.2582 24.3966 31.52 24.3136 31.8458L24.1193 31.7965L23.9256 31.7464C24.0134 31.4019 24.1199 31.1074 24.2416 30.881C24.3595 30.662 24.5091 30.475 24.6985 30.3945C24.7989 30.3519 24.9082 30.3403 25.0179 30.369C25.1246 30.3971 25.2186 30.4596 25.2999 30.5406C25.4589 30.6991 25.5969 30.9565 25.7173 31.2989C25.8096 31.5614 25.8985 31.7376 25.9781 31.8476C26.0593 31.9597 26.1142 31.9808 26.1325 31.984C26.1437 31.9859 26.1736 31.9871 26.2297 31.9367C26.2884 31.884 26.3554 31.7921 26.4237 31.6587C26.6998 31.1188 26.8886 30.1278 26.8662 29.443C26.8033 27.5311 25.3955 25.6408 23.5131 24.3681C21.7806 23.1969 20.5637 22.6204 19.5704 22.5002C18.5972 22.3826 17.8109 22.7011 16.9247 23.4047C15.5369 24.507 14.7102 27.0612 16.3849 29.9316C18.3017 33.2163 21.1126 34.2465 22.7916 33.9917L22.8213 34.189L22.8519 34.387Z"/>
</mask>
<path d="M22.8519 34.387L22.9119 34.7825L23.3082 34.7223L23.2472 34.3261L22.8519 34.387ZM16.0391 30.1326L15.6936 30.3341L15.6936 30.3342L16.0391 30.1326ZM16.6761 23.0912L16.4274 22.7779L16.4274 22.7779L16.6761 23.0912ZM19.6187 22.1039L19.6667 21.7068L19.6667 21.7068L19.6187 22.1039ZM23.7367 24.0369L23.9607 23.7056L23.9607 23.7056L23.7367 24.0369ZM27.266 29.4295L27.6658 29.4163L27.6658 29.4163L27.266 29.4295ZM26.7797 31.8405L27.1359 32.0227L27.1359 32.0227L26.7797 31.8405ZM26.4966 32.2338L26.7638 32.5315L26.7638 32.5315L26.4966 32.2338ZM26.0633 32.3776L25.9941 32.7716L25.9944 32.7716L26.0633 32.3776ZM25.6539 32.0817L25.3298 32.3161L25.3299 32.3163L25.6539 32.0817ZM25.3393 31.4314L24.9619 31.5641L24.9619 31.5641L25.3393 31.4314ZM25.0184 30.8237L25.3011 30.5407L25.3007 30.5403L25.0184 30.8237ZM24.9164 30.7565L25.019 30.3698L25.0175 30.3695L24.9164 30.7565ZM24.8552 30.7626L24.6997 30.3941L24.699 30.3943L24.8552 30.7626ZM24.594 31.07L24.2418 30.8804L24.2418 30.8805L24.594 31.07ZM24.3136 31.8458L24.2151 32.2335L24.6025 32.3319L24.7012 31.9446L24.3136 31.8458ZM24.1193 31.7965L24.0192 32.1838L24.0208 32.1842L24.1193 31.7965ZM23.9256 31.7464L23.538 31.6476L23.4395 32.0339L23.8255 32.1337L23.9256 31.7464ZM24.2416 30.881L23.8894 30.6915L23.8893 30.6916L24.2416 30.881ZM24.6985 30.3945L24.5424 30.0262L24.5421 30.0263L24.6985 30.3945ZM25.0179 30.369L25.1196 29.9822L25.1192 29.9821L25.0179 30.369ZM25.2999 30.5406L25.5823 30.2573L25.5821 30.2571L25.2999 30.5406ZM25.7173 31.2989L25.3399 31.4316L25.34 31.4316L25.7173 31.2989ZM25.9781 31.8476L25.654 32.082L25.6542 32.0823L25.9781 31.8476ZM26.1325 31.984L26.0634 32.378L26.0664 32.3785L26.1325 31.984ZM26.2297 31.9367L26.4968 32.2345L26.497 32.2344L26.2297 31.9367ZM26.4237 31.6587L26.7797 31.841L26.7798 31.8409L26.4237 31.6587ZM26.8662 29.443L27.266 29.4299L27.266 29.4298L26.8662 29.443ZM23.5131 24.3681L23.7371 24.0368L23.7371 24.0368L23.5131 24.3681ZM19.5704 22.5002L19.6184 22.1031L19.6184 22.1031L19.5704 22.5002ZM16.9247 23.4047L16.676 23.0915L16.6759 23.0915L16.9247 23.4047ZM16.3849 29.9316L16.0394 30.1332L16.0394 30.1332L16.3849 29.9316ZM22.7916 33.9917L23.1871 33.932L23.1274 33.5362L22.7316 33.5962L22.7916 33.9917ZM22.8213 34.189L22.4258 34.2487L22.426 34.25L22.8213 34.189ZM22.8519 34.387L22.7918 33.9915C21.1129 34.2463 18.3015 33.2162 16.3846 29.931L16.0391 30.1326L15.6936 30.3342C17.7358 33.834 20.8367 35.0974 22.9119 34.7825L22.8519 34.387ZM16.0391 30.1326L16.3846 29.931C14.7098 27.0602 15.5372 24.5064 16.9249 23.4044L16.6761 23.0912L16.4274 22.7779C14.6881 24.1591 13.8452 27.1658 15.6936 30.3341L16.0391 30.1326ZM16.6761 23.0912L16.9248 23.4045C17.811 22.7009 18.5973 22.3834 19.5707 22.501L19.6187 22.1039L19.6667 21.7068C18.4106 21.555 17.4158 21.9932 16.4274 22.7779L16.6761 23.0912ZM19.6187 22.1039L19.5706 22.501C20.564 22.6212 21.7805 23.1974 23.5127 24.3683L23.7367 24.0369L23.9607 23.7056C22.2138 22.5246 20.8622 21.8515 19.6667 21.7068L19.6187 22.1039ZM23.7367 24.0369L23.5127 24.3683C25.3952 25.6411 26.8033 27.531 26.8662 29.4426L27.266 29.4295L27.6658 29.4163C27.591 27.145 25.9522 25.052 23.9607 23.7056L23.7367 24.0369ZM27.266 29.4295L26.8662 29.4426C26.8887 30.1274 26.6997 31.1185 26.4236 31.6584L26.7797 31.8405L27.1359 32.0227C27.4859 31.3383 27.6917 30.2071 27.6658 29.4163L27.266 29.4295ZM26.7797 31.8405L26.4236 31.6584C26.3559 31.7909 26.2887 31.883 26.2294 31.9362L26.4966 32.2338L26.7638 32.5315C26.9252 32.3866 27.0457 32.1989 27.1359 32.0227L26.7797 31.8405ZM26.4966 32.2338L26.2294 31.9361C26.2017 31.9611 26.1786 31.9741 26.1628 31.98C26.1499 31.9848 26.1416 31.9852 26.1322 31.9836L26.0633 32.3776L25.9944 32.7716C26.3298 32.8303 26.5976 32.6806 26.7638 32.5315L26.4966 32.2338ZM26.0633 32.3776L26.1325 31.9836C26.1144 31.9805 26.0595 31.9599 25.9779 31.8472L25.6539 32.0817L25.3299 32.3163C25.4674 32.5062 25.682 32.7167 25.9941 32.7716L26.0633 32.3776ZM25.6539 32.0817L25.9781 31.8473C25.8982 31.7368 25.8086 31.5604 25.7166 31.2987L25.3393 31.4314L24.9619 31.5641C25.0671 31.8632 25.1872 32.1189 25.3298 32.3161L25.6539 32.0817ZM25.3393 31.4314L25.7166 31.2987C25.5969 30.9581 25.4604 30.6998 25.3011 30.5407L25.0184 30.8237L24.7358 31.1067C24.7672 31.1381 24.855 31.2601 24.9619 31.5641L25.3393 31.4314ZM25.0184 30.8237L25.3007 30.5403C25.2151 30.455 25.1203 30.3967 25.019 30.3698L24.9164 30.7565L24.8137 31.1431C24.7546 31.1274 24.7304 31.1014 24.7362 31.1071L25.0184 30.8237ZM24.9164 30.7565L25.0175 30.3695C24.9086 30.341 24.8002 30.3517 24.6997 30.3941L24.8552 30.7626L25.0107 31.1312C24.9921 31.139 24.9614 31.1492 24.9212 31.1525C24.8795 31.1559 24.843 31.1507 24.8152 31.1435L24.9164 30.7565ZM24.8552 30.7626L24.699 30.3943C24.5105 30.4743 24.3607 30.6597 24.2418 30.8804L24.594 31.07L24.9462 31.2596C24.9873 31.1833 25.0196 31.1412 25.0377 31.1211C25.0466 31.1113 25.0502 31.1089 25.0477 31.1108C25.0457 31.1124 25.0337 31.1214 25.0113 31.1309L24.8552 30.7626ZM24.594 31.07L24.2418 30.8805C24.1197 31.1073 24.0137 31.403 23.926 31.747L24.3136 31.8458L24.7012 31.9446C24.7796 31.637 24.8659 31.409 24.9463 31.2595L24.594 31.07ZM24.3136 31.8458L24.412 31.4581L24.2177 31.4088L24.1193 31.7965L24.0208 32.1842L24.2151 32.2335L24.3136 31.8458ZM24.1193 31.7965L24.2194 31.4092L24.0257 31.3592L23.9256 31.7464L23.8255 32.1337L24.0192 32.1838L24.1193 31.7965ZM23.9256 31.7464L24.3132 31.8453C24.3962 31.5196 24.4928 31.2586 24.5939 31.0705L24.2416 30.881L23.8893 30.6916C23.747 30.9561 23.6307 31.2843 23.538 31.6476L23.9256 31.7464ZM24.2416 30.881L24.5938 31.0706C24.6987 30.8758 24.7931 30.7889 24.8549 30.7627L24.6985 30.3945L24.5421 30.0263C24.225 30.161 24.0204 30.4482 23.8894 30.6915L24.2416 30.881ZM24.6985 30.3945L24.8546 30.7628C24.8809 30.7516 24.8998 30.7516 24.9165 30.756L25.0179 30.369L25.1192 29.9821C24.9166 29.929 24.7169 29.9523 24.5424 30.0262L24.6985 30.3945ZM25.0179 30.369L24.9162 30.7559C24.9365 30.7612 24.9712 30.7777 25.0177 30.824L25.2999 30.5406L25.5821 30.2571C25.4661 30.1416 25.3127 30.033 25.1196 29.9822L25.0179 30.369ZM25.2999 30.5406L25.0175 30.8238C25.1132 30.9192 25.2267 31.1094 25.3399 31.4316L25.7173 31.2989L26.0946 31.1662C25.9671 30.8036 25.8047 30.479 25.5823 30.2573L25.2999 30.5406ZM25.7173 31.2989L25.34 31.4316C25.4385 31.7119 25.5427 31.9282 25.654 32.082L25.9781 31.8476L26.3022 31.6132C26.2543 31.547 26.1807 31.4109 26.0946 31.1662L25.7173 31.2989ZM25.9781 31.8476L25.6542 32.0823C25.7641 32.2341 25.8989 32.3492 26.0634 32.378L26.1325 31.984L26.2017 31.5901C26.2679 31.6017 26.307 31.6277 26.3194 31.6371C26.3325 31.6469 26.3253 31.6451 26.3021 31.613L25.9781 31.8476ZM26.1325 31.984L26.0664 32.3785C26.1329 32.3897 26.2136 32.3876 26.3006 32.356C26.3782 32.3279 26.443 32.2828 26.4968 32.2345L26.2297 31.9367L25.9627 31.6389C25.9603 31.6411 25.982 31.6206 26.0278 31.604C26.0518 31.5953 26.0805 31.5883 26.1132 31.5857C26.1471 31.5831 26.1765 31.5858 26.1987 31.5896L26.1325 31.984ZM26.2297 31.9367L26.497 32.2344C26.607 32.1355 26.7007 31.9955 26.7797 31.841L26.4237 31.6587L26.0676 31.4765C26.0404 31.5296 26.0161 31.5693 25.9962 31.5974C25.9864 31.6114 25.9783 31.6216 25.9721 31.6288C25.9691 31.6323 25.9667 31.6349 25.965 31.6366C25.9633 31.6384 25.9625 31.6391 25.9625 31.6391L26.2297 31.9367ZM26.4237 31.6587L26.7798 31.8409C26.9414 31.5249 27.0667 31.102 27.1494 30.6825C27.2326 30.2599 27.2784 29.8098 27.266 29.4299L26.8662 29.443L26.4664 29.456C26.4764 29.7609 26.4391 30.1488 26.3644 30.5279C26.2892 30.91 26.182 31.2527 26.0675 31.4766L26.4237 31.6587ZM26.8662 29.443L27.266 29.4298C27.1972 27.3384 25.6743 25.3464 23.7371 24.0368L23.5131 24.3681L23.2891 24.6995C25.1167 25.9351 26.4094 27.7239 26.4664 29.4561L26.8662 29.443ZM23.5131 24.3681L23.7371 24.0368C21.9974 22.8607 20.7129 22.2355 19.6184 22.1031L19.5704 22.5002L19.5223 22.8973C20.4145 23.0052 21.5638 23.5332 23.2891 24.6995L23.5131 24.3681ZM19.5704 22.5002L19.6184 22.1031C18.5037 21.9684 17.6132 22.3473 16.676 23.0915L16.9247 23.4047L17.1735 23.718C18.0086 23.0549 18.6906 22.7968 19.5224 22.8973L19.5704 22.5002ZM16.9247 23.4047L16.6759 23.0915C15.1127 24.3331 14.2777 27.1136 16.0394 30.1332L16.3849 29.9316L16.7304 29.7301C15.1427 27.0088 15.9611 24.6809 17.1735 23.718L16.9247 23.4047ZM16.3849 29.9316L16.0394 30.1332C18.019 33.5255 20.9748 34.672 22.8516 34.3872L22.7916 33.9917L22.7316 33.5962C21.2504 33.821 18.5843 32.9071 16.7304 29.73L16.3849 29.9316ZM22.7916 33.9917L22.3961 34.0514L22.4258 34.2487L22.8213 34.189L23.2169 34.1294L23.1871 33.932L22.7916 33.9917ZM22.8213 34.189L22.426 34.25L22.4565 34.4479L22.8519 34.387L23.2472 34.3261L23.2167 34.1281L22.8213 34.189Z" fill="#303030" mask="url(#path-10-inside-1_1111_701)"/>
<path d="M20.4354 30.743C20.5515 30.8444 20.3678 31.1089 20.2542 31.2931C20.1529 31.4573 20.1776 31.5251 20.1855 31.6422C20.1935 31.7593 19.8566 31.7486 19.685 31.8191C19.5133 31.8895 19.3192 31.8775 19.1663 31.7282C19.0133 31.579 19.0533 31.425 18.906 31.3594C18.7587 31.2938 18.7504 30.9246 18.5953 30.8679C18.4402 30.8112 18.8433 30.3133 18.8766 30.185C18.9099 30.0568 19.1497 29.9985 19.3359 30.0194C19.5222 30.0404 19.7195 29.9766 19.8634 29.992C20.0073 30.0075 20.0922 30.1445 20.1125 30.3196C20.1328 30.4947 20.3193 30.6417 20.4354 30.743Z" stroke="#303030" stroke-width="0.4"/>
<path d="M17.872 29.2083C17.7375 29.2837 17.55 29.0218 17.4146 28.8531C17.2939 28.7025 17.2217 28.703 17.1087 28.6712C16.9958 28.6394 17.1189 28.3257 17.1101 28.1403C17.1013 27.955 17.1778 27.7762 17.3697 27.6822C17.5617 27.5882 17.6933 27.6775 17.8045 27.5607C17.9158 27.444 18.2663 27.5601 18.3717 27.433C18.4772 27.3059 18.811 27.8528 18.9206 27.9272C19.0303 28.0016 19.0048 28.247 18.9225 28.4154C18.8403 28.5839 18.8342 28.7912 18.7713 28.9215C18.7085 29.0519 18.5509 29.0859 18.3792 29.0463C18.2074 29.0066 18.0064 29.1329 17.872 29.2083Z" stroke="#303030" stroke-width="0.4"/>
<path d="M17.9456 24.5684C17.9515 24.4144 18.2727 24.3911 18.4873 24.3637C18.6788 24.3394 18.716 24.2775 18.8021 24.1978C18.8882 24.118 19.0915 24.3868 19.2542 24.4761C19.4169 24.5654 19.5294 24.7239 19.5094 24.9367C19.4894 25.1495 19.3446 25.2151 19.3861 25.3709C19.4276 25.5268 19.1456 25.7651 19.1989 25.9214C19.2523 26.0777 18.6116 26.0769 18.4909 26.1316C18.3701 26.1863 18.1742 26.0364 18.0735 25.8784C17.9727 25.7203 17.7991 25.6069 17.7207 25.4852C17.6423 25.3636 17.6956 25.2114 17.819 25.0856C17.9425 24.9598 17.9397 24.7224 17.9456 24.5684Z" stroke="#303030" stroke-width="0.4"/>
<path d="M21.4081 26.5565C21.2631 26.6085 21.1216 26.3192 21.0161 26.1303C20.9221 25.9617 20.8508 25.9503 20.7447 25.9001C20.6386 25.85 20.8121 25.5611 20.8342 25.3769C20.8563 25.1926 20.9614 25.029 21.1663 24.9682C21.3712 24.9074 21.4862 25.0173 21.6153 24.9206C21.7443 24.824 22.0707 24.9967 22.1958 24.8889C22.3209 24.7811 22.5592 25.3757 22.655 25.4674C22.7508 25.559 22.6849 25.7967 22.5758 25.9491C22.4667 26.1016 22.4263 26.305 22.3426 26.4231C22.259 26.5412 22.098 26.5486 21.9352 26.481C21.7724 26.4134 21.5532 26.5045 21.4081 26.5565Z" stroke="#303030" stroke-width="0.4"/>
<path d="M24.594 28.5112C24.5521 28.6595 24.2344 28.6068 24.0193 28.583C23.8275 28.5618 23.7768 28.6131 23.6744 28.6705C23.5719 28.7278 23.4374 28.4188 23.3002 28.2938C23.163 28.1689 23.0908 27.9884 23.1602 27.7862C23.2296 27.584 23.3858 27.5542 23.382 27.393C23.3783 27.2318 23.7083 27.0663 23.6931 26.9019C23.678 26.7374 24.3005 26.8885 24.4307 26.8637C24.5609 26.8388 24.7162 27.0305 24.7771 27.2078C24.8379 27.3851 24.98 27.5361 25.0277 27.6728C25.0754 27.8094 24.9879 27.9448 24.8383 28.0381C24.6888 28.1314 24.6358 28.3629 24.594 28.5112Z" stroke="#303030" stroke-width="0.4"/>
<path d="M24.5902 34.9383C23.3262 34.9383 21.1795 33.0873 21.814 31.9362C22.5803 30.5462 23.7602 32.6762 24.1164 31.8007C24.2206 31.1546 24.5612 30.6495 24.8387 30.5593C25.6725 30.2883 25.4376 32.1128 26.2504 32.1128C26.3437 32.1128 24.8989 34.9383 24.5902 34.9383Z" stroke="#303030" stroke-width="0.4"/>
<path d="M14.7126 26.5132C14.7126 27.2814 13.7251 27.9669 13.1912 27.5079C12.4706 27.1509 12.8161 26.3075 13.4048 26.0543C13.9385 25.8247 13.9653 25.1616 14.8727 25.1616C14.7304 25.4166 14.7126 25.9011 14.7126 26.5132Z" stroke="#303030" stroke-width="0.4"/>
</svg>
