<svg width="32" height="42" viewBox="0 0 32 42" fill="none" xmlns="http://www.w3.org/2000/svg">
<path d="M15.8506 18.3567C14.3128 18.3713 12.4913 15.9561 12.9828 15.4421C13.2403 15.1729 13.5446 13.0075 13.5446 12.5861C13.5446 12.0138 17.9087 12.1718 17.957 12.5861C18.0457 13.3468 18.3445 15.2126 18.4608 15.5358C18.625 15.9923 17.3481 18.3424 15.8506 18.3567Z" fill="#ECDBC2" stroke="#303030" stroke-width="0.4"/>
<path d="M5.81956 39.6451C6.13353 39.3451 5.72044 38.8791 5.00757 38.0155C5.83029 37.8494 7.14549 36.9089 7.91583 37.4065C8.40033 37.7195 8.51685 38.3152 8.33042 39.3922C7.99205 41.347 5.01444 40.4145 5.81956 39.6451Z" fill="#ECDBC2" stroke="#303030" stroke-width="0.4"/>
<path d="M25.4693 39.9406C25.1529 39.6408 25.4942 39.1407 26.2141 38.2764C25.3843 38.111 24.1343 37.2053 23.3567 37.7036C22.8677 38.0171 22.7496 38.613 22.9367 39.6899C23.2763 41.6446 26.2808 40.7093 25.4693 39.9406Z" fill="#ECDBC2" stroke="#303030" stroke-width="0.4"/>
<path d="M13.0383 12.3963C11.8296 10.5504 11.2714 6.27936 11.2714 5.29079C11.2174 4.04851 13.3787 2.06525 15.7708 2.06525C17.9559 2.06525 20.1468 3.8608 20.1468 5.29079C20.1468 6.27349 19.7178 10.6355 18.5649 12.3963C17.7349 13.6638 13.8286 13.6032 13.0383 12.3963Z" fill="#ECDBC2" stroke="#303030" stroke-width="0.4"/>
<path d="M11.7066 11.0724C12.2204 11.4518 11.4693 7.57509 12.3661 7.22509C13.559 6.478 12.8789 4.94967 14.6945 4.72046C16.1146 4.54117 17.3554 3.9611 17.2305 1.81397C11.9945 -0.207458 13.1785 2.17294 11.2855 2.17293C10.5371 2.17292 8.74431 8.88476 11.7066 11.0724Z" fill="#BFA687" stroke="#303030" stroke-width="0.4"/>
<path d="M20.0607 11.0357C19.7026 11.4926 19.3643 10.0098 19.218 9.27697C18.9026 7.69799 19.2021 6.96038 18.8867 6.29871C18.3836 5.24318 15.9521 4.89307 17.1493 1.80729C19.9312 0.177764 20.5859 4.36416 21.3419 5.34974C21.9467 6.13821 20.3247 10.6989 20.0607 11.0357Z" fill="#BFA687" stroke="#303030" stroke-width="0.4"/>
<rect x="5.04116" y="38.0713" width="3.1258" height="0.930128" transform="rotate(-28.0322 5.04116 38.0713)" fill="#76C69D" stroke="#303030" stroke-width="0.4"/>
<rect x="-0.263782" y="0.102075" width="3.27775" height="1.03522" transform="matrix(-0.914641 -0.404266 -0.404266 0.914641 26.1604 37.7725)" fill="#76C69D" stroke="#303030" stroke-width="0.4"/>
<path d="M18.5084 14.8703L18.5387 15.0236L18.6949 15.0324L20.3824 15.1193V28.3576H10.942V15.1203L12.7018 15.0324L12.8561 15.0246L12.8873 14.8732L13.0328 14.1789L15.6862 14.5217L15.7115 14.5246L15.7369 14.5217L18.3737 14.1789L18.5084 14.8703Z" fill="#76C69D" stroke="#303030" stroke-width="0.4"/>
<path d="M25.4468 16.4189C24.5422 16.1118 21.6832 15.3133 20.2102 14.8009C20.2102 14.8009 18.261 16.4371 15.8178 16.4189C13.3928 16.4008 11.1211 14.8009 11.1211 14.8009C8.75283 15.5272 6.46948 15.9903 5.59127 16.4189C5.23846 16.591 2.58252 23.6766 1.20752 27.6142C0.961479 28.3188 0.901778 28.7439 1.20753 29.455C1.42023 29.9497 3.9853 37.6912 4.26328 38.1583C4.54127 38.6254 8.14977 36.8886 8.38674 36.4163C8.64553 35.9005 5.43152 29.055 5.56702 28.5623C5.90806 27.3224 7.53084 23.6151 8.05051 22.5191L9.29937 31.3572L8.38674 39.2827L14.8232 39.667H16.5767L22.8447 39.2827L21.836 31.3572L23.0513 22.5191L25.8949 28.5623L22.8447 36.4163C23.4161 37.3397 26.8714 38.5406 27.0557 38.1583C27.3118 37.6269 29.6187 30.5512 30.1364 29.455C30.4143 28.8665 30.3581 28.1892 30.1364 27.6142C28.8588 24.3004 25.8487 16.5553 25.4468 16.4189Z" fill="#6D889D" stroke="#303030" stroke-width="0.4"/>
</svg>
