<svg width="15" height="42" viewBox="0 0 15 42" fill="none" xmlns="http://www.w3.org/2000/svg">
<path d="M7.51004 23.5414L8.21321 38.459C8.24772 38.6205 8.53477 38.8178 8.47267 38.9469C8.37882 39.1422 8.22149 39.8619 8.34984 39.935C9.08406 40.3573 9.4491 40.8576 10.0025 40.9715C10.556 41.0854 11.914 40.8569 11.6393 40.3077C11.2771 39.5831 10.4593 39.2022 10.4193 38.8903C10.3703 38.5108 10.814 38.3044 10.7878 37.9152C10.7512 37.3632 11.3585 24.357 11.2605 21.7928C11.2522 21.5782 11.9409 21.8314 11.9409 21.8314C11.9409 21.8314 11.8981 22.4663 11.8519 22.743C11.8105 22.9907 12.2749 22.9852 12.5585 23.1122C12.8076 23.2233 12.5171 23.9257 12.8966 23.8346C13.7896 23.6193 13.2134 21.4029 13.2134 21.4029C13.4259 21.3042 13.5956 21.1717 13.6929 21.1379C14.0352 21.0192 13.379 16.1226 13.025 14.0324C12.789 12.6385 12.2466 9.45802 11.364 8.65134C10.9272 8.2518 9.29453 8.42293 8.38986 7.77566L8.50373 6.71573C8.52995 6.49768 9.0261 6.33068 9.2338 6.2044C9.38078 6.11539 9.44496 5.43982 10.2075 5.08582C10.2075 5.08582 10.429 1.08557 7.72327 1H7.04356C4.34545 1.10558 4.55936 5.08582 4.55936 5.08582C5.32257 5.43982 5.38674 6.11539 5.53304 6.2044C5.74074 6.33068 6.23689 6.49768 6.26311 6.71573L6.39906 7.77566C5.4937 8.42293 3.86172 8.2518 3.42491 8.65134C2.54302 9.45802 1.99994 12.6385 1.76395 14.0324C1.40995 16.1226 0.753704 21.0192 1.09597 21.1379C1.19327 21.1717 1.36371 21.3042 1.57556 21.4029C1.57556 21.4029 0.999367 23.62 1.8923 23.8346C2.27183 23.9257 1.98131 23.2233 2.23042 23.1122C2.51473 22.9859 2.97844 22.9914 2.93704 22.743C2.89081 22.4663 2.84803 21.8314 2.84803 21.8314C2.84803 21.8314 3.5367 21.5789 3.52842 21.7928C3.43043 24.357 4.03768 37.3632 4.00111 37.9152C3.97558 38.3044 4.41859 38.5108 4.3696 38.8903C4.32957 39.2022 3.51186 39.5831 3.14958 40.3077C2.87494 40.8569 4.23297 41.0854 4.78639 40.9715C5.33982 40.8576 5.70417 40.358 6.43907 39.935C6.56674 39.8612 6.4094 39.1422 6.31625 38.9469C6.25414 38.8178 6.54121 38.6205 6.57571 38.459L7.27888 23.5414" fill="#E5CEAE"/>
<path d="M7.51004 23.5414L8.21321 38.459C8.24772 38.6205 8.53477 38.8178 8.47267 38.9469C8.37882 39.1422 8.22149 39.8619 8.34984 39.935C9.08406 40.3573 9.4491 40.8576 10.0025 40.9715C10.5559 41.0854 11.914 40.8569 11.6393 40.3077C11.2771 39.5831 10.4593 39.2022 10.4193 38.8903C10.3703 38.5108 10.814 38.3044 10.7878 37.9152C10.7512 37.3632 11.3585 24.357 11.2605 21.7928C11.2522 21.5782 11.9409 21.8314 11.9409 21.8314C11.9409 21.8314 11.8981 22.4663 11.8519 22.743C11.8105 22.9907 12.2749 22.9852 12.5585 23.1122C12.8076 23.2233 12.5171 23.9257 12.8966 23.8346C13.7896 23.6193 13.2134 21.4029 13.2134 21.4029C13.4259 21.3042 13.5956 21.1717 13.6929 21.1379C14.0352 21.0192 13.379 16.1226 13.025 14.0324C12.789 12.6385 12.2466 9.45802 11.364 8.65134C10.9272 8.2518 9.29453 8.42293 8.38986 7.77566L8.50373 6.71573C8.52995 6.49768 9.0261 6.33068 9.2338 6.2044C9.38078 6.11539 9.44496 5.43982 10.2075 5.08582C10.2075 5.08582 10.429 1.08557 7.72327 1H7.04356C4.34545 1.10558 4.55936 5.08582 4.55936 5.08582C5.32257 5.43982 5.38674 6.11539 5.53304 6.2044C5.74074 6.33068 6.23689 6.49768 6.26311 6.71573L6.39905 7.77566C5.4937 8.42293 3.86172 8.2518 3.42491 8.65134C2.54302 9.45802 1.99994 12.6385 1.76395 14.0324C1.40995 16.1226 0.753704 21.0192 1.09597 21.1379C1.19327 21.1717 1.36371 21.3042 1.57556 21.4029C1.57556 21.4029 0.999367 23.62 1.8923 23.8346C2.27183 23.9257 1.98131 23.2233 2.23042 23.1122C2.51473 22.9859 2.97844 22.9914 2.93704 22.743C2.89081 22.4663 2.84803 21.8314 2.84803 21.8314C2.84803 21.8314 3.5367 21.5789 3.52842 21.7928C3.43043 24.357 4.03768 37.3632 4.00111 37.9152C3.97558 38.3044 4.41859 38.5108 4.3696 38.8903C4.32957 39.2022 3.51186 39.5831 3.14958 40.3077C2.87494 40.8569 4.23297 41.0854 4.78639 40.9715C5.33982 40.8576 5.70417 40.358 6.43908 39.935C6.56674 39.8612 6.4094 39.1422 6.31625 38.9469C6.25414 38.8178 6.54121 38.6205 6.57571 38.459L7.27888 23.5414" stroke="#303030" stroke-width="0.4" stroke-miterlimit="10"/>
</svg>
