<svg width="42" height="42" viewBox="0 0 42 42" fill="none" xmlns="http://www.w3.org/2000/svg">
<path d="M21.8556 18.7773C20.3109 18.792 18.4811 16.3658 18.9749 15.8495C19.2336 15.5791 19.5392 13.4038 19.5392 12.9805C19.5392 12.4056 23.9232 12.5643 23.9717 12.9805C24.0607 13.7446 24.3609 15.6189 24.4777 15.9436C24.6427 16.4021 23.36 18.7629 21.8556 18.7773Z" fill="#BFA687" stroke="#303030" stroke-width="0.4"/>
<path d="M19.0306 12.7899C17.8164 10.9356 17.2557 6.64512 17.2557 5.65206C17.2014 4.40414 19.3725 2.41187 21.7754 2.41187C23.9705 2.41187 26.1714 4.21558 26.1714 5.65206C26.1714 6.63922 25.7404 11.0211 24.5823 12.7899C23.7485 14.0631 19.8245 14.0022 19.0306 12.7899Z" fill="#BFA687" stroke="#303030" stroke-width="0.4"/>
<path d="M15.6417 10.9796C15.3118 11.5299 17.9483 11.7568 18.4145 11.1092C19.324 9.84605 17.833 6.02915 19.6568 5.7989C21.0834 5.61879 23.0462 5.26174 22.9207 3.10486C17.6609 1.07425 18.7209 6.51238 16.8193 6.51237C16.0674 6.51237 17.0394 8.64827 15.6417 10.9796Z" fill="#5E4521" stroke="#303030" stroke-width="0.4"/>
<path d="M27.9725 11.1869C28.2394 11.7054 25.3472 11.6122 25.2002 10.8761C24.8834 9.28992 25.2229 7.32923 24.9061 6.66455C24.4007 5.60423 24.6777 4.7952 24.9061 4.4012C26.7038 3.61315 26.2198 5.67451 26.9792 6.66457C27.5867 7.45662 27.3724 10.0213 27.9725 11.1869Z" fill="#5E4521" stroke="#303030" stroke-width="0.4"/>
<path d="M31.6019 18.1163C30.6932 17.8078 26.4425 16.1495 24.9627 15.6348C24.9627 15.6348 24.2376 16.4361 21.7833 16.4178C19.3473 16.3997 18.5801 15.5162 18.5801 15.5162C16.2011 16.2458 12.6913 17.6858 11.8091 18.1163C11.6173 18.2099 10.7269 19.931 10.6139 21.7996C10.5364 23.0815 10.6139 25.2399 10.6139 25.9658C10.4859 26.3324 8.15775 22.355 7.89015 22.7376C7.62255 23.1202 4.64737 26.0748 4.58529 26.602C4.52273 27.1333 10.2289 34.1584 11.8091 34.1584C14.9596 34.1584 14.7423 25.2076 14.7423 23.7824L15.2744 31.8369L14.3577 39.7984L20.8234 40.1844H22.5848L28.8813 39.7984L27.868 31.8369V23.7824C28.0189 24.982 28.938 32.2168 29.4186 32.3809C30.3642 32.7038 35.8725 32.9944 36.4304 31.8369C36.6877 31.3031 35.9103 28.1355 36.4304 27.0343C36.7596 26.3371 33.1328 28.3816 33.1328 27.7626C33.1328 26.8264 32.0056 18.2534 31.6019 18.1163Z" fill="#A9DBC2" stroke="#303030" stroke-width="0.4"/>
<path d="M4.30643 23.5165C4.77763 23.1332 6.63225 21.7003 6.93415 21.4653C7.12905 21.9986 7.4054 22.4017 7.53455 22.9668C7.57913 23.1618 6.37621 24.3196 5.34548 25.5296C5.05493 25.8707 3.83523 23.8997 4.30643 23.5165Z" fill="#BFA687" stroke="#303030" stroke-width="0.4"/>
<path d="M6.8373 19.5949L1.22744 12.8164L2.9964 11.3526L10.067 19.8966C10.067 19.8966 10.0672 19.9 10.0655 19.8997L6.8373 19.5949Z" fill="#BED5E8" stroke="#303030" stroke-width="0.4" stroke-miterlimit="10"/>
<path d="M3.15517 22.6423L6.83731 19.595L10.0596 19.8988C10.0637 19.8991 10.0651 19.9042 10.062 19.9066L4.61908 24.4108L3.15517 22.6423Z" fill="#5BA27E" stroke="#303030" stroke-width="0.4" stroke-miterlimit="10"/>
<path d="M4.10694 13.5004L4.50329 13.1727" stroke="#303030" stroke-width="0.4" stroke-miterlimit="10"/>
<path d="M3.14919 12.7425L3.74163 12.2522" stroke="#303030" stroke-width="0.4" stroke-miterlimit="10"/>
<path d="M4.67252 14.5833L5.2648 14.0928" stroke="#303030" stroke-width="0.4" stroke-miterlimit="10"/>
<path d="M7.7189 18.2644L8.31134 17.7742" stroke="#303030" stroke-width="0.4" stroke-miterlimit="10"/>
<path d="M4.52934 23.7625L8.62355 20.3742" stroke="#303030" stroke-width="0.4" stroke-miterlimit="10"/>
<path d="M8.67663 19.0222L9.07298 18.6946" stroke="#303030" stroke-width="0.4" stroke-miterlimit="10"/>
<path d="M5.63027 15.3412L6.02646 15.0132" stroke="#303030" stroke-width="0.4" stroke-miterlimit="10"/>
<path d="M6.19571 16.4239L6.78815 15.9336" stroke="#303030" stroke-width="0.4" stroke-miterlimit="10"/>
<path d="M7.15347 17.1818L7.54981 16.8541" stroke="#303030" stroke-width="0.4" stroke-miterlimit="10"/>
<path d="M3.07068 22.6003C3.30432 22.081 5.84615 19.4898 6.29394 19.9024C6.68207 20.2593 7.13742 21.4034 7.09785 21.6252C6.97559 22.3105 4.23206 24.5248 3.68636 24.2059C3.24316 23.9469 2.83705 23.1196 3.07068 22.6003Z" fill="#BFA687" stroke="#303030" stroke-width="0.4"/>
<path d="M39.2506 32.375L37.6042 32.4742C37.5167 32.4794 37.45 32.5547 37.4553 32.6422L37.4877 33.1807C37.493 33.2682 37.5682 33.3349 37.6558 33.3297L39.3022 33.2305C39.3897 33.2252 39.4564 33.15 39.4511 33.0624L39.4187 32.5239C39.4134 32.4364 39.3382 32.3697 39.2506 32.375Z" fill="#A9C0D3" stroke="#303030" stroke-width="0.4" stroke-miterlimit="10"/>
<path d="M39.2116 32.3773L37.6434 32.4718L37.098 21.4147L38.4254 21.335L39.2116 32.3773Z" fill="#536D81" stroke="#303030" stroke-width="0.4" stroke-miterlimit="10"/>
<path d="M40.72 18.2381L39.7614 18.2958C39.679 18.3008 39.6162 18.3717 39.6211 18.4541L39.7338 20.3248C39.7388 20.4073 39.8096 20.4701 39.8921 20.4651L40.8507 20.4074C40.9332 20.4024 40.996 20.3315 40.991 20.2491L40.8783 18.3784C40.8733 18.2959 40.8025 18.2331 40.72 18.2381Z" fill="#A9C0D3" stroke="#303030" stroke-width="0.4" stroke-miterlimit="10"/>
<path d="M34.8972 19.553C34.2545 20.4569 34.0489 20.9783 34.0131 21.3301C33.9773 21.6818 34.2744 21.6871 34.6294 21.2928C35.0602 20.8144 36.009 19.7115 36.7106 20.3368C37.026 20.6182 37.098 21.4148 37.098 21.4148L38.4254 21.3347C38.4254 21.3347 38.4144 20.2172 38.7825 20.1491C39.2802 20.0566 39.175 20.3743 39.3706 20.3836C39.4548 20.3876 39.7358 20.3571 39.7358 20.3571L39.6197 18.4313L39.2563 18.4488C39.0006 18.4749 39.1504 18.7752 38.7202 18.7909C38.3637 18.8038 38.4645 18.4965 38.2111 18.5118C37.3974 18.5606 35.6043 18.5579 34.8972 19.553Z" fill="#BED5E8" stroke="#303030" stroke-width="0.4" stroke-miterlimit="10"/>
<path d="M37.8495 30.2988C37.7795 29.6954 37.4511 27.3749 37.3989 26.9959C36.8871 27.2419 36.8593 27.1275 36.3724 27.4421C36.2044 27.5507 36.3301 29.5994 36.4852 30.8966C36.5384 31.3414 37.9196 30.9021 37.8495 30.2988Z" fill="#BFA687" stroke="#303030" stroke-width="0.4"/>
<path d="M39.2918 30.3414C39.4993 29.8379 39.5738 26.3703 38.9666 26.3307C38.4408 26.2959 37.3062 26.7319 37.1755 26.9052C36.7717 27.4405 37.1071 30.8003 37.7158 30.9695C38.2102 31.1069 39.0843 30.8449 39.2918 30.3414Z" fill="#BFA687" stroke="#303030" stroke-width="0.4"/>
<path d="M16.8067 15.5826L14.5133 16.4519L15.4921 21.9878L14.7441 24.0118L14.7441 30.5711L14.2943 35.9686L19.9167 35.9686L21.125 34.5443L21.125 21.2256L16.8067 15.5826Z" fill="#D6B689" stroke="#303030" stroke-width="0.4"/>
<path d="M26.0117 15.4823L28.3046 16.3541L27.3203 21.9205L28.0664 23.9547L28.2733 30.5182L29.0128 35.9806L22.8811 35.9806L21.6741 34.5498L21.6741 21.2251L26.0117 15.4823Z" fill="#D6B689" stroke="#303030" stroke-width="0.4"/>
<path d="M21.9288 1.00036C17.9175 1.04627 16.3715 5.17056 16.0999 7.02591C16.0999 7.02591 19.8118 5.94373 21.9288 5.94373C24.0458 5.94373 27.507 7.02591 27.507 7.02591C27.3189 5.1323 25.9401 0.95445 21.9288 1.00036Z" fill="#D6B689" stroke="#303030" stroke-width="0.4"/>
<path d="M21.8987 5.91044C24.0298 5.91044 27.5008 7.02511 27.5008 7.02511C27.5008 6.10312 24.7139 4.6922 21.8987 4.71585C19.0256 4.73998 16.1229 6.21635 16.1229 7.0251C16.1229 7.0251 19.7676 5.91044 21.8987 5.91044Z" fill="#937A57" stroke="#303030" stroke-width="0.4"/>
</svg>
