<svg width="16" height="42" viewBox="0 0 16 42" fill="none" xmlns="http://www.w3.org/2000/svg">
<path d="M7.56712 22.7492L8.47726 38.3432C8.51292 38.5121 8.5211 38.7185 8.45621 38.8535C8.3586 39.0575 8.31066 39.8098 8.44452 39.887C9.21262 40.3289 9.35992 40.8515 9.93804 40.9701C10.5162 41.0894 11.7607 40.8503 11.4736 40.2757C11.0949 39.5181 10.4741 39.12 10.432 38.7939C10.3805 38.3975 10.6693 38.1813 10.6418 37.7744C10.6038 37.1975 10.9855 20.5022 11.7203 20.9213C11.915 21.0324 12.3148 20.9617 12.3148 20.9617C12.3148 20.9617 12.4931 22.3845 12.7029 22.5423C12.9128 22.7001 12.8479 22.2155 13.1449 22.3476C13.405 22.4634 13.6148 23.0561 13.8983 22.7633C14.3268 22.3213 13.4705 20.6297 13.4705 20.6297C13.6926 20.5268 13.8703 20.4467 13.972 20.4116C14.3297 20.2877 13.4424 17.7876 13.0724 15.6026C12.8257 14.1459 11.9343 9.37129 11.0119 8.52838C10.5553 8.11101 8.60469 7.88011 8.52344 7.65214C8.42406 7.37214 8.41471 6.64029 8.59475 6.19019L10.1029 5.97215C10.1029 5.97215 9.96844 5.60506 9.9661 5.07078C9.96084 3.74152 9.84919 1.37528 8.0406 1.03507C7.90148 1.00877 7.75885 1 7.61739 1H7.43793C7.29589 1 7.15385 1.00877 7.01472 1.03507C5.20614 1.37469 5.09449 3.74094 5.08923 5.07078C5.08689 5.60564 4.95244 5.97215 4.95244 5.97215L6.46057 6.19019C6.64061 6.64029 6.63184 7.37214 6.53189 7.65214C6.45064 7.8807 4.50059 8.11101 4.04347 8.52838C3.12164 9.37129 2.22962 14.1459 1.98295 15.6026C1.61293 17.7876 0.725586 20.2877 1.08333 20.4116C1.18504 20.4467 1.36274 20.5268 1.58487 20.6297C1.58487 20.6297 0.728508 22.3208 1.15698 22.7633C1.44049 23.0561 1.65034 22.4634 1.91046 22.3476C2.20741 22.2155 2.14194 22.7001 2.35238 22.5423C2.56223 22.3845 2.74052 20.9617 2.74052 20.9617C2.74052 20.9617 3.14035 21.0324 3.335 20.9213C4.06978 20.5028 4.45207 37.1975 4.41349 37.7744C4.3866 38.1813 4.67478 38.397 4.62334 38.7939C4.58126 39.12 3.96047 39.5187 3.58168 40.2757C3.29467 40.8497 4.53917 41.0888 5.11728 40.9701C5.6954 40.8509 5.84329 40.3283 6.6108 39.887C6.74466 39.8098 6.69673 39.0581 6.59911 38.8535C6.53481 38.7185 6.54241 38.5121 6.57807 38.3432L7.48821 22.7492C7.49113 22.7007 7.56244 22.7007 7.56537 22.7492H7.56712Z" fill="#E5CEAE" stroke="#303030" stroke-width="0.4" stroke-miterlimit="10"/>
</svg>
