<svg width="25" height="42" viewBox="0 0 25 42" fill="none" xmlns="http://www.w3.org/2000/svg">
<path d="M9.5702 16.1586C9.83424 15.8826 10.1368 13.9375 10.1368 13.5054M15.1875 16.2547C15.0683 15.9232 14.7814 14.2854 14.6905 13.5054" stroke="#303030" stroke-width="0.4"/>
<path d="M8.88734 11.4371C9.10052 12.0519 9.34672 12.6072 9.62704 13.0353C10.4375 14.2729 14.4432 14.3351 15.2943 13.0353C15.5936 12.5781 15.8454 11.95 16.0544 11.2504" stroke="#303030" stroke-width="0.4"/>
<path d="M7.36756 6.94444C6.60007 6.94443 7.59439 8.80756 6.1676 11.1875C5.83085 11.7492 8.5222 11.9808 8.99818 11.3197C9.92656 10.0303 8.4006 6.52056 10.2624 6.28552" stroke="#303030" stroke-width="0.4"/>
<path d="M17.7924 6.95271C18.4126 7.76124 18.1425 10.2091 18.7551 11.3991C19.0275 11.9283 16.0752 11.8332 15.9251 11.0818C15.6017 9.46259 15.9059 7.11534 15.5825 6.43683" stroke="#303030" stroke-width="0.4"/>
<path d="M19.6828 34.8486C21.1144 34.3633 23.3737 32.6652 23.3737 31.4547C23.3737 30.4991 22.8721 18.6126 22.46 18.4726C21.9645 18.3044 20.4959 17.7432 19.0048 17.1766M4.85684 34.5084C4.226 34.5084 1.03519 32.5618 1.03517 31.4547C1.03517 30.7138 0.956075 23.5412 1.03517 22.2325C1.15046 20.325 2.05948 18.5682 2.25525 18.4726C2.70189 18.2547 3.80828 17.7832 5.10641 17.2725M7.69806 16.3045C8.21162 16.1246 8.70985 15.9586 9.16716 15.8184C9.16716 15.8184 9.95033 16.7202 12.437 16.7388C14.9424 16.7575 15.6827 15.9395 15.6827 15.9395C15.8833 16.0093 16.1337 16.0996 16.4195 16.2046M5.30317 36.6442L4.85684 40.606L11.4571 41H13.2552L19.6828 40.606L19.1656 36.5424" stroke="#303030" stroke-width="0.4"/>
<path d="M7.35681 15.8861L5.01577 16.7735L5.96907 22.0884L5.25135 24.1689L5.25135 31.1866L4.79221 36.6964L10.5316 36.6964L11.765 35.2425L11.765 21.6466L7.35681 15.8861Z" stroke="#303030" stroke-width="0.4"/>
<path d="M16.7535 15.7837L19.0941 16.6737L18.0893 22.356L18.851 24.4325L19.0621 31.1326L19.817 36.7087L13.5578 36.7087L12.3255 35.2481L12.3255 21.6461L16.7535 15.7837Z" stroke="#303030" stroke-width="0.4"/>
<path d="M12.5856 1.00037C8.49081 1.04724 6.91262 5.25737 6.63537 7.15134C6.63537 7.15134 10.4245 6.04663 12.5856 6.04663C14.7466 6.04663 18.2798 7.15134 18.2798 7.15134C18.0879 5.21831 16.6803 0.953502 12.5856 1.00037Z" stroke="#303030" stroke-width="0.4"/>
<path d="M12.5548 6.01261C14.7303 6.01261 18.2735 7.15048 18.2735 7.15048C18.2735 6.2093 15.4286 4.76902 12.5548 4.79316C9.6219 4.81779 6.65882 6.32489 6.65882 7.15047C6.65882 7.15047 10.3794 6.01261 12.5548 6.01261Z" stroke="#303030" stroke-width="0.4"/>
<path d="M6.28531 25.9859C7.11045 26.2097 9.10118 26.4884 10.463 25.8135" stroke="#303030" stroke-width="0.4"/>
</svg>
