<svg width="15" height="42" viewBox="0 0 15 42" fill="none" xmlns="http://www.w3.org/2000/svg">
<path d="M7.47796 23.2567L8.19561 38.4723C8.22852 38.6328 8.71523 38.8297 8.65634 38.9579C8.56743 39.1519 8.41674 39.8678 8.53914 39.9411C9.23948 40.3614 9.58704 40.8585 10.1147 40.9717C10.6425 41.0849 11.9375 40.8574 11.6753 40.3112C11.3301 39.5907 10.337 39.2113 10.2983 38.9013C10.2516 38.5243 10.8347 38.3182 10.8099 37.9313C10.7752 37.3823 10.9623 24.6954 11.3139 21.8964C11.3405 21.6845 11.9629 21.9345 11.9629 21.9345C11.9629 21.9345 11.9225 22.5661 11.8786 22.841C11.8393 23.0875 12.0685 23.0823 12.3393 23.2076C12.5766 23.3179 12.6488 24.2341 12.8751 23.9258C13.5333 23.0274 13.177 21.5067 13.177 21.5067C13.3797 21.4085 13.5419 21.2769 13.6343 21.2434C13.9605 21.1256 13.0137 16.8162 12.6765 14.7372C12.4513 13.3509 11.8688 9.97109 11.0281 9.16914C10.6119 8.77192 9.32608 8.59756 8.46293 7.95381C8.31513 7.84353 8.30069 7.07045 8.5097 6.81872C8.77124 6.50407 8.85899 6.24483 8.93059 6.12705C9.19675 5.68768 9.81106 5.94922 9.81106 5.94922C9.81106 5.94922 10.0501 4.81991 9.9427 3.15828C9.84397 1.63348 8.23141 0.548627 7.35094 1.18603C4.92777 0.721257 5.04959 2.08613 4.64083 3.01914C4.23206 3.95099 4.89948 6.00696 4.89948 6.00696C4.89948 6.00696 5.50513 5.68768 5.77129 6.12705C5.84231 6.24483 5.88907 6.53928 6.13445 6.81872C6.35038 7.06468 6.38618 7.84353 6.23895 7.95381C5.3758 8.59756 4.0906 8.77192 3.67375 9.16914C2.83254 9.97109 2.24999 13.3509 2.0254 14.7372C1.68764 16.8162 0.740778 21.1251 1.06756 21.2434C1.16052 21.2769 1.32275 21.4085 1.52483 21.5067C1.52483 21.5067 1.1686 23.0274 1.82679 23.9258C2.05253 24.2341 2.12528 23.3179 2.36257 23.2076C2.63335 23.0817 2.86257 23.0875 2.82331 22.841C2.77943 22.5656 2.73901 21.9345 2.73901 21.9345C2.73901 21.9345 3.3614 21.6845 3.38796 21.8964C3.73957 24.6954 3.92663 37.3829 3.89199 37.9313C3.86717 38.3182 4.4503 38.5237 4.40353 38.9013C4.36543 39.2113 3.37237 39.5907 3.02653 40.3112C2.76441 40.8574 4.06 41.0849 4.58713 40.9717C5.11484 40.8585 5.4624 40.3614 6.16274 39.9411C6.28456 39.8678 6.13445 39.1525 6.04554 38.9579C5.98665 38.8297 6.47336 38.6328 6.50627 38.4723L7.22392 23.2567C7.22738 23.1885 7.28339 23.1348 7.35152 23.1348C7.41965 23.1348 7.47565 23.1885 7.47911 23.2567H7.47796Z" fill="#76C69D" stroke="#303030" stroke-width="0.402117" stroke-miterlimit="10"/>
</svg>
