<svg width="22" height="42" viewBox="0 0 22 42" fill="none" xmlns="http://www.w3.org/2000/svg">
<path d="M11.5716 1.11084C12.8369 0.776172 13.5296 1.21758 14.2045 2.18932C14.7104 2.91758 14.7826 4.47305 15.095 5.1168C15.5131 5.97848 14.4958 7.28156 14.1466 8.10099C13.7975 8.92042 12.4099 9.33625 12.4099 9.33625C12.1387 9.74207 12.0697 10.6604 12.2187 10.9128C12.341 11.1185 14.1789 11.4232 14.866 11.799C16.2536 12.5573 17.9981 15.6726 18.6429 17.2681C19.4057 19.1516 20.7165 22.3848 20.0027 22.4916C19.8482 22.5149 19.4446 22.6272 19.4446 22.6272C19.4446 22.6272 20.095 24.5151 19.4501 24.9131C19.0232 25.1767 18.9365 23.9614 18.5451 23.858C18.0981 23.739 18.1571 24.1471 17.8413 24.0048C17.5255 23.8625 17.4922 22.963 17.4922 22.963C17.4922 22.963 16.4159 22.6305 16.4448 22.963C16.9529 28.8468 16.0001 36.2473 15.6632 36.97C15.5098 37.2991 14.6892 38.1018 15.015 38.2019C17.1742 38.8634 17.0441 40.4222 16.6672 40.7569C16.208 41.1627 15.184 40.9492 14.349 40.8992C13.474 40.847 13.2561 40.3222 12.1009 39.9241C11.8996 39.8552 11.9608 38.7689 12.0219 38.5343C12.1598 38.0029 11.5149 37.7761 11.4604 37.6248L10.7889 27.7817C10.7844 27.6883 10.7033 27.6149 10.6043 27.6149C10.5054 27.6149 10.4253 27.6883 10.4198 27.7817L9.74821 37.6248C9.69484 37.7772 9.04996 38.004 9.18672 38.5343C9.24787 38.7689 9.30903 39.8552 9.10778 39.9241C7.95147 40.3222 7.73355 40.847 6.85964 40.8992C6.02465 40.9492 5.00064 41.1627 4.54145 40.7569C4.16343 40.4222 4.03334 38.8634 6.19365 38.2019C6.51942 38.1018 5.69887 37.2991 5.54544 36.97C5.20855 36.2473 4.25682 28.8468 4.76382 22.963C4.79273 22.6305 3.71646 22.963 3.71646 22.963C3.71646 22.963 3.68422 23.8636 3.36734 24.0048C3.05158 24.1471 3.11051 23.739 2.66355 23.858C2.27218 23.9625 2.18546 25.1778 1.75851 24.9131C1.11364 24.5151 1.76406 22.6272 1.76406 22.6272C1.76406 22.6272 1.36047 22.5149 1.20593 22.4916C0.492125 22.3848 1.80298 19.1516 2.56571 17.2681C3.21169 15.6726 4.95505 12.5573 6.34263 11.799C7.02975 11.4232 8.86762 11.1185 8.98992 10.9128C9.14002 10.6604 9.06998 9.74207 8.79869 9.33625C8.79869 9.33625 7.40221 8.89596 7.06199 8.10099C6.71176 7.28267 5.65107 6.05186 6.06356 5.18796C6.43158 4.41523 5.95571 3.83707 6.46159 3.10993C7.13648 2.13818 8.04376 1.13196 9.32126 1.42438C10.3075 1.65119 10.9646 1.27428 11.5761 1.11195L11.5716 1.11084Z" fill="#76C69D" stroke="#303030" stroke-width="0.4" stroke-miterlimit="10"/>
</svg>
