<svg width="32" height="42" viewBox="0 0 32 42" fill="none" xmlns="http://www.w3.org/2000/svg">
<path d="M17.8925 12.938C17.9305 13.2637 18.0188 13.7275 18.1165 14.1768M13.506 12.8592C13.506 13.066 13.442 13.6271 13.3464 14.1768" stroke="#303030" stroke-width="0.4"/>
<path d="M5.77641 39.0045C5.94911 39.2857 5.98392 39.4881 5.81961 39.6451C5.01449 40.4145 7.9921 41.347 8.33047 39.3922C8.47306 38.5685 8.43843 38.0263 8.19748 37.6768" stroke="#303030" stroke-width="0.4"/>
<path d="M25.6315 39.0242C25.3399 39.4513 25.2582 39.7406 25.4693 39.9406C26.2808 40.7093 23.2763 41.6446 22.9367 39.6899C22.7813 38.7951 22.8365 38.2324 23.1402 37.8878" stroke="#303030" stroke-width="0.4"/>
<path d="M11.9041 9.79316C12.1758 10.8295 12.5995 11.7261 13.0383 12.3963C13.8286 13.6032 17.7349 13.6638 18.5649 12.3963C18.9233 11.8489 19.2118 11.0501 19.4392 10.1795" stroke="#303030" stroke-width="0.4"/>
<path d="M17.2305 1.81394C11.9945 -0.207488 13.1785 2.17291 11.2855 2.1729C10.5371 2.17289 8.74431 8.88473 11.7066 11.0723C12.2204 11.4517 11.4693 7.57506 12.3661 7.22506C13.559 6.47797 12.8789 4.94964 14.6945 4.72043C15.5703 4.60986 16.378 4.34684 16.8391 3.65781" stroke="#303030" stroke-width="0.4"/>
<path d="M20.0607 11.0357C19.7026 11.4926 19.3643 10.0097 19.218 9.27694C18.9026 7.69796 19.2021 6.96035 18.8867 6.29868C18.3836 5.24315 15.9521 4.89304 17.1493 1.80726C19.9312 0.177733 20.5859 4.36413 21.3419 5.34971C21.9467 6.13818 20.3247 10.6989 20.0607 11.0357Z" stroke="#303030" stroke-width="0.4"/>
<path d="M4.90735 38.2455L5.39577 39.1629L8.50793 37.5059L8.01952 36.5885" stroke="#303030" stroke-width="0.4"/>
<path d="M26.4997 38.1184L26.0439 39.1831L22.6801 37.6963L23.1468 36.6316" stroke="#303030" stroke-width="0.4"/>
<path d="M11.2881 14.9299L12.6917 14.8322L12.8747 13.9572L15.7114 14.3232L18.5351 13.9572L18.7051 14.8322L19.9586 14.9299" stroke="#303030" stroke-width="0.4"/>
<path d="M25.4468 16.4189C24.5422 16.1118 21.6832 15.3133 20.2102 14.8009C20.2102 14.8009 18.261 16.4371 15.8178 16.4189C13.3928 16.4008 11.1211 14.8009 11.1211 14.8009C8.75283 15.5272 6.46948 15.9903 5.59127 16.4189C5.23846 16.591 2.58252 23.6766 1.20752 27.6142C0.961479 28.3188 0.901778 28.7439 1.20753 29.455C1.42023 29.9497 3.9853 37.6912 4.26328 38.1583C4.54127 38.6254 8.14977 36.8886 8.38674 36.4163C8.64553 35.9005 5.43152 29.055 5.56702 28.5623C5.90806 27.3224 7.53084 23.6151 8.05051 22.5191L9.29937 31.3572L8.38674 39.2827L14.8232 39.667H16.5767L22.8447 39.2827L21.836 31.3572L23.0513 22.5191L25.8949 28.5623L22.8447 36.4163C23.4161 37.3397 26.8714 38.5406 27.0557 38.1583C27.3118 37.6269 29.6187 30.5512 30.1364 29.455C30.4143 28.8665 30.3581 28.1892 30.1364 27.6142C28.8588 24.3004 25.8487 16.5553 25.4468 16.4189Z" stroke="#303030" stroke-width="0.4"/>
</svg>
