<svg width="31" height="42" viewBox="0 0 31 42" fill="none" xmlns="http://www.w3.org/2000/svg">
<path d="M15.7303 19.2931C14.1639 19.3081 12.3085 16.8479 12.8092 16.3244C13.0715 16.0502 13.3814 13.8445 13.3814 13.4152C13.3814 12.8322 17.8267 12.9932 17.8759 13.4152C17.9662 14.19 18.2706 16.0906 18.389 16.4198C18.5563 16.8847 17.2557 19.2786 15.7303 19.2931Z" fill="#F2E8DA" stroke="#303030" stroke-width="0.4"/>
<path d="M12.8656 13.2219C11.6344 11.3417 11.0658 6.99111 11.0658 5.98414C11.0108 4.71874 13.2123 2.69858 15.6489 2.69858C17.8747 2.69858 20.1064 4.52755 20.1064 5.98414C20.1064 6.98513 19.6694 11.4283 18.495 13.2219C17.6496 14.513 13.6706 14.4512 12.8656 13.2219Z" fill="#F2E8DA" stroke="#303030" stroke-width="0.4"/>
<path d="M15.631 5.10027C15.631 4.04702 15.1508 4.05874 15.4825 3.37166C15.6265 3.07325 15.9577 2.5693 15.4825 1.76847C15.0073 0.967649 14.7456 1.97178 13.4652 1.52792C11.8945 0.983438 12.404 2.78928 10.9549 2.78928C10.2946 2.78928 9.14611 2.79753 9.32961 3.88127C9.5403 5.12564 8.69473 4.32934 8.44077 5.78594C8.23586 6.96129 9.77356 7.48743 8.63076 7.89376C7.64034 8.45246 9.49185 10.4713 9.32961 11.0174C9.11209 11.7495 10.819 11.9119 11.8945 11.0174C12.9604 10.131 10.6512 8.09692 11.5136 7.89376C12.5109 7.65883 12.7746 5.60395 13.3286 5.78594C14.3986 6.1374 15.631 5.63214 15.631 5.10027Z" fill="#E5CEAE" stroke="#303030" stroke-width="0.4"/>
<path d="M15.631 5.10015C15.631 4.0469 14.8072 4.13013 15.631 3.01317C16.1123 2.36067 15.1212 1.68158 15.9577 1.68158C16.7942 1.68158 16.6986 1.14032 17.3575 1.03287C18.9281 0.776742 18.401 2.10869 19.8329 1.88645C20.8231 1.73277 21.7024 2.99872 21.5189 4.08245C21.3082 5.32683 22.9714 4.32922 23.2253 5.78582C23.4302 6.96118 22.3664 7.09066 23.0647 8.07738C23.9882 9.38226 21.4099 9.60567 21.8803 11.189C22.0978 11.9212 20.1137 11.9519 19.3675 11.0173C18.5025 9.9339 20.2299 8.28055 19.3675 8.07738C18.3703 7.84246 18.3567 6.47439 18.1463 5.62823C17.9103 4.67898 15.631 5.63202 15.631 5.10015Z" fill="#E5CEAE" stroke="#303030" stroke-width="0.4"/>
<path d="M25.5047 18.3379C24.5833 18.0251 21.6711 17.2118 20.1707 16.6899C20.1707 16.6899 19.0998 16.3672 18.9706 15.5145C18.2983 15.5147 16.6532 15.8052 15.7922 15.7987C14.8981 15.7921 13.0102 15.5141 12.252 15.5145C12.097 16.3414 10.9124 16.6899 10.9124 16.6899C8.50013 17.4297 6.17429 17.9014 5.27974 18.3379C4.92036 18.5133 1.17967 27.8512 1.00052 32.5356C0.941084 34.0896 6.01161 34.9962 6.37736 34.7243C6.65261 34.5197 7.27187 30.4066 7.27187 29.9416C7.27187 29.4766 5.90521 29.8707 6.37736 29.6728C7.73159 29.1054 7.20906 24.2487 7.78474 23.533L8.12723 33.054L6.98434 40.6086L13.5507 41H16.4696L22.8543 40.6086L21.8268 32.5356L23.0646 23.533L25.5047 31.7819C28.9076 31.1457 28.6706 35.2351 28.4457 30.6847C28.36 28.952 25.9141 18.4769 25.5047 18.3379Z" fill="#5BA27E" stroke="#303030" stroke-width="0.4"/>
<path d="M6.72728 33.4784C7.82526 33.9695 9.77942 34.7321 10.3958 33.4785C11.3319 31.5743 10.3444 31.8352 9.36441 31.3038C9.87906 31.4161 10.6271 30.0766 10.0114 30.3113C9.75301 30.4098 7.88698 30.492 7.20963 30.2149L6.72728 33.4784Z" fill="#F2E8DA" stroke="#303030" stroke-width="0.4"/>
<path d="M9.86888 31.4947L12.9057 27.3618L13.337 27.7263L10.3778 31.7377L9.86888 31.4947Z" fill="#BFA687" stroke="#303030" stroke-width="0.4"/>
<path d="M7.9686 34.0252L7.39418 34.7496L7.83505 35.1354L8.58264 34.1642L7.9686 34.0252Z" fill="#BFA687" stroke="#303030" stroke-width="0.4"/>
<path d="M24.0045 35.8181C23.8013 36.4952 26.5849 36.4757 26.8247 36.4283C29.0317 35.9916 28.8794 32.4426 28.179 31.6719L26.668 31.5294L25.4717 33.6737L24.0045 35.8181Z" fill="#5BA27E" stroke="#303030" stroke-width="0.4"/>
<mask id="path-10-inside-1_1111_702" fill="white">
<path fill-rule="evenodd" clip-rule="evenodd" d="M24.4119 32.6406C24.3226 30.8203 24.9945 29.8463 25.5284 31.3647C26.2928 33.5389 27.1126 30.8585 27.0658 29.4358C26.9999 27.434 25.5348 25.4935 23.6249 24.2024C20.1521 21.8548 18.6241 21.7999 16.8006 23.2477C15.3248 24.4195 14.4934 27.0863 16.2118 30.0316C19.2398 35.2215 24.5265 34.9734 24.4119 32.6406ZM22.9116 31.6575C22.6083 31.3921 22.1473 31.4228 21.8819 31.7261C21.6165 32.0294 21.6473 32.4904 21.9506 32.7558C22.2539 33.0212 22.7149 32.9904 22.9803 32.6871C23.2456 32.3838 23.2149 31.9228 22.9116 31.6575Z"/>
</mask>
<path fill-rule="evenodd" clip-rule="evenodd" d="M24.4119 32.6406C24.3226 30.8203 24.9945 29.8463 25.5284 31.3647C26.2928 33.5389 27.1126 30.8585 27.0658 29.4358C26.9999 27.434 25.5348 25.4935 23.6249 24.2024C20.1521 21.8548 18.6241 21.7999 16.8006 23.2477C15.3248 24.4195 14.4934 27.0863 16.2118 30.0316C19.2398 35.2215 24.5265 34.9734 24.4119 32.6406ZM22.9116 31.6575C22.6083 31.3921 22.1473 31.4228 21.8819 31.7261C21.6165 32.0294 21.6473 32.4904 21.9506 32.7558C22.2539 33.0212 22.7149 32.9904 22.9803 32.6871C23.2456 32.3838 23.2149 31.9228 22.9116 31.6575Z" fill="#BFA687"/>
<path d="M25.5284 31.3647L25.151 31.4973L25.5284 31.3647ZM24.4119 32.6406L24.8115 32.621L24.4119 32.6406ZM27.0658 29.4358L27.4656 29.4226L27.4656 29.4226L27.0658 29.4358ZM23.6249 24.2024L23.4008 24.5338L23.6249 24.2024ZM16.8006 23.2477L16.5519 22.9345L16.5519 22.9345L16.8006 23.2477ZM16.2118 30.0316L15.8663 30.2331L15.8663 30.2331L16.2118 30.0316ZM25.5284 31.3647L25.9057 31.232C25.7685 30.8416 25.5919 30.5088 25.3424 30.3376C25.2006 30.2404 25.0201 30.1863 24.8259 30.2317C24.6444 30.2741 24.5126 30.3894 24.4233 30.5017C24.2501 30.7197 24.1429 31.0425 24.08 31.3883C24.0149 31.7472 23.9889 32.1805 24.0124 32.6602L24.4119 32.6406L24.8115 32.621C24.7903 32.1906 24.8148 31.8195 24.8672 31.5313C24.9219 31.2299 24.9993 31.0629 25.0496 30.9995C25.0721 30.9712 25.0618 30.9981 25.008 31.0107C24.9416 31.0262 24.895 31.0008 24.8899 30.9973C24.8897 30.9972 24.8922 30.9989 24.8969 31.0033C24.9017 31.0076 24.9083 31.0143 24.9167 31.024C24.9337 31.0437 24.9554 31.073 24.9807 31.1151C25.0319 31.2002 25.0902 31.3245 25.151 31.4973L25.5284 31.3647ZM27.0658 29.4358L26.666 29.4489C26.6877 30.1072 26.5029 31.063 26.2452 31.5669C26.1822 31.6901 26.1288 31.7577 26.0959 31.7873C26.0664 31.8137 26.0966 31.7743 26.1668 31.7866C26.2218 31.7963 26.2072 31.8229 26.1399 31.7299C26.0761 31.6418 25.995 31.4859 25.9057 31.232L25.5284 31.3647L25.151 31.4973C25.2528 31.787 25.3645 32.023 25.4917 32.1988C25.6154 32.3698 25.7899 32.5327 26.0285 32.5746C26.2823 32.6191 26.4906 32.508 26.6303 32.3826C26.7664 32.2604 26.8731 32.0961 26.9574 31.9312C27.289 31.2828 27.4908 30.187 27.4656 29.4226L27.0658 29.4358ZM23.6249 24.2024L23.4008 24.5338C25.2561 25.788 26.6061 27.6268 26.666 29.4489L27.0658 29.4358L27.4656 29.4226C27.3938 27.2412 25.8134 25.1991 23.8489 23.871L23.6249 24.2024ZM16.8006 23.2477L17.0494 23.561C17.9101 22.8776 18.6437 22.5898 19.5463 22.6989C20.4891 22.8128 21.6717 23.3649 23.4008 24.5338L23.6249 24.2024L23.8489 23.871C22.1052 22.6923 20.7875 22.0431 19.6423 21.9046C18.4568 21.7614 17.5147 22.17 16.5519 22.9345L16.8006 23.2477ZM16.2118 30.0316L16.5573 29.83C14.9259 27.0338 15.7491 24.5934 17.0494 23.561L16.8006 23.2477L16.5519 22.9345C14.9005 24.2457 14.061 27.1389 15.8663 30.2331L16.2118 30.0316ZM24.4119 32.6406L24.0124 32.6602C24.0321 33.0611 23.8334 33.3801 23.4222 33.591C22.9945 33.8104 22.344 33.9005 21.5593 33.7631C20.0017 33.4904 18.0185 32.3345 16.5573 29.83L16.2118 30.0316L15.8663 30.2331C17.433 32.9185 19.6072 34.2335 21.4213 34.5511C22.3224 34.7089 23.1614 34.6239 23.7873 34.3028C24.4298 33.9733 24.849 33.3866 24.8115 32.621L24.4119 32.6406ZM21.8819 31.7261L22.183 31.9895C22.3029 31.8525 22.5112 31.8386 22.6482 31.9585L22.9116 31.6575L23.175 31.3564C22.7054 30.9456 21.9917 30.9932 21.5809 31.4628L21.8819 31.7261ZM21.9506 32.7558L22.214 32.4548C22.0769 32.3349 22.0631 32.1266 22.183 31.9895L21.8819 31.7261L21.5809 31.4628C21.17 31.9323 21.2176 32.646 21.6872 33.0569L21.9506 32.7558ZM22.9803 32.6871L22.6792 32.4238C22.5593 32.5608 22.351 32.5747 22.214 32.4548L21.9506 32.7558L21.6872 33.0569C22.1568 33.4677 22.8705 33.4201 23.2813 32.9505L22.9803 32.6871ZM22.9116 31.6575L22.6482 31.9585C22.7852 32.0784 22.7991 32.2867 22.6792 32.4238L22.9803 32.6871L23.2813 32.9505C23.6921 32.481 23.6445 31.7673 23.175 31.3564L22.9116 31.6575Z" fill="#303030" mask="url(#path-10-inside-1_1111_702)"/>
<path d="M20.4354 30.7431C20.5515 30.8445 20.3678 31.109 20.2542 31.2932C20.1529 31.4574 20.1776 31.5253 20.1855 31.6424C20.1935 31.7595 19.8566 31.7487 19.685 31.8192C19.5133 31.8897 19.3192 31.8776 19.1663 31.7284C19.0133 31.5791 19.0533 31.4251 18.906 31.3595C18.7587 31.2939 18.7504 30.9248 18.5953 30.8681C18.4402 30.8114 18.8433 30.3135 18.8766 30.1852C18.9099 30.0569 19.1497 29.9986 19.3359 30.0195C19.5222 30.0405 19.7195 29.9767 19.8634 29.9921C20.0073 30.0076 20.0922 30.1447 20.1125 30.3197C20.1328 30.4948 20.3193 30.6418 20.4354 30.7431Z" fill="#7F99AE" stroke="#303030" stroke-width="0.4"/>
<path d="M17.872 29.2083C17.7375 29.2837 17.55 29.0219 17.4146 28.8531C17.2939 28.7025 17.2217 28.703 17.1087 28.6712C16.9958 28.6394 17.1189 28.3257 17.1101 28.1404C17.1014 27.955 17.1778 27.7762 17.3697 27.6822C17.5617 27.5882 17.6933 27.6775 17.8046 27.5608C17.9158 27.444 18.2663 27.5601 18.3718 27.433C18.4772 27.306 18.811 27.8528 18.9206 27.9272C19.0303 28.0016 19.0048 28.247 18.9225 28.4155C18.8403 28.5839 18.8342 28.7912 18.7714 28.9216C18.7085 29.0519 18.5509 29.0859 18.3792 29.0463C18.2074 29.0067 18.0064 29.133 17.872 29.2083Z" fill="#BED5E8" stroke="#303030" stroke-width="0.4"/>
<path d="M17.9456 24.5685C17.9515 24.4145 18.2727 24.3912 18.4873 24.3638C18.6788 24.3395 18.716 24.2776 18.8021 24.1979C18.8882 24.1181 19.0915 24.3869 19.2542 24.4762C19.4169 24.5654 19.5294 24.724 19.5094 24.9368C19.4894 25.1496 19.3446 25.2152 19.3861 25.371C19.4276 25.5269 19.1456 25.7652 19.1989 25.9215C19.2523 26.0778 18.6116 26.077 18.4909 26.1317C18.3701 26.1864 18.1742 26.0365 18.0735 25.8785C17.9727 25.7204 17.7991 25.6069 17.7207 25.4853C17.6423 25.3637 17.6956 25.2115 17.819 25.0857C17.9425 24.9599 17.9397 24.7225 17.9456 24.5685Z" fill="#DDF1E7" stroke="#303030" stroke-width="0.4"/>
<path d="M21.4081 26.5566C21.2631 26.6086 21.1216 26.3193 21.0161 26.1304C20.9221 25.9618 20.8508 25.9503 20.7447 25.9002C20.6386 25.8501 20.8121 25.5612 20.8342 25.3769C20.8563 25.1927 20.9614 25.0291 21.1663 24.9683C21.3712 24.9074 21.4862 25.0173 21.6153 24.9207C21.7443 24.8241 22.0707 24.9968 22.1958 24.889C22.3209 24.7811 22.5592 25.3758 22.655 25.4674C22.7508 25.559 22.6849 25.7967 22.5758 25.9492C22.4667 26.1016 22.4263 26.305 22.3426 26.4232C22.259 26.5413 22.098 26.5486 21.9352 26.481C21.7724 26.4134 21.5532 26.5046 21.4081 26.5566Z" fill="#A9DBC2" stroke="#303030" stroke-width="0.4"/>
<path d="M24.594 28.5112C24.5521 28.6596 24.2344 28.6068 24.0193 28.5831C23.8275 28.5618 23.7768 28.6132 23.6744 28.6705C23.572 28.7278 23.4374 28.4189 23.3002 28.2939C23.163 28.169 23.0908 27.9884 23.1602 27.7863C23.2296 27.5841 23.3858 27.5543 23.382 27.3931C23.3783 27.2319 23.7083 27.0663 23.6931 26.9019C23.678 26.7375 24.3005 26.8886 24.4307 26.8637C24.5609 26.8389 24.7162 27.0306 24.7771 27.2079C24.8379 27.3852 24.9801 27.5362 25.0277 27.6728C25.0754 27.8095 24.9879 27.9449 24.8383 28.0382C24.6888 28.1315 24.6358 28.3629 24.594 28.5112Z" fill="#76C69D" stroke="#303030" stroke-width="0.4"/>
<path d="M24.5902 34.9384C23.3262 34.9384 21.1795 33.0873 21.814 31.9362C22.5803 30.5462 23.7602 32.6762 24.1164 31.8008C24.2206 31.1547 24.5612 30.6495 24.8387 30.5593C25.6725 30.2884 25.4376 32.1128 26.2504 32.1128C26.3437 32.1128 24.8989 34.9384 24.5902 34.9384Z" fill="#F2E8DA" stroke="#303030" stroke-width="0.4"/>
<path d="M14.7126 26.5132C14.7126 27.2815 13.7251 27.9669 13.1912 27.5079C12.4706 27.1509 12.8161 26.3075 13.4048 26.0543C13.9385 25.8247 13.9653 25.1617 14.8727 25.1617C14.7304 25.4167 14.7126 25.9011 14.7126 26.5132Z" fill="#BED5E8" stroke="#303030" stroke-width="0.4"/>
</svg>
