<svg width="42" height="42" viewBox="0 0 42 42" fill="none" xmlns="http://www.w3.org/2000/svg">
<path d="M18.9749 15.8495C19.2336 15.579 19.5346 13.6835 19.5346 13.2602M24.4777 15.9435C24.3609 15.6189 24.0759 14.0243 23.9869 13.2602" stroke="#303030" stroke-width="0.4"/>
<path d="M18.3074 11.2284C18.5159 11.829 18.7566 12.3714 19.0306 12.7898C19.8245 14.0022 23.7485 14.0631 24.5823 12.7898C24.872 12.3472 25.1163 11.741 25.3197 11.0654" stroke="#303030" stroke-width="0.4"/>
<path d="M16.8491 6.82658C16.0973 6.82658 17.0394 8.64826 15.6417 10.9796C15.3118 11.5299 17.9483 11.7568 18.4145 11.1092C19.324 9.84603 17.9343 6.40209 19.7581 6.17184" stroke="#303030" stroke-width="0.4"/>
<path d="M27.0605 6.85742C27.668 7.64946 27.3724 10.0212 27.9725 11.1869C28.2394 11.7053 25.3472 11.6122 25.2002 10.876C24.8834 9.28989 25.1428 6.97754 24.8259 6.31286" stroke="#303030" stroke-width="0.4"/>
<path d="M28.0675 23.9899C28.2184 25.1895 28.938 32.2167 29.4186 32.3809C30.3642 32.7038 35.8725 32.9944 36.4304 31.8368C36.6877 31.303 35.9103 28.1354 36.4304 27.0342C36.7596 26.337 33.1328 28.3815 33.1328 27.7625C33.1328 26.8264 32.0056 18.2533 31.6019 18.1163C31.1212 17.9531 29.7057 17.4123 28.2597 16.8629M14.7502 24.0588C14.7502 25.484 14.9596 34.1583 11.8091 34.1583C10.2289 34.1583 4.52273 27.1332 4.58529 26.6019C4.64737 26.0747 7.62255 23.1202 7.89015 22.7376C8.15775 22.355 10.4859 26.3323 10.6139 25.9657C10.6139 25.2399 10.5364 23.0815 10.6139 21.7995C10.7269 19.9309 11.6173 18.2099 11.8091 18.1163C12.2461 17.903 13.3279 17.442 14.5977 16.9424M25.6739 15.8906C25.3984 15.7894 25.1567 15.7022 24.9627 15.6348C24.9627 15.6348 24.2376 16.4361 21.7833 16.4178C19.3473 16.3996 18.5801 15.5161 18.5801 15.5161C18.1273 15.655 17.6335 15.8196 17.1247 15.9981M28.3747 35.8176L28.8813 39.7983L22.5848 40.1843H20.8234L14.3577 39.7983L14.816 35.8176" stroke="#303030" stroke-width="0.4"/>
<path d="M7.03748 21.7074C7.23237 22.2407 7.40541 22.4017 7.53456 22.9668C7.57914 23.1618 6.37622 24.3197 5.34549 25.5297C5.05494 25.8707 4.38247 24.4587 4.33774 24.0145" stroke="#303030" stroke-width="0.4"/>
<path d="M6.8373 19.5949L1.22744 12.8164L2.9964 11.3526L10.067 19.8966C10.067 19.8966 10.0672 19.9 10.0655 19.8997L6.8373 19.5949Z" stroke="#303030" stroke-width="0.4" stroke-miterlimit="10"/>
<path d="M7.34055 22.1586L10.062 19.9065C10.0651 19.9042 10.0637 19.8991 10.0596 19.8988L6.83731 19.5949L6.37704 19.9759" stroke="#303030" stroke-width="0.4" stroke-miterlimit="10"/>
<path d="M4.10694 13.5003L4.50328 13.1727" stroke="#303030" stroke-width="0.4" stroke-miterlimit="10"/>
<path d="M3.14919 12.7425L3.74163 12.2522" stroke="#303030" stroke-width="0.4" stroke-miterlimit="10"/>
<path d="M4.67252 14.5833L5.2648 14.0928" stroke="#303030" stroke-width="0.4" stroke-miterlimit="10"/>
<path d="M7.7189 18.2644L8.31134 17.7742" stroke="#303030" stroke-width="0.4" stroke-miterlimit="10"/>
<path d="M8.62355 20.3742L7.6 21.2213L7.08822 21.6448" stroke="#303030" stroke-width="0.4" stroke-miterlimit="10"/>
<path d="M8.67663 19.0222L9.07297 18.6945" stroke="#303030" stroke-width="0.4" stroke-miterlimit="10"/>
<path d="M5.63027 15.3412L6.02645 15.0132" stroke="#303030" stroke-width="0.4" stroke-miterlimit="10"/>
<path d="M6.19571 16.4238L6.78815 15.9336" stroke="#303030" stroke-width="0.4" stroke-miterlimit="10"/>
<path d="M7.15347 17.1817L7.54981 16.854" stroke="#303030" stroke-width="0.4" stroke-miterlimit="10"/>
<path d="M3.07068 22.6003C3.30431 22.081 5.84615 19.4898 6.29394 19.9024C6.68206 20.2592 7.13742 21.4034 7.09785 21.6252C6.97559 22.3105 4.23206 24.5247 3.68636 24.2059C3.24316 23.9469 2.83705 23.1196 3.07068 22.6003Z" stroke="#303030" stroke-width="0.4"/>
<path d="M39.2506 32.3749L37.6042 32.4741C37.5167 32.4794 37.45 32.5546 37.4553 32.6421L37.4877 33.1807C37.493 33.2682 37.5682 33.3349 37.6558 33.3296L39.3022 33.2304C39.3897 33.2251 39.4564 33.1499 39.4511 33.0624L39.4187 32.5239C39.4134 32.4363 39.3382 32.3696 39.2506 32.3749Z" stroke="#303030" stroke-width="0.4" stroke-miterlimit="10"/>
<path d="M38.7817 26.3385L38.7694 26.166L38.7203 25.4759L38.622 24.0956L38.4254 21.335L37.098 21.4147L37.3769 26.7996M39.0888 30.6519L39.1133 30.997L39.2116 32.3773L37.6434 32.4718L37.5753 31.0896" stroke="#303030" stroke-width="0.4" stroke-miterlimit="10"/>
<path d="M40.72 18.2381L39.7614 18.2958C39.679 18.3008 39.6162 18.3716 39.6211 18.4541L39.7338 20.3248C39.7388 20.4072 39.8096 20.4701 39.8921 20.4651L40.8507 20.4073C40.9332 20.4024 40.996 20.3315 40.991 20.2491L40.8783 18.3783C40.8733 18.2959 40.8025 18.2331 40.72 18.2381Z" stroke="#303030" stroke-width="0.4" stroke-miterlimit="10"/>
<path d="M34.8972 19.553C34.2545 20.4568 34.0489 20.9783 34.0131 21.33C33.9773 21.6818 34.2744 21.687 34.6294 21.2928C35.0602 20.8144 36.009 19.7115 36.7106 20.3368C37.026 20.6181 37.098 21.4147 37.098 21.4147L38.4254 21.3346C38.4254 21.3346 38.4144 20.2171 38.7825 20.149C39.2802 20.0566 39.175 20.3742 39.3706 20.3835C39.4548 20.3875 39.7358 20.357 39.7358 20.357L39.6197 18.4313L39.2563 18.4488C39.0006 18.4748 39.1504 18.7752 38.7202 18.7909C38.3637 18.8037 38.4645 18.4964 38.2111 18.5117C37.3974 18.5606 35.6043 18.5578 34.8972 19.553Z" stroke="#303030" stroke-width="0.4" stroke-miterlimit="10"/>
<path d="M37.0959 27.1176C37.0959 27.1176 36.8593 27.1275 36.3724 27.4421C36.2044 27.5507 36.3301 29.5994 36.4852 30.8966C36.5384 31.3415 37.6218 30.9848 37.6654 30.8526" stroke="#303030" stroke-width="0.4"/>
<path d="M39.2918 30.3414C39.4993 29.8379 39.5738 26.3703 38.9666 26.3307C38.4408 26.2959 37.3062 26.7319 37.1755 26.9051C36.7717 27.4405 37.1071 30.8003 37.7158 30.9695C38.2102 31.1069 39.0843 30.8449 39.2918 30.3414Z" stroke="#303030" stroke-width="0.4"/>
<path d="M16.8067 15.5826L14.5133 16.452L15.4921 21.9878L14.7441 24.0119L14.7441 30.5712L14.2943 35.9687L19.9167 35.9687L21.125 34.5443L21.125 21.2257L16.8067 15.5826Z" stroke="#303030" stroke-width="0.4"/>
<path d="M26.0117 15.4824L28.3046 16.3541L27.3203 21.9206L28.0664 23.9547L28.2733 30.5182L29.0128 35.9806L22.8811 35.9806L21.6741 34.5498L21.6741 21.2252L26.0117 15.4824Z" stroke="#303030" stroke-width="0.4"/>
<path d="M21.9288 1.00036C17.9175 1.04627 16.3715 5.17056 16.0999 7.02591C16.0999 7.02591 19.8118 5.94373 21.9288 5.94373C24.0458 5.94373 27.507 7.02591 27.507 7.02591C27.3189 5.1323 25.9401 0.95445 21.9288 1.00036Z" stroke="#303030" stroke-width="0.4"/>
<path d="M21.8987 5.91041C24.0298 5.91041 27.5008 7.02508 27.5008 7.02508C27.5008 6.10309 24.7139 4.69217 21.8987 4.71582C19.0256 4.73995 16.1229 6.21632 16.1229 7.02507C16.1229 7.02507 19.7676 5.91041 21.8987 5.91041Z" stroke="#303030" stroke-width="0.4"/>
</svg>
