<svg width="42" height="40" viewBox="0 0 42 40" fill="none" xmlns="http://www.w3.org/2000/svg">
<path d="M27.0927 17.6776C25.6152 17.6917 23.8649 15.3709 24.3372 14.8771C24.5846 14.6184 24.877 12.5378 24.877 12.1329C24.877 11.5829 29.0704 11.7347 29.1168 12.1328C29.202 12.8637 29.4891 14.6565 29.6008 14.9671C29.7586 15.4057 28.5317 17.6639 27.0927 17.6776Z" fill="#937A57" stroke="#303030" stroke-width="0.395377"/>
<path d="M12.7333 34.0399C11.1719 35.1335 10.1941 36.4643 9.33182 35.4678C7.82621 33.7279 8.83893 33.2645 9.76335 32.7632C9.27787 32.8692 8.75104 31.3782 9.33182 31.5996C9.5756 31.6925 10.1395 32.2211 10.8871 31.7737C11.3627 31.4892 13.4332 33.5497 12.7333 34.0399Z" fill="#937A57" stroke="#303030" stroke-width="0.395377"/>
<path d="M24.3905 11.9505C23.229 10.1768 22.6927 6.07281 22.6927 5.12291C22.6408 3.92923 24.7176 2.02356 27.016 2.02356C29.1156 2.02356 31.2209 3.74887 31.2209 5.12291C31.2209 6.06717 30.8087 10.2585 29.7008 11.9505C28.9033 13.1684 25.1498 13.1101 24.3905 11.9505Z" fill="#937A57" stroke="#303030" stroke-width="0.395377"/>
<path d="M20.1782 8.15637C19.7853 8.62781 22.0009 11.3296 22.8626 10.9933C24.0088 10.2755 23.2245 5.15344 24.9691 4.9332C26.3337 4.76093 28.2222 3.55274 28.4186 1.7821C23.3875 -0.160249 24.5252 2.12702 22.7062 2.12701C21.987 2.12701 20.9408 7.24122 20.1782 8.15637Z" fill="#261F14" stroke="#303030" stroke-width="0.395377"/>
<path d="M31.3698 2.32033C32.1785 2.97819 33.839 8.25277 34.1015 8.56143C34.4932 9.02191 31.1872 11.673 30.8841 11.0372C30.4007 10.023 31.1041 4.64299 27.5957 3.86388C26.6422 3.65212 28.4456 2.20361 28.4456 1.78597C28.4456 1.17494 30.7637 1.82727 31.3698 2.32033Z" fill="#261F14" stroke="#303030" stroke-width="0.395377"/>
<path d="M31.4416 14.5723V27.2813H22.3811V14.5723L23.9504 14.4932C23.9802 14.5397 24.019 14.5997 24.0695 14.668C24.1913 14.8324 24.3755 15.0504 24.6252 15.2667C25.1256 15.7001 25.8937 16.129 26.9514 16.0997C28.0022 16.0705 28.7659 15.6451 29.2649 15.2276C29.5137 15.0193 29.6976 14.8127 29.8195 14.6573C29.8696 14.5935 29.9079 14.5367 29.9377 14.4932L31.4416 14.5723Z" fill="#7F99AE" stroke="#303030" stroke-width="0.395377"/>
<path d="M36.3133 15.8156C35.4441 15.5206 32.6969 14.7533 31.2815 14.261C31.2815 14.261 29.3038 20.3558 26.9562 20.3382C24.6261 20.3209 22.548 14.261 22.548 14.261C20.2724 14.9589 18.0784 15.4038 17.2345 15.8156C16.8955 15.9811 15.9949 21.808 14.6737 25.5916C14.4373 26.2686 11.2866 30.7276 10.9096 31.1517C10.5326 31.5759 12.3851 34.3398 12.9892 34.3398C13.5933 34.3398 18.5969 28.1036 18.8425 27.2106C19.1702 26.0191 19.5976 23.3395 19.5976 21.6772L19.9206 30.6586L18.8425 37.785L25.0367 38.1542H27.7902L33.813 37.785L32.8438 30.1696L34.0115 21.6772L35.816 34.3809C39.026 33.7807 39.2156 34.6017 39.0034 30.3092C38.9226 28.6748 36.6995 15.9468 36.3133 15.8156Z" fill="#C8DEF0" stroke="#303030" stroke-width="0.395377"/>
<path d="M41 20.7663L34.6209 23.0313L26.3306 22.7194L24.2019 33.8903L32.4626 34.1922L38.6028 31.749L41 20.7663Z" fill="#76C69D" stroke="#303030" stroke-width="0.395377"/>
<path d="M36.2739 24.7461L39.0435 23.7298" stroke="#303030" stroke-width="0.395377"/>
<path d="M36.0452 25.9912L38.8403 24.924" stroke="#303030" stroke-width="0.395377"/>
<path d="M35.969 27.1854L38.6116 26.1945" stroke="#303030" stroke-width="0.395377"/>
<path d="M36.0909 34.1122C34.6168 32.9035 32.4455 31.5063 32.8483 30.2516C33.5342 28.1146 35.2072 29.8193 35.9391 30.5743C35.7062 30.1354 35.7449 29.7221 35.9594 29.4216C36.1739 29.1212 37.143 31.1241 37.7753 31.7234C38.1776 32.1046 36.7516 34.654 36.0909 34.1122Z" fill="#937A57" stroke="#303030" stroke-width="0.395377"/>
<path d="M11.4537 37.4648C11.5027 37.5623 11.6215 37.6017 11.7191 37.5528C11.8167 37.5038 11.8561 37.385 11.8071 37.2874L11.6304 37.3761L11.4537 37.4648ZM10.6381 35.3991L10.4614 35.4878L11.4537 37.4648L11.6304 37.3761L11.8071 37.2874L10.8148 35.3104L10.6381 35.3991Z" fill="#303030"/>
<path d="M2.58294 18.6163C2.53469 18.5184 2.41618 18.4781 2.31824 18.5264C2.2203 18.5746 2.18002 18.6931 2.22827 18.7911L2.4056 18.7037L2.58294 18.6163ZM2.4056 18.7037L2.22827 18.7911L10.5479 35.6781L10.7252 35.5908L10.9026 35.5034L2.58294 18.6163L2.4056 18.7037Z" fill="#303030"/>
<path d="M34.903 33.9891C35.0041 34.3664 36.2528 34.9413 36.4827 34.9594C38.5984 35.1262 39.3697 32.8048 38.9303 31.9261L37.7097 31.4756L34.903 33.9891Z" fill="#C8DEF0" stroke="#303030" stroke-width="0.395377"/>
</svg>
