<svg width="31" height="42" viewBox="0 0 31 42" fill="none" xmlns="http://www.w3.org/2000/svg">
<path d="M11.4245 15.6846C11.6908 15.4061 12.0299 13.6485 12.0299 13.2126M17.0314 15.8071C16.9111 15.4728 16.6906 13.9994 16.5989 13.2125" stroke="#303030" stroke-width="0.395377"/>
<path d="M10.4893 10.3018C10.7503 11.1986 11.1196 12.1981 11.5067 12.7892C12.3242 14.0377 16.3652 14.1004 17.2238 12.7892C17.6553 12.1301 17.9888 11.1188 18.2388 10.0483" stroke="#303030" stroke-width="0.395377"/>
<path d="M15.8434 1.842C10.4269 -0.249116 11.6518 2.21334 9.69347 2.21333C8.91923 2.21333 7.79287 7.71926 6.97184 8.7045C6.54888 9.21205 8.93411 12.1208 9.86188 11.7587C11.0959 10.9859 10.2515 5.47157 12.1297 5.23446C12.9631 5.12924 13.9781 4.66507 14.7391 3.93503" stroke="#303030" stroke-width="0.395377"/>
<path d="M19.0206 2.42151C19.8913 3.12976 21.679 8.80833 21.9616 9.14064C22.3833 9.63639 18.8241 12.4905 18.4978 11.806C17.9773 10.7141 18.7346 4.92207 14.9575 4.08328C13.931 3.85531 15.8725 2.29585 15.8725 1.84623C15.8724 1.18839 18.3681 1.89068 19.0206 2.42151Z" stroke="#303030" stroke-width="0.395377"/>
<path d="M9.50043 15.3977L11.1482 15.3091C11.1482 15.3091 12.1121 17.1035 14.2583 17.0439C16.4044 16.9842 17.3688 15.3091 17.3688 15.3091L18.9256 15.3835" stroke="#303030" stroke-width="0.395377"/>
<path d="M27.1837 32.4038C27.1837 32.4038 27.2863 34.036 27.2863 34.9303M25.8098 23.5708C25.1806 20.1282 24.5397 17.0173 24.3428 16.9504C23.407 16.6327 20.4494 15.8067 18.9256 15.2767C18.9256 15.2767 16.7964 21.8383 14.269 21.8194C11.7604 21.8007 9.52314 15.2767 9.52314 15.2767C7.07326 16.028 4.71119 16.5071 3.8027 16.9504C3.43772 17.1285 1 27.8711 1 31.9512C1 32.6433 5.9179 32.8983 6.64708 33.4906L5.53386 40.6025L12.2025 41H15.1669L21.651 40.6025L21.1015 36.3359M22.0873 24.7317L21.8646 23.2609L21.6766 24.7317" stroke="#303030" stroke-width="0.395377"/>
<path d="M26.8076 34.1042L29.3885 22.2803L22.5208 24.7188L13.5955 24.383L11.3037 36.4095L20.1972 36.7346L21.8498 36.077L22.6761 35.7482" stroke="#303030" stroke-width="0.395377"/>
<path d="M24.3004 26.565L27.2821 25.4708" stroke="#303030" stroke-width="0.395377"/>
<path d="M24.0542 27.9054L27.0633 26.7565" stroke="#303030" stroke-width="0.395377"/>
<path d="M23.9722 29.191L26.8171 28.1242" stroke="#303030" stroke-width="0.395377"/>
<path d="M25.7477 33.9067C25.0669 33.2616 24.1926 31.275 23.9617 31.5985C23.7308 31.922 23.6891 32.3669 23.9399 32.8395C23.1519 32.0266 21.3508 30.1914 20.6123 32.4921C20.2826 33.5193 21.8905 35.0731 23.2171 36.121" stroke="#303030" stroke-width="0.395377"/>
<path d="M22.8245 36.5158C22.9333 36.922 24.2776 37.541 24.5251 37.5605C26.8029 37.7401 27.6332 35.2409 27.1602 34.2948L25.8461 33.8098L22.8245 36.5158Z" stroke="#303030" stroke-width="0.395377"/>
<path d="M6.67698 23.2675L6.33475 28.2726L12.6661 29.5988" stroke="#303030" stroke-width="0.4"/>
<path d="M6.53302 33.5095L11.8533 34.0478" stroke="#303030" stroke-width="0.4"/>
</svg>
