<svg width="31" height="42" viewBox="0 0 31 42" fill="none" xmlns="http://www.w3.org/2000/svg">
<path d="M14.1768 18.955C12.5605 18.9701 10.6459 16.4717 11.1626 15.94C11.4332 15.6615 11.7531 13.4215 11.7531 12.9855C11.7531 12.3935 16.3402 12.5569 16.391 12.9855C16.4841 13.7724 16.7982 15.7025 16.9204 16.0369C17.093 16.5091 15.751 18.9402 14.1768 18.955Z" fill="#937A57" stroke="#303030" stroke-width="0.395377"/>
<path d="M11.2208 12.7892C9.95028 10.8797 9.36359 6.46135 9.36359 5.4387C9.30678 4.15359 11.5786 2.10196 14.0929 2.10196C16.3897 2.10196 18.6926 3.95942 18.6926 5.4387C18.6926 6.45528 18.2417 10.9677 17.0298 12.7892C16.1574 14.1004 12.0515 14.0377 11.2208 12.7892Z" fill="#937A57" stroke="#303030" stroke-width="0.395377"/>
<path d="M6.61296 8.7045C6.1832 9.21205 8.60678 12.1208 9.54946 11.7587C10.8033 10.9859 9.94536 5.47157 11.8537 5.23446C13.3465 5.04899 15.4123 3.74826 15.6272 1.842C10.1236 -0.249116 11.3681 2.21334 9.37835 2.21333C8.59166 2.21333 7.44719 7.71926 6.61296 8.7045Z" fill="#261F14" stroke="#303030" stroke-width="0.395377"/>
<path d="M18.8555 2.42148C19.7402 3.12973 21.5566 8.8083 21.8438 9.14061C22.2722 9.63636 18.6558 12.4905 18.3243 11.806C17.7954 10.7141 18.5649 4.92204 14.7271 4.08325C13.684 3.85528 15.6567 2.29581 15.6567 1.8462C15.6567 1.18836 18.1925 1.89065 18.8555 2.42148Z" fill="#261F14" stroke="#303030" stroke-width="0.395377"/>
<path d="M18.9524 15.5981V29.3101H9.00418V15.5981L10.7493 15.5112C10.7823 15.5622 10.8275 15.6298 10.886 15.7075C11.0187 15.8838 11.2187 16.1174 11.4905 16.3491C12.0356 16.8138 12.8714 17.2731 14.0218 17.2417C15.1653 17.2104 15.9968 16.7547 16.5403 16.3071C16.8116 16.0837 17.012 15.8615 17.1448 15.6948C17.2025 15.6225 17.2457 15.5589 17.2786 15.5112L18.9524 15.5981Z" fill="#7F99AE" stroke="#303030" stroke-width="0.395377"/>
<path d="M24.2632 16.9504C23.3124 16.6327 20.3072 15.8067 18.7589 15.2767C18.7589 15.2767 16.5955 21.8383 14.0274 21.8194C11.4785 21.8007 9.20529 15.2767 9.20529 15.2767C6.71603 16.028 4.31599 16.5071 3.39289 16.9504C2.04374 17.5984 0.477373 31.7825 1.16923 32.4038C1.86109 33.0251 6.15328 32.9242 6.15328 33.6384L5.15188 40.6025L11.9277 41H14.9398L21.5281 40.6025L20.4679 32.4038L21.7452 23.261L23.7192 36.9377C27.2306 36.2915 27.438 37.1754 27.2059 32.5542C27.1175 30.7945 24.6856 17.0916 24.2632 16.9504Z" fill="#C8DEF0" stroke="#303030" stroke-width="0.395377"/>
<path d="M29.39 22.2803L22.4119 24.7188L13.3431 24.383L11.0145 36.4095L20.051 36.7346L26.7677 34.1042L29.39 22.2803Z" fill="#76C69D" stroke="#303030" stroke-width="0.395377"/>
<path d="M24.2201 26.5649L27.2498 25.4707" stroke="#303030" stroke-width="0.395377"/>
<path d="M23.97 27.9054L27.0275 26.7564" stroke="#303030" stroke-width="0.395377"/>
<path d="M23.8866 29.1911L26.7773 28.1243" stroke="#303030" stroke-width="0.395377"/>
<path d="M24.0199 36.6484C22.4074 35.3471 20.0322 33.8429 20.4728 32.4921C21.2231 30.1914 23.0532 32.0266 23.8538 32.8395C23.599 32.3669 23.6413 31.922 23.876 31.5985C24.1106 31.2751 25.1708 33.4314 25.8625 34.0766C26.3026 34.487 24.7426 37.2317 24.0199 36.6484Z" fill="#937A57" stroke="#303030" stroke-width="0.395377"/>
<path d="M22.7205 36.5159C22.8311 36.922 24.197 37.541 24.4485 37.5605C26.7629 37.7401 27.6066 35.2409 27.1259 34.2949L25.7907 33.8098L22.7205 36.5159Z" fill="#C8DEF0" stroke="#303030" stroke-width="0.395377"/>
<path d="M6.24022 23.243L5.89249 28.2482L12.3256 29.5743" stroke="#303030" stroke-width="0.4"/>
<path d="M6.0939 33.485L11.4997 34.0233" stroke="#303030" stroke-width="0.4"/>
</svg>
