<svg width="29" height="42" viewBox="0 0 29 42" fill="none" xmlns="http://www.w3.org/2000/svg">
<path d="M7.23086 23.9335L7.92114 38.5688C7.95279 38.7231 8.42094 38.9125 8.36429 39.0358C8.27877 39.2224 8.13383 39.911 8.25156 39.9815C8.92518 40.3858 9.25949 40.864 9.76707 40.9728C10.2746 41.0817 11.5203 40.8628 11.2681 40.3375C10.936 39.6444 9.98087 39.2796 9.94366 38.9814C9.89868 38.6187 10.4596 38.4205 10.4357 38.0484C10.4024 37.5203 10.5823 25.3174 10.9205 22.6251C10.946 22.4213 11.5447 22.6618 11.5447 22.6618C11.5447 22.6618 11.5058 23.2693 11.4636 23.5337C11.4259 23.7708 11.6463 23.7658 11.9068 23.8863C12.135 23.9924 12.2044 24.8737 12.4221 24.5771C13.0552 23.713 12.7126 22.2503 12.7126 22.2503C12.9075 22.1559 13.0635 22.0293 13.1524 21.997C13.4661 21.8838 12.5554 17.7387 12.2311 15.739C12.0145 14.4056 11.4542 11.1547 10.6456 10.3834C10.2452 10.0013 9.00848 9.83357 8.17826 9.21437C8.03609 9.10831 8.02221 8.36471 8.22324 8.12259C8.47481 7.81993 8.55922 7.57059 8.62808 7.4573C8.88409 7.03469 9.47496 7.28626 9.47496 7.28626C9.47496 7.28626 9.70487 6.20002 9.60158 4.60177C9.50662 3.13513 7.95557 2.09166 7.10869 2.70475C4.77795 2.25771 4.89512 3.57052 4.50195 4.46794C4.10877 5.36424 4.75074 7.34179 4.75074 7.34179C4.75074 7.34179 5.33328 7.03469 5.58929 7.4573C5.6576 7.57059 5.70258 7.85381 5.9386 8.12259C6.14629 8.35916 6.18072 9.10831 6.03911 9.21437C5.20889 9.83357 3.97271 10.0013 3.57176 10.3834C2.76264 11.1547 2.20231 14.4056 1.98629 15.739C1.66142 17.7387 0.750666 21.8832 1.06498 21.997C1.15439 22.0293 1.31044 22.1559 1.50481 22.2503C1.50481 22.2503 1.16217 23.713 1.79525 24.5771C2.01239 24.8737 2.08236 23.9924 2.3106 23.8863C2.57105 23.7652 2.79152 23.7708 2.75376 23.5337C2.71155 23.2688 2.67268 22.6618 2.67268 22.6618C2.67268 22.6618 3.27133 22.4213 3.29687 22.6251C3.63507 25.3174 3.815 37.5208 3.78168 38.0484C3.7578 38.4205 4.31869 38.6182 4.27371 38.9814C4.23705 39.2796 3.28188 39.6444 2.94923 40.3375C2.69711 40.8628 3.94328 41.0817 4.4503 40.9728C4.95788 40.864 5.29219 40.3858 5.96581 39.9815C6.08298 39.911 5.9386 39.2229 5.85308 39.0358C5.79643 38.9125 6.26458 38.7231 6.29623 38.5688L6.98651 23.9335C6.98984 23.868 7.04371 23.8163 7.10924 23.8163C7.17477 23.8163 7.22864 23.868 7.23197 23.9335H7.23086Z" stroke="#303030" stroke-width="0.4" stroke-miterlimit="10"/>
<path d="M21.4687 23.5413L22.1718 38.459C22.2063 38.6204 22.4934 38.8178 22.4313 38.9468C22.3374 39.1421 22.1801 39.8618 22.3085 39.935C23.0427 40.3573 23.4077 40.8576 23.9611 40.9715C24.5146 41.0853 25.8726 40.8569 25.5979 40.3076C25.2357 39.5831 24.418 39.2022 24.3779 38.8903C24.3289 38.5107 24.7726 38.3044 24.7464 37.9152C24.7098 37.3632 25.3171 24.357 25.2191 21.7927C25.2108 21.5781 25.8995 21.8314 25.8995 21.8314C25.8995 21.8314 25.8567 22.4662 25.8105 22.743C25.7691 22.9907 26.2335 22.9852 26.5171 23.1121C26.7662 23.2232 26.4757 23.9257 26.8552 23.8346C27.7482 23.6193 27.172 21.4029 27.172 21.4029C27.3845 21.3042 27.5543 21.1717 27.6516 21.1379C27.9938 21.0192 27.3376 16.1226 26.9836 14.0324C26.7476 12.6385 26.2052 9.45801 25.3226 8.65133C24.8858 8.25179 23.2531 8.42292 22.3485 7.77565L22.4623 6.71573C22.4886 6.49767 22.9847 6.33068 23.1924 6.2044C23.3394 6.11538 23.4036 5.43982 24.1661 5.08582C24.1661 5.08582 24.3876 1.08557 21.6819 1H21.0022C18.3041 1.10558 18.518 5.08582 18.518 5.08582C19.2812 5.43982 19.3454 6.11538 19.4917 6.2044C19.6994 6.33068 20.1955 6.49767 20.2217 6.71573L20.3577 7.77565C19.4523 8.42292 17.8203 8.25179 17.3835 8.65133C16.5016 9.45801 15.9586 12.6385 15.7226 14.0324C15.3686 16.1226 14.7123 21.0192 15.0546 21.1379C15.1519 21.1717 15.3223 21.3042 15.5342 21.4029C15.5342 21.4029 14.958 23.62 15.8509 23.8346C16.2304 23.9257 15.9399 23.2232 16.189 23.1121C16.4733 22.9859 16.9371 22.9914 16.8957 22.743C16.8494 22.4662 16.8066 21.8314 16.8066 21.8314C16.8066 21.8314 17.4953 21.5788 17.487 21.7927C17.389 24.357 17.9963 37.3632 17.9597 37.9152C17.9342 38.3044 18.3772 38.5107 18.3282 38.8903C18.2882 39.2022 17.4705 39.5831 17.1082 40.3076C16.8336 40.8569 18.1916 41.0853 18.745 40.9715C19.2984 40.8576 19.6628 40.358 20.3977 39.935C20.5253 39.8612 20.368 39.1421 20.2749 38.9468C20.2128 38.8178 20.4998 38.6204 20.5343 38.459L21.2375 23.5413" stroke="#303030" stroke-width="0.4" stroke-miterlimit="10"/>
</svg>
