<svg width="43" height="42" viewBox="0 0 43 42" fill="none" xmlns="http://www.w3.org/2000/svg">
<path d="M9.1451 38.5049C5.6226 42.8958 1.00447 40.7834 1 37.5897C0.994443 33.6176 9.32187 29.9597 4.44815 23.1704" stroke="#303030" stroke-width="0.4" stroke-linecap="square"/>
<path d="M40.027 12.8357C38.6567 14.4725 36.5226 15.2457 34.7366 15.4134C34.7366 15.4134 32.4465 13.5376 31.0308 12.3524C29.615 11.1672 27.3623 9.22614 27.3623 9.22614C27.086 7.2733 27.6058 5.21421 28.9727 3.58141C31.5282 0.52878 36.0744 0.125823 39.127 2.68136C42.1796 5.2369 42.5826 9.78305 40.027 12.8357Z" fill="#7F99AE" stroke="#303030" stroke-width="0.4" stroke-miterlimit="10"/>
<path d="M14.0458 37.158L9.5997 33.4359L27.0093 9.75525L34.2951 15.8546L14.0458 37.158Z" fill="#76C69D" stroke="#303030" stroke-width="0.4" stroke-miterlimit="10"/>
<path d="M12.3156 38.7177L8.36847 35.4133L9.27374 33.9323L13.6144 37.566L12.3156 38.7177Z" fill="#7F99AE" stroke="#303030" stroke-width="0.4" stroke-miterlimit="10"/>
<path d="M26.9782 17.2018L26.9701 17.195C26.5769 16.8658 25.9913 16.9177 25.6622 17.3109L23.796 19.5401C23.4669 19.9333 23.5188 20.5189 23.912 20.848L23.9201 20.8548C24.3133 21.184 24.8989 21.1321 25.228 20.7389L27.0942 18.5098C27.4233 18.1166 27.3714 17.531 26.9782 17.2018Z" fill="#BED5E8" stroke="#303030" stroke-width="0.4" stroke-miterlimit="10"/>
<path d="M25.4459 19.0239L24.73 18.4245L25.6622 17.3109C25.9916 16.9174 26.5766 16.8656 26.9701 17.195L26.9762 17.2001C27.3697 17.5295 27.4216 18.1146 27.0921 18.5081L26.1599 19.6216L25.4439 19.0222L25.4459 19.0239Z" fill="#7F99AE" stroke="#303030" stroke-width="0.4" stroke-miterlimit="10"/>
<path d="M9.45828 37.0952L10.4684 37.9408L9.81504 38.7213C9.74911 38.8 9.60389 38.788 9.49233 38.6947L8.88992 38.1903C8.77836 38.097 8.74103 37.9561 8.80697 37.8773L9.29836 37.2862L9.45828 37.0952Z" fill="#7F99AE" stroke="#303030" stroke-width="0.4" stroke-miterlimit="10"/>
</svg>
