<svg width="22" height="42" viewBox="0 0 22 42" fill="none" xmlns="http://www.w3.org/2000/svg">
<path d="M17.3693 1H3.71575C2.21588 1 1 2.21588 1 3.71575V38.2843C1 39.7841 2.21588 41 3.71575 41H17.3693C18.8691 41 20.085 39.7841 20.085 38.2843V3.71575C20.085 2.21588 18.8691 1 17.3693 1Z" stroke="#303030" stroke-width="0.4" stroke-miterlimit="10"/>
<path d="M18.7016 4.06866H2.38577C2.10963 4.06866 1.88577 4.29252 1.88577 4.56866V35.2812C1.88577 35.5573 2.10963 35.7812 2.38577 35.7812H18.7016C18.9777 35.7812 19.2016 35.5573 19.2016 35.2812V4.56866C19.2016 4.29252 18.9777 4.06866 18.7016 4.06866Z" stroke="#303030" stroke-width="0.4" stroke-miterlimit="10"/>
<path d="M12.3024 2.32517H8.78504C8.65209 2.32517 8.54431 2.43295 8.54431 2.5659C8.54431 2.69885 8.65209 2.80662 8.78504 2.80662H12.3024C12.4354 2.80662 12.5431 2.69885 12.5431 2.5659C12.5431 2.43295 12.4354 2.32517 12.3024 2.32517Z" stroke="#303030" stroke-width="0.3" stroke-miterlimit="10"/>
<path d="M10.5425 39.5954C11.277 39.5954 11.8724 39 11.8724 38.2655C11.8724 37.5311 11.277 36.9357 10.5425 36.9357C9.80809 36.9357 9.21271 37.5311 9.21271 38.2655C9.21271 39 9.80809 39.5954 10.5425 39.5954Z" stroke="#303030" stroke-width="0.3" stroke-miterlimit="10"/>
</svg>
