<svg width="42" height="42" viewBox="0 0 42 42" fill="none" xmlns="http://www.w3.org/2000/svg">
<path d="M14.9682 10.832V9.70841C14.9682 8.75612 15.7402 7.98413 16.6925 7.98413H25.3614C26.3137 7.98413 27.0857 8.75612 27.0857 9.70841V25.3906M14.9682 15.7422V31.6567C14.9682 32.609 15.7402 33.381 16.6925 33.381H25.3614C26.3137 33.381 27.0857 32.609 27.0857 31.6567V30.4063" stroke="#303030" stroke-width="0.253968" stroke-miterlimit="10"/>
<path d="M15.5307 11.5V10.25C15.5307 10.0746 15.6728 9.9325 15.8481 9.9325H26.2074C26.3827 9.9325 26.5248 10.0746 26.5248 10.25V24.7344M15.5307 16.5V29.75C15.5307 29.9253 15.6728 30.0674 15.8481 30.0674H26.2074C26.3827 30.0674 26.5248 29.9253 26.5248 29.75V29.7031" stroke="#303030" stroke-width="0.253968" stroke-miterlimit="10"/>
<path d="M22.1444 8.8255H19.9111C19.8267 8.8255 19.7583 8.89393 19.7583 8.97834C19.7583 9.06275 19.8267 9.13118 19.9111 9.13118H22.1444C22.2288 9.13118 22.2972 9.06275 22.2972 8.97834C22.2972 8.89393 22.2288 8.8255 22.1444 8.8255Z" stroke="#303030" stroke-width="0.190476" stroke-miterlimit="10"/>
<path d="M21.027 32.4891C21.4933 32.4891 21.8713 32.1111 21.8713 31.6448C21.8713 31.1785 21.4933 30.8004 21.027 30.8004C20.5607 30.8004 20.1827 31.1785 20.1827 31.6448C20.1827 32.1111 20.5607 32.4891 21.027 32.4891Z" stroke="#303030" stroke-width="0.190476" stroke-miterlimit="10"/>
<mask id="path-5-inside-1_495_58" fill="white">
<path fill-rule="evenodd" clip-rule="evenodd" d="M41 21C41 32.0457 32.0457 41 21 41C9.9543 41 1 32.0457 1 21C1 9.9543 9.9543 1 21 1C32.0457 1 41 9.9543 41 21ZM30.5292 34.8687C27.8202 36.7336 24.5376 37.8254 21 37.8254C11.7076 37.8254 4.1746 30.2924 4.1746 21C4.1746 16.3488 6.06193 12.1383 9.11254 9.09277L30.5292 34.8687ZM33.2493 32.5347L11.903 6.8435C14.5258 5.15453 17.6485 4.1746 21 4.1746C30.2924 4.1746 37.8254 11.7076 37.8254 21C37.8254 25.4645 36.0866 29.5228 33.2493 32.5347Z"/>
</mask>
<path d="M30.5292 34.8687L30.756 35.1982L31.1167 34.9499L30.8369 34.6131L30.5292 34.8687ZM9.11254 9.09277L9.4202 8.83714L9.1401 8.50003L8.82993 8.80969L9.11254 9.09277ZM11.903 6.8435L11.6864 6.50719L11.3066 6.75172L11.5953 7.09913L11.903 6.8435ZM33.2493 32.5347L32.9416 32.7904L33.2305 33.138L33.5405 32.809L33.2493 32.5347ZM21 41.4C32.2666 41.4 41.4 32.2666 41.4 21H40.6C40.6 31.8248 31.8248 40.6 21 40.6V41.4ZM0.6 21C0.6 32.2666 9.73339 41.4 21 41.4V40.6C10.1752 40.6 1.4 31.8248 1.4 21H0.6ZM21 0.6C9.73339 0.6 0.6 9.73339 0.6 21H1.4C1.4 10.1752 10.1752 1.4 21 1.4V0.6ZM41.4 21C41.4 9.73339 32.2666 0.6 21 0.6V1.4C31.8248 1.4 40.6 10.1752 40.6 21H41.4ZM21 38.2254C24.6211 38.2254 27.9824 37.1076 30.756 35.1982L30.3024 34.5392C27.6579 36.3597 24.454 37.4254 21 37.4254V38.2254ZM3.7746 21C3.7746 30.5133 11.4867 38.2254 21 38.2254V37.4254C11.9285 37.4254 4.5746 30.0715 4.5746 21H3.7746ZM8.82993 8.80969C5.70724 11.9272 3.7746 16.2383 3.7746 21H4.5746C4.5746 16.4592 6.41662 12.3495 9.39515 9.37584L8.82993 8.80969ZM30.8369 34.6131L9.4202 8.83714L8.80488 9.34839L30.2216 35.1243L30.8369 34.6131ZM11.5953 7.09913L32.9416 32.7904L33.557 32.2791L12.2106 6.58787L11.5953 7.09913ZM21 3.7746C17.5694 3.7746 14.3719 4.77789 11.6864 6.50719L12.1195 7.1798C14.6798 5.53117 17.7276 4.5746 21 4.5746V3.7746ZM38.2254 21C38.2254 11.4867 30.5133 3.7746 21 3.7746V4.5746C30.0715 4.5746 37.4254 11.9285 37.4254 21H38.2254ZM33.5405 32.809C36.4449 29.7258 38.2254 25.5704 38.2254 21H37.4254C37.4254 25.3585 35.7283 29.3198 32.9581 32.2605L33.5405 32.809Z" fill="#303030" mask="url(#path-5-inside-1_495_58)"/>
</svg>
