<svg width="42" height="42" viewBox="0 0 42 42" fill="none" xmlns="http://www.w3.org/2000/svg">
<path d="M18.1191 1.2002C27.4349 1.20043 35.0371 10.0346 35.0371 21C35.0371 31.9654 27.4349 40.7996 18.1191 40.7998C8.80321 40.7998 1.2002 31.9656 1.2002 21C1.2002 10.0344 8.80321 1.2002 18.1191 1.2002Z" stroke="#303030" stroke-width="0.4"/>
<path d="M18.7699 6.42639C25.549 6.42639 31.0978 12.9187 31.098 20.9996C31.098 29.0807 25.5491 35.5739 18.7699 35.5739C11.9908 35.5738 6.44177 29.0807 6.44177 20.9996C6.44195 12.9188 11.9909 6.42646 18.7699 6.42639Z" stroke="#303030" stroke-width="0.4"/>
<path d="M19.1779 11.8507C23.4746 11.8507 27.008 15.9173 27.008 21.0001C27.0079 26.0829 23.4746 30.1495 19.1779 30.1495C14.8813 30.1493 11.3488 26.0827 11.3488 21.0001C11.3488 15.9175 14.8813 11.8509 19.1779 11.8507Z" stroke="#303030" stroke-width="0.4"/>
<path d="M19.4136 17.0573C21.2551 17.0573 22.7955 18.7946 22.7955 21.0006C22.7953 23.2064 21.2549 24.9429 19.4136 24.943C17.5723 24.943 16.032 23.2064 16.0318 21.0006C16.0318 18.7946 17.5722 17.0573 19.4136 17.0573Z" stroke="#303030" stroke-width="0.4"/>
<path d="M19.4135 20.9999L40.0636 13.2289" stroke="#303030" stroke-linecap="round"/>
<path d="M38.8705 13.668L39.4881 12.237" stroke="#303030" stroke-width="0.4" stroke-linecap="round"/>
<path d="M38.6643 15.1042L37.3168 14.3211" stroke="#303030" stroke-width="0.4" stroke-linecap="round"/>
<path d="M38.0874 13.8761L38.7049 12.4451" stroke="#303030" stroke-width="0.4" stroke-linecap="round"/>
<path d="M39.5211 14.7961L38.1737 14.013" stroke="#303030" stroke-width="0.4" stroke-linecap="round"/>
<path d="M37.2524 14.1992L37.87 12.7683" stroke="#303030" stroke-width="0.4" stroke-linecap="round"/>
<path d="M40.2746 14.4674L38.9272 13.6842" stroke="#303030" stroke-width="0.4" stroke-linecap="round"/>
</svg>
