<svg width="42" height="32" viewBox="0 0 42 32" fill="none" xmlns="http://www.w3.org/2000/svg">
<g clip-path="url(#clip0_14_104)">
<path d="M37.7507 26.6117H4.88821C4.52685 26.6032 4.1793 26.4659 3.90847 26.2242C3.63994 25.9787 3.46731 25.6465 3.42358 25.2875L1.01066 2.3252C0.987642 2.15871 1.00222 1.98685 1.05132 1.82573C1.10119 1.66538 1.18558 1.51654 1.2999 1.39148C1.41038 1.26566 1.55078 1.16362 1.705 1.09687C1.85998 1.02936 2.02646 0.997131 2.19525 1.0002H35.0578C35.4191 1.00941 35.7667 1.14597 36.0375 1.38842C36.3061 1.63316 36.4787 1.96614 36.5224 2.3252L38.9353 25.2875C38.9583 25.4539 38.9438 25.6258 38.8939 25.7862C38.8448 25.9496 38.7604 26.0984 38.6492 26.2242C38.5356 26.3493 38.3983 26.4483 38.2433 26.5158C38.086 26.5825 37.9195 26.6148 37.7507 26.6117Z" fill="#303030" stroke="#303030" stroke-width="0.4"/>
<path d="M38.1504 25.098L36.3206 7.69657L35.7751 2.51474C35.749 2.29608 35.6439 2.092 35.4805 1.94316C35.314 1.79662 35.1038 1.71222 34.8821 1.70685H2.52208C2.42004 1.70378 2.318 1.72373 2.22133 1.76516C2.12849 1.80582 2.04333 1.8672 1.97352 1.94546C1.90677 2.02141 1.85383 2.11195 1.82468 2.21092C1.79245 2.30759 1.78401 2.4127 1.79859 2.51474L2.34408 7.69657L4.17392 25.098C4.2 25.3167 4.30511 25.5207 4.46853 25.6696C4.63425 25.8184 4.84447 25.8997 5.0662 25.9059H37.427C37.529 25.9089 37.631 25.8882 37.7269 25.8476C37.8205 25.8069 37.9049 25.7455 37.9755 25.6696C38.0423 25.5906 38.0944 25.5 38.1236 25.401C38.1558 25.3051 38.165 25.2 38.1504 25.098Z" fill="#BED5E8" stroke="#303030" stroke-width="0.4"/>
<path d="M41 24.6487C39.5159 23.7542 35.668 21.9605 34.9708 21.0252C34.6817 20.5776 34.515 20.0638 34.4931 19.5381C34.4962 19.044 34.1731 15.661 34.1541 15.061C34.1393 14.4638 33.9742 13.6772 32.7282 12.9517C31.4787 12.2268 28.2216 10.0082 27.1334 9.52569C26.0445 9.0397 26.0136 10.1915 26.2883 10.4653C26.5438 10.7174 29.2378 12.6749 29.6719 12.9889C29.6762 12.9917 29.6805 12.9945 29.682 13.0015C29.6834 13.0086 29.6849 13.0156 29.6829 13.0234C29.6836 13.027 29.6773 13.032 29.6745 13.0362C29.6682 13.0412 29.6619 13.0463 29.6584 13.047C29.1751 13.1484 26.3575 13.7616 25.6389 14.1628C24.8506 14.6008 24.9558 15.3484 25.0254 16.2066C25.0802 16.9243 25.1923 17.6337 25.3607 18.3312C25.5435 19.2025 26.7117 19.3993 26.8823 19.4224C26.8901 19.4245 26.8979 19.4265 26.9029 19.4329C26.9037 19.4364 26.9087 19.4427 26.9094 19.4462C26.9683 19.6917 27.4809 21.8895 27.6889 22.8807C27.9087 23.9284 28.7239 24.6891 29.3179 25.1685C29.5254 25.3348 33.6438 28.7553 35.9973 30.9221C35.9973 30.9221 40.2017 28.4392 41 24.6487Z" fill="#E5CEAE" stroke="#303030" stroke-width="0.4" stroke-linejoin="round"/>
<path d="M26.9049 19.4252L26.3902 16.4102" stroke="#303030" stroke-width="0.4" stroke-linecap="round" stroke-linejoin="round"/>
<path d="M13.2184 1.71094L14.184 9.40754L11.5439 7.79053L9.34931 9.40754L8.38373 1.71094H13.2184Z" fill="#76C69D" stroke="#303030" stroke-width="0.4" stroke-linecap="round" stroke-linejoin="round"/>
</g>
<defs>
<clipPath id="clip0_14_104">
<rect width="42" height="31.9221" fill="white"/>
</clipPath>
</defs>
</svg>
