<svg width="42" height="52" viewBox="0 0 42 52" fill="none" xmlns="http://www.w3.org/2000/svg">
<path d="M35.7865 5.76188L36.4284 5.16691C36.5463 5.05767 36.735 5.08557 36.8162 5.22425L36.9353 5.42755C36.9741 5.49386 37.0452 5.5346 37.122 5.5346C37.2047 5.5346 37.2801 5.58168 37.3164 5.65593L37.3474 5.71914C37.3812 5.78843 37.4451 5.83832 37.5205 5.85448L38.2741 6.0159C38.3417 6.03038 38.4003 6.07205 38.4362 6.13111L38.7605 6.66455C38.8018 6.73255 38.8085 6.81611 38.7786 6.88983L38.4992 7.57659C38.487 7.60666 38.4807 7.63882 38.4807 7.67129V7.98745C38.4807 8.0657 38.5172 8.13948 38.5793 8.18705L38.6708 8.2571C38.7965 8.35331 38.9795 8.29747 39.0301 8.14748C39.0381 8.12371 39.0422 8.09879 39.0422 8.0737V7.55942C39.0422 7.48927 39.0715 7.42232 39.123 7.37473L39.6036 6.931L39.8826 6.72184C39.9587 6.66481 39.9961 6.56975 39.9792 6.47619L39.9517 6.3232C39.915 6.11942 40.1266 5.96118 40.3117 6.05396L40.3803 6.08834C40.4609 6.12872 40.5568 6.1229 40.6319 6.07309L40.8153 5.95145C40.9208 5.88141 40.9578 5.74377 40.9015 5.63028L40.6662 5.15601C40.6238 5.07047 40.5365 5.01635 40.441 5.01635H39.7288C39.7126 5.01635 39.6963 5.01477 39.6804 5.01163L38.8262 4.84373L37.7522 4.58928C37.7392 4.58619 37.7274 4.57909 37.7185 4.56898C37.6831 4.52851 37.7098 4.46498 37.7635 4.46193L39.271 4.37612C39.3531 4.37145 39.4277 4.32693 39.4708 4.25691L39.8405 3.65628C39.8552 3.63233 39.8739 3.61103 39.8956 3.59325L40.2496 3.3045C40.3427 3.22858 40.369 3.09742 40.3125 2.99144L40.2504 2.87504C40.2067 2.79312 40.1214 2.74196 40.0286 2.74196H40.0148C39.9213 2.74196 39.8355 2.69005 39.7922 2.60722L39.7583 2.54261C39.7241 2.47728 39.6629 2.43027 39.591 2.41404L39.3172 2.35224C39.2783 2.34348 39.2422 2.32563 39.2116 2.30015L38.9433 2.07661C38.8744 2.0192 38.7754 2.01577 38.7027 2.06828L38.6747 2.0885C38.6127 2.13326 38.5274 2.12643 38.4733 2.07236C38.4194 2.01851 38.3345 2.01148 38.2726 2.05575L38.1522 2.14168C38.0367 2.22424 37.8761 2.14161 37.8761 1.99957C37.8761 1.91973 37.822 1.85006 37.7446 1.83034L37.3598 1.73225C37.2357 1.70063 37.1077 1.7673 37.0625 1.88708L36.8702 2.39673C36.8595 2.4251 36.854 2.45516 36.854 2.48548V3.1492C36.854 3.21398 36.8088 3.27001 36.7455 3.28377C36.6443 3.30578 36.556 3.21239 36.5835 3.11255L36.6376 2.91671C36.6509 2.86848 36.6495 2.81737 36.6336 2.76993L36.5417 2.49565C36.5296 2.45966 36.5043 2.42962 36.4709 2.41163C36.3968 2.37179 36.3703 2.27873 36.4121 2.20583L36.6452 1.79984C36.6537 1.785 36.6603 1.76916 36.665 1.75268L36.6769 1.71026C36.708 1.59942 36.6247 1.4895 36.5095 1.4895C36.4136 1.4895 36.3357 1.41169 36.3357 1.31571V1.22003C36.3357 1.15521 36.301 1.09536 36.2447 1.06319C36.1785 1.0253 36.0955 1.03317 36.0375 1.08286L35.8162 1.27253C35.7579 1.32254 35.6715 1.32141 35.6144 1.2699C35.5332 1.19655 35.4035 1.22987 35.3677 1.33328L35.3369 1.42242C35.3218 1.46599 35.2931 1.50356 35.2551 1.5296L35.1275 1.6169C35.0716 1.65515 35.0335 1.71433 35.0219 1.78103L34.987 1.98055C34.97 2.07744 35.0446 2.16617 35.143 2.16617C35.2703 2.16617 35.3456 2.30886 35.2736 2.41395L35.2708 2.41806C35.261 2.43235 35.2536 2.44811 35.2489 2.46476L35.1409 2.84271L35.0462 3.41051C35.0422 3.43493 35.0345 3.45861 35.0235 3.48079L34.9646 3.5997C34.9579 3.61326 34.9497 3.62603 34.9401 3.63777C34.8194 3.786 34.5794 3.70066 34.5794 3.5095V3.20426C34.5794 3.18745 34.5658 3.17383 34.549 3.17383C34.5251 3.17383 34.5106 3.14754 34.5232 3.12727L34.6621 2.90529C34.6872 2.86527 34.695 2.81685 34.6839 2.77097L34.5794 2.33891C34.5448 2.1927 34.357 2.15055 34.2631 2.26791L33.7805 2.87155C33.7365 2.9266 33.7176 2.99759 33.7285 3.06723L33.7767 3.37684C33.7839 3.42293 33.7781 3.47011 33.76 3.51309L33.5723 3.95872C33.5624 3.98232 33.5489 4.00426 33.5324 4.02379L33.272 4.3307C33.2074 4.40684 33.218 4.5212 33.2955 4.58416C33.3497 4.62823 33.3732 4.69997 33.3555 4.76758L33.2319 5.23861C33.1944 5.3815 33.0255 5.4426 32.9053 5.35674C32.8176 5.29413 32.7912 5.17554 32.844 5.08166L32.9649 4.86682C32.9942 4.81467 33.004 4.75377 32.9924 4.69506L32.8591 4.01736C32.8454 3.94772 32.8617 3.87555 32.9041 3.81864L33.3562 3.21198C33.375 3.18677 33.3888 3.15827 33.3971 3.12794L33.5319 2.63395C33.5478 2.57549 33.5337 2.51292 33.4943 2.46691C33.4323 2.39461 33.4363 2.28684 33.5033 2.21924L33.7004 2.02057C33.82 1.90008 33.7882 1.69819 33.6375 1.62024L33.4007 1.49783C33.39 1.49229 33.3789 1.48752 33.3675 1.48357L33.2113 1.42955C33.0953 1.3894 32.9672 1.43895 32.9084 1.54673L32.8694 1.61835C32.8485 1.6566 32.8181 1.68878 32.781 1.71171L32.7635 1.72253C32.64 1.79903 32.6068 1.96409 32.6913 2.08236L32.7092 2.10739C32.7365 2.14562 32.7512 2.19143 32.7512 2.23841C32.7512 2.41149 32.5642 2.51999 32.4139 2.43412L32.3492 2.39711C32.2846 2.36022 32.2397 2.29665 32.2265 2.22348L32.1957 2.05265C32.1718 1.92014 32.0223 1.85294 31.9073 1.92302C31.8503 1.95781 31.8154 2.01982 31.8154 2.08666V2.52413C31.8154 2.53499 31.8167 2.54581 31.8193 2.55636C31.8503 2.68479 31.6998 2.77866 31.5981 2.69437L31.4589 2.57907C31.4286 2.55392 31.4065 2.52025 31.3954 2.48241L31.346 2.31321C31.3033 2.1671 31.1169 2.12436 31.0148 2.23727C30.9597 2.29823 30.9488 2.38725 30.9876 2.4597L31.1141 2.69582C31.1304 2.72625 31.1528 2.753 31.1799 2.77439L31.3926 2.9423C31.4057 2.9527 31.4178 2.96439 31.4287 2.9772L31.6325 3.21808C31.6902 3.28631 31.6982 3.38373 31.6522 3.46037C31.5976 3.55138 31.4834 3.58694 31.3867 3.54302L31.0224 3.37743C30.9633 3.35054 30.8935 3.36541 30.8505 3.41408C30.7602 3.51606 30.5918 3.45225 30.5918 3.31609V3.25411C30.5918 3.20324 30.5692 3.15501 30.5301 3.12245L30.4863 3.08594C30.3964 3.01101 30.2666 3.00808 30.1734 3.07885L29.5725 3.53502C29.5611 3.54373 29.5489 3.55144 29.5361 3.55806L28.9052 3.88457C28.7863 3.94607 28.7365 4.08992 28.7918 4.21176L28.9171 4.48755C28.9627 4.588 29.0685 4.64696 29.178 4.63292L29.4888 4.59305C29.5323 4.58747 29.5765 4.59407 29.6164 4.61212C29.7851 4.68826 29.8052 4.91971 29.6523 5.02385L29.4315 5.17418C29.3646 5.2197 29.2799 5.23027 29.2039 5.20256L28.7348 5.03156C28.7072 5.0215 28.6781 5.01635 28.6487 5.01635H28.379C28.2886 5.01635 28.2051 5.06494 28.1604 5.14358L27.9256 5.55712C27.8853 5.62799 27.8999 5.71734 27.9607 5.77169C28.0459 5.84796 28.0351 5.98444 27.9389 6.04635L27.9038 6.06899C27.8261 6.11897 27.7246 6.11087 27.6559 6.04919L27.4662 5.87903C27.3498 5.77452 27.1671 5.8007 27.0847 5.93372L26.9574 6.13921C26.882 6.2609 26.9457 6.42084 27.0841 6.45732L27.0963 6.46052C27.1826 6.48327 27.2428 6.56136 27.2428 6.65065C27.2428 6.787 27.1074 6.88195 26.9792 6.83552L26.8354 6.78341C26.8157 6.77629 26.795 6.77265 26.7741 6.77265C26.658 6.77265 26.5722 6.66425 26.599 6.55124L26.6419 6.37014C26.663 6.28099 26.6339 6.1874 26.566 6.1259L26.0623 5.66966C25.9878 5.60223 25.8694 5.62537 25.8259 5.71587L25.8078 5.75348C25.7692 5.83352 25.6612 5.84763 25.6034 5.78016C25.5565 5.72547 25.4729 5.72251 25.4223 5.77375L24.7169 6.48802C24.623 6.58305 24.6199 6.73489 24.7097 6.83373L24.7136 6.83797C24.8046 6.93809 24.8 7.09227 24.7033 7.18683L24.2897 7.59103C24.2592 7.62079 24.2368 7.65779 24.2246 7.69857L24.081 8.17705C24.0491 8.28338 23.9513 8.35619 23.8403 8.35619H23.5785C23.5241 8.35619 23.4711 8.37384 23.4276 8.40649L22.6933 8.95738C22.63 9.00486 22.5928 9.07935 22.5928 9.15845V9.79498C22.5928 9.81464 22.5905 9.83423 22.5859 9.85334L22.5105 10.1696C22.4874 10.2662 22.5234 10.3673 22.6023 10.4276L22.8093 10.586C22.8995 10.6549 22.9322 10.7756 22.8894 10.8806L22.7167 11.3036C22.6909 11.3668 22.6295 11.4081 22.5612 11.4081C22.4556 11.4081 22.3762 11.3117 22.3964 11.208L22.4488 10.9395C22.4638 10.8628 22.4423 10.7836 22.3906 10.725L22.2932 10.6146C22.1737 10.4792 21.9547 10.5102 21.8775 10.6734L21.7517 10.9392C21.7446 10.9542 21.7356 10.9682 21.7248 10.9808C21.6216 11.1014 21.4246 11.0469 21.3982 10.8904L21.3354 10.5186C21.326 10.4631 21.3355 10.4061 21.3624 10.3566L21.625 9.87408C21.6427 9.84159 21.652 9.80519 21.652 9.76819C21.652 9.59951 21.471 9.49273 21.3233 9.57432L21.2347 9.62328C21.1546 9.66753 21.1049 9.7518 21.1049 9.84329V9.8902C21.1049 9.98334 21.0523 10.0694 20.97 10.113C20.9183 10.1403 20.877 10.1852 20.8546 10.2393L20.7382 10.5203C20.7237 10.5551 20.7017 10.5862 20.6736 10.6113L20.5602 10.7128C20.4954 10.7707 20.3959 10.7649 20.3385 10.6997C20.2782 10.6314 20.1726 10.6288 20.109 10.6941L19.6941 11.1202L19.2633 11.5161C19.1999 11.5744 19.1707 11.661 19.1859 11.7457L19.2349 12.0182C19.2434 12.0653 19.2651 12.1091 19.2976 12.1443L19.5034 12.3672C19.6051 12.4774 19.5884 12.6515 19.4676 12.7403L19.214 12.9265C19.1796 12.9519 19.1392 12.968 19.0968 12.9733L18.7774 13.0139C18.7431 13.0182 18.7101 13.0296 18.6804 13.0473L18.53 13.1369C18.491 13.1601 18.4466 13.1723 18.4013 13.1723H18.2365C18.1535 13.1723 18.0759 13.2133 18.029 13.2817L17.8297 13.573C17.8131 13.5973 17.7923 13.6185 17.7684 13.6356L17.3603 13.9271C17.3345 13.9455 17.3124 13.9687 17.2952 13.9954L16.8966 14.6131C16.8733 14.6493 16.8608 14.6916 16.8608 14.7347C16.8608 14.9333 17.0998 15.034 17.2419 14.8953L17.7737 14.3765C17.7941 14.3566 17.8179 14.3402 17.8439 14.3282L18.3415 14.0986C18.3818 14.0799 18.4165 14.0509 18.442 14.0145L18.6233 13.7555C18.682 13.6718 18.7931 13.6436 18.8846 13.6893C18.9303 13.7122 18.9829 13.7172 19.0321 13.7036L19.2819 13.6342C19.3388 13.6184 19.3994 13.6231 19.4532 13.6475L19.4876 13.6632C19.5712 13.7012 19.6689 13.6905 19.7424 13.6354L20.2578 13.2488C20.322 13.2007 20.4052 13.1861 20.4819 13.2095L20.7855 13.3019C20.8518 13.322 20.9234 13.314 20.9834 13.2797L21.2928 13.1029C21.4002 13.0415 21.5339 13.1191 21.5339 13.2428C21.5339 13.2991 21.5045 13.3513 21.4564 13.3805L20.8893 13.7248L20.1573 14.3237C20.139 14.3387 20.1228 14.3563 20.1094 14.3758L19.6674 15.0187C19.6386 15.0606 19.6232 15.1102 19.6232 15.1611V15.5266C19.6232 15.5961 19.652 15.6624 19.7027 15.71L19.8063 15.8071C19.9083 15.9027 19.9127 16.0632 19.816 16.1643L19.5019 16.4927C19.4907 16.5043 19.4784 16.5149 19.4652 16.5243L19.2002 16.7114C19.1334 16.7585 19.0938 16.835 19.0938 16.9167V17.1502C19.0938 17.2259 19.0596 17.2976 19.0009 17.3453L18.7254 17.5692L18.1237 18.104C18.1105 18.1157 18.0986 18.1288 18.0882 18.143L17.5284 18.9043L17.0909 19.6201C17.0481 19.6903 16.9718 19.733 16.8896 19.733C16.7593 19.733 16.6536 19.8387 16.6536 19.969V20.1267C16.6536 20.1848 16.6741 20.2415 16.7109 20.2864C16.7946 20.3888 16.7859 20.5399 16.6894 20.6304L16.4925 20.815L15.8353 21.4311C15.7846 21.4786 15.7558 21.545 15.7558 21.6145V22.0303C15.7558 22.0785 15.7697 22.1257 15.7958 22.1662L15.8893 22.3117C15.9353 22.3832 15.942 22.4732 15.9071 22.5507L15.8463 22.6859C15.7945 22.8008 15.6656 22.8597 15.5448 22.8235L15.4826 22.8048C15.3725 22.7718 15.254 22.8177 15.1948 22.9163L15.1673 22.9621C15.089 23.0928 15.1439 23.2625 15.2839 23.3225L15.3502 23.3509C15.4427 23.3906 15.5026 23.4814 15.5026 23.582V24.2022C15.5026 24.2597 15.4829 24.3154 15.4468 24.3601L15.0192 24.8895L14.5534 25.3553C14.5417 25.3671 14.5288 25.3776 14.5151 25.3868L14.3468 25.4989C14.291 25.5362 14.2226 25.5495 14.1568 25.536L13.5543 25.4124C13.4412 25.3892 13.3268 25.4461 13.277 25.5502L13.2474 25.6122C13.1768 25.7596 13.2636 25.9341 13.4237 25.9669L13.9204 26.0685C14.0374 26.0924 14.1214 26.1953 14.1214 26.3147V26.353C14.1214 26.4317 14.0846 26.5058 14.0218 26.5533L13.4214 27.0082C13.3838 27.0367 13.3618 27.0811 13.3618 27.1283C13.3618 27.1817 13.3334 27.2312 13.2873 27.2582L12.7398 27.5791C12.7097 27.5968 12.6836 27.6205 12.6632 27.6488L12.1282 28.3896C12.1068 28.4193 12.0791 28.4439 12.0472 28.4617L11.696 28.6584C11.5933 28.716 11.5442 28.8371 11.5781 28.95L11.5891 28.9867C11.6278 29.1156 11.558 29.2522 11.4309 29.2964L11.2501 29.3593C11.1739 29.3858 11.1151 29.4472 11.0919 29.5245L10.9579 29.9712C10.9351 30.0472 10.8777 30.108 10.803 30.1352L10.5361 30.2323C10.4602 30.2599 10.3756 30.2493 10.3088 30.2039L9.87547 29.9092C9.85179 29.8931 9.83104 29.8731 9.81411 29.85L9.70871 29.7063C9.63768 29.6094 9.50806 29.5763 9.39931 29.6273L9.13297 29.7522C8.99704 29.8159 8.96803 29.9965 9.07717 30.0996C9.17424 30.1913 9.16389 30.3487 9.05564 30.4268L8.91572 30.5279C8.87289 30.5588 8.82139 30.5755 8.76855 30.5755H8.39006C8.35921 30.5755 8.32862 30.5812 8.29983 30.5922L8.11375 30.6638C7.94198 30.7299 7.8971 30.9521 8.02976 31.0796L8.16447 31.2091C8.26365 31.3045 8.26773 31.4619 8.17363 31.5623L8.03588 31.7092C8.01098 31.7357 7.98061 31.7566 7.94687 31.7702L6.25131 32.4571C6.20453 32.476 6.16453 32.5086 6.13653 32.5506L5.80796 33.0434C5.78006 33.0853 5.74024 33.1178 5.69366 33.1368L5.27888 33.3058C5.19525 33.3399 5.09976 33.3265 5.02874 33.2707L5.01286 33.2582C4.90612 33.1743 4.75207 33.1903 4.66488 33.2944L4.1287 33.9344C4.11476 33.951 4.09872 33.9658 4.08099 33.9783L2.95836 34.7707C2.94197 34.7823 2.92703 34.7958 2.91385 34.8109L2.17655 35.6566C2.15961 35.676 2.14577 35.698 2.1355 35.7216L1.76368 36.5768C1.72014 36.6769 1.74624 36.7937 1.82827 36.8658L2.1802 37.1751C2.31137 37.2904 2.28793 37.501 2.13463 37.5846L1.84289 37.7437C1.75656 37.7908 1.7202 37.8959 1.75894 37.9862C1.79829 38.078 1.76012 38.1847 1.67146 38.2306L1.46776 38.3363C1.33083 38.4072 1.28955 38.5837 1.38076 38.708L1.44652 38.7977C1.45574 38.8103 1.46656 38.8216 1.47873 38.8313C1.5786 38.9112 1.56355 39.0674 1.45025 39.1267L1.43771 39.1333C1.32458 39.1925 1.30315 39.3454 1.39563 39.4335L1.51959 39.5516C1.61572 39.6431 1.62409 39.7936 1.53871 39.8953L1.26608 40.2198C1.22804 40.2651 1.20719 40.3224 1.20719 40.3815V41.3977C1.20719 41.4263 1.21208 41.4547 1.22166 41.4817L1.42463 42.0538C1.44749 42.1182 1.44313 42.1891 1.41257 42.2502L1.2714 42.5326C1.23161 42.6122 1.23685 42.7069 1.28519 42.7816L1.38398 42.9342C1.43147 43.0076 1.43742 43.1004 1.39971 43.1792L1.24728 43.498C1.22141 43.5521 1.21573 43.6136 1.23127 43.6716L1.43986 44.4491C1.45323 44.4989 1.45095 44.5516 1.43332 44.6001L1.0503 45.6534C1.01961 45.7378 1.04058 45.8323 1.10408 45.8958C1.16707 45.9588 1.26066 45.98 1.34464 45.9502L2.23515 45.6348C2.28519 45.6171 2.33957 45.6157 2.39048 45.6308L2.57672 45.686C2.74749 45.7366 2.81292 45.9438 2.70216 46.0833L2.40259 46.4605C2.35058 46.526 2.35419 46.6197 2.41111 46.681C2.49995 46.7767 2.4516 46.9327 2.32421 46.9613L1.82737 47.0731C1.74236 47.0922 1.67332 47.154 1.64491 47.2364L1.4937 47.6749C1.47235 47.7368 1.47601 47.8046 1.50389 47.8639L1.79493 48.4823C1.81693 48.5291 1.8528 48.5679 1.89766 48.5935L2.1855 48.758C2.26382 48.8028 2.31215 48.886 2.31215 48.9762V48.9831C2.31215 49.0476 2.33698 49.1097 2.38149 49.1564L2.73869 49.5315C2.76104 49.555 2.78772 49.5739 2.81726 49.5872L3.27035 49.7918C3.38633 49.8442 3.43246 49.9848 3.37006 50.0957C3.31764 50.1889 3.341 50.3064 3.42507 50.3724L3.82408 50.6859C3.88664 50.7351 3.96877 50.7517 4.04553 50.7308L4.38131 50.6392C4.41342 50.6305 4.44696 50.6282 4.47996 50.6325L5.44775 50.7587C5.47499 50.7622 5.50262 50.7613 5.52956 50.7559L6.12549 50.6367C6.16107 50.6296 6.19469 50.6149 6.22404 50.5935L6.68593 50.2576L7.32986 49.9142C7.36064 49.8978 7.38767 49.8751 7.40923 49.8477L7.61278 49.5886C7.62407 49.5743 7.63688 49.5612 7.65099 49.5496L8.50974 48.845C8.52159 48.8353 8.53253 48.8245 8.54241 48.8128L9.13249 48.1134C9.14352 48.1003 9.15586 48.0884 9.16931 48.0778L9.65583 47.6956C9.73863 47.6305 9.8532 47.624 9.94288 47.6791L9.98677 47.7062C10.0536 47.7473 10.1359 47.7548 10.2091 47.7266L10.9814 47.4282C11.0592 47.3981 11.117 47.3315 11.1357 47.2502L11.3622 46.2689C11.375 46.2134 11.3686 46.1551 11.3439 46.1036L11.2669 45.9432C11.1922 45.7877 11.3056 45.6076 11.4781 45.6076C11.5947 45.6076 11.6935 45.6933 11.71 45.8087L11.8139 46.5363C11.8175 46.5615 11.825 46.5861 11.836 46.6092L12.0246 47.0035C12.0552 47.0674 12.1113 47.1155 12.1791 47.1358L12.8143 47.3264C12.9206 47.3583 12.9934 47.4561 12.9934 47.5671V48.0526C12.9934 48.177 13.0943 48.2779 13.2187 48.2779C13.306 48.2779 13.3855 48.2275 13.4226 48.1485L13.8851 47.1658C13.9041 47.1253 13.912 47.0803 13.9079 47.0357L13.7923 45.7834C13.7826 45.6779 13.84 45.5776 13.9359 45.5326L14.42 45.3057C14.4795 45.2779 14.5256 45.2279 14.5487 45.1664L14.7709 44.5739C14.7828 44.542 14.8011 44.513 14.8246 44.4884L15.2467 44.0471C15.2785 44.0138 15.3006 43.9723 15.3105 43.9273L15.5026 43.0523L15.6085 42.3743C15.6146 42.3357 15.6115 42.2964 15.5997 42.2592L15.0774 40.6175C15.0258 40.4554 15.1468 40.2899 15.3169 40.2899H15.6193C15.7167 40.2899 15.8053 40.2337 15.8468 40.1456L16.2513 39.286C16.2987 39.1851 16.2741 39.0651 16.1909 38.9911L15.5205 38.3952C15.5086 38.3846 15.4977 38.3729 15.488 38.3603L15.039 37.7746C14.997 37.7198 14.9794 37.65 14.9903 37.5817L15.2869 35.7385C15.2925 35.7039 15.2908 35.6684 15.2818 35.6344L14.9815 34.4974C14.9759 34.4765 14.9731 34.4549 14.9731 34.4332V33.9594V33.4314C14.9731 33.3853 14.9858 33.3401 15.0098 33.3007L15.2316 32.9363C15.2719 32.8701 15.2794 32.7891 15.252 32.7166L15.0192 32.1016C14.9903 32.0252 15.0004 31.9394 15.0461 31.8718L15.418 31.3221C15.4701 31.2451 15.4754 31.1457 15.432 31.0636L15.3678 30.9425C15.3234 30.8586 15.33 30.7568 15.3849 30.6794L16.1691 29.5736C16.1851 29.5511 16.2046 29.5313 16.227 29.5152L16.933 29.0053C16.9897 28.9643 17.0609 28.9488 17.1295 28.9626L18.2148 29.1796C18.326 29.2019 18.4383 29.147 18.489 29.0456L18.6989 28.6258C18.7163 28.5909 18.7254 28.5524 18.7254 28.5134V27.7482C18.7254 27.6599 18.6791 27.5781 18.6034 27.5327L18.0183 27.1816C17.9 27.1106 17.861 26.9576 17.9309 26.8386L18.9556 25.0967L19.2178 24.5067C19.2271 24.4858 19.2335 24.4637 19.2369 24.4411L19.4809 22.7772C19.4837 22.7583 19.4843 22.739 19.4827 22.7199L19.3926 21.6397C19.3804 21.4932 19.4961 21.3675 19.6431 21.3675H20.0479C20.101 21.3675 20.1528 21.3506 20.1957 21.3194L20.7441 20.9206C20.8309 20.8574 20.8681 20.746 20.8365 20.6434L20.7351 20.314C20.7159 20.2514 20.7218 20.1839 20.7516 20.1256L21.2206 19.2079C21.2299 19.1897 21.2414 19.1728 21.2548 19.1574L22.0937 18.1926C22.1335 18.1468 22.1554 18.0882 22.1554 18.0276V17.6257C22.1554 17.5885 22.1471 17.5517 22.1312 17.5181L21.7652 16.7455C21.7493 16.7118 21.741 16.6751 21.741 16.6379V16.4443C21.741 16.3566 21.7868 16.2752 21.8617 16.2296L22.1819 16.0347C22.2386 16.0002 22.2794 15.9445 22.2953 15.88L22.5766 14.7346C22.5872 14.6914 22.6091 14.6518 22.6401 14.6198L23.142 14.1011C23.2245 14.0159 23.3553 13.9999 23.4558 14.0628L23.9555 14.3751C24.0862 14.4568 24.259 14.4026 24.3197 14.2609L24.524 13.7844C24.5407 13.7453 24.5473 13.7026 24.5431 13.6603L24.4474 12.7034C24.4392 12.6222 24.4711 12.542 24.5329 12.4885L24.6732 12.3669C24.7393 12.3095 24.8306 12.2907 24.914 12.3173L25.1676 12.398C25.2423 12.4217 25.3238 12.4093 25.388 12.3644L25.3972 12.3579C25.4709 12.3064 25.5666 12.2981 25.648 12.3363L26.8065 12.8793C26.9134 12.9294 27.0408 12.8984 27.1127 12.8046L27.4017 12.4276C27.4652 12.3448 27.4455 12.2255 27.3586 12.1676C27.2904 12.1221 27.2614 12.0363 27.2879 11.9588L27.4919 11.364C27.5095 11.3125 27.51 11.2567 27.4932 11.2049L27.2987 10.6051C27.2653 10.5023 27.3014 10.3896 27.3883 10.3254L27.6539 10.1291C27.727 10.075 27.8236 10.0647 27.9065 10.102L28.0954 10.187C28.1771 10.2238 28.2732 10.2032 28.3327 10.1363C28.3843 10.0782 28.3986 9.99607 28.3698 9.924L28.2998 9.74902C28.2597 9.64875 28.2881 9.53408 28.3704 9.46414L28.4784 9.37235C28.5928 9.27511 28.7664 9.2992 28.85 9.42392L30.0314 11.1863C30.0731 11.2486 30.1405 11.289 30.2151 11.2965L31.1423 11.3892C31.21 11.396 31.2777 11.3749 31.3297 11.3309L32.0294 10.7389C32.1011 10.6782 32.2006 10.6626 32.2874 10.6983L33.5483 11.2175C33.6462 11.2578 33.7589 11.2325 33.8301 11.1542L33.8762 11.1034C33.9183 11.0571 33.9416 10.9968 33.9416 10.9343V10.5413C33.9416 10.4721 33.9701 10.406 34.0204 10.3585L34.3292 10.0669C34.347 10.0501 34.3622 10.0309 34.3744 10.0097L34.6437 9.54279C34.6803 9.47948 34.6874 9.4034 34.6634 9.33438L34.3742 8.50551C34.3622 8.47106 34.3578 8.43441 34.3614 8.3981L34.4909 7.08205C34.493 7.06011 34.498 7.03854 34.5058 7.01791L34.8931 5.99151C34.9301 5.89365 35.0237 5.82888 35.1283 5.82888H35.6156C35.679 5.82888 35.74 5.80495 35.7865 5.76188Z" fill="#76C69D" stroke="#303030" stroke-width="0.378567"/>
</svg>
