<svg width="41" height="42" viewBox="0 0 41 42" fill="none" xmlns="http://www.w3.org/2000/svg">
<path d="M25.035 2.83824L24.5414 1.01117C24.5406 1.00957 24.5406 1.00797 24.539 1.00717C24.5382 1.00637 24.5374 1.00557 24.5366 1.00397C24.535 1.00397 24.5342 1.00317 24.5318 1.00317H24.5278L1.008 6.44996C1.0064 6.45156 1.0056 6.45156 1.0048 6.45236C1.0032 6.45316 1.0024 6.45476 1.0016 6.45556C1.0016 6.45636 1 6.45716 1 6.45956V6.46276L11.1616 39.5763C11.1616 39.5771 11.1624 39.5795 11.1624 39.5803C11.1632 39.5819 11.1648 39.5827 11.1656 39.5827C11.168 39.5835 11.1688 39.5835 11.1696 39.5851C11.172 39.5851 11.1728 39.5851 11.1736 39.5835L14.6982 38.6251C14.7014 38.6251 14.7038 38.6251 14.707 38.6259C14.7086 38.6283 14.711 38.6299 14.7118 38.6323L15.5533 40.9922C15.5541 40.9954 15.5565 40.9978 15.5597 40.9986C15.5613 40.9994 15.5645 41.001 15.5669 40.9994L39.3795 33.9079C39.3811 33.9079 39.3835 33.9071 39.3843 33.9055C39.3851 33.9039 39.3867 33.9023 39.3867 33.9007C39.3875 33.8983 39.3875 33.8975 39.3867 33.8951C39.3867 33.8935 39.3851 33.8919 39.3843 33.8911C39.2459 33.7455 37.9268 32.324 37.2709 30.5306C36.5781 28.6363 29.4147 5.62363 28.9987 4.14534C28.6139 2.77584 28.5067 2.08149 28.4931 1.9855C28.4923 1.9839 28.4923 1.9823 28.4915 1.9815C28.4899 1.9807 28.4891 1.9791 28.4883 1.9783C28.4867 1.9775 28.4859 1.9767 28.4843 1.9767H28.4795L26.5778 2.45812" stroke="#303030" stroke-width="0.4"/>
<path d="M25.0382 2.8479L5.24768 8.02511C5.24768 8.02511 10.4689 25.9998 11.116 28.1268C11.7624 30.2546 14.7086 38.6228 14.7086 38.6228" stroke="#303030" stroke-width="0.4" stroke-linecap="round" stroke-linejoin="round"/>
<path d="M27.6123 10.4384C27.6974 10.4142 27.7834 10.3908 27.8703 10.3682" stroke="#303030" stroke-width="0.4" stroke-linecap="round" stroke-linejoin="round"/>
<path d="M10.4364 14.6181C10.4364 14.6181 11.7402 11.6891 12.7757 11.5672C13.8121 11.4464 14.2242 13.7416 14.7156 13.6109C15.2081 13.4794 15.3055 11.8673 16.588 11.9169C17.8704 11.9666 18.1193 12.58 18.1193 12.58C18.1193 12.58 19.2075 11.6177 19.6989 11.487C20.1913 11.3564 20.4195 12.1336 20.4195 12.1336C20.4195 12.1336 21.7018 10.7618 22.895 11.407C23.7796 11.886 24.8873 11.3955 26.2906 10.8787" stroke="#303030" stroke-width="0.4" stroke-linecap="round" stroke-linejoin="round"/>
<path d="M28.2614 14.8243C28.6291 14.7368 29.0055 14.6645 29.3778 14.6182" stroke="#303030" stroke-width="0.4" stroke-linecap="round" stroke-linejoin="round"/>
<path d="M12.0688 19.177C12.0688 19.177 13.7924 18.5113 14.4768 17.0531C15.1603 15.5946 12.7387 15.2443 12.9362 16.931C13.1337 18.6178 15.1344 18.6046 16.5382 17.5531C17.943 16.5017 17.9652 16.369 19.6422 16.7155C21.3202 17.0622 21.2042 15.9925 22.6783 15.6284C24.1533 15.2655 24.2791 16.2676 25.1093 15.9142C25.3649 15.8066 25.9607 15.546 26.7177 15.282" stroke="#303030" stroke-width="0.4" stroke-linecap="round" stroke-linejoin="round"/>
<path d="M13.3113 23.9033C13.3113 23.9033 13.7663 21.4647 14.9895 21.3345C16.2124 21.2052 16.619 22.4133 17.4605 22.1398C18.3011 21.8661 18.6702 20.5366 19.9198 20.9572C21.1686 21.3767 21.4639 21.0962 22.3078 20.6508C23.1515 20.2062 24.4246 20.4945 24.4246 20.4945" stroke="#303030" stroke-width="0.4" stroke-linecap="round" stroke-linejoin="round"/>
<path d="M25.3991 2.53114C25.3789 2.1741 25.3373 1.39831 25.3512 1.31268C25.3757 1.22495 25.4259 1.14718 25.4986 1.09022C25.5694 1.03386 25.6585 1.00252 25.749 1.00114C25.9982 0.985809 26.1433 1.12843 26.1645 1.22655C26.1789 1.29448 26.3257 1.98557 26.4135 2.39884" stroke="#303030" stroke-width="0.4"/>
<path d="M26.752 14.4588L25.2344 2.68494C25.2344 2.68494 25.4226 2.40757 25.9011 2.34651C26.0615 2.32115 26.2271 2.33531 26.381 2.38674C26.4579 2.41246 26.5278 2.45501 26.5871 2.51085L28.1125 14.3067" stroke="#303030" stroke-width="0.4"/>
<path d="M28.7718 19.4216C28.7724 19.4222 28.773 19.4241 28.7729 19.4264L28.6848 21.3749C28.684 21.3875 28.6807 21.4 28.675 21.4113C28.67 21.4231 28.6619 21.4331 28.6527 21.4419C28.592 21.5011 28.5138 21.5395 28.429 21.5502C28.3455 21.5597 28.2607 21.5433 28.1861 21.5021C28.1749 21.4952 28.1655 21.4866 28.1597 21.4757C27.9042 21.0046 27.4149 19.5551 27.4149 19.5551" stroke="#303030" stroke-width="0.4"/>
<path d="M28.2998 21.5176C28.2992 21.5158 28.2993 21.5146 28.2999 21.5128C28.3006 21.511 28.3012 21.5092 28.303 21.5087C28.3432 21.482 28.388 21.4638 28.4361 21.4565C28.4836 21.4498 28.5321 21.4539 28.578 21.4676C28.5797 21.4682 28.5809 21.4694 28.5821 21.4706C28.5832 21.4719 28.5838 21.4737 28.5838 21.4761C28.5782 21.7218 28.5661 21.9104 28.5635 21.9457C28.5628 21.9475 28.5622 21.9493 28.561 21.9504C28.5603 21.9522 28.5585 21.9528 28.5573 21.9527L28.4812 21.9774C28.4794 21.978 28.477 21.9779 28.4746 21.9767L28.4705 21.9724C28.4553 21.9306 28.3749 21.7202 28.2998 21.5176Z" stroke="#303030" stroke-width="0.4"/>
<path d="M28.2164 14.4956C28.3539 15.5045 28.7775 18.5407 28.872 19.2136C28.8777 19.2537 28.8709 19.2934 28.8526 19.3301C28.8355 19.3656 28.8076 19.3952 28.773 19.4135C28.773 19.4135 28.1791 19.0128 27.4093 19.5577L27.3611 19.5293C27.3352 19.5134 27.3134 19.4932 27.2958 19.4676C27.2794 19.4431 27.2684 19.4144 27.2651 19.3839L26.6442 14.7309C26.6359 14.6704 26.6468 14.6086 26.6757 14.5538C26.7034 14.499 26.7473 14.4543 26.8022 14.425C27.0457 14.2958 27.5028 14.1163 27.996 14.2457C28.0537 14.2608 28.1049 14.2933 28.1443 14.3379C28.1836 14.3826 28.2081 14.4375 28.2164 14.4956Z" stroke="#303030" stroke-width="0.4"/>
</svg>
