<svg width="41" height="42" viewBox="0 0 41 42" fill="none" xmlns="http://www.w3.org/2000/svg">
<path d="M37.2737 30.5297C36.5809 28.6353 29.4169 5.62081 29.0009 4.14241C28.6161 2.77281 28.5089 2.0784 28.4953 1.9824C28.4945 1.9808 28.4945 1.9792 28.4937 1.9784C28.4921 1.9776 28.4913 1.976 28.4905 1.9752C28.4889 1.9744 28.4881 1.9736 28.4865 1.9736H28.4817L25.0497 2.84241H25.0457C25.0441 2.84241 25.0433 2.8416 25.0425 2.8416C25.0401 2.84081 25.0393 2.8392 25.0393 2.83841C25.0385 2.83761 25.0369 2.83601 25.0369 2.83521L24.5433 1.008C24.5425 1.0064 24.5425 1.0048 24.5409 1.004C24.5401 1.0032 24.5393 1.0024 24.5385 1.0008C24.5369 1.0008 24.5361 1 24.5337 1H24.5297L1.008 6.44722C1.0064 6.44881 1.0056 6.44881 1.0048 6.44962C1.0032 6.45042 1.0024 6.45201 1.0016 6.45282C1.0016 6.45362 1 6.45441 1 6.45681V6.46002L11.1624 39.5761C11.1624 39.5769 11.1632 39.5793 11.1632 39.5801C11.164 39.5817 11.1656 39.5825 11.1664 39.5825C11.1688 39.5833 11.1696 39.5833 11.1704 39.5849C11.1728 39.5849 11.1736 39.5849 11.1744 39.5833L14.6992 38.6249C14.7024 38.6249 14.7048 38.6249 14.708 38.6257C14.7096 38.6281 14.712 38.6297 14.7128 38.6321L15.5544 40.9921C15.5552 40.9953 15.5576 40.9977 15.5608 40.9985C15.5624 40.9993 15.5656 41.0009 15.568 40.9993L39.3825 33.9073C39.3841 33.9073 39.3865 33.9065 39.3873 33.9049C39.3881 33.9033 39.3897 33.9017 39.3897 33.9001C39.3905 33.8977 39.3905 33.8969 39.3897 33.8945C39.3897 33.8929 39.3881 33.8913 39.3873 33.8905C39.2489 33.7449 37.9297 32.3233 37.2737 30.5297Z" fill="#FBFBFB" stroke="#303030" stroke-width="0.4"/>
<path d="M10.1928 14.5608C10.1928 14.5608 16.1073 13.0136 20.3833 12.1112C24.6585 11.2104 27.6161 10.0088 27.6161 10.0088" stroke="#303030" stroke-width="0.4" stroke-linecap="round" stroke-linejoin="round"/>
<path d="M10.84 16.4552C10.84 16.4552 18.2096 14.7 21.0753 13.9144C23.9409 13.128 28.2857 11.7888 28.2857 11.7888" stroke="#303030" stroke-width="0.4" stroke-linecap="round" stroke-linejoin="round"/>
<path d="M11.256 18.304C11.256 18.304 16.8937 16.8944 20.5681 15.9936C24.2425 15.0936 28.7473 13.5208 28.7473 13.5208" stroke="#303030" stroke-width="0.4" stroke-linecap="round" stroke-linejoin="round"/>
<path d="M11.7656 19.9682C11.7656 19.9682 18.4888 18.3498 21.6561 17.4266C24.8233 16.5034 29.2817 15.0706 29.2817 15.0706" stroke="#303030" stroke-width="0.4" stroke-linecap="round" stroke-linejoin="round"/>
<path d="M13.5208 25.6057C13.5208 25.6057 18.7649 24.4745 22.6937 23.3865C26.6217 22.2993 31.0577 20.8 31.0577 20.8" stroke="#303030" stroke-width="0.4" stroke-linecap="round" stroke-linejoin="round"/>
<path d="M14.1216 27.3625C14.1216 27.3625 19.3665 26.2313 23.2945 25.1441C27.2225 24.0561 31.6585 22.5569 31.6585 22.5569" stroke="#303030" stroke-width="0.4" stroke-linecap="round" stroke-linejoin="round"/>
<path d="M14.7224 29.0496C14.7224 29.0496 19.9673 27.9184 23.8953 26.8304C27.8241 25.7424 32.2593 24.2432 32.2593 24.2432" stroke="#303030" stroke-width="0.4" stroke-linecap="round" stroke-linejoin="round"/>
<path d="M15.3008 30.6673C15.3008 30.6673 23.4793 28.6561 25.6073 28.0097C27.7321 27.3625 32.7689 25.7217 32.7689 25.7217" stroke="#303030" stroke-width="0.4" stroke-linecap="round" stroke-linejoin="round"/>
<path d="M13.7745 20.5585C13.7745 20.5585 14.4441 20.9057 14.8825 20.2465C15.3217 19.5873 14.9409 18.8265 14.6161 18.1441C14.2921 17.4617 11.3704 12.9097 11.0688 12.3569C10.7688 11.8017 10.8256 11.4081 11.264 11.3041C11.7033 11.2001 12.2225 11.8241 12.2225 12.5873C12.2081 13.4361 12.0801 14.2801 11.8424 15.0953C11.6113 15.8713 11.472 17.4057 12.0625 18.1569C12.3361 18.5113 12.7321 18.7489 13.1729 18.8241C13.6137 18.8993 14.0673 18.8041 14.4417 18.5601C15.2153 18.0633 15.1345 16.4345 14.5913 15.9249C14.0489 15.4177 13.1233 15.6257 12.9633 16.2721C12.9257 16.3897 12.9249 16.5161 12.9601 16.6345C12.9961 16.7521 13.0673 16.8569 13.1641 16.9337C13.2609 17.0097 13.3793 17.0553 13.5017 17.0625C13.6241 17.0713 13.7473 17.0409 13.8529 16.9777" stroke="#303030" stroke-width="0.4" stroke-linecap="round" stroke-linejoin="round"/>
<path d="M20.5554 20.0066L20.3264 19.0185L19.5818 15.7979" stroke="#303030" stroke-width="0.4" stroke-linecap="round" stroke-linejoin="round"/>
<path d="M26.6637 17.4967L26.4612 16.6071L25.6882 13.2151" stroke="#303030" stroke-width="0.4" stroke-linecap="round" stroke-linejoin="round"/>
<path d="M26.6871 17.6015L20.5878 20.1489L20.3264 19.0183L26.4612 16.6077L26.6871 17.6015Z" fill="#76C69D" stroke="#303030" stroke-width="0.4"/>
<path d="M18.1961 25.7554L19.3857 30.9546" stroke="#303030" stroke-width="0.4" stroke-linecap="round" stroke-linejoin="round"/>
<path d="M25.0401 2.84473L5.24802 8.02234C5.24802 8.02234 10.4696 25.9984 11.1168 28.1256C11.7632 30.2536 14.7096 38.6224 14.7096 38.6224" stroke="#303030" stroke-width="0.4" stroke-linecap="round" stroke-linejoin="round"/>
<path d="M14.1504 20.6648C14.1528 20.6632 14.1536 20.6624 14.1544 20.6616C14.1568 20.6592 14.1568 20.6584 14.1576 20.656C14.1576 20.6544 14.1576 20.652 14.1568 20.6512C14.156 20.6488 14.1544 20.6464 14.1536 20.6456C14.1256 20.6248 14.0768 20.5576 14.0552 20.344C14.0192 20.032 13.552 19.876 13.4312 20.1712C13.3104 20.4616 13.4288 20.9056 14.1504 20.6648Z" fill="#76C69D" stroke="#303030" stroke-width="0.4"/>
<path d="M25.5763 13.381C25.3904 13.0216 25.4343 12.3795 26.2033 12.0944C26.9699 11.8086 27.1867 12.5666 27.0695 12.9625C26.953 13.3567 25.9415 14.0873 25.5763 13.381Z" fill="#76C69D" stroke="#303030" stroke-width="0.4"/>
<path d="M19.4331 15.8344C19.2471 15.475 19.291 14.8337 20.06 14.5478C20.8266 14.262 21.0434 15.0199 20.9262 15.4166C20.8073 15.8125 19.7982 16.543 19.4331 15.8344Z" fill="#76C69D" stroke="#303030" stroke-width="0.4"/>
<path d="M18.3001 26.0337C18.3001 26.0337 18.9465 26.2417 19.5121 25.5369C20.0777 24.8321 19.8121 23.9649 19.0385 24.0585C18.2649 24.1497 18.0113 24.8905 17.9753 25.3521C17.9425 25.8137 18.1857 25.9881 18.3001 26.0337Z" fill="#76C69D" stroke="#303030" stroke-width="0.4"/>
</svg>
