<svg width="42" height="39" viewBox="0 0 42 39" fill="none" xmlns="http://www.w3.org/2000/svg">
<path d="M32.5081 4.56848H38.6191" stroke="#303030" stroke-width="0.4"/>
<path d="M41 33.7801C41 36.0741 38.7806 37.1044 37.2723 37.1044C33.6517 37.1044 32.917 34.9659 32.7842 33.7801H36.0208V6.47721C36.0208 5.73035 36.6847 4.56848 38.6764 4.56848C40.2697 4.56848 40.8893 5.84097 41 6.47721V33.7801Z" stroke="#303030" stroke-width="0.4"/>
<path d="M32.7012 1H1V33.2822C1 36.4025 3.39179 37.0841 4.58127 37.0564H36.4485C33.6601 36.99 32.7012 34.6988 32.7012 33.2822V1Z" stroke="#303030" stroke-width="0.4"/>
<rect x="5.29784" y="12.6559" width="11.5432" height="10.5245" rx="0.318229" stroke="#303030" stroke-width="0.4"/>
<line x1="8.66577" y1="6.11554" x2="25.4841" y2="6.11554" stroke="#303030"/>
<line x1="8.66577" y1="8.90692" x2="25.4841" y2="8.90692" stroke="#303030"/>
<line x1="6.86603" y1="26.4606" x2="15.2728" y2="26.4606" stroke="#303030" stroke-width="0.4"/>
<line x1="19.8561" y1="14.1533" x2="28.2629" y2="14.1533" stroke="#303030" stroke-width="0.4"/>
<line x1="19.8561" y1="26.4606" x2="28.2629" y2="26.4606" stroke="#303030" stroke-width="0.4"/>
<line x1="6.86603" y1="33.5904" x2="15.2728" y2="33.5904" stroke="#303030" stroke-width="0.4"/>
<line x1="19.8561" y1="21.283" x2="28.2629" y2="21.283" stroke="#303030" stroke-width="0.4"/>
<line x1="19.8561" y1="33.5903" x2="28.2629" y2="33.5903" stroke="#303030" stroke-width="0.4"/>
<line x1="19.8561" y1="23.9143" x2="28.2629" y2="23.9143" stroke="#303030" stroke-width="0.4"/>
<line x1="6.86603" y1="28.8372" x2="15.2728" y2="28.8372" stroke="#303030" stroke-width="0.4"/>
<line x1="19.8561" y1="16.5298" x2="28.2629" y2="16.5298" stroke="#303030" stroke-width="0.4"/>
<line x1="19.8561" y1="28.8372" x2="28.2629" y2="28.8372" stroke="#303030" stroke-width="0.4"/>
<line x1="6.86603" y1="31.2138" x2="15.2728" y2="31.2138" stroke="#303030" stroke-width="0.4"/>
<line x1="19.8561" y1="18.9064" x2="28.2629" y2="18.9064" stroke="#303030" stroke-width="0.4"/>
<line x1="19.8561" y1="31.2138" x2="28.2629" y2="31.2138" stroke="#303030" stroke-width="0.4"/>
</svg>
