<svg width="29" height="42" viewBox="0 0 29 42" fill="none" xmlns="http://www.w3.org/2000/svg">
<path d="M2.4368 7.86586C2.4368 7.86586 8.58012 -2.21029 18.7383 2.0506C28.8965 6.31148 28.1388 15.628 25.0769 19.6546C22.1146 23.5503 20.5387 26.6259 19.7205 31.867C18.9023 37.1082 11.9603 41 7.61938 41C4.19427 41 1.726 38.8676 2.4368 33.3511" stroke="#303030" stroke-width="0.351518" stroke-miterlimit="10"/>
<path d="M23.1144 12.4432C20.5231 3.89406 13.2706 3.76518 8.92773 6.81927C5.29563 9.37346 4.20404 16.747 8.09976 16.9423C8.97069 16.9872 11.0054 16.376 12.2474 14.019C12.9836 12.6248 14.9051 11.8437 16.477 12.7517C18.049 13.6597 19.3632 16.9032 17.6252 18.7896C13.8096 22.9333 14.7274 26.8466 14.7274 29.4086C14.7274 33.5543 7.69945 34.9524 7.12535 28.9829" stroke="#303030" stroke-width="0.263639" stroke-miterlimit="10"/>
</svg>
