<svg width="33" height="42" viewBox="0 0 33 42" fill="none" xmlns="http://www.w3.org/2000/svg">
<mask id="path-1-inside-1_608_3841" fill="white">
<path fill-rule="evenodd" clip-rule="evenodd" d="M19.1353 4.40513C15.1168 8.2687 11.5177 8.67889 13.9449 4.39896C17.4207 -1.72976 9.58809 1.76885 6.40114 4.7354C1.91689 8.90954 0.391014 16.1819 1.25809 23.1731C2.8347 35.8853 5.78409 39.5132 12.7943 40.8017C18.4679 41.8446 26.2922 38.3999 29.6258 28.5258C35.4999 11.1262 24.2849 -0.545978 19.1353 4.40513ZM19.8881 9.83466C19.8866 11.0662 20.8856 12.0657 22.1193 12.0671C23.3531 12.0686 24.3544 11.0715 24.3559 9.83996C24.3573 8.60848 23.3584 7.60898 22.1246 7.60751C20.8909 7.60605 19.8895 8.60318 19.8881 9.83466Z"/>
</mask>
<path d="M13.9449 4.39896L13.597 4.20163L13.9449 4.39896ZM19.1353 4.40513L19.4125 4.69348V4.69348L19.1353 4.40513ZM6.40114 4.7354L6.67368 5.02819V5.02819L6.40114 4.7354ZM1.25809 23.1731L1.65505 23.1238V23.1238L1.25809 23.1731ZM12.7943 40.8017L12.8667 40.4083V40.4083L12.7943 40.8017ZM29.6258 28.5258L29.2468 28.3979V28.3979L29.6258 28.5258ZM22.1193 12.0671L22.1188 12.4671V12.4671L22.1193 12.0671ZM19.8881 9.83466L19.4881 9.83419L19.8881 9.83466ZM24.3559 9.83996L24.7559 9.84044V9.84044L24.3559 9.83996ZM22.1246 7.60751L22.1251 7.20751V7.20751L22.1246 7.60751ZM13.9449 4.39896L13.597 4.20163C12.9845 5.28152 12.6947 6.15613 12.7695 6.79533C12.8093 7.13557 12.956 7.43034 13.2277 7.62538C13.4887 7.81282 13.8132 7.87052 14.1413 7.85544C14.7891 7.82566 15.6083 7.50611 16.4923 6.97965C17.3877 6.4464 18.3901 5.67646 19.4125 4.69348L19.1353 4.40513L18.8581 4.11679C17.8712 5.06559 16.9168 5.79576 16.083 6.2923C15.2378 6.79563 14.5555 7.03555 14.1046 7.05628C13.8833 7.06645 13.7592 7.02215 13.6942 6.97553C13.6399 6.93651 13.5832 6.86513 13.5641 6.70234C13.5212 6.33546 13.6917 5.65637 14.2929 4.59629L13.9449 4.39896ZM6.40114 4.7354L6.67368 5.02819C8.22828 3.58109 10.9249 2.00435 12.7683 1.54457C13.2262 1.43037 13.6008 1.39326 13.8773 1.42699C14.1493 1.46016 14.2762 1.55301 14.3386 1.65606C14.4089 1.77214 14.4611 2.00392 14.3597 2.44195C14.2597 2.87426 14.0221 3.45202 13.597 4.20163L13.9449 4.39896L14.2929 4.59629C14.7367 3.81372 15.0147 3.16015 15.1391 2.6223C15.2622 2.09018 15.2478 1.61298 15.0228 1.24155C14.7899 0.857093 14.3927 0.683922 13.9742 0.632875C13.5602 0.582383 13.0779 0.642846 12.5747 0.768344C10.5741 1.26732 7.76095 2.92316 6.1286 4.44262L6.40114 4.7354ZM1.25809 23.1731L1.65505 23.1238C0.796118 16.1983 2.32112 9.07974 6.67368 5.02819L6.40114 4.7354L6.1286 4.44262C1.51266 8.73933 -0.0140892 16.1654 0.861131 23.2223L1.25809 23.1731ZM12.7943 40.8017L12.8667 40.4083C9.4254 39.7758 7.0496 38.5853 5.31915 36.046C3.56589 33.4733 2.44227 29.4712 1.65505 23.1238L1.25809 23.1731L0.861131 23.2223C1.65052 29.5872 2.7899 33.7552 4.65806 36.4965C6.54901 39.2713 9.15304 40.5391 12.722 41.1951L12.7943 40.8017ZM29.6258 28.5258L29.2468 28.3979C25.9685 38.1082 18.3204 41.4108 12.8667 40.4083L12.7943 40.8017L12.722 41.1951C18.6155 42.2784 26.6159 38.6917 30.0047 28.6537L29.6258 28.5258ZM19.1353 4.40513L19.4125 4.69348C20.5684 3.58212 22.0618 3.38813 23.6251 4.01009C25.2055 4.63883 26.8465 6.10489 28.1724 8.29136C30.818 12.6539 32.1503 19.7974 29.2468 28.3979L29.6258 28.5258L30.0047 28.6537C32.9754 19.8546 31.6373 12.4622 28.8565 7.87654C27.4692 5.58891 25.708 3.97778 23.9208 3.26675C22.1166 2.54893 20.2769 2.75259 18.8581 4.11679L19.1353 4.40513ZM22.1193 12.0671L22.1198 11.6671C21.1063 11.6659 20.2869 10.845 20.2881 9.83514L19.8881 9.83466L19.4881 9.83419C19.4863 11.2873 20.6649 12.4654 22.1188 12.4671L22.1193 12.0671ZM24.3559 9.83996L23.9559 9.83949C23.9547 10.8494 23.1333 11.6683 22.1198 11.6671L22.1193 12.0671L22.1188 12.4671C23.5728 12.4688 24.7541 11.2935 24.7559 9.84044L24.3559 9.83996ZM22.1246 7.60751L22.1241 8.00751C23.1377 8.00871 23.9571 8.82961 23.9559 9.83949L24.3559 9.83996L24.7559 9.84044C24.7576 8.38735 23.5791 7.20924 22.1251 7.20751L22.1246 7.60751ZM19.8881 9.83466L20.2881 9.83514C20.2893 8.82526 21.1106 8.00631 22.1241 8.00751L22.1246 7.60751L22.1251 7.20751C20.6711 7.20579 19.4898 8.3811 19.4881 9.83419L19.8881 9.83466Z" fill="#303030" mask="url(#path-1-inside-1_608_3841)"/>
<path d="M22.7641 17.3726C22.7641 16.9017 23.744 16.793 24.3973 16.6843C24.9803 16.5876 25.0869 16.3945 25.341 16.1409C25.595 15.8873 26.2483 16.6843 26.7565 16.9379C27.2646 17.1915 27.6275 17.6624 27.5912 18.3145C27.5549 18.9666 27.1194 19.184 27.2646 19.6549C27.4098 20.1259 26.575 20.8867 26.7565 21.3576C26.9379 21.8286 24.978 21.9011 24.6151 22.0822C24.2522 22.2633 23.6352 21.8286 23.3085 21.3576C22.9819 20.8867 22.4374 20.5606 22.1834 20.1984C21.9293 19.8361 22.0745 19.3651 22.4374 18.9666C22.8004 18.5681 22.7641 17.8436 22.7641 17.3726Z" stroke="#303030" stroke-width="0.4"/>
<path d="M24.3848 26.358C24.8292 26.516 24.603 27.4739 24.4863 28.1247C24.3819 28.7052 24.5284 28.8704 24.6825 29.1943C24.8366 29.5183 23.8652 29.8652 23.4554 30.2578C23.0455 30.6505 22.4793 30.8338 21.876 30.5808C21.2728 30.3279 21.2138 29.8454 20.7206 29.8239C20.2274 29.8023 19.7896 28.7621 19.2842 28.7747C18.7788 28.7873 19.3681 26.9202 19.319 26.5181C19.2698 26.116 19.8871 25.6818 20.4412 25.5327C20.9953 25.3836 21.4857 24.9811 21.9128 24.8637C22.34 24.7464 22.7357 25.041 22.99 25.516C23.2443 25.9909 23.9403 26.2 24.3848 26.358Z" stroke="#303030" stroke-width="0.4"/>
<path d="M13.5355 35.5119C13.1684 35.8078 12.468 35.1151 11.9728 34.6761C11.5312 34.2842 11.3136 34.3227 10.9563 34.2848C10.5991 34.2468 10.8098 33.2388 10.6882 32.6849C10.5665 32.131 10.7056 31.5532 11.2366 31.1717C11.7676 30.7901 12.2107 30.9918 12.4866 30.5831C12.7624 30.1745 13.8798 30.3447 14.1329 29.9078C14.3859 29.471 15.6738 30.9474 16.043 31.1154C16.4123 31.2835 16.4611 32.0357 16.2993 32.5853C16.1375 33.1349 16.2254 33.7625 16.1027 34.1874C15.9799 34.6123 15.5217 34.7955 14.983 34.764C14.4444 34.7326 13.9025 35.216 13.5355 35.5119Z" stroke="#303030" stroke-width="0.4"/>
<path d="M11.1502 23.5456C11.5622 23.7751 11.1797 24.6822 10.9564 25.3046C10.7569 25.8598 10.8739 26.0469 10.9719 26.3919C11.07 26.7369 10.0543 26.9179 9.58487 27.2372C9.1154 27.5565 8.52652 27.6434 7.97374 27.2939C7.42096 26.9445 7.44306 26.459 6.9603 26.356C6.47755 26.253 6.21882 25.1546 5.71838 25.0833C5.21794 25.012 6.10969 23.2684 6.1281 22.8638C6.14652 22.4591 6.82752 22.1332 7.39871 22.078C7.9699 22.0228 8.52045 21.7072 8.96119 21.6623C9.40193 21.6174 9.74318 21.9735 9.91492 22.484C10.0867 22.9946 10.7382 23.3161 11.1502 23.5456Z" stroke="#303030" stroke-width="0.4"/>
<path d="M9.24492 12.2837C9.67129 12.082 10.1893 12.9194 10.5675 13.4622C10.9046 13.9466 11.1251 13.9601 11.4635 14.0807C11.8019 14.2013 11.3601 15.1318 11.3481 15.6987C11.3361 16.2657 11.0651 16.7947 10.4592 17.0412C9.85328 17.2877 9.46999 16.9879 9.10578 17.3206C8.74157 17.6532 7.69535 17.226 7.34668 17.5913C6.99801 17.9567 6.09317 16.2199 5.77376 15.97C5.45435 15.7202 5.58373 14.9775 5.87023 14.4812C6.15674 13.9849 6.2188 13.3542 6.43799 12.9699C6.65719 12.5856 7.14573 12.5149 7.66193 12.6716C8.17813 12.8284 8.81855 12.4854 9.24492 12.2837Z" stroke="#303030" stroke-width="0.4"/>
</svg>
