<svg width="33" height="42" viewBox="0 0 33 42" fill="none" xmlns="http://www.w3.org/2000/svg">
<mask id="path-1-inside-1_608_3842" fill="white">
<path fill-rule="evenodd" clip-rule="evenodd" d="M19.1019 4.40504C15.0908 8.26861 11.4983 8.67881 13.9211 4.39888C17.3905 -1.72985 9.57228 1.76878 6.39117 4.73533C1.91514 8.90948 0.392052 16.1818 1.25752 23.173C2.83121 35.8852 5.77518 39.5131 12.7726 40.8016C18.4357 41.8445 26.2457 38.3998 29.5731 28.5257C35.4366 11.1261 24.2421 -0.546085 19.1019 4.40504ZM19.8534 9.83466C19.8519 11.0662 20.8491 12.0657 22.0805 12.0671C23.312 12.0686 24.3115 11.0715 24.313 9.83996C24.3145 8.60848 23.3173 7.60897 22.0858 7.60751C20.8544 7.60605 19.8549 8.60318 19.8534 9.83466Z"/>
</mask>
<path fill-rule="evenodd" clip-rule="evenodd" d="M19.1019 4.40504C15.0908 8.26861 11.4983 8.67881 13.9211 4.39888C17.3905 -1.72985 9.57228 1.76878 6.39117 4.73533C1.91514 8.90948 0.392052 16.1818 1.25752 23.173C2.83121 35.8852 5.77518 39.5131 12.7726 40.8016C18.4357 41.8445 26.2457 38.3998 29.5731 28.5257C35.4366 11.1261 24.2421 -0.546085 19.1019 4.40504ZM19.8534 9.83466C19.8519 11.0662 20.8491 12.0657 22.0805 12.0671C23.312 12.0686 24.3115 11.0715 24.313 9.83996C24.3145 8.60848 23.3173 7.60897 22.0858 7.60751C20.8544 7.60605 19.8549 8.60318 19.8534 9.83466Z" fill="#E5CEAE"/>
<path d="M13.9211 4.39888L14.2692 4.59593L13.9211 4.39888ZM19.1019 4.40504L19.3794 4.69313L19.1019 4.40504ZM6.39117 4.73533L6.66398 5.02787L6.39117 4.73533ZM1.25752 23.173L1.65449 23.1239L1.25752 23.173ZM12.7726 40.8016L12.845 40.4082L12.7726 40.8016ZM29.5731 28.5257L29.1941 28.3979L29.5731 28.5257ZM13.9211 4.39888L13.573 4.20182C12.9617 5.28175 12.6725 6.15621 12.7471 6.79516C12.7868 7.13518 12.9331 7.42994 13.2045 7.6251C13.4653 7.8127 13.7895 7.87044 14.1172 7.85535C14.7642 7.82555 15.5821 7.50586 16.4645 6.97939C17.3583 6.44611 18.3589 5.67613 19.3794 4.69313L19.1019 4.40504L18.8245 4.11694C17.8394 5.06573 16.8868 5.79587 16.0546 6.29238C15.211 6.7957 14.5301 7.03549 14.0804 7.0562C13.8598 7.06636 13.7362 7.02211 13.6716 6.97565C13.6175 6.93674 13.5608 6.86537 13.5417 6.70234C13.4988 6.33521 13.6691 5.65597 14.2692 4.59593L13.9211 4.39888ZM6.39117 4.73533L6.66398 5.02787C8.21571 3.5808 10.9072 2.00417 12.747 1.54444C13.204 1.43027 13.5777 1.3932 13.8535 1.42689C14.1246 1.46002 14.251 1.55269 14.3133 1.65569C14.3835 1.7719 14.4356 2.00389 14.3344 2.44202C14.2345 2.87441 13.9974 3.45221 13.573 4.20182L13.9211 4.39888L14.2692 4.59593C14.7122 3.81336 14.9897 3.15983 15.1139 2.62206C15.2367 2.09004 15.2223 1.61304 14.9978 1.24175C14.7653 0.857246 14.3686 0.683894 13.9505 0.632801C13.5371 0.58228 13.0554 0.642787 12.5531 0.768305C10.5559 1.26735 7.74775 2.92331 6.11837 4.4428L6.39117 4.73533ZM1.25752 23.173L1.65449 23.1239C0.797123 16.1981 2.31943 9.0794 6.66398 5.02787L6.39117 4.73533L6.11837 4.4428C1.51086 8.73955 -0.0130194 16.1655 0.860551 23.2222L1.25752 23.173ZM12.7726 40.8016L12.845 40.4082C9.41037 39.7758 7.03913 38.5855 5.3119 36.0462C3.56183 33.4734 2.44026 29.4713 1.65449 23.1239L1.25752 23.173L0.860551 23.2222C1.64847 29.587 2.78573 33.7549 4.65042 36.4962C6.53794 39.2711 9.13737 40.5389 12.7001 41.195L12.7726 40.8016ZM29.5731 28.5257L29.1941 28.3979C25.9217 38.1086 18.2877 41.4105 12.845 40.4082L12.7726 40.8016L12.7001 41.195C18.5838 42.2785 26.5696 38.6911 29.9522 28.6534L29.5731 28.5257ZM19.1019 4.40504L19.3794 4.69313C20.533 3.582 22.0231 3.38813 23.583 4.00989C25.1602 4.63852 26.7982 6.10444 28.1217 8.29097C30.7624 12.6536 32.0924 19.7974 29.1941 28.3979L29.5731 28.5257L29.9522 28.6534C32.9173 19.8544 31.5817 12.4622 28.8061 7.87671C27.4214 5.58913 25.6634 3.97788 23.8792 3.26674C22.0778 2.54874 20.241 2.75251 18.8245 4.11694L19.1019 4.40504ZM22.0805 12.0671L22.081 11.6671C21.0705 11.6659 20.2522 10.8457 20.2534 9.83514L19.8534 9.83466L19.4534 9.83419C19.4517 11.2866 20.6277 12.4654 22.0801 12.4671L22.0805 12.0671ZM24.313 9.83996L23.913 9.83949C23.9118 10.8501 23.0916 11.6683 22.081 11.6671L22.0805 12.0671L22.0801 12.4671C23.5325 12.4688 24.7113 11.2928 24.713 9.84044L24.313 9.83996ZM22.0858 7.60751L22.0854 8.00751C23.0959 8.00871 23.9142 8.82892 23.913 9.83949L24.313 9.83996L24.713 9.84044C24.7147 8.38804 23.5387 7.20924 22.0863 7.20751L22.0858 7.60751ZM19.8534 9.83466L20.2534 9.83514C20.2546 8.82457 21.0748 8.00631 22.0854 8.00751L22.0858 7.60751L22.0863 7.20751C20.6339 7.20579 19.4551 8.38179 19.4534 9.83419L19.8534 9.83466Z" fill="#303030" mask="url(#path-1-inside-1_608_3842)"/>
<path d="M22.7241 17.3726C22.7241 16.9017 23.7022 16.793 24.3543 16.6843C24.9362 16.5876 25.0427 16.3945 25.2963 16.1409C25.5499 15.8873 26.202 16.6843 26.7091 16.9379C27.2163 17.1915 27.5786 17.6624 27.5424 18.3145C27.5061 18.9666 27.0714 19.184 27.2163 19.6549C27.3612 20.1259 26.528 20.8867 26.7091 21.3576C26.8903 21.8286 24.934 21.9011 24.5717 22.0822C24.2094 22.2633 23.5936 21.8286 23.2675 21.3576C22.9415 20.8867 22.398 20.5606 22.1445 20.1984C21.8909 19.8361 22.0358 19.3651 22.398 18.9666C22.7603 18.5681 22.7241 17.8436 22.7241 17.3726Z" fill="#A9DBC2" stroke="#303030" stroke-width="0.4"/>
<path d="M24.3419 26.358C24.7855 26.516 24.5597 27.4739 24.4433 28.1247C24.3391 28.7052 24.4853 28.8704 24.6391 29.1943C24.7929 29.5183 23.8233 29.8652 23.4142 30.2578C23.0051 30.6505 22.4399 30.8338 21.8378 30.5808C21.2356 30.3279 21.1767 29.8454 20.6845 29.8239C20.1922 29.8023 19.7551 28.7621 19.2507 28.7747C18.7463 28.7873 19.3345 26.9202 19.2854 26.5181C19.2363 26.116 19.8525 25.6818 20.4056 25.5327C20.9586 25.3836 21.4481 24.9811 21.8745 24.8637C22.3009 24.7464 22.6959 25.041 22.9497 25.516C23.2036 25.9909 23.8983 26.2 24.3419 26.358Z" fill="#76C69D" stroke="#303030" stroke-width="0.4"/>
<path d="M13.5125 35.5119C13.1461 35.8078 12.4469 35.1151 11.9527 34.6761C11.5119 34.2842 11.2947 34.3227 10.9381 34.2848C10.5815 34.2468 10.7918 33.2388 10.6704 32.6849C10.549 32.131 10.6878 31.5532 11.2178 31.1717C11.7479 30.7901 12.1902 30.9918 12.4655 30.5831C12.7408 30.1745 13.8562 30.3447 14.1088 29.9078C14.3614 29.471 15.6469 30.9474 16.0154 31.1154C16.384 31.2835 16.4327 32.0357 16.2712 32.5853C16.1097 33.1349 16.1975 33.7625 16.075 34.1874C15.9525 34.6123 15.495 34.7955 14.9574 34.764C14.4198 34.7326 13.8788 35.216 13.5125 35.5119Z" fill="#5BA27E" stroke="#303030" stroke-width="0.4"/>
<path d="M11.1315 23.5456C11.5428 23.7751 11.161 24.6822 10.9381 25.3046C10.7389 25.8598 10.8557 26.0469 10.9536 26.3919C11.0514 26.7369 10.0377 26.9179 9.56907 27.2372C9.10047 27.5565 8.51266 27.6434 7.9609 27.2939C7.40913 26.9445 7.43119 26.459 6.94932 26.356C6.46745 26.253 6.2092 25.1546 5.70968 25.0833C5.21016 25.012 6.10027 23.2684 6.11865 22.8638C6.13703 22.4591 6.81678 22.1332 7.38692 22.078C7.95707 22.0228 8.50661 21.7072 8.94653 21.6623C9.38646 21.6174 9.72709 21.9735 9.89852 22.484C10.0699 22.9946 10.7203 23.3161 11.1315 23.5456Z" fill="#7F99AE" stroke="#303030" stroke-width="0.4"/>
<path d="M9.22977 12.2837C9.65536 12.082 10.1724 12.9194 10.5499 13.4622C10.8864 13.9466 11.1065 13.9601 11.4443 14.0807C11.7821 14.2013 11.341 15.1318 11.3291 15.6987C11.3171 16.2657 11.0466 16.7947 10.4418 17.0412C9.83701 17.2877 9.45443 16.9879 9.09088 17.3206C8.72734 17.6532 7.68304 17.226 7.33501 17.5913C6.98698 17.9567 6.0838 16.2199 5.76498 15.97C5.44616 15.7202 5.5753 14.9775 5.86127 14.4812C6.14725 13.9849 6.2092 13.3542 6.42799 12.9699C6.64678 12.5856 7.13443 12.5149 7.64968 12.6716C8.16493 12.8284 8.80418 12.4854 9.22977 12.2837Z" fill="#BED5E8" stroke="#303030" stroke-width="0.4"/>
</svg>
