<svg width="19" height="42" viewBox="0 0 19 42" fill="none" xmlns="http://www.w3.org/2000/svg">
<path fill-rule="evenodd" clip-rule="evenodd" d="M15.623 8.85473C15.5898 6.04826 14.5075 3.76709 12.7252 2.382C10.9421 0.996318 8.60543 0.628696 6.36151 1.3879C4.61723 1.97806 3.321 2.95514 2.55405 4.2529C1.78853 5.54826 1.64321 7.00654 1.91065 8.3864C2.17388 9.7446 2.84008 11.0727 3.79017 12.2342C2.73637 13.4045 1.69649 14.8705 1.24071 16.5403C0.952478 17.5963 0.895182 18.7439 1.22311 19.9285C1.55015 21.1099 2.23545 22.2385 3.29645 23.2987C4.88216 24.8831 6.54127 25.9253 7.95476 26.8132L7.95489 26.8133C8.29524 27.0271 8.62135 27.232 8.92876 27.4333C10.5305 28.4823 11.8034 29.5225 12.7567 31.4273C13.4825 32.8778 13.4501 34.2355 12.959 35.3259C12.4608 36.432 11.4351 37.3825 9.96222 37.8731C8.75905 38.2738 7.47217 37.9118 6.39495 36.955C5.3035 35.9856 4.61025 34.5495 4.61025 33.1973C4.61025 32.3791 3.94644 31.7159 3.12759 31.7159C2.30874 31.7159 1.64493 32.3791 1.64493 33.1973C1.64493 35.4938 2.77756 37.7064 4.42491 39.1695C6.0865 40.6452 8.45136 41.4994 10.8999 40.6839C13.0788 39.9582 14.7919 38.4762 15.6631 36.5418C16.5172 34.6455 16.5101 32.4269 15.4977 30.2847C16.0421 29.7267 16.6499 29.0354 17.1198 28.0657C17.6846 26.9004 18 25.4495 18 23.4673C18 20.8901 16.868 18.7181 15.1585 16.9175C13.4685 15.1375 11.1669 13.665 8.65965 12.4124C6.56889 11.3678 5.14354 9.48274 4.82188 7.8231C4.66648 7.02133 4.77344 6.32458 5.10744 5.7594C5.44003 5.19663 6.0906 4.60768 7.31257 4.19424C8.6627 3.73744 9.94892 3.97802 10.9046 4.72074C11.8611 5.46405 12.6335 6.83148 12.6579 8.88981C12.6676 9.70793 13.3392 10.3633 14.158 10.3536C14.9768 10.3439 15.6327 9.67285 15.623 8.85473ZM13.8336 27.7136C14.0767 27.4241 14.279 27.1292 14.4509 26.7745C14.7703 26.1154 15.0347 25.1338 15.0347 23.4673C15.0347 21.838 14.3408 20.3613 13.0072 18.9566C11.654 17.5314 9.69521 16.2423 7.33351 15.0624C6.85687 14.8243 6.39957 14.5509 5.96638 14.2478C5.08958 15.2278 4.38666 16.2753 4.10154 17.3199C3.9333 17.9362 3.91453 18.5369 4.08111 19.1387C4.24858 19.7436 4.62838 20.4394 5.39324 21.2036C6.72086 22.5301 8.03727 23.3597 9.42217 24.2324L9.42219 24.2324L9.42244 24.2325C9.79428 24.4669 10.1711 24.7043 10.5543 24.9553C11.696 25.7029 12.8283 26.5389 13.8336 27.7136Z" fill="#D6B689"/>
<path d="M12.7252 2.382L12.8479 2.22408V2.22408L12.7252 2.382ZM15.623 8.85473L15.423 8.8571V8.8571L15.623 8.85473ZM6.36151 1.3879L6.29741 1.19845V1.19845L6.36151 1.3879ZM2.55405 4.2529L2.72623 4.35466L2.55405 4.2529ZM1.91065 8.3864L1.7143 8.42445V8.42445L1.91065 8.3864ZM3.79017 12.2342L3.93879 12.368L4.05368 12.2405L3.94498 12.1076L3.79017 12.2342ZM1.24071 16.5403L1.04776 16.4876H1.04776L1.24071 16.5403ZM1.22311 19.9285L1.03036 19.9819L1.22311 19.9285ZM3.29645 23.2987L3.43781 23.1572H3.43781L3.29645 23.2987ZM7.95476 26.8132L8.06237 26.6446L8.06115 26.6439L7.95476 26.8132ZM7.95489 26.8133L7.84728 26.9819L7.84851 26.9827L7.95489 26.8133ZM8.92876 27.4333L8.81918 27.6006V27.6006L8.92876 27.4333ZM12.7567 31.4273L12.9355 31.3378V31.3378L12.7567 31.4273ZM12.959 35.3259L12.7766 35.2438V35.2438L12.959 35.3259ZM9.96222 37.8731L9.89902 37.6833H9.89902L9.96222 37.8731ZM6.39495 36.955L6.52777 36.8055H6.52776L6.39495 36.955ZM4.42491 39.1695L4.29209 39.319V39.319L4.42491 39.1695ZM10.8999 40.6839L10.8367 40.4942H10.8367L10.8999 40.6839ZM15.6631 36.5418L15.8455 36.6239V36.6239L15.6631 36.5418ZM15.4977 30.2847L15.3545 30.145L15.2575 30.2445L15.3168 30.3701L15.4977 30.2847ZM17.1198 28.0657L16.9398 27.9785V27.9785L17.1198 28.0657ZM15.1585 16.9175L15.3035 16.7798V16.7798L15.1585 16.9175ZM8.65965 12.4124L8.57026 12.5913H8.57026L8.65965 12.4124ZM4.82188 7.8231L4.62553 7.86115V7.86115L4.82188 7.8231ZM5.10744 5.7594L5.27962 5.86116L5.10744 5.7594ZM7.31257 4.19424L7.24847 4.00479V4.00479L7.31257 4.19424ZM10.9046 4.72074L10.7819 4.87866V4.87866L10.9046 4.72074ZM12.6579 8.88981L12.8579 8.88744V8.88744L12.6579 8.88981ZM14.158 10.3536L14.1604 10.5536V10.5536L14.158 10.3536ZM13.8336 27.7136L13.6816 27.8436L13.8351 28.0229L13.9868 27.8422L13.8336 27.7136ZM14.4509 26.7745L14.271 26.6872V26.6872L14.4509 26.7745ZM13.0072 18.9566L13.1522 18.8189V18.8189L13.0072 18.9566ZM7.33351 15.0624L7.4229 14.8835H7.4229L7.33351 15.0624ZM5.96638 14.2478L6.08104 14.084L5.93565 13.9822L5.81733 14.1145L5.96638 14.2478ZM4.10154 17.3199L4.29448 17.3725V17.3725L4.10154 17.3199ZM4.08111 19.1387L4.27386 19.0853V19.0853L4.08111 19.1387ZM5.39324 21.2036L5.53461 21.0621V21.0621L5.39324 21.2036ZM9.42217 24.2324L9.53925 24.0697L9.5288 24.0632L9.42217 24.2324ZM9.42219 24.2324L9.3051 24.395L9.31584 24.4018L9.42219 24.2324ZM9.42244 24.2325L9.52907 24.0633L9.52879 24.0632L9.42244 24.2325ZM10.5543 24.9553L10.4447 25.1226V25.1226L10.5543 24.9553ZM12.7252 2.382L12.6024 2.53992C14.3289 3.88163 15.3904 6.10104 15.423 8.8571L15.623 8.85473L15.823 8.85236C15.7892 5.99549 14.686 3.65255 12.8479 2.22408L12.7252 2.382ZM6.36151 1.3879L6.4256 1.57735C8.60937 0.838499 10.8752 1.19764 12.6024 2.53992L12.7252 2.382L12.8479 2.22408C11.009 0.794993 8.60148 0.418893 6.29741 1.19845L6.36151 1.3879ZM2.55405 4.2529L2.72623 4.35466C3.46381 3.10659 4.71643 2.15564 6.4256 1.57735L6.36151 1.3879L6.29741 1.19845C4.51804 1.80048 3.17819 2.80369 2.38187 4.15115L2.55405 4.2529ZM1.91065 8.3864L2.10699 8.34834C1.84711 7.00744 1.9899 5.60062 2.72623 4.35466L2.55405 4.2529L2.38187 4.15115C1.58716 5.49589 1.43932 7.00565 1.7143 8.42445L1.91065 8.3864ZM3.79017 12.2342L3.94498 12.1076C3.0125 10.9676 2.36299 9.66921 2.10699 8.34834L1.91065 8.3864L1.7143 8.42445C1.98477 9.81999 2.66766 11.1778 3.63537 12.3608L3.79017 12.2342ZM1.24071 16.5403L1.43365 16.593C1.87761 14.9664 2.8943 13.528 3.93879 12.368L3.79017 12.2342L3.64155 12.1004C2.57843 13.281 1.51537 14.7745 1.04776 16.4876L1.24071 16.5403ZM1.22311 19.9285L1.41586 19.8752C1.09884 18.73 1.15352 17.6193 1.43365 16.593L1.24071 16.5403L1.04776 16.4876C0.751439 17.5733 0.691524 18.7579 1.03036 19.9819L1.22311 19.9285ZM3.29645 23.2987L3.43781 23.1572C2.39677 22.117 1.73211 21.0176 1.41586 19.8752L1.22311 19.9285L1.03036 19.9819C1.36818 21.2022 2.07412 22.3601 3.15509 23.4401L3.29645 23.2987ZM7.95476 26.8132L8.06115 26.6439C6.64708 25.7556 5.00577 24.7238 3.43781 23.1572L3.29645 23.2987L3.15509 23.4401C4.75855 25.0423 6.43547 26.095 7.84837 26.9826L7.95476 26.8132ZM7.95489 26.8133L8.0625 26.6447L8.06237 26.6446L7.95476 26.8132L7.84715 26.9818L7.84729 26.9819L7.95489 26.8133ZM8.92876 27.4333L9.03833 27.266C8.72905 27.0634 8.40129 26.8575 8.06128 26.6439L7.95489 26.8133L7.84851 26.9827C8.18919 27.1967 8.51364 27.4005 8.81918 27.6006L8.92876 27.4333ZM12.7567 31.4273L12.9355 31.3378C11.9595 29.3874 10.6529 28.3234 9.03833 27.266L8.92876 27.4333L8.81918 27.6006C10.408 28.6411 11.6474 29.6576 12.5778 31.5168L12.7567 31.4273ZM12.959 35.3259L13.1414 35.408C13.6586 34.2596 13.6867 32.8389 12.9355 31.3378L12.7567 31.4273L12.5778 31.5168C13.2783 32.9167 13.2416 34.2114 12.7766 35.2438L12.959 35.3259ZM9.96222 37.8731L10.0254 38.0628C11.546 37.5564 12.618 36.57 13.1414 35.408L12.959 35.3259L12.7766 35.2438C12.3036 36.2941 11.3242 37.2087 9.89902 37.6833L9.96222 37.8731ZM6.39495 36.955L6.26214 37.1046C7.37943 38.0969 8.73899 38.4913 10.0254 38.0628L9.96222 37.8731L9.89902 37.6833C8.7791 38.0563 7.56491 37.7266 6.52777 36.8055L6.39495 36.955ZM4.61025 33.1973H4.41025C4.41025 34.6132 5.13308 36.1018 6.26214 37.1046L6.39495 36.955L6.52776 36.8055C5.47392 35.8695 4.81025 34.4859 4.81025 33.1973H4.61025ZM3.12759 31.7159V31.9159C3.83614 31.9159 4.41025 32.4897 4.41025 33.1973H4.61025H4.81025C4.81025 32.2685 4.05674 31.5159 3.12759 31.5159V31.7159ZM1.64493 33.1973H1.84493C1.84493 32.4897 2.41904 31.9159 3.12759 31.9159V31.7159V31.5159C2.19844 31.5159 1.44493 32.2685 1.44493 33.1973H1.64493ZM4.42491 39.1695L4.55772 39.02C2.9478 37.5901 1.84493 35.4299 1.84493 33.1973H1.64493H1.44493C1.44493 35.5577 2.60731 37.8227 4.29209 39.319L4.42491 39.1695ZM10.8999 40.6839L10.8367 40.4942C8.47245 41.2816 6.18023 40.461 4.55772 39.02L4.42491 39.1695L4.29209 39.319C5.99276 40.8295 8.43027 41.7173 10.9631 40.8737L10.8999 40.6839ZM15.6631 36.5418L15.4808 36.4596C14.6348 38.3381 12.9681 39.7843 10.8367 40.4942L10.8999 40.6839L10.9631 40.8737C13.1895 40.1321 14.949 38.6144 15.8455 36.6239L15.6631 36.5418ZM15.4977 30.2847L15.3168 30.3701C16.3057 32.4624 16.3094 34.6197 15.4808 36.4596L15.6631 36.5418L15.8455 36.6239C16.7249 34.6712 16.7145 32.3914 15.6785 30.1992L15.4977 30.2847ZM17.1198 28.0657L16.9398 27.9785C16.4836 28.92 15.8928 29.5933 15.3545 30.145L15.4977 30.2847L15.6408 30.4243C16.1914 29.86 16.8162 29.1508 17.2998 28.1529L17.1198 28.0657ZM18 23.4673H17.8C17.8 25.4282 17.488 26.8474 16.9398 27.9785L17.1198 28.0657L17.2998 28.1529C17.8811 26.9534 18.2 25.4708 18.2 23.4673H18ZM15.1585 16.9175L15.0134 17.0552C16.6977 18.8292 17.8 20.9542 17.8 23.4673H18H18.2C18.2 20.8259 17.0383 18.607 15.3035 16.7798L15.1585 16.9175ZM8.65965 12.4124L8.57026 12.5913C11.0677 13.839 13.3462 15.2992 15.0134 17.0552L15.1585 16.9175L15.3035 16.7798C13.5908 14.9759 11.2661 13.491 8.74903 12.2334L8.65965 12.4124ZM4.82188 7.8231L4.62553 7.86115C4.96083 9.59116 6.433 11.5235 8.57026 12.5913L8.65965 12.4124L8.74903 12.2334C6.70478 11.2122 5.32625 9.37433 5.01822 7.78504L4.82188 7.8231ZM5.10744 5.7594L4.93526 5.65765C4.57222 6.27196 4.46252 7.0201 4.62553 7.86115L4.82188 7.8231L5.01822 7.78504C4.87045 7.02256 4.97466 6.3772 5.27962 5.86116L5.10744 5.7594ZM7.31257 4.19424L7.24847 4.00479C5.99112 4.4302 5.29709 5.0454 4.93526 5.65765L5.10744 5.7594L5.27962 5.86116C5.58297 5.34786 6.19007 4.78516 7.37667 4.38369L7.31257 4.19424ZM10.9046 4.72074L11.0274 4.56282C10.016 3.77682 8.65896 3.52757 7.24847 4.00479L7.31257 4.19424L7.37667 4.38369C8.66643 3.94731 9.88188 4.17921 10.7819 4.87866L10.9046 4.72074ZM12.6579 8.88981L12.8579 8.88744C12.8329 6.77831 12.0394 5.3493 11.0274 4.56282L10.9046 4.72074L10.7819 4.87866C11.6828 5.5788 12.4341 6.88465 12.4579 8.89218L12.6579 8.88981ZM14.158 10.3536L14.1557 10.1536C13.4472 10.162 12.8663 9.59495 12.8579 8.88744L12.6579 8.88981L12.4579 8.89218C12.4689 9.8209 13.2313 10.5646 14.1604 10.5536L14.158 10.3536ZM15.623 8.85473L15.423 8.8571C15.4314 9.56461 14.8642 10.1452 14.1557 10.1536L14.158 10.3536L14.1604 10.5536C15.0895 10.5426 15.834 9.78108 15.823 8.85236L15.623 8.85473ZM13.8336 27.7136L13.9868 27.8422C14.2384 27.5425 14.4505 27.2339 14.6309 26.8617L14.4509 26.7745L14.271 26.6872C14.1075 27.0245 13.915 27.3056 13.6804 27.585L13.8336 27.7136ZM14.4509 26.7745L14.6309 26.8617C14.9669 26.1685 15.2347 25.1552 15.2347 23.4673H15.0347H14.8347C14.8347 25.1125 14.5738 26.0624 14.271 26.6872L14.4509 26.7745ZM15.0347 23.4673H15.2347C15.2347 21.7741 14.5113 20.2504 13.1522 18.8189L13.0072 18.9566L12.8621 19.0943C14.1702 20.4721 14.8347 21.9019 14.8347 23.4673H15.0347ZM13.0072 18.9566L13.1522 18.8189C11.7763 17.3698 9.79439 16.0683 7.4229 14.8835L7.33351 15.0624L7.24413 15.2413C9.59603 16.4163 11.5317 17.693 12.8621 19.0943L13.0072 18.9566ZM7.33351 15.0624L7.4229 14.8835C6.95522 14.6499 6.50636 14.3816 6.08104 14.084L5.96638 14.2478L5.85172 14.4117C6.29279 14.7203 6.75851 14.9987 7.24413 15.2413L7.33351 15.0624ZM5.96638 14.2478L5.81733 14.1145C4.93201 15.104 4.20562 16.179 3.9086 17.2672L4.10154 17.3199L4.29448 17.3725C4.56769 16.3716 5.24716 15.3516 6.11543 14.3812L5.96638 14.2478ZM4.10154 17.3199L3.9086 17.2672C3.73224 17.9133 3.71089 18.5509 3.88836 19.192L4.08111 19.1387L4.27386 19.0853C4.11816 18.5229 4.13437 17.9591 4.29448 17.3725L4.10154 17.3199ZM4.08111 19.1387L3.88836 19.192C4.0666 19.8359 4.467 20.5609 5.25188 21.3451L5.39324 21.2036L5.53461 21.0621C4.78975 20.3179 4.43056 19.6514 4.27386 19.0853L4.08111 19.1387ZM5.39324 21.2036L5.25188 21.3451C6.59721 22.6893 7.93144 23.5294 9.31554 24.4016L9.42217 24.2324L9.5288 24.0632C8.1431 23.19 6.84452 22.371 5.53461 21.0621L5.39324 21.2036ZM9.42217 24.2324L9.30531 24.3947L9.30533 24.3947L9.42219 24.2324L9.53905 24.0701L9.53903 24.0701L9.42217 24.2324ZM9.42219 24.2324L9.31584 24.4018L9.31608 24.4019L9.42244 24.2325L9.52879 24.0632L9.52855 24.063L9.42219 24.2324ZM9.42244 24.2325L9.31581 24.4017C9.68786 24.6362 10.0632 24.8727 10.4447 25.1226L10.5543 24.9553L10.6639 24.788C10.2789 24.5359 9.90069 24.2975 9.52907 24.0633L9.42244 24.2325ZM10.5543 24.9553L10.4447 25.1226C11.5802 25.8662 12.6943 26.69 13.6816 27.8436L13.8336 27.7136L13.9855 27.5836C12.9622 26.3878 11.8117 25.5397 10.6639 24.788L10.5543 24.9553Z" fill="#303030"/>
</svg>
