<svg width="42" height="36" viewBox="0 0 42 36" fill="none" xmlns="http://www.w3.org/2000/svg">
<path d="M11.4235 34.7333C6.81032 35.6559 8.92489 24.025 9.2364 22.2598C10.0272 17.7784 36.2028 8.50421 38.8389 8.3724C41.475 8.2406 40.9592 11.8162 40.9592 15.0263C40.9592 20.9358 38.8395 21.9847 35.7793 23.927C33.4186 25.4253 22.4141 32.5353 11.4235 34.7333Z" fill="#E5CEAE" stroke="#303030" stroke-width="0.4"/>
<path d="M2.51451 30.1674C0.726742 28.6032 1.01752 25.0252 1.01752 23.3249C1.01752 20.3301 1.65853 17.094 3.70445 15.5066C5.55858 14.068 15.6467 8.61828 21.9565 6.45221C24.6432 5.52994 29.7248 4.72284 32.0553 5.1246C34.2387 5.50104 38.4141 7.80286 39.507 8.40671C39.5498 8.41854 39.586 8.43344 39.6155 8.45151C39.8729 8.60928 39.8031 8.57032 39.507 8.40671C36.9059 7.68801 10.0894 18.3138 9.28029 22.128C8.35766 26.4776 7.69724 33.4875 10.3441 34.7039C10.0796 34.8373 4.30228 31.7316 2.51451 30.1674Z" fill="#D6B689" stroke="#303030" stroke-width="0.4"/>
<path d="M23.7466 10.3003C27.7357 9.22133 31.349 8.20771 32.9507 7.50818C33.5044 7.26639 32.4401 6.43433 31.349 6.50246C28.6512 6.67092 25.0644 7.28012 22.6349 8.37122C20.3821 9.38296 18.2132 10.5413 17.1837 11.248C16.3022 11.8531 13.0721 13.8941 12.5113 14.184C10.6113 15.1665 5.96329 18.2025 5.3705 19.4578C5.16188 19.8995 4.48355 23.3145 4.66815 23.5757C4.87681 23.8708 5.06565 20.5933 5.59715 19.3532C5.96328 18.4988 10.0149 15.7653 12.5113 14.3441C14.6682 13.1162 18.5644 11.7021 23.7466 10.3003Z" stroke="#303030" stroke-width="0.4"/>
<path d="M11.6911 16.1339C11.7516 15.6528 12.9986 13.4166 13.3045 13.5803C13.6105 13.7441 12.7178 16.1604 12.3831 16.5185C12.2041 16.71 11.6197 16.7017 11.6911 16.1339Z" fill="#A9C0D3" stroke="#303030" stroke-width="0.4"/>
<path d="M33.9339 4.34886C34.2188 4.69068 34.1296 5.20305 33.7478 5.43157L27.1281 9.39364C27.0695 9.42871 27.0063 9.45538 26.9403 9.47288L19.6398 11.408L30.9501 1.92224C31.2588 1.66334 31.7183 1.70275 31.9772 2.01139C32.5021 2.63694 33.3553 3.65453 33.9339 4.34886Z" fill="#A9C0D3" stroke="#303030" stroke-width="0.4" stroke-miterlimit="10"/>
<path d="M28.3989 6.04528L27.4351 4.90881" stroke="#303030" stroke-width="0.2" stroke-miterlimit="10"/>
<path d="M29.8458 4.17043L29.2023 3.41089" stroke="#303030" stroke-width="0.2" stroke-miterlimit="10"/>
<path d="M22.7794 10.164L22.1352 9.40476" stroke="#303030" stroke-width="0.2" stroke-miterlimit="10"/>
<path d="M24.8656 9.04214L23.9017 7.90566" stroke="#303030" stroke-width="0.2" stroke-miterlimit="10"/>
<path d="M26.3126 7.16722L25.6691 6.40769" stroke="#303030" stroke-width="0.2" stroke-miterlimit="10"/>
<path d="M31.1579 8.29029C29.4776 8.83025 27.9372 9.29305 26.3677 9.62102L34.6427 4.06249L35.7438 5.72405L33.0534 7.53896C33.0534 7.53896 32.507 7.92772 31.1579 8.29029Z" fill="#5BA27E" stroke="#303030" stroke-width="0.4" stroke-miterlimit="10"/>
<path d="M30.3097 8.50728L27.9623 9.20631C27.9623 9.20631 30.293 7.67223 34.9859 4.57686L35.3972 5.19729C31.2554 8.04975 30.3097 8.50728 30.3097 8.50728Z" fill="#9BD8B9" stroke="#303030" stroke-width="0.2" stroke-miterlimit="10"/>
<path d="M36.1995 3.85708L36.5397 4.37064C36.7498 4.68768 36.6633 5.11632 36.3456 5.3268L35.7463 5.72389L35.7441 5.72344L34.6453 4.06488L34.6457 4.0627L35.2464 3.66474C35.5628 3.45513 35.9899 3.5407 36.1995 3.85708Z" fill="#DDF1E7" stroke="#303030" stroke-width="0.4" stroke-miterlimit="10"/>
<path d="M21.717 10.8568L19.6491 11.5154L17.9077 12.0617C17.9077 12.0617 19.9584 9.75171 23.0506 6.50629L24.5213 7.85177C22.7023 9.78364 21.717 10.8568 21.717 10.8568Z" fill="#76C69D" stroke="#303030" stroke-width="0.4" stroke-miterlimit="10"/>
<path d="M20.5623 11.1707C20.4116 11.2159 19.2883 11.5912 19.2883 11.5912L23.5083 6.92245L24.0575 7.42482C23.1728 8.39516 20.5623 11.1707 20.5623 11.1707Z" fill="#A9DBC2" stroke="#303030" stroke-width="0.2" stroke-miterlimit="10"/>
<path d="M24.5114 5.93125L24.9658 6.34602C25.2464 6.60276 25.2663 7.03958 25.009 7.32072L24.5237 7.85113L24.5215 7.85123L23.0537 6.50812L23.0536 6.5059L23.54 5.97433C23.7962 5.69434 24.2314 5.67504 24.5114 5.93125Z" fill="#DDF1E7" stroke="#303030" stroke-width="0.4" stroke-miterlimit="10"/>
<path d="M17.9257 12.053L20.2197 9.53674C18.2087 10.4464 14.894 12.72 13.2872 13.8316L15.3892 12.9827L17.9257 12.053Z" fill="#303030" stroke="#303030" stroke-width="0.4"/>
</svg>
