<svg width="42" height="36" viewBox="0 0 42 36" fill="none" xmlns="http://www.w3.org/2000/svg">
<path d="M11.4235 34.7341C6.81032 35.6591 8.92489 23.9979 9.2364 22.2281C10.0272 17.7351 36.2028 8.43678 38.8389 8.30463C41.475 8.17249 40.9592 11.7574 40.9592 14.9758C40.9592 20.9007 38.8395 21.9523 35.7793 23.8996C33.4186 25.4018 22.4141 32.5303 11.4235 34.7341Z" stroke="#303030" stroke-width="0.4"/>
<path d="M24.3779 5.71631C25.171 5.53957 26.0179 5.38224 26.8622 5.25635M23.5082 5.92276L21.9565 6.37947C15.6467 8.55117 5.55858 14.015 3.70445 15.4574C1.65853 17.049 1.01752 20.2935 1.01752 23.2961C1.01752 25.0007 0.726742 28.5881 2.51451 30.1563C4.30228 31.7245 10.0796 34.8383 10.3441 34.7046C7.69724 33.485 8.35766 26.4569 9.28029 22.096C10.1027 18.2089 37.796 7.26582 39.6155 8.38396C40.4639 8.90534 37.7571 7.28377 35.1098 6.10707" stroke="#303030" stroke-width="0.4"/>
<path d="M12.5113 14.2919C10.0149 15.7168 5.96328 18.4574 5.59715 19.314C5.06565 20.5573 4.87681 23.8434 4.66815 23.5474C4.48355 23.2856 5.16188 19.8618 5.3705 19.4188C5.96329 18.1603 10.8937 14.95 12.7937 13.965M17.1837 11.1877C16.5422 11.6292 14.6572 12.833 13.462 13.5679" stroke="#303030" stroke-width="0.4"/>
<path d="M11.6911 16.0863C11.7516 15.6039 12.9986 13.362 13.3045 13.5261C13.6105 13.6903 12.7178 16.1129 12.3831 16.4719C12.2041 16.664 11.6197 16.6556 11.6911 16.0863Z" stroke="#303030" stroke-width="0.4"/>
<path d="M34.0364 4.49241C33.705 4.08484 32.6088 2.72874 31.9741 1.94347C31.7181 1.62661 31.2529 1.58219 30.9403 1.84397L25.2551 6.60449" stroke="#303030" stroke-width="0.4" stroke-miterlimit="10"/>
<path d="M28.3989 5.97153L27.4351 4.83209" stroke="#303030" stroke-width="0.2" stroke-miterlimit="10"/>
<path d="M29.8458 4.0918L29.2023 3.33029" stroke="#303030" stroke-width="0.2" stroke-miterlimit="10"/>
<path d="M22.7295 10.1515L22.4534 9.78165" stroke="#303030" stroke-width="0.2" stroke-miterlimit="10"/>
<path d="M24.8656 8.97608L24.13 8.09537" stroke="#303030" stroke-width="0.2" stroke-miterlimit="10"/>
<path d="M26.3126 7.09637L25.669 6.33486" stroke="#303030" stroke-width="0.2" stroke-miterlimit="10"/>
<path d="M31.1579 8.22229C29.4776 8.76366 27.9372 9.22766 26.3677 9.55649L34.6427 3.9835L35.7438 5.64938L33.0534 7.46901C33.0534 7.46901 32.507 7.85878 31.1579 8.22229Z" stroke="#303030" stroke-width="0.4" stroke-miterlimit="10"/>
<path d="M30.3097 8.4399L27.9623 9.14074C27.9623 9.14074 30.293 7.60268 34.9859 4.49926L35.3972 5.1213C31.2554 7.98118 30.3097 8.4399 30.3097 8.4399Z" stroke="#303030" stroke-width="0.2" stroke-miterlimit="10"/>
<path d="M36.1995 3.77755L36.5397 4.29244C36.7498 4.6103 36.6633 5.04005 36.3456 5.25108L35.7463 5.6492L35.7441 5.64876L34.6453 3.98588L34.6457 3.9837L35.2464 3.5847C35.5628 3.37455 35.9899 3.46034 36.1995 3.77755Z" stroke="#303030" stroke-width="0.4" stroke-miterlimit="10"/>
<path d="M21.717 10.7955L19.6491 11.4558L17.9077 12.0035C17.9077 12.0035 19.9584 9.68754 23.0506 6.43368L24.5213 7.78266C22.7023 9.71955 21.717 10.7955 21.717 10.7955Z" stroke="#303030" stroke-width="0.4" stroke-miterlimit="10"/>
<path d="M20.5623 11.1102C20.4116 11.1555 19.2883 11.5318 19.2883 11.5318L23.5083 6.85094L24.0575 7.35461C23.1728 8.32747 20.5623 11.1102 20.5623 11.1102Z" stroke="#303030" stroke-width="0.2" stroke-miterlimit="10"/>
<path d="M24.5114 5.85717L24.9658 6.27302C25.2464 6.53043 25.2663 6.96838 25.009 7.25025L24.5237 7.78204L24.5215 7.78214L23.0537 6.43554L23.0536 6.43331L23.54 5.90036C23.7962 5.61964 24.2314 5.6003 24.5114 5.85717Z" stroke="#303030" stroke-width="0.4" stroke-miterlimit="10"/>
<path d="M17.9257 11.9949L20.2197 9.47205C18.2087 10.384 14.894 12.6636 13.2872 13.7781L15.3892 12.927L17.9257 11.9949Z" stroke="#303030" stroke-width="0.4"/>
<path d="M21.7396 10.7869C23.3694 10.3386 26.2513 9.56139 26.7383 9.47174" stroke="#303030" stroke-width="0.4"/>
</svg>
