<svg width="31" height="42" viewBox="0 0 31 42" fill="none" xmlns="http://www.w3.org/2000/svg">
<path d="M7.2948 32.4285L10.8268 33.1981C10.8348 33.2013 10.8388 33.2013 10.846 33.2053C10.85 33.2133 10.858 33.2173 10.862 33.2245C10.866 33.2285 10.866 33.2365 10.866 33.2445C10.8692 33.2517 10.866 33.2597 10.866 33.2677L9.49003 37.3981C8.85642 38.0901 8.52762 38.2677 7.75881 37.5837L5.41318 34.1133C5.40518 34.1021 5.40118 34.0901 5.40118 34.0749C5.40518 34.0637 5.40918 34.0517 5.42038 34.0445L7.2948 32.4285Z" fill="#EAEAEA" stroke="#303030" stroke-width="0.4"/>
<path d="M10.8621 33.1901C10.8661 33.2013 10.8621 33.2173 10.8541 33.2285C10.8461 33.2365 10.8349 33.2445 10.8197 33.2477L5.45559 34.1133C5.44359 34.1173 5.42839 34.1133 5.41719 34.1061C5.41319 34.1021 5.40919 34.0941 5.40519 34.0901C5.40119 34.0829 5.39719 34.0789 5.39719 34.0709L1.94275 12.0786C2.50676 7.61936 6.406 8.32976 7.41081 11.217L10.8621 33.1901Z" fill="#76C69D" stroke="#303030" stroke-width="0.4"/>
<path d="M7.75879 37.5836L8.8596 39.2068C8.8716 39.222 8.8868 39.222 8.8908 39.1988L9.49001 37.398C9.20361 37.3092 8.9028 37.282 8.6052 37.3132C8.30759 37.3444 8.02119 37.4372 7.75879 37.5836Z" fill="#EAEAEA" stroke="#303030" stroke-width="0.4"/>
<path d="M2.04357 7.48731L5.386 6.9353L6.83882 7.60331L7.41083 11.217L1.94276 12.0786L1.37476 8.46892L2.04357 7.48731Z" fill="#303030" stroke="#303030" stroke-width="0.4"/>
<path d="M6.8388 7.60343L6.77319 7.18663L6.50679 5.46261C6.44839 5.1034 6.32119 4.7594 6.13159 4.4466C5.94199 4.13699 5.69078 3.86659 5.39718 3.65459C5.10358 3.44178 4.77157 3.28738 4.41557 3.20178C4.06436 3.11698 3.69716 3.10178 3.33795 3.15938C2.97795 3.21378 2.63475 3.34098 2.32114 3.53459C2.01234 3.72339 1.74194 3.97139 1.52913 4.26499C1.31633 4.5586 1.16193 4.8946 1.07713 5.24661C0.992326 5.60181 0.976328 5.96901 1.03473 6.32822L1.30913 8.04824L1.37473 8.46904L6.8388 7.60343Z" fill="#FBF3E8" stroke="#303030" stroke-width="0.4"/>
<path d="M10.634 9.91453L7.10521 9.14172C7.09801 9.14172 7.09001 9.13772 7.08201 9.13372C7.07881 9.12972 7.0748 9.12252 7.07081 9.11852C7.06681 9.11052 7.06281 9.10331 7.06281 9.09532C7.06281 9.09131 7.06281 9.08331 7.06681 9.07611L8.43882 4.94487C9.07243 4.24886 9.40123 4.07126 10.17 4.75926L12.5197 8.22971C12.5277 8.23771 12.5309 8.25291 12.5277 8.26411C12.5277 8.2761 12.5197 8.28731 12.5117 8.29531L10.634 9.91453Z" fill="#E5CEAE" stroke="#303030" stroke-width="0.4"/>
<path d="M7.06677 9.15304V9.13384C7.06677 9.12664 7.07077 9.11864 7.07477 9.11464C7.07877 9.10664 7.08597 9.10344 7.08997 9.09944C7.09797 9.09544 7.10197 9.09544 7.10917 9.09544L12.4732 8.22583C12.4812 8.22583 12.4884 8.22583 12.4924 8.22983C12.5004 8.22983 12.5076 8.23383 12.5116 8.23783C12.5156 8.24103 12.5236 8.24503 12.5276 8.25303C12.5276 8.25703 12.5308 8.26423 12.5308 8.27223L15.9861 30.2645C15.4221 34.7245 11.5228 34.0133 10.518 31.1229L7.06677 9.15304Z" fill="#D3E6F6" stroke="#303030" stroke-width="0.4"/>
<path d="M10.1701 4.75931L9.07245 3.13609C9.06125 3.11689 9.04525 3.12089 9.03805 3.14009L8.43884 4.94091C8.72445 5.02971 9.02605 5.05691 9.32365 5.02571C9.62126 4.99531 9.90766 4.90251 10.1701 4.75931Z" fill="#303030" stroke="#303030" stroke-width="0.4"/>
<path d="M15.8853 34.8557L12.5469 35.4085L11.09 34.7397L10.522 31.1228L15.9861 30.2644L16.5541 33.874L15.8853 34.8557Z" fill="#EAEAEA" stroke="#303030" stroke-width="0.4"/>
<path d="M11.09 34.7396L11.1556 35.1532L11.422 36.8805C11.538 37.6069 11.9364 38.2565 12.5308 38.6893C13.1261 39.1181 13.8685 39.2957 14.5909 39.1837C15.3173 39.0677 15.9669 38.6701 16.3997 38.0749C16.8325 37.4797 17.0101 36.7413 16.8941 36.0148L16.6237 34.2948L16.5541 33.874L11.09 34.7396Z" fill="white" stroke="#303030" stroke-width="0.4"/>
<path d="M20.4149 1.67212L15.5341 37.1317C15.4717 37.5565 15.7733 37.951 16.1989 38.0125L23.3366 38.9942C23.7614 39.0526 24.1558 38.755 24.2134 38.3262L29.0942 2.86974C29.1558 2.44093 28.8542 2.04653 28.4294 1.98893L21.2917 1.00732C20.8669 0.948915 20.4725 1.24652 20.4149 1.67212Z" fill="#EAEAEA" stroke="#303030" stroke-width="0.4"/>
<path d="M25.651 5.23853L28.1166 5.57853" stroke="#303030" stroke-width="0.4" stroke-linecap="round" stroke-linejoin="round"/>
<path d="M24.7158 12.4651L27.1814 12.8051" stroke="#303030" stroke-width="0.4" stroke-linecap="round" stroke-linejoin="round"/>
<path d="M23.6102 19.3516L26.0759 19.6916" stroke="#303030" stroke-width="0.4" stroke-linecap="round" stroke-linejoin="round"/>
<path d="M22.675 26.5859L25.1406 26.9259" stroke="#303030" stroke-width="0.4" stroke-linecap="round" stroke-linejoin="round"/>
<path d="M24.3606 40.9998H5.66437C5.08437 40.9998 4.52436 40.7878 4.09475 40.3974C3.66595 40.003 3.39955 39.4662 3.34515 38.8902L1.34352 17.6819C1.33232 17.5387 1.34752 17.3963 1.38992 17.2571C1.42832 17.1219 1.49792 16.9939 1.59073 16.8859C1.68353 16.7739 1.79553 16.6851 1.91953 16.6155C2.04673 16.5499 2.18593 16.5075 2.32913 16.4955C2.36353 16.4915 2.39874 16.4915 2.43314 16.4915H27.599C27.8886 16.4883 28.1702 16.5963 28.379 16.8011C28.5878 17.0019 28.7078 17.2803 28.7158 17.5699C28.7158 17.6011 28.7158 17.6283 28.7118 17.6587L26.7022 38.867C26.6558 39.4502 26.3894 39.999 25.9526 40.3934C25.5198 40.7918 24.9478 41.0078 24.3606 40.9998Z" fill="#7F99AE" stroke="#303030" stroke-width="0.4"/>
</svg>
