<svg width="31" height="42" viewBox="0 0 31 42" fill="none" xmlns="http://www.w3.org/2000/svg">
<path d="M7.41077 11.217L8.23874 16.4885" stroke="#303030" stroke-width="0.4"/>
<path d="M2.6359 16.4915L1.94275 12.0786" stroke="#303030" stroke-width="0.4"/>
<path d="M6.83882 7.60327L7.41083 11.2169L1.94276 12.0785L1.37476 8.46888" stroke="#303030" stroke-width="0.4"/>
<path d="M6.8388 7.60343L6.77319 7.18663L6.50679 5.46261C6.44839 5.1034 6.32119 4.7594 6.13159 4.4466C5.94199 4.13699 5.69078 3.86659 5.39718 3.65459C5.10358 3.44178 4.77157 3.28738 4.41557 3.20178C4.06436 3.11698 3.69716 3.10178 3.33795 3.15938C2.97795 3.21378 2.63475 3.34098 2.32114 3.53459C2.01234 3.72339 1.74194 3.97139 1.52913 4.26499C1.31633 4.5586 1.16193 4.8946 1.07713 5.24661C0.992326 5.60181 0.976328 5.96901 1.03473 6.32822L1.30913 8.04824L1.37473 8.46904L6.8388 7.60343Z" stroke="#303030" stroke-width="0.4"/>
<path d="M10.17 4.75928L12.5197 8.22972C12.5277 8.23772 12.5309 8.25292 12.5277 8.26412" stroke="#303030" stroke-width="0.4"/>
<path d="M7.07081 9.11872C7.06681 9.11072 7.06281 9.10352 7.06281 9.09552C7.06281 9.09152 7.06281 9.08352 7.06681 9.07632L8.43882 4.94507" stroke="#303030" stroke-width="0.4"/>
<path d="M8.21957 16.4915L7.06677 9.15304V9.13384C7.06677 9.12664 7.07077 9.11864 7.07477 9.11464C7.07877 9.10664 7.08597 9.10344 7.08997 9.09944C7.09797 9.09544 7.10197 9.09544 7.10917 9.09544L12.4732 8.22583C12.4812 8.22583 12.4884 8.22583 12.4924 8.22983C12.5004 8.22983 12.5076 8.23383 12.5116 8.23783C12.5156 8.24103 12.5236 8.24503 12.5276 8.25303C12.5276 8.25703 12.5308 8.26423 12.5308 8.27223L13.8222 16.4915" stroke="#303030" stroke-width="0.4"/>
<path d="M10.17 4.75931L9.07239 3.13609C9.06119 3.11689 9.04519 3.12089 9.03799 3.14009L8.43878 4.94091C8.72439 5.02971 9.02599 5.05691 9.32359 5.02571C9.6212 4.99531 9.9076 4.90251 10.17 4.75931Z" stroke="#303030" stroke-width="0.4"/>
<path d="M27.2191 16.4915L29.0942 2.86974C29.1558 2.44093 28.8542 2.04653 28.4294 1.98893L21.2918 1.00732C20.8669 0.948915 20.4725 1.24652 20.4149 1.67212L18.3751 16.4915" stroke="#303030" stroke-width="0.4"/>
<path d="M25.651 5.23853L28.1166 5.57853" stroke="#303030" stroke-width="0.4" stroke-linecap="round" stroke-linejoin="round"/>
<path d="M24.7158 12.4651L27.1814 12.8051" stroke="#303030" stroke-width="0.4" stroke-linecap="round" stroke-linejoin="round"/>
<path d="M24.3606 40.9998H5.66437C5.08437 40.9998 4.52436 40.7878 4.09475 40.3974C3.66595 40.003 3.39955 39.4662 3.34515 38.8902L1.34352 17.6819C1.33232 17.5387 1.34752 17.3963 1.38992 17.2571C1.42832 17.1219 1.49792 16.9939 1.59073 16.8859C1.68353 16.7739 1.79553 16.6851 1.91953 16.6155C2.04673 16.5499 2.18593 16.5075 2.32913 16.4955C2.36353 16.4915 2.39874 16.4915 2.43314 16.4915H27.599C27.8886 16.4883 28.1702 16.5963 28.379 16.8011C28.5878 17.0019 28.7078 17.2803 28.7158 17.5699C28.7158 17.6011 28.7158 17.6283 28.7118 17.6587L26.7022 38.867C26.6558 39.4502 26.3894 39.999 25.9526 40.3934C25.5198 40.7918 24.9478 41.0078 24.3606 40.9998Z" stroke="#303030" stroke-width="0.4"/>
</svg>
