<svg width="42" height="35" viewBox="0 0 42 35" fill="none" xmlns="http://www.w3.org/2000/svg">
<path d="M10 10.4895C10 10.4895 10 10.8565 10 11.2988C10 12.188 11.789 12.909 13.9955 12.909C16.2021 12.909 17.9911 12.188 17.9911 11.2988C17.9911 10.7824 17.9911 10.4895 17.9911 10.4895" stroke="#303030" stroke-width="0.4" stroke-miterlimit="10"/>
<path d="M10 9.70032C10 9.70032 10 10.0673 10 10.5095C10 11.3987 11.789 12.1197 13.9955 12.1197C16.2021 12.1197 17.9911 11.3987 17.9911 10.5095C17.9911 9.99319 17.9911 9.70032 17.9911 9.70032" stroke="#303030" stroke-width="0.4" stroke-miterlimit="10"/>
<path d="M10 8.90993C10 8.90993 10 9.2769 10 9.71915C10 10.6084 11.789 11.3294 13.9955 11.3294C16.2021 11.3294 17.9911 10.6084 17.9911 9.71915C17.9911 9.2028 17.9911 8.90993 17.9911 8.90993" stroke="#303030" stroke-width="0.4" stroke-miterlimit="10"/>
<path d="M10 8.12775C10 8.12775 10 8.49472 10 8.93697C10 9.82617 11.789 10.5472 13.9955 10.5472C16.2021 10.5472 17.9911 9.82617 17.9911 8.93697C17.9911 8.42062 17.9911 8.12775 17.9911 8.12775" stroke="#303030" stroke-width="0.4" stroke-miterlimit="10"/>
<path d="M10 7.3397C10 7.3397 10 7.70667 10 8.14892C10 9.03812 11.789 9.75913 13.9955 9.75913C16.2021 9.75913 17.9911 9.03812 17.9911 8.14892C17.9911 7.63257 17.9911 7.3397 17.9911 7.3397" stroke="#303030" stroke-width="0.4" stroke-miterlimit="10"/>
<path d="M10 6.54929C10 6.54929 10 6.91627 10 7.35852C10 8.24772 11.789 8.96872 13.9955 8.96872C16.2021 8.96872 17.9911 8.24772 17.9911 7.35852C17.9911 6.84217 17.9911 6.54929 17.9911 6.54929" stroke="#303030" stroke-width="0.4" stroke-miterlimit="10"/>
<path d="M10 5.76006C10 5.76006 10 6.12703 10 6.56928C10 7.45848 11.789 8.17949 13.9955 8.17949C16.2021 8.17949 17.9911 7.45848 17.9911 6.56928C17.9911 6.05293 17.9911 5.76006 17.9911 5.76006" stroke="#303030" stroke-width="0.4" stroke-miterlimit="10"/>
<path d="M10 4.97789C10 4.97789 10 5.34486 10 5.78711C10 6.67631 11.789 7.39732 13.9955 7.39732C16.2021 7.39732 17.9911 6.67631 17.9911 5.78711C17.9911 5.27076 17.9911 4.97789 17.9911 4.97789" stroke="#303030" stroke-width="0.4" stroke-miterlimit="10"/>
<path d="M10 4.18983C10 4.18983 10 4.55681 10 4.99906C10 5.88826 11.789 6.60927 13.9955 6.60927C16.2021 6.60927 17.9911 5.88826 17.9911 4.99906C17.9911 4.48271 17.9911 4.18983 17.9911 4.18983" stroke="#303030" stroke-width="0.4" stroke-miterlimit="10"/>
<path d="M10 3.39944C10 3.39944 10 3.76642 10 4.20867C10 5.09787 11.789 5.81888 13.9955 5.81888C16.2021 5.81888 17.9911 5.09787 17.9911 4.20867C17.9911 3.69232 17.9911 3.39944 17.9911 3.39944" stroke="#303030" stroke-width="0.4" stroke-miterlimit="10"/>
<path d="M10 2.61021C10 2.61021 10 2.97718 10 3.41943C10 4.30863 11.789 5.02964 13.9955 5.02964C16.2021 5.02964 17.9911 4.30863 17.9911 3.41943C17.9911 2.90308 17.9911 2.61021 17.9911 2.61021" stroke="#303030" stroke-width="0.4" stroke-miterlimit="10"/>
<path d="M13.9955 4.22042C16.2022 4.22042 17.9911 3.4995 17.9911 2.61021C17.9911 1.72092 16.2022 1 13.9955 1C11.7889 1 10 1.72092 10 2.61021C10 3.4995 11.7889 4.22042 13.9955 4.22042Z" stroke="#303030" stroke-width="0.4" stroke-miterlimit="10"/>
<path d="M1 15.1277C1 15.1277 1 15.4947 1 15.937C1 16.8262 2.78899 17.5472 4.99553 17.5472C7.20207 17.5472 8.99106 16.8262 8.99106 15.937C8.99106 15.4206 8.99106 15.1277 8.99106 15.1277" stroke="#303030" stroke-width="0.4" stroke-miterlimit="10"/>
<path d="M1 14.3397C1 14.3397 1 14.7067 1 15.1489C1 16.0381 2.78899 16.7591 4.99553 16.7591C7.20207 16.7591 8.99106 16.0381 8.99106 15.1489C8.99106 14.6326 8.99106 14.3397 8.99106 14.3397" stroke="#303030" stroke-width="0.4" stroke-miterlimit="10"/>
<path d="M1 13.5493C1 13.5493 1 13.9163 1 14.3585C1 15.2477 2.78899 15.9687 4.99553 15.9687C7.20207 15.9687 8.99106 15.2477 8.99106 14.3585C8.99106 13.8422 8.99106 13.5493 8.99106 13.5493" stroke="#303030" stroke-width="0.4" stroke-miterlimit="10"/>
<path d="M1 12.76C1 12.76 1 13.127 1 13.5693C1 14.4585 2.78899 15.1795 4.99553 15.1795C7.20207 15.1795 8.99106 14.4585 8.99106 13.5693C8.99106 13.0529 8.99106 12.76 8.99106 12.76" stroke="#303030" stroke-width="0.4" stroke-miterlimit="10"/>
<path d="M1 11.9779C1 11.9779 1 12.3449 1 12.7871C1 13.6763 2.78899 14.3973 4.99553 14.3973C7.20207 14.3973 8.99106 13.6763 8.99106 12.7871C8.99106 12.2708 8.99106 11.9779 8.99106 11.9779" stroke="#303030" stroke-width="0.4" stroke-miterlimit="10"/>
<path d="M1 11.1898C1 11.1898 1 11.5568 1 11.9991C1 12.8883 2.78899 13.6093 4.99553 13.6093C7.20207 13.6093 8.99106 12.8883 8.99106 11.9991C8.99106 11.4827 8.99106 11.1898 8.99106 11.1898" stroke="#303030" stroke-width="0.4" stroke-miterlimit="10"/>
<path d="M1 10.3994C1 10.3994 1 10.7664 1 11.2087C1 12.0979 2.78899 12.8189 4.99553 12.8189C7.20207 12.8189 8.99106 12.0979 8.99106 11.2087C8.99106 10.6923 8.99106 10.3994 8.99106 10.3994" stroke="#303030" stroke-width="0.4" stroke-miterlimit="10"/>
<path d="M1 9.61021C1 9.61021 1 9.97718 1 10.4194C1 11.3086 2.78899 12.0296 4.99553 12.0296C7.20207 12.0296 8.99106 11.3086 8.99106 10.4194C8.99106 9.90308 8.99106 9.61021 8.99106 9.61021" stroke="#303030" stroke-width="0.4" stroke-miterlimit="10"/>
<path d="M4.99553 11.2204C7.2022 11.2204 8.99106 10.4995 8.99106 9.61021C8.99106 8.72092 7.2022 8 4.99553 8C2.78886 8 1 8.72092 1 9.61021C1 10.4995 2.78886 11.2204 4.99553 11.2204Z" stroke="#303030" stroke-width="0.4" stroke-miterlimit="10"/>
<path d="M25 9.12773C25 9.12773 25 9.4947 25 9.93695C25 10.8262 26.789 11.5472 28.9955 11.5472C31.2021 11.5472 32.9911 10.8262 32.9911 9.93695C32.9911 9.4206 32.9911 9.12773 32.9911 9.12773" stroke="#303030" stroke-width="0.4" stroke-miterlimit="10"/>
<path d="M25 8.33968C25 8.33968 25 8.70666 25 9.14891C25 10.0381 26.789 10.7591 28.9955 10.7591C31.2021 10.7591 32.9911 10.0381 32.9911 9.14891C32.9911 8.63256 32.9911 8.33968 32.9911 8.33968" stroke="#303030" stroke-width="0.4" stroke-miterlimit="10"/>
<path d="M25 7.54929C25 7.54929 25 7.91626 25 8.35851C25 9.24771 26.789 9.96872 28.9955 9.96872C31.2021 9.96872 32.9911 9.24771 32.9911 8.35851C32.9911 7.84216 32.9911 7.54929 32.9911 7.54929" stroke="#303030" stroke-width="0.4" stroke-miterlimit="10"/>
<path d="M25 6.76005C25 6.76005 25 7.12702 25 7.56927C25 8.45847 26.789 9.17948 28.9955 9.17948C31.2021 9.17948 32.9911 8.45847 32.9911 7.56927C32.9911 7.05292 32.9911 6.76005 32.9911 6.76005" stroke="#303030" stroke-width="0.4" stroke-miterlimit="10"/>
<path d="M25 5.97788C25 5.97788 25 6.34486 25 6.7871C25 7.67631 26.789 8.39731 28.9955 8.39731C31.2021 8.39731 32.9911 7.67631 32.9911 6.7871C32.9911 6.27076 32.9911 5.97788 32.9911 5.97788" stroke="#303030" stroke-width="0.4" stroke-miterlimit="10"/>
<path d="M25 5.18983C25 5.18983 25 5.55681 25 5.99905C25 6.88826 26.789 7.60926 28.9955 7.60926C31.2021 7.60926 32.9911 6.88826 32.9911 5.99905C32.9911 5.48271 32.9911 5.18983 32.9911 5.18983" stroke="#303030" stroke-width="0.4" stroke-miterlimit="10"/>
<path d="M25 4.39943C25 4.39943 25 4.7664 25 5.20865C25 6.09785 26.789 6.81886 28.9955 6.81886C31.2021 6.81886 32.9911 6.09785 32.9911 5.20865C32.9911 4.6923 32.9911 4.39943 32.9911 4.39943" stroke="#303030" stroke-width="0.4" stroke-miterlimit="10"/>
<path d="M25 3.61021C25 3.61021 25 3.97718 25 4.41943C25 5.30863 26.789 6.02964 28.9955 6.02964C31.2021 6.02964 32.9911 5.30863 32.9911 4.41943C32.9911 3.90308 32.9911 3.61021 32.9911 3.61021" stroke="#303030" stroke-width="0.4" stroke-miterlimit="10"/>
<path d="M28.9955 5.22042C31.2022 5.22042 32.9911 4.4995 32.9911 3.61021C32.9911 2.72092 31.2022 2 28.9955 2C26.7889 2 25 2.72092 25 3.61021C25 4.4995 26.7889 5.22042 28.9955 5.22042Z" stroke="#303030" stroke-width="0.4" stroke-miterlimit="10"/>
<path d="M1 21.1402V27.1164L19.4709 33.2868L41 20.1687V15.458" stroke="#303030" stroke-width="0.4" stroke-miterlimit="10"/>
<path d="M1 26.4754L19.4498 32.5669L24.8373 29.3483L27.5311 27.7389L28.878 26.9343L29.2147 26.7331M41 19.6923L35.6124 22.9109L34.2656 23.7156L33.5921 24.1179L33.4237 24.2185" stroke="#303030" stroke-width="0.4" stroke-miterlimit="10"/>
<path d="M1 25.7768L19.4498 31.8424L24.8373 28.6861L27.5311 27.1079L28.878 26.3188L29.2147 26.1216M41 19.2171L35.6124 22.3734L34.2656 23.1625L33.5921 23.5571" stroke="#303030" stroke-width="0.4" stroke-miterlimit="10"/>
<path d="M1 25.0781L19.4498 31.1096L24.8373 28.0009L27.5311 26.4466L28.878 25.6694L29.2147 25.4751M41 18.6749L35.6124 21.7836L34.2656 22.5607L33.5921 22.9493" stroke="#303030" stroke-width="0.4" stroke-miterlimit="10"/>
<path d="M1 24.4077L19.4498 30.4086L24.8373 27.3379L27.5311 25.8025L28.878 25.0348L29.2147 24.8429M41 18.1256L35.6124 21.1964L34.2656 21.964L33.5921 22.3479" stroke="#303030" stroke-width="0.4" stroke-miterlimit="10"/>
<path d="M1 23.7572L19.4498 29.7146L24.8373 26.6833L27.5311 25.1676L28.878 24.4098L29.2147 24.2203M41 17.5893L35.6124 20.6206L34.2656 21.3784L33.5921 21.7574" stroke="#303030" stroke-width="0.4" stroke-miterlimit="10"/>
<path d="M1 23.1139L19.4498 29.0019L24.8373 26.0032L27.5311 24.5038L28.878 23.7542L29.2147 23.5667M41 17.0071L35.6124 20.0058L34.2656 20.7554L33.5921 21.1303" stroke="#303030" stroke-width="0.4" stroke-miterlimit="10"/>
<path d="M1 22.4375L19.4498 28.2232L24.8373 25.2813L27.5311 23.8103L28.878 23.0748L29.2147 22.8909M41 16.4554L35.6124 19.3974L34.2656 20.1329L33.5921 20.5006" stroke="#303030" stroke-width="0.4" stroke-miterlimit="10"/>
<path d="M1 21.8212L19.4498 27.5057L24.8373 24.6132L27.5311 23.1669L28.878 22.4438L29.3831 22.1726M41 15.9355L35.6124 18.8281L34.2656 19.5512L33.5921 19.9128" stroke="#303030" stroke-width="0.4" stroke-miterlimit="10"/>
<path d="M33.5933 19.2316L40.9748 15.3415C40.9832 15.3371 40.9814 15.3246 40.9721 15.3228L23.804 12L1.02653 21.1296C1.01775 21.1331 1.01832 21.1457 1.02738 21.1484L19.4533 26.6836L29.2167 21.5382" stroke="#303030" stroke-width="0.4" stroke-miterlimit="10"/>
<path d="M26.5856 22.8108L22.7243 24.8459L4.8688 19.6965L8.84438 18.1028L26.5856 22.8108Z" stroke="#303030" stroke-width="0.2" stroke-miterlimit="10"/>
<path d="M29.2616 27.3211L33.4547 24.7652L33.6182 19.3042L16.3376 14.9922L11.6493 16.8718L29.291 21.5577L29.2616 27.3211Z" stroke="#303030" stroke-width="0.4" stroke-miterlimit="10"/>
<path d="M19.0209 21.5253L19.6278 21.6028L17.959 22.6505" stroke="#303030" stroke-width="0.215326" stroke-miterlimit="10"/>
<path d="M22.2855 22.4059C21.8803 22.2717 21.3792 22.5532 21.1029 22.7811C20.8445 22.9926 20.5641 23.479 20.9408 23.5773C21.3687 23.6889 21.7249 23.4153 22.0843 23.1657C22.4436 22.916 22.646 22.5271 22.2854 22.4081L22.2855 22.4059Z" stroke="#303030" stroke-width="0.215326" stroke-miterlimit="10"/>
<path d="M20.7525 21.8903C20.3473 21.7562 19.8462 22.0377 19.5699 22.2655C19.3115 22.477 19.0311 22.9634 19.4078 23.0617C19.8357 23.1733 20.1919 22.8997 20.5513 22.6501C20.9106 22.4004 21.113 22.0115 20.7524 21.8925L20.7525 21.8903Z" stroke="#303030" stroke-width="0.215326" stroke-miterlimit="10"/>
<path d="M23.8394 22.851C23.4343 22.7168 22.9332 22.9983 22.6568 23.2262C22.3985 23.4377 22.118 23.924 22.4948 24.0223C22.9226 24.1339 23.2789 23.8604 23.6382 23.6107C23.9976 23.3611 24.2 22.9722 23.8393 22.8531L23.8394 22.851Z" stroke="#303030" stroke-width="0.215326" stroke-miterlimit="10"/>
</svg>
