<svg width="42" height="42" viewBox="0 0 42 42" fill="none" xmlns="http://www.w3.org/2000/svg">
<path d="M28.0529 15.9386L4.50842 39.3502C4.49997 39.3587 4.48681 39.3712 4.46964 39.3874C4.43481 39.4201 4.38265 39.4665 4.31666 39.5188C4.18384 39.6241 3.99833 39.7512 3.78127 39.8419C3.56437 39.9325 3.3235 39.9843 3.07592 39.9524C2.83147 39.9209 2.56417 39.805 2.29266 39.5331C2.02129 39.2614 1.90674 38.9944 1.87641 38.7503C1.8457 38.5029 1.8988 38.2623 1.99096 38.0456C2.08324 37.8286 2.21124 37.6426 2.31772 37.5099C2.37062 37.444 2.41836 37.3925 2.45142 37.3577C2.46765 37.3406 2.48029 37.3275 2.48882 37.3191L26.0333 13.9075L28.0529 15.9386Z" stroke="#303030" stroke-width="0.4"/>
<path d="M33.8636 10.7754L28.0837 15.9402L26.0269 13.8717L31.2291 8.126L33.8636 10.7754Z" stroke="#303030" stroke-width="0.4"/>
<path d="M38.391 3.37397C39.0546 6.55209 37.961 8.67104 36.6016 9.52988C35.8698 9.99224 35.1716 10.3282 34.6563 10.5484C34.399 10.6584 34.1874 10.7392 34.041 10.7925C33.9981 10.8081 33.9603 10.8214 33.929 10.8323L31.1658 8.05332C31.1668 8.04974 31.1675 8.04602 31.1686 8.04228C31.1902 7.96475 31.2231 7.85199 31.2675 7.71386C31.3566 7.43712 31.4926 7.05874 31.6773 6.65229C32.0511 5.82948 32.6099 4.93128 33.3641 4.4943C34.1593 4.0338 35.0214 3.97163 35.9312 3.90563C36.744 3.84665 37.5964 3.78255 38.391 3.37397Z" stroke="#303030" stroke-width="0.4"/>
</svg>
