<svg width="42" height="13" viewBox="0 0 42 13" fill="none" xmlns="http://www.w3.org/2000/svg">
<g clip-path="url(#clip0_331_92)">
<path d="M14.8658 5.94895L12.4821 1.05272C12.4366 0.958809 12.3195 0.998118 12.3195 1.1095V2.10752C12.3195 2.16867 12.2811 2.21672 12.2322 2.21672H1.08774C1.01958 2.21672 0.977638 2.31062 1.01259 2.38269L2.7497 5.94895C2.76718 5.98389 2.76718 6.02757 2.7497 6.06251L1.01259 9.62877C0.977638 9.70084 1.01958 9.79475 1.08774 9.79475H12.2322C12.2811 9.79475 12.3195 9.84279 12.3195 9.90394V10.902C12.3195 11.0133 12.4366 11.0527 12.4821 10.9587L14.8658 6.06251C14.8833 6.02757 14.8833 5.98389 14.8658 5.94895Z" fill="#E5CEAE" stroke="#303030" stroke-width="0.4" stroke-miterlimit="10"/>
<path d="M40.9869 5.94895L38.6032 1.05272C38.5577 0.958809 38.4406 0.998118 38.4406 1.1095V2.10752C38.4406 2.16867 38.4022 2.21672 38.3533 2.21672H27.2088C27.1407 2.21672 27.0987 2.31062 27.1337 2.38269L28.8708 5.94895C28.8883 5.98389 28.8883 6.02757 28.8708 6.06251L27.1337 9.62877C27.0987 9.70084 27.1407 9.79475 27.2088 9.79475H38.3533C38.4022 9.79475 38.4406 9.84279 38.4406 9.90394V10.902C38.4406 11.0133 38.5577 11.0527 38.6032 10.9587L40.9869 6.06251C41.0044 6.02757 41.0044 5.98389 40.9869 5.94895Z" fill="#BED5E8" stroke="#303030" stroke-width="0.4" stroke-miterlimit="10"/>
<path d="M27.9263 5.94895L25.5426 1.05272C25.4972 0.958809 25.3801 0.998118 25.3801 1.1095V2.10752C25.3801 2.16867 25.3416 2.21672 25.2927 2.21672H14.1483C14.0801 2.21672 14.0382 2.31062 14.0731 2.38269L15.8103 5.94895C15.8277 5.98389 15.8277 6.02757 15.8103 6.06251L14.0731 9.62877C14.0382 9.70084 14.0801 9.79475 14.1483 9.79475H25.2927C25.3416 9.79475 25.3801 9.84279 25.3801 9.90394V10.902C25.3801 11.0133 25.4972 11.0527 25.5426 10.9587L27.9263 6.06251C27.9438 6.02757 27.9438 5.98389 27.9263 5.94895Z" fill="#76C69D" stroke="#303030" stroke-width="0.4" stroke-miterlimit="10"/>
</g>
<defs>
<clipPath id="clip0_331_92">
<rect width="42" height="12.0115" fill="white"/>
</clipPath>
</defs>
</svg>
