<svg width="42" height="42" viewBox="0 0 42 42" fill="none" xmlns="http://www.w3.org/2000/svg">
<g clip-path="url(#clip0_5_870)">
<path d="M10.9527 4.22269C10.834 3.96497 10.712 3.70429 10.5933 3.45701C10.0247 2.27172 10.7096 1.03404 12.113 1.00096C13.5171 0.968862 14.1474 1.74554 14.6767 3.01368C14.7658 3.22739 14.858 3.44835 14.9499 3.66804" stroke="#303030" stroke-width="0.4"/>
<path d="M7.85338 7.54058L1.33084 8.35081C1.24081 8.36043 1.15778 8.40618 1.09701 8.47361C1.036 8.54276 1.00058 8.62882 1 8.72261C1.0014 8.77897 1.01618 8.83378 1.03675 8.88505L15.8816 40.2448C15.955 40.3968 16.0762 40.5216 16.2304 40.595C16.3818 40.6699 16.5535 40.6897 16.7181 40.6559L40.5695 35.6083C40.6502 35.5903 40.7267 35.5533 40.7929 35.5024C40.8584 35.4506 40.9084 35.3851 40.9446 35.3115C40.9811 35.2361 41.0009 35.1548 41 35.0713C40.9995 34.9905 40.9782 34.9084 40.9408 34.8345L25.9563 5.66181C25.9083 5.55826 25.8266 5.47523 25.7255 5.42269C25.6264 5.36783 25.5112 5.34569 25.3966 5.36137L19.4831 6.09594" stroke="#303030" stroke-width="0.4"/>
<path d="M9.21393 8.67948L2.93535 9.55627C2.93277 9.5559 2.92982 9.5581 2.92686 9.5603C2.92428 9.55992 2.92146 9.56126 2.9207 9.56641C2.92032 9.56899 2.91737 9.57119 2.91957 9.57414C2.91919 9.57672 2.91881 9.57929 2.92101 9.58225L16.4257 37.6029C16.4297 37.6114 16.4336 37.6146 16.441 37.6183C16.4457 37.6216 16.4526 37.6226 16.4607 37.6212L38.2714 32.8423C38.2731 32.8426 38.2761 32.8404 38.279 32.8382C38.282 32.836 38.2848 32.8346 38.2852 32.832C38.2882 32.8298 38.2885 32.8273 38.2863 32.8243C38.2871 32.8192 38.2875 32.8166 38.2851 32.8145L24.9843 6.49952C24.9806 6.4946 24.9762 6.48869 24.9688 6.48498C24.9615 6.48127 24.9546 6.48026 24.9491 6.48209L19.7546 7.20749" stroke="#303030" stroke-width="0.4"/>
<path d="M2.90967 9.55762L16.4256 37.6027C16.4297 37.6112 16.4336 37.6144 16.4409 37.6181C16.4457 37.6214 16.4526 37.6224 16.4607 37.621L38.2714 32.8421" stroke="#303030" stroke-width="0.4" stroke-linecap="round" stroke-linejoin="round"/>
<path d="M7.85266 7.53469L8.49051 7.45089L9.37087 8.94593C9.41861 9.02136 9.48493 9.08372 9.56889 9.12146C9.64942 9.1587 9.74171 9.16959 9.82734 9.15405L19.5885 7.36123C19.6174 7.3558 19.6445 7.34399 19.6668 7.32971C19.6895 7.31284 19.7099 7.29303 19.7239 7.26963C19.7395 7.24648 19.7487 7.21975 19.7526 7.19312C19.7566 7.16563 19.7555 7.13739 19.7471 7.11072L18.8097 3.50774C18.784 3.40747 18.723 3.32045 18.6385 3.26245C18.5528 3.2069 18.4504 3.18137 18.3463 3.19684L7.49451 4.70268C7.39858 4.71671 7.30817 4.76488 7.24124 4.83843C7.17518 4.9121 7.13605 5.00552 7.13189 5.10581L7.08087 6.68201C7.08131 6.69699 7.08849 6.71383 7.09742 6.72479L7.85266 7.53469Z" stroke="#303030" stroke-width="0.4"/>
<path d="M8.32169 7.0998L7.47064 5.36865" stroke="#303030" stroke-width="0.4" stroke-linecap="round" stroke-linejoin="round"/>
<path d="M9.40961 15.1862C9.40961 15.1862 10.559 12.6163 11.4685 12.5109C12.3787 12.4064 12.7371 14.4225 13.1688 14.3085C13.6015 14.1938 13.6895 12.7783 14.8155 12.8239C15.9415 12.8695 16.1591 13.4085 16.1591 13.4085C16.1591 13.4085 17.1162 12.5651 17.5479 12.4511C17.9804 12.3373 18.1796 13.0201 18.1796 13.0201C18.1796 13.0201 19.3077 11.8175 20.3545 12.3858C21.4012 12.955 21.9949 12.5682 23.9125 12.0735" stroke="#303030" stroke-width="0.4" stroke-linecap="round" stroke-linejoin="round"/>
<path d="M11.5375 19.7549C11.5375 19.7549 13.052 19.1731 13.6553 17.8936C14.2577 16.614 12.1318 16.3026 12.3026 17.7841C12.4734 19.2656 14.2303 19.2571 15.4646 18.3359C16.6997 17.4148 16.7194 17.2984 18.1915 17.6052C19.6644 17.9122 19.5642 16.9728 20.8592 16.6554C22.1549 16.3389 22.2638 17.2191 22.9934 16.9101C23.4496 16.7189 23.9198 16.5694 24.3996 16.4624" stroke="#303030" stroke-width="0.4" stroke-linecap="round" stroke-linejoin="round"/>
<path d="M14.2561 23.753C14.2561 23.753 14.5417 21.5935 15.6082 21.4225C16.6746 21.2523 17.0872 22.2928 17.8125 22.0138C18.5368 21.7348 18.7987 20.5518 19.914 20.8626C21.0285 21.1723 21.2745 20.9127 21.9937 20.4828C22.7128 20.0538 23.8426 20.2474 23.8426 20.2474" stroke="#303030" stroke-width="0.4" stroke-linecap="round" stroke-linejoin="round"/>
<path d="M31.9704 30.9221C30.1369 27.1563 28.5379 23.2458 28.5379 23.2458L27.4016 27.9266C27.4016 27.9266 30.0272 27.572 31.7433 26.643" stroke="#303030" stroke-width="0.4" stroke-linecap="round" stroke-linejoin="round"/>
</g>
<defs>
<clipPath id="clip0_5_870">
<rect width="42" height="41.6718" fill="white"/>
</clipPath>
</defs>
</svg>
