<svg width="42" height="42" viewBox="0 0 42 42" fill="none" xmlns="http://www.w3.org/2000/svg">
<path d="M20.2889 21.9257L15.0099 21.8959C15.0099 21.8959 13.8459 21.9526 13.62 21.2577C13.3941 20.5627 13.9958 20.1311 14.2774 19.7928C14.5591 19.4545 14.9926 18.6845 14.0708 17.7829C13.1009 16.8342 11.613 17.3754 11.2439 17.6733C10.6806 18.1289 10.3317 19.0748 10.9718 19.8486C11.3294 20.2801 11.8225 20.6829 11.6629 21.1481C11.3631 22.0228 9.90201 21.9132 9.18398 21.9017C8.60148 21.8921 5.56309 21.8594 5.56309 21.8594V26.6674C5.56309 26.6674 5.64864 27.7267 4.86813 27.9256C4.1972 28.0967 3.86462 27.7199 3.66661 27.4181C3.30039 26.8635 2.33053 26.7799 1.6596 27.2951C1.02712 27.7805 0.917544 28.3159 1.04923 29.3674C1.18092 30.419 1.86338 30.9246 2.5468 30.9371C3.1293 30.9477 3.38978 30.7353 3.85501 30.2729C4.32024 29.8106 5.00078 29.7471 5.30068 30.1979C5.60154 30.6487 5.52368 31.3572 5.53906 31.9791C5.54963 32.4308 5.56405 35.9825 5.56405 35.9825H10.3903C10.3903 35.9825 11.761 36.0412 11.7447 35.6057C11.7283 35.1703 11.3909 35.0598 11.0324 34.7195C10.5691 34.2802 10.5739 33.6275 10.9219 33.0268C11.3371 32.3097 12.0186 32.1828 12.7568 32.1405C13.4383 32.1021 14.1333 32.3933 14.4178 32.9787C14.7023 33.5641 14.6764 34.2341 14.2275 34.6397C13.8286 35.0011 13.2624 35.4154 13.8632 35.8105C14.2688 36.0777 15.8481 35.9931 16.2239 35.9931C16.5997 35.9931 20.287 36.0488 20.287 36.0488L22.7477 27.9948L20.287 21.9257H20.2889Z" fill="#E5CEAE" stroke="#303030" stroke-width="0.4" stroke-miterlimit="10"/>
<path d="M38.6413 5.39371L37.1966 9.79414C37.1966 9.79414 36.7794 10.8832 37.3696 11.3138C37.9598 11.7444 38.5577 11.3081 38.9662 11.1466C39.3747 10.9851 40.2427 10.813 40.8108 11.9694C41.4096 13.1863 40.4311 14.432 40.0331 14.6896C39.4247 15.0827 38.4164 15.1193 37.881 14.2696C37.582 13.7947 37.3533 13.2016 36.8621 13.2074C35.9374 13.2189 35.5856 14.6415 35.3732 15.3278C35.2002 15.8844 34.2841 18.7815 34.2841 18.7815L29.7164 17.281C29.7164 17.281 28.737 16.8687 28.3044 17.5483C27.9324 18.1327 28.1871 18.5662 28.4111 18.8488C28.8235 19.3697 28.6005 20.3175 27.9017 20.7943C27.2432 21.2432 26.7002 21.1807 25.7418 20.7279C24.7835 20.2752 24.5163 19.4678 24.7181 18.8161C24.8902 18.2595 25.1728 18.0779 25.7572 17.7799C26.3407 17.4819 26.6146 16.8552 26.2801 16.4294C25.9456 16.0036 25.2487 15.8565 24.6624 15.6479C24.2366 15.4961 20.8665 14.3753 20.8665 14.3753L22.3728 9.78934C22.3728 9.78934 22.8591 8.37923 23.1725 8.68202C23.3868 8.88964 23.3494 9.36256 23.5993 9.66438C23.8723 9.99503 24.3827 10.4987 25.3198 10.3074C25.9206 10.1844 26.4531 9.89218 26.7348 9.37505C27.0164 8.85792 27.0106 8.26101 26.6704 7.46128C26.3003 6.59234 25.4275 6.2588 24.9469 6.39817C24.4663 6.53755 23.7492 7.20367 23.6147 6.7865C23.4657 6.32416 24.0645 4.59974 24.1818 4.24217C24.299 3.88556 25.2583 1 25.2583 1L29.8981 2.52352C29.8981 2.52352 30.8968 2.81862 30.8199 3.16754C30.7565 3.45494 30.2134 3.57894 29.7904 3.92305C29.4684 4.18546 28.7293 5.27452 29.5492 6.36742C30.2557 7.3094 31.833 7.32478 32.4924 6.75382C33.073 6.25015 33.4632 5.5004 32.9749 4.71124C32.4867 3.92209 32.8154 3.54914 33.1201 3.63372C33.3729 3.70389 35.0685 4.24025 35.4164 4.35367C35.7644 4.4671 38.6413 5.39371 38.6413 5.39371Z" fill="#76C69D" stroke="#303030" stroke-width="0.4" stroke-miterlimit="10"/>
<path d="M34.3668 36.0111H29.7347C29.7347 36.0111 28.5707 35.9544 28.3448 36.6493C28.1189 37.3443 28.7206 37.7759 29.0023 38.1142C29.2839 38.4526 29.7174 39.2225 28.7956 40.1241C27.8257 41.0729 26.3378 40.5317 25.9687 40.2337C25.4054 39.7781 25.0565 38.8323 25.6967 38.0585C26.0542 37.6269 26.5473 37.2242 26.3878 36.7589C26.0879 35.8842 24.6268 35.9938 23.9088 36.0053C23.3263 36.015 20.2879 36.0476 20.2879 36.0476V31.2396C20.2879 31.2396 20.3735 30.1804 19.593 29.9814C18.922 29.8103 18.5894 30.1871 18.3914 30.4889C18.0252 31.0436 17.0553 31.1272 16.3844 30.612C15.7519 30.1266 15.6424 29.5912 15.7741 28.5396C15.9057 27.488 16.5882 26.9824 17.2716 26.9699C17.8541 26.9594 18.1146 27.1718 18.5798 27.6341C19.0451 28.0965 19.7256 28.1599 20.0255 27.7091C20.3264 27.2583 20.2485 26.5499 20.2639 25.928C20.2745 25.4762 20.2889 21.9245 20.2889 21.9245H25.1151C25.1151 21.9245 26.5146 21.8745 26.4041 22.2956C26.332 22.5685 25.9129 22.9184 25.6351 23.2097C25.3391 23.5201 25.0469 24.2795 25.564 25.085C25.9639 25.7059 26.3618 26.027 27.101 26.0693C27.7825 26.1077 28.6149 25.7588 29.0734 25.061C29.5319 24.3631 29.2695 23.6662 28.9878 23.2539C28.7062 22.8415 27.9507 22.3801 28.3054 22.1216C28.6976 21.8361 30.5748 21.913 30.9506 21.913C31.3265 21.913 34.3668 21.9245 34.3668 21.9245V26.8075C34.3668 26.8075 34.4312 27.9955 34.0756 28.0311C33.7824 28.0599 33.4056 27.1554 32.9211 26.9075C32.2502 26.5643 31.1794 26.844 30.5018 27.7187C29.753 28.6867 30.3307 30.1737 31.0795 30.6216C31.7388 31.0166 32.8164 30.8734 33.4133 30.164C33.9842 29.4854 34.3572 29.8228 34.3716 30.1381C34.3831 30.4005 34.3485 32.2556 34.3495 32.6209C34.3505 32.9862 34.3668 36.0111 34.3668 36.0111Z" fill="#BED5E8" stroke="#303030" stroke-width="0.4" stroke-miterlimit="10"/>
</svg>
