<svg width="42" height="42" viewBox="0 0 42 42" fill="none" xmlns="http://www.w3.org/2000/svg">
<g clip-path="url(#clip0_404_61)">
<path d="M32.996 21.421L29.4415 19.5766C29.4415 19.5766 28.1131 18.8763 27.8715 19.2733C27.4604 19.9507 27.952 20.2039 28.0713 20.6655C28.1905 21.1271 28.0922 22.3244 26.7659 22.7788C25.3706 23.2571 24.1594 22.0358 23.9356 21.5731C23.5946 20.8656 23.7954 19.4786 24.7859 19.0191C25.3392 18.7617 25.8329 18.8211 25.8235 18.2896C25.812 17.6561 24.4983 17.1392 23.786 16.8172C23.2086 16.5557 19.7099 15.1531 19.7099 15.1531L21.5843 11.4507C21.5843 11.4507 22.9241 8.97895 22.4472 8.57047C21.8761 8.08071 21.3646 8.30579 21.0289 8.50899C20.4107 8.88204 19.4171 8.5142 18.9976 7.69723C18.6023 6.9282 18.7435 6.35195 19.3637 5.38285C19.9829 4.41374 20.8908 4.23555 21.5675 4.54087C22.1449 4.80139 22.3018 5.13067 22.5445 5.79967C22.7861 6.46762 23.4262 6.84692 23.9314 6.54473C24.4366 6.24254 24.6907 5.5131 24.9951 4.9108C25.2169 4.47314 26.8862 1 26.8862 1L40.54 7.44922L33.7633 21.7346L32.996 21.421Z" stroke="#303030" stroke-width="0.4" stroke-miterlimit="10"/>
<path d="M16.8148 25.5828V25.5838M1 25.6474V40.7727L16.7102 40.8456" stroke="#303030" stroke-width="0.4" stroke-miterlimit="10"/>
<path d="M32.3429 40.804L16.7091 40.8446V35.6323C16.7091 35.6323 16.8022 34.484 15.9529 34.2683C15.2228 34.0828 14.8609 34.4913 14.6455 34.8185C14.247 35.4198 13.1916 35.5104 12.4615 34.9519C11.7733 34.4256 11.654 33.8452 11.7973 32.7052C11.9406 31.5652 12.6833 31.0171 13.4269 31.0036C14.0608 30.9921 14.3442 31.2224 14.8505 31.7236C15.3567 32.2248 16.0972 32.2936 16.4236 31.8049C16.751 31.3162 16.6662 30.5482 16.683 29.874C16.6945 29.3842 16.8148 25.5828 16.8148 25.5828L22.2757 25.5339C22.2757 25.5339 23.6793 25.5505 23.4733 25.9757C23.3321 26.2664 22.9388 26.6801 22.7108 27.0396C22.4618 27.4325 22.4734 28.1754 22.6459 28.6027C23.034 29.5655 23.694 29.8375 24.4973 29.8834C25.2388 29.925 26.1174 29.7323 26.676 29.0591C27.3339 28.2651 27.0483 27.445 26.7408 26.9969C26.4333 26.5488 25.7451 26.083 26.131 25.8037C26.5578 25.4943 28.2177 25.5234 28.6267 25.5234C29.0356 25.5234 32.344 25.5359 32.344 25.5359L32.3429 40.9999V40.804Z" stroke="#303030" stroke-width="0.4" stroke-miterlimit="10"/>
<path d="M17.2075 9.75005L1 9.71045V25.6465H6.25171C6.25171 25.6465 7.79867 25.6475 7.59157 25.2224C7.45037 24.9316 6.99747 24.7138 6.76946 24.3543C6.52052 23.9615 6.24125 23.2904 6.67009 22.3453C7.01839 21.5762 8.00263 21.3584 8.88646 21.3782C9.77029 21.398 10.3435 21.6023 10.8936 22.5756C11.3873 23.4498 10.925 24.1313 10.5045 24.4585C10.0841 24.7857 9.40107 25.1286 9.73159 25.4714C10.1793 25.9351 16.8137 25.5829 16.8137 25.5829V19.7704C16.8137 19.7704 16.8482 18.7304 16.456 18.4678C16.1453 18.2604 15.7207 18.3626 15.4718 18.7544C14.9833 19.5244 13.6361 19.711 12.7889 19.0034C12.0641 18.399 11.9061 15.747 13.7051 15.2229C14.7511 14.9186 15.659 16.1857 16.2416 16.1597C16.8242 16.1336 17.0156 15.5938 17.0334 15.1468C17.1055 13.3378 17.0239 9.75005 17.0239 9.75005H17.2075Z" stroke="#303030" stroke-width="0.4" stroke-miterlimit="10"/>
</g>
<defs>
<clipPath id="clip0_404_61">
<rect width="41.54" height="42" fill="white"/>
</clipPath>
</defs>
</svg>
