<svg width="42" height="42" viewBox="0 0 42 42" fill="none" xmlns="http://www.w3.org/2000/svg">
<g clip-path="url(#clip0_1172_41)">
<path d="M36.3139 9.73108L33.4436 18.4736C33.4436 18.4736 32.6148 20.6373 33.7874 21.4928C34.9599 22.3484 36.1477 21.4814 36.9594 21.1605C37.771 20.8397 39.4954 20.4979 40.624 22.7952C41.8138 25.2129 39.8697 27.6878 39.0791 28.1996C37.8703 28.9807 35.867 29.0533 34.8033 27.3651C34.2094 26.4217 33.7549 25.2434 32.7791 25.2549C30.9419 25.2778 30.243 28.1041 29.821 29.4677C29.4772 30.5734 27.6573 36.3292 27.6573 36.3292L18.5825 33.3481C18.5825 33.3481 16.6365 32.5289 15.7771 33.879C15.0381 35.0401 15.5442 35.9014 15.9891 36.4628C16.8084 37.4979 16.3653 39.3808 14.977 40.328C13.6688 41.2199 12.5899 41.0957 10.6859 40.1963C8.78196 39.2968 8.25107 37.6927 8.6521 36.3979C8.99394 35.2922 9.55539 34.9313 10.7165 34.3393C11.8757 33.7473 12.4199 32.5021 11.7553 31.6562C11.0908 30.8102 9.70625 30.518 8.54134 30.1036C7.69535 29.8019 1 27.5752 1 27.5752L3.99247 18.4641C3.99247 18.4641 4.61694 16.5754 5.2395 17.1769C5.66536 17.5894 6.03584 18.5023 6.53236 19.1019C7.07471 19.7588 8.23006 20.8703 10.1149 20.6296C11.9998 20.389 13.3136 18.6321 13.8503 17.2648C14.3468 16.0025 14.9101 14.6848 13.3919 12.4409C12.1163 10.5541 9.90868 10.7852 8.95383 11.0602C7.99899 11.3352 6.9754 12.2748 6.70805 11.446C6.41205 10.5274 7.35161 8.15177 7.58459 7.44136C7.81757 6.73287 9.72344 1 9.72344 1L18.9415 4.02685C18.9415 4.02685 20.2133 4.35341 20.0606 5.04662C19.9345 5.61762 18.9701 5.67682 18.1318 6.36048C17.492 6.88183 15.2883 9.05696 17.662 12.1144C20.0357 15.1718 23.7023 14.2532 25.0105 13.1169C26.1639 12.1163 27.0462 10.0729 26.0761 8.50506C25.1059 6.93721 25.7056 6.29937 26.311 6.46743C26.8132 6.60683 29.2156 7.43754 29.905 7.66289C30.5944 7.88823 36.312 9.73108 36.312 9.73108H36.3139Z" fill="#E5CEAE" stroke="#303030" stroke-width="0.4" stroke-miterlimit="10"/>
</g>
<defs>
<clipPath id="clip0_1172_41">
<rect width="42" height="41.9373" fill="white"/>
</clipPath>
</defs>
</svg>
