<svg width="41" height="42" viewBox="0 0 41 42" fill="none" xmlns="http://www.w3.org/2000/svg">
<path d="M19.4585 22.5198L14.8199 22.4904C14.8199 22.4904 13.6717 22.5463 13.4489 21.8608C13.2261 21.1753 13.8196 20.7495 14.0974 20.4158C14.3753 20.082 14.8029 19.3225 13.8936 18.4331C12.9369 17.4973 11.4691 18.0311 11.105 18.325C10.5493 18.7745 10.2052 19.7075 10.8366 20.4708C11.1894 20.8965 11.6758 21.2938 11.5184 21.7527C11.2225 22.6155 9.78131 22.5075 9.07302 22.4961C8.49842 22.4866 5.50122 22.4544 5.50122 22.4544V27.1972C5.50122 27.1972 5.58561 28.2421 4.81569 28.4383C4.15386 28.6071 3.82579 28.2354 3.63046 27.9377C3.2692 27.3906 2.31249 27.3081 1.65066 27.8163C1.02675 28.2952 0.918662 28.8233 1.04856 29.8606C1.17846 30.8979 1.85167 31.3967 2.52583 31.409C3.10043 31.4194 3.35738 31.2099 3.8163 30.7538C4.27522 30.2977 4.94654 30.2351 5.24237 30.6798C5.53915 31.1245 5.46235 31.8233 5.47752 32.4368C5.48795 32.8825 5.50217 36.386 5.50217 36.386H10.263C10.263 36.386 11.4842 36.4249 11.4425 35.9972C11.4055 35.6217 11.031 35.3591 10.7911 35.0557C10.465 34.6432 10.2289 33.9236 10.5313 33.3594C10.976 32.5269 11.6891 32.3486 12.4173 32.3069C13.0895 32.269 13.849 32.4207 14.2833 33.1005C14.8389 33.9719 14.5014 34.6186 14.2235 35.0263C13.9457 35.434 13.2659 35.9356 13.6158 36.1897C14.0026 36.4713 15.6487 36.3964 16.0194 36.3964C16.3901 36.3964 19.4585 36.4514 19.4585 36.4514V32.2424C19.4585 32.2424 19.4585 31.0762 19.21 30.75C18.9768 30.4437 18.1746 30.2095 17.8323 30.6713C17.2179 31.5 16.0896 31.7371 15.3765 30.9197C14.454 29.8625 15.1395 28.0885 15.8781 27.6466C16.5286 27.2569 17.3687 27.7822 17.7726 28.152C18.699 28.9987 19.1863 28.4355 19.3788 27.7149C19.4461 27.4645 19.4585 22.5207 19.4585 22.5207V22.5198Z" stroke="#303030" stroke-width="0.4" stroke-miterlimit="10"/>
<path d="M5.50217 22.4336C5.50217 22.4336 5.48795 18.9301 5.47752 18.4844C5.46235 17.8709 5.53915 17.1721 5.24237 16.7274C4.94654 16.2827 4.27522 16.3453 3.8163 16.8014C3.35738 17.2575 3.10043 17.467 2.52583 17.4566C1.85167 17.4443 1.17846 16.9455 1.04856 15.9082C0.918662 14.8709 1.02675 14.3428 1.65066 13.8639C2.31249 13.3557 3.2692 13.4382 3.63046 13.9853C3.82579 14.283 4.15386 14.6547 4.81569 14.4859C5.58561 14.2897 5.50122 13.2448 5.50122 13.2448V8.50196C5.50122 8.50196 8.49842 8.5342 9.07302 8.54368C9.78131 8.55506 11.2225 8.66315 11.5184 7.80031C11.6758 7.34139 11.1894 6.9441 10.8366 6.51837C10.2052 5.75508 10.5493 4.82207 11.105 4.37263C11.4691 4.0787 12.9369 3.54487 13.8936 4.48073C14.8029 5.37012 14.3753 6.12961 14.0974 6.46337C13.8196 6.79713 13.2261 7.22287 13.4489 7.9084C13.6717 8.59394 14.8199 8.53799 14.8199 8.53799L19.4585 8.56739L19.4594 8.56928C19.4594 8.56928 19.4471 13.5131 19.3798 13.7634C19.1873 14.484 18.6999 15.0473 17.7735 14.2005C17.3696 13.8307 16.5295 13.3054 15.8791 13.6952C15.1404 14.137 14.4549 15.9111 15.3775 16.9683C16.0905 17.7856 17.2188 17.5486 17.8333 16.7199C18.1756 16.2581 18.9777 16.4923 19.211 16.7985C19.4594 17.1247 19.4594 18.291 19.4594 18.291V22.5" stroke="#303030" stroke-width="0.4" stroke-miterlimit="10"/>
<path d="M19.4575 36.4508C19.4575 36.4508 22.4547 36.4186 23.0293 36.4091C23.7375 36.3977 25.1788 36.2896 25.4746 37.1524C25.632 37.6114 25.1456 38.0087 24.7929 38.4344C24.1614 39.1977 24.5056 40.1307 25.0612 40.5801C25.4253 40.8741 26.8931 41.4079 27.8498 40.472C28.7591 39.5826 28.3315 38.8231 28.0537 38.4894C27.7759 38.1556 27.1823 37.7299 27.4051 37.0444C27.6279 36.3588 28.7762 36.4148 28.7762 36.4148L33.3426 36.4138C33.3426 36.4138 33.3436 31.1637 33.3322 30.9049C33.318 30.5939 32.8989 30.2298 32.3357 30.8992C31.7468 31.5999 30.756 31.6321 30.1055 31.2424C29.3669 30.8006 28.9042 29.4039 29.5907 28.2395C30.298 27.0382 31.5401 27.225 31.8853 27.4459C32.3376 27.7361 32.7453 28.3334 33.0345 28.305C33.3853 28.2699 33.3426 27.335 33.3426 27.335V22.5182C33.3426 22.5182 30.3435 22.5068 29.9728 22.5068C29.6021 22.5068 28.0508 22.4319 27.664 22.7135C27.3141 22.9677 27.8479 23.3583 28.1257 23.766C28.4036 24.1737 28.78 24.6706 28.2718 25.6434C27.8271 26.4968 26.9045 26.7111 26.2322 26.6731C25.504 26.6314 24.9654 26.5395 24.5596 25.687C24.1538 24.8346 24.4364 24.1747 24.662 23.8172C24.8687 23.491 25.2698 23.1725 25.3978 22.9079C25.5856 22.5211 24.2183 22.5192 24.2183 22.5192H19.4575" stroke="#303030" stroke-width="0.4" stroke-miterlimit="10"/>
<path d="M35.1471 18.8666L30.866 17.2717C30.866 17.2717 29.8088 16.8185 29.3613 17.3836C28.9137 17.9487 29.3205 18.5546 29.4646 18.9642C29.6087 19.3739 29.7434 20.2348 28.5819 20.7506C27.3587 21.293 26.1697 20.2803 25.9307 19.8783C25.5666 19.2639 25.5704 18.2683 26.4285 17.7733C26.9083 17.4974 27.5019 17.2945 27.5151 16.8109C27.5398 15.8997 26.1507 15.4977 25.4832 15.2606C24.9418 15.0691 22.1209 14.0527 22.1209 14.0527L23.7765 9.60854C23.7765 9.60854 24.2202 8.65846 23.5679 8.20618C23.0065 7.81648 22.5694 8.05068 22.2821 8.26117C21.753 8.64803 20.8267 8.39107 20.3839 7.68373C19.9667 7.01716 20.0492 6.48428 20.5337 5.55791C21.0182 4.63153 21.8232 4.39828 22.4585 4.623C22.9999 4.81453 23.1677 5.09994 23.4389 5.68781C23.7101 6.27568 24.3169 6.56867 24.7503 6.25577C25.1836 5.94287 25.3552 5.26113 25.5837 4.69222C25.7496 4.27786 26.9861 1 26.9861 1L31.4473 2.66216C31.4473 2.66216 32.7273 3.14099 32.4172 3.43872C32.2049 3.64258 31.7184 3.79998 31.4103 4.03418C31.0737 4.29019 30.5787 4.81074 30.6622 5.75039C30.7456 6.69004 31.2178 6.96501 31.8853 7.258C32.5016 7.52918 33.4413 7.64865 34.1562 7.00483C34.9716 6.26999 34.7934 5.67359 34.6749 5.19475C34.5563 4.71592 34.1922 4.16313 34.6094 4.04746C35.0703 3.9185 36.4982 4.53008 36.8453 4.65998C37.1923 4.78893 39.9989 5.8471 39.9989 5.8471L38.3168 10.3614C38.3168 10.3614 38.0305 11.2527 37.6901 11.1626C37.4094 11.0886 37.2359 10.386 36.9135 9.95652C36.667 9.62845 35.569 9.02067 34.4862 9.89868C33.4365 10.7501 33.3825 12.2198 33.9201 12.8921C34.3942 13.4838 35.3329 13.7995 36.1303 13.3491C36.9277 12.8987 37.1572 13.406 37.0624 13.7018C36.9827 13.9484 35.149 18.8675 35.149 18.8675L35.1471 18.8666Z" stroke="#303030" stroke-width="0.4" stroke-miterlimit="10"/>
</svg>
