<svg width="42" height="42" viewBox="0 0 42 42" fill="none" xmlns="http://www.w3.org/2000/svg">
<g clip-path="url(#clip0_404_60)">
<path d="M33 21.5L29.445 19.6485C29.445 19.6485 28.1165 18.9455 27.8748 19.3441C27.4637 20.024 27.9554 20.2782 28.0746 20.7416C28.1939 21.205 28.0955 22.407 26.7691 22.8631C25.3736 23.3432 24.1623 22.1172 23.9384 21.6528C23.5974 20.9425 23.7982 19.5501 24.7889 19.0888C25.3422 18.8304 25.836 18.8901 25.8266 18.3566C25.8151 17.7205 24.5012 17.2017 23.7888 16.8784C23.2114 16.6159 19.7122 15.2079 19.7122 15.2079L21.5868 11.4911C21.5868 11.4911 22.9269 9.00983 22.4498 8.59977C21.8787 8.10811 21.3671 8.33407 21.0314 8.53805C20.4131 8.91255 19.4193 8.54328 18.9999 7.72316C18.6044 6.95115 18.7457 6.37267 19.366 5.39981C19.9853 4.42696 20.8933 4.24808 21.5701 4.55458C22.1475 4.8161 22.3044 5.14666 22.5471 5.81824C22.7888 6.48878 23.429 6.86955 23.9342 6.56619C24.4395 6.26283 24.6937 5.53057 24.9981 4.92594C25.2199 4.48658 26.8894 1 26.8894 1L40.5449 7.47419L33.7674 21.8149L33 21.5Z" fill="#76C69D" stroke="#303030" stroke-width="0.4" stroke-miterlimit="10"/>
<path d="M16.8167 25.678C16.8167 25.678 9.69292 19.2112 8.90418 19.1871C7.8989 19.1557 1 25.7429 1 25.7429V40.9268L16.7121 41L18.4664 33.8772L16.8167 25.6791V25.678Z" fill="#E5CEAE" stroke="#303030" stroke-width="0.4" stroke-miterlimit="10"/>
<path d="M32.3468 40.9581L16.7111 40.9989V35.7664C16.7111 35.7664 16.8042 34.6137 15.9548 34.3971C15.2246 34.2109 14.8627 34.621 14.6472 34.9494C14.2486 35.553 13.1931 35.644 12.463 35.0833C11.7746 34.5551 11.6554 33.9724 11.7987 32.828C11.942 31.6836 12.6847 31.1333 13.4285 31.1197C14.0624 31.1082 14.3459 31.3394 14.8522 31.8426C15.3585 32.3458 16.0991 32.4148 16.4255 31.9242C16.7529 31.4336 16.6682 30.6626 16.6849 29.9858C16.6964 29.4941 16.8167 25.678 16.8167 25.678L22.2783 25.6289C22.2783 25.6289 23.6822 25.6456 23.4761 26.0724C23.3349 26.3643 22.9415 26.7796 22.7135 27.1405C22.4645 27.5348 22.476 28.2807 22.6486 28.7096C23.0367 29.6762 23.6968 29.9492 24.5002 29.9952C25.2419 30.0371 26.1206 29.8435 26.6792 29.1678C27.3372 28.3706 27.0516 27.5474 26.744 27.0976C26.4365 26.6478 25.7482 26.1802 26.1342 25.8998C26.561 25.5891 28.2211 25.6184 28.6301 25.6184C29.0391 25.6184 32.3468 25.7752 32.3468 25.7752L32.3767 40.9581H32.3468Z" fill="#7F99AE" stroke="#303030" stroke-width="0.4" stroke-miterlimit="10"/>
<path d="M17.2315 9.78389L1 9.74414V25.7418H6.25237C6.25237 25.7418 7.79952 25.7429 7.5924 25.3161C7.45117 25.0242 6.99822 24.8056 6.77018 24.4447C6.52121 24.0503 6.24191 23.3767 6.6708 22.4279C7.01914 21.6559 8.0035 21.4372 8.88744 21.4571C9.77138 21.477 10.3446 21.682 10.8949 22.659C11.3886 23.5367 10.9263 24.2208 10.5057 24.5493C10.0852 24.8778 9.40211 25.2219 9.73267 25.5661C10.1804 26.0316 16.8157 25.678 16.8157 25.678V19.843C16.8157 19.843 16.8502 18.799 16.4579 18.5354C16.1472 18.3272 15.7225 18.4297 15.4736 18.8231C14.985 19.5961 13.6377 19.7834 12.7904 19.0731C12.0654 18.4664 11.9075 15.8041 13.7067 15.2779C14.7528 14.9724 15.6608 16.2445 16.2435 16.2183C16.8261 16.1922 17.0176 15.6503 17.0354 15.2015C17.1075 13.3855 17.0259 9.78389 17.0259 9.78389H17.2315Z" fill="#BED5E8" stroke="#303030" stroke-width="0.4" stroke-miterlimit="10"/>
</g>
<defs>
<clipPath id="clip0_404_60">
<rect width="41.5449" height="42" fill="white"/>
</clipPath>
</defs>
</svg>
