<svg width="42" height="42" viewBox="0 0 42 42" fill="none" xmlns="http://www.w3.org/2000/svg">
<g clip-path="url(#clip0_394_239)">
<path d="M21.1822 21.1239V21.1252M1 20.6714V40.9064L21.0487 41.0001" stroke="#303030" stroke-width="0.4" stroke-miterlimit="10"/>
<path d="M21.4491 1.05221L1 1V21.0717H7.70204C7.70204 21.0717 9.59612 21.0288 9.33316 20.4826C9.15296 20.1091 8.57366 19.6178 8.28401 19.1559C7.96633 18.6512 7.75943 17.6914 8.14652 16.8908C8.72716 15.6913 9.63082 15.3017 10.6559 15.2428C11.6023 15.1893 12.6688 15.2977 13.5084 16.4557C14.2386 17.4624 13.6259 18.6726 13.2348 19.247C12.8437 19.8213 12.1963 20.4371 12.6889 20.7959C13.2335 21.1935 15.2837 21.0877 15.8056 21.0877C16.3275 21.0877 21.1809 21.1239 21.1809 21.1239" stroke="#303030" stroke-width="0.4" stroke-miterlimit="10"/>
<path d="M40.9986 21.3286L41 21.33V1.05347H21.4491C21.4491 1.05347 21.4291 6.00009 21.4144 6.6293C21.3931 7.49546 21.5012 8.48211 21.0834 9.10997C20.6669 9.73784 19.7219 9.64948 19.0759 9.00555C18.4298 8.36162 18.0681 8.06576 17.2592 8.08049C16.3101 8.09789 15.3624 8.80207 15.1796 10.2666C14.9967 11.7312 15.1489 12.4769 16.0272 13.153C16.9589 13.8705 18.3057 13.754 18.8142 12.9816C19.0892 12.5612 19.551 12.0364 20.4827 12.2747C21.5666 12.5519 21.4478 14.0271 21.4478 14.0271L21.1808 21.1251" stroke="#303030" stroke-width="0.4" stroke-miterlimit="10"/>
<path d="M40.9987 40.9464L21.0474 40.9986V34.3023C21.0474 34.3023 21.1662 32.827 20.0823 32.5499C19.1507 32.3116 18.6888 32.8364 18.4138 33.2567C17.9053 34.0292 16.5585 34.1457 15.6268 33.4281C14.7485 32.752 14.5963 32.0064 14.7792 30.5418C14.962 29.0772 15.9098 28.373 16.8588 28.3556C17.6677 28.3409 18.0294 28.6368 18.6755 29.2807C19.3215 29.9246 20.2665 30.013 20.683 29.3851C21.1008 28.7572 20.9927 27.7706 21.014 26.9044C21.0287 26.2752 21.1822 21.1238 21.1822 21.1238L28.1512 21.3286C28.1512 21.3286 29.9425 21.35 29.6796 21.8962C29.4994 22.2697 28.9975 22.8012 28.7065 23.2631C28.3888 23.7678 28.4035 24.7223 28.6237 25.2712C29.1189 26.5082 29.9612 26.8576 30.9863 26.9165C31.9327 26.97 33.0539 26.7224 33.7667 25.8575C34.6063 24.8374 34.2419 23.7838 33.8495 23.2082C33.4571 22.6325 32.5788 22.0341 33.0713 21.6753C33.6159 21.2777 35.7342 21.3152 36.2561 21.3152C36.778 21.3152 41 21.3313 41 21.3313V40.9491L40.9987 40.9464Z" stroke="#303030" stroke-width="0.4" stroke-miterlimit="10"/>
</g>
<defs>
<clipPath id="clip0_394_239">
<rect width="42" height="42" fill="white"/>
</clipPath>
</defs>
</svg>
