<svg width="42" height="42" viewBox="0 0 42 42" fill="none" xmlns="http://www.w3.org/2000/svg">
<g clip-path="url(#clip0_394_240)">
<path d="M21.1822 21.1237C21.1822 21.1237 12.0922 13.1154 11.0858 13.0846C9.80301 13.0445 1 20.6712 1 20.6712V40.9062L21.0487 40.9999L23.2872 31.8845L21.1822 21.1251V21.1237Z" fill="#E5CEAE" stroke="#303030" stroke-width="0.4" stroke-miterlimit="10"/>
<path d="M21.4492 1.05221L1 1V21.0717H7.70204C7.70204 21.0717 9.59612 21.0288 9.33316 20.4826C9.15297 20.1091 8.57366 19.6178 8.28401 19.1559C7.96633 18.6512 7.75943 17.6914 8.14653 16.8908C8.72716 15.6913 9.63082 15.3017 10.656 15.2428C11.6023 15.1893 12.6688 15.2977 13.5084 16.4557C14.2386 17.4624 13.6259 18.6726 13.2348 19.247C12.8437 19.8213 12.1963 20.4371 12.6889 20.7959C13.2335 21.1935 15.2837 21.0877 15.8056 21.0877C16.3275 21.0877 21.1809 21.1239 21.1809 21.1239L22.6291 10.3765L21.4492 1.05221Z" fill="#BED5E8" stroke="#303030" stroke-width="0.4" stroke-miterlimit="10"/>
<path d="M40.9986 21.3286L35.6087 21.9699C35.6087 21.9699 36.1226 28.3168 32.2023 28.9246C28.6958 29.4668 21.1808 21.1251 21.1808 21.1251L21.4478 14.0271C21.4478 14.0271 21.5666 12.5519 20.4827 12.2747C19.551 12.0365 19.0892 12.5612 18.8142 12.9816C18.3057 13.754 16.9589 13.8705 16.0272 13.153C15.1489 12.4769 14.9967 11.7312 15.1796 10.2666C15.3624 8.80207 16.3101 8.09789 17.2592 8.08049C18.0681 8.06576 18.4298 8.36162 19.0759 9.00555C19.7219 9.64949 20.6669 9.73784 21.0834 9.10998C21.5012 8.48211 21.3931 7.49546 21.4144 6.6293C21.4291 6.00009 21.4491 1.05347 21.4491 1.05347H41V21.33L40.9986 21.3286Z" fill="#76C69D" stroke="#303030" stroke-width="0.4" stroke-miterlimit="10"/>
<path d="M40.9987 40.9464L21.0474 40.9986V34.3023C21.0474 34.3023 21.1662 32.827 20.0823 32.5499C19.1507 32.3116 18.6888 32.8364 18.4138 33.2567C17.9053 34.0292 16.5585 34.1457 15.6268 33.4281C14.7485 32.752 14.5963 32.0064 14.7792 30.5418C14.962 29.0772 15.9098 28.373 16.8588 28.3556C17.6677 28.3409 18.0294 28.6368 18.6755 29.2807C19.3215 29.9246 20.2665 30.013 20.683 29.3851C21.1008 28.7572 20.9927 27.7706 21.014 26.9044C21.0287 26.2752 21.1822 21.1238 21.1822 21.1238L28.1512 21.3286C28.1512 21.3286 29.9425 21.35 29.6796 21.8962C29.4994 22.2697 28.9975 22.8012 28.7065 23.2631C28.3888 23.7678 28.4035 24.7223 28.6237 25.2712C29.1189 26.5082 29.9612 26.8576 30.9863 26.9165C31.9327 26.97 33.0539 26.7224 33.7667 25.8575C34.6063 24.8374 34.2419 23.7838 33.8495 23.2082C33.4571 22.6325 32.5788 22.0341 33.0713 21.6753C33.6159 21.2777 35.7342 21.3152 36.2561 21.3152C36.778 21.3152 41 21.3313 41 21.3313V40.9491L40.9987 40.9464Z" fill="#7F99AE" stroke="#303030" stroke-width="0.4" stroke-miterlimit="10"/>
</g>
<defs>
<clipPath id="clip0_394_240">
<rect width="42" height="42" fill="white"/>
</clipPath>
</defs>
</svg>
