<svg width="42" height="23" viewBox="0 0 42 23" fill="none" xmlns="http://www.w3.org/2000/svg">
<path d="M4.87671 13.7825C4.87671 13.7825 6.42907 6.81725 12.9136 3.57882C19.3995 0.340012 26.3152 -0.132808 32.3285 3.80587C38.3417 7.74455 38.6234 17.338 38.6234 17.338L30.3338 17.9178C26.0244 3.43215 13.9865 14.3882 12.4644 17.3988L4.87671 13.7825Z" fill="#7F99AE" stroke="#303030" stroke-width="0.4"/>
<path d="M32.6933 17.7532C31.6392 14.4382 28.8895 8.80633 22.4194 9.09595C15.0971 9.4228 12.3378 14.2051 11.5291 16.0943L15.2074 17.3716C17.3988 13.0321 21.5067 12.2338 24.5406 13.6836C27.5735 15.1352 27.9655 18.0835 27.9655 18.0835L32.6933 17.7532Z" fill="#536D81" stroke="#303030" stroke-width="0.4"/>
<path d="M22.5139 6.26832C12.0496 6.80613 9.34045 12.7629 8.67456 15.1029L12.8094 16.5392C14.1066 14.0065 16.8429 10.5012 22.013 10.5911C27.5704 10.6872 29.8263 15.1299 30.6952 17.8894L35.0183 17.5874C34.5898 13.7897 32.5044 5.75258 22.5139 6.26832Z" fill="#E5CEAE" stroke="#303030" stroke-width="0.4"/>
<path d="M18.708 4.37914C11.9777 5.35372 8.88033 11.5226 7.75293 14.5495L10.8822 15.6365C12.8123 10.5802 16.2524 6.82013 23.539 7.11456C30.2139 7.38108 32.649 14.1225 33.4773 17.6959L36.5643 17.4807C34.3485 5.36749 27.3938 3.12459 18.708 4.37914Z" fill="#76C69D" stroke="#303030" stroke-width="0.4"/>
<path d="M11.4068 13.1697C11.3922 13.1708 11.38 13.1592 11.3789 13.1445C11.3516 12.9055 11.0609 11.0083 8.90695 10.9711C6.75368 10.9306 5.96778 12.8913 5.87528 13.1456C5.87003 13.159 5.85414 13.1664 5.84072 13.1611C5.67335 13.1073 4.72667 12.8628 3.79685 13.6614C2.86826 14.4538 2.99433 15.5728 3.02941 15.7859C3.03125 15.8033 3.01766 15.819 2.99946 15.8181C2.77731 15.8093 1.59679 15.7999 1.1754 16.7612C0.706666 17.8268 1.17699 19.2228 2.59125 19.423C4.0055 19.6233 12.8235 19.8987 14.5321 19.9367C16.2309 19.9715 16.4327 16.7167 14.3491 16.4312C14.3336 16.4295 14.3242 16.4172 14.3232 16.4025C14.3421 13.3673 11.6927 13.1817 11.4068 13.1697Z" fill="#BED5E8" stroke="#303030" stroke-width="0.4"/>
<path d="M36.5492 14.7764C36.5346 14.7775 36.5224 14.7659 36.5213 14.7512C36.494 14.5122 36.206 12.6143 34.0493 12.5778C31.8947 12.5377 31.1088 14.4983 31.0177 14.7523C31.0124 14.7657 30.9965 14.7731 30.9831 14.7678C30.8147 14.7158 29.8691 14.4695 28.9392 15.2681C28.0093 16.0608 28.1367 17.1795 28.1718 17.3925C28.1736 17.41 28.1608 17.4285 28.1426 17.4275C27.9197 17.416 26.7378 17.407 26.3164 18.3683C25.8469 19.4311 26.3194 20.8294 27.7322 21.0301C29.1465 21.2303 37.9645 21.5058 39.6731 21.5438C41.3719 21.5785 41.5737 18.3237 39.4901 18.0383C39.4746 18.0366 39.4652 18.0242 39.4642 18.0096C39.4866 14.9764 36.8351 14.7884 36.5492 14.7764Z" fill="#BED5E8" stroke="#303030" stroke-width="0.4"/>
</svg>
