<svg width="42" height="23" viewBox="0 0 42 23" fill="none" xmlns="http://www.w3.org/2000/svg">
<path d="M5.07007 13.0951C5.64942 11.2583 7.66733 6.19886 12.9136 3.57882C19.3995 0.340012 26.3152 -0.132808 32.3285 3.80587C36.6955 6.66623 38.0396 12.5089 38.4483 15.4937" stroke="#303030" stroke-width="0.432178"/>
<path d="M15.4081 16.9933C17.6425 12.9865 21.597 12.2768 24.5406 13.6835C26.6848 14.7097 27.509 16.4841 27.808 17.4358" stroke="#303030" stroke-width="0.432178"/>
<path d="M13.9512 14.6844C15.5008 12.5787 18.0373 10.522 22.0129 10.591C25.8118 10.6568 28.0679 12.7534 29.3929 14.9551" stroke="#303030" stroke-width="0.432178"/>
<path d="M11.9724 13.2501C14.0533 9.44893 17.4556 6.86875 23.5389 7.11456C27.9489 7.29064 30.5083 10.293 31.9762 13.3408" stroke="#303030" stroke-width="0.432178"/>
<path d="M35.3423 12.8994C32.3385 4.80104 26.1604 3.30273 18.708 4.37914C14.092 5.04756 11.1849 8.15938 9.4502 11.0251" stroke="#303030" stroke-width="0.432178"/>
<path d="M11.4068 13.1697C11.3922 13.1708 11.38 13.1592 11.3789 13.1445C11.3516 12.9055 11.0609 11.0083 8.90695 10.9711C6.75368 10.9306 5.96778 12.8913 5.87528 13.1456C5.87003 13.159 5.85414 13.1664 5.84072 13.1611C5.67335 13.1073 4.72667 12.8628 3.79685 13.6614C2.86826 14.4538 2.99433 15.5728 3.02941 15.7859C3.03125 15.8033 3.01766 15.819 2.99946 15.8181C2.77731 15.8093 1.59679 15.7999 1.1754 16.7612C0.706666 17.8268 1.17699 19.2228 2.59125 19.423C4.0055 19.6233 12.8235 19.8987 14.5321 19.9367C16.2309 19.9715 16.4327 16.7167 14.3491 16.4312C14.3336 16.4295 14.3242 16.4172 14.3232 16.4025C14.3421 13.3673 11.6927 13.1817 11.4068 13.1697Z" stroke="#303030" stroke-width="0.432178"/>
<path d="M36.5492 14.7764C36.5346 14.7775 36.5224 14.7659 36.5213 14.7512C36.494 14.5122 36.206 12.6143 34.0493 12.5778C31.8947 12.5377 31.1088 14.4983 31.0177 14.7523C31.0124 14.7657 30.9965 14.7731 30.9831 14.7678C30.8147 14.7158 29.8691 14.4695 28.9392 15.2681C28.0093 16.0608 28.1367 17.1795 28.1718 17.3925C28.1736 17.41 28.1608 17.4285 28.1426 17.4275C27.9197 17.416 26.7378 17.407 26.3164 18.3683C25.8469 19.4311 26.3194 20.8294 27.7322 21.0301C29.1465 21.2303 37.9645 21.5058 39.6731 21.5438C41.3719 21.5785 41.5737 18.3237 39.4901 18.0383C39.4746 18.0366 39.4652 18.0242 39.4642 18.0096C39.4866 14.9764 36.8351 14.7884 36.5492 14.7764Z" stroke="#303030" stroke-width="0.432178"/>
</svg>
