<svg width="45" height="47" viewBox="0 0 45 47" fill="none" xmlns="http://www.w3.org/2000/svg">
<path d="M26.4895 27.4203L38.7249 35.6515C38.7249 35.6515 38.8658 34.7652 38.0646 34.0932C37.2634 33.4212 24.6708 23.4822 24.6708 23.4822L20.6336 13.8902C20.6336 13.8902 19.8554 12.1948 21.2774 9.48165C23.3312 5.56203 19.1985 1.13483 15.1647 3.39869C12.169 5.07997 11.9391 10.2345 16.185 11.6776C17.5823 12.1515 18.8753 11.9453 20.3335 15.3416C21.8292 18.8221 22.5561 21.1744 20.2015 21.703C18.3165 22.1244 13.1897 18.6407 12.2673 17.6931C10.7361 16.1223 11.7861 15.0162 10.1448 13.1219C8.73291 11.4944 4.70737 11.1961 3.59207 13.9595C2.3916 16.9332 3.44983 19.31 6.15763 20.0201C9.22548 20.8255 9.65485 17.7991 13.0226 19.5721C16.6332 21.4723 22.1758 25.084 22.1758 25.084L30.3841 39.3534C30.3841 39.3534 31.1628 40.9303 32.5709 41.2154L26.488 27.4215L26.4895 27.4203ZM13.7746 6.69356C14.099 4.65411 15.9513 3.25612 17.9137 3.56827C19.8761 3.88043 21.2026 5.78514 20.8782 7.82459C20.5537 9.86404 18.7014 11.262 16.739 10.9499C14.7767 10.6377 13.4502 8.73301 13.7746 6.69356ZM6.51855 19.2673C4.70475 18.9791 3.46846 17.2734 3.7566 15.4596C4.04473 13.6458 5.75051 12.4095 7.56431 12.6976C9.3781 12.9857 10.6144 14.6915 10.3263 16.5053C10.0381 18.3191 8.33234 19.5554 6.51855 19.2673ZM21.5998 23.4703C21.6511 23.1524 21.9489 22.9354 22.2667 22.9867C22.5845 23.0379 22.8015 23.3357 22.7503 23.6535C22.699 23.9714 22.4012 24.1883 22.0834 24.1371C21.7656 24.0859 21.5486 23.7881 21.5998 23.4703Z" stroke="#303030" stroke-width="0.4" stroke-miterlimit="10"/>
</svg>
