<svg width="41" height="42" viewBox="0 0 41 42" fill="none" xmlns="http://www.w3.org/2000/svg">
<path d="M19.8755 22.918L27.2009 34.7303C27.2009 34.7303 27.9775 36.1789 29.3012 36.3992L23.1894 23.7148L34.8713 31.0144C34.8713 31.0144 34.976 30.1828 34.2049 29.5806C33.5128 29.039 23.5162 21.6494 21.5315 20.188L19.8755 22.9198V22.918ZM17.2961 11.2672C17.2961 11.2672 16.5158 9.70855 17.7569 7.13275C19.5506 3.4095 15.5538 -0.592815 11.8599 1.64701C9.11702 3.31036 9.06378 8.12965 13.0734 9.3432C14.3935 9.74343 15.5923 9.50843 17.0611 12.6332C18.5665 15.835 19.3192 18.0088 17.1382 18.5761C15.3922 19.0295 10.4976 15.9378 9.60538 15.0823C8.12563 13.6631 9.07113 12.5983 7.47938 10.8817C6.11162 9.40746 2.34247 9.25507 1.38779 11.8694C0.36151 14.6821 1.42267 16.8686 3.97461 17.447C6.86435 18.1005 7.16911 15.264 10.3691 16.8136C13.7986 18.4732 19.0879 21.6714 19.0879 21.6714L19.6387 22.5582L21.3039 19.9475L17.2979 11.2709L17.2961 11.2672ZM10.6684 4.76624C10.907 2.85321 12.5924 1.48912 14.4339 1.71861C16.2753 1.9481 17.5733 3.68488 17.3346 5.59792C17.0959 7.51095 15.4106 8.87504 13.5691 8.64555C11.7277 8.41606 10.4297 6.67927 10.6684 4.76624ZM4.29222 16.7328C2.59032 16.5198 1.38228 14.9685 1.59525 13.2666C1.80822 11.5647 3.35957 10.3566 5.06147 10.5696C6.76337 10.7826 7.97141 12.3339 7.75844 14.0358C7.54547 15.7377 5.99412 16.9458 4.29222 16.7328ZM18.5004 20.1807C18.5371 19.8832 18.8089 19.6703 19.1081 19.7088C19.4074 19.7474 19.6185 20.0173 19.5799 20.3165C19.5414 20.6158 19.2715 20.8269 18.9723 20.7883C18.673 20.7498 18.4619 20.4799 18.5004 20.1807Z" stroke="#303030" stroke-width="0.4" stroke-miterlimit="10"/>
<path d="M10.7418 40.6806C10.7418 40.6806 19.8847 18.6624 25.1336 15.8038C25.1336 15.8038 20.5071 18.4457 11.4652 41L10.7418 40.6824V40.6806Z" stroke="#303030" stroke-width="0.4" stroke-miterlimit="10"/>
<path d="M13.6628 35.7383C13.6628 35.7383 16.7838 36.5901 19.2991 36.3588C21.594 36.1477 21.124 33.7536 24.0468 33.6857C24.0468 33.6857 23.8209 32.1839 21.5609 31.4165C18.1057 30.2433 17.9919 31.3486 16.681 32.0958C14.6138 33.2745 13.6628 35.7383 13.6628 35.7383Z" stroke="#303030" stroke-width="0.4" stroke-miterlimit="10"/>
<path d="M14.7038 31.7084C14.7038 31.7084 12.0545 29.8523 10.6244 27.7685C9.32085 25.8683 11.4615 24.7007 9.64764 22.4076C9.64764 22.4076 10.9475 21.6218 12.9817 22.8703C16.0917 24.7778 15.3133 25.5727 15.5777 27.058C15.9926 29.4006 14.7056 31.7066 14.7056 31.7066L14.7038 31.7084Z" stroke="#303030" stroke-width="0.4" stroke-miterlimit="10"/>
<path d="M32.1266 5.02696C32.1266 5.02696 34.9687 1.17336 36.5971 6.40206C36.5971 6.40206 41.2861 8.2747 37.2213 10.935C37.2213 10.935 41.8387 13.2813 37.1975 15.6C37.1975 15.6 37.2801 20.0448 33.0189 17.6416C33.0189 17.6416 32.2093 22.4021 28.5411 19.215C28.5411 19.215 23.9366 20.7076 25.2658 15.6349C25.2658 15.6349 21.124 16.8503 22.4073 11.9631C22.4073 11.9631 19.9783 7.5642 24.8105 7.90018C24.8105 7.90018 21.8987 3.94927 27.513 4.01169C27.513 4.01169 30.7938 0.169107 32.123 5.02879L32.1266 5.02696Z" stroke="#303030" stroke-width="0.4" stroke-miterlimit="10"/>
<path d="M29.4112 11.6708C29.6384 11.6708 29.8225 11.4866 29.8225 11.2595C29.8225 11.0324 29.6384 10.8483 29.4112 10.8483C29.1841 10.8483 29 11.0324 29 11.2595C29 11.4866 29.1841 11.6708 29.4112 11.6708Z" stroke="#303030" stroke-width="0.2" stroke-miterlimit="10"/>
<path d="M30.2447 12.8916C30.5286 12.8916 30.7588 12.6615 30.7588 12.3776C30.7588 12.0937 30.5286 11.8635 30.2447 11.8635C29.9608 11.8635 29.7307 12.0937 29.7307 12.3776C29.7307 12.6615 29.9608 12.8916 30.2447 12.8916Z" stroke="#303030" stroke-width="0.2" stroke-miterlimit="10"/>
<path d="M31.4454 12.2399C31.6756 12.2399 31.8622 12.0533 31.8622 11.8231C31.8622 11.593 31.6756 11.4064 31.4454 11.4064C31.2153 11.4064 31.0287 11.593 31.0287 11.8231C31.0287 12.0533 31.2153 12.2399 31.4454 12.2399Z" stroke="#303030" stroke-width="0.2" stroke-miterlimit="10"/>
<path d="M30.6633 11.2044C30.9959 11.2044 31.2655 10.9348 31.2655 10.6022C31.2655 10.2696 30.9959 10 30.6633 10C30.3308 10 30.0612 10.2696 30.0612 10.6022C30.0612 10.9348 30.3308 11.2044 30.6633 11.2044Z" stroke="#303030" stroke-width="0.2" stroke-miterlimit="10"/>
<path d="M35.4809 17.2927C32.8739 18.5411 32.1616 12.7892 32.1616 12.7892C32.1616 12.7892 38.3945 15.8974 35.4809 17.2927Z" stroke="#303030" stroke-width="0.2" stroke-miterlimit="10"/>
<path d="M38.2017 13.5934C36.7844 16.1122 32.8978 11.8125 32.8978 11.8125C32.8978 11.8125 39.7861 10.7771 38.2017 13.5934Z" stroke="#303030" stroke-width="0.2" stroke-miterlimit="10"/>
<path d="M37.8327 8.44544C38.2843 11.3003 32.5673 10.3383 32.5673 10.3383C32.5673 10.3383 37.3278 5.2546 37.8327 8.44544Z" stroke="#303030" stroke-width="0.2" stroke-miterlimit="10"/>
<path d="M35.0678 4.78095C37.0763 6.85921 31.8439 9.35423 31.8439 9.35423C31.8439 9.35423 32.8225 2.4585 35.0678 4.78095Z" stroke="#303030" stroke-width="0.2" stroke-miterlimit="10"/>
<path d="M29.852 3.52342C32.7013 4.00443 29.9695 9.11748 29.9695 9.11748C29.9695 9.11748 26.6667 2.98549 29.852 3.52342Z" stroke="#303030" stroke-width="0.2" stroke-miterlimit="10"/>
<path d="M25.4971 4.97747C28.106 3.73455 28.8055 9.48833 28.8055 9.48833C28.8055 9.48833 22.5799 6.36543 25.4971 4.97747Z" stroke="#303030" stroke-width="0.2" stroke-miterlimit="10"/>
<path d="M22.7359 9.39648C24.0082 6.80049 28.1317 10.8744 28.1317 10.8744C28.1317 10.8744 21.313 12.2972 22.7359 9.39648Z" stroke="#303030" stroke-width="0.2" stroke-miterlimit="10"/>
<path d="M22.8919 13.9862C22.4439 11.1314 28.1573 12.0971 28.1573 12.0971C28.1573 12.0971 23.3931 17.1771 22.8919 13.9862Z" stroke="#303030" stroke-width="0.2" stroke-miterlimit="10"/>
<path d="M26.1489 18.284C24.0321 16.3159 29.1231 13.5455 29.1231 13.5455C29.1231 13.5455 28.5154 20.4835 26.1489 18.284Z" stroke="#303030" stroke-width="0.2" stroke-miterlimit="10"/>
<path d="M30.5863 19.461C27.7241 19.0663 30.2999 13.8743 30.2999 13.8743C30.2999 13.8743 33.7863 19.9034 30.5863 19.461Z" stroke="#303030" stroke-width="0.2" stroke-miterlimit="10"/>
</svg>
