<svg width="42" height="35" viewBox="0 0 42 35" fill="none" xmlns="http://www.w3.org/2000/svg">
<g clip-path="url(#clip0_1173_288)">
<path fill-rule="evenodd" clip-rule="evenodd" d="M13.1107 6.12642C11.8892 7.15501 10.9249 6.31929 10.5392 5.54785C9.31777 2.52638 8.78921 4.54075 9.31776 6.12642C9.695 7.25813 8.95176 8.33518 8.24623 9.35757C7.86967 9.90326 7.50385 10.4334 7.32488 10.9479C6.98871 11.9144 6.12975 11.1594 5.42543 10.5404C5.19948 10.3418 4.98945 10.1572 4.8177 10.0479C4.11055 9.5979 4.03604 10.8486 4.88199 11.9765C5.6188 12.9589 5.49236 14.3166 5.36302 15.7056L5.36302 15.7056C5.32309 16.1344 5.28288 16.5662 5.26771 16.9909C5.22808 18.1006 4.18655 18.5018 3.10734 18.9174C2.43612 19.1759 1.75032 19.44 1.28194 19.8838C0.270668 20.8418 2.18878 20.8132 3.72716 20.7903H3.72734H3.72753H3.72772C3.95261 20.787 4.16938 20.7838 4.36769 20.7838C5.91057 20.7838 6.29629 21.4909 6.29629 22.4552C6.29629 22.9495 5.43495 23.4268 4.52599 23.9306C3.66157 24.4097 2.75407 24.9126 2.50338 25.4767C2.20261 26.1534 3.19906 25.8407 4.64409 25.3873C5.66997 25.0654 6.92192 24.6725 8.09631 24.5124C10.8151 24.1416 10.8019 25.612 10.7968 26.1834C10.7965 26.2065 10.7963 26.2281 10.7963 26.2481C10.7963 26.4662 10.4958 26.8808 10.1594 27.3448C9.70248 27.9751 9.17941 28.6967 9.25347 29.141C9.38204 29.9125 11.6321 28.3053 12.4678 26.891C13.3035 25.4767 14.7821 26.3767 15.4893 26.891C15.9043 27.1928 16.0313 27.9273 16.163 28.6881C16.292 29.4343 16.4255 30.2058 16.8393 30.6196C17.6588 31.4391 17.675 29.7839 17.675 28.5624C17.675 27.341 17.8679 26.8267 18.6393 26.891C19.3523 26.9504 20.0819 28.6412 20.7804 30.2597C21.1035 31.0086 21.42 31.742 21.7251 32.2911C22.5823 33.8342 22.9465 32.8053 22.6894 31.6482C22.4523 30.5813 21.9822 28.4339 21.9179 26.6338C21.8536 24.8338 22.9465 25.8624 23.9108 26.891C24.2131 27.2135 24.4965 27.5865 24.7866 27.9685L24.7867 27.9685C25.422 28.8049 26.09 29.6842 27.0609 30.1696C28.1201 30.6992 27.1875 29.1522 26.4942 28.0022C26.3089 27.6948 26.1407 27.4158 26.0323 27.2124C25.5153 26.2431 25.0037 25.091 25.8394 23.9981C26.8956 22.6169 27.865 23.1821 28.7052 23.672C28.824 23.7412 28.9402 23.809 29.0537 23.8695C29.2529 23.9757 29.4658 24.0957 29.6929 24.2237L29.6933 24.2238L29.6933 24.2239C30.5659 24.7155 31.6492 25.3258 32.9752 25.7338C34.3228 26.1485 33.108 24.9945 32.5292 24.4446C32.4482 24.3677 32.3797 24.3026 32.3323 24.2552C31.9466 23.8695 30.4038 22.6481 29.4395 22.0052C27.8883 20.9711 27.8323 19.8838 29.1823 18.7266C30.2566 17.8058 32.604 17.8223 34.2601 17.834C34.6797 17.8369 35.0549 17.8396 35.3538 17.8266C35.4716 17.8215 35.5952 17.8163 35.7234 17.811C37.2046 17.7496 39.3135 17.6621 40.4967 17.248C41.7825 16.798 40.3039 16.2194 39.4039 15.9623C38.8381 15.8006 37.2818 15.766 35.6928 15.7306C34.7539 15.7097 33.8036 15.6886 33.0395 15.6408C32.9233 15.6336 32.7694 15.6271 32.5884 15.6195C31.3144 15.5662 28.7003 15.4566 28.4752 14.6123C28.1643 13.4466 28.9035 12.8205 29.5375 12.2835C29.6872 12.1568 29.831 12.035 29.9537 11.9122C30.1136 11.7523 30.4401 11.498 30.8376 11.1883C31.7582 10.4712 33.0594 9.45754 33.5538 8.6336C34.711 6.70501 33.1681 7.28359 31.8823 8.05502C31.6727 8.18079 31.3999 8.36952 31.0811 8.59001C30.2352 9.1751 29.0659 9.98388 27.8966 10.4336C26.2251 11.0765 26.1608 8.82646 26.6108 8.05502C26.7658 7.78946 26.9678 7.55069 27.2041 7.27139C27.6754 6.71447 28.2829 5.99642 28.9252 4.58355C29.7578 2.75171 28.6021 3.45096 28.0451 3.78792L28.045 3.78798L28.0446 3.7882L28.0445 3.78832C27.9881 3.8224 27.9379 3.85276 27.8966 3.8764C27.4466 4.13354 25.518 5.80499 24.8751 6.44786C24.2322 7.09073 23.2679 7.6693 22.6251 6.83358C22.2034 6.28538 22.5009 5.59888 22.9369 4.59263C23.1657 4.06485 23.4325 3.44912 23.6537 2.71924C24.2606 0.716168 23.0108 1.75494 22.6251 2.14066C22.5166 2.24911 22.2899 2.55322 22.0002 2.94192C21.4142 3.72802 20.5703 4.86006 19.925 5.41927C19.1904 6.05601 18.5278 5.83255 17.8548 5.60554C17.6467 5.53535 17.4376 5.46482 17.225 5.41927C16.39 5.24034 16.3612 4.49723 16.3091 3.14689V3.14688V3.14686V3.14685C16.2973 2.84247 16.2844 2.50723 16.2607 2.14066C16.1321 0.147772 15.1678 1.17636 15.0393 2.14066L15.033 2.18801C14.9039 3.15901 14.6857 4.80003 13.1107 6.12642ZM24.5866 15.1238C23.5877 16.5721 18.2053 15.8476 15.8532 15.4522C15.2177 15.3454 14.7763 14.7768 14.8111 14.1333C14.8708 13.0285 14.9637 11.3876 15.0312 10.5593C15.0915 9.81938 15.2186 8.81603 15.3185 8.07831C15.3976 7.49378 15.8649 7.04341 16.4547 7.03793C17.9183 7.02432 20.6566 7.23454 22.3366 8.82371C24.7151 11.0737 25.8723 13.2595 24.5866 15.1238ZM13.2145 13.2145C13.2145 13.2145 13.4074 10.3216 12.6359 8.58583C11.8645 6.85009 9.83021 9.3573 8.20015 12.3145C6.95411 14.5749 7.50036 15.8588 7.82689 16.3382C7.93271 16.4936 8.0997 16.5863 8.28291 16.6283C8.83218 16.7544 10.1324 16.9778 11.5431 16.6859C13.4074 16.3002 13.2145 13.2145 13.2145 13.2145ZM8.20013 18.1004C8.65999 17.7241 10.588 17.7829 11.8801 17.8699C12.5611 17.9158 13.0675 18.4996 13.0493 19.1818C13.0348 19.7225 13.0216 20.3283 13.0216 20.7361C13.0216 21.2442 12.9397 21.998 12.8683 22.5583C12.8092 23.0223 12.4932 23.4173 12.0292 23.4766C11.2416 23.5772 9.98562 23.4985 9.10014 22.279C7.71876 20.3766 7.49298 18.6789 8.20013 18.1004ZM20.4789 17.1361C19.4503 17.1361 16.3003 17.1361 15.2074 18.7433C14.1242 20.3363 14.1145 20.9933 14.6288 23.1791C15.0675 25.0434 20.2218 24.272 22.2146 22.7291C24.2075 21.1862 25.429 19.3862 24.8504 17.9719C24.4476 16.9872 22.6356 17.0577 21.1934 17.1137C20.9407 17.1236 20.6993 17.133 20.4789 17.1361Z" fill="#E5CEAE"/>
<path d="M10.5392 5.54785L10.3538 5.62281L10.3568 5.63018L10.3603 5.63729L10.5392 5.54785ZM13.1107 6.12642L12.9818 5.97344V5.97344L13.1107 6.12642ZM9.31776 6.12642L9.5075 6.06318V6.06318L9.31776 6.12642ZM8.24623 9.35757L8.41084 9.47116V9.47116L8.24623 9.35757ZM7.32488 10.9479L7.13598 10.8822V10.8822L7.32488 10.9479ZM5.42543 10.5404L5.55746 10.3902V10.3902L5.42543 10.5404ZM4.8177 10.0479L4.71032 10.2166H4.71032L4.8177 10.0479ZM4.88199 11.9765L5.04199 11.8565V11.8565L4.88199 11.9765ZM5.36302 15.7056L5.56158 15.7304L5.56216 15.7241L5.36302 15.7056ZM5.36302 15.7056L5.16447 15.6808L5.16388 15.687L5.36302 15.7056ZM5.26771 16.9909L5.06784 16.9837V16.9837L5.26771 16.9909ZM3.10734 18.9174L3.17922 19.104L3.17922 19.104L3.10734 18.9174ZM1.28194 19.8838L1.41948 20.0289H1.41948L1.28194 19.8838ZM3.72716 20.7903V20.5903L3.72418 20.5904L3.72716 20.7903ZM3.72772 20.7903V20.9904L3.7307 20.9903L3.72772 20.7903ZM4.52599 23.9306L4.62294 24.1055H4.62294L4.52599 23.9306ZM2.50338 25.4767L2.68614 25.5579V25.5579L2.50338 25.4767ZM4.64409 25.3873L4.70397 25.5781V25.5781L4.64409 25.3873ZM8.09631 24.5124L8.12333 24.7105H8.12333L8.09631 24.5124ZM10.7968 26.1834L10.5968 26.1816V26.1816L10.7968 26.1834ZM10.1594 27.3448L9.99747 27.2275V27.2275L10.1594 27.3448ZM9.25347 29.141L9.05619 29.1739V29.1739L9.25347 29.141ZM15.4893 26.891L15.6069 26.7292V26.7292L15.4893 26.891ZM16.163 28.6881L15.9659 28.7222V28.7222L16.163 28.6881ZM16.8393 30.6196L16.6979 30.761H16.6979L16.8393 30.6196ZM18.6393 26.891L18.6227 27.0903V27.0903L18.6393 26.891ZM20.7804 30.2597L20.964 30.1805V30.1805L20.7804 30.2597ZM21.7251 32.2911L21.8999 32.1939V32.1939L21.7251 32.2911ZM22.6894 31.6482L22.4941 31.6916V31.6916L22.6894 31.6482ZM21.9179 26.6338L21.7181 26.641V26.641L21.9179 26.6338ZM23.9108 26.891L24.0567 26.7542V26.7542L23.9108 26.891ZM24.7866 27.9685L24.9467 27.8484L24.9459 27.8475L24.7866 27.9685ZM24.7867 27.9685L24.6267 28.0885L24.6274 28.0895L24.7867 27.9685ZM27.0609 30.1696L27.1503 29.9907V29.9907L27.0609 30.1696ZM26.4942 28.0022L26.6655 27.899V27.899L26.4942 28.0022ZM26.0323 27.2124L25.8558 27.3065V27.3065L26.0323 27.2124ZM25.8394 23.9981L25.9983 24.1196V24.1196L25.8394 23.9981ZM28.7052 23.672L28.6045 23.8448L28.6045 23.8448L28.7052 23.672ZM29.0537 23.8695L29.1479 23.693V23.693L29.0537 23.8695ZM29.6929 24.2237L29.5948 24.3979L29.5958 24.3985L29.6929 24.2237ZM29.6933 24.2238L29.7925 24.0502L29.7904 24.049L29.6933 24.2238ZM29.6933 24.2239L29.5941 24.3975L29.5951 24.3981L29.6933 24.2239ZM32.9752 25.7338L32.9164 25.925V25.925L32.9752 25.7338ZM32.5292 24.4446L32.3914 24.5896V24.5896L32.5292 24.4446ZM29.4395 22.0052L29.3285 22.1716H29.3285L29.4395 22.0052ZM29.1823 18.7266L29.3125 18.8784V18.8784L29.1823 18.7266ZM34.2601 17.834L34.2615 17.634V17.634L34.2601 17.834ZM35.3538 17.8266L35.3625 18.0264V18.0264L35.3538 17.8266ZM35.7234 17.811L35.7317 18.0108V18.0108L35.7234 17.811ZM40.4967 17.248L40.4307 17.0592V17.0592L40.4967 17.248ZM39.4039 15.9623L39.4588 15.77V15.77L39.4039 15.9623ZM35.6928 15.7306L35.6973 15.5307V15.5307L35.6928 15.7306ZM33.0395 15.6408L33.052 15.4412V15.4412L33.0395 15.6408ZM32.5884 15.6195L32.5968 15.4197V15.4197L32.5884 15.6195ZM28.4752 14.6123L28.2819 14.6638V14.6638L28.4752 14.6123ZM29.5375 12.2835L29.6668 12.4361V12.4361L29.5375 12.2835ZM29.9537 11.9122L29.8123 11.7708V11.7708L29.9537 11.9122ZM30.8376 11.1883L30.9605 11.3461V11.3461L30.8376 11.1883ZM33.5538 8.6336L33.3823 8.5307V8.5307L33.5538 8.6336ZM31.8823 8.05502L31.9852 8.22652V8.22652L31.8823 8.05502ZM31.0811 8.59001L30.9673 8.42552V8.42552L31.0811 8.59001ZM27.8966 10.4336L27.9684 10.6203V10.6203L27.8966 10.4336ZM26.6108 8.05502L26.7836 8.1558V8.1558L26.6108 8.05502ZM27.2041 7.27139L27.0514 7.1422V7.1422L27.2041 7.27139ZM28.9252 4.58355L28.7431 4.50079V4.50079L28.9252 4.58355ZM28.0451 3.78792L27.9416 3.61678L27.9391 3.61832L28.0451 3.78792ZM28.045 3.78798L28.1487 3.95903L28.151 3.95757L28.045 3.78798ZM28.0446 3.7882L27.941 3.61716L27.9406 3.61742L28.0446 3.7882ZM28.0445 3.78832L28.148 3.95944L28.1485 3.9591L28.0445 3.78832ZM27.8966 3.8764L27.7973 3.70275L27.7973 3.70275L27.8966 3.8764ZM24.8751 6.44786L24.7337 6.30644H24.7337L24.8751 6.44786ZM22.6251 6.83358L22.7836 6.71164V6.71164L22.6251 6.83358ZM22.9369 4.59263L23.1205 4.67215V4.67215L22.9369 4.59263ZM23.6537 2.71924L23.4623 2.66124V2.66124L23.6537 2.71924ZM22.6251 2.14066L22.7665 2.28208V2.28208L22.6251 2.14066ZM22.0002 2.94192L22.1605 3.06145L22.1605 3.06145L22.0002 2.94192ZM19.925 5.41927L19.7941 5.26814V5.26814L19.925 5.41927ZM17.8548 5.60554L17.7908 5.79505V5.79505L17.8548 5.60554ZM17.225 5.41927L17.1831 5.61484V5.61484L17.225 5.41927ZM16.3091 3.14689H16.1089L16.1092 3.15462L16.3091 3.14689ZM16.3091 3.14685H16.5092L16.5089 3.13913L16.3091 3.14685ZM16.2607 2.14066L16.0611 2.15353V2.15353L16.2607 2.14066ZM15.0393 2.14066L14.841 2.11422L14.841 2.11427L15.0393 2.14066ZM15.033 2.18801L14.8347 2.16162L14.8347 2.16165L15.033 2.18801ZM15.8532 15.4522L15.82 15.6495V15.6495L15.8532 15.4522ZM24.5866 15.1238L24.4219 15.0102V15.0102L24.5866 15.1238ZM14.8111 14.1333L15.0108 14.1441V14.1441L14.8111 14.1333ZM15.0312 10.5593L14.8319 10.5431V10.5431L15.0312 10.5593ZM15.3185 8.07831L15.5167 8.10514V8.10514L15.3185 8.07831ZM16.4547 7.03793L16.4529 6.83794V6.83794L16.4547 7.03793ZM22.3366 8.82371L22.474 8.67842V8.67842L22.3366 8.82371ZM12.6359 8.58583L12.4532 8.66705V8.66705L12.6359 8.58583ZM13.2145 13.2145L13.015 13.2012L13.0141 13.214L13.0149 13.2269L13.2145 13.2145ZM8.20015 12.3145L8.3753 12.411V12.411L8.20015 12.3145ZM7.82689 16.3382L7.66159 16.4508V16.4508L7.82689 16.3382ZM8.28291 16.6283L8.32764 16.4334H8.32764L8.28291 16.6283ZM11.5431 16.6859L11.5025 16.4901V16.4901L11.5431 16.6859ZM11.8801 17.8699L11.8667 18.0695V18.0695L11.8801 17.8699ZM8.20013 18.1004L8.32677 18.2552H8.32677L8.20013 18.1004ZM13.0493 19.1818L12.8493 19.1765V19.1765L13.0493 19.1818ZM12.8683 22.5583L13.0667 22.5835V22.5835L12.8683 22.5583ZM12.0292 23.4766L12.0545 23.6749V23.6749L12.0292 23.4766ZM9.10014 22.279L8.9383 22.3965H8.9383L9.10014 22.279ZM15.2074 18.7433L15.3728 18.8558V18.8558L15.2074 18.7433ZM20.4789 17.1361V17.3362L20.4818 17.3361L20.4789 17.1361ZM14.6288 23.1791L14.4341 23.2249V23.2249L14.6288 23.1791ZM24.8504 17.9719L25.0355 17.8962V17.8962L24.8504 17.9719ZM21.1934 17.1137L21.1856 16.9139H21.1856L21.1934 17.1137ZM10.5392 5.54785L10.3603 5.63729C10.5665 6.04955 10.9346 6.49678 11.4373 6.69784C11.9589 6.9065 12.5821 6.83301 13.2395 6.2794L13.1107 6.12642L12.9818 5.97344C12.4178 6.44843 11.9481 6.47137 11.5858 6.32645C11.2045 6.17394 10.8977 5.81759 10.7181 5.4584L10.5392 5.54785ZM9.31776 6.12642L9.5075 6.06318C9.38202 5.68674 9.31922 5.28384 9.31384 4.93905C9.31115 4.76682 9.32286 4.61293 9.34649 4.48663C9.37067 4.35739 9.40489 4.27042 9.43801 4.22134C9.4538 4.19795 9.46549 4.18891 9.46999 4.18612C9.47272 4.18443 9.4723 4.18498 9.4726 4.18498C9.4784 4.1851 9.52602 4.19148 9.61791 4.2826C9.80009 4.46325 10.0498 4.87083 10.3538 5.62281L10.5392 5.54785L10.7246 5.47289C10.4179 4.71414 10.1435 4.24046 9.89956 3.99857C9.77839 3.87841 9.63745 3.78821 9.48061 3.78506C9.3096 3.78163 9.18505 3.88114 9.10646 3.99757C9.03021 4.11055 8.9824 4.25763 8.95331 4.41307C8.92368 4.57146 8.91089 4.7529 8.91389 4.94529C8.91989 5.32974 8.98923 5.77327 9.12803 6.18967L9.31776 6.12642ZM8.24623 9.35757L8.41084 9.47116C8.76091 8.96387 9.13602 8.42167 9.37235 7.86063C9.61071 7.29478 9.71655 6.69032 9.5075 6.06318L9.31776 6.12642L9.12803 6.18967C9.29621 6.69423 9.21905 7.19416 9.00372 7.70535C8.78636 8.22136 8.43708 8.72888 8.08162 9.24398L8.24623 9.35757ZM7.32488 10.9479L7.51378 11.0136C7.68201 10.53 8.02959 10.0237 8.41084 9.47116L8.24623 9.35757L8.08162 9.24398C7.70975 9.78286 7.3257 10.3368 7.13598 10.8822L7.32488 10.9479ZM5.42543 10.5404L5.29339 10.6906C5.636 10.9917 6.05393 11.3622 6.43554 11.523C6.62976 11.6049 6.85035 11.6483 7.05952 11.5648C7.27276 11.4796 7.41946 11.2848 7.51378 11.0136L7.32488 10.9479L7.13598 10.8822C7.06221 11.0943 6.97548 11.1676 6.91111 11.1933C6.84266 11.2207 6.74146 11.2179 6.59088 11.1544C6.28289 11.0246 5.91918 10.7081 5.55746 10.3902L5.42543 10.5404ZM4.8177 10.0479L4.71032 10.2166C4.86596 10.3157 5.06265 10.4878 5.29339 10.6906L5.42543 10.5404L5.55746 10.3902C5.33632 10.1958 5.11295 9.99873 4.92507 9.87917L4.8177 10.0479ZM4.88199 11.9765L5.04199 11.8565C4.63815 11.3181 4.46633 10.7647 4.46743 10.4211C4.46801 10.2393 4.51532 10.1724 4.53228 10.1594C4.53506 10.1573 4.54106 10.1522 4.56324 10.1544C4.5901 10.157 4.63848 10.1709 4.71032 10.2166L4.8177 10.0479L4.92507 9.87917C4.72009 9.74873 4.48129 9.69419 4.28863 9.84218C4.11917 9.97233 4.06812 10.2043 4.06743 10.4198C4.06598 10.8711 4.27988 11.507 4.72199 12.0965L4.88199 11.9765ZM5.36302 15.7056L5.56216 15.7241C5.62648 15.0334 5.6925 14.3298 5.64683 13.6747C5.60096 13.0166 5.44164 12.3894 5.04199 11.8565L4.88199 11.9765L4.72199 12.0965C5.05915 12.546 5.20502 13.0889 5.2478 13.7025C5.29078 14.3191 5.2289 14.9888 5.16388 15.687L5.36302 15.7056ZM5.36302 15.7056L5.56148 15.7304L5.56148 15.7304L5.36302 15.7056L5.16457 15.6808L5.16457 15.6808L5.36302 15.7056ZM5.26771 16.9909L5.46758 16.998C5.48251 16.58 5.52213 16.154 5.56216 15.7241L5.36302 15.7056L5.16388 15.687C5.12404 16.1148 5.08324 16.5524 5.06784 16.9837L5.26771 16.9909ZM3.10734 18.9174L3.17922 19.104C3.71195 18.8989 4.26925 18.6857 4.69497 18.3762C5.13196 18.0585 5.44506 17.6288 5.46758 16.998L5.26771 16.9909L5.06784 16.9837C5.05073 17.4627 4.82324 17.7884 4.45976 18.0527C4.085 18.3251 3.58194 18.5203 3.03546 18.7308L3.10734 18.9174ZM1.28194 19.8838L1.41948 20.0289C1.85349 19.6178 2.49781 19.3665 3.17922 19.104L3.10734 18.9174L3.03546 18.7308C2.37442 18.9853 1.64715 19.2623 1.14439 19.7386L1.28194 19.8838ZM3.72716 20.7903L3.72418 20.5904C2.94523 20.602 2.10714 20.6133 1.58788 20.5088C1.46016 20.4831 1.36265 20.4523 1.29452 20.4185C1.22443 20.3837 1.20594 20.3561 1.20217 20.348C1.20085 20.3452 1.19968 20.3418 1.20002 20.3345C1.20042 20.326 1.20317 20.3089 1.21561 20.2815C1.24173 20.2241 1.30173 20.1405 1.41948 20.0289L1.28194 19.8838L1.14439 19.7386C1.00932 19.8665 0.908048 19.9916 0.851509 20.1159C0.792629 20.2453 0.778126 20.3856 0.839905 20.5176C0.897786 20.6412 1.00664 20.7222 1.11666 20.7768C1.22863 20.8324 1.36399 20.8718 1.50897 20.901C2.08055 21.016 2.97071 21.0016 3.73014 20.9903L3.72716 20.7903ZM3.72734 20.7903V20.5903H3.72716V20.7903V20.9903H3.72734V20.7903ZM3.72753 20.7903V20.5903H3.72734V20.7903V20.9903H3.72753V20.7903ZM3.72772 20.7903V20.5903H3.72753V20.7903V20.9903H3.72772V20.7903ZM4.36769 20.7838V20.5838C4.16761 20.5838 3.94927 20.587 3.72474 20.5904L3.72772 20.7903L3.7307 20.9903C3.95595 20.987 4.17116 20.9838 4.36769 20.9838V20.7838ZM6.29629 22.4552H6.49629C6.49629 21.9517 6.39646 21.4705 6.05392 21.1184C5.711 20.766 5.16484 20.5838 4.36769 20.5838V20.7838V20.9838C5.11342 20.9838 5.53157 21.1551 5.76723 21.3973C6.00326 21.6399 6.09629 21.9944 6.09629 22.4552H6.29629ZM4.52599 23.9306L4.62294 24.1055C5.07361 23.8558 5.5293 23.6036 5.87118 23.35C6.04255 23.2228 6.19467 23.0886 6.3054 22.9462C6.41612 22.8038 6.49629 22.6389 6.49629 22.4552H6.29629H6.09629C6.09629 22.5186 6.06879 22.5988 5.98961 22.7007C5.91043 22.8025 5.79041 22.9118 5.63282 23.0287C5.31679 23.2632 4.88733 23.5017 4.42904 23.7557L4.52599 23.9306ZM2.50338 25.4767L2.68614 25.5579C2.78783 25.3291 3.03733 25.0887 3.39915 24.8357C3.75521 24.5867 4.18841 24.3464 4.62294 24.1055L4.52599 23.9306L4.42904 23.7557C3.99915 23.9939 3.54638 24.2446 3.16992 24.5079C2.79921 24.7671 2.46961 25.0602 2.32061 25.3955L2.50338 25.4767ZM4.64409 25.3873L4.58421 25.1965C3.85257 25.426 3.2636 25.61 2.89364 25.6574C2.80326 25.669 2.73531 25.671 2.68697 25.6663C2.63607 25.6613 2.62636 25.6507 2.63246 25.6556C2.64766 25.6677 2.64977 25.6849 2.64968 25.6811C2.64938 25.6679 2.65407 25.6301 2.68614 25.5579L2.50338 25.4767L2.32061 25.3955C2.27749 25.4925 2.24753 25.5929 2.24979 25.6904C2.25227 25.7972 2.29418 25.8975 2.38308 25.9683C2.46288 26.032 2.56078 26.0559 2.64808 26.0644C2.73794 26.0732 2.83879 26.0677 2.94449 26.0542C3.35881 26.0011 3.99059 25.802 4.70397 25.5781L4.64409 25.3873ZM8.09631 24.5124L8.06929 24.3142C6.87521 24.477 5.60687 24.8756 4.58421 25.1965L4.64409 25.3873L4.70397 25.5781C5.73306 25.2552 6.96864 24.868 8.12333 24.7105L8.09631 24.5124ZM10.7968 26.1834L10.9967 26.1852C10.9992 25.9066 11.0105 25.3211 10.62 24.8646C10.2188 24.3956 9.45591 24.1251 8.06928 24.3142L8.09631 24.5124L8.12333 24.7105C9.45546 24.5289 10.0454 24.8082 10.316 25.1246C10.5973 25.4534 10.5994 25.8888 10.5968 26.1816L10.7968 26.1834ZM10.7963 26.2481H10.9963C10.9963 26.2292 10.9965 26.2085 10.9967 26.1852L10.7968 26.1834L10.5968 26.1816C10.5966 26.2045 10.5963 26.2271 10.5963 26.2481H10.7963ZM10.1594 27.3448L10.3213 27.4622C10.4882 27.2321 10.6522 27.006 10.774 26.8097C10.835 26.7112 10.8886 26.6153 10.9275 26.5261C10.9649 26.4401 10.9963 26.3434 10.9963 26.2481H10.7963H10.5963C10.5963 26.2619 10.5902 26.2988 10.5608 26.3664C10.5328 26.4307 10.4902 26.5083 10.4341 26.5988C10.3215 26.7803 10.1671 26.9935 9.99747 27.2275L10.1594 27.3448ZM9.25347 29.141L9.45074 29.1081C9.43961 29.0413 9.44901 28.9479 9.48962 28.8237C9.52967 28.7012 9.59548 28.5625 9.68126 28.4114C9.85333 28.1082 10.0912 27.7797 10.3213 27.4622L10.1594 27.3448L9.99747 27.2275C9.77069 27.5403 9.51856 27.8877 9.33338 28.214C9.24053 28.3775 9.1609 28.5419 9.10942 28.6994C9.05851 28.8551 9.03029 29.0185 9.05619 29.1739L9.25347 29.141ZM12.4678 26.891L12.2956 26.7892C11.896 27.4655 11.1472 28.2014 10.4801 28.6723C10.1448 28.909 9.84856 29.0654 9.64109 29.1205C9.53483 29.1487 9.48071 29.1424 9.46186 29.1356C9.45614 29.1336 9.45732 29.1329 9.45891 29.1349C9.45979 29.1361 9.45442 29.1302 9.45074 29.1081L9.25347 29.141L9.05619 29.1739C9.08259 29.3323 9.17444 29.4574 9.32657 29.512C9.45864 29.5595 9.60794 29.5432 9.74376 29.5071C10.0204 29.4336 10.3631 29.2445 10.7108 28.999C11.4098 28.5056 12.2039 27.7308 12.64 26.9927L12.4678 26.891ZM15.4893 26.891L15.6069 26.7292C15.2505 26.4701 14.6741 26.0933 14.066 25.9716C13.7581 25.9101 13.4315 25.9117 13.119 26.0362C12.8043 26.1616 12.5233 26.4039 12.2956 26.7892L12.4678 26.891L12.64 26.9927C12.8302 26.6709 13.0474 26.4954 13.2671 26.4078C13.4889 26.3194 13.7329 26.313 13.9875 26.3639C14.5044 26.4673 15.0209 26.7976 15.3716 27.0527L15.4893 26.891ZM16.163 28.6881L16.36 28.654C16.2949 28.2772 16.2281 27.889 16.1231 27.5571C16.0191 27.2284 15.8671 26.9185 15.6069 26.7292L15.4893 26.891L15.3716 27.0527C15.5264 27.1653 15.6455 27.3736 15.7417 27.6777C15.8369 27.9787 15.8995 28.3382 15.9659 28.7222L16.163 28.6881ZM16.8393 30.6196L16.9807 30.4782C16.8083 30.3058 16.6835 30.0467 16.5859 29.7211C16.4888 29.3968 16.425 29.0298 16.36 28.654L16.163 28.6881L15.9659 28.7222C16.03 29.0926 16.0975 29.4844 16.2028 29.8359C16.3077 30.186 16.4565 30.5196 16.6979 30.761L16.8393 30.6196ZM17.675 28.5624H17.475C17.475 29.1815 17.4698 29.8746 17.3695 30.3116C17.3449 30.4188 17.3166 30.5007 17.2866 30.5583C17.2557 30.6175 17.2319 30.6339 17.2254 30.6372C17.2233 30.6382 17.2218 30.6387 17.2184 30.6388C17.2142 30.6388 17.2031 30.638 17.1832 30.6303C17.1406 30.6137 17.0736 30.5711 16.9807 30.4782L16.8393 30.6196L16.6979 30.761C16.8099 30.873 16.9226 30.958 17.0378 31.0029C17.1593 31.0503 17.2876 31.0539 17.4058 30.9942C17.516 30.9384 17.5901 30.8412 17.6411 30.7435C17.693 30.6442 17.7307 30.526 17.7594 30.4011C17.8721 29.91 17.875 29.1648 17.875 28.5624H17.675ZM18.6393 26.891L18.6559 26.6917C18.442 26.6739 18.2477 26.6942 18.0796 26.7716C17.9075 26.8508 17.7809 26.9814 17.6911 27.151C17.5205 27.4733 17.475 27.9546 17.475 28.5624H17.675H17.875C17.875 27.9488 17.926 27.5622 18.0446 27.3381C18.0995 27.2345 18.1657 27.1723 18.2468 27.1349C18.3318 27.0958 18.4509 27.076 18.6227 27.0903L18.6393 26.891ZM20.7804 30.2597L20.964 30.1805C20.6162 29.3744 20.2546 28.5359 19.8892 27.892C19.7067 27.5702 19.5177 27.2871 19.3225 27.0783C19.1311 26.8735 18.9084 26.7127 18.6559 26.6917L18.6393 26.891L18.6227 27.0903C18.7267 27.099 18.8625 27.1719 19.0303 27.3514C19.1943 27.5268 19.3651 27.7788 19.5413 28.0894C19.8937 28.7104 20.2461 29.5265 20.5967 30.3389L20.7804 30.2597ZM21.7251 32.2911L21.8999 32.1939C21.6008 31.6555 21.2885 30.9325 20.964 30.1805L20.7804 30.2597L20.5967 30.3389C20.9185 31.0847 21.2393 31.8285 21.5502 32.3882L21.7251 32.2911ZM22.6894 31.6482L22.4941 31.6916C22.5552 31.9662 22.5784 32.2295 22.568 32.4441C22.5571 32.6696 22.5108 32.8046 22.4685 32.8578C22.4528 32.8776 22.449 32.8724 22.4568 32.8717C22.4597 32.8714 22.4384 32.8746 22.386 32.839C22.2759 32.7641 22.1111 32.5741 21.8999 32.1939L21.7251 32.2911L21.5502 32.3882C21.7677 32.7796 21.9698 33.0397 22.1611 33.1697C22.2594 33.2365 22.3723 33.2809 22.4926 33.2701C22.6178 33.2588 22.7144 33.1913 22.7817 33.1067C22.9055 32.9509 22.9557 32.7081 22.9675 32.4635C22.9799 32.208 22.9521 31.9088 22.8846 31.6048L22.6894 31.6482ZM21.9179 26.6338L21.7181 26.641C21.7831 28.4622 22.2576 30.6272 22.4941 31.6916L22.6894 31.6482L22.8846 31.6048C22.647 30.5354 22.1813 28.4055 22.1178 26.6267L21.9179 26.6338ZM23.9108 26.891L24.0567 26.7542C23.8149 26.4962 23.561 26.2339 23.3172 26.015C23.0772 25.7994 22.8313 25.6111 22.6056 25.5171C22.4916 25.4696 22.3666 25.4391 22.2416 25.4545C22.1089 25.4707 21.994 25.5366 21.9082 25.6478C21.8271 25.753 21.7774 25.8912 21.7487 26.0504C21.7197 26.2113 21.7097 26.4075 21.7181 26.641L21.9179 26.6338L22.1178 26.6267C22.1101 26.4102 22.1201 26.2447 22.1424 26.1214C22.1649 25.9964 22.1976 25.9276 22.2249 25.8921C22.2476 25.8627 22.2674 25.8543 22.2903 25.8515C22.321 25.8477 22.3729 25.8534 22.4517 25.8863C22.6117 25.9529 22.8158 26.1022 23.0499 26.3125C23.2803 26.5195 23.5246 26.7714 23.7649 27.0278L23.9108 26.891ZM24.7866 27.9685L24.9459 27.8475C24.6571 27.4673 24.3674 27.0856 24.0567 26.7542L23.9108 26.891L23.7649 27.0278C24.0588 27.3413 24.3359 27.7057 24.6274 28.0894L24.7866 27.9685ZM24.7867 27.9685L24.9467 27.8485L24.9466 27.8485L24.7866 27.9685L24.6266 28.0885L24.6267 28.0885L24.7867 27.9685ZM27.0609 30.1696L27.1503 29.9907C26.2281 29.5296 25.5867 28.691 24.9459 27.8475L24.7867 27.9685L24.6274 28.0895C25.2573 28.9187 25.9518 29.8387 26.9714 30.3485L27.0609 30.1696ZM26.4942 28.0022L26.323 28.1055C26.6733 28.6866 27.0693 29.3447 27.2492 29.7906C27.2938 29.901 27.3213 29.9893 27.3329 30.0548C27.3462 30.1293 27.3319 30.1362 27.3431 30.1167C27.3696 30.0705 27.4133 30.0787 27.3855 30.0764C27.3494 30.0734 27.2755 30.0533 27.1503 29.9907L27.0609 30.1696L26.9714 30.3485C27.111 30.4183 27.2397 30.4657 27.3526 30.475C27.4739 30.485 27.6131 30.4502 27.6902 30.3155C27.7521 30.2074 27.7437 30.0803 27.7267 29.9848C27.7082 29.8802 27.6693 29.7627 27.6202 29.6409C27.4254 29.1582 27.0084 28.4678 26.6655 27.899L26.4942 28.0022ZM26.0323 27.2124L25.8558 27.3065C25.9673 27.5157 26.1388 27.8 26.323 28.1055L26.4942 28.0022L26.6655 27.899C26.479 27.5896 26.3141 27.3159 26.2087 27.1183L26.0323 27.2124ZM25.8394 23.9981L25.6805 23.8766C24.7599 25.0805 25.3444 26.3476 25.8558 27.3065L26.0323 27.2124L26.2087 27.1183C25.6862 26.1386 25.2475 25.1014 25.9983 24.1196L25.8394 23.9981ZM28.7052 23.672L28.806 23.4992C28.3956 23.26 27.9012 22.9671 27.3658 22.9338C26.8031 22.8987 26.2378 23.1479 25.6805 23.8766L25.8394 23.9981L25.9983 24.1196C26.4972 23.4671 26.9448 23.3083 27.3409 23.333C27.7643 23.3594 28.1746 23.5941 28.6045 23.8448L28.7052 23.672ZM29.0537 23.8695L29.1479 23.693C29.0383 23.6346 28.9254 23.5688 28.806 23.4992L28.7052 23.672L28.6045 23.8448C28.7226 23.9136 28.8422 23.9833 28.9596 24.046L29.0537 23.8695ZM29.6929 24.2237L29.7911 24.0494C29.5644 23.9217 29.3494 23.8006 29.1479 23.693L29.0537 23.8695L28.9596 24.046C29.1564 24.1509 29.3671 24.2697 29.5948 24.3979L29.6929 24.2237ZM29.6933 24.2238L29.7904 24.049L29.7901 24.0488L29.6929 24.2237L29.5958 24.3985L29.5961 24.3987L29.6933 24.2238ZM29.6933 24.2239L29.7925 24.0502L29.7925 24.0502L29.6933 24.2238L29.594 24.3975L29.5941 24.3975L29.6933 24.2239ZM32.9752 25.7338L33.034 25.5427C31.731 25.1417 30.6648 24.5416 29.7915 24.0496L29.6933 24.2239L29.5951 24.3981C30.467 24.8893 31.5673 25.5099 32.9164 25.925L32.9752 25.7338ZM32.5292 24.4446L32.3914 24.5896C32.6878 24.8711 33.1166 25.28 33.3092 25.5633C33.3571 25.6338 33.3792 25.6808 33.386 25.7057C33.3931 25.7318 33.3722 25.6793 33.4235 25.6344C33.4545 25.6071 33.4661 25.6269 33.3816 25.6206C33.3085 25.6151 33.1964 25.5926 33.034 25.5427L32.9752 25.7338L32.9164 25.925C33.0909 25.9787 33.2356 26.0108 33.3518 26.0195C33.4565 26.0273 33.5899 26.0206 33.6874 25.9349C33.8052 25.8315 33.7959 25.6885 33.7719 25.6005C33.7476 25.5113 33.6959 25.4207 33.64 25.3385C33.4174 25.011 32.9494 24.5679 32.6669 24.2996L32.5292 24.4446ZM32.3323 24.2552L32.1909 24.3967C32.2405 24.4462 32.3113 24.5135 32.3914 24.5896L32.5292 24.4446L32.6669 24.2996C32.5851 24.2219 32.5188 24.1589 32.4738 24.1138L32.3323 24.2552ZM29.4395 22.0052L29.3285 22.1716C30.2875 22.8109 31.8183 24.0241 32.1909 24.3967L32.3323 24.2552L32.4738 24.1138C32.0749 23.715 30.52 22.4852 29.5504 21.8388L29.4395 22.0052ZM29.1823 18.7266L29.0521 18.5747C28.3604 19.1677 27.9774 19.7851 28.0234 20.4263C28.0693 21.0657 28.5359 21.6432 29.3285 22.1716L29.4395 22.0052L29.5504 21.8388C28.7918 21.3331 28.4548 20.8498 28.4224 20.3977C28.3901 19.9474 28.6542 19.4427 29.3125 18.8784L29.1823 18.7266ZM34.2601 17.834L34.2615 17.634C33.4356 17.6282 32.4222 17.6208 31.4796 17.732C30.5448 17.8423 29.6373 18.0732 29.0521 18.5747L29.1823 18.7266L29.3125 18.8784C29.8016 18.4592 30.6049 18.238 31.5264 18.1292C32.4401 18.0214 33.4284 18.0281 34.2586 18.034L34.2601 17.834ZM35.3538 17.8266L35.3451 17.6268C35.0524 17.6395 34.6829 17.637 34.2615 17.634L34.2601 17.834L34.2586 18.034C34.6765 18.0369 35.0574 18.0397 35.3625 18.0264L35.3538 17.8266ZM35.7234 17.811L35.7151 17.6112C35.5869 17.6165 35.4632 17.6216 35.3451 17.6268L35.3538 17.8266L35.3625 18.0264C35.4801 18.0213 35.6034 18.0162 35.7317 18.0108L35.7234 17.811ZM40.4967 17.248L40.4307 17.0592C39.8633 17.2578 39.0607 17.3816 38.203 17.4627C37.3488 17.5434 36.4565 17.5804 35.7151 17.6112L35.7234 17.811L35.7317 18.0108C36.4715 17.9802 37.3742 17.9428 38.2406 17.8609C39.1034 17.7793 39.9469 17.6523 40.5628 17.4368L40.4967 17.248ZM39.4039 15.9623L39.3489 16.1546C39.7999 16.2834 40.3629 16.4847 40.6526 16.6947C40.7232 16.7459 40.7651 16.789 40.7861 16.821C40.8053 16.8503 40.7984 16.8556 40.8001 16.8483C40.8008 16.8455 40.7966 16.8694 40.7374 16.9129C40.6787 16.956 40.5816 17.0064 40.4307 17.0592L40.4967 17.248L40.5628 17.4368C40.7333 17.3771 40.8712 17.311 40.9742 17.2353C41.0768 17.16 41.161 17.0629 41.1898 16.9385C41.2196 16.8097 41.1806 16.693 41.1204 16.6014C41.0621 16.5126 40.9775 16.4362 40.8874 16.3709C40.5342 16.1148 39.9078 15.8982 39.4588 15.77L39.4039 15.9623ZM35.6928 15.7306L35.6884 15.9306C36.4837 15.9483 37.267 15.9657 37.922 15.9988C38.585 16.0324 39.0919 16.0812 39.3489 16.1546L39.4039 15.9623L39.4588 15.77C39.1501 15.6818 38.596 15.6324 37.9422 15.5994C37.2803 15.5659 36.4909 15.5483 35.6973 15.5307L35.6928 15.7306ZM33.0395 15.6408L33.027 15.8404C33.796 15.8885 34.7507 15.9097 35.6884 15.9306L35.6928 15.7306L35.6973 15.5307C34.7571 15.5098 33.8112 15.4887 33.052 15.4412L33.0395 15.6408ZM32.5884 15.6195L32.58 15.8194C32.7618 15.827 32.9134 15.8333 33.027 15.8404L33.0395 15.6408L33.052 15.4412C32.9333 15.4338 32.7769 15.4273 32.5968 15.4197L32.5884 15.6195ZM28.4752 14.6123L28.2819 14.6638C28.363 14.9679 28.6446 15.1664 28.9535 15.3016C29.2725 15.4412 29.6791 15.539 30.1057 15.6098C30.9608 15.7518 31.9452 15.7928 32.58 15.8194L32.5884 15.6195L32.5968 15.4197C31.9576 15.3929 30.998 15.3525 30.1712 15.2152C29.7569 15.1464 29.3882 15.0552 29.1139 14.9351C28.8294 14.8106 28.6999 14.6788 28.6684 14.5607L28.4752 14.6123ZM29.5375 12.2835L29.4083 12.1309C29.0959 12.3955 28.7261 12.7064 28.4812 13.108C28.229 13.5218 28.1117 14.0257 28.2819 14.6638L28.4752 14.6123L28.6684 14.5607C28.5277 14.0332 28.6246 13.6412 28.8228 13.3163C29.0283 12.9792 29.3451 12.7086 29.6668 12.4361L29.5375 12.2835ZM29.9537 11.9122L29.8123 11.7708C29.6965 11.8866 29.5594 12.0029 29.4083 12.1309L29.5375 12.2835L29.6668 12.4361C29.815 12.3107 29.9655 12.1833 30.0952 12.0536L29.9537 11.9122ZM30.8376 11.1883L30.7147 11.0306C30.3232 11.3355 29.9834 11.5997 29.8123 11.7708L29.9537 11.9122L30.0952 12.0536C30.2439 11.9049 30.557 11.6605 30.9605 11.3461L30.8376 11.1883ZM33.5538 8.6336L33.3823 8.5307C33.1518 8.91481 32.7228 9.35731 32.2227 9.80151C31.7261 10.2426 31.1758 10.6714 30.7147 11.0306L30.8376 11.1883L30.9605 11.3461C31.42 10.9882 31.9805 10.5516 32.4883 10.1006C32.9926 9.65266 33.4614 9.17634 33.7253 8.7365L33.5538 8.6336ZM31.8823 8.05502L31.9852 8.22652C32.3018 8.03657 32.6312 7.8604 32.9279 7.73241C33.2316 7.6014 33.4768 7.5318 33.6342 7.5318C33.7113 7.5318 33.7389 7.54868 33.745 7.55375C33.7472 7.55553 33.7499 7.55815 33.7529 7.56549C33.7564 7.57397 33.7613 7.59158 33.7616 7.62305C33.7623 7.68885 33.7425 7.79394 33.6809 7.94992C33.6202 8.10363 33.5235 8.29534 33.3823 8.5307L33.5538 8.6336L33.7253 8.7365C33.8734 8.48971 33.9816 8.27762 34.053 8.09684C34.1235 7.91833 34.163 7.75825 34.1616 7.61913C34.1602 7.4748 34.1135 7.33939 33.9999 7.24545C33.893 7.15711 33.7579 7.1318 33.6342 7.1318C33.3897 7.1318 33.0805 7.23095 32.7694 7.36512C32.4514 7.50232 32.1057 7.68776 31.7794 7.88353L31.8823 8.05502ZM31.0811 8.59001L31.1949 8.7545C31.5159 8.53245 31.7825 8.34817 31.9852 8.22652L31.8823 8.05502L31.7794 7.88352C31.563 8.01342 31.2839 8.20658 30.9673 8.42552L31.0811 8.59001ZM27.8966 10.4336L27.9684 10.6203C29.1639 10.1605 30.3528 9.33692 31.1949 8.7545L31.0811 8.59001L30.9673 8.42552C30.1176 9.01327 28.9679 9.80729 27.8248 10.247L27.8966 10.4336ZM26.6108 8.05502L26.4381 7.95425C26.3064 8.17996 26.2207 8.49578 26.1879 8.82251C26.1548 9.15139 26.1731 9.51151 26.2662 9.83069C26.3587 10.1481 26.5327 10.448 26.8287 10.6157C27.1302 10.7865 27.5137 10.7952 27.9684 10.6203L27.8966 10.4336L27.8248 10.247C27.4437 10.3935 27.1924 10.362 27.0258 10.2676C26.8537 10.1701 26.7263 9.97985 26.6502 9.71869C26.5745 9.45929 26.5567 9.15243 26.5858 8.86256C26.6152 8.57053 26.6903 8.31581 26.7836 8.1558L26.6108 8.05502ZM27.2041 7.27139L27.0514 7.1422C26.8176 7.41852 26.6034 7.67083 26.4381 7.95425L26.6108 8.05502L26.7836 8.1558C26.9281 7.9081 27.1179 7.68287 27.3568 7.40057L27.2041 7.27139ZM28.9252 4.58355L28.7431 4.50079C28.1119 5.88936 27.5177 6.59117 27.0514 7.1422L27.2041 7.27139L27.3568 7.40057C27.833 6.83778 28.454 6.10347 29.1072 4.66631L28.9252 4.58355ZM28.0451 3.78792L28.1486 3.95904C28.2892 3.87402 28.458 3.77202 28.622 3.69239C28.7959 3.60799 28.9254 3.56883 28.9968 3.57221C29.0239 3.5735 29.0177 3.57972 29.0083 3.56889C29.0019 3.56156 29.0173 3.57218 29.0173 3.639C29.0172 3.77947 28.9501 4.04528 28.7431 4.50079L28.9252 4.58355L29.1072 4.66631C29.3165 4.2059 29.4172 3.87218 29.4173 3.63908C29.4173 3.51911 29.3907 3.39944 29.3107 3.30702C29.2276 3.21108 29.1158 3.1774 29.0157 3.17266C28.8326 3.16399 28.6208 3.24834 28.4473 3.33256C28.264 3.42157 28.0795 3.53334 27.9416 3.6168L28.0451 3.78792ZM28.045 3.78798L28.151 3.95757L28.1511 3.95752L28.0451 3.78792L27.9391 3.61832L27.939 3.61838L28.045 3.78798ZM28.0446 3.7882L28.1483 3.95924L28.1487 3.95901L28.045 3.78798L27.9414 3.61694L27.941 3.61716L28.0446 3.7882ZM28.0445 3.78832L28.1485 3.9591L28.1487 3.95899L28.0446 3.7882L27.9406 3.61742L27.9404 3.61753L28.0445 3.78832ZM27.8966 3.8764L27.9958 4.05005C28.0398 4.02491 28.0924 3.99308 28.148 3.95944L28.0445 3.78832L27.9409 3.61719C27.8839 3.65173 27.8361 3.68062 27.7973 3.70275L27.8966 3.8764ZM24.8751 6.44786L25.0165 6.58928C25.3323 6.27348 25.9704 5.69896 26.5883 5.16933C26.8966 4.90508 27.1981 4.65355 27.4498 4.45256C27.7061 4.24797 27.899 4.10535 27.9958 4.05005L27.8966 3.8764L27.7973 3.70275C27.6691 3.77602 27.4523 3.93876 27.2002 4.13997C26.9437 4.3448 26.6385 4.59953 26.328 4.86563C25.7084 5.39673 25.0607 5.97937 24.7337 6.30644L24.8751 6.44786ZM22.6251 6.83358L22.4665 6.95552C22.6499 7.19392 22.8657 7.34254 23.1037 7.40893C23.3397 7.47475 23.5802 7.45497 23.8076 7.38676C24.256 7.25223 24.686 6.91981 25.0165 6.58928L24.8751 6.44786L24.7337 6.30644C24.4213 6.61878 24.0478 6.89708 23.6926 7.00363C23.5182 7.05595 23.3569 7.06429 23.2112 7.02364C23.0675 6.98355 22.9216 6.8911 22.7836 6.71164L22.6251 6.83358ZM22.9369 4.59263L22.7534 4.5131C22.5384 5.00934 22.3448 5.45369 22.2635 5.84412C22.18 6.2455 22.2086 6.62019 22.4665 6.95552L22.6251 6.83358L22.7836 6.71164C22.6199 6.49877 22.5864 6.25611 22.6552 5.92563C22.7262 5.5842 22.8994 5.18216 23.1205 4.67215L22.9369 4.59263ZM23.6537 2.71924L23.4623 2.66124C23.2448 3.37884 22.9823 3.98498 22.7534 4.5131L22.9369 4.59263L23.1205 4.67215C23.349 4.14473 23.6202 3.5194 23.8451 2.77724L23.6537 2.71924ZM22.6251 2.14066L22.7665 2.28208C22.8577 2.19084 23.0008 2.06041 23.1532 1.94719C23.3124 1.82883 23.4554 1.74954 23.5512 1.73019C23.5958 1.7212 23.6024 1.73088 23.5939 1.72581C23.5818 1.71858 23.5961 1.71685 23.6076 1.77108C23.6339 1.89485 23.6136 2.16169 23.4623 2.66124L23.6537 2.71924L23.8451 2.77724C23.9972 2.27525 24.0483 1.92079 23.9989 1.68802C23.9726 1.56398 23.9122 1.45017 23.7994 1.38262C23.6902 1.31723 23.5699 1.31835 23.472 1.33811C23.283 1.37629 23.0792 1.50382 22.9146 1.62612C22.7431 1.75355 22.5853 1.89761 22.4837 1.99923L22.6251 2.14066ZM22.0002 2.94192L22.1605 3.06145C22.3057 2.86666 22.4338 2.6949 22.539 2.55826C22.6468 2.41841 22.7229 2.32567 22.7665 2.28208L22.6251 2.14066L22.4837 1.99923C22.4188 2.0641 22.3273 2.17764 22.2222 2.31414C22.1145 2.45384 21.9844 2.62849 21.8398 2.82239L22.0002 2.94192ZM19.925 5.41927L20.056 5.57041C20.7217 4.99352 21.5804 3.83971 22.1605 3.06145L22.0002 2.94192L21.8398 2.82239C21.248 3.61633 20.4189 4.7266 19.7941 5.26814L19.925 5.41927ZM17.8548 5.60554L17.7908 5.79505C18.1213 5.90651 18.4855 6.03114 18.8641 6.03629C19.2558 6.04162 19.6524 5.92018 20.056 5.57041L19.925 5.41927L19.7941 5.26814C19.4629 5.5551 19.161 5.64029 18.8695 5.63633C18.5648 5.63218 18.2613 5.53157 17.9187 5.41603L17.8548 5.60554ZM17.225 5.41927L17.1831 5.61484C17.3826 5.65758 17.5808 5.72421 17.7908 5.79505L17.8548 5.60554L17.9187 5.41603C17.7125 5.34649 17.4925 5.27206 17.2669 5.22371L17.225 5.41927ZM16.3091 3.14689L16.1092 3.15462C16.1349 3.81807 16.1546 4.37364 16.2826 4.78215C16.3485 4.9925 16.4465 5.17728 16.5985 5.323C16.7515 5.46958 16.9458 5.56398 17.1831 5.61484L17.225 5.41927L17.2669 5.22371C17.0867 5.1851 16.9643 5.11952 16.8753 5.03424C16.7855 4.9481 16.7165 4.82916 16.6643 4.66257C16.5561 4.3172 16.5355 3.82605 16.5089 3.13917L16.3091 3.14689ZM16.3091 3.14688H16.1091V3.14689H16.3091H16.5091V3.14688H16.3091ZM16.3091 3.14686H16.1091V3.14688H16.3091H16.5091V3.14686H16.3091ZM16.3091 3.14685H16.1091V3.14686H16.3091H16.5091V3.14685H16.3091ZM16.2607 2.14066L16.0611 2.15353C16.0846 2.51719 16.0974 2.85 16.1092 3.15457L16.3091 3.14685L16.5089 3.13913C16.4972 2.83494 16.4841 2.49728 16.4603 2.12778L16.2607 2.14066ZM15.0393 2.14066L15.2375 2.16709C15.2662 1.9518 15.3423 1.73031 15.4415 1.54998C15.5445 1.36265 15.6554 1.25022 15.7351 1.21268C15.7695 1.1965 15.7858 1.19962 15.7926 1.20171C15.8009 1.20426 15.8286 1.21612 15.8664 1.27386C15.9472 1.39737 16.0295 1.66285 16.0611 2.15353L16.2607 2.14066L16.4603 2.12778C16.4277 1.62202 16.3411 1.26874 16.201 1.05475C16.1283 0.943737 16.0325 0.857155 15.9107 0.819527C15.7874 0.781442 15.6671 0.802634 15.5648 0.850749C15.3714 0.941775 15.209 1.14274 15.091 1.35721C14.9692 1.57867 14.8766 1.84736 14.841 2.11422L15.0393 2.14066ZM15.033 2.18801L15.2312 2.21439L15.2375 2.16704L15.0393 2.14066L14.841 2.11427L14.8347 2.16162L15.033 2.18801ZM13.1107 6.12642L13.2395 6.2794C14.877 4.90044 15.1015 3.18985 15.2312 2.21436L15.033 2.18801L14.8347 2.16165C14.7062 3.12816 14.4945 4.69963 12.9818 5.97344L13.1107 6.12642ZM15.8532 15.4522L15.82 15.6495C16.9989 15.8476 18.9433 16.1294 20.7217 16.1793C21.6101 16.2043 22.4664 16.1717 23.1687 16.0382C23.8588 15.907 24.4535 15.669 24.7512 15.2373L24.5866 15.1238L24.4219 15.0102C24.2202 15.3028 23.7675 15.5172 23.094 15.6452C22.4326 15.7709 21.609 15.8041 20.7329 15.7795C18.9824 15.7304 17.0595 15.4522 15.8863 15.255L15.8532 15.4522ZM14.8111 14.1333L14.6113 14.1225C14.5713 14.8643 15.081 15.5252 15.82 15.6495L15.8532 15.4522L15.8863 15.255C15.3544 15.1656 14.9813 14.6892 15.0108 14.1441L14.8111 14.1333ZM15.0312 10.5593L14.8319 10.5431C14.7641 11.3746 14.671 13.0185 14.6113 14.1225L14.8111 14.1333L15.0108 14.1441C15.0705 13.0385 15.1633 11.4006 15.2306 10.5756L15.0312 10.5593ZM15.3185 8.07831L15.1203 8.05148C15.0204 8.78942 14.8927 9.79737 14.8319 10.5431L15.0312 10.5593L15.2306 10.5756C15.2904 9.8414 15.4169 8.84264 15.5167 8.10514L15.3185 8.07831ZM16.4547 7.03793L16.4529 6.83794C15.7545 6.84443 15.2115 7.37777 15.1203 8.05148L15.3185 8.07831L15.5167 8.10514C15.5837 7.6098 15.9752 7.2424 16.4566 7.23792L16.4547 7.03793ZM22.3366 8.82371L22.474 8.67842C21.5987 7.85042 20.4563 7.38887 19.3596 7.13493C18.2614 6.88065 17.194 6.83105 16.4529 6.83794L16.4547 7.03793L16.4566 7.23792C17.1791 7.2312 18.2125 7.27991 19.2694 7.52462C20.3277 7.76968 21.3944 8.20783 22.1991 8.969L22.3366 8.82371ZM24.5866 15.1238L24.7512 15.2373C25.4389 14.2401 25.4674 13.1549 25.0213 12.0439C24.5795 10.9437 23.6713 9.81105 22.474 8.67842L22.3366 8.82371L22.1991 8.969C23.3803 10.0864 24.24 11.1716 24.6501 12.1929C25.0558 13.2034 25.0199 14.1431 24.4219 15.0102L24.5866 15.1238ZM12.6359 8.58583L12.4532 8.66705C12.8233 9.49987 12.9668 10.6264 13.0148 11.5613C13.0386 12.0256 13.0386 12.4365 13.0326 12.7313C13.0297 12.8786 13.0252 12.9967 13.0215 13.0776C13.0196 13.1181 13.018 13.1493 13.0168 13.1702C13.0162 13.1807 13.0157 13.1886 13.0154 13.1938C13.0153 13.1964 13.0151 13.1983 13.0151 13.1995C13.015 13.2002 13.015 13.2006 13.015 13.2009C13.015 13.201 13.015 13.2011 13.015 13.2011C13.0149 13.2012 13.0149 13.2012 13.0149 13.2012C13.0149 13.2012 13.015 13.2012 13.2145 13.2145C13.4141 13.2278 13.4141 13.2277 13.4141 13.2277C13.4141 13.2276 13.4141 13.2276 13.4141 13.2275C13.4141 13.2274 13.4141 13.2272 13.4141 13.227C13.4141 13.2266 13.4142 13.226 13.4142 13.2252C13.4143 13.2236 13.4145 13.2214 13.4147 13.2184C13.415 13.2126 13.4155 13.204 13.4162 13.1929C13.4174 13.1706 13.4192 13.1379 13.4211 13.0959C13.4249 13.0119 13.4295 12.8904 13.4325 12.7394C13.4386 12.4375 13.4386 12.0167 13.4142 11.5408C13.3658 10.5954 13.22 9.40752 12.8187 8.5046L12.6359 8.58583ZM8.20015 12.3145L8.3753 12.411C9.18791 10.9368 10.0923 9.59231 10.8788 8.83431C11.2777 8.44984 11.6142 8.24822 11.8694 8.21901C11.988 8.20543 12.0877 8.22913 12.1769 8.29087C12.27 8.35533 12.3663 8.47153 12.4532 8.66705L12.6359 8.58583L12.8187 8.5046C12.7127 8.26619 12.5766 8.08105 12.4045 7.96194C12.2284 7.84011 12.0299 7.79802 11.8239 7.82161C11.4296 7.86674 11.0111 8.15129 10.6012 8.5463C9.77019 9.34726 8.84244 10.7349 8.025 12.2179L8.20015 12.3145ZM7.82689 16.3382L7.9922 16.2257C7.8471 16.0126 7.64392 15.608 7.6237 14.9877C7.60346 14.3668 7.76614 13.5161 8.3753 12.411L8.20015 12.3145L8.025 12.2179C7.38811 13.3733 7.2009 14.2947 7.22391 15.0008C7.24694 15.7074 7.48016 16.1844 7.66159 16.4508L7.82689 16.3382ZM8.28291 16.6283L8.32764 16.4334C8.17927 16.3994 8.06234 16.3286 7.9922 16.2257L7.82689 16.3382L7.66159 16.4508C7.80308 16.6586 8.02013 16.7732 8.23819 16.8233L8.28291 16.6283ZM11.5431 16.6859L11.5025 16.4901C10.132 16.7736 8.86397 16.5565 8.32764 16.4334L8.28291 16.6283L8.23819 16.8233C8.8004 16.9523 10.1328 17.182 11.5836 16.8818L11.5431 16.6859ZM13.2145 13.2145C13.0149 13.2269 13.0149 13.2269 13.0149 13.2269C13.0149 13.2269 13.0149 13.2268 13.0149 13.2268C13.0149 13.2269 13.0149 13.2269 13.0149 13.227C13.0149 13.2272 13.0149 13.2276 13.015 13.2282C13.015 13.2294 13.0151 13.2313 13.0153 13.2338C13.0156 13.239 13.0159 13.247 13.0164 13.2576C13.0173 13.2789 13.0184 13.3107 13.0192 13.3516C13.0208 13.4336 13.021 13.5518 13.0157 13.6952C13.0049 13.9827 12.9717 14.3675 12.8828 14.7616C12.7013 15.5665 12.3108 16.3229 11.5025 16.4901L11.5431 16.6859L11.5836 16.8818C12.6397 16.6633 13.0848 15.684 13.273 14.8495C13.369 14.424 13.404 14.0132 13.4154 13.7101C13.4211 13.5582 13.4208 13.4323 13.4191 13.344C13.4183 13.2998 13.4171 13.2649 13.416 13.2408C13.4155 13.2287 13.4151 13.2193 13.4147 13.2128C13.4146 13.2095 13.4144 13.207 13.4143 13.2052C13.4143 13.2043 13.4142 13.2036 13.4142 13.203C13.4142 13.2028 13.4142 13.2025 13.4141 13.2024C13.4141 13.2023 13.4141 13.2022 13.4141 13.2021C13.4141 13.2021 13.4141 13.202 13.2145 13.2145ZM11.8801 17.8699L11.8935 17.6704C11.2451 17.6267 10.4326 17.5897 9.72189 17.6115C9.36694 17.6224 9.03199 17.648 8.75326 17.6963C8.4847 17.7429 8.23191 17.816 8.07348 17.9456L8.20013 18.1004L8.32677 18.2552C8.39827 18.1967 8.55892 18.136 8.82158 18.0905C9.07406 18.0467 9.38808 18.0219 9.73413 18.0113C10.4254 17.9902 11.2229 18.0261 11.8667 18.0695L11.8801 17.8699ZM13.0493 19.1818L13.2492 19.1872C13.2701 18.4031 12.6869 17.7239 11.8935 17.6704L11.8801 17.8699L11.8667 18.0695C12.4352 18.1078 12.8648 18.5961 12.8493 19.1765L13.0493 19.1818ZM13.0216 20.7361H13.2216C13.2216 20.3313 13.2347 19.7278 13.2492 19.1872L13.0493 19.1818L12.8493 19.1765C12.8349 19.7171 12.8216 20.3253 12.8216 20.7361H13.0216ZM12.8683 22.5583L13.0667 22.5835C13.138 22.0238 13.2216 21.2584 13.2216 20.7361H13.0216H12.8216C12.8216 21.2299 12.7414 21.9722 12.6699 22.533L12.8683 22.5583ZM12.0292 23.4766L12.0545 23.6749C12.6294 23.6015 12.9989 23.1158 13.0667 22.5835L12.8683 22.5583L12.6699 22.533C12.6195 22.9289 12.357 23.233 12.0038 23.2782L12.0292 23.4766ZM9.10014 22.279L8.9383 22.3965C9.88513 23.7005 11.232 23.78 12.0545 23.6749L12.0292 23.4766L12.0038 23.2782C11.2511 23.3743 10.0861 23.2965 9.26197 22.1615L9.10014 22.279ZM8.20013 18.1004L8.07348 17.9456C7.63332 18.3057 7.52516 18.9722 7.67051 19.7309C7.81819 20.5018 8.23548 21.4286 8.9383 22.3965L9.10014 22.279L9.26197 22.1615C8.58342 21.227 8.19713 20.3538 8.06336 19.6556C7.92726 18.9452 8.05978 18.4736 8.32677 18.2552L8.20013 18.1004ZM15.2074 18.7433L15.3728 18.8558C15.8718 18.1219 16.8621 17.7325 17.9048 17.5335C18.9369 17.3365 19.9645 17.3361 20.4789 17.3361V17.1361V16.9361C19.9648 16.9361 18.903 16.9358 17.8298 17.1406C16.7671 17.3434 15.6359 17.7576 15.042 18.6308L15.2074 18.7433ZM14.6288 23.1791L14.8235 23.1333C14.5656 22.0373 14.4487 21.359 14.5177 20.7619C14.5856 20.1738 14.837 19.6438 15.3728 18.8558L15.2074 18.7433L15.042 18.6308C14.4946 19.4359 14.1995 20.0309 14.1204 20.716C14.0423 21.392 14.1777 22.1352 14.4341 23.2249L14.6288 23.1791ZM22.2146 22.7291L22.0922 22.5709C21.1359 23.3113 19.3902 23.8821 17.8198 24.0327C17.0366 24.1078 16.3168 24.0761 15.7742 23.92C15.2287 23.7631 14.909 23.4967 14.8235 23.1333L14.6288 23.1791L14.4341 23.2249C14.568 23.7936 15.0571 24.1299 15.6636 24.3044C16.2732 24.4798 17.0487 24.5084 17.858 24.4309C19.4726 24.2761 21.3005 23.6898 22.3371 22.8872L22.2146 22.7291ZM24.8504 17.9719L24.6653 18.0476C24.9216 18.6742 24.7899 19.4096 24.3244 20.2009C23.8596 20.991 23.0769 21.8086 22.0922 22.5709L22.2146 22.7291L22.3371 22.8872C23.3452 22.1067 24.1697 21.2528 24.6692 20.4037C25.168 19.5556 25.3577 18.6838 25.0355 17.8962L24.8504 17.9719ZM21.1934 17.1137L21.2011 17.3136C21.9271 17.2854 22.7211 17.2551 23.3832 17.3505C24.0591 17.4478 24.5081 17.6635 24.6653 18.0476L24.8504 17.9719L25.0355 17.8962C24.7898 17.2956 24.1315 17.0541 23.4402 16.9546C22.735 16.853 21.9019 16.886 21.1856 16.9139L21.1934 17.1137ZM20.4789 17.1361L20.4818 17.3361C20.7051 17.3329 20.9491 17.3234 21.2011 17.3136L21.1934 17.1137L21.1856 16.9139C20.9323 16.9237 20.6935 16.933 20.476 16.9362L20.4789 17.1361Z" fill="#303030"/>
</g>
<defs>
<clipPath id="clip0_1173_288">
<rect width="42" height="34.0717" fill="white"/>
</clipPath>
</defs>
</svg>
