<svg width="42" height="26" viewBox="0 0 42 26" fill="none" xmlns="http://www.w3.org/2000/svg">
<path d="M34.0063 1.00012H7.93678C7.2641 1.00012 6.71878 1.54545 6.71878 2.21814V18.5556C6.71878 19.2283 7.2641 19.7736 7.93678 19.7736H34.0063C34.679 19.7736 35.2243 19.2283 35.2243 18.5556V2.21814C35.2243 1.54545 34.679 1.00012 34.0063 1.00012Z" stroke="#303030" stroke-width="0.400004" stroke-miterlimit="10"/>
<path d="M33.4063 1.60889H8.53688C7.86419 1.60889 7.31888 2.15421 7.31888 2.82691V17.0491C7.31888 17.7217 7.86419 18.2671 8.53688 18.2671H33.4063C34.079 18.2671 34.6243 17.7217 34.6243 17.0491V2.82691C34.6243 2.15421 34.079 1.60889 33.4063 1.60889Z" stroke="#303030" stroke-width="0.200002" stroke-miterlimit="10"/>
<path d="M40.9995 24.8951L41 25.333C41.0005 25.4948 40.8697 25.6264 40.7078 25.6269L1.29442 25.7011C1.13254 25.7016 1.00097 25.5708 1.00048 25.4089L1 24.971C0.999661 24.8789 1.04296 24.7927 1.11601 24.737L6.27843 20.8322C6.28785 20.825 6.29714 20.8188 6.30643 20.8127C6.59472 20.6345 6.92686 20.5395 7.26544 20.5384L34.7209 20.4865C35.0562 20.486 35.3854 20.5788 35.6718 20.7536C35.6816 20.7592 35.6903 20.7656 35.7 20.7722L40.8829 24.6605C40.9569 24.7159 41.0004 24.8021 40.9997 24.894L40.9995 24.8951Z" stroke="#303030" stroke-width="0.400004" stroke-miterlimit="10"/>
<path d="M2.11963 24.871L39.8773 24.871" stroke="#303030" stroke-width="0.200002"/>
<path d="M21.8843 9.08116C23.1244 7.49945 26.0858 7.24054 29.4502 7.93453C33.3365 8.73617 32.6257 13.3637 29.9557 14.1529C28.7251 14.5166 25.264 14.1993 24.9976 14.3602C24.817 15.05 23.7746 15.8882 22.5832 16.1695C22.8149 15.8385 23.2285 15.1271 23.3609 14.3602C20.6924 13.9091 20.414 10.9564 21.8843 9.08116Z" stroke="#303030" stroke-width="0.2"/>
<path d="M19.8568 5.2158C18.6166 3.63409 15.6553 3.37518 12.2909 4.06917C8.40455 4.87081 9.11542 9.49832 11.7854 10.2875C13.016 10.6512 16.4771 10.334 16.7435 10.4948C16.9241 11.1846 17.9665 12.0228 19.1578 12.3041C18.9262 11.9731 18.5125 11.2617 18.3801 10.4948C21.0487 10.0437 21.3271 7.09104 19.8568 5.2158Z" stroke="#303030" stroke-width="0.2"/>
</svg>
