<svg width="36" height="42" viewBox="0 0 36 42" fill="none" xmlns="http://www.w3.org/2000/svg">
<g clip-path="url(#clip0_5_1079)">
<path d="M34.4766 4.68018C25.1271 5.28018 19.7423 2.09939 18.3223 1.1194C18.0927 0.9602 17.7903 0.9602 17.5607 1.1194C16.1407 2.09939 10.756 5.27858 1.4064 4.68018C1.1872 4.66578 1 4.83858 1 5.05778V24.5569C1 37.9808 16.7887 40.8144 17.8815 40.9952C17.9207 41.0016 17.9607 41.0016 17.9999 40.9952C19.0927 40.816 34.8814 37.9824 34.8814 24.5569V5.05778C34.883 4.83778 34.6958 4.66578 34.4766 4.68018Z" fill="#76C69D" stroke="#303030" stroke-width="0.4"/>
<path d="M23.843 21.4514H21.6234V15.8358C21.6234 13.8743 20.0273 12.2799 18.0674 12.2799C16.1058 12.2799 14.5106 13.876 14.5106 15.8358V21.4514H12.291V15.8358C12.291 12.6497 14.883 10.0603 18.0674 10.0603C21.2519 10.0603 23.843 12.6514 23.843 15.8358V21.4514Z" fill="#E5CEAE" stroke="#303030" stroke-width="0.4"/>
<path d="M26.2995 29.3111H9.98676C9.33001 29.3111 8.79578 28.7787 8.79578 28.121V19.9361C8.79578 19.2794 9.32817 18.7451 9.98676 18.7451H26.2995C26.9562 18.7451 27.4905 19.2775 27.4905 19.9361V28.121C27.4905 28.7768 26.9562 29.3111 26.2995 29.3111Z" fill="#BED5E8" stroke="#303030" stroke-width="0.4"/>
<path d="M18.7982 23.9334C19.6101 23.6294 20.1529 22.7741 19.9684 21.8211C19.8296 21.0924 19.2433 20.5061 18.5147 20.3626C17.3228 20.1297 16.2781 21.0381 16.2781 22.1902C16.2781 22.9949 16.7884 23.6777 17.5001 23.9383C17.5399 23.9527 17.5568 23.9986 17.5375 24.0336L16.3927 26.1278C16.2093 26.4632 16.453 26.8722 16.8342 26.8722H19.4327C19.8127 26.8722 20.0552 26.4668 19.8779 26.1327L18.7596 24.0263C18.7427 23.9938 18.7596 23.9479 18.7982 23.9334Z" fill="#A9C0D3" stroke="#303030" stroke-width="0.4"/>
</g>
<defs>
<clipPath id="clip0_5_1079">
<rect width="35.8814" height="42" fill="white"/>
</clipPath>
</defs>
</svg>
