<svg width="40" height="40" viewBox="0 0 40 40" fill="none" xmlns="http://www.w3.org/2000/svg">
<rect x="15.6266" y="15.6267" width="24.1733" height="24.1733" rx="0.8" fill="#BED5E8" stroke="#303030" stroke-width="0.4"/>
<circle cx="15.4266" cy="15.4266" r="15.2266" fill="#A9DBC2" stroke="#303030" stroke-width="0.4"/>
<mask id="path-3-inside-1_3451_62" fill="white">
<path d="M30.8534 15.4262C30.8534 23.946 23.9465 30.8529 15.4267 30.8529V16.4262C15.4269 15.8741 15.8746 15.4262 16.4267 15.4262H30.8534Z"/>
</mask>
<path d="M30.8534 15.4262C30.8534 23.946 23.9465 30.8529 15.4267 30.8529V16.4262C15.4269 15.8741 15.8746 15.4262 16.4267 15.4262H30.8534Z" fill="#D6B689"/>
<path d="M30.8534 15.4262H31.2534V15.0262H30.8534V15.4262ZM15.4267 30.8529H15.0267V31.2529L15.4267 31.2529L15.4267 30.8529ZM15.4267 16.4262L15.0267 16.426V16.4262H15.4267ZM30.8534 15.4262H30.4534C30.4534 23.7251 23.7256 30.4529 15.4267 30.4529L15.4267 30.8529L15.4267 31.2529C24.1674 31.2529 31.2534 24.167 31.2534 15.4262H30.8534ZM15.4267 30.8529H15.8267V16.4262H15.4267H15.0267V30.8529H15.4267ZM15.4267 16.4262L15.8267 16.4264C15.8268 16.0949 16.0956 15.8262 16.4267 15.8262V15.4262V15.0262C15.6535 15.0262 15.027 15.6534 15.0267 16.426L15.4267 16.4262ZM16.4267 15.4262V15.8262H30.8534V15.4262V15.0262H16.4267V15.4262Z" fill="#303030" mask="url(#path-3-inside-1_3451_62)"/>
</svg>
