<svg width="42" height="42" viewBox="0 0 42 42" fill="none" xmlns="http://www.w3.org/2000/svg">
<rect x="16.6266" y="16.6267" width="24.1733" height="24.1733" rx="0.8" fill="#BED5E8" stroke="#303030" stroke-width="0.4"/>
<circle cx="16.4266" cy="16.4266" r="15.2266" fill="#A9DBC2" stroke="#303030" stroke-width="0.4"/>
<mask id="path-3-inside-1_3451_62" fill="white">
<path d="M31.8534 16.4262C31.8534 24.946 24.9465 31.8529 16.4267 31.8529V17.4262C16.4269 16.8741 16.8746 16.4262 17.4267 16.4262H31.8534Z"/>
</mask>
<path d="M31.8534 16.4262C31.8534 24.946 24.9465 31.8529 16.4267 31.8529V17.4262C16.4269 16.8741 16.8746 16.4262 17.4267 16.4262H31.8534Z" fill="#D6B689"/>
<path d="M31.8534 16.4262H32.2534V16.0262H31.8534V16.4262ZM16.4267 31.8529H16.0267V32.2529L16.4267 32.2529L16.4267 31.8529ZM16.4267 17.4262L16.0267 17.426V17.4262H16.4267ZM31.8534 16.4262H31.4534C31.4534 24.7251 24.7256 31.4529 16.4267 31.4529L16.4267 31.8529L16.4267 32.2529C25.1674 32.2529 32.2534 25.167 32.2534 16.4262H31.8534ZM16.4267 31.8529H16.8267V17.4262H16.4267H16.0267V31.8529H16.4267ZM16.4267 17.4262L16.8267 17.4264C16.8268 17.0949 17.0956 16.8262 17.4267 16.8262V16.4262V16.0262C16.6535 16.0262 16.027 16.6534 16.0267 17.426L16.4267 17.4262ZM17.4267 16.4262V16.8262H31.8534V16.4262V16.0262H17.4267V16.4262Z" fill="#303030" mask="url(#path-3-inside-1_3451_62)"/>
</svg>
