<svg width="42" height="23" viewBox="0 0 42 23" fill="none" xmlns="http://www.w3.org/2000/svg">
<path d="M31.7082 4.34912H10.2918V21.7218H31.7082V4.34912Z" fill="#F2E8DA" stroke="#303030" stroke-width="0.4" stroke-miterlimit="10"/>
<path d="M10.2911 8.4353H1.88321V21.7218H10.2911V8.4353Z" fill="#D6B689" stroke="#303030" stroke-width="0.4" stroke-miterlimit="10"/>
<path d="M40.1161 8.43036H31.7082V21.7169H40.1161V8.43036Z" fill="#E5CEAE" stroke="#303030" stroke-width="0.4" stroke-miterlimit="10"/>
<path d="M32.1785 4.34912H9.82149L11.7894 1H30.2099L32.1785 4.34912Z" fill="#303030" stroke="#303030" stroke-width="0.4" stroke-miterlimit="10"/>
<path d="M41 8.43035H31.7082V5.76794H39.6876L41 8.43035Z" fill="#303030" stroke="#303030" stroke-width="0.4" stroke-miterlimit="10"/>
<path d="M10.2918 8.43035H1L2.3117 5.76794H10.2918V8.43035Z" fill="#303030" stroke="#303030" stroke-width="0.4" stroke-miterlimit="10"/>
<path d="M20.9997 9.20999C21.813 9.20999 22.4724 8.55063 22.4724 7.73726C22.4724 6.92389 21.813 6.26453 20.9997 6.26453C20.1863 6.26453 19.5269 6.92389 19.5269 7.73726C19.5269 8.55063 20.1863 9.20999 20.9997 9.20999Z" fill="#BED5E8" stroke="#303030" stroke-width="0.4" stroke-miterlimit="10"/>
<path d="M24.2736 15.169H17.7257V21.7168H24.2736V15.169Z" fill="#76C69D" stroke="#303030" stroke-width="0.4" stroke-miterlimit="10"/>
<path d="M29.0401 16.3232H26.9416V19.5794H29.0401V16.3232Z" fill="#D6B689" stroke="#303030" stroke-width="0.4" stroke-miterlimit="10"/>
<path d="M15.0583 16.3232H12.9599V19.5794H15.0583V16.3232Z" fill="#E5CEAE" stroke="#303030" stroke-width="0.4" stroke-miterlimit="10"/>
<path d="M15.0583 8.60553H12.9599V11.8617H15.0583V8.60553Z" fill="#D6B689" stroke="#303030" stroke-width="0.4" stroke-miterlimit="10"/>
<path d="M29.0401 8.60553H26.9416V11.8617H29.0401V8.60553Z" fill="#E5CEAE" stroke="#303030" stroke-width="0.4" stroke-miterlimit="10"/>
<path d="M7.13709 13.4856H5.03866V16.7418H7.13709V13.4856Z" fill="#F2E8DA" stroke="#303030" stroke-width="0.4" stroke-miterlimit="10"/>
<path d="M36.9613 13.3955H34.8629V16.6517H36.9613V13.3955Z" fill="#F2E8DA" stroke="#303030" stroke-width="0.4" stroke-miterlimit="10"/>
<path d="M20.9996 15.169V21.7176" stroke="#303030" stroke-width="0.2" stroke-miterlimit="10"/>
<path d="M20.2959 7.51589L20.9996 7.73722V6.80151" stroke="#303030" stroke-width="0.2" stroke-miterlimit="10"/>
</svg>
