<svg width="38" height="42" viewBox="0 0 38 42" fill="none" xmlns="http://www.w3.org/2000/svg">
<path d="M31.0358 16.4049C30.511 14.6152 30.1189 13.306 30.0339 13.1036C29.7363 12.4124 28.5203 10.314 28.5203 10.314" stroke="#303030" stroke-width="0.4"/>
<path d="M12.454 40.7776C12.4761 40.7808 12.5713 40.8005 12.593 40.8037C14.1481 41.0345 14.7622 41.1908 17.5994 40.5028C20.4738 39.8084 23.6786 39.1964 24.9795 38.8748C26.2803 38.5532 29.1995 38.1988 31.0403 37.9044C32.8803 37.6132 33.8963 36.3972 34.8059 34.8364C35.2907 33.9996 35.3547 32.7748 35.2483 31.622C35.2211 31.397 35.1893 31.1727 35.1529 30.9492" stroke="#303030" stroke-width="0.4"/>
<path d="M1.00018 9.08032C1.00338 9.31392 1.02418 9.57472 1.04898 9.81712C1.18148 11.0886 3.5893 20.5842 5.40974 28.04" stroke="#303030" stroke-width="0.4"/>
<path d="M3.63217 8.77393L8.77077 27.4132" stroke="#303030" stroke-width="0.4" stroke-linecap="round" stroke-linejoin="round"/>
<path d="M18.3034 12.9915C20.213 12.5731 28.5083 10.3267 28.5083 10.3267C28.7907 9.91071 28.9819 9.44111 29.0691 8.94991C29.1571 8.4555 29.1419 7.9491 29.0243 7.4643C28.6603 5.6907 27.4379 4.53229 24.9003 3.09229C22.3627 1.65228 20.6259 0.59708 17.557 1.14908C14.489 1.70028 11.8418 2.00348 9.03462 2.77069C6.22421 3.54109 2.7978 4.40509 2.06419 5.30269C1.54019 5.9483 0.988193 7.3731 1.00019 9.08031L1.69779 8.98351C1.69779 8.98351 1.8186 6.8459 3.3594 5.9995C6.29381 4.38349 6.38821 8.93151 11.4146 12.0819C13.689 13.5099 16.3898 13.4067 18.3034 12.9915Z" stroke="#303030" stroke-width="0.4"/>
<path d="M16.3474 19.4738C14.4226 20.1706 14.8074 23.5546 15.189 25.0611C15.565 26.5683 16.557 30.1339 17.6722 31.6827C18.785 33.2355 20.353 34.0747 23.7578 33.5475C27.1594 33.0227 34.4115 31.3163 34.9635 31.0795C35.5123 30.8427 36.9371 28.5723 36.5123 26.7259C36.0883 24.8794 34.6483 22.029 34.4179 21.405C34.1875 20.7802 34.3267 18.5642 33.4387 17.7058C32.5467 16.8386 31.8347 16.393 30.9555 16.405C30.0819 16.4234 19.0402 18.4938 16.3474 19.4738Z" stroke="#303030" stroke-width="0.4"/>
<path d="M15.7202 24.47L34.3603 21.1748" stroke="#303030" stroke-width="0.4" stroke-linecap="round" stroke-linejoin="round"/>
<path d="M4.88098 28.1996C4.88418 28.1932 4.88978 28.19 4.89938 28.1876C5.22018 28.1236 12.5394 26.6468 12.7338 26.6588C12.9274 26.6716 15.8986 36.358 15.717 38.1684C15.5354 39.978 12.5338 41.6732 9.17379 40.4572C5.81458 39.2324 5.97538 38.7748 5.54818 35.9156C5.11778 33.0596 4.42018 30.182 4.39618 29.5124C4.42018 29.0364 4.58658 28.578 4.88098 28.1996Z" stroke="#303030" stroke-width="0.4"/>
<path d="M1.69778 8.98346L7.34667 8.2373" stroke="#303030" stroke-width="0.4" stroke-linecap="round" stroke-linejoin="round"/>
</svg>
