<svg width="42" height="34" viewBox="0 0 42 34" fill="none" xmlns="http://www.w3.org/2000/svg">
<path d="M34.5828 16.6342C36.3861 16.3058 37.5216 18.2901 37.5216 20.1546C37.5216 23.2586 33.5613 25.4119 32.5294 28.6625C31.1701 32.9442 25.498 32.6464 25.498 28.1866C25.498 23.7268 21.8405 21.1717 22.1713 16.5919C24.7746 17.5902 29.6731 17.5283 34.5828 16.6342Z" stroke="#303030" stroke-width="0.4"/>
<path d="M7.41712 16.6342C5.61386 16.3058 4.47835 18.2901 4.47835 20.1546C4.47835 23.2586 8.43865 25.4119 9.47058 28.6625C10.8298 32.9442 16.5019 32.6464 16.5019 28.1866C16.5019 23.7268 20.1594 21.1717 19.8286 16.5919C17.2253 17.5902 12.3269 17.5283 7.41712 16.6342Z" stroke="#303030" stroke-width="0.4"/>
<path d="M28.9461 6.35226C25.8033 10.3043 22.6939 10.2615 22.2087 16.0423C27.7719 17.6158 35.8965 16.234 37.6411 15.0447C39.6388 13.6828 37.0394 11.3184 37.9017 8.2409L37.9199 8.17595C38.8948 4.69723 39.6934 1.84748 37.2804 1.53962C33.7911 1.09442 31.3834 3.2875 28.9461 6.35226Z" stroke="#303030" stroke-width="0.4"/>
<path d="M13.0538 6.35226C16.1967 10.3043 19.3061 10.2615 19.7912 16.0423C14.228 17.6158 6.10339 16.234 4.35886 15.0447C2.36113 13.6828 4.96059 11.3184 4.09824 8.2409L4.08004 8.17596C3.10516 4.69723 2.30656 1.84749 4.71953 1.53962C8.20882 1.09442 10.6166 3.2875 13.0538 6.35226Z" stroke="#303030" stroke-width="0.4"/>
<mask id="path-5-inside-1_1443_408" fill="white">
<path d="M20.9996 9.63751C21.4502 9.63751 21.816 10.0566 21.816 10.5731C21.8159 10.8502 21.7097 11.0982 21.5425 11.2693C22.3335 11.6365 23.0064 12.7304 22.7847 13.7557C22.6166 14.5332 22.4285 15.1543 22.1773 15.5965C22.4197 16.1241 22.4498 16.8973 22.4498 17.7606C22.4498 19.3502 21.8004 20.6385 20.9996 20.6385C20.1989 20.638 19.5504 19.3499 19.5504 17.7606C19.5504 16.9092 19.5788 16.145 19.8121 15.618C19.5694 15.1884 19.3858 14.5715 19.2154 13.7557C19.0008 12.7282 19.668 11.6354 20.4566 11.2684C20.29 11.0972 20.1842 10.8497 20.1841 10.5731C20.1841 10.0568 20.5491 9.63781 20.9996 9.63751Z"/>
</mask>
<path d="M20.9996 9.63751V9.23751L20.9993 9.23751L20.9996 9.63751ZM21.816 10.5731L22.216 10.5732V10.5731H21.816ZM21.5425 11.2693L21.2564 10.9899L20.8615 11.3942L21.3741 11.6322L21.5425 11.2693ZM22.7847 13.7557L23.1757 13.8402L23.1757 13.8402L22.7847 13.7557ZM22.1773 15.5965L21.8295 15.3989L21.7282 15.5772L21.8138 15.7635L22.1773 15.5965ZM22.4498 17.7606L22.8498 17.7606V17.7606H22.4498ZM20.9996 20.6385L20.9993 21.0385H20.9996V20.6385ZM19.5504 17.7606H19.1504V17.7606L19.5504 17.7606ZM19.8121 15.618L20.1778 15.7799L20.2592 15.5962L20.1603 15.4212L19.8121 15.618ZM19.2154 13.7557L18.8238 13.8374L18.8238 13.8375L19.2154 13.7557ZM20.4566 11.2684L20.6254 11.631L21.1364 11.3932L20.7432 10.9894L20.4566 11.2684ZM20.1841 10.5731H19.7841L19.7841 10.5732L20.1841 10.5731ZM20.9996 9.63751V10.0375C21.1799 10.0375 21.416 10.2246 21.416 10.5731H21.816H22.216C22.216 9.88856 21.7206 9.23751 20.9996 9.23751V9.63751ZM21.816 10.5731L21.416 10.5729C21.4159 10.7484 21.3487 10.8953 21.2564 10.9899L21.5425 11.2693L21.8287 11.5488C22.0707 11.301 22.2159 10.952 22.216 10.5732L21.816 10.5731ZM21.5425 11.2693L21.3741 11.6322C21.678 11.7732 21.9849 12.0698 22.1907 12.4544C22.395 12.8363 22.4806 13.2695 22.3938 13.6711L22.7847 13.7557L23.1757 13.8402C23.3105 13.2166 23.1705 12.5902 22.8961 12.0771C22.623 11.5666 22.198 11.1327 21.711 10.9065L21.5425 11.2693ZM22.7847 13.7557L22.3938 13.6711C22.2272 14.4412 22.0491 15.0123 21.8295 15.3989L22.1773 15.5965L22.5251 15.7941C22.8079 15.2963 23.006 14.6251 23.1757 13.8402L22.7847 13.7557ZM22.1773 15.5965L21.8138 15.7635C22.0132 16.1973 22.0498 16.8777 22.0498 17.7606H22.4498H22.8498C22.8498 16.9169 22.8263 16.0509 22.5408 15.4295L22.1773 15.5965ZM22.4498 17.7606L22.0498 17.7606C22.0498 18.5063 21.8966 19.1616 21.6678 19.6156C21.4274 20.0927 21.1685 20.2385 20.9996 20.2385V20.6385V21.0385C21.6315 21.0385 22.0977 20.5401 22.3822 19.9757C22.6783 19.3882 22.8498 18.6045 22.8498 17.7606L22.4498 17.7606ZM20.9996 20.6385L20.9998 20.2385C20.8309 20.2384 20.5722 20.0925 20.332 19.6154C20.1034 19.1614 19.9504 18.5062 19.9504 17.7606L19.5504 17.7606L19.1504 17.7606C19.1504 18.6042 19.3217 19.3878 19.6175 19.9752C19.9017 20.5397 20.3676 21.0381 20.9993 21.0385L20.9996 20.6385ZM19.5504 17.7606H19.9504C19.9504 16.8904 19.9849 16.2157 20.1778 15.7799L19.8121 15.618L19.4463 15.4561C19.1726 16.0743 19.1504 16.9279 19.1504 17.7606H19.5504ZM19.8121 15.618L20.1603 15.4212C19.95 15.0488 19.7761 14.4837 19.6069 13.6739L19.2154 13.7557L18.8238 13.8375C18.9955 14.6594 19.1888 15.328 19.4638 15.8147L19.8121 15.618ZM19.2154 13.7557L19.6069 13.6739C19.5225 13.2694 19.6091 12.8347 19.8128 12.4525C20.018 12.0676 20.3231 11.7717 20.6254 11.631L20.4566 11.2684L20.2878 10.9057C19.8016 11.132 19.3788 11.5661 19.1068 12.0762C18.8335 12.589 18.6937 13.2144 18.8238 13.8374L19.2154 13.7557ZM20.4566 11.2684L20.7432 10.9894C20.6511 10.8948 20.5842 10.748 20.5841 10.5729L20.1841 10.5731L19.7841 10.5732C19.7843 10.9513 19.9289 11.2997 20.17 11.5474L20.4566 11.2684ZM20.1841 10.5731H20.5841C20.5841 10.2244 20.8199 10.0376 20.9998 10.0375L20.9996 9.63751L20.9993 9.23751C20.2784 9.23799 19.7841 9.88911 19.7841 10.5731H20.1841Z" fill="#303030" mask="url(#path-5-inside-1_1443_408)"/>
<path d="M7.82491 12.8787C8.53511 12.9831 9.15679 13.1689 9.58613 13.3803C9.8018 13.4865 9.95846 13.5947 10.0545 13.6929C10.153 13.7938 10.1617 13.8566 10.1577 13.8838C10.1535 13.9112 10.1269 13.9689 10.0039 14.0369C9.88374 14.1033 9.7026 14.1609 9.46561 14.2006C8.9936 14.2796 8.34475 14.2787 7.63454 14.1744C6.92434 14.07 6.3027 13.8842 5.87331 13.6728C5.65785 13.5667 5.5009 13.4593 5.40485 13.3611C5.3066 13.2606 5.29775 13.1977 5.30162 13.1703C5.30562 13.143 5.33179 13.0855 5.45539 13.0172C5.57561 12.9507 5.75668 12.8922 5.99384 12.8525C6.46588 12.7736 7.11474 12.7744 7.82491 12.8787Z" stroke="#303030" stroke-width="0.4"/>
<path d="M34.1771 12.8787C33.4669 12.9831 32.8452 13.1689 32.4159 13.3803C32.2002 13.4865 32.0436 13.5947 31.9476 13.6929C31.8491 13.7938 31.8403 13.8566 31.8443 13.8838C31.8485 13.9112 31.8751 13.9689 31.9981 14.0369C32.1183 14.1033 32.2994 14.1609 32.5364 14.2006C33.0084 14.2796 33.6573 14.2787 34.3675 14.1744C35.0777 14.07 35.6993 13.8842 36.1287 13.6728C36.3442 13.5667 36.5011 13.4593 36.5972 13.3611C36.6954 13.2606 36.7043 13.1977 36.7004 13.1703C36.6964 13.143 36.6702 13.0855 36.5466 13.0172C36.4264 12.9507 36.2453 12.8922 36.0082 12.8525C35.5361 12.7736 34.8873 12.7744 34.1771 12.8787Z" stroke="#303030" stroke-width="0.4"/>
<path d="M10.5667 10.0142C11.9417 10.3318 13.1611 10.7105 14.0193 11.0651C14.4497 11.243 14.7806 11.4114 14.994 11.5579C15.1015 11.6317 15.1694 11.6936 15.2055 11.74C15.2112 11.7474 15.2145 11.7546 15.2179 11.7599C15.2124 11.7633 15.2065 11.769 15.1978 11.7733C15.145 11.7992 15.0569 11.825 14.9278 11.8443C14.6719 11.8824 14.3006 11.8885 13.8358 11.8597C12.909 11.8021 11.647 11.6077 10.272 11.2902C8.89717 10.9727 7.67836 10.594 6.82027 10.2394C6.38968 10.0615 6.05799 9.89305 5.84465 9.74652C5.73726 9.67274 5.67013 9.61093 5.63409 9.56459C5.62811 9.55689 5.62537 9.54918 5.62187 9.54373C5.62731 9.54045 5.63335 9.53543 5.64179 9.53129C5.6945 9.50544 5.78189 9.47933 5.91079 9.46011C6.16678 9.42198 6.53875 9.41603 7.00377 9.44493C7.93044 9.50254 9.19186 9.69671 10.5667 10.0142Z" stroke="#303030" stroke-width="0.4"/>
<path d="M31.4354 10.0142C30.0603 10.3318 28.8409 10.7105 27.9827 11.0651C27.5523 11.243 27.2214 11.4114 27.008 11.5579C26.9005 11.6317 26.8326 11.6936 26.7965 11.74C26.7908 11.7474 26.7875 11.7546 26.7841 11.7599C26.7896 11.7633 26.7955 11.769 26.8042 11.7733C26.857 11.7992 26.9451 11.825 27.0742 11.8443C27.3302 11.8824 27.7014 11.8885 28.1662 11.8597C29.093 11.8021 30.355 11.6077 31.73 11.2902C33.1048 10.9727 34.3236 10.594 35.1817 10.2394C35.6123 10.0615 35.944 9.89305 36.1574 9.74652C36.2647 9.67274 36.3319 9.61093 36.3679 9.56459C36.3739 9.55689 36.3766 9.54918 36.3801 9.54373C36.3747 9.54045 36.3687 9.53543 36.3602 9.53129C36.3075 9.50544 36.2201 9.47933 36.0912 9.46011C35.8352 9.42198 35.4633 9.41603 34.9982 9.44493C34.0716 9.50254 32.8102 9.69671 31.4354 10.0142Z" stroke="#303030" stroke-width="0.4"/>
<path d="M9.37048 19.4989C10.3315 19.4989 11.1925 19.6468 11.806 19.8788C12.1135 19.995 12.3487 20.1283 12.5033 20.2665C12.6577 20.4046 12.7151 20.5307 12.7152 20.6385C12.7152 20.7465 12.658 20.8733 12.5033 21.0116C12.3487 21.1498 12.1135 21.283 11.806 21.3993C11.1925 21.6313 10.3315 21.7792 9.37048 21.7792C8.40955 21.7792 7.54851 21.6312 6.93494 21.3993C6.62752 21.2831 6.39226 21.1497 6.23767 21.0116C6.08295 20.8733 6.02576 20.7465 6.02576 20.6385C6.02591 20.5307 6.08316 20.4046 6.23767 20.2665C6.39226 20.1283 6.62749 19.995 6.93494 19.8788C7.54852 19.6468 8.40953 19.4989 9.37048 19.4989Z" stroke="#303030" stroke-width="0.4"/>
<path d="M32.6315 19.4989C31.6705 19.4989 30.8095 19.6468 30.196 19.8788C29.8885 19.995 29.6533 20.1283 29.4987 20.2665C29.3443 20.4046 29.287 20.5307 29.2868 20.6385C29.2868 20.7465 29.344 20.8733 29.4987 21.0116C29.6533 21.1498 29.8885 21.283 30.196 21.3993C30.8095 21.6313 31.6705 21.7792 32.6315 21.7792C33.5925 21.7792 34.4535 21.6312 35.0671 21.3993C35.3745 21.2831 35.6098 21.1497 35.7643 21.0116C35.9191 20.8733 35.9763 20.7465 35.9763 20.6385C35.9761 20.5307 35.9188 20.4046 35.7643 20.2665C35.6098 20.1283 35.3745 19.995 35.0671 19.8788C34.4535 19.6468 33.5925 19.4989 32.6315 19.4989Z" stroke="#303030" stroke-width="0.4"/>
<path d="M12.9933 26.2252C13.1121 26.2254 13.2739 26.3281 13.4182 26.6187C13.5564 26.8973 13.6476 27.2962 13.6476 27.7476C13.6476 28.199 13.5564 28.598 13.4182 28.8765C13.2739 29.167 13.1121 29.2699 12.9933 29.2701C12.8746 29.2701 12.712 29.1674 12.5676 28.8765C12.4293 28.598 12.3381 28.199 12.3381 27.7476C12.3381 27.2962 12.4293 26.8973 12.5676 26.6187C12.712 26.3277 12.8745 26.2252 12.9933 26.2252Z" stroke="#303030" stroke-width="0.4"/>
<path d="M29.0087 26.2252C28.8899 26.2254 28.7282 26.3281 28.5839 26.6187C28.4456 26.8973 28.3544 27.2962 28.3544 27.7476C28.3544 28.199 28.4456 28.598 28.5839 28.8765C28.7281 29.167 28.8899 29.2699 29.0087 29.2701C29.1275 29.2701 29.29 29.1674 29.4344 28.8765C29.5727 28.598 29.6639 28.199 29.6639 27.7476C29.6639 27.2962 29.5727 26.8973 29.4344 26.6187C29.29 26.3277 29.1275 26.2252 29.0087 26.2252Z" stroke="#303030" stroke-width="0.4"/>
<path d="M10.6057 24.92C10.7571 24.9202 10.9157 25.0089 11.0451 25.1964C11.174 25.3834 11.2599 25.6531 11.2599 25.9601C11.2599 26.2669 11.174 26.5359 11.0451 26.7228C10.9157 26.9104 10.7571 27 10.6057 27.0001C10.4541 27.0001 10.2947 26.9106 10.1652 26.7228C10.0364 26.5359 9.95043 26.2669 9.95038 25.9601C9.95038 25.6531 10.0363 25.3834 10.1652 25.1964C10.2947 25.0087 10.4541 24.92 10.6057 24.92Z" stroke="#303030" stroke-width="0.4"/>
<path d="M31.3963 24.92C31.2449 24.9202 31.0862 25.0089 30.9568 25.1964C30.8279 25.3834 30.742 25.6531 30.742 25.9601C30.7421 26.2669 30.828 26.5359 30.9568 26.7228C31.0863 26.9104 31.2448 27 31.3963 27.0001C31.5479 27.0001 31.7072 26.9106 31.8367 26.7228C31.9656 26.5359 32.0515 26.2669 32.0516 25.9601C32.0516 25.6531 31.9657 25.3834 31.8367 25.1964C31.7072 25.0087 31.5479 24.92 31.3963 24.92Z" stroke="#303030" stroke-width="0.4"/>
<path d="M8.95674 5.31113C10.0102 6.05027 10.8969 6.80615 11.4779 7.42727C11.7695 7.73893 11.9767 8.00925 12.0917 8.22054C12.1493 8.32647 12.1778 8.40772 12.1872 8.4653C12.1917 8.49317 12.1919 8.51163 12.1901 8.52226C12.1885 8.53182 12.1859 8.53511 12.1855 8.5357C12.1849 8.53649 12.1826 8.54006 12.1744 8.54464C12.165 8.54989 12.1476 8.55599 12.1198 8.56122C12.0625 8.57201 11.9764 8.57285 11.8572 8.5547C11.6194 8.51845 11.2947 8.4156 10.9025 8.24747C10.1207 7.91236 9.10824 7.33572 8.05481 6.59659C7.00149 5.85751 6.11544 5.10208 5.5344 4.48101C5.24278 4.16929 5.03572 3.89907 4.92069 3.68774C4.86298 3.5817 4.83375 3.50005 4.82439 3.44242C4.81994 3.41478 4.8205 3.39663 4.82222 3.38602C4.82373 3.37669 4.82632 3.37338 4.82687 3.37258C4.82729 3.37199 4.82937 3.36841 4.83792 3.36363C4.84728 3.35842 4.86422 3.35172 4.8917 3.34649C4.94907 3.33569 5.03579 3.33539 5.15515 3.35358C5.39301 3.38984 5.71751 3.49262 6.10988 3.66081C6.89158 3.99589 7.9034 4.57209 8.95674 5.31113Z" stroke="#303030" stroke-width="0.4"/>
<path d="M33.0453 5.31113C31.9918 6.05027 31.1052 6.80615 30.5241 7.42727C30.2325 7.73893 30.0253 8.00925 29.9104 8.22054C29.8527 8.32647 29.8242 8.40772 29.8149 8.4653C29.8103 8.49317 29.8102 8.51163 29.8119 8.52226C29.8135 8.53182 29.8161 8.53511 29.8165 8.5357C29.8171 8.53649 29.8194 8.54006 29.8276 8.54464C29.837 8.54989 29.8544 8.55599 29.8822 8.56122C29.9395 8.57201 30.0256 8.57285 30.1448 8.5547C30.3826 8.51845 30.7073 8.4156 31.0996 8.24747C31.8813 7.91236 32.8938 7.33572 33.9472 6.59659C35.0005 5.85751 35.8866 5.10208 36.4676 4.48101C36.7592 4.16929 36.9663 3.89907 37.0813 3.68774C37.139 3.5817 37.1683 3.50005 37.1776 3.44242C37.1821 3.41478 37.1815 3.39663 37.1798 3.38602C37.1783 3.37669 37.1757 3.37338 37.1751 3.37258C37.1747 3.37199 37.1726 3.36841 37.1641 3.36363C37.1547 3.35842 37.1378 3.35172 37.1103 3.34649C37.0529 3.33569 36.9662 3.33539 36.8469 3.35358C36.609 3.38984 36.2845 3.49262 35.8921 3.66081C35.1104 3.99589 34.0986 4.57209 33.0453 5.31113Z" stroke="#303030" stroke-width="0.4"/>
</svg>
