<svg width="34" height="42" viewBox="0 0 34 42" fill="none" xmlns="http://www.w3.org/2000/svg">
<path d="M2.04545 18.4977L5.92714 16.9638C5.93489 16.9605 5.94264 16.9605 5.94375 16.9627L13.2818 35.2936L9.20635 36.9038L2.03327 18.5076C2.03327 18.5076 2.0377 18.501 2.04545 18.4977Z" stroke="#303030" stroke-width="0.4" stroke-miterlimit="10"/>
<path d="M7.93332 37.4065L14.553 34.7909C15.0515 34.5939 15.6173 34.8384 15.8147 35.3379L15.8692 35.4759L15.868 35.4788L7.44681 38.8062L7.44394 38.8049L7.38859 38.6648C7.19203 38.1674 7.43584 37.603 7.93332 37.4065Z" stroke="#303030" stroke-width="0.4" stroke-miterlimit="10"/>
<path d="M10.7247 37.5108L12.5952 36.7743L12.6019 36.7721L13.3638 38.5895L11.4003 39.3625L10.7181 37.513C10.7181 37.513 10.8144 37.4755 10.7247 37.5097V37.5108Z" stroke="#303030" stroke-width="0.4" stroke-miterlimit="10"/>
<path d="M10.4912 39.7385L14.2741 38.2492C14.7728 38.0528 15.3383 38.298 15.5351 38.7977L15.5338 38.8006L9.94963 40.9992L9.94676 40.9979L9.94595 40.9958C9.74999 40.4981 9.99346 39.9345 10.4912 39.7385Z" stroke="#303030" stroke-width="0.4" stroke-miterlimit="10"/>
<path d="M23.7286 6.91474L18.7505 6.46622L19.1991 1.48814C19.209 1.38293 19.1304 1.28879 19.0252 1.27993L15.932 1.00085C15.8268 0.990885 15.7327 1.06952 15.7238 1.17473L15.2753 6.1528L10.2972 5.70428C10.1909 5.69431 10.0979 5.77294 10.0879 5.87815L9.80882 8.97132C9.79886 9.07763 9.87749 9.17066 9.9827 9.18063L14.9608 9.62915L14.5123 14.6072C14.5023 14.7124 14.5809 14.8066 14.6861 14.8154L17.7793 15.0945C17.8845 15.1045 17.9786 15.0259 17.9875 14.9206L18.436 9.94257L23.4141 10.3911C23.5204 10.4011 23.6134 10.3224 23.6234 10.2172L23.9025 7.12406C23.9125 7.01774 23.8338 6.92471 23.7286 6.91474Z" stroke="#303030" stroke-width="0.4" stroke-miterlimit="10"/>
<path d="M3.4538 17.9421L4.51579 17.5227L3.47522 14.8878L2.41323 15.3072L3.4538 17.9421Z" stroke="#303030" stroke-width="0.4" stroke-miterlimit="10"/>
<path d="M3.0167 21.036L4.4542 20.469" stroke="#303030" stroke-width="0.2" stroke-miterlimit="10"/>
<path d="M4.35564 24.426L5.79203 23.859" stroke="#303030" stroke-width="0.2" stroke-miterlimit="10"/>
<path d="M5.69457 27.8159L7.13095 27.2489" stroke="#303030" stroke-width="0.2" stroke-miterlimit="10"/>
<path d="M7.03239 31.2061L8.46878 30.639" stroke="#303030" stroke-width="0.2" stroke-miterlimit="10"/>
<path d="M8.37132 34.5958L9.80771 34.0288" stroke="#303030" stroke-width="0.2" stroke-miterlimit="10"/>
<path d="M2.94915 15.0956L1 10.1685" stroke="#303030" stroke-width="0.2" stroke-miterlimit="10"/>
<path d="M31.9939 23.8016C31.8877 22.0076 30.303 20.6909 28.2865 20.9152C26.3845 21.1268 25.139 23.1474 25.139 23.1474C25.139 23.1474 24.3911 20.894 22.5884 20.2507C20.6784 19.5685 18.8323 20.4859 18.3172 22.2078C17.6078 24.58 18.9086 27.0422 19.9585 29.1861C21.0084 31.33 23.6611 35.8266 23.6611 35.8266C23.6611 35.8266 27.2774 32.0608 28.7921 30.2147C30.3065 28.3699 32.1392 26.2744 31.9939 23.8016Z" stroke="#303030" stroke-width="0.4" stroke-miterlimit="10"/>
</svg>
