<svg width="22" height="42" viewBox="0 0 22 42" fill="none" xmlns="http://www.w3.org/2000/svg">
<path d="M2.35638 11.8062L7.39237 9.81618C7.40243 9.81187 7.41249 9.81187 7.41392 9.81475L16.9342 33.5967L11.6467 35.6858L2.34058 11.8191C2.34058 11.8191 2.34632 11.8105 2.35638 11.8062Z" stroke="#303030" stroke-width="0.4" stroke-miterlimit="10"/>
<path d="M9.99511 36.3378L18.5833 32.9444C19.2301 32.6889 19.9641 33.006 20.2202 33.6541L20.2909 33.8332L20.2893 33.8369L9.36392 38.1537L9.36019 38.1521L9.28839 37.9704C9.03337 37.325 9.34969 36.5928 9.99511 36.3378Z" stroke="#303030" stroke-width="0.4" stroke-miterlimit="10"/>
<path d="M13.6166 36.4731L16.0434 35.5176L16.052 35.5148L17.0405 37.8726L14.493 38.8754L13.608 36.476C13.608 36.476 13.7329 36.4273 13.6166 36.4717V36.4731Z" stroke="#303030" stroke-width="0.3" stroke-miterlimit="10"/>
<path d="M13.3136 39.3635L18.2214 37.4312C18.8685 37.1764 19.6021 37.4945 19.8574 38.1429L19.8558 38.1466L12.611 40.9989L12.6073 40.9973L12.6062 40.9946C12.352 40.3489 12.6679 39.6177 13.3136 39.3635Z" stroke="#303030" stroke-width="0.4" stroke-miterlimit="10"/>
<path d="M4.18349 11.0853L5.56128 10.5411L4.21128 7.12272L2.83349 7.66683L4.18349 11.0853Z" stroke="#303030" stroke-width="0.4" stroke-miterlimit="10"/>
<path d="M3.61639 15.0993L5.48136 14.3636" stroke="#303030" stroke-width="0.257643" stroke-miterlimit="10"/>
<path d="M5.35352 19.4974L7.21705 18.7617" stroke="#303030" stroke-width="0.257643" stroke-miterlimit="10"/>
<path d="M7.09058 23.8954L8.95411 23.1598" stroke="#303030" stroke-width="0.257643" stroke-miterlimit="10"/>
<path d="M8.82623 28.2936L10.6898 27.558" stroke="#303030" stroke-width="0.257643" stroke-miterlimit="10"/>
<path d="M10.5634 32.6915L12.4269 31.9558" stroke="#303030" stroke-width="0.257643" stroke-miterlimit="10"/>
<path d="M3.52877 7.39233L1 1" stroke="#303030" stroke-width="0.257643" stroke-miterlimit="10"/>
</svg>
