<svg width="23" height="42" viewBox="0 0 23 42" fill="none" xmlns="http://www.w3.org/2000/svg">
<path d="M1.07407 14.3875H5.83326C5.83326 14.3875 4.90497 5.72799 11.1841 5.38687C17.5116 5.04272 18.3795 12.214 15.6263 15.3566C14.0656 17.1362 12.0777 18.0237 9.84679 20.2561C8.01889 22.084 7.48154 24.49 7.51625 26.73C7.57059 30.2817 7.64606 32.3677 7.64606 32.3677H12.6845C12.6845 32.3677 12.3222 26.5051 13.1479 24.6772C14.4445 21.8063 16.1667 21.6025 19.3395 18.6697C21.255 16.8992 22.8942 12.5023 20.8987 6.91288C19.1463 2.01181 14.4113 0.64428 10.2423 1.07446C7.5404 1.35371 4.69214 2.71369 2.64386 5.92724C0.621242 9.10305 1.00463 12.3709 1.07407 14.3875Z" fill="#76C69D" stroke="#303030" stroke-width="0.4" stroke-miterlimit="10"/>
<path d="M10.4264 40.9998C11.7852 40.9998 12.8868 39.8983 12.8868 38.5394C12.8868 37.1806 11.7852 36.0791 10.4264 36.0791C9.0676 36.0791 7.96606 37.1806 7.96606 38.5394C7.96606 39.8983 9.0676 40.9998 10.4264 40.9998Z" fill="#76C69D" stroke="#303030" stroke-width="0.4" stroke-miterlimit="10"/>
</svg>
