<svg width="42" height="38" viewBox="0 0 42 38" fill="none" xmlns="http://www.w3.org/2000/svg">
<path d="M28.3789 16.8383L28.3965 16.8754L28.4355 16.89L39.4316 20.8549C38.7759 22.6259 37.703 24.2134 36.2998 25.4789C34.872 26.7666 33.1485 27.6823 31.2822 28.1449C29.4161 28.6075 27.4645 28.6029 25.6006 28.1312C23.7365 27.6595 22.0172 26.7346 20.5957 25.4398C19.1742 24.145 18.0935 22.5194 17.4502 20.7074C16.807 18.8956 16.6205 16.9532 16.9072 15.0521C17.194 13.1509 17.9456 11.3496 19.0947 9.808C20.2242 8.29288 21.7037 7.07407 23.4062 6.25624L28.3789 16.8383Z" stroke="#303030" stroke-width="0.199591"/>
<path d="M36.6395 7.58379C38.4875 9.10555 39.8254 11.1573 40.4695 13.4646C41.1135 15.7717 41.0314 18.2196 40.2391 20.4783L29.3729 16.5613L36.6395 7.58379Z" stroke="#303030" stroke-width="0.199591"/>
<path d="M30.2039 4.73395C32.3498 4.99431 34.38 5.8453 36.071 7.18965L28.8185 16.1533L23.9189 5.7155C25.8825 4.81432 28.0579 4.47363 30.2039 4.73395Z" stroke="#303030" stroke-width="0.199591"/>
<circle cx="2.01485" cy="20.5573" r="0.711742" transform="rotate(-17.1601 2.01485 20.5573)" stroke="#303030" stroke-width="0.199591"/>
<circle cx="6.43038" cy="12.1644" r="0.711742" transform="rotate(-17.1601 6.43038 12.1644)" stroke="#303030" stroke-width="0.199591"/>
<circle cx="13.569" cy="13.4512" r="0.711742" transform="rotate(-17.1601 13.569 13.4512)" stroke="#303030" stroke-width="0.199591"/>
<circle cx="21.377" cy="2.71049" r="0.711742" transform="rotate(-17.1601 21.377 2.71049)" stroke="#303030" stroke-width="0.199591"/>
<line x1="2.41449" y1="19.9121" x2="6.12458" y2="12.8396" stroke="#303030" stroke-width="0.199591"/>
<line x1="7.15069" y1="12.3292" x2="12.862" y2="13.3069" stroke="#303030" stroke-width="0.199591"/>
<line x1="14.0825" y1="12.9402" x2="20.9458" y2="3.30694" stroke="#303030" stroke-width="0.199591"/>
<rect x="3.29447" y="29.4932" width="2.95815" height="7.22509" rx="0.369759" stroke="#303030" stroke-width="0.18488"/>
<rect x="7.77292" y="25.017" width="2.95815" height="11.7013" rx="0.369759" stroke="#303030" stroke-width="0.18488"/>
<rect x="12.2514" y="20.4294" width="2.95815" height="16.289" rx="0.369759" stroke="#303030" stroke-width="0.18488"/>
<rect x="16.7298" y="27.6837" width="2.95815" height="9.03462" rx="0.369759" stroke="#303030" stroke-width="0.18488"/>
</svg>
