<svg width="26" height="42" viewBox="0 0 26 42" fill="none" xmlns="http://www.w3.org/2000/svg">
<path d="M21.2339 4.51113C18.8336 3.15925 17.2308 1.97525 15.959 4.02008C13.7315 7.59771 12.4996 9.69981 12.453 11.0271C12.4033 12.4767 13.2449 15.5182 11.5304 18.8085C9.80387 22.1233 8.18829 24.2435 7.18925 25.8333C6.06661 27.6184 2.45042 32.8646 1.87966 34.2829C1.30856 35.7024 1.01633 36.9254 1.75577 37.3542C2.49556 37.7817 3.53697 36.9953 4.40438 35.5576C5.27178 34.1198 7.58747 29.9294 10.603 23.96C13.6186 17.9907 15.7567 16.6225 18.2056 15.5605C20.2082 14.6928 20.2852 14.5418 23.6546 8.71688C24.8706 6.61443 23.6333 5.86145 21.2327 4.5108L21.2339 4.51113ZM3.423 35.3645C3.25003 35.6628 3.03648 35.8481 3.03648 35.8481C2.95758 35.8993 2.87543 35.943 2.63067 35.8019C2.3859 35.6608 2.3825 35.5764 2.38761 35.4852C2.38761 35.4852 2.45326 35.1919 2.61222 34.911C2.78442 34.6059 2.99405 34.4156 2.99405 34.4156C3.07039 34.3398 3.14937 34.3416 3.39413 34.4827C3.6389 34.6238 3.70224 34.7021 3.66789 34.7986C3.66789 34.7986 3.58083 35.0926 3.42424 35.3649L3.423 35.3645ZM15.6457 10.5764C15.461 10.8013 15.2755 11.0101 15.001 10.8516C14.7266 10.6931 14.8043 10.4575 14.9037 10.1907C14.9037 10.1907 15.3094 9.2887 15.8611 8.32732C16.4601 7.28489 17.0078 6.53165 17.0078 6.53165C17.212 6.24055 17.3466 6.16482 17.621 6.32333C17.8954 6.48183 17.9276 6.64026 17.7698 6.95065C17.7698 6.95065 17.3286 7.87604 16.7884 8.81009C16.1953 9.83562 15.6457 10.5764 15.6457 10.5764ZM18.4756 9.60802C17.6914 10.964 16.9933 11.9621 16.9933 11.9621C16.7616 12.2668 16.5325 12.5524 16.2581 12.3939C15.9837 12.2354 16.101 11.9325 16.2446 11.5864C16.2446 11.5864 16.8088 10.41 17.5409 9.13779C18.3339 7.75911 19.0317 6.74767 19.0317 6.74767C19.2934 6.35715 19.4487 6.24469 19.7243 6.40353C20 6.56237 20.0113 6.75349 19.7978 7.16119C19.7978 7.16119 19.191 8.37233 18.4756 9.60802ZM21.0027 8.82163C21.0027 8.82163 20.5615 9.74702 20.0213 10.6811C19.4282 11.7066 18.8786 12.4474 18.8786 12.4474C18.6939 12.6723 18.5083 12.8811 18.2339 12.7226C17.9595 12.5641 18.0372 12.3284 18.1366 12.0617C18.1366 12.0617 18.5423 11.1597 19.094 10.1983C19.693 9.15586 20.2407 8.40262 20.2407 8.40262C20.4448 8.11153 20.5794 8.0358 20.8539 8.19431C21.1283 8.35281 21.1605 8.51124 21.0027 8.82163Z" fill="#76C69D" stroke="#303030" stroke-width="0.4" stroke-miterlimit="10"/>
</svg>
