<svg width="42" height="31" viewBox="0 0 42 31" fill="none" xmlns="http://www.w3.org/2000/svg">
<path d="M39.3992 29.0896H2.6008C2.1768 29.0896 1.7696 28.9208 1.4696 28.6208C1.1696 28.3208 1 27.9128 1 27.4896V2.6C1 2.1768 1.1696 1.7688 1.4696 1.4688C1.7696 1.1688 2.1768 1 2.6008 1H39.3992C39.8232 1 40.2304 1.1688 40.5304 1.4688C40.8304 1.7688 41 2.1768 41 2.6V27.4912C40.9976 27.9152 40.8304 28.3224 40.5304 28.6208C40.2304 28.9208 39.8232 29.0896 39.3992 29.0896Z" stroke="#303030" stroke-width="0.4"/>
<path d="M9.4728 16.0537V24.7641H4.9704V16.0537C4.9704 15.9369 5.0168 15.8249 5.1016 15.7425C5.184 15.6577 5.296 15.6113 5.4128 15.6113H9.0304C9.1472 15.6113 9.26 15.6577 9.3424 15.7425C9.4272 15.8249 9.4728 15.9369 9.4728 16.0537Z" stroke="#303030" stroke-width="0.4"/>
<path d="M26.4176 12.6345V24.7641H21.916V12.6345C21.916 12.5177 21.9616 12.4057 22.0464 12.3233C22.1288 12.2385 22.2408 12.1929 22.3576 12.1929H25.976C26.0928 12.1929 26.2048 12.2385 26.2872 12.3233C26.372 12.4057 26.4176 12.5177 26.4176 12.6345Z" stroke="#303030" stroke-width="0.4"/>
<path d="M35.2704 10.2674V24.7642H30.7688V10.2674C30.7688 10.1506 30.8144 10.0378 30.8992 9.95535C30.9816 9.87055 31.0936 9.82495 31.2104 9.82495H34.8288C34.9456 9.82495 35.0576 9.87055 35.14 9.95535C35.2248 10.0378 35.2704 10.1506 35.2704 10.2674Z" stroke="#303030" stroke-width="0.4"/>
<path d="M17.716 8.51289V24.7641H13.2144V8.51289C13.2144 8.39609 13.26 8.28409 13.3448 8.20169C13.4272 8.11689 13.5392 8.07129 13.656 8.07129H17.2744C17.3912 8.07129 17.5032 8.11689 17.5856 8.20169C17.6704 8.28409 17.716 8.39609 17.716 8.51289Z" stroke="#303030" stroke-width="0.4"/>
<path d="M3.95361 24.7642H36.7248" stroke="#303030" stroke-width="0.4" stroke-linecap="round" stroke-linejoin="round"/>
</svg>
