<svg width="34" height="42" viewBox="0 0 34 42" fill="none" xmlns="http://www.w3.org/2000/svg">
<g clip-path="url(#clip0_359_289)">
<path d="M31.5631 15.2576L32.2304 7.4196C32.382 5.6354 31.0581 4.0653 29.2739 3.91186C27.4897 3.7602 25.9196 5.08408 25.7662 6.86828L25.0989 14.7063L31.5631 15.2558V15.2576Z" fill="#76C69D" stroke="#303030" stroke-width="0.4" stroke-miterlimit="10"/>
<path d="M9.17847 24.7656L10.0277 29.0138C10.2204 29.9809 12.4025 30.3609 14.9004 29.8613C17.3983 29.3618 19.2663 28.1735 19.0736 27.2064L18.2244 22.9583L9.17847 24.7656Z" fill="#E5CEAE" stroke="#303030" stroke-width="0.4" stroke-miterlimit="10"/>
<path d="M32.0934 15.2994L24.5734 14.66C24.1001 14.6198 23.6838 14.9708 23.6436 15.4441C23.6034 15.9173 23.9544 16.3336 24.4276 16.3738L31.9477 17.0132C32.4209 17.0534 32.8372 16.7024 32.8774 16.2292C32.9177 15.7559 32.5666 15.3397 32.0934 15.2994Z" fill="#76C69D" stroke="#303030" stroke-width="0.4" stroke-miterlimit="10"/>
<path d="M15.4612 23.511L14.7651 20.0275C14.7347 19.8753 14.8327 19.7283 14.9849 19.6979L15.5168 19.5916C15.669 19.5612 15.816 19.6592 15.8464 19.8114L16.5425 23.2949L15.463 23.5106L15.4612 23.511Z" fill="#7F99AE" stroke="#303030" stroke-width="0.4" stroke-miterlimit="10"/>
<path d="M10.8608 24.4314L10.1647 20.9479C10.1343 20.7957 10.2323 20.6488 10.3845 20.6183L10.9164 20.5121C11.0686 20.4816 11.2156 20.5796 11.246 20.7319L11.942 24.2153L10.8625 24.431L10.8608 24.4314Z" fill="#7F99AE" stroke="#303030" stroke-width="0.4" stroke-miterlimit="10"/>
<path d="M21.4931 40.7021C21.4931 40.7021 24.1515 32.4591 25.9518 16.5048" stroke="#303030" stroke-width="0.4" stroke-miterlimit="10"/>
<path d="M30.9172 41.0001C30.9172 41.0001 30.0715 30.6285 30.3569 16.8812" stroke="#303030" stroke-width="0.4" stroke-miterlimit="10"/>
<path d="M15.7532 29.6543C15.7532 29.6543 15.3286 29.7649 14.9985 29.8416C14.6452 29.9219 14.2777 29.9683 14.2777 29.9683C14.2777 29.9683 15.7479 35.1782 13.5194 37.767C10.7396 41 2.92126 31.2315 2.6911 26.564C2.48413 22.3622 3.69204 21.0437 14.995 9.90673C19.9301 5.04657 19.6731 1 19.6731 1H18.0905C18.0905 1 18.4171 4.54699 13.7139 9.28048C8.43623 14.5956 -0.259969 21.6396 1.15312 27.747C2.62508 34.1112 11.514 44.3989 15.1234 37.6671C16.747 34.6393 15.7532 29.6543 15.7532 29.6543Z" fill="#E5CEAE" stroke="#303030" stroke-width="0.4" stroke-miterlimit="10"/>
</g>
<defs>
<clipPath id="clip0_359_289">
<rect width="33.9503" height="42" fill="white"/>
</clipPath>
</defs>
</svg>
