<svg width="22" height="42" viewBox="0 0 22 42" fill="none" xmlns="http://www.w3.org/2000/svg">
<path d="M9.41718 25.4591L10.2912 29.8313C10.4896 30.8265 12.7353 31.2177 15.3061 30.7035C17.8768 30.1894 19.7994 28.9664 19.6011 27.9711L18.727 23.599L9.41718 25.4591Z" fill="#BED5E8" stroke="#303030" stroke-width="0.4" stroke-miterlimit="10"/>
<path d="M15.8832 24.1678L15.1668 20.5827C15.1355 20.4261 15.2364 20.2748 15.393 20.2435L15.9404 20.1341C16.0971 20.1028 16.2483 20.2037 16.2796 20.3604L16.996 23.9455L15.885 24.1675L15.8832 24.1678Z" fill="#7F99AE" stroke="#303030" stroke-width="0.4" stroke-miterlimit="10"/>
<path d="M11.1485 25.1152L10.4321 21.5301C10.4008 21.3734 10.5017 21.2222 10.6583 21.1909L11.2057 21.0815C11.3624 21.0502 11.5136 21.1511 11.5449 21.3077L12.2613 24.8929L11.1503 25.1149L11.1485 25.1152Z" fill="#7F99AE" stroke="#303030" stroke-width="0.4" stroke-miterlimit="10"/>
<path d="M16.1837 30.4904C16.1837 30.4904 15.7467 30.6043 15.407 30.6832C15.0434 30.7659 14.6651 30.8136 14.6651 30.8136C14.6651 30.8136 16.1782 36.1755 13.8847 38.8399C11.0238 42.1672 2.97732 32.1137 2.74045 27.31C2.52744 22.9856 3.77059 21.6286 15.4033 10.1666C20.4824 5.16465 20.218 1 20.218 1H18.5892C18.5892 1 18.9253 4.65049 14.0849 9.52211C8.65322 14.9923 -0.296735 22.2419 1.15759 28.5274C2.6725 35.0774 11.8208 45.6653 15.5355 38.7371C17.2065 35.6209 16.1837 30.4904 16.1837 30.4904Z" fill="#BED5E8" stroke="#303030" stroke-width="0.4" stroke-miterlimit="10"/>
</svg>
