<svg width="42" height="27" viewBox="0 0 42 27" fill="none" xmlns="http://www.w3.org/2000/svg">
<g clip-path="url(#clip0_341_110)">
<path d="M20.5038 19.7821C21.7875 19.7821 22.8281 18.7424 22.8281 17.4599C22.8281 16.1775 21.7875 15.1378 20.5038 15.1378C19.2201 15.1378 18.1795 16.1775 18.1795 17.4599C18.1795 18.7424 19.2201 19.7821 20.5038 19.7821Z" stroke="#303030" stroke-width="0.4" stroke-miterlimit="10"/>
<path d="M29.471 2.10796C29.471 3.31541 28.3428 3.30443 28.3428 3.30443H24.2299C24.2299 3.30443 23.9948 3.31042 23.9948 2.94434C23.9948 2.64111 24.1251 2.54336 24.2034 2.54336C24.2818 2.54336 27.4522 2.01719 28.0153 1.90298C28.4936 1.80572 28.869 1.55585 29.0622 1.20225C29.1985 0.952379 29.471 1.42518 29.471 2.10746V2.10796Z" stroke="#303030" stroke-width="0.4" stroke-miterlimit="10" stroke-linecap="round"/>
<path d="M20.5038 15.1379V12.3964" stroke="#303030" stroke-width="0.4" stroke-miterlimit="10"/>
<path d="M19.7046 12.3964H21.3035" stroke="#303030" stroke-width="0.4" stroke-miterlimit="10" stroke-linecap="round"/>
<path d="M20.5038 19.7827V22.5243" stroke="#303030" stroke-width="0.4" stroke-miterlimit="10"/>
<path d="M21.3035 22.5243H19.7046" stroke="#303030" stroke-width="0.4" stroke-miterlimit="10" stroke-linecap="round"/>
<path d="M10.2482 4.16163V7.26229C10.2482 7.26229 12.8765 7.06828 12.8765 5.71171C12.8765 4.35514 10.2482 4.16113 10.2482 4.16113V4.16163Z" stroke="#303030" stroke-width="0.4" stroke-miterlimit="10"/>
<path d="M29.9607 10.1914L27.3519 4.42096L27.3239 3.30428H26.1967L26.2247 4.50524L27.0968 6.40444L15.8038 9.04277L14.429 6.90019L15.6381 3.80851C15.5203 3.24493 15.3675 2.32825 15.3675 2.32825L14.8598 2.41453L14.4111 2.49084C14.4111 2.49084 14.5483 3.18658 14.6267 3.74217L13.6198 6.24734L13.4531 6.66279L11.9505 10.1585M25.6211 17.837L32.8296 17.8221L33.3932 17.7837L30.358 11.0696M12.8156 10.5295L13.9218 7.94156L20.2427 17.837H24.6587M11.5626 11.0617L8.65028 17.837H9.69262L12.4332 11.4262M24.6592 16.9433L20.6885 16.9398L16.3674 9.93352L27.5221 7.31315L29.0446 10.6013M29.449 11.4746L31.9839 16.9498L25.676 16.9443" stroke="#303030" stroke-width="0.3" stroke-miterlimit="10"/>
<path d="M32.8296 10.6351V25.0387" stroke="#303030" stroke-width="0.3" stroke-miterlimit="10"/>
<path d="M40.038 17.8372H25.6211" stroke="#303030" stroke-width="0.3" stroke-miterlimit="10"/>
<path d="M27.7322 22.9291L37.9264 12.7444" stroke="#303030" stroke-width="0.3" stroke-miterlimit="10"/>
<path d="M27.7322 12.7444L37.9264 22.9291" stroke="#303030" stroke-width="0.3" stroke-miterlimit="10"/>
<path d="M32.8296 9.67419C28.3173 9.67419 24.6591 13.329 24.6591 17.8371C24.6591 22.3452 28.3173 25.9999 32.8296 25.9999C37.3419 25.9999 41 22.3452 41 17.8371C41 13.329 37.3419 9.67419 32.8296 9.67419ZM32.8296 25.0389C28.8484 25.0389 25.6211 21.8145 25.6211 17.8371C25.6211 13.8596 28.8484 10.6353 32.8296 10.6353C36.8107 10.6353 40.038 13.8596 40.038 17.8371C40.038 21.8145 36.8107 25.0389 32.8296 25.0389Z" stroke="#303030" stroke-width="0.349117" stroke-miterlimit="10"/>
<path d="M9.17043 10.6466V25.0273" stroke="#303030" stroke-width="0.3" stroke-miterlimit="10"/>
<path d="M16.3674 17.8372H1.97343" stroke="#303030" stroke-width="0.3" stroke-miterlimit="10"/>
<path d="M4.08159 22.9211L14.2593 12.7523" stroke="#303030" stroke-width="0.3" stroke-miterlimit="10"/>
<path d="M4.08159 12.7523L14.2593 22.9211" stroke="#303030" stroke-width="0.3" stroke-miterlimit="10"/>
<path d="M9.17043 9.67419C4.65815 9.67419 1 13.3285 1 17.8371C1 22.3457 4.65815 25.9999 9.17043 25.9999C13.6827 25.9999 17.3409 22.3452 17.3409 17.8371C17.3409 13.329 13.6827 9.67419 9.17043 9.67419ZM9.17043 25.0274C5.19579 25.0274 1.97344 21.808 1.97344 17.8371C1.97344 13.8661 5.19579 10.6467 9.17043 10.6467C13.1451 10.6467 16.3674 13.8661 16.3674 17.8371C16.3674 21.808 13.1451 25.0274 9.17043 25.0274Z" stroke="#303030" stroke-width="0.349117" stroke-miterlimit="10"/>
<path d="M16.811 1.07322L13.9617 1.55878C13.7242 1.59926 13.5645 1.82463 13.6051 2.06216L13.6257 2.18321C13.6663 2.42074 13.8917 2.58047 14.1293 2.53999L16.9786 2.05443C17.2161 2.01395 17.3758 1.78858 17.3352 1.55105L17.3146 1.43C17.274 1.19247 17.0486 1.03274 16.811 1.07322Z" stroke="#303030" stroke-width="0.4" stroke-miterlimit="10"/>
</g>
<defs>
<clipPath id="clip0_341_110">
<rect width="42" height="27" fill="white"/>
</clipPath>
</defs>
</svg>
