<svg width="42" height="27" viewBox="0 0 42 27" fill="none" xmlns="http://www.w3.org/2000/svg">
<g clip-path="url(#clip0_341_111)">
<path d="M20.5038 19.7821C21.7875 19.7821 22.8281 18.7424 22.8281 17.4599C22.8281 16.1775 21.7875 15.1378 20.5038 15.1378C19.2201 15.1378 18.1795 16.1775 18.1795 17.4599C18.1795 18.7424 19.2201 19.7821 20.5038 19.7821Z" stroke="#303030" stroke-width="0.4" stroke-miterlimit="10"/>
<path d="M29.4709 2.10795C29.4709 3.3154 28.3427 3.30442 28.3427 3.30442H24.2298C24.2298 3.30442 23.9947 3.31041 23.9947 2.94434C23.9947 2.6411 24.125 2.54335 24.2034 2.54335C24.2817 2.54335 27.4522 2.01718 28.0153 1.90297C28.4935 1.80572 28.8689 1.55585 29.0621 1.20225C29.1984 0.95238 29.4709 1.42568 29.4709 2.10795Z" fill="#E5CEAE" stroke="#303030" stroke-width="0.4" stroke-miterlimit="10" stroke-linecap="round"/>
<path d="M20.5038 15.1379V12.3964" stroke="#303030" stroke-width="0.4" stroke-miterlimit="10"/>
<path d="M19.7046 12.3964H21.3035" stroke="#303030" stroke-width="0.4" stroke-miterlimit="10" stroke-linecap="round"/>
<path d="M20.5038 19.7826V22.5242" stroke="#303030" stroke-width="0.4" stroke-miterlimit="10"/>
<path d="M21.3035 22.5243H19.7046" stroke="#303030" stroke-width="0.4" stroke-miterlimit="10" stroke-linecap="round"/>
<path d="M10.2482 4.16175V7.2624C10.2482 7.2624 12.8765 7.06839 12.8765 5.71183C12.8765 4.35526 10.2482 4.16125 10.2482 4.16125V4.16175Z" fill="#BED5E8" stroke="#303030" stroke-width="0.4" stroke-miterlimit="10"/>
<path d="M27.3518 4.42114L27.3238 3.30447H26.1966L26.2246 4.50543L27.0967 6.40462L15.8038 9.04294L14.429 6.90037L15.638 3.80869C15.2392 1.98132 15.3325 1.80676 14.6906 1.80676C14.0052 1.80676 14.2647 1.87758 14.6267 3.74286L13.6198 6.24802L13.453 6.66347L8.64972 17.8372H9.69205L13.9223 7.94173L20.2432 17.8372L32.8295 17.8222L33.4276 17.8601L27.3518 4.42114ZM20.6885 16.9399L16.3674 9.93369L27.522 7.31332L31.9839 16.9504L20.6885 16.9399Z" fill="#76C69D" stroke="#303030" stroke-width="0.3" stroke-miterlimit="10"/>
<path d="M32.8296 9.67432V26" stroke="#303030" stroke-width="0.3" stroke-miterlimit="10"/>
<path d="M41 17.8372H24.6591" stroke="#303030" stroke-width="0.3" stroke-miterlimit="10"/>
<path d="M27.0522 23.6091L38.6068 12.0653" stroke="#303030" stroke-width="0.3" stroke-miterlimit="10"/>
<path d="M27.0522 12.0653L38.6068 23.6091" stroke="#303030" stroke-width="0.3" stroke-miterlimit="10"/>
<path d="M32.8295 9.67432C28.3173 9.67432 24.6591 13.3291 24.6591 17.8371C24.6591 22.3452 28.3173 26 32.8295 26C37.3418 26 41 22.3452 41 17.8371C41 13.3291 37.3418 9.67432 32.8295 9.67432ZM32.8295 25.0389C28.8484 25.0389 25.6211 21.8146 25.6211 17.8371C25.6211 13.8597 28.8484 10.6354 32.8295 10.6354C36.8107 10.6354 40.038 13.8597 40.038 17.8371C40.038 21.8146 36.8107 25.0389 32.8295 25.0389Z" fill="#7F99AE" stroke="#303030" stroke-width="0.4" stroke-miterlimit="10"/>
<path d="M9.17041 9.67432V26" stroke="#303030" stroke-width="0.3" stroke-miterlimit="10"/>
<path d="M17.3409 17.8372H1" stroke="#303030" stroke-width="0.3" stroke-miterlimit="10"/>
<path d="M3.39313 23.6091L14.9476 12.0653" stroke="#303030" stroke-width="0.3" stroke-miterlimit="10"/>
<path d="M3.39313 12.0653L14.9476 23.6091" stroke="#303030" stroke-width="0.3" stroke-miterlimit="10"/>
<path d="M9.17043 9.67432C4.65815 9.67432 1 13.3286 1 17.8371C1 22.3457 4.65815 26 9.17043 26C13.6827 26 17.3409 22.3452 17.3409 17.8371C17.3409 13.3291 13.6827 9.67432 9.17043 9.67432ZM9.17043 25.0274C5.19579 25.0274 1.97344 21.8081 1.97344 17.8371C1.97344 13.8662 5.19579 10.6469 9.17043 10.6469C13.1451 10.6469 16.3674 13.8662 16.3674 17.8371C16.3674 21.8081 13.1451 25.0274 9.17043 25.0274Z" fill="#7F99AE" stroke="#303030" stroke-width="0.4" stroke-miterlimit="10"/>
<path d="M16.811 1.07322L13.9617 1.55878C13.7242 1.59926 13.5645 1.82463 13.605 2.06216L13.6257 2.18321C13.6663 2.42074 13.8917 2.58047 14.1292 2.53999L16.9785 2.05443C17.2161 2.01395 17.3758 1.78858 17.3352 1.55106L17.3145 1.43C17.274 1.19248 17.0486 1.03274 16.811 1.07322Z" fill="#E5CEAE" stroke="#303030" stroke-width="0.4" stroke-miterlimit="10"/>
</g>
<defs>
<clipPath id="clip0_341_111">
<rect width="42" height="27" fill="white"/>
</clipPath>
</defs>
</svg>
