<svg width="42" height="40" viewBox="0 0 42 40" fill="none" xmlns="http://www.w3.org/2000/svg">
<path d="M40.7998 7.95364V36.8374C40.7996 37.8313 39.994 38.6372 39 38.6372H3C2.00604 38.6372 1.20044 37.8313 1.2002 36.8374V7.95364H40.7998Z" stroke="#303030" stroke-width="0.4"/>
<path d="M3 1.2002H39C39.9941 1.2002 40.7998 2.00589 40.7998 3V7.99316H1.2002V3C1.2002 2.00589 2.00589 1.2002 3 1.2002Z" stroke="#303030" stroke-width="0.4"/>
<line x1="11.4186" y1="8.19299" x2="11.4186" y2="38.837" stroke="#303030" stroke-width="0.4"/>
<line x1="1.29022" y1="23.315" x2="41" y2="23.315" stroke="#303030" stroke-width="0.4"/>
<line x1="30.9814" y1="8.19299" x2="30.9814" y2="38.837" stroke="#303030" stroke-width="0.4"/>
<line x1="1.29022" y1="28.5762" x2="41" y2="28.5762" stroke="#303030" stroke-width="0.4"/>
<line x1="1.29022" y1="12.7926" x2="41" y2="12.7926" stroke="#303030" stroke-width="0.4"/>
<line x1="21.2" y1="8.19299" x2="21.2" y2="38.837" stroke="#303030" stroke-width="0.4"/>
<line x1="1.29022" y1="33.8374" x2="41" y2="33.8374" stroke="#303030" stroke-width="0.4"/>
<line x1="1.29022" y1="18.0538" x2="41" y2="18.0538" stroke="#303030" stroke-width="0.4"/>
</svg>
