<svg width="42" height="37" viewBox="0 0 42 37" fill="none" xmlns="http://www.w3.org/2000/svg">
<path d="M19.2276 18.5329L19.1564 17.8055C19.1275 17.62 18.9709 17.463 18.8281 17.4915H18.8139C18.8139 17.4915 18.2005 17.4203 17.6159 17.4061C17.345 17.3918 17.0452 17.3918 16.8028 17.4061H16.6586C16.5156 16.8649 16.3071 16.3504 16.0422 15.8714C16.1877 15.7407 16.4666 15.4888 16.7458 15.2095C16.9171 15.0383 17.1168 14.8243 17.3019 14.6107L17.559 14.311C17.6159 14.2825 17.6444 14.2255 17.6444 14.1828C17.6587 14.0828 17.6302 13.9688 17.5732 13.8688C17.5732 13.8688 17.5301 13.7834 17.4447 13.6833L17.4305 13.6548C17.345 13.5552 17.245 13.4266 17.1453 13.2985C17.031 13.1557 16.9171 13.0276 16.817 12.9275L16.6604 12.7705C16.5176 12.6281 16.3179 12.5996 16.2182 12.6993L16.204 12.7136C16.204 12.7136 16.0755 12.7851 15.8758 12.899C15.6618 13.0276 15.4051 13.1984 15.1769 13.3412C14.8173 13.5902 14.4983 13.8254 14.4016 13.9042C13.9796 13.5587 13.515 13.2633 13.0169 13.0269C13.024 12.9938 13.0267 12.9605 13.0377 12.9275V12.899C13.0662 12.742 13.1231 12.4426 13.1801 12.1005C13.2659 11.5156 13.3086 10.9022 13.3086 10.9022V10.8737C13.3371 10.8167 13.3228 10.7598 13.2944 10.6882C13.2516 10.6028 13.1658 10.5316 13.0519 10.4885L12.3531 10.2749L11.64 10.1321C11.5115 10.1037 11.4118 10.1321 11.326 10.1891C11.2833 10.2318 11.2406 10.2749 11.2406 10.3319V10.3461C11.2406 10.3461 10.9839 10.9022 10.7842 11.4586C10.6987 11.7011 10.5987 11.9862 10.5275 12.2287C10.5132 12.2714 10.499 12.2999 10.499 12.343L10.4845 12.3865C10.3641 12.3801 10.2429 12.3767 10.1209 12.3767C9.68879 12.3767 9.26632 12.4178 8.85673 12.4952C8.79846 12.3502 8.64304 11.997 8.44519 11.6295C8.31666 11.3871 8.1739 11.1304 8.04574 10.9022C7.93146 10.7025 7.84602 10.5743 7.84602 10.5743L7.83178 10.5601C7.8033 10.4315 7.60358 10.3603 7.40386 10.4173C7.40386 10.4173 7.31842 10.4458 7.1899 10.4885C7.0475 10.5316 6.86202 10.6028 6.71926 10.6597L6.26286 10.8595C6.14894 10.9164 6.06314 10.9595 6.06314 10.9595C5.94922 11.0165 5.86341 11.1161 5.83494 11.2019C5.8207 11.2447 5.8207 11.3016 5.84917 11.3586V11.3728C5.84917 11.3728 5.87765 11.5156 5.93498 11.7438C6.00618 12.0432 6.07737 12.2999 6.14894 12.5423C6.24756 12.8952 6.36042 13.234 6.44555 13.4622C5.98618 13.7602 5.56536 14.1125 5.19196 14.5099C5.1496 14.4817 5.10725 14.4535 5.06489 14.4252C4.93637 14.3537 4.65121 14.197 4.33757 14.04C3.80961 13.7834 3.16809 13.484 3.12501 13.484C3.01109 13.4697 2.88256 13.5409 2.78289 13.6548L2.01248 14.8816C1.96976 14.9671 1.94128 15.0671 1.95552 15.1526C1.96976 15.2238 2.55469 15.7517 3.02533 16.1081C3.33897 16.3505 3.65297 16.5645 3.80961 16.6788L3.81823 16.6845C3.62337 17.1845 3.4862 17.7133 3.4151 18.2628C3.25269 18.2779 2.87477 18.3202 2.46888 18.3901C1.88432 18.4901 1.28516 18.6325 1.28516 18.6325H1.27092C1.19972 18.6325 1.14276 18.661 1.08544 18.7183C1.02848 18.7895 1 18.875 1 18.9893V19.3741C1 19.4741 1 19.6023 1.01424 19.7166L1.08544 20.4439C1.11428 20.6151 1.2282 20.7433 1.35672 20.7575H1.42792C1.42792 20.7575 2.04133 20.8291 2.62589 20.8433C2.88256 20.8576 3.18233 20.8576 3.43901 20.8433H3.57549C3.71429 21.3779 3.9167 21.8868 4.17441 22.3614L4.16633 22.3695C3.89541 22.612 3.66721 22.8402 3.45325 23.0395C3.23929 23.2535 3.05381 23.4675 2.8968 23.6387C2.75441 23.8099 2.65436 23.9239 2.65436 23.9239L2.64013 23.9381C2.58316 23.9669 2.55469 24.0239 2.55469 24.0666C2.54045 24.1663 2.56893 24.2806 2.62589 24.3803C2.62589 24.3803 2.6686 24.4518 2.75441 24.5657C2.79713 24.6227 2.85409 24.6943 2.92529 24.7797L3.06805 24.9652C3.18233 25.108 3.29625 25.2503 3.39629 25.3362L3.55293 25.507C3.69569 25.6498 3.90965 25.6783 3.99509 25.5786L4.00933 25.5644C4.00933 25.5644 4.13785 25.4928 4.33757 25.3789C4.47997 25.2931 4.75089 25.1222 5.03641 24.9367C5.27885 24.7797 5.54977 24.58 5.8207 24.366L5.82517 24.3616C6.24145 24.7044 6.69939 24.9984 7.19032 25.2349L7.1899 25.2361C7.17566 25.2788 7.17566 25.3362 7.16142 25.3931C7.1187 25.6356 7.06174 25.9207 7.01866 26.1916C6.93322 26.7766 6.8905 27.39 6.8905 27.39V27.4184C6.86202 27.4754 6.87626 27.5324 6.90474 27.5893C6.94746 27.6751 7.0329 27.7463 7.14718 27.789L7.84602 28.003L8.5591 28.1458C8.68763 28.1742 8.7873 28.1458 8.87311 28.0888C8.91583 28.0457 8.95855 28.003 8.95855 27.946V27.9176C8.95855 27.9176 9.21523 27.3611 9.41495 26.805C9.52887 26.4772 9.62891 26.1774 9.67163 26.035C9.68587 25.9777 9.70011 25.935 9.71435 25.8922L9.71552 25.8887C9.84968 25.8967 9.98476 25.9012 10.1209 25.9012C10.539 25.9012 10.9482 25.8629 11.3453 25.7903C11.4069 25.9402 11.5733 26.2872 11.7539 26.648C11.9109 26.962 12.0679 27.233 12.1534 27.3754C12.2673 27.5751 12.3531 27.6894 12.3531 27.7036L12.3673 27.7178C12.3958 27.8464 12.5955 27.9176 12.7952 27.8606C12.7952 27.8606 12.8807 27.8318 13.0092 27.789C13.1374 27.7606 13.2944 27.6894 13.4798 27.6182C13.6507 27.5466 13.8077 27.4754 13.9362 27.4184C14.0502 27.3611 14.136 27.3184 14.136 27.3184C14.2499 27.2614 14.3353 27.176 14.3642 27.076C14.3784 27.0332 14.3784 26.9763 14.3499 26.919V26.9047L14.2641 26.5341C14.1929 26.2344 14.1217 25.9634 14.0644 25.7352C13.955 25.3656 13.8323 25.0224 13.7723 24.8315C14.2422 24.5294 14.672 24.1706 15.0527 23.7649C15.0893 23.7892 15.126 23.812 15.1627 23.8242C15.3909 23.9523 15.6476 24.0951 15.89 24.2094C16.418 24.4661 16.974 24.6943 16.9883 24.7085L17.0025 24.7227C17.1168 24.8082 17.3165 24.7512 17.4447 24.5942C17.4447 24.5942 17.6444 24.2948 17.8584 23.9954C17.9296 23.8954 17.9865 23.7957 18.0296 23.6957C18.0581 23.6529 18.0866 23.6102 18.1008 23.5675C18.1578 23.4532 18.2147 23.3678 18.2147 23.3678C18.2578 23.2677 18.2863 23.1823 18.2721 23.0969C18.2578 23.0111 18.2147 22.9541 18.1435 22.9256L18.1293 22.9114C18.1293 22.9114 17.6729 22.4977 17.2023 22.1413C16.8957 21.904 16.5891 21.6948 16.4292 21.5788C16.6214 21.082 16.7569 20.557 16.8272 20.0114C17.068 19.983 17.4061 19.9418 17.7441 19.8878C18.329 19.7878 18.9139 19.6454 18.9282 19.6454H18.9424C19.0136 19.6454 19.0706 19.6165 19.1275 19.5596C19.1849 19.4884 19.2133 19.4029 19.2133 19.2887C19.2418 19.2602 19.2418 19.1601 19.2418 19.032V18.875C19.2418 18.7753 19.2418 18.6468 19.2276 18.5329ZM10.128 22.7298C8.12673 22.7298 6.50436 21.1074 6.50436 19.1061C6.50436 17.1048 8.12673 15.4824 10.128 15.4824C12.1293 15.4824 13.7517 17.1048 13.7517 19.1061C13.7517 21.1074 12.1293 22.7298 10.128 22.7298Z" fill="#7F99AE" stroke="#303030" stroke-width="0.4" stroke-linecap="round"/>
<path d="M14.868 21.4053C15.1979 20.7169 15.3826 19.9458 15.3826 19.1316C15.3826 16.2215 13.0239 13.8628 10.1138 13.8628C8.31915 13.8628 6.73423 14.7598 5.78287 16.13" stroke="#303030" stroke-width="0.4"/>
<path d="M5.28358 17.0234C5.00147 17.669 4.84497 18.382 4.84497 19.1316C4.84497 22.0407 7.20365 24.4004 10.1138 24.4004C11.8175 24.4004 13.3322 23.5917 14.2953 22.3374" stroke="#303030" stroke-width="0.4"/>
<path d="M6.92578 16.0811L5.77118 16.1219L5.73041 14.9673" stroke="#303030" stroke-width="0.4" stroke-linecap="round"/>
<path d="M13.1435 22.3804L14.2981 22.3396L14.3389 23.4942" stroke="#303030" stroke-width="0.4" stroke-linecap="round"/>
<path d="M34.6561 8.95611L34.3515 8.29184C34.2637 8.12593 34.0644 8.02863 33.9387 8.10214L33.9253 8.10679C33.9253 8.10679 33.3222 8.23966 32.765 8.41696C32.5043 8.4919 32.2209 8.58972 31.9964 8.6823L31.8601 8.72935C31.5483 8.2645 31.1833 7.84618 30.7766 7.47983C30.8715 7.3088 31.0529 6.97964 31.2257 6.62457C31.3317 6.40682 31.4507 6.13939 31.556 5.87708L31.7011 5.50985C31.7457 5.46434 31.754 5.4012 31.7401 5.36082C31.7209 5.26161 31.6568 5.16322 31.5703 5.08725C31.5703 5.08725 31.5017 5.02054 31.3883 4.95386L31.3655 4.93158C31.2522 4.86524 31.1157 4.77641 30.9797 4.68779C30.8251 4.59014 30.6756 4.50617 30.5484 4.44425L30.3491 4.34696C30.1676 4.25894 29.9696 4.2972 29.9079 4.42394L29.8991 4.44205C29.8991 4.44205 29.8009 4.55164 29.6493 4.7245C29.489 4.9158 29.3021 5.16109 29.133 5.3705C28.8744 5.72326 28.6496 6.04964 28.5839 6.15572C28.0722 5.96682 27.5366 5.83922 26.9887 5.77828C26.9846 5.74465 26.9763 5.71236 26.9759 5.67756L26.9666 5.65064C26.9423 5.49294 26.8984 5.19134 26.8406 4.84937C26.7308 4.26846 26.5711 3.6747 26.5711 3.6747L26.5618 3.64778C26.5701 3.58464 26.538 3.53545 26.4878 3.4771C26.4195 3.41028 26.3152 3.37097 26.1934 3.36742L25.4631 3.39357L24.7425 3.49132C24.6117 3.50634 24.5268 3.56579 24.4643 3.64763C24.4378 3.70195 24.4115 3.75662 24.4301 3.81046L24.4348 3.82392C24.4348 3.82392 24.3736 4.43332 24.3664 5.02448C24.3647 5.28153 24.3632 5.58372 24.375 5.83612C24.3755 5.88115 24.3714 5.91272 24.3854 5.95344L24.3859 5.99937C24.27 6.03263 24.1544 6.06895 24.0391 6.10876C23.6306 6.24977 23.2446 6.42641 22.8827 6.63329C22.7803 6.51523 22.5182 6.23208 22.2112 5.94927C22.0106 5.76204 21.7919 5.566 21.5963 5.39211C21.4231 5.24061 21.3005 5.14735 21.3005 5.14735L21.2824 5.13854C21.2136 5.02635 21.0015 5.02422 20.8313 5.14324C20.8313 5.14324 20.7599 5.19804 20.6523 5.28036C20.5318 5.36755 20.3797 5.49538 20.2633 5.59581L19.8971 5.93354C19.808 6.02455 19.7409 6.09328 19.7409 6.09328C19.6518 6.18429 19.6033 6.30651 19.6043 6.39691C19.6048 6.44194 19.6234 6.49578 19.6689 6.54033L19.6736 6.55379C19.6736 6.55379 19.7471 6.67944 19.8757 6.87644C20.0407 7.13622 20.1918 7.35561 20.3386 7.56143C20.5469 7.86285 20.7642 8.14627 20.9191 8.33417C20.5821 8.76579 20.2993 9.23611 20.0761 9.73364C20.0268 9.72077 19.9776 9.7079 19.9283 9.69503C19.7835 9.66933 19.4628 9.61432 19.1151 9.56826C18.5323 9.49792 17.8282 9.42426 17.7874 9.43832C17.6751 9.46203 17.5769 9.57127 17.5198 9.71148L17.1919 11.1225C17.1794 11.2172 17.1852 11.3211 17.2265 11.3972C17.2632 11.4599 17.9884 11.7681 18.5495 11.9513C18.9251 12.0781 19.2918 12.1779 19.4771 12.2348L19.4871 12.2374C19.4661 12.7736 19.509 13.3182 19.6211 13.8609C19.4725 13.9281 19.1291 14.0915 18.7682 14.29C18.2483 14.5753 17.7284 14.9054 17.7284 14.9054L17.715 14.9101C17.6477 14.9333 17.6031 14.9788 17.5677 15.0517C17.537 15.1376 17.538 15.2277 17.5753 15.3357L17.7009 15.6995C17.7335 15.794 17.7753 15.9152 17.8261 16.0185L18.1307 16.6828C18.2139 16.8353 18.3634 16.9192 18.4895 16.8908L18.5568 16.8675C18.5568 16.8675 19.16 16.735 19.7172 16.5577C19.9645 16.4874 20.2478 16.3896 20.4858 16.2924L20.6148 16.2478C20.9205 16.7078 21.2779 17.1228 21.6763 17.4873L21.6714 17.4977C21.4944 17.8152 21.3532 18.1054 21.216 18.3637C21.0835 18.6358 20.978 18.8985 20.8855 19.1116C20.8068 19.32 20.7494 19.4603 20.7494 19.4603L20.7406 19.4784C20.6962 19.5243 20.6878 19.5874 20.7018 19.6278C20.7208 19.7266 20.785 19.8254 20.8714 19.901C20.8714 19.901 20.9351 19.9547 21.0534 20.0344C21.1124 20.0743 21.1896 20.1234 21.2848 20.1809L21.4802 20.3096C21.6349 20.4073 21.789 20.5047 21.9116 20.5532L22.1154 20.6636C22.2969 20.7519 22.5085 20.709 22.5567 20.5869L22.5655 20.5688C22.5655 20.5688 22.6637 20.4592 22.8153 20.2864C22.9219 20.1588 23.1222 19.9089 23.3316 19.6404C23.5095 19.4128 23.7004 19.1356 23.8867 18.845L23.8894 18.8393C24.3948 19.0275 24.9236 19.156 25.4648 19.2193L25.4649 19.2206C25.4653 19.2657 25.484 19.3199 25.4892 19.3783C25.5279 19.6214 25.5671 19.9096 25.6148 20.1797C25.7249 20.7605 25.8847 21.3543 25.8847 21.3543L25.894 21.3812C25.8857 21.4443 25.9177 21.4935 25.9632 21.5381C26.0316 21.6052 26.1356 21.6447 26.2576 21.6477L26.988 21.6219L27.7086 21.5242C27.8394 21.5092 27.9243 21.4497 27.9868 21.3679C28.0132 21.3132 28.0396 21.2589 28.021 21.2051L28.0117 21.1781C28.0117 21.1781 28.0728 20.5684 28.0801 19.9776C28.0808 19.6305 28.0775 19.3145 28.0714 19.1659C28.0662 19.1071 28.0657 19.0621 28.0652 19.017L28.0652 19.0133C28.1946 18.9771 28.3237 18.9372 28.4524 18.8928C28.8477 18.7564 29.222 18.5867 29.5737 18.3885C29.6808 18.51 29.9513 18.7838 30.2398 19.0659C30.4907 19.3115 30.7275 19.5163 30.8547 19.6231C31.0276 19.7747 31.146 19.8547 31.1506 19.8682L31.1687 19.877C31.2376 19.9892 31.4496 19.9913 31.6198 19.8723C31.6198 19.8723 31.6911 19.8171 31.7987 19.7348C31.9105 19.6661 32.0357 19.5475 32.1878 19.4197C32.326 19.2963 32.4511 19.1778 32.554 19.082C32.643 18.9906 32.7102 18.9222 32.7102 18.9222C32.7993 18.8312 32.8522 18.7226 32.8468 18.6186C32.8463 18.5736 32.8277 18.5197 32.7821 18.4748L32.7774 18.4614L32.5754 18.1391C32.4103 17.879 32.2546 17.6461 32.1259 17.4491C31.9019 17.1354 31.6739 16.8511 31.5549 16.6901C31.9005 16.2513 32.1897 15.7718 32.4171 15.2642C32.4597 15.2751 32.5018 15.2847 32.5404 15.2843C32.798 15.3309 33.0872 15.3821 33.3536 15.411C33.9365 15.4814 34.5366 15.5156 34.5547 15.5244L34.5728 15.5333C34.7087 15.5767 34.8789 15.4577 34.9488 15.2675C34.9488 15.2675 35.0399 14.9193 35.1444 14.5665C35.1791 14.4487 35.2004 14.3358 35.2085 14.2272C35.2215 14.1776 35.2344 14.1279 35.234 14.0828C35.2505 13.9562 35.2765 13.8569 35.2765 13.8569C35.2846 13.7483 35.2836 13.6582 35.2422 13.5821C35.2008 13.5056 35.1415 13.4659 35.0649 13.4622L35.0468 13.4533C35.0468 13.4533 34.4804 13.2113 33.9192 13.028C33.5519 12.9037 33.1939 12.806 33.0049 12.7485C33.0245 12.2161 32.9812 11.6756 32.8697 11.137C33.088 11.0316 33.3942 10.8823 33.696 10.721C34.2162 10.4356 34.7227 10.1101 34.7361 10.1054L34.7496 10.1008C34.8169 10.0776 34.8613 10.0317 34.8966 9.95927C34.9275 9.87327 34.9266 9.78321 34.8893 9.67519C34.9069 9.63897 34.8743 9.54441 34.8324 9.42326L34.7812 9.27486C34.7487 9.18064 34.7067 9.05915 34.6561 8.95611ZM27.4243 15.8927C25.5325 16.5458 23.4695 15.5416 22.8165 13.6499C22.1634 11.7582 23.1675 9.69518 25.0593 9.0421C26.951 8.38902 29.014 9.39316 29.6671 11.2849C30.3201 13.1766 29.316 15.2396 27.4243 15.8927Z" fill="#76C69D" stroke="#303030" stroke-width="0.4" stroke-linecap="round"/>
<path d="M31.4726 13.0939C31.5597 12.3356 31.4827 11.5464 31.217 10.7768C30.2674 8.02597 27.2681 6.56612 24.5173 7.51578C22.8209 8.10142 21.6155 9.46653 21.1633 11.0722" stroke="#303030" stroke-width="0.4"/>
<path d="M20.9829 12.0796C20.9269 12.7819 21.0116 13.507 21.2563 14.2155C22.2056 16.9654 25.2052 18.4262 27.956 17.4766C29.5664 16.9206 30.7343 15.6618 31.2353 14.162" stroke="#303030" stroke-width="0.4"/>
<path d="M22.2277 10.653L21.1496 11.0683L20.7343 9.99023" stroke="#303030" stroke-width="0.4" stroke-linecap="round"/>
<path d="M30.1606 14.5785L31.2387 14.1631L31.6541 15.2412" stroke="#303030" stroke-width="0.4" stroke-linecap="round"/>
<path d="M29.3556 20.0666L28.8618 20.3107C28.7387 20.3805 28.6698 20.5328 28.7279 20.6259L28.7317 20.6359C28.7317 20.6359 28.8451 21.0873 28.9909 21.5032C29.0531 21.698 29.133 21.9094 29.2076 22.0765L29.2461 22.1782C28.9027 22.4233 28.5955 22.7074 28.3284 23.0219C28.1975 22.9541 27.9455 22.8247 27.6742 22.7023C27.5078 22.6272 27.3038 22.5434 27.1038 22.4699L26.824 22.3685C26.7887 22.336 26.7409 22.3311 26.7108 22.3425C26.6365 22.3591 26.5638 22.4096 26.5084 22.4764C26.5084 22.4764 26.4597 22.5295 26.4119 22.6164L26.3956 22.6341C26.3482 22.7209 26.2842 22.8257 26.2204 22.9301C26.1503 23.0487 26.0903 23.1632 26.0464 23.2604L25.9775 23.4127C25.9151 23.5513 25.9483 23.6997 26.0452 23.7434L26.059 23.7497C26.059 23.7497 26.1437 23.8212 26.2773 23.9316C26.4249 24.0482 26.6138 24.1836 26.7753 24.3064C27.0467 24.4936 27.2976 24.6558 27.3789 24.703C27.2478 25.0926 27.1635 25.4989 27.1296 25.9131C27.1043 25.9169 27.0802 25.9239 27.054 25.9249L27.0339 25.9325C26.9156 25.9543 26.6893 25.9939 26.433 26.045C25.9977 26.1404 25.5539 26.2739 25.5539 26.2739L25.5338 26.2814C25.486 26.2766 25.4497 26.3018 25.4068 26.3409C25.358 26.3938 25.3306 26.4733 25.3306 26.5651L25.3664 27.1147L25.4558 27.6555C25.47 27.7537 25.5167 27.8164 25.5797 27.8617C25.6212 27.8804 25.663 27.8991 25.7031 27.8839L25.7131 27.8801C25.7131 27.8801 26.1736 27.9128 26.6192 27.9053C26.8129 27.9009 27.0406 27.8954 27.2305 27.8809C27.2644 27.8796 27.2883 27.882 27.3186 27.8706L27.3532 27.8692C27.3808 27.9558 27.4107 28.0421 27.4433 28.1281C27.5585 28.4327 27.7 28.7197 27.8638 28.9878C27.7771 29.0675 27.5695 29.2712 27.3632 29.5087C27.2265 29.6639 27.0836 29.833 26.9569 29.9842C26.8466 30.118 26.779 30.2124 26.779 30.2124L26.7727 30.2263C26.6897 30.2806 26.6928 30.4404 26.7862 30.566C26.7862 30.566 26.829 30.6187 26.8934 30.6979C26.9618 30.7868 27.0614 30.8986 27.1396 30.984L27.4021 31.2526C27.4726 31.3177 27.5259 31.3667 27.5259 31.3667C27.5964 31.4318 27.6895 31.4657 27.7576 31.4629C27.7915 31.4616 27.8317 31.4464 27.8643 31.4111L27.8743 31.4073C27.8743 31.4073 27.9674 31.3492 28.113 31.248C28.3051 31.1179 28.467 30.9993 28.6189 30.8842C28.8414 30.7206 29.0502 30.5507 29.1883 30.4299C29.5209 30.6743 29.8815 30.8771 30.2612 31.0344C30.2526 31.0717 30.244 31.1091 30.2354 31.1465C30.2192 31.2562 30.1848 31.499 30.1577 31.762C30.1175 32.2026 30.0774 32.7347 30.0889 32.7651C30.1092 32.8492 30.1937 32.9208 30.3006 32.9607L31.3709 33.1768C31.4425 33.1842 31.5206 33.1776 31.5771 33.1448C31.6235 33.1157 31.8397 32.5626 31.9655 32.1358C32.0528 31.85 32.12 31.5716 32.1588 31.4307L32.1605 31.4231C32.5649 31.4272 32.9743 31.3829 33.3807 31.2866C33.4346 31.3971 33.5652 31.6522 33.7227 31.9197C33.9491 32.3052 34.2092 32.6896 34.2092 32.6896L34.213 32.6997C34.232 32.7499 34.2672 32.7824 34.3229 32.8076C34.3883 32.8287 34.4561 32.826 34.5367 32.7956L34.808 32.693C34.8785 32.6663 34.9689 32.6321 35.0457 32.5916L35.5395 32.3475C35.6525 32.2815 35.7125 32.1671 35.6883 32.0727L35.6693 32.0225C35.6693 32.0225 35.5562 31.5709 35.4104 31.155C35.352 30.9703 35.2721 30.7589 35.1936 30.5818L35.1572 30.4855C35.4971 30.2452 35.8019 29.9668 36.0678 29.6586L36.0757 29.6621C36.3189 29.7885 36.5406 29.8885 36.7382 29.9862C36.9461 30.08 37.1464 30.1538 37.3089 30.2188C37.4676 30.2735 37.5746 30.3137 37.5746 30.3137L37.5884 30.3199C37.624 30.3524 37.6717 30.3573 37.7018 30.3459C37.7759 30.3294 37.8489 30.2788 37.904 30.2121C37.904 30.2121 37.943 30.1629 38.0005 30.072C38.0292 30.0267 38.0645 29.9675 38.1058 29.8945L38.1985 29.7444C38.2686 29.6258 38.3387 29.5075 38.3725 29.4141L38.4512 29.2581C38.5138 29.1194 38.4768 28.961 38.3838 28.9273L38.3699 28.9211C38.3699 28.9211 38.2852 28.8496 38.1517 28.7391C38.0532 28.6616 37.8605 28.5162 37.6536 28.3643C37.4783 28.2352 37.2653 28.0975 37.0422 27.9635L37.0379 27.9616C37.1686 27.5767 37.2538 27.1754 37.2896 26.7663L37.2906 26.7663C37.3245 26.7649 37.3649 26.7496 37.4089 26.7445C37.5912 26.71 37.8074 26.6741 38.0099 26.6323C38.4451 26.5366 38.8889 26.4031 38.8889 26.4031L38.909 26.3956C38.9567 26.4004 38.9931 26.3752 39.0257 26.34C39.0748 26.287 39.1022 26.2078 39.1018 26.1158L39.0664 25.5661L38.9769 25.0253C38.9627 24.9271 38.9161 24.8644 38.8531 24.8191C38.8113 24.8005 38.7698 24.7817 38.7296 24.7969L38.7095 24.8045C38.7095 24.8045 38.2488 24.7719 37.8035 24.7793C37.542 24.7864 37.304 24.7958 37.1922 24.8036C37.148 24.8089 37.1141 24.8102 37.0802 24.8116L37.0774 24.8117C37.0472 24.715 37.0144 24.6186 36.9781 24.5226C36.8666 24.2278 36.7306 23.9495 36.5735 23.6889C36.6627 23.6055 36.8631 23.3957 37.0693 23.1722C37.2488 22.9778 37.398 22.7949 37.4756 22.6967C37.586 22.5631 37.6437 22.4722 37.6537 22.4684L37.66 22.4545C37.743 22.4002 37.74 22.2404 37.6466 22.1148C37.6466 22.1148 37.6034 22.0622 37.5391 21.983C37.4848 21.9003 37.3928 21.8086 37.2931 21.6968C37.1971 21.5954 37.1051 21.5037 37.0306 21.4282C36.9599 21.3632 36.9069 21.3141 36.9069 21.3141C36.8363 21.249 36.7533 21.2115 36.6751 21.2179C36.6412 21.2192 36.601 21.2344 36.5682 21.2698L36.5582 21.2735L36.3198 21.4328C36.1274 21.5629 35.9554 21.6854 35.8098 21.7866C35.5784 21.9623 35.3691 22.1403 35.2505 22.2335C34.9123 21.9827 34.5447 21.7754 34.1573 21.6152C34.1646 21.5828 34.1709 21.5509 34.1697 21.5218C34.1992 21.3267 34.2314 21.1077 34.2474 20.9063C34.2876 20.4657 34.3002 20.0128 34.3065 19.999L34.3127 19.9851C34.3425 19.8818 34.2491 19.7562 34.1042 19.7077C34.1042 19.7077 33.8399 19.6467 33.5718 19.5757C33.4823 19.5521 33.3968 19.5385 33.3148 19.5348C33.2771 19.5262 33.2394 19.5175 33.2055 19.5188C33.1097 19.5091 33.0343 19.4917 33.0343 19.4917C32.9523 19.488 32.8844 19.4907 32.828 19.5236C32.7713 19.5565 32.7426 19.602 32.7415 19.6598L32.7353 19.6737C32.7353 19.6737 32.5653 20.1057 32.4396 20.5325C32.3539 20.8119 32.2882 21.0838 32.249 21.2275C31.8475 21.2244 31.4413 21.2688 31.0379 21.3647C30.9537 21.2025 30.8345 20.9751 30.7063 20.7513C30.4799 20.3656 30.2235 19.9912 30.2198 19.9811L30.216 19.9711C30.197 19.9209 30.1615 19.8884 30.1061 19.8635C30.0406 19.842 29.9728 19.8447 29.8922 19.8752C29.8646 19.8627 29.794 19.8894 29.7037 19.9235L29.593 19.9654C29.5227 19.992 29.4321 20.0262 29.3556 20.0666ZM34.7403 25.363C35.2739 26.774 34.5626 28.3503 33.1517 28.8838C31.7407 29.4173 30.1644 28.7061 29.6309 27.2951C29.0974 25.8842 29.8086 24.3079 31.2196 23.7744C32.6305 23.2408 34.2068 23.9521 34.7403 25.363Z" fill="#E5CEAE" stroke="#303030" stroke-width="0.4" stroke-linecap="round"/>
<path d="M32.5429 22.3744C31.9697 22.3254 31.3768 22.4007 30.8028 22.6177C28.7511 23.3936 27.717 25.6853 28.4929 27.7369C28.9713 29.0022 30.0262 29.8804 31.2458 30.1859" stroke="#303030" stroke-width="0.4"/>
<path d="M32.0089 30.2997C32.5392 30.3265 33.0836 30.2467 33.6121 30.0469C35.663 29.2713 36.6978 26.9793 35.922 24.9277C35.4678 23.7265 34.4938 22.8743 33.3528 22.5297" stroke="#303030" stroke-width="0.4"/>
<path d="M30.9067 29.3931L31.2433 30.1963L30.4401 30.5328" stroke="#303030" stroke-width="0.4" stroke-linecap="round"/>
<path d="M33.6902 23.3302L33.3536 22.5271L34.1568 22.1905" stroke="#303030" stroke-width="0.4" stroke-linecap="round"/>
</svg>
