<svg width="42" height="36" viewBox="0 0 42 36" fill="none" xmlns="http://www.w3.org/2000/svg">
<path d="M3.80566 9.16653C8.67162 1.65394 18.707 -0.492078 26.2197 4.37357C33.7323 9.23952 35.8783 19.2749 31.0127 26.7876C26.1467 34.3004 16.1114 36.4464 8.59863 31.5806C1.08588 26.7146 -1.06014 16.6793 3.80566 9.16653ZM21.9346 10.9898C18.0755 8.49056 12.9204 9.59181 10.4209 13.4507C7.9214 17.3098 9.02384 22.4658 12.8828 24.9654C16.742 27.4648 21.897 26.3616 24.3965 22.5025C26.8958 18.6434 25.7935 13.4893 21.9346 10.9898Z" stroke="#303030" stroke-width="0.4"/>
<path d="M10.6024 3.26806C15.7027 0.873506 21.6359 1.39973 27.7982 3.19806C35.5353 5.456 40.1975 2.29074 41 1" stroke="#303030" stroke-width="0.4"/>
<circle cx="17.409" cy="17.9773" r="9.49111" stroke="#303030" stroke-width="0.103534"/>
<circle cx="17.4091" cy="17.9772" r="11.6307" stroke="#303030" stroke-width="0.103534"/>
<circle cx="17.4091" cy="17.9772" r="12.6246" stroke="#303030" stroke-width="0.103534"/>
<circle cx="17.409" cy="17.9773" r="14.1922" stroke="#303030" stroke-width="0.103534"/>
</svg>
