<svg width="42" height="36" viewBox="0 0 42 36" fill="none" xmlns="http://www.w3.org/2000/svg">
<path d="M3.80566 9.16663C8.67161 1.65389 18.7069 -0.492159 26.2197 4.37366C33.7325 9.2396 35.8785 19.2749 31.0127 26.7877C26.1468 34.3004 16.1114 36.4464 8.59863 31.5807C1.08591 26.7147 -1.06012 16.6794 3.80566 9.16663ZM21.9346 10.9899C18.0754 8.49044 12.9214 9.59268 10.4219 13.4518C7.9225 17.3109 9.02471 22.465 12.8838 24.9645C16.7429 27.4638 21.897 26.3616 24.3965 22.5026C26.8959 18.6434 25.7937 13.4894 21.9346 10.9899Z" fill="#9BD8B9" stroke="#303030" stroke-width="0.4"/>
<path d="M10.6025 3.26805C15.7028 0.873506 21.636 1.39973 27.7982 3.19805C35.5354 5.45599 40.1976 2.29074 41 1" stroke="#303030" stroke-width="0.4"/>
<circle cx="17.4091" cy="17.9772" r="9.49109" stroke="#303030" stroke-width="0.103534"/>
<circle cx="17.4092" cy="17.9772" r="11.6307" stroke="#303030" stroke-width="0.103534"/>
<circle cx="17.4091" cy="17.9772" r="12.6245" stroke="#303030" stroke-width="0.103534"/>
<circle cx="17.4091" cy="17.9772" r="14.1922" stroke="#303030" stroke-width="0.103534"/>
</svg>
