<svg width="42" height="31" viewBox="0 0 42 31" fill="none" xmlns="http://www.w3.org/2000/svg">
<mask id="path-1-inside-1_1331_352" fill="white">
<path fill-rule="evenodd" clip-rule="evenodd" d="M24.2235 5.27134C21.6142 1.04381 9.1234 -2.23167 3.7707 6.52369C-3.67606 18.7043 5.82368 28.8795 9.67176 29.0105C10.3877 29.0348 11.1576 29.0665 11.9648 29.0997C18.0761 29.351 26.3278 29.6903 29.4883 27.6191C35.3405 23.7841 37.5243 13.4774 35.9365 12.7497C33.454 11.6119 32.7102 12.9572 31.4778 15.1861C31.3695 15.3819 31.2575 15.5845 31.1402 15.7929C29.6874 18.373 23.7257 19.6541 21.1657 14.9936C19.1988 11.4127 22.0904 7.87854 24.2058 5.29306L24.2235 5.27134ZM12.5411 19.5655C15.0838 19.5655 17.145 17.5043 17.145 14.9616C17.145 12.4189 15.0838 10.3577 12.5411 10.3577C9.99845 10.3577 7.9372 12.4189 7.9372 14.9616C7.9372 17.5043 9.99845 19.5655 12.5411 19.5655Z"/>
</mask>
<path fill-rule="evenodd" clip-rule="evenodd" d="M24.2235 5.27134C21.6142 1.04381 9.1234 -2.23167 3.7707 6.52369C-3.67606 18.7043 5.82368 28.8795 9.67176 29.0105C10.3877 29.0348 11.1576 29.0665 11.9648 29.0997C18.0761 29.351 26.3278 29.6903 29.4883 27.6191C35.3405 23.7841 37.5243 13.4774 35.9365 12.7497C33.454 11.6119 32.7102 12.9572 31.4778 15.1861C31.3695 15.3819 31.2575 15.5845 31.1402 15.7929C29.6874 18.373 23.7257 19.6541 21.1657 14.9936C19.1988 11.4127 22.0904 7.87854 24.2058 5.29306L24.2235 5.27134ZM12.5411 19.5655C15.0838 19.5655 17.145 17.5043 17.145 14.9616C17.145 12.4189 15.0838 10.3577 12.5411 10.3577C9.99845 10.3577 7.9372 12.4189 7.9372 14.9616C7.9372 17.5043 9.99845 19.5655 12.5411 19.5655Z" fill="#BED5E8"/>
<path d="M3.7707 6.52369L3.42942 6.31505V6.31505L3.7707 6.52369ZM24.2235 5.27134L24.5331 5.52463L24.7137 5.30392L24.5639 5.06125L24.2235 5.27134ZM9.67176 29.0105L9.68537 28.6107V28.6107L9.67176 29.0105ZM11.9648 29.0997L11.9484 29.4994L11.9648 29.0997ZM29.4883 27.6191L29.2691 27.2846V27.2846L29.4883 27.6191ZM35.9365 12.7497L36.1032 12.386V12.386L35.9365 12.7497ZM31.4778 15.1861L31.1277 14.9925V14.9925L31.4778 15.1861ZM31.1402 15.7929L31.4887 15.9891V15.9891L31.1402 15.7929ZM21.1657 14.9936L20.8151 15.1862V15.1862L21.1657 14.9936ZM24.2058 5.29306L24.5153 5.54636L24.5154 5.54635L24.2058 5.29306ZM3.7707 6.52369L4.11197 6.73233C6.69011 2.5153 10.9862 1.1816 15.0014 1.42818C17.0097 1.55152 18.9334 2.07097 20.5091 2.81409C22.0931 3.56117 23.287 4.5156 23.8831 5.48143L24.2235 5.27134L24.5639 5.06125C23.8554 3.91332 22.5094 2.87299 20.8503 2.09053C19.1828 1.30411 17.16 0.759238 15.0504 0.629683C10.8296 0.370476 6.20399 1.77671 3.42942 6.31505L3.7707 6.52369ZM9.67176 29.0105L9.68537 28.6107C8.86275 28.5827 7.63532 27.9962 6.34402 26.8549C5.06914 25.728 3.78669 24.107 2.84746 22.1151C0.975085 18.1442 0.46441 12.6986 4.11197 6.73233L3.7707 6.52369L3.42942 6.31505C-0.369774 12.5294 0.146043 18.2617 2.12387 22.4563C3.10974 24.5471 4.45832 26.2558 5.8142 27.4543C7.15367 28.6382 8.55674 29.3728 9.65816 29.4103L9.67176 29.0105ZM11.9648 29.0997L11.9813 28.7C11.1743 28.6669 10.4029 28.6351 9.68537 28.6107L9.67176 29.0105L9.65816 29.4103C10.3724 29.4346 11.1408 29.4662 11.9484 29.4994L11.9648 29.0997ZM29.4883 27.6191L29.2691 27.2846C28.5423 27.7608 27.4929 28.1154 26.2 28.3669C24.9131 28.6173 23.4158 28.7598 21.8154 28.8307C18.6137 28.9725 15.0405 28.8258 11.9813 28.7L11.9648 29.0997L11.9484 29.4994C15.0005 29.6248 18.6088 29.7735 21.8508 29.6299C23.4724 29.5581 25.0126 29.4129 26.3527 29.1522C27.6869 28.8927 28.8541 28.513 29.7076 27.9537L29.4883 27.6191ZM35.9365 12.7497L35.7699 13.1133C35.7896 13.1223 35.8907 13.1976 35.9651 13.5281C36.0342 13.8351 36.0578 14.2701 36.0226 14.8149C35.9526 15.8999 35.655 17.3408 35.124 18.8894C34.0583 21.9976 32.0889 25.4367 29.2691 27.2846L29.4883 27.6191L29.7076 27.9537C32.7399 25.9665 34.7885 22.3348 35.8808 19.1489C36.4288 17.5505 36.7453 16.0386 36.821 14.8665C36.8587 14.2828 36.8381 13.7633 36.7456 13.3524C36.6584 12.9649 36.4804 12.5589 36.1032 12.386L35.9365 12.7497ZM31.4778 15.1861L31.8278 15.3796C32.1383 14.8182 32.4073 14.3323 32.6779 13.9273C32.9485 13.5223 33.2036 13.2251 33.4736 13.0289C33.7342 12.8395 34.0172 12.7377 34.3667 12.7369C34.7268 12.7361 35.1797 12.8428 35.7699 13.1133L35.9365 12.7497L36.1032 12.386C35.4522 12.0876 34.8811 11.9358 34.365 11.9369C33.8384 11.938 33.3929 12.0985 33.0032 12.3818C32.6228 12.6583 32.3057 13.0443 32.0127 13.4828C31.7196 13.9214 31.4335 14.4395 31.1277 14.9925L31.4778 15.1861ZM31.1402 15.7929L31.4887 15.9891C31.6069 15.7792 31.7197 15.5752 31.8278 15.3796L31.4778 15.1861L31.1277 14.9925C31.0194 15.1885 30.9081 15.3898 30.7916 15.5966L31.1402 15.7929ZM21.1657 14.9936L20.8151 15.1862C22.1778 17.6669 24.4606 18.5724 26.5802 18.5083C28.6655 18.4452 30.6734 17.4372 31.4887 15.9891L31.1402 15.7929L30.7916 15.5966C30.1542 16.7286 28.4549 17.6512 26.5561 17.7087C24.6917 17.765 22.7137 16.9808 21.5163 14.801L21.1657 14.9936ZM24.2058 5.29306L23.8962 5.03976C22.8452 6.32427 21.5569 7.89506 20.7898 9.60645C20.0159 11.3333 19.7522 13.251 20.8151 15.1862L21.1657 14.9936L21.5163 14.801C20.6123 13.1553 20.8109 11.5155 21.5199 9.93364C22.2358 8.33636 23.4509 6.84733 24.5153 5.54636L24.2058 5.29306ZM24.2235 5.27134L23.9139 5.01805L23.8962 5.03977L24.2058 5.29306L24.5154 5.54635L24.5331 5.52463L24.2235 5.27134ZM17.145 14.9616H16.745C16.745 17.2834 14.8629 19.1655 12.5411 19.1655V19.5655V19.9655C15.3047 19.9655 17.545 17.7252 17.545 14.9616H17.145ZM12.5411 10.3577V10.7577C14.8629 10.7577 16.745 12.6399 16.745 14.9616H17.145H17.545C17.545 12.198 15.3047 9.95771 12.5411 9.95771V10.3577ZM7.9372 14.9616H8.3372C8.3372 12.6399 10.2194 10.7577 12.5411 10.7577V10.3577V9.95771C9.77753 9.95771 7.5372 12.198 7.5372 14.9616H7.9372ZM12.5411 19.5655V19.1655C10.2194 19.1655 8.3372 17.2834 8.3372 14.9616H7.9372H7.5372C7.5372 17.7252 9.77753 19.9655 12.5411 19.9655V19.5655Z" fill="#303030" mask="url(#path-1-inside-1_1331_352)"/>
<path d="M16.408 12.2669H34.4982C36.9013 12.4134 39.7295 14.4888 37.8305 18.7299C35.89 23.0636 39.771 24.2279 41 23.0636" stroke="#303030" stroke-width="0.4"/>
</svg>
