<svg width="42" height="33" viewBox="0 0 42 33" fill="none" xmlns="http://www.w3.org/2000/svg">
<path d="M8.46199 27.2652L5.58715 26.4184C5.58715 26.4184 5.57778 26.4125 5.57803 26.4101L12.2441 3.55753L15.2618 4.44612L8.47346 27.2627C8.47346 27.2627 8.4668 27.267 8.46199 27.2652Z" stroke="#303030" stroke-width="0.4" stroke-miterlimit="10"/>
<path d="M7.55204 26.994L6.47838 26.6777C6.47838 26.6777 6.47505 26.6736 6.47653 26.6713L13.1813 3.83012L14.3083 4.16178L7.55748 26.9896C7.55748 26.9896 7.55451 26.9943 7.55204 26.994Z" stroke="#303030" stroke-width="0.3" stroke-miterlimit="10"/>
<path d="M5.57761 26.4261L5.82834 30.9022L8.46565 27.278C8.46565 27.278 8.46553 27.2667 8.45825 27.2647L5.58946 26.4198C5.58342 26.418 5.57688 26.421 5.57638 26.426L5.57761 26.4261Z" stroke="#303030" stroke-width="0.4" stroke-miterlimit="10"/>
<path d="M5.73187 28.9907L5.82842 30.9024L6.94606 29.3474L5.73187 28.9907Z" stroke="#303030" stroke-width="0.4" stroke-miterlimit="10"/>
<path d="M14.8485 2.00285C15.4243 2.17245 15.7552 2.77801 15.5853 3.35495L15.2647 4.4434L15.2616 4.44508L12.2496 3.55784L12.2479 3.55476L12.5693 2.46393C12.7385 1.88937 13.3422 1.56043 13.9167 1.72967L14.8485 2.00285Z" stroke="#303030" stroke-width="0.4" stroke-miterlimit="10"/>
<path d="M33.0181 14.211C27.3342 8.70049 18.724 10.8576 19.6539 15.95C22.3612 30.7744 13.2421 26.9438 13.2421 26.9438" stroke="#303030" stroke-width="0.4"/>
<circle cx="0.345117" cy="0.345117" r="0.295117" transform="matrix(-0.98373 0.179652 0.179652 0.98373 19.8688 15.3429)" stroke="#303030" stroke-width="0.1"/>
<circle cx="0.345117" cy="0.345117" r="0.295117" transform="matrix(-0.98373 0.179652 0.179652 0.98373 33.1606 13.6876)" stroke="#303030" stroke-width="0.1"/>
<circle cx="0.345117" cy="0.345117" r="0.295117" transform="matrix(-0.98373 0.179652 0.179652 0.98373 13.5045 26.4591)" stroke="#303030" stroke-width="0.1"/>
<rect x="0.0168553" y="0.0686724" width="0.457538" height="0.457538" transform="matrix(-0.518171 0.855277 0.855277 0.518171 22.0665 29.5206)" stroke="#303030" stroke-width="0.1"/>
<rect x="0.0169151" y="0.0686577" width="0.457538" height="0.457538" transform="matrix(-0.517426 0.855728 0.855728 0.517426 18.59 10.7283)" stroke="#303030" stroke-width="0.1"/>
<rect x="0.0169151" y="0.0686577" width="0.457538" height="0.457538" transform="matrix(-0.517426 0.855728 0.855728 0.517426 26.4537 7.12828)" stroke="#303030" stroke-width="0.1"/>
<path d="M32.8831 14.089L26.7877 7.60748" stroke="#303030" stroke-width="0.2"/>
<line y1="-0.1" x2="18.5628" y2="-0.1" transform="matrix(-0.179652 -0.98373 -0.98373 0.179652 22.0312 29.6317)" stroke="#303030" stroke-width="0.2"/>
<path d="M38.8567 27.8675L35.0676 28.7139L34.8089 27.5554C33.7372 27.2039 32.1694 26.1272 31.8559 24.6019C31.5425 23.0766 33.2376 19.0842 34.1895 15.9745C36.3983 18.4409 39.665 21.4127 39.9724 22.7888C40.2798 24.1649 39.4189 25.872 38.5979 26.709L38.8567 27.8675Z" stroke="#303030" stroke-width="0.4"/>
<line x1="34.2899" y1="16.2941" x2="35.6746" y2="22.5597" stroke="#303030" stroke-width="0.4"/>
<circle cx="35.8525" cy="23.3429" r="0.8117" transform="rotate(-12.592 35.8525 23.3429)" stroke="#303030" stroke-width="0.4"/>
</svg>
