<svg width="19" height="42" viewBox="0 0 19 42" fill="none" xmlns="http://www.w3.org/2000/svg">
<path d="M13.671 22.997C12.6417 21.1489 12.2527 19.8404 12.788 19.8404C13.1956 19.8404 11.44 18.9048 11.281 17.9276C11.0781 16.6814 10.4386 14.9711 13.1377 15.7064M1.33293 40.2873C1.59551 35.9977 2.15906 30.3372 1.52886 27.7104C0.741116 24.4268 0.963719 10.8158 1.35857 9.47932C1.51245 8.95846 2.57248 8.09332 3.12988 8.74934C3.61565 9.32105 3.51298 12.003 3.51298 12.8206C3.51298 13.4393 3.99485 16.7847 4.14079 17.1528C4.33837 17.6512 2.87134 4.64136 4.57724 4.00954C6.28314 3.37773 6.30369 4.1847 6.30369 5.32099C6.30369 5.86538 6.37763 13.3402 6.35214 16.2059C6.483 11.2861 6.01929 1.55717 7.10177 1.13021C9.19531 0.304455 9.1152 3.60491 8.98883 5.43718C8.86247 7.26944 8.92984 9.98876 8.86666 10.4942C8.80348 10.9997 8.98883 14.8795 8.98883 15.385C8.98883 15.8904 8.69341 3.96004 9.99754 3.48192C11.7984 2.82167 12.228 6.04505 11.9753 7.24394C11.7226 8.44282 12.4748 9.54052 12.1756 11.3277C12.1129 11.7016 12.6211 13.4562 12.6211 14.8422C12.6211 15.2845 13.9186 16.7989 15.3931 17.1528C16.9028 17.5152 16.2247 20.9747 16.7608 21.5108C18.28 23.0299 16.8643 24.8559 15.9395 28.6291C15.3931 30.8585 12.1756 32.0499 12.1756 33.9092C12.1756 35.3882 11.9753 37.5466 11.9753 39.3939C11.9753 40.832 1.33293 41.6862 1.33293 40.2873Z" stroke="#303030" stroke-width="0.4" stroke-linecap="round"/>
<path d="M3.70769 15.8083C3.39029 15.967 2.70356 16.3017 2.49584 16.371" stroke="#303030" stroke-width="0.4" stroke-linecap="round"/>
<path d="M3.49285 12.5451C3.17546 12.7038 2.48873 13.0385 2.28101 13.1077" stroke="#303030" stroke-width="0.4" stroke-linecap="round"/>
<path d="M6.29586 11.9822C5.80334 11.9962 4.73771 12.0259 4.41539 12.0321" stroke="#303030" stroke-width="0.4" stroke-linecap="round"/>
<path d="M8.85553 9.75742C8.47064 9.74877 7.63794 9.72929 7.38624 9.72057" stroke="#303030" stroke-width="0.4" stroke-linecap="round"/>
<path d="M11.9924 11.2473C11.6076 11.2387 10.7749 11.2192 10.5232 11.2105" stroke="#303030" stroke-width="0.4" stroke-linecap="round"/>
<path d="M8.85577 5.76036C8.53862 5.75728 7.85247 5.74983 7.64508 5.74475" stroke="#303030" stroke-width="0.4" stroke-linecap="round"/>
<path d="M6.17281 8.1943C5.79291 8.14912 4.97113 8.05043 4.72316 8.01699" stroke="#303030" stroke-width="0.4" stroke-linecap="round"/>
<path d="M11.9732 7.89044C11.5933 7.84527 10.7715 7.74657 10.5236 7.71314" stroke="#303030" stroke-width="0.4" stroke-linecap="round"/>
<path d="M10.1497 22.1381C9.13595 22.7771 7.08659 24.6249 6.99918 26.9037M10.3138 20.4118C9.43731 20.6309 7.45419 21.4198 6.53384 22.8222" stroke="#303030" stroke-width="0.4" stroke-linecap="round"/>
</svg>
