<svg width="40" height="42" viewBox="0 0 40 42" fill="none" xmlns="http://www.w3.org/2000/svg">
<path d="M6.47677 31.8602C7.12195 30.9916 8.52132 29.0039 8.18192 26.4836C7.75766 23.3333 6.01645 12.3985 7.02288 11.696C8.02931 10.9935 8.7804 9.4372 9.47559 8.7591C10.1708 8.08099 10.8854 7.65031 11.5708 6.84824C12.2563 6.04618 13.2822 3.22228 14.6749 3.48729C16.0677 3.7523 20.0442 3.56643 21.0457 3.61267C22.0471 3.6589 22.6742 2.11306 25.4014 1.89931C28.1286 1.68556 30.5337 1.21529 30.7106 2.85514C31.7886 1.80307 34.1533 0.1382 34.9873 1.89525C36.0298 4.09156 35.2284 7.38903 35.8366 8.6662C36.8755 10.848 34.3045 14.4394 29.3523 24.1491C26.5022 29.7373 23.3051 28.0569 21.4409 32.6516C19.5767 37.2464 20.3718 40.0541 18.2477 39.8443C16.1237 39.6344 2.84257 37.2881 3.57168 36.0266C4.30079 34.7652 5.30888 33.4326 6.47677 31.8602Z" fill="#F2E8DA"/>
<path d="M30.7106 2.85514C30.5337 1.21529 28.1286 1.68556 25.4014 1.89931C22.6742 2.11306 22.0471 3.6589 21.0457 3.61267C20.0442 3.56643 16.0677 3.7523 14.6749 3.48729C13.2822 3.22228 12.2563 6.04618 11.5708 6.84824C10.8854 7.65031 10.1708 8.08099 9.47559 8.7591C8.7804 9.4372 8.02931 10.9935 7.02288 11.696C6.01645 12.3985 7.75766 23.3333 8.18192 26.4836C8.52132 29.0039 7.12195 30.9916 6.47677 31.8602C5.30888 33.4326 4.30079 34.7652 3.57168 36.0266C2.84257 37.2881 16.1237 39.6344 18.2477 39.8443C20.3718 40.0541 19.5767 37.2464 21.4409 32.6516C23.3051 28.0569 26.5022 29.7373 29.3523 24.1491C34.3045 14.4394 36.8755 10.848 35.8366 8.6662C35.2284 7.38903 36.0298 4.09156 34.9873 1.89525C34.1533 0.1382 31.7886 1.80307 30.7106 2.85514ZM30.7106 2.85514C30.7824 3.77165 31.118 7.18375 31.5049 8.64488M11.0313 10.6104C12.9807 10.4175 17.0291 10.4049 17.6272 11.8976C18.3748 13.7635 20.7069 17.4296 19.4434 18.1901M19.4434 18.1901C18.18 18.9507 16.9598 21.0309 15.5605 20.0581C14.1612 19.0852 14.4043 16.7208 13.3667 16.6217C12.3291 16.5226 10.9607 15.848 10.7028 15.6277M19.4434 18.1901C20.6264 17.937 22.9735 17.1918 22.8986 16.2354M22.8986 16.2354C22.8049 15.04 23.0312 12.5565 22.5003 11.1548M22.8986 16.2354C24.4206 16.2164 27.4201 15.9171 27.242 14.8726C27.22 14.7433 27.2102 14.5598 27.2098 14.3339M22.5003 11.1548C21.9695 9.75308 22.9851 8.13257 20.7997 7.87153M22.5003 11.1548L21.0658 11.2672M20.7997 7.87153C18.6142 7.6105 17.7716 6.8346 16.1859 7.31972M20.7997 7.87153C20.3279 7.77081 19.8248 8.9655 19.6322 9.57544M23.8556 3.89204C26.4277 4.19005 26.558 6.14593 27.3034 6.44834C27.9749 6.72079 27.206 12.2802 27.2098 14.3339M27.2098 14.3339C28.0222 14.5108 29.7588 14.6032 30.2061 13.5578C30.7652 12.2511 31.9886 10.4713 31.5049 8.64488M31.5049 8.64488C31.7013 9.38665 32.3153 9.85172 33.009 9.97629C33.4438 10.0544 34.1032 10.1989 34.6351 9.818M16.3152 15.1878C16.5806 14.7868 17.2445 13.9505 17.7773 13.8128M14.4357 13.1217C14.7635 12.5308 15.64 11.4039 16.5232 11.6233M24.0108 5.87322C24.2783 5.55111 24.9828 4.96645 25.6605 5.2046M25.3418 8.2351C25.9521 7.83533 27.2131 7.09988 27.3746 7.3562M28.8654 5.49272C29.3561 5.51861 29.8808 5.2046 30.2805 4.84249M27.0443 3.1425C27.3356 2.91143 28.0591 2.43826 28.6225 2.39411" stroke="#303030" stroke-width="0.4" stroke-linecap="round"/>
</svg>
