<svg width="42" height="33" viewBox="0 0 42 33" fill="none" xmlns="http://www.w3.org/2000/svg">
<path d="M8.469 27.2899L5.59145 26.4423C5.59145 26.4423 5.58207 26.4364 5.58231 26.4339L12.2547 3.55976L15.2752 4.4492L8.48049 27.2873C8.48049 27.2873 8.47382 27.2917 8.469 27.2899Z" fill="#5BA27E" stroke="#303030" stroke-width="0.4" stroke-miterlimit="10"/>
<path d="M7.55826 27.0185L6.48358 26.7019C6.48358 26.7019 6.48025 26.6978 6.48173 26.6955L13.1929 3.83272L14.3209 4.1647L7.5637 27.0141C7.5637 27.0141 7.56073 27.0188 7.55826 27.0185Z" fill="#76C69D" stroke="#303030" stroke-width="0.3" stroke-miterlimit="10"/>
<path d="M5.58201 26.4502L5.83297 30.9305L8.47278 27.3028C8.47278 27.3028 8.47266 27.2916 8.46538 27.2896L5.59387 26.4439C5.58782 26.442 5.58127 26.4451 5.58077 26.45L5.58201 26.4502Z" fill="#E5CEAE" stroke="#303030" stroke-width="0.4" stroke-miterlimit="10"/>
<path d="M5.73633 29.0171L5.83297 30.9306L6.95166 29.3741L5.73633 29.0171Z" fill="#303030" stroke="#303030" stroke-width="0.4" stroke-miterlimit="10"/>
<path d="M14.8616 2.00377C15.4379 2.17353 15.7692 2.77966 15.5991 3.35715L15.2782 4.44663L15.2751 4.44831L12.2602 3.56023L12.2586 3.55715L12.5802 2.46529C12.7496 1.89018 13.3539 1.56092 13.929 1.73033L14.8616 2.00377Z" fill="#BED5E8" stroke="#303030" stroke-width="0.4" stroke-miterlimit="10"/>
<path d="M33.0106 14.2022C27.3213 8.68647 18.7029 10.8456 19.6338 15.9428C22.3436 30.7813 13.2159 26.947 13.2159 26.947" stroke="#303030" stroke-width="0.4"/>
<circle cx="0.345444" cy="0.345444" r="0.295444" transform="matrix(-0.98373 0.179652 0.179652 0.98373 19.8488 15.3351)" fill="#A9DBC2" stroke="#303030" stroke-width="0.1"/>
<circle cx="0.345444" cy="0.345444" r="0.295444" transform="matrix(-0.98373 0.179652 0.179652 0.98373 33.1532 13.6783)" fill="#A9DBC2" stroke="#303030" stroke-width="0.1"/>
<circle cx="0.345444" cy="0.345444" r="0.295444" transform="matrix(-0.98373 0.179652 0.179652 0.98373 13.4784 26.4619)" fill="#A9DBC2" stroke="#303030" stroke-width="0.1"/>
<rect x="0.0168553" y="0.0686724" width="0.458067" height="0.458067" transform="matrix(-0.518171 0.855277 0.855277 0.518171 22.0486 29.5264)" fill="#A9DBC2" stroke="#303030" stroke-width="0.1"/>
<rect x="0.0169151" y="0.0686577" width="0.458066" height="0.458066" transform="matrix(-0.517426 0.855728 0.855728 0.517426 18.5688 10.7162)" fill="#A9DBC2" stroke="#303030" stroke-width="0.1"/>
<rect x="0.0169151" y="0.0686577" width="0.458066" height="0.458066" transform="matrix(-0.517426 0.855728 0.855728 0.517426 26.4399 7.11277)" fill="#A9DBC2" stroke="#303030" stroke-width="0.1"/>
<path d="M32.8754 14.0801L26.7742 7.59243" stroke="#303030" stroke-width="0.2"/>
<line y1="-0.1" x2="18.5803" y2="-0.1" transform="matrix(-0.179652 -0.98373 -0.98373 0.179652 22.0132 29.6375)" stroke="#303030" stroke-width="0.2"/>
<path d="M38.8547 27.8717L35.0621 28.7189L34.803 27.5593C33.7303 27.2074 32.1611 26.1297 31.8473 24.603C31.5336 23.0763 33.2303 19.0801 34.1831 15.9674C36.394 18.4361 39.6638 21.4108 39.9715 22.7882C40.2792 24.1656 39.4174 25.8743 38.5956 26.7121L38.8547 27.8717Z" fill="#D3E6F6" stroke="#303030" stroke-width="0.4"/>
<line x1="34.2833" y1="16.2873" x2="35.6693" y2="22.5588" stroke="#303030" stroke-width="0.4"/>
<circle cx="35.8475" cy="23.3427" r="0.812659" transform="rotate(-12.592 35.8475 23.3427)" stroke="#303030" stroke-width="0.4"/>
</svg>
