<svg width="40" height="42" viewBox="0 0 40 42" fill="none" xmlns="http://www.w3.org/2000/svg">
<g clip-path="url(#clip0_3335_43)">
<path d="M5.1635 27.4552C5.78137 30.5439 3.56778 33.734 2.38375 34.9429C1.92562 35.453 0.868469 37.1814 1.01356 37.9068C1.15865 38.6323 14.0716 41.3889 15.0388 40.9537C16.0061 40.5184 15.9527 39.6479 16.2912 37.9068C16.6298 36.1657 19.5366 32.1032 21.3744 31.5713C23.2122 31.0393 29.4993 23.7365 31.3371 23.1561C33.1749 22.5757 36.4696 18.4116 38.2129 16.653C39.8001 15.052 37.2819 13.822 35.3996 14.1606C32.8651 14.6164 29.2575 17.4976 28.6772 18.5132C28.0968 19.5289 26.5492 18.9969 25.9205 18.9969C25.8121 18.9969 25.7339 18.9696 25.6787 18.91C25.4137 18.6239 25.6787 17.5943 25.6787 15.2729C25.6787 13.0289 23.4862 11.9198 22.39 11.6457C22.4384 10.5817 22.6415 8.18292 23.0671 7.09959C23.295 6.51937 23.4519 6.3387 23.7775 6.28366C24.2117 6.21024 24.946 6.36037 26.5492 6.08396C29.3543 5.60033 29.2092 4.39126 29.5961 3.51672C29.983 2.64219 27.2747 1.9724 25.6787 1.15023C24.0827 0.328056 19.8305 3.13074 18.7497 3.51672C17.669 3.90271 17.1286 9.46693 16.897 10.0851C16.6654 10.7033 15.2759 10.0079 13.8091 10.0851C12.3424 10.1623 8.94575 13.4817 8.09659 14.4081C7.24743 15.3344 4.39116 23.5945 5.1635 27.4552Z" fill="#D6B689"/>
<path d="M23.0671 7.09958C22.6415 8.18292 22.4384 10.5817 22.39 11.6457M23.0671 7.09958C22.68 7.33173 20.8747 7.19631 20.0205 7.09958M23.0671 7.09958C23.295 6.51937 23.4519 6.3387 23.7775 6.28366M22.39 11.6457C23.4862 11.9198 25.6787 13.0289 25.6787 15.2729C25.6787 17.5943 25.4137 18.6239 25.6787 18.91M22.39 11.6457C21.5429 11.5167 19.6289 11.2491 18.7497 11.2104M11.2668 33.3607C12.6048 32.1516 15.2809 29.6754 15.2809 29.4433M8.09659 20.883C9.15552 21.7213 11.7805 23.1464 13.8091 22.1405C12.9821 23.2367 12.0701 25.4388 15.0388 25.4775C16.668 25.4988 17.7549 25.2496 18.4236 24.8243M13.4915 15.8533C16.3364 17.2955 17.7345 18.3988 18.4236 19.3114M16.897 20.1576C17.4924 19.9804 18.6314 19.563 18.4236 19.3114M18.4236 19.3114C19.4214 20.6329 18.933 21.5548 19.1983 22.5274C19.4499 23.4498 19.2781 24.2809 18.4236 24.8243M15.2809 13.145C17.6506 13.9994 22.39 16.1822 22.39 18.078C22.39 19.5879 22.5668 20.9605 22.4574 21.9328M18.4236 24.8243C20.4056 25.477 20.9877 23.8332 21.9066 23.1561C22.24 22.9104 22.3951 22.4865 22.4574 21.9328M22.4574 21.9328C23.7444 21.9328 24.8568 22.1405 25.6787 18.91M25.6787 18.91C25.7339 18.9696 25.8121 18.9969 25.9205 18.9969C26.5492 18.9969 28.0968 19.5289 28.6772 18.5132C29.2575 17.4976 32.8651 14.6164 35.3996 14.1606C37.2819 13.822 39.8001 15.052 38.2129 16.653C36.4696 18.4116 33.1749 22.5757 31.3371 23.1561C29.4993 23.7365 23.2122 31.0393 21.3744 31.5713C19.5366 32.1032 16.6298 36.1657 16.2912 37.9068C15.9527 39.6479 16.0061 40.5184 15.0388 40.9537C14.0716 41.3889 1.15865 38.6323 1.01356 37.9068C0.868469 37.1814 1.92562 35.453 2.38375 34.9429C3.56778 33.734 5.78137 30.5439 5.1635 27.4552C4.39116 23.5945 7.24743 15.3344 8.09659 14.4081C8.94575 13.4817 12.3424 10.1623 13.8091 10.0851C15.2759 10.0079 16.6654 10.7033 16.897 10.0851C17.1286 9.46693 17.669 3.90271 18.7497 3.51672C19.8305 3.13074 24.0827 0.328056 25.6787 1.15023C27.2747 1.9724 29.983 2.64219 29.5961 3.51672C29.2092 4.39126 29.3543 5.60033 26.5492 6.08396C24.946 6.36037 24.2117 6.21024 23.7775 6.28366M30.5152 17.8362C30.8095 18.6768 31.6471 20.463 32.6432 20.883M28.0971 19.819C28.0971 20.3575 28.3389 21.6531 29.3062 22.5274M21.9066 4.53635C22.6667 5.04146 24.105 6.09808 23.7775 6.28366M20.0205 18.078C20.3686 17.9244 21.1267 17.5255 21.3744 17.1591M22.4574 14.4081C22.8974 14.116 23.7775 13.4545 23.7775 13.145M23.4059 15.2729C23.8895 14.9183 24.8471 14.1316 24.8084 13.822" stroke="#303030" stroke-width="0.4" stroke-linecap="round"/>
</g>
<defs>
<clipPath id="clip0_3335_43">
<rect width="39.7149" height="42" fill="white"/>
</clipPath>
</defs>
</svg>
