<svg width="42" height="39" viewBox="0 0 42 39" fill="none" xmlns="http://www.w3.org/2000/svg">
<path d="M24.0637 29.1737C19.1265 33.1928 14.6414 30.4656 13.016 28.5995C3.0078 31.7992 -1.11135 22.3235 3.31132 18.5659C-2.62893 11.8266 4.04843 4.67899 10.2055 6.51696C12.3301 -1.12083 19.6145 0.512924 21.7391 3.45368C28.5032 0.0228004 31.972 4.80152 32.2321 7.74227C38.9788 8.75997 38.2316 15.8117 35.3106 18.1166C37.9122 23.606 33.3595 25.4957 30.7579 25.7544C30.2029 30.1982 26.0638 29.8855 24.0637 29.1737Z" fill="#76C69D" stroke="#303030" stroke-width="0.4"/>
<path d="M34.5289 28.1995C33.074 28.1997 31.9264 29.2729 31.9263 30.5598C31.9263 31.8468 33.0739 32.9209 34.5289 32.9211C35.9841 32.9211 37.1324 31.8469 37.1324 30.5598C37.1323 29.2728 35.984 28.1995 34.5289 28.1995Z" fill="#76C69D" stroke="#303030" stroke-width="0.4"/>
<path d="M38.7354 34.0562C37.5758 34.0564 36.6721 34.8997 36.6719 35.898C36.6719 36.8965 37.5756 37.7406 38.7354 37.7408C39.8953 37.7408 40.7998 36.8966 40.7998 35.898C40.7996 34.8996 39.8951 34.0562 38.7354 34.0562Z" fill="#76C69D" stroke="#303030" stroke-width="0.4"/>
</svg>
