<svg width="42" height="39" viewBox="0 0 42 39" fill="none" xmlns="http://www.w3.org/2000/svg">
<path d="M24.0637 29.1736C19.1265 33.1928 14.6414 30.4655 13.016 28.5995C3.0078 31.7992 -1.11135 22.3234 3.31132 18.5658C-2.62893 11.8266 4.04843 4.67893 10.2055 6.5169C12.3301 -1.12089 19.6145 0.512863 21.7391 3.45362C28.5032 0.0227394 31.972 4.80146 32.2321 7.74221C38.9788 8.75991 38.2316 15.8116 35.3106 18.1165C37.9122 23.6059 33.3595 25.4956 30.7579 25.7543C30.2029 30.1981 26.0638 29.8854 24.0637 29.1736Z" fill="#BED5E8" stroke="#303030" stroke-width="0.4"/>
<path d="M34.5289 28.1996C33.074 28.1998 31.9264 29.273 31.9263 30.5599C31.9263 31.8469 33.0739 32.9211 34.5289 32.9213C35.9841 32.9213 37.1324 31.8471 37.1324 30.5599C37.1323 29.2729 35.984 28.1996 34.5289 28.1996Z" fill="#BED5E8" stroke="#303030" stroke-width="0.4"/>
<path d="M38.7354 34.0563C37.5758 34.0565 36.6721 34.8997 36.6719 35.8981C36.6719 36.8966 37.5756 37.7406 38.7354 37.7408C39.8953 37.7408 40.7998 36.8967 40.7998 35.8981C40.7996 34.8996 39.8951 34.0563 38.7354 34.0563Z" fill="#BED5E8" stroke="#303030" stroke-width="0.4"/>
</svg>
