<svg width="42" height="39" viewBox="0 0 42 39" fill="none" xmlns="http://www.w3.org/2000/svg">
<path d="M17.9363 29.1737C22.8735 33.1928 27.3586 30.4656 28.984 28.5995C38.9922 31.7992 43.1114 22.3235 38.6887 18.5659C44.6289 11.8266 37.9516 4.67899 31.7945 6.51696C29.6699 -1.12083 22.3855 0.512924 20.2609 3.45368C13.4968 0.0228004 10.028 4.80152 9.76789 7.74227C3.02117 8.75997 3.76837 15.8117 6.68937 18.1166C4.0878 23.606 8.64054 25.4957 11.2421 25.7544C11.7971 30.1982 15.9362 29.8855 17.9363 29.1737Z" fill="#76C69D" stroke="#303030" stroke-width="0.4"/>
<path d="M7.4711 28.1995C8.92602 28.1997 10.0735 29.2729 10.0736 30.5598C10.0736 31.8468 8.92608 32.9209 7.4711 32.9211C6.01592 32.9211 4.86758 31.8469 4.86758 30.5598C4.86768 29.2728 6.01598 28.1995 7.4711 28.1995Z" fill="#76C69D" stroke="#303030" stroke-width="0.4"/>
<path d="M3.26465 34.0562C4.4242 34.0564 5.32788 34.8997 5.32812 35.898C5.32812 36.8965 4.42435 37.7406 3.26465 37.7408C2.10473 37.7408 1.2002 36.8966 1.2002 35.898C1.20044 34.8996 2.10488 34.0562 3.26465 34.0562Z" fill="#76C69D" stroke="#303030" stroke-width="0.4"/>
</svg>
