<svg width="42" height="39" viewBox="0 0 42 39" fill="none" xmlns="http://www.w3.org/2000/svg">
<path d="M17.9363 29.1736C22.8735 33.1928 27.3586 30.4655 28.984 28.5995C38.9922 31.7992 43.1114 22.3234 38.6887 18.5658C44.6289 11.8266 37.9516 4.67893 31.7945 6.5169C29.6699 -1.12089 22.3855 0.512863 20.2609 3.45362C13.4968 0.0227394 10.028 4.80146 9.76789 7.74221C3.02117 8.75991 3.76837 15.8116 6.68937 18.1165C4.0878 23.6059 8.64054 25.4956 11.2421 25.7543C11.7971 30.1981 15.9362 29.8854 17.9363 29.1736Z" fill="#BED5E8" stroke="#303030" stroke-width="0.4"/>
<path d="M7.4711 28.1996C8.92602 28.1998 10.0735 29.273 10.0736 30.5599C10.0736 31.8469 8.92608 32.9211 7.4711 32.9213C6.01592 32.9213 4.86758 31.8471 4.86758 30.5599C4.86768 29.2729 6.01598 28.1996 7.4711 28.1996Z" fill="#BED5E8" stroke="#303030" stroke-width="0.4"/>
<path d="M3.26465 34.0563C4.4242 34.0565 5.32788 34.8997 5.32812 35.8981C5.32812 36.8966 4.42435 37.7406 3.26465 37.7408C2.10473 37.7408 1.2002 36.8967 1.2002 35.8981C1.20044 34.8996 2.10488 34.0563 3.26465 34.0563Z" fill="#BED5E8" stroke="#303030" stroke-width="0.4"/>
</svg>
