<svg width="42" height="42" viewBox="0 0 42 42" fill="none" xmlns="http://www.w3.org/2000/svg">
<path d="M21 41C32.0457 41 41 32.0457 41 21C41 9.9543 32.0457 1 21 1C9.9543 1 1 9.9543 1 21C1 32.0457 9.9543 41 21 41Z" fill="#76C69D" stroke="#303030" stroke-width="0.4" stroke-miterlimit="10"/>
<path d="M38.4066 11.301C36.8982 10.1768 35.3955 11.2656 34.508 12.6005C33.9859 13.4377 33.6895 14.355 33.3595 15.3133C32.5205 18.0056 31.3533 20.7687 29.5858 23.0396C26.8488 26.5895 22.4263 30.0239 17.9442 30.8461C11.4261 32.1736 5.18759 27.9077 3.44805 21.604C2.91109 19.5102 2.88685 17.2747 3.28025 15.1586C3.81721 12.3526 5.20437 9.79082 6.91967 7.55161C7.77545 6.44039 8.71141 5.40003 9.6716 4.39136L9.83754 4.54051C8.9426 5.60139 8.07749 6.68836 7.30374 7.82941C5.76184 10.0761 4.54621 12.6043 4.17146 15.3096C3.59721 19.2809 4.7569 23.4759 7.74562 26.2129C9.60261 28.0103 12.0954 29.1625 14.687 29.2594C17.9759 29.4086 21.028 27.7996 23.5264 25.7673C25.0869 24.5349 26.5673 23.1813 27.8351 21.6487C29.129 20.1218 30.1564 18.4102 31.0215 16.6035C31.6423 15.3394 32.1513 14.038 32.9027 12.8038C33.5553 11.756 34.5099 10.8256 35.6807 10.3968L35.8187 10.3464L35.9641 10.3129C36.0611 10.2905 36.158 10.2663 36.255 10.2495C36.736 10.1954 37.2655 10.2495 37.6943 10.4602C38.0374 10.6298 38.3357 10.8498 38.5744 11.1519L38.4084 11.3029L38.4066 11.301Z" fill="#303030"/>
</svg>
