<svg width="30" height="42" viewBox="0 0 30 42" fill="none" xmlns="http://www.w3.org/2000/svg">
<path d="M17.0283 19.3455C21.55 14.5957 24.065 8.96852 25.402 2.73991C25.402 2.73991 20.2822 2.60152 14.5158 2.41699L3.63049 2.73991C4.96745 8.96852 7.50298 14.5957 12.0239 19.3455C12.738 20.0614 12.8482 21.9349 12.0239 22.7593C7.50298 27.5117 4.96745 33.1388 3.63049 39.3649L14.5158 39.6878C20.2822 39.5033 25.402 39.3649 25.402 39.3649C24.065 33.1388 21.55 27.5117 17.0283 22.7593C16.2483 21.9784 16.2483 20.1289 17.0283 19.3455Z" fill="#EAEAEA" stroke="#303030" stroke-width="0.4"/>
<path d="M8.26927 11.873C8.26671 11.8705 8.265 11.8662 8.26671 11.8619C8.26671 11.8568 8.26671 11.8525 8.26927 11.8474C8.2744 11.8457 8.27611 11.8406 8.28123 11.8406C8.2855 11.8389 8.29063 11.8389 8.2949 11.8389L18.636 14.4017C18.6377 14.4043 18.6429 14.406 18.6446 14.4086C18.6471 14.4086 18.6497 14.4137 18.6514 14.4154C18.6514 14.4205 18.654 14.4222 18.654 14.4274C18.6514 14.4291 18.6514 14.4342 18.6497 14.4367C17.2803 16.9005 17.2752 16.956 15.5273 19.0687C15.3496 19.2908 15.2505 19.5676 15.2505 19.8538V30.2317C15.2548 30.4162 15.2992 30.599 15.3769 30.7647C15.4555 30.9339 15.5709 31.0817 15.7118 31.2013C19.1572 33.9563 21.8687 36.8011 24.6237 39.6946C24.628 39.6971 24.6306 39.7023 24.6306 39.7065C24.6306 39.7108 24.6306 39.7159 24.628 39.7202C24.628 39.7253 24.6237 39.727 24.6212 39.7296C24.6169 39.7322 24.6118 39.7339 24.6075 39.7339H3.50065C3.49637 39.7339 3.49125 39.7322 3.48698 39.7296C3.4827 39.727 3.48014 39.7228 3.47758 39.7202C3.47758 39.7159 3.47502 39.7108 3.47758 39.7065C3.47758 39.7023 3.48014 39.6971 3.48442 39.6946C6.42231 36.8481 9.45673 34.0486 13.313 31.3841C13.4787 31.2705 13.618 31.121 13.7119 30.945C13.8093 30.7673 13.8623 30.5708 13.8674 30.37V19.6693C13.8742 19.4933 13.8392 19.3207 13.7658 19.161C13.694 18.9995 13.5881 18.8585 13.4539 18.7458H13.4514C11.4814 16.8655 9.78392 14.3462 8.26927 11.873Z" fill="#76C69D" stroke="#303030" stroke-width="0.4"/>
<path d="M26.613 38.166H2.41703C1.63446 38.166 1.00006 38.8004 1.00006 39.583V39.583C1.00006 40.3656 1.63446 40.9999 2.41703 40.9999H26.613C27.3956 40.9999 28.03 40.3656 28.03 39.583C28.03 38.8004 27.3956 38.166 26.613 38.166Z" fill="#7F99AE" stroke="#303030" stroke-width="0.4"/>
<path d="M26.613 1H2.41696C1.6344 1 1 1.6344 1 2.41696V2.41697C1 3.19954 1.6344 3.83393 2.41696 3.83393H26.613C27.3955 3.83393 28.0299 3.19954 28.0299 2.41696C28.0299 1.6344 27.3955 1 26.613 1Z" fill="#7F99AE" stroke="#303030" stroke-width="0.4"/>
</svg>
