<svg width="30" height="42" viewBox="0 0 30 42" fill="none" xmlns="http://www.w3.org/2000/svg">
<path d="M25.128 38.1661C23.7318 32.4156 21.258 27.2047 17.0283 22.7593C16.2483 21.9785 16.2483 20.1289 17.0283 19.3456C21.2837 14.8754 23.7619 9.62824 25.1534 3.83398" stroke="#303030" stroke-width="0.4"/>
<path d="M3.87933 3.83398C5.27298 9.62824 7.76922 14.8754 12.0239 19.3456C12.7381 20.0615 12.8483 21.9349 12.0239 22.7593C7.79498 27.2047 5.30327 32.4156 3.90477 38.1661" stroke="#303030" stroke-width="0.4"/>
<path d="M5.08081 38.166C7.53872 35.8469 10.1493 33.5701 13.313 31.3841C13.4787 31.2705 13.618 31.121 13.7119 30.945C13.8093 30.7673 13.8623 30.5708 13.8674 30.37V19.6693C13.8743 19.4933 13.8392 19.3207 13.7658 19.161C13.694 18.9995 13.5881 18.8585 13.4539 18.7458H13.4514C11.4814 16.8655 9.78393 14.3462 8.26928 11.873C8.26672 11.8705 8.26501 11.8662 8.26672 11.8619C8.26672 11.8568 8.26672 11.8525 8.26928 11.8474C8.27441 11.8457 8.27611 11.8406 8.28124 11.8406C8.28551 11.8389 8.29064 11.8389 8.29491 11.8389L18.636 14.4017C18.6378 14.4043 18.6429 14.406 18.6446 14.4086C18.6472 14.4086 18.6497 14.4137 18.6514 14.4154C18.6514 14.4205 18.654 14.4222 18.654 14.4274C18.6514 14.4291 18.6514 14.4342 18.6497 14.4368C17.2803 16.9005 17.2752 16.956 15.5273 19.0687C15.3496 19.2908 15.2505 19.5676 15.2505 19.8538V30.2317C15.2548 30.4162 15.2992 30.599 15.3769 30.7647C15.4555 30.9339 15.5709 31.0817 15.7118 31.2013C18.5486 33.4697 20.8878 35.7989 23.1635 38.166" stroke="#303030" stroke-width="0.4"/>
<path d="M2.41703 38.166H26.613C27.3956 38.166 28.03 38.8004 28.03 39.583V39.583C28.03 40.3655 27.3956 40.9999 26.613 40.9999H2.41703C1.63446 40.9999 1.00006 40.3655 1.00006 39.583V39.583C1.00006 38.8004 1.63446 38.166 2.41703 38.166Z" stroke="#303030" stroke-width="0.4"/>
<path d="M3.87934 3.83393H2.41696C1.6344 3.83393 1 3.19954 1 2.41697C1 1.6344 1.6344 1 2.41696 1H26.613C27.3955 1 28.0299 1.6344 28.0299 2.41696C28.0299 3.19953 27.3955 3.83393 26.613 3.83393H3.87934Z" stroke="#303030" stroke-width="0.4"/>
</svg>
