<svg width="30" height="42" viewBox="0 0 30 42" fill="none" xmlns="http://www.w3.org/2000/svg">
<path d="M17.2845 15.9186C17.1788 15.5468 17.0767 15.1065 16.9977 14.6017C16.8165 13.4436 16.6243 11.0991 16.5125 9.60907" stroke="#303030" stroke-width="0.863402" stroke-miterlimit="10"/>
<path d="M5.59406 17.1361C5.49572 16.784 5.38819 16.3158 5.28824 15.7056C5.10215 14.5696 4.80995 12.1333 4.62122 10.5042" stroke="#303030" stroke-width="0.863402" stroke-miterlimit="10"/>
<path d="M15.1543 1.56542C13.5913 1.4698 11.5626 1.38409 9.69327 1.42234C7.82595 1.46057 5.90335 1.66208 4.4464 1.85387C3.71828 1.94972 3.10653 2.04305 2.67763 2.11251C2.46338 2.14721 2.29434 2.17536 2.1793 2.19536C2.12185 2.20535 2.07744 2.21329 2.04781 2.2186C2.03316 2.22123 2.02186 2.22329 2.01445 2.22464C2.01099 2.22527 2.0084 2.22608 2.00659 2.22641L2.00463 2.22636L2.00363 2.22731L1.99187 2.22899L1.98013 2.22968C1.83532 2.23598 1.68784 2.31815 1.57072 2.46705C1.45523 2.61401 1.37859 2.81704 1.37167 3.04059L2.14428 10.0024L2.14594 10.0142L2.14564 10.0259C2.13408 10.493 2.41658 10.7778 2.68868 10.7686C2.69722 10.7672 2.70948 10.7659 2.72495 10.7636C2.7585 10.7585 2.80804 10.7513 2.87203 10.7417C3.00059 10.7224 3.18846 10.6942 3.4221 10.66C3.88926 10.5918 4.54314 10.4986 5.29061 10.3979C6.78556 10.1966 8.65841 9.96566 10.1604 9.84897C11.6623 9.73229 13.6313 9.66443 15.2223 9.62598C16.0178 9.60675 16.7197 9.59493 17.2229 9.58778C17.4746 9.5842 17.677 9.58193 17.8161 9.58045C17.8856 9.57971 17.9399 9.57972 17.9763 9.57939C17.9943 9.57923 18.0081 9.57849 18.0173 9.57842L18.0252 9.5786C18.1699 9.57231 18.3175 9.491 18.4345 9.34221C18.5221 9.23089 18.5881 9.08687 18.6179 8.92655L18.6347 8.76187L18.3813 2.5226L18.3803 2.52258L18.3805 2.51184C18.3915 2.07585 18.1159 1.80901 17.8083 1.76652L17.8063 1.76647C17.8043 1.76628 17.8014 1.76565 17.7976 1.76529C17.7892 1.7645 17.776 1.76297 17.7596 1.76145C17.7268 1.7584 17.6783 1.75387 17.6153 1.74824C17.4885 1.7369 17.3028 1.72108 17.0685 1.70197C16.5997 1.66374 15.9355 1.61321 15.1543 1.56542Z" stroke="#303030" stroke-width="0.345361"/>
<path d="M13.8786 39.2371L13.8786 24.2986C13.8786 23.7174 13.7855 23.2048 13.6199 22.7533M6.32281 19.9525L6.25641 20.0096L6.22618 20.2997L5.21705 32.7018" stroke="#303030" stroke-width="1.03608" stroke-miterlimit="10"/>
<path d="M26.6996 36.4778L26.4046 22.6057C26.4045 21.8926 26.2511 21.526 26.0141 21.0233M18.0126 31.5814L18.0126 22.2733" stroke="#303030" stroke-width="1.03608" stroke-miterlimit="10"/>
<path d="M18.4116 15.8421C16.2073 16.0116 4.0904 17.3121 3.68408 17.348C3.67315 17.3489 3.64004 17.3578 3.6001 17.4359C3.56127 17.5118 3.53339 17.6237 3.52295 17.7503C3.51266 17.8754 3.51996 18.0021 3.54248 18.1028C3.55373 18.1532 3.5682 18.1928 3.58252 18.221C3.59719 18.2499 3.60792 18.2581 3.60791 18.2581C4.78497 19.0727 10.2977 22.3707 10.8853 22.7249C11.1604 22.8907 11.3818 22.967 11.5864 22.9974C11.7932 23.028 11.9929 23.0136 12.2329 22.9837C15.8736 22.5301 19.7898 21.9746 22.7954 21.5325C24.2979 21.3115 25.5729 21.1191 26.4722 20.9818C26.9219 20.913 27.2777 20.8583 27.521 20.8206C27.6427 20.8018 27.7362 20.7865 27.7993 20.7767C27.8307 20.7718 27.8546 20.7684 27.8706 20.7659C27.8786 20.7647 27.8851 20.7636 27.8892 20.763C27.8911 20.7627 27.8931 20.7622 27.894 20.762C27.8963 20.7604 27.9006 20.7566 27.9067 20.7493C27.9234 20.7298 27.9442 20.6949 27.9644 20.6409C28.0046 20.5331 28.0315 20.3809 28.0356 20.2171C28.0398 20.054 28.0214 19.8921 27.9819 19.765C27.9402 19.6308 27.8862 19.5711 27.8481 19.553C26.1553 18.7544 24.1962 17.9281 22.6099 17.2737C21.8161 16.9463 21.1186 16.6634 20.5913 16.4466C20.0732 16.2336 19.7065 16.0792 19.5962 16.0169C19.249 15.8208 18.9681 15.7993 18.4116 15.8421Z" stroke="#303030" stroke-width="0.345361"/>
<path d="M5.80869 32.6757L4.6392 32.6404C4.57473 32.6385 4.52196 32.6577 4.48882 32.6821C4.4725 32.6942 4.46215 32.7061 4.45604 32.7169L4.44701 32.7449L4.41828 34.0641C4.4181 34.0793 4.42478 34.1038 4.45647 34.1302C4.48897 34.1571 4.54147 34.1794 4.60577 34.1813L5.77525 34.2167C5.83987 34.2186 5.89251 34.1995 5.92563 34.175C5.94202 34.1628 5.95232 34.151 5.95842 34.1401L5.96647 34.1121L5.99618 32.7929C5.99635 32.7776 5.989 32.7533 5.95701 32.7268C5.92455 32.6999 5.8729 32.6777 5.80869 32.6757Z" stroke="#303030" stroke-width="0.345361"/>
<path d="M18.5853 31.5022L17.4145 31.5235C17.3485 31.5248 17.2963 31.5466 17.2646 31.5716C17.2337 31.5959 17.2288 31.6162 17.2289 31.6256L17.2671 32.8919C17.2675 32.9012 17.2739 32.923 17.3077 32.9472C17.3416 32.9714 17.3957 32.9902 17.4614 32.989L18.6311 32.9677C18.6975 32.9664 18.7503 32.9446 18.7821 32.9196C18.8129 32.8953 18.8168 32.8749 18.8168 32.8656L18.7785 31.5992C18.7782 31.59 18.7728 31.5681 18.739 31.5439C18.7051 31.5197 18.651 31.501 18.5853 31.5022Z" stroke="#303030" stroke-width="0.345361"/>
<path d="M14.4513 39.1324L13.2374 39.1461C13.1267 39.1474 13.0686 39.1988 13.047 39.2418L13.0372 39.2799L13.0655 40.6969C13.0666 40.7388 13.1248 40.8284 13.2716 40.8268L14.4855 40.8131C14.6323 40.8114 14.6857 40.7215 14.6857 40.6803L14.6573 39.2633C14.6564 39.2215 14.5983 39.1308 14.4513 39.1324Z" stroke="#303030" stroke-width="0.345361"/>
<path d="M27.3044 36.3925L26.0905 36.4033C25.9764 36.4044 25.9204 36.4558 25.8998 36.4956L25.89 36.5288L25.9149 37.9127C25.9159 37.9476 25.9701 38.0374 26.1206 38.0362L27.3345 38.0254C27.4486 38.0243 27.5046 37.9729 27.5252 37.933L27.535 37.8999L27.5101 36.516C27.5091 36.4811 27.455 36.3912 27.3044 36.3925Z" stroke="#303030" stroke-width="0.345361"/>
</svg>
