<svg width="42" height="42" viewBox="0 0 42 42" fill="none" xmlns="http://www.w3.org/2000/svg">
<path d="M8.27065 6.56995L9.42085 8.00804" stroke="#303030" stroke-width="0.229102" stroke-miterlimit="10"/>
<path d="M17.3257 5.27549L17.3437 3.43357" stroke="#303030" stroke-width="0.229102" stroke-miterlimit="10"/>
<path d="M20.8049 15.3408C20.8049 15.3408 19.3214 16.4032 17.0222 17.1979C14.7229 17.9927 12.9001 18.0733 12.9001 18.0733L9.25266 7.52161C9.25266 7.52161 11.368 7.34493 13.3675 6.62536C15.4103 5.89083 17.1575 4.78913 17.1575 4.78913L20.8049 15.3408Z" stroke="#303030" stroke-width="0.229102" stroke-miterlimit="10"/>
<path d="M19.1762 10.629C19.3392 11.1005 17.7016 12.0941 15.5188 12.8487C13.3359 13.6032 11.4343 13.8329 11.2714 13.3615" stroke="#303030" stroke-width="0.229102" stroke-miterlimit="10"/>
<path d="M18.992 10.0963C19.155 10.5677 17.5175 11.5614 15.3346 12.3159C13.1518 13.0705 11.2502 13.3002 11.0872 12.8287" stroke="#303030" stroke-width="0.229102" stroke-miterlimit="10"/>
<path d="M18.8146 9.58308C18.9776 10.0546 17.34 11.0482 15.1572 11.8028C12.9743 12.5573 11.0728 12.787 10.9098 12.3156" stroke="#303030" stroke-width="0.229102" stroke-miterlimit="10"/>
<path d="M18.6249 9.03388C18.7878 9.50537 17.1503 10.499 14.9675 11.2536C12.7846 12.0081 10.883 12.2378 10.72 11.7664" stroke="#303030" stroke-width="0.229102" stroke-miterlimit="10"/>
<path d="M18.4407 8.50129C18.6037 8.97277 16.9662 9.96642 14.7833 10.721C12.6005 11.4755 10.6989 11.7052 10.5359 11.2338" stroke="#303030" stroke-width="0.229102" stroke-miterlimit="10"/>
<path d="M18.2633 7.98811C18.4263 8.45959 16.7887 9.45324 14.6059 10.2078C12.423 10.9623 10.5215 11.1921 10.3585 10.7206" stroke="#303030" stroke-width="0.229102" stroke-miterlimit="10"/>
<path d="M19.7177 12.1956C19.8807 12.6671 18.2432 13.6608 16.0603 14.4153C13.8775 15.1699 11.9759 15.3996 11.8129 14.9281" stroke="#303030" stroke-width="0.229102" stroke-miterlimit="10"/>
<path d="M19.5336 11.6629C19.6966 12.1344 18.0591 13.128 15.8762 13.8826C13.6934 14.6371 11.7918 14.8669 11.6288 14.3954" stroke="#303030" stroke-width="0.229102" stroke-miterlimit="10"/>
<path d="M20.0762 13.2326C20.2392 13.7041 18.6016 14.6977 16.4188 15.4523C14.2359 16.2068 12.3344 16.4366 12.1714 15.9651" stroke="#303030" stroke-width="0.229102" stroke-miterlimit="10"/>
<path d="M20.2468 13.7214C20.4098 14.1929 18.7722 15.1865 16.5894 15.9411C14.4065 16.6956 12.5049 16.9253 12.342 16.4539" stroke="#303030" stroke-width="0.229102" stroke-miterlimit="10"/>
<path d="M20.4067 14.184C20.5697 14.6555 18.9322 15.6492 16.7493 16.4037C14.5665 17.1583 12.6649 17.388 12.5019 16.9165" stroke="#303030" stroke-width="0.229102" stroke-miterlimit="10"/>
<path d="M19.8921 12.6999C20.0551 13.1714 18.4175 14.165 16.2347 14.9196C14.0518 15.6741 12.1502 15.9039 11.9873 15.4324" stroke="#303030" stroke-width="0.229102" stroke-miterlimit="10"/>
<path d="M19.3561 11.1496C19.5191 11.6211 17.8816 12.6147 15.6987 13.3693C13.5159 14.1238 11.6143 14.3536 11.4513 13.8821" stroke="#303030" stroke-width="0.229102" stroke-miterlimit="10"/>
<path d="M18.0776 7.45087C18.2406 7.92236 16.6031 8.91601 14.4202 9.67056C12.2374 10.4251 10.3358 10.6548 10.1728 10.1833" stroke="#303030" stroke-width="0.229102" stroke-miterlimit="10"/>
<path d="M17.8935 6.91828C18.0565 7.38977 16.419 8.38341 14.2361 9.13797C12.0533 9.89252 10.1517 10.1222 9.98869 9.65076" stroke="#303030" stroke-width="0.229102" stroke-miterlimit="10"/>
<path d="M17.7161 6.40498C17.8791 6.87646 16.2415 7.87011 14.0587 8.62466C11.8758 9.37921 9.97424 9.60894 9.81126 9.13745" stroke="#303030" stroke-width="0.229102" stroke-miterlimit="10"/>
<path d="M17.5525 5.92695C17.7155 6.39843 16.078 7.39208 13.8951 8.14663C11.7123 8.90118 9.81068 9.13091 9.64771 8.65942" stroke="#303030" stroke-width="0.229102" stroke-miterlimit="10"/>
<path d="M17.3736 5.41437C17.5366 5.88586 15.8991 6.87951 13.7162 7.63406C11.5334 8.38861 9.63176 8.61833 9.46878 8.14685" stroke="#303030" stroke-width="0.229102" stroke-miterlimit="10"/>
<path d="M17.2261 4.98749C17.3891 5.45898 15.7516 6.45263 13.5687 7.20718C11.3859 7.96173 9.48427 8.19145 9.32129 7.71997" stroke="#303030" stroke-width="0.229102" stroke-miterlimit="10"/>
<path d="M17.0561 1.94456L17.461 3.11582C17.624 3.5873 15.6343 4.70267 13.0158 5.60782C10.3973 6.51297 8.14358 6.86441 7.9806 6.39293L7.57573 5.22168" stroke="#303030" stroke-width="0.229102" stroke-miterlimit="10"/>
<path d="M12.6321 4.49774C15.2501 3.59279 17.2285 2.44302 17.051 1.92965C16.8735 1.41628 14.6074 1.73371 11.9895 2.63866C9.37153 3.54361 7.39313 4.69339 7.57058 5.20676C7.74804 5.72013 10.0142 5.40269 12.6321 4.49774Z" stroke="#303030" stroke-width="0.229102" stroke-miterlimit="10"/>
<path d="M22.0667 16.4398L22.4716 17.6111C22.6346 18.0825 20.6449 19.1979 18.0264 20.1031C15.4079 21.0082 13.1542 21.3597 12.9912 20.8882L12.5863 19.7169" stroke="#303030" stroke-width="0.229102" stroke-miterlimit="10"/>
<path d="M20.8013 15.3304L22.0615 16.4248C22.239 16.9381 20.2612 18.0877 17.6426 18.9929C15.0241 19.898 12.7585 20.2152 12.5811 19.7019L12.8965 18.0629" stroke="#303030" stroke-width="0.229102" stroke-miterlimit="10"/>
<path d="M12.4346 3.92623C13.4423 3.57786 14.2039 3.13514 14.1355 2.93737C14.0672 2.7396 13.1948 2.86169 12.187 3.21005C11.1792 3.55842 10.4176 4.00114 10.486 4.19891C10.5544 4.39668 11.4268 4.27459 12.4346 3.92623Z" stroke="#303030" stroke-width="0.229102" stroke-miterlimit="10"/>
<path d="M29.7745 2.42029C29.7745 2.42029 28.3479 5.82897 24.3775 5.82897C20.8199 5.69426 18.0434 7.24925 18.0434 7.24925" stroke="#303030" stroke-width="0.247635" stroke-miterlimit="10"/>
<path d="M12.163 15.4869C12.163 15.4869 9.0384 16.8504 6.76596 17.7594C1.08483 20.0319 -2.69935 26.5168 6.76596 31.1101C12.521 33.9016 9.61752 37.5557 15.17 40.1999C21.7725 43.3452 27.9316 34.6558 33.9065 36.1296" stroke="#303030" stroke-width="0.247635" stroke-miterlimit="10"/>
<path d="M36.1552 32.0165L33.2384 31.4675C33.2384 31.4675 33.2286 31.4626 33.2286 31.4601L37.5283 8.28015L40.5901 8.85615L36.1663 32.0128C36.1663 32.0128 36.1602 32.0177 36.1552 32.0165Z" stroke="#303030" stroke-width="0.247635" stroke-miterlimit="10"/>
<path d="M35.2317 31.8395L34.1423 31.6344C34.1423 31.6344 34.1386 31.6308 34.1398 31.6283L38.4789 8.45569L39.6223 8.67061L35.2366 31.8346C35.2366 31.8346 35.2341 31.8395 35.2317 31.8395Z" stroke="#303030" stroke-width="0.247635" stroke-miterlimit="10"/>
<path d="M33.2298 31.476L33.9212 35.8617L36.1602 32.0287C36.1602 32.0287 36.1589 32.0176 36.1516 32.0164L33.2409 31.4686C33.2347 31.4674 33.2286 31.4711 33.2286 31.476H33.2298Z" stroke="#303030" stroke-width="0.247635" stroke-miterlimit="10"/>
<path d="M33.6363 33.9877L33.9213 35.8618L34.8682 34.2186L33.6363 33.9877Z" stroke="#303030" stroke-width="0.247635" stroke-miterlimit="10"/>
<path d="M38.9941 6.31159L39.9403 6.48971C40.5245 6.59966 40.9107 7.1635 40.8005 7.74887L40.5927 8.85323C40.5927 8.85323 40.591 8.85542 40.5898 8.85519L37.5338 8.27996C37.5338 8.27996 37.5316 8.2783 37.5318 8.2771L37.7402 7.17032C37.8499 6.58737 38.4121 6.2033 38.995 6.31303L38.9941 6.31159Z" stroke="#303030" stroke-width="0.247635" stroke-miterlimit="10"/>
</svg>
