<svg width="42" height="36" viewBox="0 0 42 36" fill="none" xmlns="http://www.w3.org/2000/svg">
<g clip-path="url(#clip0_346_70)">
<path d="M14.6741 1.12026L8.7744 2.12659C8.3851 2.193 8.12335 2.56241 8.18975 2.9517L8.25622 3.34138C8.32262 3.73067 8.69204 3.99242 9.08133 3.92602L14.981 2.91969C15.3703 2.85329 15.6321 2.48387 15.5657 2.09458L15.4992 1.7049C15.4328 1.31561 15.0634 1.05386 14.6741 1.12026Z" fill="#BED5E8" stroke="#303030" stroke-width="0.4" stroke-miterlimit="10"/>
<path d="M34.6104 7.95644C34.4633 9.75218 31.823 9.51877 31.823 9.51877L22.1954 8.72681C22.1954 8.72681 21.6449 8.69039 21.6895 8.14667C21.7259 7.69605 22.0443 7.57463 22.2278 7.59082C22.4113 7.60701 29.8978 7.40059 31.2294 7.37225C33.241 7.32908 33.6349 6.07166 34.1287 5.58326C34.4782 5.23788 34.694 6.94322 34.6104 7.95779V7.95644Z" fill="#E5CEAE" stroke="#303030" stroke-width="0.4" stroke-miterlimit="10" stroke-linecap="round"/>
<path d="M9.59826 27.7324C10.9708 27.7324 12.0834 26.6198 12.0834 25.2472C12.0834 23.8747 10.9708 22.7621 9.59826 22.7621C8.22574 22.7621 7.1131 23.8747 7.1131 25.2472C7.1131 26.6198 8.22574 27.7324 9.59826 27.7324Z" stroke="#303030" stroke-width="0.4" stroke-miterlimit="10"/>
<path d="M8.01163 23.3355L6.13629 21.077" stroke="#303030" stroke-width="0.4" stroke-miterlimit="10"/>
<path d="M5.47925 21.6235L6.79468 20.5306" stroke="#303030" stroke-width="0.4" stroke-miterlimit="10" stroke-linecap="round"/>
<path d="M11.1862 27.1604L13.0602 29.4189" stroke="#303030" stroke-width="0.4" stroke-miterlimit="10"/>
<path d="M13.7186 28.8724L12.4031 29.9639" stroke="#303030" stroke-width="0.4" stroke-miterlimit="10" stroke-linecap="round"/>
<path d="M35.2297 27.1605C35.7761 28.2897 34.5578 29.0277 33.8724 28.2897C33.187 27.5517 32.1954 26.4643 30.9555 25.0882C27.0659 20.7668 26.5869 20.0342 24.9841 18.8442C24.4701 18.4624 22.6217 17.1294 19.864 16.0838C17.5651 15.2123 15.513 14.8723 14.0168 14.7374C12.8066 18.2411 11.5977 21.7449 10.3875 25.2487C9.88967 26.4346 8.40559 25.8923 8.6363 24.7657L10.5143 15.0342C10.5143 15.0342 11.0607 9.74816 9.84785 3.79565L11.7987 3.4624C13.7699 10.9584 14.0626 12.1686 14.0626 12.1686L25.7599 11.8016C26.2564 11.8434 26.6908 11.4697 26.7232 10.9732L26.8446 9.10865L29.1962 9.30158L28.9399 14.3556C28.9021 14.9249 35.227 27.1578 35.227 27.1578L35.2297 27.1605Z" fill="#76C69D" stroke="#303030" stroke-width="0.4" stroke-miterlimit="10"/>
<path d="M9.59822 16.8204C4.84917 16.8204 1 20.6696 1 25.4187C1 30.1677 4.84917 34.0169 9.59822 34.0169C14.3473 34.0169 18.1964 30.1677 18.1964 25.4187C18.1964 20.6696 14.3473 16.8204 9.59822 16.8204ZM9.59822 32.3574C5.76525 32.3574 2.65947 29.2503 2.65947 25.4187C2.65947 21.587 5.7666 18.4799 9.59822 18.4799C13.4298 18.4799 16.537 21.587 16.537 25.4187C16.537 29.2503 13.4298 32.3574 9.59822 32.3574Z" fill="#7F99AE" stroke="#303030" stroke-width="0.4" stroke-miterlimit="10"/>
<path d="M34.6279 21.3617C31.1093 21.3617 28.2558 24.2152 28.2558 27.7338C28.2558 31.2524 31.1093 34.1059 34.6279 34.1059C38.1465 34.1059 41 31.2524 41 27.7338C41 24.2152 38.1465 21.3617 34.6279 21.3617ZM34.6279 32.3007C32.105 32.3007 30.061 30.2554 30.061 27.7338C30.061 25.2122 32.1063 23.1669 34.6279 23.1669C37.1495 23.1669 39.1948 25.2122 39.1948 27.7338C39.1948 30.2554 37.1495 32.3007 34.6279 32.3007Z" fill="#7F99AE" stroke="#303030" stroke-width="0.4" stroke-miterlimit="10"/>
</g>
<defs>
<clipPath id="clip0_346_70">
<rect width="42" height="35.1059" fill="white"/>
</clipPath>
</defs>
</svg>
