<svg width="42" height="36" viewBox="0 0 42 36" fill="none" xmlns="http://www.w3.org/2000/svg">
<g clip-path="url(#clip0_346_71)">
<path d="M14.6741 1.12014L8.77439 2.12647C8.3851 2.19287 8.12335 2.56229 8.18975 2.95158L8.25622 3.34126C8.32262 3.73055 8.69204 3.9923 9.08133 3.9259L14.981 2.91957C15.3703 2.85316 15.632 2.48375 15.5656 2.09446L15.4992 1.70478C15.4328 1.31549 15.0634 1.05374 14.6741 1.12014Z" stroke="#303030" stroke-width="0.4" stroke-miterlimit="10"/>
<path d="M34.6103 7.95644C34.4633 9.75217 31.8229 9.51877 31.8229 9.51877L22.1953 8.72681C22.1953 8.72681 21.6449 8.69038 21.6894 8.14667C21.7258 7.69605 22.0442 7.57463 22.2277 7.59082C22.4112 7.60701 29.8977 7.40058 31.2293 7.37225C33.2409 7.32908 33.6349 6.07166 34.1287 5.58326C34.4781 5.23788 34.694 6.94322 34.6103 7.95779V7.95644Z" stroke="#303030" stroke-width="0.4" stroke-miterlimit="10" stroke-linecap="round"/>
<path d="M9.59823 27.7324C10.9707 27.7324 12.0834 26.6198 12.0834 25.2472C12.0834 23.8747 10.9707 22.7621 9.59823 22.7621C8.22571 22.7621 7.11307 23.8747 7.11307 25.2472C7.11307 26.6198 8.22571 27.7324 9.59823 27.7324Z" stroke="#303030" stroke-width="0.4" stroke-miterlimit="10"/>
<path d="M8.0116 23.3355L6.13626 21.077" stroke="#303030" stroke-width="0.4" stroke-miterlimit="10"/>
<path d="M5.47925 21.6243L6.79567 20.5306" stroke="#303030" stroke-width="0.4" stroke-miterlimit="10" stroke-linecap="round"/>
<path d="M11.1862 27.1604L13.0602 29.4189" stroke="#303030" stroke-width="0.4" stroke-miterlimit="10"/>
<path d="M13.7196 28.8724L12.4032 29.9647" stroke="#303030" stroke-width="0.4" stroke-miterlimit="10" stroke-linecap="round"/>
<path d="M9.59821 16.8204C4.84916 16.8204 1 20.6696 1 25.4186C1 30.1677 4.84916 34.0169 9.59821 34.0169C14.3473 34.0169 18.1964 30.1677 18.1964 25.4186C18.1964 20.6696 14.3473 16.8204 9.59821 16.8204ZM9.59821 32.3574C5.76524 32.3574 2.65947 29.2503 2.65947 25.4186C2.65947 21.587 5.76659 18.4799 9.59821 18.4799C13.4298 18.4799 16.537 21.587 16.537 25.4186C16.537 29.2503 13.4298 32.3574 9.59821 32.3574Z" stroke="#303030" stroke-width="0.4" stroke-miterlimit="10"/>
<path d="M34.6279 21.3617C31.1093 21.3617 28.2558 24.2152 28.2558 27.7338C28.2558 31.2524 31.1093 34.1059 34.6279 34.1059C38.1465 34.1059 41 31.2524 41 27.7338C41 24.2152 38.1465 21.3617 34.6279 21.3617ZM34.6279 32.3007C32.105 32.3007 30.061 30.2554 30.061 27.7338C30.061 25.2122 32.1063 23.1669 34.6279 23.1669C37.1495 23.1669 39.1948 25.2122 39.1948 27.7338C39.1948 30.2554 37.1495 32.3007 34.6279 32.3007Z" stroke="#303030" stroke-width="0.4" stroke-miterlimit="10"/>
<path d="M33.2815 23.3584C34.2394 25.2364 35.2297 27.1603 35.2297 27.1603C35.7761 28.2896 34.5578 29.0276 33.8724 28.2896C33.3246 27.6987 32.5259 26.8257 31.5586 25.7559C31.3643 25.5413 31.1633 25.3174 30.9555 25.088" stroke="#303030" stroke-width="0.4" stroke-miterlimit="10"/>
<path d="M10.1716 16.8205L10.517 15.0342C10.517 15.0342 11.0634 9.74815 9.85052 3.79565L11.8014 3.4624C13.7725 10.9583 14.0653 12.1685 14.0653 12.1685L25.7625 11.8016C26.259 11.8434 26.6935 11.4697 26.7258 10.9732L26.8473 9.10865L29.1989 9.30158L28.9425 14.3555C28.9236 14.6402 30.8826 18.6081 32.4598 21.7382" stroke="#303030" stroke-width="0.4" stroke-miterlimit="10"/>
<path d="M12.5191 19.0762C11.9039 20.8598 11.004 23.465 10.3888 25.2486C9.89095 26.4345 8.40687 25.8922 8.63758 24.7656L9.85047 18.4812" stroke="#303030" stroke-width="0.4" stroke-miterlimit="10"/>
<path d="M29.7116 23.6796C27.4112 21.0919 26.2995 19.8183 24.9854 18.8428C24.4714 18.461 22.6231 17.128 19.8654 16.0824C17.5664 15.2109 15.5143 14.8709 14.0181 14.736C13.778 15.4308 13.2896 16.8461 13.0494 17.5409" stroke="#303030" stroke-width="0.4" stroke-miterlimit="10"/>
</g>
<defs>
<clipPath id="clip0_346_71">
<rect width="42" height="35.1059" fill="white"/>
</clipPath>
</defs>
</svg>
