<svg width="32" height="42" viewBox="0 0 32 42" fill="none" xmlns="http://www.w3.org/2000/svg">
<path d="M18.6654 35.7635C19.0627 39.5069 19.3372 41.1043 19.3372 41.1043H13.0495C13.0495 41.1043 13.2971 39.0702 13.4316 35.7635" stroke="#303030" stroke-width="0.4"/>
<path d="M16.2979 1.09583C16.3026 1.09623 16.3358 1.09918 16.3867 1.18176C16.4397 1.26768 16.4945 1.41388 16.54 1.64172C16.8382 3.13268 17.1981 4.7373 18.0088 6.21399C18.9708 7.96601 20.3177 9.25913 22.0508 10.1495C22.2872 10.271 22.4076 10.3769 22.4609 10.4572C22.5057 10.5246 22.5044 10.5726 22.4834 10.6222C22.456 10.6868 22.3863 10.7679 22.2607 10.8605C22.1382 10.9507 21.9792 11.0395 21.7979 11.1232C21.4352 11.2903 21.0076 11.4284 20.667 11.5255C20.4975 11.5738 20.3509 11.6113 20.2471 11.6368C20.1952 11.6496 20.154 11.6597 20.126 11.6661C20.112 11.6694 20.1009 11.6714 20.0938 11.673C20.0903 11.6737 20.0876 11.6746 20.0859 11.6749L20.084 11.6759L19.7705 11.7443L19.9697 11.9952L19.9707 11.9962L19.9717 11.9982C19.973 11.9998 19.9751 12.002 19.9775 12.005C19.9824 12.011 19.9897 12.0199 19.999 12.0314C20.0179 12.0545 20.0457 12.0886 20.082 12.132C20.1547 12.2187 20.2612 12.3441 20.3984 12.4982C20.6728 12.8062 21.0701 13.2312 21.5605 13.6993C22.5394 14.6336 23.9013 15.7497 25.417 16.4513C25.7971 16.6272 25.9613 16.784 26.0156 16.8976C26.0562 16.9824 26.0497 17.0766 25.9355 17.212C25.8155 17.3544 25.6006 17.507 25.3047 17.6622C25.0124 17.8155 24.6572 17.9627 24.2734 18.1007C23.5061 18.3765 22.6393 18.6089 21.9619 18.7726C21.6239 18.8543 21.334 18.9191 21.1289 18.963C21.0265 18.9849 20.9452 19.0015 20.8896 19.0128C20.8619 19.0185 20.8405 19.0227 20.8262 19.0255C20.819 19.0269 20.8132 19.0287 20.8096 19.0294C20.808 19.0297 20.8065 19.0293 20.8057 19.0294L20.8047 19.0304L20.4922 19.0909L20.6826 19.3458L20.8428 19.2267L20.6826 19.3468H20.6836C20.684 19.3473 20.6848 19.3488 20.6855 19.3497C20.687 19.3516 20.6889 19.3542 20.6914 19.3575C20.6969 19.3648 20.7052 19.3759 20.7158 19.3898C20.7371 19.4174 20.7687 19.4575 20.8096 19.5089C20.8918 19.6122 21.0129 19.7613 21.168 19.9425C21.4779 20.3047 21.9254 20.7994 22.4775 21.3292C23.5784 22.3857 25.1107 23.598 26.8037 24.172C27.4432 24.3888 27.8224 24.6001 28.0186 24.7902C28.1143 24.883 28.1584 24.963 28.1748 25.0275C28.1903 25.089 28.1845 25.1526 28.1533 25.2247C28.0852 25.3822 27.8993 25.5658 27.5879 25.7618C27.2837 25.9533 26.8887 26.1392 26.4463 26.3146C25.5622 26.6649 24.5144 26.9632 23.6836 27.174C23.2689 27.2791 22.9095 27.3623 22.6543 27.4191C22.5268 27.4474 22.425 27.4689 22.3555 27.4835C22.3209 27.4908 22.2943 27.4964 22.2764 27.5001C22.2675 27.502 22.2604 27.5031 22.2559 27.504C22.2538 27.5044 22.2521 27.5048 22.251 27.505L22.249 27.506L21.8506 27.5861L22.1572 27.8527C22.1578 27.8531 22.1592 27.8547 22.1602 27.8556C22.1622 27.8574 22.1659 27.8599 22.1699 27.8634C22.1779 27.8703 22.1898 27.8805 22.2051 27.8937C22.2361 27.9202 22.2817 27.9591 22.3408 28.0089C22.4591 28.1085 22.6311 28.2519 22.8477 28.4269C23.2809 28.7769 23.8922 29.2549 24.6035 29.7648C26.0213 30.7811 27.8562 31.9397 29.4814 32.464C29.9267 32.6076 30.1378 32.757 30.2158 32.8761C30.25 32.9282 30.258 32.9741 30.252 33.0197C30.2451 33.0699 30.2188 33.1355 30.1562 33.2169C30.0281 33.3837 29.7835 33.5733 29.4307 33.7726C29.0822 33.9693 28.6445 34.1663 28.1475 34.3566C26.1521 35.1203 23.2787 35.7374 21.5732 35.7374H10.2441C8.86804 35.7373 5.68677 35.1615 3.45996 34.4171C2.9052 34.2317 2.41547 34.0373 2.03125 33.8419C1.63975 33.6428 1.38331 33.455 1.2666 33.2931C1.2112 33.2162 1.19802 33.1595 1.2002 33.1193C1.20234 33.0808 1.22079 33.0259 1.29102 32.9552C1.44149 32.8039 1.77611 32.6326 2.38379 32.4669C4.07466 32.0061 5.82911 30.8419 7.14941 29.8077C7.81217 29.2886 8.37065 28.7976 8.76367 28.4366C8.96025 28.2561 9.11627 28.1083 9.22266 28.005C9.27581 27.9534 9.31695 27.9125 9.34473 27.8849C9.35839 27.8713 9.36884 27.8608 9.37598 27.8536C9.37953 27.8501 9.38192 27.8467 9.38379 27.8448C9.38473 27.8439 9.38622 27.8434 9.38672 27.8429V27.8419L9.65137 27.5734L9.28125 27.505H9.2793L9.25488 27.5001C9.23762 27.4968 9.21192 27.492 9.17871 27.4855C9.11193 27.4724 9.0142 27.4533 8.8916 27.4279C8.64628 27.3769 8.30107 27.3013 7.90137 27.2052C7.09998 27.0125 6.08575 26.7365 5.22266 26.4005C4.79096 26.2325 4.40263 26.0517 4.09961 25.8624C3.7911 25.6697 3.59675 25.4831 3.51562 25.3146C3.47734 25.235 3.46538 25.1627 3.47559 25.0929C3.48607 25.0218 3.52103 24.937 3.60156 24.84C3.76732 24.6402 4.10356 24.4116 4.68652 24.1671C6.70692 23.3198 8.25569 22.1149 9.29883 21.1232C9.82071 20.627 10.2171 20.1829 10.4834 19.8624C10.6166 19.7022 10.7173 19.5725 10.7852 19.4825C10.819 19.4376 10.8449 19.4022 10.8623 19.3781C10.8708 19.3662 10.8773 19.3571 10.8818 19.3507C10.8841 19.3475 10.8855 19.3447 10.8867 19.3429C10.8873 19.342 10.8883 19.3415 10.8887 19.3409V19.34H10.8896L11.0488 19.1085L10.7783 19.0333H10.7773C10.7766 19.0331 10.775 19.0328 10.7734 19.0323C10.7702 19.0314 10.7652 19.0302 10.7588 19.0284C10.7459 19.0248 10.727 19.0189 10.7021 19.0118C10.6523 18.9976 10.5794 18.9765 10.4873 18.9493C10.3029 18.8949 10.0415 18.8159 9.73535 18.7179C9.12205 18.5216 8.3309 18.2506 7.61426 17.9484C6.88758 17.6419 6.27038 17.3168 5.97559 17.0226C5.82538 16.8726 5.8074 16.7799 5.81738 16.7325C5.82826 16.681 5.89349 16.5754 6.16992 16.4532C8.17921 15.5654 9.5691 14.4496 10.458 13.5538C10.9023 13.1061 11.2218 12.7132 11.4307 12.4308C11.535 12.2897 11.6119 12.1758 11.6631 12.0968C11.6886 12.0574 11.7077 12.0264 11.7207 12.005C11.7271 11.9946 11.7319 11.9864 11.7354 11.9806C11.7369 11.9779 11.7383 11.9754 11.7393 11.9738L11.7412 11.9718V11.9708L11.5674 11.8712L11.7412 11.9698L11.8604 11.7618L11.6338 11.6827V11.6818C11.6333 11.6816 11.6319 11.6821 11.6309 11.6818C11.6289 11.6811 11.626 11.6793 11.6221 11.6779C11.614 11.675 11.6017 11.6709 11.5859 11.6652C11.554 11.6535 11.5069 11.6359 11.4482 11.6134C11.3309 11.5685 11.166 11.5032 10.9775 11.422C10.5983 11.2586 10.1307 11.0345 9.75586 10.7853C9.56812 10.6605 9.41112 10.5337 9.30078 10.4113C9.18814 10.2862 9.14113 10.1846 9.13574 10.1075C9.13127 10.0435 9.15334 9.96057 9.27148 9.85754C9.39537 9.74965 9.613 9.63217 9.96484 9.51868C12.4409 8.71972 13.9399 6.38265 14.541 4.5177C14.9399 3.28008 15.4336 2.11439 15.8643 1.49915C15.9712 1.3464 16.0684 1.23755 16.1514 1.17004C16.2375 1.1 16.2839 1.0946 16.2979 1.09583Z" stroke="#303030" stroke-width="0.4"/>
</svg>
