<svg width="42" height="38" viewBox="0 0 42 38" fill="none" xmlns="http://www.w3.org/2000/svg">
<path d="M28.27 20.0393C28.4515 20.5798 26.2357 21.8583 23.3195 22.8959C20.4033 23.9334 17.8934 24.3363 17.7119 23.7958L17.3185 22.6243L27.8765 18.8677L28.27 20.0393Z" fill="#E5CEAE" stroke="#303030" stroke-width="0.4" stroke-miterlimit="10"/>
<path d="M27.8134 18.6796C28.011 19.268 25.8084 20.5858 22.8922 21.6234C19.976 22.661 17.4529 23.0245 17.2553 22.4362L17.6065 20.5573L26.4099 17.4251L27.8134 18.6796Z" fill="#BFA687" stroke="#303030" stroke-width="0.4" stroke-miterlimit="10"/>
<path d="M12.4031 7.43396L13.6867 9.08342L22.5175 5.94142L22.5391 3.82759L12.4031 7.43396Z" fill="#BFA687" stroke="#303030" stroke-width="0.4" stroke-miterlimit="10"/>
<path d="M26.4146 17.4388C26.4146 17.4388 24.7624 18.6566 22.2018 19.5676C19.6413 20.4787 17.6112 20.571 17.6112 20.571L13.5491 8.47571C13.5491 8.47571 15.905 8.27319 18.1318 7.44835C20.4068 6.60636 22.3525 5.34349 22.3525 5.34349L26.4146 17.4388Z" fill="#6D889D" stroke="#303030" stroke-width="0.4" stroke-miterlimit="10"/>
<path d="M24.6006 12.0376C24.7821 12.578 22.9585 13.7171 20.5275 14.582C18.0965 15.4469 15.9788 15.7103 15.7973 15.1698" stroke="#303030" stroke-width="0.3" stroke-miterlimit="10"/>
<path d="M24.3956 11.427C24.5771 11.9674 22.7534 13.1065 20.3224 13.9714C17.8914 14.8363 15.7737 15.0997 15.5922 14.5592" stroke="#303030" stroke-width="0.3" stroke-miterlimit="10"/>
<path d="M24.198 10.8386C24.3795 11.3791 22.5558 12.5181 20.1248 13.383C17.6939 14.248 15.5761 14.5113 15.3946 13.9708" stroke="#303030" stroke-width="0.3" stroke-miterlimit="10"/>
<path d="M23.9866 10.2092C24.1681 10.7497 22.3444 11.8887 19.9135 12.7536C17.4825 13.6186 15.3647 13.8819 15.1832 13.3414" stroke="#303030" stroke-width="0.3" stroke-miterlimit="10"/>
<path d="M23.7816 9.59874C23.9631 10.1392 22.1394 11.2782 19.7084 12.1431C17.2774 13.0081 15.1597 13.2714 14.9782 12.731" stroke="#303030" stroke-width="0.3" stroke-miterlimit="10"/>
<path d="M23.584 9.01036C23.7655 9.55082 21.9418 10.6898 19.5108 11.5548C17.0798 12.4197 14.9621 12.683 14.7806 12.1426" stroke="#303030" stroke-width="0.3" stroke-miterlimit="10"/>
<path d="M25.2037 13.8334C25.3852 14.3738 23.5615 15.5128 21.1306 16.3778C18.6996 17.2427 16.5818 17.506 16.4003 16.9656" stroke="#303030" stroke-width="0.3" stroke-miterlimit="10"/>
<path d="M24.9987 13.2228C25.1802 13.7632 23.3565 14.9022 20.9255 15.7672C18.4945 16.6321 16.3768 16.8954 16.1953 16.355" stroke="#303030" stroke-width="0.3" stroke-miterlimit="10"/>
<path d="M25.6029 15.0221C25.7844 15.5625 23.9607 16.7015 21.5297 17.5665C19.0988 18.4314 16.981 18.6948 16.7995 18.1543" stroke="#303030" stroke-width="0.3" stroke-miterlimit="10"/>
<path d="M25.793 15.5825C25.9745 16.123 24.1508 17.262 21.7199 18.1269C19.2889 18.9918 17.1711 19.2552 16.9896 18.7147" stroke="#303030" stroke-width="0.3" stroke-miterlimit="10"/>
<path d="M25.971 16.1127C26.1525 16.6531 24.3289 17.7921 21.8979 18.6571C19.4669 19.522 17.3492 19.7853 17.1676 19.2449" stroke="#303030" stroke-width="0.3" stroke-miterlimit="10"/>
<path d="M25.3979 14.4116C25.5794 14.9521 23.7557 16.0911 21.3248 16.956C18.8938 17.821 16.776 18.0843 16.5945 17.5438" stroke="#303030" stroke-width="0.3" stroke-miterlimit="10"/>
<path d="M24.8011 12.6345C24.9826 13.175 23.1589 14.314 20.7279 15.1789C18.2969 16.0439 16.1792 16.3072 15.9977 15.7667" stroke="#303030" stroke-width="0.3" stroke-miterlimit="10"/>
<path d="M23.3771 8.39452C23.5586 8.93497 21.735 10.074 19.304 10.9389C16.873 11.8039 14.7553 12.0672 14.5738 11.5267" stroke="#303030" stroke-width="0.3" stroke-miterlimit="10"/>
<path d="M23.1721 7.78404C23.3537 8.3245 21.53 9.46351 19.099 10.3285C16.668 11.1934 14.5503 11.4567 14.3688 10.9163" stroke="#303030" stroke-width="0.3" stroke-miterlimit="10"/>
<path d="M22.9746 7.19578C23.1561 7.73624 21.3324 8.87526 18.9014 9.74019C16.4704 10.6051 14.3527 10.8685 14.1712 10.328" stroke="#303030" stroke-width="0.3" stroke-miterlimit="10"/>
<path d="M22.7924 6.64769C22.9739 7.18815 21.1502 8.32716 18.7193 9.1921C16.2883 10.057 14.1705 10.3204 13.989 9.77991" stroke="#303030" stroke-width="0.3" stroke-miterlimit="10"/>
<path d="M22.5932 6.05992C22.7747 6.60038 20.951 7.73939 18.52 8.60433C16.0891 9.46927 13.9713 9.7326 13.7898 9.19214" stroke="#303030" stroke-width="0.3" stroke-miterlimit="10"/>
<path d="M22.4289 5.57091C22.6104 6.11137 20.7867 7.25038 18.3558 8.11532C15.9248 8.98025 13.807 9.24358 13.6255 8.70312" stroke="#303030" stroke-width="0.3" stroke-miterlimit="10"/>
<path d="M22.6905 3.42529C22.872 3.96574 20.6562 5.24428 17.74 6.28185C14.8239 7.31942 12.314 7.72228 12.1325 7.18182L11.739 6.01025L22.2971 2.25372L22.6905 3.42529Z" fill="#E5CEAE" stroke="#303030" stroke-width="0.4" stroke-miterlimit="10"/>
<path d="M17.3127 5.00938C20.2282 3.97204 22.4315 2.65406 22.2339 2.06558C22.0362 1.47711 19.5125 1.84099 16.597 2.87833C13.6815 3.91566 11.4782 5.23364 11.6758 5.82212C11.8734 6.41059 14.3971 6.04671 17.3127 5.00938Z" fill="#F2E8DA" stroke="#303030" stroke-width="0.4" stroke-miterlimit="10"/>
<path d="M17.0927 4.35413C18.215 3.9548 19.0632 3.44731 18.987 3.22061C18.9109 2.99391 17.9393 3.13385 16.817 3.53318C15.6946 3.93251 14.8465 4.44 14.9227 4.6667C14.9988 4.8934 15.9704 4.75346 17.0927 4.35413Z" fill="#BFA687" stroke="#303030" stroke-width="0.3" stroke-miterlimit="10"/>
<path d="M36.3092 2.62817C36.3092 2.62817 34.7204 6.53552 30.2987 6.53552C26.3368 6.38111 23.3391 7.9453 23.3391 7.9453" stroke="#303030" stroke-width="0.4" stroke-miterlimit="10"/>
<path d="M16.6957 17.606C16.6957 17.606 13.7262 18.7603 9.27332 16.4686C5.25866 14.4025 -0.74558 19.9061 1.48083 29.0726C3.28982 36.5205 12.9469 37.0934 19.2923 35.3746C29.8678 32.5101 33.7641 19.906 41 25.0622" stroke="#303030" stroke-width="0.4" stroke-miterlimit="10"/>
</svg>
