<svg width="42" height="38" viewBox="0 0 42 38" fill="none" xmlns="http://www.w3.org/2000/svg">
<path d="M12.1282 7.15247L13.3987 8.74097" stroke="#303030" stroke-width="0.4" stroke-miterlimit="10"/>
<path d="M22.1304 5.72263L22.1503 3.68805" stroke="#303030" stroke-width="0.4" stroke-miterlimit="10"/>
<path d="M25.9735 16.8407C25.9735 16.8407 24.3348 18.0141 21.7951 18.892C19.2554 19.7699 17.2419 19.859 17.2419 19.859L13.213 8.20361C13.213 8.20361 15.5496 8.00846 17.7582 7.21363C20.0147 6.40227 21.9446 5.18534 21.9446 5.18534L25.9735 16.8407Z" stroke="#303030" stroke-width="0.4" stroke-miterlimit="10"/>
<path d="M24.1744 11.636C24.3545 12.1568 22.5457 13.2544 20.1345 14.0879C17.7233 14.9213 15.6229 15.1751 15.4428 14.6543" stroke="#303030" stroke-width="0.3" stroke-miterlimit="10"/>
<path d="M23.971 11.0476C24.151 11.5684 22.3422 12.666 19.9311 13.4995C17.5199 14.333 15.4194 14.5867 15.2394 14.0659" stroke="#303030" stroke-width="0.3" stroke-miterlimit="10"/>
<path d="M23.775 10.4807C23.955 11.0015 22.1462 12.0991 19.7351 12.9326C17.3239 13.7661 15.2234 14.0198 15.0434 13.499" stroke="#303030" stroke-width="0.3" stroke-miterlimit="10"/>
<path d="M23.5654 9.87406C23.7455 10.3949 21.9367 11.4924 19.5255 12.3259C17.1143 13.1594 15.0138 13.4131 14.8338 12.8923" stroke="#303030" stroke-width="0.3" stroke-miterlimit="10"/>
<path d="M23.3621 9.2858C23.5421 9.8066 21.7333 10.9042 19.3221 11.7377C16.911 12.5711 14.8105 12.8249 14.6305 12.3041" stroke="#303030" stroke-width="0.3" stroke-miterlimit="10"/>
<path d="M23.1661 8.71891C23.3461 9.23971 21.5373 10.3373 19.1261 11.1708C16.715 12.0042 14.6145 12.258 14.4344 11.7372" stroke="#303030" stroke-width="0.3" stroke-miterlimit="10"/>
<path d="M24.7726 13.3665C24.9526 13.8873 23.1438 14.9849 20.7327 15.8183C18.3215 16.6518 16.221 16.9056 16.041 16.3848" stroke="#303030" stroke-width="0.3" stroke-miterlimit="10"/>
<path d="M24.5692 12.7781C24.7492 13.2989 22.9404 14.3965 20.5293 15.23C18.1181 16.0634 16.0176 16.3172 15.8376 15.7964" stroke="#303030" stroke-width="0.3" stroke-miterlimit="10"/>
<path d="M25.1686 14.512C25.3486 15.0328 23.5398 16.1304 21.1286 16.9638C18.7175 17.7973 16.617 18.0511 16.437 17.5303" stroke="#303030" stroke-width="0.3" stroke-miterlimit="10"/>
<path d="M25.357 15.0519C25.5371 15.5727 23.7283 16.6703 21.3171 17.5038C18.9059 18.3372 16.8054 18.591 16.6254 18.0702" stroke="#303030" stroke-width="0.3" stroke-miterlimit="10"/>
<path d="M25.5337 15.5629C25.7137 16.0837 23.9049 17.1813 21.4938 18.0148C19.0826 18.8482 16.9821 19.102 16.8021 18.5812" stroke="#303030" stroke-width="0.3" stroke-miterlimit="10"/>
<path d="M24.9652 13.9236C25.1452 14.4444 23.3364 15.542 20.9253 16.3755C18.5141 17.2089 16.4136 17.4627 16.2336 16.9419" stroke="#303030" stroke-width="0.3" stroke-miterlimit="10"/>
<path d="M24.3732 12.2112C24.5532 12.732 22.7444 13.8296 20.3332 14.6631C17.9221 15.4965 15.8216 15.7503 15.6416 15.2295" stroke="#303030" stroke-width="0.3" stroke-miterlimit="10"/>
<path d="M22.961 8.12565C23.141 8.64644 21.3322 9.74402 18.921 10.5775C16.5099 11.411 14.4094 11.6647 14.2294 11.1439" stroke="#303030" stroke-width="0.3" stroke-miterlimit="10"/>
<path d="M22.7576 7.53727C22.9376 8.05806 21.1288 9.15564 18.7177 9.98912C16.3065 10.8226 14.206 11.0763 14.026 10.5555" stroke="#303030" stroke-width="0.3" stroke-miterlimit="10"/>
<path d="M22.5616 6.97025C22.7416 7.49105 20.9328 8.58863 18.5217 9.4221C16.1105 10.2556 14.01 10.5093 13.83 9.98853" stroke="#303030" stroke-width="0.3" stroke-miterlimit="10"/>
<path d="M22.3809 6.4423C22.5609 6.96309 20.7521 8.06067 18.341 8.89414C15.9298 9.72762 13.8293 9.98137 13.6493 9.46057" stroke="#303030" stroke-width="0.3" stroke-miterlimit="10"/>
<path d="M22.1833 5.87589C22.3633 6.39669 20.5545 7.49427 18.1434 8.32774C15.7322 9.16121 13.6317 9.41496 13.4517 8.89417" stroke="#303030" stroke-width="0.3" stroke-miterlimit="10"/>
<path d="M22.0204 5.40458C22.2004 5.92537 20.3916 7.02295 17.9805 7.85643C15.5693 8.6899 13.4688 8.94365 13.2888 8.42285" stroke="#303030" stroke-width="0.3" stroke-miterlimit="10"/>
<path d="M21.8326 2.04321L22.2799 3.33696C22.4599 3.85776 20.2621 5.08979 17.3697 6.08961C14.4773 7.08944 11.9879 7.47764 11.8079 6.95684L11.3606 5.66309" stroke="#303030" stroke-width="0.4" stroke-miterlimit="10"/>
<path d="M16.9459 4.86346C19.8376 3.86386 22.0229 2.59382 21.8269 2.02676C21.6309 1.45969 19.1278 1.81033 16.236 2.80993C13.3442 3.80954 11.1589 5.07957 11.3549 5.64664C11.5509 6.2137 14.0541 5.86306 16.9459 4.86346Z" stroke="#303030" stroke-width="0.4" stroke-miterlimit="10"/>
<path d="M27.3673 18.0546L27.8145 19.3483C27.9946 19.8691 25.7968 21.1011 22.9044 22.101C20.012 23.1008 17.5226 23.489 17.3425 22.9682L16.8953 21.6744" stroke="#303030" stroke-width="0.4" stroke-miterlimit="10"/>
<path d="M25.9696 16.8292L27.3616 18.0381C27.5576 18.605 25.3729 19.875 22.4805 20.8748C19.5881 21.8746 17.0856 22.2249 16.8896 21.658L17.2379 19.8475" stroke="#303030" stroke-width="0.4" stroke-miterlimit="10"/>
<path d="M16.7277 4.23216C17.8409 3.84736 18.6821 3.35832 18.6066 3.13987C18.5311 2.92142 17.5674 3.05627 16.4542 3.44107C15.341 3.82587 14.4998 4.31491 14.5753 4.53336C14.6508 4.75181 15.6145 4.61696 16.7277 4.23216Z" stroke="#303030" stroke-width="0.3" stroke-miterlimit="10"/>
<path d="M36.3092 3.58179C36.3092 3.58179 34.7204 7.37794 30.2987 7.37794C26.3368 7.22792 23.3391 8.74759 23.3391 8.74759" stroke="#303030" stroke-width="0.4" stroke-miterlimit="10"/>
<path d="M16.6957 18.1334C16.6957 18.1334 13.7262 19.2548 9.27332 17.0284C5.25866 15.0211 -0.74558 20.3681 1.48083 29.2737C3.28982 36.5097 12.9469 37.0662 19.2923 35.3964C29.8678 32.6134 33.7641 20.368 41 25.3775" stroke="#303030" stroke-width="0.4" stroke-miterlimit="10"/>
</svg>
