<svg width="42" height="42" viewBox="0 0 42 42" fill="none" xmlns="http://www.w3.org/2000/svg">
<path d="M22.5559 17.6094C22.7188 18.0809 20.7292 19.1963 18.1107 20.1014C15.4921 21.0066 13.2384 21.358 13.0754 20.8865L12.7222 19.8645L22.2026 16.5874L22.5559 17.6094Z" fill="#E5CEAE" stroke="#303030" stroke-width="0.227338" stroke-miterlimit="10"/>
<path d="M22.1459 16.4233C22.3233 16.9366 20.3455 18.0863 17.727 18.9914C15.1085 19.8966 12.8429 20.2137 12.6655 19.7004L12.9808 18.0614L20.8856 15.3289L22.1459 16.4233Z" fill="#BFA687" stroke="#303030" stroke-width="0.227338" stroke-miterlimit="10"/>
<path d="M8.30849 6.61279L9.46103 8.05175L17.3906 5.31073L17.4099 3.46668L8.30849 6.61279Z" fill="#BFA687" stroke="#303030" stroke-width="0.227338" stroke-miterlimit="10"/>
<path d="M20.8898 15.3408C20.8898 15.3408 19.4063 16.4032 17.107 17.198C14.8078 17.9927 12.9849 18.0733 12.9849 18.0733L9.33751 7.52161C9.33751 7.52161 11.4529 7.34493 13.4524 6.62536C15.4952 5.89083 17.2423 4.78913 17.2423 4.78913L20.8898 15.3408Z" fill="#6D889D" stroke="#303030" stroke-width="0.227338" stroke-miterlimit="10"/>
<path d="M19.261 10.629C19.424 11.1005 17.7865 12.0941 15.6036 12.8487C13.4208 13.6032 11.5192 13.8329 11.3562 13.3615" stroke="#303030" stroke-width="0.227338" stroke-miterlimit="10"/>
<path d="M19.0769 10.0963C19.2399 10.5677 17.6023 11.5614 15.4195 12.3159C13.2366 13.0705 11.335 13.3002 11.1721 12.8287" stroke="#303030" stroke-width="0.227338" stroke-miterlimit="10"/>
<path d="M18.8995 9.58295C19.0624 10.0544 17.4249 11.0481 15.2421 11.8026C13.0592 12.5572 11.1576 12.7869 10.9946 12.3154" stroke="#303030" stroke-width="0.227338" stroke-miterlimit="10"/>
<path d="M18.7097 9.03388C18.8726 9.50536 17.2351 10.499 15.0523 11.2536C12.8694 12.0081 10.9678 12.2378 10.8048 11.7664" stroke="#303030" stroke-width="0.227338" stroke-miterlimit="10"/>
<path d="M18.5256 8.50141C18.6885 8.97289 17.051 9.96654 14.8682 10.7211C12.6853 11.4756 10.7837 11.7054 10.6207 11.2339" stroke="#303030" stroke-width="0.227338" stroke-miterlimit="10"/>
<path d="M18.3481 7.98798C18.5111 8.45947 16.8736 9.45312 14.6907 10.2077C12.5079 10.9622 10.6063 11.1919 10.4433 10.7205" stroke="#303030" stroke-width="0.227338" stroke-miterlimit="10"/>
<path d="M19.8025 12.1955C19.9655 12.667 18.328 13.6606 16.1451 14.4152C13.9623 15.1697 12.0607 15.3995 11.8977 14.928" stroke="#303030" stroke-width="0.227338" stroke-miterlimit="10"/>
<path d="M19.6184 11.6629C19.7814 12.1344 18.1438 13.128 15.961 13.8826C13.7781 14.6371 11.8765 14.8669 11.7136 14.3954" stroke="#303030" stroke-width="0.227338" stroke-miterlimit="10"/>
<path d="M20.161 13.2326C20.324 13.7041 18.6865 14.6977 16.5036 15.4523C14.3208 16.2068 12.4192 16.4366 12.2562 15.9651" stroke="#303030" stroke-width="0.227338" stroke-miterlimit="10"/>
<path d="M20.3316 13.7214C20.4946 14.1929 18.8571 15.1865 16.6742 15.9411C14.4914 16.6956 12.5898 16.9253 12.4268 16.4539" stroke="#303030" stroke-width="0.227338" stroke-miterlimit="10"/>
<path d="M20.4915 14.184C20.6545 14.6555 19.017 15.6492 16.8341 16.4037C14.6513 17.1583 12.7497 17.388 12.5867 16.9165" stroke="#303030" stroke-width="0.227338" stroke-miterlimit="10"/>
<path d="M19.9769 12.6999C20.1399 13.1714 18.5023 14.165 16.3195 14.9196C14.1366 15.6741 12.235 15.9039 12.0721 15.4324" stroke="#303030" stroke-width="0.227338" stroke-miterlimit="10"/>
<path d="M19.441 11.1496C19.604 11.6211 17.9665 12.6147 15.7836 13.3693C13.6008 14.1238 11.6992 14.3536 11.5362 13.8821" stroke="#303030" stroke-width="0.227338" stroke-miterlimit="10"/>
<path d="M18.1624 7.45087C18.3254 7.92236 16.6879 8.91601 14.505 9.67056C12.3222 10.4251 10.4206 10.6548 10.2576 10.1833" stroke="#303030" stroke-width="0.227338" stroke-miterlimit="10"/>
<path d="M17.9783 6.91816C18.1413 7.38964 16.5038 8.38329 14.3209 9.13784C12.1381 9.89239 10.2365 10.1221 10.0735 9.65063" stroke="#303030" stroke-width="0.227338" stroke-miterlimit="10"/>
<path d="M17.8009 6.4051C17.9639 6.87658 16.3264 7.87023 14.1435 8.62478C11.9607 9.37933 10.0591 9.60906 9.89609 9.13757" stroke="#303030" stroke-width="0.227338" stroke-miterlimit="10"/>
<path d="M17.6373 5.92695C17.8003 6.39843 16.1628 7.39208 13.9799 8.14663C11.7971 8.90118 9.89549 9.13091 9.73251 8.65942" stroke="#303030" stroke-width="0.227338" stroke-miterlimit="10"/>
<path d="M17.4584 5.41413C17.6214 5.88561 15.9839 6.87926 13.801 7.63381C11.6182 8.38837 9.71658 8.61809 9.5536 8.14661" stroke="#303030" stroke-width="0.227338" stroke-miterlimit="10"/>
<path d="M17.3109 4.98762C17.4739 5.4591 15.8364 6.45275 13.6535 7.2073C11.4707 7.96185 9.56906 8.19158 9.40608 7.72009" stroke="#303030" stroke-width="0.227338" stroke-miterlimit="10"/>
<path d="M17.5459 3.11566C17.7088 3.58714 15.7192 4.70251 13.1007 5.60766C10.4821 6.51282 8.22842 6.86426 8.06544 6.39277L7.71214 5.37073L17.1926 2.09361L17.5459 3.11566Z" fill="#E5CEAE" stroke="#303030" stroke-width="0.227338" stroke-miterlimit="10"/>
<path d="M12.7169 4.49762C15.3349 3.59267 17.3133 2.44289 17.1358 1.92952C16.9584 1.41615 14.6922 1.73359 12.0743 2.63854C9.45636 3.54349 7.47795 4.69327 7.65541 5.20664C7.83287 5.72001 10.099 5.40257 12.7169 4.49762Z" fill="#F2E8DA" stroke="#303030" stroke-width="0.227338" stroke-miterlimit="10"/>
<path d="M12.5194 3.92611C13.5272 3.57774 14.2887 3.13501 14.2204 2.93725C14.152 2.73948 13.2796 2.86156 12.2718 3.20993C11.264 3.55829 10.5025 4.00102 10.5708 4.19879C10.6392 4.39656 11.5116 4.27447 12.5194 3.92611Z" fill="#BFA687" stroke="#303030" stroke-width="0.227338" stroke-miterlimit="10"/>
<path d="M29.7746 2.42029C29.7746 2.42029 28.3479 5.82897 24.3775 5.82897C20.82 5.69426 18.1282 7.05883 18.1282 7.05883" stroke="#303030" stroke-width="0.245729" stroke-miterlimit="10"/>
<path d="M12.163 15.4871C12.163 15.4871 9.03841 16.8505 6.76596 17.7595C1.08483 20.032 -2.69935 26.5169 6.76596 31.1102C12.521 33.9018 9.61752 37.5558 15.17 40.2C21.7725 43.3453 27.9316 34.656 33.9065 36.1297" stroke="#303030" stroke-width="0.245729" stroke-miterlimit="10"/>
<path d="M36.1552 32.0165L33.2384 31.4675C33.2384 31.4675 33.2286 31.4626 33.2286 31.4601L37.5283 8.28015L40.5901 8.85615L36.1663 32.0128C36.1663 32.0128 36.1602 32.0177 36.1552 32.0165Z" fill="#5BA27E" stroke="#303030" stroke-width="0.245729" stroke-miterlimit="10"/>
<path d="M35.2317 31.8396L34.1423 31.6345C34.1423 31.6345 34.1386 31.6308 34.1399 31.6283L38.4789 8.45569L39.6223 8.67061L35.2366 31.8346C35.2366 31.8346 35.2341 31.8396 35.2317 31.8396Z" fill="#76C69D" stroke="#303030" stroke-width="0.245729" stroke-miterlimit="10"/>
<path d="M33.2298 31.4761L33.9213 35.8618L36.1602 32.0288C36.1602 32.0288 36.1589 32.0177 36.1516 32.0165L33.2409 31.4687C33.2347 31.4675 33.2286 31.4712 33.2286 31.4761H33.2298Z" fill="#E5CEAE" stroke="#303030" stroke-width="0.245729" stroke-miterlimit="10"/>
<path d="M33.6363 33.9877L33.9214 35.8626L34.8687 34.2187L33.6363 33.9877Z" fill="#303030" stroke="#303030" stroke-width="0.245729" stroke-miterlimit="10"/>
<path d="M38.9941 6.31159L39.9403 6.48971C40.5245 6.59966 40.9107 7.1635 40.8005 7.74887L40.5927 8.85323C40.5927 8.85323 40.591 8.85542 40.5898 8.85519L37.5338 8.27997C37.5338 8.27997 37.5316 8.2783 37.5318 8.2771L37.7402 7.17032C37.8499 6.58737 38.4121 6.2033 38.995 6.31303L38.9941 6.31159Z" fill="#BED5E8" stroke="#303030" stroke-width="0.245729" stroke-miterlimit="10"/>
</svg>
