<svg width="42" height="42" viewBox="0 0 42 42" fill="none" xmlns="http://www.w3.org/2000/svg">
<g clip-path="url(#clip0_394_1121)">
<path d="M21 41C32.0457 41 41 32.0457 41 21C41 9.95431 32.0457 1 21 1C9.9543 1 1 9.95431 1 21C1 32.0457 9.9543 41 21 41Z" fill="#BED5E8" stroke="#303030" stroke-width="0.4" stroke-miterlimit="10"/>
<path d="M12.022 19.8962H13.1099L13.8889 20.5194L14.9768 20.9867L15.9116 22.175L16.8464 23.2418H19.0249L19.8804 24.4856V25.6527L19.1014 26.7406L18.9456 28.8399L17.2345 29.8513V30.9392L15.9512 32.418L15.291 33.6617L14.1239 34.1291L14.2797 35.3728C14.2797 35.3728 14.1239 37.3955 15.291 38.0187C15.291 38.0187 13.8123 38.7977 12.9567 37.2397C12.1012 35.6818 12.4893 35.217 12.4893 35.217L12.022 34.1291L11.6338 30.316V28.2167L10.3901 26.973L8.59972 24.5621V23.395L9.76687 20.9841L9.92267 19.8962L11.1664 19.1172L12.022 19.8962Z" fill="#76C69D" stroke="#303030" stroke-width="0.401614" stroke-miterlimit="10"/>
<path d="M1.43033 16.8596L2.8325 16.1598L4.01549 17.8788L5.62627 18.3277L7.13142 19.92L9.38914 20.5643L7.99226 18.9536L7.29249 17.9026H6.51351L7.01787 16.6959C7.01787 16.6959 5.61834 17.5514 5.15096 17.0074C4.68357 16.4635 4.37197 13.6248 6.39468 13.9734C8.41739 14.3219 8.88478 15.4125 8.88478 15.4125L9.54494 13.3898L11.2164 11.5625L12.851 10.9023L13.4346 9.89099L14.9503 10.0468V8.56805L17.0126 9.2282L16.2336 6.46612L14.2109 5.29897L13.0437 6.42651L11.6046 8.09802L10.0493 6.61927L11.3326 5.29633L12.6952 4.79197L13.6669 4.248L14.9107 3.46902L15.0665 4.63617L15.9616 5.18014L17.0126 4.36419L15.6896 2.49728C15.6896 2.49728 18.1401 1.48592 18.8399 2.14607C19.5397 2.80623 19.3839 3.62482 19.1119 4.08956C18.8399 4.55431 19.0723 6.34465 19.9278 5.99609C20.7834 5.64753 20.8996 4.94512 21.9901 4.55695C23.0807 4.16878 24.2848 3.62217 24.2848 3.62217C24.2848 3.62217 24.9846 3.42677 25.2196 3.11782C25.4546 2.80887 26.0144 1.62852 26.0144 1.62852C26.0144 1.62852 22.4655 0.588111 18.1269 1.20073C11.9769 2.06685 3.81745 6.52421 1.43033 16.8543V16.8596Z" fill="#76C69D" stroke="#303030" stroke-width="0.401614" stroke-miterlimit="10"/>
<path d="M32.8009 14.2426L30.6224 13.4953V12.3757C30.6224 12.3757 28.0082 12.7481 27.6966 12.9989C27.385 13.2498 26.3815 13.8703 26.0119 14.2426C25.6422 14.615 24.211 16.6086 24.211 17.6041C24.211 18.5997 24.3351 20.2183 24.8949 20.4666C25.4547 20.7148 27.0734 21.7103 28.5046 21.338C29.9358 20.9656 30.4956 22.0853 30.3715 23.1441C30.2474 24.203 31.8661 24.2638 31.6786 25.6342C31.4911 27.0047 30.559 27.1896 31.4911 29.3073C32.4233 31.4251 32.4259 32.6055 33.0464 32.5447C33.667 32.484 35.4732 32.109 35.9722 30.6778C36.4713 29.2466 36.9678 27.9395 37.4035 27.8761C37.8392 27.8127 38.2115 26.7565 38.2115 26.7565L37.8999 24.8262L38.2115 23.2075L40.0784 21.4647C40.0784 21.4647 41.0132 19.9701 40.39 19.7219C39.7668 19.4737 39.582 20.0942 39.2704 19.9094C38.9588 19.7246 37.2793 17.047 37.2793 17.047L36.7195 15.1801L38.0266 16.9862L38.8347 18.6313L39.6427 19.1779L40.8785 18.8426C40.8785 18.8426 40.4164 9.77472 31.7948 4.1687L30.6937 5.2672L29.6797 5.996L30.2474 6.60335L30.0441 7.86028L29.1119 8.3884L28.3013 7.21333L27.9369 6.36041L27.1262 7.21333L26.3551 8.26693L26.7195 8.30654L27.7335 7.53548L27.7731 8.54948L28.6657 8.67095L27.5302 9.11721L28.1375 10.1708L27.4483 10.7782H26.5162V12.1169L27.0443 13.0491L27.4087 12.3203L28.1375 12.0773L29.1119 11.0237L30.5722 10.5379L31.7473 11.6733L31.301 12.1196L31.5862 12.6477L32.0721 12.3229L32.4021 11.6337L31.5043 10.4164H31.8687L33.5323 12.6055L34.1001 12.4021L33.8967 11.4357H34.4645L34.7893 12.484L36.6562 12.6873L36.2495 14.2294L34.5859 14.1898L33.9786 13.5825L33.0042 13.704V14.2426H32.8009Z" fill="#76C69D" stroke="#303030" stroke-width="0.401614" stroke-miterlimit="10"/>
</g>
<defs>
<clipPath id="clip0_394_1121">
<rect width="42" height="42" fill="white"/>
</clipPath>
</defs>
</svg>
