<svg width="40" height="42" viewBox="0 0 40 42" fill="none" xmlns="http://www.w3.org/2000/svg">
<g clip-path="url(#clip0_390_161)">
<path d="M10.9145 41C16.3901 41 20.829 36.5611 20.829 31.0855C20.829 25.6099 16.3901 21.171 10.9145 21.171C5.43887 21.171 1 25.6099 1 31.0855C1 36.5611 5.43887 41 10.9145 41Z" stroke="#303030" stroke-width="0.4" stroke-miterlimit="10"/>
<path d="M6.46385 30.5384H7.00316L7.38932 30.8473L7.92864 31.079L8.39203 31.6681L8.85542 32.1969H9.93536L10.3595 32.8135V33.392L9.97332 33.9314L9.89609 34.972L9.04785 35.4734V36.0127L8.41167 36.7457L8.08441 37.3623L7.50583 37.594L7.58306 38.2105C7.58306 38.2105 7.50583 39.2132 8.08441 39.5222C8.08441 39.5222 7.35136 39.9083 6.92724 39.136C6.50312 38.3637 6.69555 38.1333 6.69555 38.1333L6.46385 37.594L6.27142 35.7038V34.6631L5.65488 34.0465L4.76736 32.8514V32.2728L5.34595 31.0777L5.42318 30.5384L6.03973 30.1522L6.46385 30.5384Z" stroke="#303030" stroke-width="0.2" stroke-miterlimit="10"/>
<path d="M1.21332 29.033L1.90841 28.6861L2.49484 29.5383L3.29334 29.7608L4.03948 30.5502L5.15869 30.8696L4.46622 30.0711L4.11933 29.5501H3.73317L3.9832 28.9519C3.9832 28.9519 3.28942 29.376 3.05772 29.1063C2.82603 28.8367 2.67156 27.4295 3.67427 27.6023C4.67697 27.7751 4.90867 28.3157 4.90867 28.3157L5.23592 27.313L6.06453 26.4071L6.87481 26.0799L7.16411 25.5785L7.91548 25.6558V24.9227L8.93782 25.25L8.55166 23.8807L7.54896 23.3022L6.97037 23.8611L6.25696 24.6897L5.48595 23.9567L6.12213 23.3008L6.79758 23.0508L7.2793 22.7812L7.89585 22.395L7.97308 22.9736L8.41683 23.2432L8.93782 22.8388L8.28201 21.9133C8.28201 21.9133 9.49677 21.4119 9.84366 21.7392C10.1906 22.0664 10.1133 22.4722 9.97849 22.7026C9.84366 22.933 9.95886 23.8205 10.383 23.6477C10.8071 23.4749 10.8647 23.1267 11.4053 22.9343C11.9459 22.7419 12.5429 22.4709 12.5429 22.4709C12.5429 22.4709 12.8897 22.3741 13.0062 22.2209C13.1227 22.0678 13.4003 21.4826 13.4003 21.4826C13.4003 21.4826 11.6409 20.9669 9.49023 21.2706C6.44153 21.6999 2.39667 23.9095 1.21332 29.0304V29.033Z" stroke="#303030" stroke-width="0.2" stroke-miterlimit="10"/>
<path d="M16.7645 27.7357L15.6845 27.3653V26.8102C15.6845 26.8102 14.3886 26.9948 14.2341 27.1192C14.0797 27.2435 13.5822 27.5511 13.399 27.7357C13.2157 27.9203 12.5062 28.9086 12.5062 29.4021C12.5062 29.8956 12.5677 30.698 12.8453 30.8211C13.1228 30.9441 13.9252 31.4376 14.6347 31.253C15.3442 31.0685 15.6217 31.6235 15.5602 32.1484C15.4986 32.6733 16.3011 32.7034 16.2081 33.3828C16.1152 34.0622 15.6531 34.1538 16.1152 35.2037C16.5773 36.2535 16.5786 36.8386 16.8862 36.8085C17.1938 36.7784 18.0892 36.5925 18.3366 35.883C18.584 35.1735 18.8301 34.5256 19.0461 34.4942C19.2621 34.4628 19.4466 33.9391 19.4466 33.9391L19.2922 32.9823L19.4466 32.1798L20.3721 31.3159C20.3721 31.3159 20.8355 30.575 20.5266 30.4519C20.2176 30.3289 20.126 30.6365 19.9715 30.5449C19.8171 30.4532 18.9845 29.1259 18.9845 29.1259L18.707 28.2004L19.355 29.0958L19.7556 29.9113L20.1561 30.1823L20.7687 30.016C20.7687 30.016 20.5397 25.5209 16.2657 22.7418L15.7199 23.2864L15.2172 23.6477L15.4986 23.9487L15.3978 24.5718L14.9358 24.8336L14.5339 24.2511L14.3532 23.8283L13.9514 24.2511L13.5691 24.7734L13.7498 24.793L14.2525 24.4108L14.2721 24.9135L14.7145 24.9737L14.1517 25.1949L14.4527 25.7172L14.1111 26.0183H13.649V26.682L13.9108 27.144L14.0914 26.7828L14.4527 26.6623L14.9358 26.14L15.6596 25.8992L16.2422 26.462L16.0209 26.6833L16.1623 26.9451L16.4032 26.7841L16.5668 26.4424L16.1217 25.839H16.3024L17.1271 26.9241L17.4085 26.8233L17.3077 26.3442H17.5891L17.7501 26.8639L18.6756 26.9647L18.474 27.7292L17.6494 27.7095L17.3483 27.4085L16.8652 27.4687L16.7605 27.7383L16.7645 27.7357Z" stroke="#303030" stroke-width="0.2" stroke-miterlimit="10"/>
<path d="M34.6783 4.9314C36.0751 6.80983 36.8827 9.43048 36.5254 12.0472" stroke="#303030" stroke-width="0.4" stroke-miterlimit="10"/>
<path d="M19.893 9.77342C20.2517 7.15146 21.7453 4.87377 23.6001 3.43909" stroke="#303030" stroke-width="0.4" stroke-miterlimit="10"/>
<path d="M34.6784 4.93139C33.7882 5.47332 33.8642 3.05557 29.3677 2.44033C24.8712 1.82509 24.1945 4.28211 23.5831 3.41293C23.1394 2.78198 25.0545 0.488586 29.551 1.10382C34.0474 1.71906 35.3918 4.49679 34.6797 4.93008L34.6784 4.93139Z" stroke="#303030" stroke-width="0.4" stroke-miterlimit="10"/>
<path d="M35.6051 18.7441C35.6051 18.7441 35.2713 22.8126 32.4033 22.4199C29.7329 22.0546 29.136 21.9735 29.136 21.9735" stroke="#303030" stroke-width="0.4" stroke-miterlimit="10"/>
<path d="M35.9749 18.792L35.0009 18.6588L35.917 11.9627L36.891 12.0959C38.0427 12.2535 38.8511 13.3167 38.6934 14.4697L38.3485 16.9909C38.1909 18.1426 37.1277 18.9511 35.9748 18.7933L35.9749 18.792Z" stroke="#303030" stroke-width="0.4" stroke-miterlimit="10"/>
<path d="M19.4568 9.71579L20.4308 9.84904L19.5148 16.5451L18.5408 16.4119C17.3891 16.2543 16.5806 15.1911 16.7383 14.0381L17.0833 11.5169C17.2408 10.3652 18.304 9.55676 19.457 9.71449L19.4568 9.71579Z" stroke="#303030" stroke-width="0.4" stroke-miterlimit="10"/>
<path d="M28.5823 21.2076L25.9638 20.8494C25.6078 20.8007 25.2797 21.0498 25.231 21.4058L25.2216 21.4745C25.1729 21.8305 25.422 22.1586 25.778 22.2073L28.3965 22.5655C28.7525 22.6142 29.0806 22.3651 29.1293 22.0091L29.1387 21.9404C29.1874 21.5844 28.9383 21.2563 28.5823 21.2076Z" stroke="#303030" stroke-width="0.4" stroke-miterlimit="10"/>
</g>
<defs>
<clipPath id="clip0_390_161">
<rect width="39.9791" height="42" fill="white"/>
</clipPath>
</defs>
</svg>
