<svg width="42" height="42" viewBox="0 0 42 42" fill="none" xmlns="http://www.w3.org/2000/svg">
<g clip-path="url(#clip0_14_27)">
<path d="M40.5831 5.52324C40.6747 5.43268 40.8314 5.47919 40.8575 5.60538C41.2292 7.4056 40.7157 9.36754 39.3168 10.7664C37.7984 12.2848 35.6992 12.776 33.8232 12.2408H33.7792L5.0192 41H4.9744L1 37.0256V36.9808L29.76 8.22163V8.17683C29.224 6.25603 29.76 4.15763 31.2336 2.68403C32.6782 1.23942 34.608 0.723872 36.407 1.13877C36.5302 1.16719 36.575 1.32013 36.4872 1.41113L33.2321 4.7857C33.1143 4.9078 33.1161 5.10174 33.236 5.2217L36.8205 8.80614C36.9415 8.92713 37.1375 8.92772 37.2592 8.80746L40.5831 5.52324Z" fill="#BED5E8" stroke="#303030" stroke-width="0.4"/>
<path d="M8.40709 6.74721L7.06789 3.48721L3.6735 2.41602L2.4231 3.71041L3.45029 7.06001L6.71029 8.44481L21.4479 23.1816L23.1447 21.4848L8.40709 6.74721Z" fill="#EAEAEA" stroke="#303030" stroke-width="0.4"/>
<path d="M39.3559 31.6663L32.0942 24.4054C31.5792 23.8905 30.9846 23.4619 30.3333 23.1361L29.7865 22.8627C28.7291 22.3338 27.7592 21.646 26.9104 20.823C26.8023 20.7181 26.6309 20.7163 26.5205 20.8188L26.2919 21.0311C26.1802 21.1347 26.0066 21.1315 25.8989 21.0238L24.2826 19.4074C24.1719 19.2968 23.9926 19.2968 23.882 19.4074L19.4594 23.8301C19.3488 23.9407 19.3488 24.12 19.4594 24.2306L21.0823 25.8535C21.1873 25.9586 21.1933 26.1269 21.0961 26.2392L20.8612 26.5103C20.764 26.6226 20.77 26.7909 20.875 26.896L20.8754 26.8964C21.6391 27.6605 22.2793 28.5387 22.7733 29.4995L23.0436 30.0255C23.4658 30.8466 24.0131 31.5971 24.666 32.25L31.7191 39.3031C33.8183 41.4463 37.3015 41.4463 39.4447 39.3031C41.4991 37.2487 41.4991 33.7655 39.3559 31.6663Z" fill="#76C69D" stroke="#303030" stroke-width="0.4"/>
</g>
<defs>
<clipPath id="clip0_14_27">
<rect width="41.9746" height="42" fill="white"/>
</clipPath>
</defs>
</svg>
