<svg width="42" height="27" viewBox="0 0 42 27" fill="none" xmlns="http://www.w3.org/2000/svg">
<path d="M40.4826 9.07093C40.3787 8.19934 39.5865 7.57779 38.7149 7.68177L2.40052 12.0362C1.52893 12.1402 0.907376 12.9323 1.01136 13.8039C1.01136 13.8039 2.01497 19.7893 2.11194 20.4237C2.52319 23.5175 6.77129 25.5492 11.6363 24.9662C15.7628 24.4708 19.012 22.2533 19.7013 19.6982C19.8205 19.2554 19.8649 16.2457 20.3217 16.1908L22.2904 15.9548C22.7425 15.9011 23.4949 18.8126 23.7146 19.2121C24.9857 21.536 28.6695 22.924 32.7984 22.4298C37.6634 21.8468 41.3098 18.8686 40.9792 15.7644C40.9243 14.9909 40.4838 9.0721 40.4838 9.0721L40.4826 9.07093Z" stroke="#303030" stroke-width="0.4" stroke-miterlimit="10"/>
<path d="M3.20667 11.9391C3.20667 11.9391 8.46421 5.4244 10.663 3.66021C12.3817 2.28156 14.7043 2.08879 14.7627 4.38458C14.834 7.19211 13.1236 7.1407 13.3268 5.8894C13.5442 4.55282 13.0207 3.749 11.0497 5.66041C9.07875 7.57182 7.38115 11.439 7.38115 11.439L3.209 11.9391H3.20667Z" stroke="#303030" stroke-width="0.4" stroke-miterlimit="10"/>
<path d="M38.0514 7.76104C38.0514 7.76104 31.4023 2.67408 28.8495 1.48004C26.8528 0.54653 24.5512 0.907547 25.0372 3.1531C25.6319 5.89754 27.2816 5.44305 26.7885 4.27588C26.2616 3.02809 26.5806 2.12379 28.9476 3.51412C31.3147 4.90562 33.8781 8.2611 33.8781 8.2611L38.0502 7.76104H38.0514Z" stroke="#303030" stroke-width="0.4" stroke-miterlimit="10"/>
<path d="M2.33032 12.0427L38.7888 7.6695L38.9229 8.78777C38.9336 8.87709 38.8656 8.95938 38.7718 8.97063L2.65455 13.3029C2.5595 13.3143 2.47517 13.2503 2.46446 13.161L2.33046 12.0439L2.33032 12.0427Z" stroke="#303030" stroke-width="0.3" stroke-miterlimit="10"/>
</svg>
