<svg width="42" height="42" viewBox="0 0 42 42" fill="none" xmlns="http://www.w3.org/2000/svg">
<path d="M40.7549 1.21094L32.8965 39.752L1.42188 1.2002L40.7549 1.21094ZM14.1064 7.80469L28.9629 26.002L29.2412 26.3428L29.3154 25.9092L32.3047 8.30469L32.3438 8.0791L32.1143 8.07129L14.2676 7.47852L13.8281 7.46387L14.1064 7.80469Z" fill="#BED5E8" stroke="#303030" stroke-width="0.4"/>
<path d="M12.5424 2.87787L12.5432 1.29405" stroke="#303030" stroke-width="0.25" stroke-miterlimit="10"/>
<path d="M33.492 28.538L35.044 28.8542" stroke="#303030" stroke-width="0.25" stroke-miterlimit="10"/>
<path d="M11.2649 11.0165L10.0371 12.0169" stroke="#303030" stroke-width="0.25" stroke-miterlimit="10"/>
<path d="M8.85744 3.66384L8.85743 1.29306" stroke="#303030" stroke-width="0.25" stroke-miterlimit="10"/>
<path d="M31.9847 31.9912L34.3075 32.4656" stroke="#303030" stroke-width="0.25" stroke-miterlimit="10"/>
<path d="M9.54826 7.6625L7.7096 9.15913" stroke="#303030" stroke-width="0.25" stroke-miterlimit="10"/>
<path d="M28.1934 30.5001L26.3547 31.9967" stroke="#303030" stroke-width="0.25" stroke-miterlimit="10"/>
<path d="M16.2292 3.66371L16.2282 1.2927" stroke="#303030" stroke-width="0.25" stroke-miterlimit="10"/>
<path d="M33.4598 24.7685L35.7826 25.244" stroke="#303030" stroke-width="0.25" stroke-miterlimit="10"/>
<path d="M14.2018 13.3797L12.3623 14.8757" stroke="#303030" stroke-width="0.25" stroke-miterlimit="10"/>
<path d="M30.971 3.6632L30.971 1.29242" stroke="#303030" stroke-width="0.25" stroke-miterlimit="10"/>
<path d="M36.4099 10.325L38.7327 10.7994" stroke="#303030" stroke-width="0.25" stroke-miterlimit="10"/>
<path d="M23.5077 24.813L21.6691 26.3096" stroke="#303030" stroke-width="0.25" stroke-miterlimit="10"/>
<path d="M34.6557 2.87723L34.6565 1.29341" stroke="#303030" stroke-width="0.25" stroke-miterlimit="10"/>
<path d="M37.9171 6.87191L39.469 7.18809" stroke="#303030" stroke-width="0.25" stroke-miterlimit="10"/>
<path d="M25.2243 28.1669L23.9964 29.1673" stroke="#303030" stroke-width="0.25" stroke-miterlimit="10"/>
<path d="M19.9142 2.87786L19.9139 1.29381" stroke="#303030" stroke-width="0.25" stroke-miterlimit="10"/>
<path d="M34.9671 21.3153L36.5191 21.6325" stroke="#303030" stroke-width="0.25" stroke-miterlimit="10"/>
<path d="M15.9187 16.7337L14.69 17.7335" stroke="#303030" stroke-width="0.25" stroke-miterlimit="10"/>
<path d="M23.6001 3.66344L23.6001 1.29267" stroke="#303030" stroke-width="0.25" stroke-miterlimit="10"/>
<path d="M34.9348 17.5468L37.2576 18.0212" stroke="#303030" stroke-width="0.25" stroke-miterlimit="10"/>
<path d="M18.8547 19.0963L17.0161 20.5929" stroke="#303030" stroke-width="0.25" stroke-miterlimit="10"/>
<path d="M27.2851 2.8776L27.2859 1.29378" stroke="#303030" stroke-width="0.25" stroke-miterlimit="10"/>
<path d="M36.4421 14.0935L37.9941 14.4096" stroke="#303030" stroke-width="0.25" stroke-miterlimit="10"/>
<path d="M20.5716 22.4504L19.3437 23.4508" stroke="#303030" stroke-width="0.25" stroke-miterlimit="10"/>
</svg>
