<svg width="42" height="40" viewBox="0 0 42 40" fill="none" xmlns="http://www.w3.org/2000/svg">
<g clip-path="url(#clip0_8_1675)">
<path d="M35.1335 9.33862C35.1335 4.73286 31.3998 1 26.794 1L1 1.01508C5.36785 1.2798 6.96278 4.90459 6.96278 9.33862L6.9611 33.6468C6.9611 36.5671 9.32765 38.9345 12.2488 38.9345H35.1226C35.1284 38.9345 35.1335 38.9303 35.1335 38.9245V9.33862Z" fill="#F2E8DA" stroke="#303030" stroke-width="0.4" stroke-linecap="round" stroke-linejoin="round"/>
<path d="M30.2957 27.8345H11.2879" stroke="#303030" stroke-width="0.4" stroke-linecap="round" stroke-linejoin="round"/>
<path d="M30.2957 31.1846H11.2879" stroke="#303030" stroke-width="0.4" stroke-linecap="round" stroke-linejoin="round"/>
<path d="M30.2957 24.4846H11.2879" stroke="#303030" stroke-width="0.4" stroke-linecap="round" stroke-linejoin="round"/>
<path d="M12.2488 38.9445C12.2429 38.9445 12.2387 38.9403 12.2387 38.9345C12.2387 38.9286 12.2429 38.9244 12.2488 38.9244C15.159 38.9244 17.5264 36.557 17.5264 33.6468V30.1016C17.5264 30.0949 17.5297 30.0916 17.5364 30.0916H40.9899C40.995 30.0916 41 30.0949 41 30.1016V33.6468C41 36.5688 38.6234 38.9445 35.7023 38.9445H12.2488Z" fill="#E5CEAE" stroke="#303030" stroke-width="0.4" stroke-miterlimit="10"/>
<path d="M13.6533 13.0766C13.3918 13.4693 11.8271 16.0196 11.7322 20.5844C11.7305 20.6393 11.7923 20.6727 11.837 20.641L13.2736 19.6388C13.3004 19.6205 13.3355 19.6237 13.3588 19.6453L14.6787 20.9572C14.7219 20.9988 14.7937 20.9689 14.792 20.9091C14.7687 20.0834 14.7638 16.3827 16.4334 14.1452C16.4667 14.1002 16.4482 14.037 16.3967 14.0187L13.7499 13.0432C13.7148 13.0316 13.675 13.0449 13.6533 13.0766Z" fill="#76C69D" stroke="#303030" stroke-width="0.4"/>
<path d="M16.1437 14.7831C16.3303 15.2775 17.8467 19.0431 21.0463 19.7953C21.0563 19.797 21.0663 19.7904 21.068 19.7805L21.1944 18.2806C21.1944 18.2755 21.1978 18.2707 21.2027 18.2672L22.4963 17.603C22.5094 17.5962 22.5094 17.578 22.4963 17.5731C22.14 17.4316 19.0637 16.1331 18.5624 13.4846C18.5542 13.4396 18.506 13.4162 18.4659 13.4379L16.1737 14.7013C16.1455 14.7181 16.1321 14.7531 16.1437 14.7831Z" fill="#76C69D" stroke="#303030" stroke-width="0.4"/>
<path d="M16.0939 6.73574C13.8469 6.71693 12.0102 8.5232 11.9914 10.7702C11.9725 13.0171 13.7788 14.8539 16.0258 14.8727C16.0485 14.8729 16.0712 14.8729 16.0939 14.8727C18.3409 14.8915 20.1776 13.0853 20.1965 10.8383C20.2153 8.59133 18.409 6.75456 16.162 6.73574C16.1393 6.73555 16.1166 6.73555 16.0939 6.73574Z" fill="#BED5E8" stroke="#303030" stroke-width="0.4"/>
</g>
<defs>
<clipPath id="clip0_8_1675">
<rect width="42" height="39.9446" fill="white"/>
</clipPath>
</defs>
</svg>
