<svg width="42" height="40" viewBox="0 0 42 40" fill="none" xmlns="http://www.w3.org/2000/svg">
<g clip-path="url(#clip0_8_1685)">
<path d="M35.1335 30.0916V9.33862C35.1335 4.73286 31.3998 1 26.794 1L1 1.01508C5.36785 1.2798 6.96278 4.90459 6.96278 9.33862L6.9611 33.6468C6.9611 36.5671 9.32765 38.9345 12.2488 38.9345" stroke="#303030" stroke-width="0.4" stroke-linecap="round" stroke-linejoin="round"/>
<path d="M30.2957 27.8345H11.2879" stroke="#303030" stroke-width="0.4" stroke-linecap="round" stroke-linejoin="round"/>
<path d="M17.4648 31.1846H11.2879" stroke="#303030" stroke-width="0.4" stroke-linecap="round" stroke-linejoin="round"/>
<path d="M30.2957 24.4846H11.2879" stroke="#303030" stroke-width="0.4" stroke-linecap="round" stroke-linejoin="round"/>
<path d="M12.2488 38.9445C12.2429 38.9445 12.2387 38.9403 12.2387 38.9345C12.2387 38.9286 12.2429 38.9244 12.2488 38.9244C15.159 38.9244 17.5264 36.557 17.5264 33.6468V30.1016C17.5264 30.0949 17.5297 30.0916 17.5364 30.0916H40.9899C40.995 30.0916 41 30.0949 41 30.1016V33.6468C41 36.5688 38.6234 38.9445 35.7023 38.9445H12.2488Z" stroke="#303030" stroke-width="0.4" stroke-miterlimit="10"/>
<path d="M13.2633 13.7595C12.7091 14.8509 11.8037 17.1462 11.7322 20.5846C11.7305 20.6395 11.7923 20.6729 11.837 20.6412L13.2736 19.639C13.3004 19.6207 13.3355 19.6239 13.3588 19.6455L14.6787 20.9574C14.7219 20.999 14.7937 20.9691 14.792 20.9093C14.771 20.1679 14.765 17.1087 15.9726 14.872" stroke="#303030" stroke-width="0.4"/>
<path d="M16.1786 14.8728C16.4754 15.622 17.9959 19.078 21.0464 19.7952C21.0563 19.7969 21.0663 19.7903 21.068 19.7804L21.1945 18.2805C21.1945 18.2754 21.1979 18.2705 21.2027 18.2671L22.4964 17.6029C22.5095 17.5961 22.5095 17.5779 22.4964 17.573C22.1625 17.4404 19.4398 16.2917 18.6862 13.968" stroke="#303030" stroke-width="0.4"/>
<path d="M16.0939 6.73574C13.8469 6.71693 12.0102 8.5232 11.9914 10.7702C11.9725 13.0171 13.7788 14.8539 16.0258 14.8727C16.0485 14.8729 16.0712 14.8729 16.0939 14.8727C18.3409 14.8915 20.1776 13.0853 20.1965 10.8383C20.2153 8.59133 18.409 6.75456 16.162 6.73574C16.1393 6.73555 16.1166 6.73555 16.0939 6.73574Z" stroke="#303030" stroke-width="0.4"/>
</g>
<defs>
<clipPath id="clip0_8_1685">
<rect width="42" height="39.9446" fill="white"/>
</clipPath>
</defs>
</svg>
