<svg width="27" height="42" viewBox="0 0 27 42" fill="none" xmlns="http://www.w3.org/2000/svg">
<path d="M25.1639 36.2127L25.1639 5.8128M10.3086 5.61695C5.32102 5.66777 0.99997 5.75751 0.999999 5.81281L1 36.2127C1 36.2599 5.32103 36.3411 10.3086 36.3878" stroke="#303030" stroke-width="0.4" stroke-miterlimit="10"/>
<path d="M10.2606 1.01003L10.2606 40.9901C10.2606 41.2147 25.1638 37.5486 25.1638 37.2954L25.1638 4.70473C25.1638 4.43081 10.2607 0.784679 10.2606 1.01003Z" stroke="#303030" stroke-width="0.4" stroke-miterlimit="10"/>
<path d="M13.6371 20.1256C13.6371 20.1256 13.2101 20.0689 12.9358 20.0782C12.6492 20.0879 12.2088 20.1806 12.2088 20.1806L11.6554 20.0782" stroke="#303030" stroke-width="0.4" stroke-linecap="round"/>
<ellipse cx="11.7934" cy="20.128" rx="0.367523" ry="0.433044" fill="#303030"/>
<ellipse cx="11.7934" cy="21.4343" rx="0.314395" ry="0.370445" fill="#303030"/>
</svg>
