<svg width="27" height="42" viewBox="0 0 27 42" fill="none" xmlns="http://www.w3.org/2000/svg">
<path d="M0.999999 5.81286L1 36.2128C1 36.3244 25.1639 36.626 25.1639 36.2128L25.1639 5.81286C25.1639 5.35874 0.99993 5.68209 0.999999 5.81286Z" fill="#7F99AE" stroke="#303030" stroke-width="0.4" stroke-miterlimit="10"/>
<path d="M10.2606 1.01003L10.2606 40.9901C10.2606 41.2147 25.1638 37.5486 25.1638 37.2954L25.1638 4.70473C25.1638 4.43081 10.2607 0.784679 10.2606 1.01003Z" fill="#BED5E8" stroke="#303030" stroke-width="0.4" stroke-miterlimit="10"/>
<path d="M13.6371 20.1256C13.6371 20.1256 13.2101 20.0689 12.9358 20.0783C12.6492 20.088 12.2088 20.1806 12.2088 20.1806L11.6554 20.0783" stroke="#303030" stroke-width="0.4" stroke-linecap="round"/>
<ellipse cx="11.7934" cy="20.128" rx="0.367523" ry="0.433044" fill="#303030"/>
<ellipse cx="11.7934" cy="21.4343" rx="0.314395" ry="0.370445" fill="#303030"/>
</svg>
