<svg width="29" height="42" viewBox="0 0 29 42" fill="none" xmlns="http://www.w3.org/2000/svg">
<path d="M2.43681 7.86586C2.43681 7.86586 8.58014 -2.21029 18.7383 2.0506C28.8965 6.31148 28.1388 15.628 25.0769 19.6546C22.1146 23.5503 20.5387 26.6259 19.7205 31.867C18.9023 37.1082 11.9603 41 7.61939 41C4.19428 41 1.72601 38.8676 2.43681 33.3511C2.43681 33.3511 3.27258 23.5601 1.66157 18.1295C-0.191583 11.8807 2.43681 7.86782 2.43681 7.86782V7.86586Z" fill="#ECDBC2"/>
<path d="M2.4368 7.86586C2.4368 7.86586 8.58012 -2.21029 18.7383 2.0506C28.8965 6.31148 28.1388 15.628 25.0769 19.6546C22.1146 23.5503 20.5387 26.6259 19.7205 31.867C18.9023 37.1082 11.9603 41 7.61938 41C4.19427 41 1.726 38.8676 2.4368 33.3511" stroke="#303030" stroke-width="0.351518" stroke-miterlimit="10"/>
<path d="M6.98419 8.91934C6.98419 8.91934 10.6272 2.87877 17.6971 5.83338C24.7671 8.788 23.0248 15.9395 21.6517 18.1365C19.4547 21.6517 17.2577 21.6517 15.0607 29.1215C14.0383 32.5976 11.1062 33.5154 8.90916 32.1972C7.00802 31.0566 6.71217 28.2427 7.59097 26.4851C7.59097 26.4851 9.78796 23.4093 9.34856 20.7729C8.93993 18.3211 6.27277 17.2577 5.83338 14.6213C5.39398 11.9849 6.98419 8.91934 6.98419 8.91934Z" fill="#E5CEAE"/>
<path d="M23.1144 12.4432C20.5231 3.89406 13.2706 3.76518 8.92773 6.81927C5.29563 9.37346 4.20404 16.747 8.09976 16.9423C8.97069 16.9872 11.0054 16.376 12.2474 14.019C12.9836 12.6248 14.9051 11.8437 16.477 12.7517C18.049 13.6597 19.3632 16.9032 17.6252 18.7896C13.8096 22.9333 14.7274 26.8466 14.7274 29.4086C14.7274 33.5543 7.69945 34.9524 7.12535 28.9829" stroke="#303030" stroke-width="0.263639" stroke-miterlimit="10"/>
</svg>
