<svg width="232" height="260" viewBox="0 0 232 260" fill="none" xmlns="http://www.w3.org/2000/svg">
<g clip-path="url(#clip0_2757_33001)">
<path d="M175.748 167.078C177.315 164.726 178.923 162.436 180.144 160.431C180.746 159.468 181.205 158.429 181.514 157.34C182.188 154.935 183.197 151.118 183.545 149.867C183.63 149.598 183.658 149.317 183.635 149.034L183.544 146.931C183.544 146.931 184.631 144.36 185.287 142.486C185.904 140.552 183.804 139.949 181.198 141.948C179.964 142.884 178.483 145.31 177.769 146.529L177.679 144.426C177.679 144.426 179.576 130.734 179.638 126.852C179.65 122.959 176.766 122.065 175.848 124.144C174.983 126.233 173.528 131.493 172.865 133.845C171.949 137.044 170.944 144.918 170.944 144.918L169.431 144.775C169.431 144.775 170.148 134.058 170.387 132.139C170.703 129.438 170.975 125.128 171.295 120.827C171.647 115.948 167.254 116.244 166.398 119.191C165.868 120.987 163.587 138.86 162.785 142.031C161.807 146.177 161.51 143.065 161.51 143.065C161.51 143.065 161.505 134.951 161.57 133.314C161.696 130.301 161.942 126.09 162.001 122.902C162.018 119.438 158.142 119.804 157.614 122.72C157.199 124.704 156.259 130.725 155.936 132.997C155.693 134.701 154.682 147.804 154.682 147.804L153.843 148.194C153.843 148.194 151.457 136.369 150.471 134.215C149.486 132.061 147.472 133.133 147.547 135.074C147.636 136.961 149.374 151.3 149.374 151.3C149.374 151.3 148.872 166.311 148.725 168.516C148.628 170.736 153.196 177.723 153.196 177.723L154.943 185.121C160.94 187.07 175.158 180.652 176.149 178.485C175.943 177.103 175.363 173.23 174.977 170.791C174.845 170.152 174.845 169.495 174.98 168.854C175.11 168.219 175.37 167.612 175.748 167.078Z" fill="#E5CEAE" stroke="#303030" stroke-width="0.905306" stroke-linecap="round" stroke-linejoin="round"/>
<path d="M175.479 153.067C172.403 153.888 168.579 154.266 166.38 155.67C163.244 157.65 159.854 163.2 158.81 166.263C157.766 169.324 159.136 172.796 159.136 172.796" stroke="#303030" stroke-width="0.452653" stroke-linecap="round" stroke-linejoin="round"/>
<path d="M169.395 148.322C166.838 150.333 164.012 152.815 161.966 153.344C158.3 154.402 151.29 156.748 151.29 156.748" stroke="#303030" stroke-width="0.452653" stroke-linecap="round" stroke-linejoin="round"/>
<path d="M168.775 170.921C168.578 167.392 167.824 160.892 167.742 157.887C167.711 156.826 167.84 155.771 168.133 154.753C168.919 152.113 170.291 147.862 170.558 146.965C170.583 146.843 170.639 146.73 170.71 146.633L171.112 145.83C171.333 145.36 171.485 144.851 171.556 144.337C171.688 143.347 171.908 141.515 172.193 140.192C172.622 138.206 174.742 138.728 176.007 141.76C176.613 143.187 174.613 154.586 174.626 156L177.534 148.612C177.534 148.612 183.07 132.591 184.948 129.193C186.876 125.812 189.822 126.471 189.583 128.73C189.296 130.973 187.939 136.261 187.342 138.63C186.544 141.861 183.746 150.519 183.746 150.519L185.24 150.964C185.24 150.964 189.629 140.231 190.426 138.464C191.495 135.964 193.406 132.089 195.269 128.199C197.393 123.792 201.055 126.236 200.331 129.218C199.896 131.039 193.04 147.646 192.156 150.797C190.942 154.878 192.991 153.323 192.991 153.323C192.991 153.323 196.73 145.324 197.489 143.87C198.879 141.195 200.762 137.421 202.297 134.625C204.007 131.612 207.186 133.858 206.192 136.65C205.565 138.578 203.383 144.269 202.532 146.4C201.896 147.999 196.555 160.832 196.555 160.832L197.088 161.587C197.088 161.587 204.739 151.555 206.667 150.175C208.593 148.798 209.806 150.731 208.776 152.376C207.759 153.97 199.115 165.54 199.115 165.54C199.115 165.54 193.958 176.977 192.986 178.964C191.967 180.936 187.3 182.28 187.3 182.28L180.664 194.549C174.494 193.254 163.487 184.905 163.706 182.533C164.92 180.997 168.775 170.921 168.775 170.921Z" fill="#937A57" stroke="#303030" stroke-width="0.905306" stroke-linecap="round" stroke-linejoin="round"/>
<path d="M138.422 137.347L135.066 135.061" stroke="#303030" stroke-width="0.905306" stroke-linecap="round" stroke-linejoin="round"/>
<path d="M150.486 117.08L144.293 106.92" stroke="#303030" stroke-width="0.905306" stroke-linecap="round" stroke-linejoin="round"/>
<path d="M180.322 115.381L181.16 101.65" stroke="#303030" stroke-width="0.905306" stroke-linecap="round" stroke-linejoin="round"/>
<path d="M205.031 119.931L210.623 110.259" stroke="#303030" stroke-width="0.905306" stroke-linecap="round" stroke-linejoin="round"/>
<path d="M214.099 143.184L223.211 138.718" stroke="#303030" stroke-width="0.905306" stroke-linecap="round" stroke-linejoin="round"/>
<path d="M210.875 162.134L213.768 161.857" stroke="#303030" stroke-width="0.905306" stroke-linecap="round" stroke-linejoin="round"/>
</g>
<g clip-path="url(#clip1_2757_33001)">
<path d="M130.016 169.263C126.478 159.341 115.364 154.533 104.341 159.102C93.9428 163.412 90.2141 176.826 90.2141 176.826C90.2141 176.826 82.2931 165.376 71.0562 164.714C59.1451 164.011 50.2219 172.198 50.1323 182.732C50.0116 197.243 61.4009 208.96 70.8464 219.301C80.2919 229.641 102.651 250.59 102.651 250.59C102.651 250.59 116.905 223.468 122.438 210.602C127.971 197.736 134.888 182.932 130.016 169.263Z" fill="#76C69D" stroke="#303030" stroke-width="0.905306" stroke-miterlimit="10"/>
</g>
<g clip-path="url(#clip2_2757_33001)">
<mask id="path-12-inside-1_2757_33001" fill="white">
<path fill-rule="evenodd" clip-rule="evenodd" d="M73.3261 67.0359C61.5322 71.4835 53.6958 69.1249 62.5594 62.3917C75.2518 52.75 55.8683 53.0355 46.6021 56.36C33.5639 61.0377 23.8961 74.7971 19.4459 90.1072C11.354 117.946 14.2322 128.121 27.6295 137.055C38.4724 144.286 57.7904 144.105 73.5358 126.549C101.281 95.6126 88.4398 61.3363 73.3261 67.0359ZM70.0348 78.9971C68.9309 81.5563 70.1107 84.5259 72.6699 85.6298C75.2292 86.7338 78.1987 85.554 79.3027 82.9947C80.4066 80.4355 79.2268 77.4659 76.6675 76.362C74.1083 75.2581 71.1387 76.4379 70.0348 78.9971Z"/>
</mask>
<path fill-rule="evenodd" clip-rule="evenodd" d="M73.3261 67.0359C61.5322 71.4835 53.6958 69.1249 62.5594 62.3917C75.2518 52.75 55.8683 53.0355 46.6021 56.36C33.5639 61.0377 23.8961 74.7971 19.4459 90.1072C11.354 117.946 14.2322 128.121 27.6295 137.055C38.4724 144.286 57.7904 144.105 73.5358 126.549C101.281 95.6126 88.4398 61.3363 73.3261 67.0359ZM70.0348 78.9971C68.9309 81.5563 70.1107 84.5259 72.6699 85.6298C75.2292 86.7338 78.1987 85.554 79.3027 82.9947C80.4066 80.4355 79.2268 77.4659 76.6675 76.362C74.1083 75.2581 71.1387 76.4379 70.0348 78.9971Z" fill="#E5CEAE"/>
<path d="M62.5594 62.3917L62.0118 61.6708V61.6708L62.5594 62.3917ZM73.3261 67.0359L73.0067 66.1888V66.1888L73.3261 67.0359ZM46.6021 56.36L46.2964 55.5078V55.5078L46.6021 56.36ZM19.4459 90.1072L18.5765 89.8545V89.8545L19.4459 90.1072ZM27.6295 137.055L27.1272 137.808V137.808L27.6295 137.055ZM73.5358 126.549L74.2098 127.153L73.5358 126.549ZM62.5594 62.3917L62.0118 61.6708C59.7753 63.3697 58.3923 64.9294 57.9763 66.3247C57.7549 67.0672 57.7956 67.8108 58.1853 68.4591C58.5599 69.0824 59.1823 69.4922 59.8773 69.7538C61.2491 70.2702 63.2355 70.3367 65.5409 70.0308C67.8761 69.721 70.6449 69.0145 73.6456 67.8829L73.3261 67.0359L73.0067 66.1888C70.1104 67.281 67.4769 67.9475 65.3028 68.2359C63.0988 68.5283 61.4687 68.4182 60.5151 68.0593C60.0474 67.8832 59.8299 67.6807 59.7371 67.5264C59.6595 67.3971 59.6053 67.198 59.7114 66.842C59.9505 66.0403 60.9117 64.7802 63.107 63.1126L62.5594 62.3917ZM46.6021 56.36L46.9078 57.2121C51.4278 55.5904 58.4335 54.7183 62.67 55.4071C63.7221 55.5782 64.5323 55.8352 65.0756 56.1518C65.6096 56.463 65.7896 56.7687 65.827 57.0385C65.8693 57.343 65.7701 57.8718 65.168 58.6924C64.5739 59.5021 63.5642 60.4915 62.0118 61.6708L62.5594 62.3917L63.107 63.1126C64.7277 61.8815 65.8888 60.7706 66.6278 59.7635C67.3589 58.7672 67.7554 57.7625 67.6205 56.7898C67.4808 55.7825 66.8109 55.0674 65.9872 54.5874C65.1727 54.1128 64.1172 53.808 62.9605 53.62C58.3618 52.8722 51.0426 53.805 46.2964 55.5078L46.6021 56.36ZM19.4459 90.1072L20.3152 90.3599C24.7237 75.1931 34.2527 61.7524 46.9078 57.2121L46.6021 56.36L46.2964 55.5078C32.8752 60.323 23.0684 74.4011 18.5765 89.8545L19.4459 90.1072ZM27.6295 137.055L28.1318 136.302C21.5558 131.916 17.6894 127.322 16.368 120.498C15.0291 113.584 16.2748 104.26 20.3152 90.3599L19.4459 90.1072L18.5765 89.8545C14.5251 103.793 13.1639 113.475 14.5904 120.842C16.0345 128.299 20.3059 133.259 27.1272 137.808L27.6295 137.055ZM73.5358 126.549L72.8619 125.945C57.3771 143.21 38.5525 143.251 28.1318 136.302L27.6295 137.055L27.1272 137.808C38.3922 145.321 58.2036 145 74.2098 127.153L73.5358 126.549ZM73.3261 67.0359L73.6456 67.8829C77.0374 66.6038 80.3089 67.5328 82.9966 70.2201C85.714 72.937 87.8093 77.4493 88.6066 83.1787C90.1974 94.6104 86.5765 110.653 72.8619 125.945L73.5358 126.549L74.2098 127.153C88.2408 111.509 92.0719 94.9449 90.3999 82.9292C89.5658 76.935 87.3509 72.0132 84.2768 68.9397C81.173 65.8364 77.1717 64.6181 73.0067 66.1888L73.3261 67.0359ZM72.6699 85.6298L73.0285 84.7986C70.9283 83.8927 69.9602 81.4558 70.8661 79.3557L70.0348 78.9971L69.2035 78.6385C67.9016 81.6569 69.293 85.1592 72.3114 86.4611L72.6699 85.6298ZM79.3027 82.9947L78.4714 82.6362C77.5655 84.7363 75.1286 85.7045 73.0285 84.7986L72.6699 85.6298L72.3114 86.4611C75.3297 87.7631 78.832 86.3716 80.1339 83.3533L79.3027 82.9947ZM76.6675 76.362L76.309 77.1933C78.4091 78.0991 79.3773 80.536 78.4714 82.6362L79.3027 82.9947L80.1339 83.3533C81.4359 80.335 80.0445 76.8327 77.0261 75.5307L76.6675 76.362ZM70.0348 78.9971L70.8661 79.3557C71.772 77.2555 74.2088 76.2874 76.309 77.1933L76.6675 76.362L77.0261 75.5307C74.0078 74.2288 70.5055 75.6202 69.2035 78.6385L70.0348 78.9971Z" fill="#303030" mask="url(#path-12-inside-1_2757_33001)"/>
<path d="M69.263 97.2351C69.684 96.2558 71.8149 96.9042 73.268 97.2612C74.5642 97.5804 74.9582 97.2739 75.7122 96.9733C76.4662 96.6727 77.1096 98.9129 77.9375 99.8935C78.7653 100.874 79.0976 102.177 78.4393 103.501C77.7811 104.824 76.6828 104.888 76.5631 105.996C76.4434 107.105 74.0308 107.942 73.9865 109.083C73.9421 110.224 69.8097 108.626 68.8945 108.679C67.9793 108.732 67.0874 107.277 66.8305 106.007C66.5736 104.736 65.7351 103.572 65.5317 102.592C65.3283 101.612 66.0506 100.763 67.1601 100.258C68.2696 99.7532 68.842 98.2143 69.263 97.2351Z" fill="#A9DBC2" stroke="#303030" stroke-width="0.905306"/>
<path d="M64.5949 117.365C65.376 118.09 64.0502 119.88 63.2263 121.129C62.4906 122.243 62.6471 122.717 62.6773 123.528C62.7074 124.339 60.3813 124.193 59.1797 124.644C57.9781 125.095 56.6391 124.971 55.6132 123.906C54.5874 122.842 54.8962 121.786 53.8919 121.302C52.8876 120.817 52.9087 118.263 51.8486 117.839C50.7885 117.414 53.6807 114.057 53.9381 113.177C54.1954 112.298 55.8649 111.946 57.1481 112.13C58.4313 112.314 59.8089 111.915 60.8003 112.052C61.7917 112.189 62.3498 113.155 62.4529 114.369C62.5561 115.584 63.8137 116.64 64.5949 117.365Z" fill="#76C69D" stroke="#303030" stroke-width="0.905306"/>
<path d="M33.8945 126.717C32.8682 127.005 32.0337 124.94 31.3984 123.585C30.8323 122.376 30.3463 122.262 29.6387 121.864C28.9311 121.467 30.2696 119.559 30.5124 118.298C30.7551 117.038 31.5601 115.961 33.0033 115.641C34.4465 115.322 35.1858 116.137 36.1236 115.533C37.0614 114.93 39.2284 116.281 40.1441 115.598C41.0598 114.916 42.4129 119.135 43.029 119.813C43.6451 120.492 43.0739 122.1 42.2468 123.098C41.4197 124.096 41.0412 125.48 40.4066 126.254C39.7721 127.028 38.6572 127 37.5674 126.454C36.4777 125.908 34.9208 126.429 33.8945 126.717Z" fill="#5BA27E" stroke="#303030" stroke-width="0.905306"/>
<path d="M39.6433 99.7074C40.2932 100.552 38.6885 102.097 37.6687 103.192C36.7583 104.168 36.8338 104.662 36.7289 105.467C36.6239 106.271 34.3543 105.742 33.0945 105.987C31.8347 106.232 30.5349 105.887 29.7 104.667C28.8651 103.447 29.345 102.457 28.4352 101.812C27.5253 101.167 27.9702 98.6528 26.9954 98.0579C26.0205 97.463 29.4299 94.6334 29.8298 93.8086C30.2298 92.9837 31.9345 92.9137 33.1693 93.3086C34.4041 93.7035 35.8289 93.5385 36.7837 93.8384C37.7385 94.1384 38.1285 95.1832 38.0285 96.398C37.9286 97.6128 38.9934 98.8626 39.6433 99.7074Z" fill="#7F99AE" stroke="#303030" stroke-width="0.905306"/>
<path d="M45.7549 74.592C46.8201 74.5532 47.1467 76.7565 47.4463 78.2225C47.7129 79.5305 48.1586 79.7554 48.7531 80.308C49.3476 80.8607 47.5987 82.4013 47.067 83.5694C46.5353 84.7374 45.5 85.5957 44.0221 85.5676C42.5443 85.5394 42.0168 84.5741 40.9635 84.9407C39.9103 85.3073 38.1208 83.4855 37.0706 83.9341C36.0203 84.3826 35.695 79.9639 35.2555 79.1595C34.8159 78.3551 35.7483 76.9263 36.7866 76.1499C37.8249 75.3736 38.5175 74.1177 39.316 73.5142C40.1144 72.9107 41.1916 73.1996 42.1228 73.9861C43.054 74.7726 44.6898 74.6309 45.7549 74.592Z" fill="#BED5E8" stroke="#303030" stroke-width="0.905306"/>
</g>
<path d="M123.752 27.9812C126.043 32.4319 129.894 38.0077 134.828 38.0077C139.478 38.0077 143.06 32.1699 145.22 27.6538C147.38 23.1377 149.448 13.3285 145.804 7.17779C141.703 0.25679 127.406 1.00514 123.013 7.17784C118.62 13.3505 120.956 22.5486 123.752 27.9812Z" fill="#76C69D" stroke="#303030" stroke-width="0.905306"/>
<path d="M131.996 39.8696C132.23 39.3841 133.581 38.5449 134.227 38.186C134.729 37.8929 135.038 38.0112 135.382 38.186C135.714 38.3545 137.164 39.2432 137.399 40.0654C137.634 40.8876 136.479 40.4374 136.107 40.4178C135.735 40.3982 135.304 40.1633 134.227 40.5744C133.151 40.9855 131.702 40.4765 131.996 39.8696Z" fill="#76C69D" stroke="#303030" stroke-width="0.905306"/>
<path d="M135.004 40.3926C135.296 43.9329 135.276 46.4782 135.004 49.516C134.663 53.3133 132.213 61.6273 133.746 68.0826C135.279 74.5379 136.389 78.2127 135.004 92.7945" stroke="#303030" stroke-width="0.905306"/>
<path d="M150.975 42.1999C153.265 46.6507 157.117 52.2265 162.051 52.2265C166.701 52.2265 170.283 46.3887 172.443 41.8726C174.603 37.3564 176.67 27.5472 173.026 21.3965C168.926 14.4755 154.629 15.2239 150.236 21.3966C145.843 27.5693 148.178 36.7674 150.975 42.1999Z" fill="#BED5E8" stroke="#303030" stroke-width="0.905306"/>
<path d="M159.218 54.0884C159.453 53.6029 160.804 52.7637 161.45 52.4047C161.952 52.1116 162.261 52.23 162.605 52.4047C162.937 52.5733 164.387 53.4619 164.621 54.2842C164.856 55.1064 163.701 54.6561 163.329 54.6365C162.957 54.617 162.527 54.382 161.45 54.7932C160.373 55.2043 158.925 54.6953 159.218 54.0884Z" fill="#BED5E8" stroke="#303030" stroke-width="0.905306"/>
<path d="M162.227 54.6113C160.651 62.6185 163.661 66.4719 162.227 73.5394C160.908 80.0417 162.227 86.3282 162.227 92.7945" stroke="#303030" stroke-width="0.905306"/>
<path d="M102.643 54.4362C104.933 58.887 108.785 64.4628 113.719 64.4628C118.368 64.4628 121.951 58.625 124.111 54.1089C126.271 49.5928 128.338 39.7836 124.694 33.6329C120.594 26.7119 106.297 27.4602 101.904 33.6329C97.5111 39.8056 99.8464 49.0037 102.643 54.4362Z" fill="#E5CEAE" stroke="#303030" stroke-width="0.905306"/>
<path d="M110.886 66.3247C111.121 65.8392 112.472 65 113.118 64.6411C113.62 64.348 113.929 64.4663 114.273 64.6411C114.605 64.8096 116.055 65.6982 116.289 66.5205C116.524 67.3427 115.369 66.8925 114.997 66.8729C114.625 66.8533 114.195 66.6184 113.118 67.0295C112.041 67.4406 110.592 66.9316 110.886 66.3247Z" fill="#E5CEAE" stroke="#303030" stroke-width="0.905306"/>
<path d="M113.896 66.8477C114.556 76.2488 111.637 77.8304 113.896 92.7941" stroke="#303030" stroke-width="0.905306"/>
<defs>
<clipPath id="clip0_2757_33001">
<rect width="91.1557" height="95.0571" fill="white" transform="translate(143.285 90.3848) rotate(13.2811)"/>
</clipPath>
<clipPath id="clip1_2757_33001">
<rect width="86.3885" height="95.0571" fill="white" transform="translate(44.6289 166.27) rotate(-9.57048)"/>
</clipPath>
<clipPath id="clip2_2757_33001">
<rect width="72.9914" height="95.0571" fill="white" transform="translate(37.5469 40.8008) rotate(23.2646)"/>
</clipPath>
</defs>
</svg>
