<?xml version="1.0" encoding="UTF-8"?>
<svg id="Layer_1" data-name="Layer 1" xmlns="http://www.w3.org/2000/svg" viewBox="0 0 83.4 24">
  <defs>
    <style>
      .cls-1 {
        fill: #303030;
      }

      .cls-2 {
        fill: #76c69d;
      }
    </style>
  </defs>
  <g>
    <g>
      <path class="cls-1" d="M30.97,20.09h-.77l-.04-.91c-.2.34-.47.59-.8.75-.33.16-.68.24-1.05.24s-.68-.06-.98-.17c-.3-.11-.57-.28-.79-.5-.23-.22-.4-.49-.53-.8-.13-.32-.19-.68-.19-1.08s.06-.78.19-1.1.3-.59.53-.8.49-.38.79-.49c.3-.11.63-.16.98-.16.17,0,.35.02.53.06.18.04.36.1.52.18s.31.19.45.31.25.27.34.43v-2.68l.82-.3v7.01ZM27.7,15.94c-.21.08-.39.19-.55.34s-.28.34-.37.56c-.09.22-.13.48-.13.76s.04.54.13.76c.09.22.21.41.37.56.16.15.34.27.55.35.21.08.43.12.67.12s.48-.04.69-.13c.21-.09.4-.21.55-.36.16-.16.28-.34.37-.56.09-.22.13-.47.13-.74s-.05-.51-.13-.72c-.09-.22-.21-.4-.37-.56s-.35-.28-.56-.36-.44-.13-.69-.13h0c-.24,0-.46.04-.67.11Z"/>
      <path class="cls-1" d="M32.57,13.49c.11-.09.24-.13.37-.13s.26.04.37.13c.11.09.17.22.17.4s-.06.31-.17.4c-.11.09-.24.13-.37.13s-.26-.05-.37-.13-.17-.22-.17-.4.06-.3.17-.39ZM33.34,15.16v4.93h-.82v-4.93h.82Z"/>
      <path class="cls-1" d="M35.72,15.89c.17-.32.4-.54.67-.65.28-.11.56-.17.84-.17.21,0,.42.02.62.1.2.07.38.16.53.27l-.37.7c-.13-.09-.27-.16-.4-.2s-.29-.06-.46-.06c-.2,0-.39.03-.56.1-.17.07-.33.17-.46.29-.13.13-.24.28-.31.46-.08.18-.11.39-.11.61v2.75h-.82v-4.93h.77s.06.73.06.73Z"/>
      <path class="cls-1" d="M42.43,19.97c-.39.14-.78.21-1.16.21s-.73-.06-1.05-.18c-.32-.12-.59-.29-.82-.52-.23-.23-.41-.5-.53-.81-.13-.32-.19-.67-.19-1.06s.06-.72.19-1.03c.13-.31.3-.58.53-.81.23-.23.5-.4.81-.53.31-.13.66-.19,1.03-.19s.73.06,1.05.17c.32.12.59.29.82.53.23.24.39.54.5.9.11.36.14.79.09,1.28h-4.19c.02.23.08.43.18.61s.23.34.39.46c.16.13.34.22.55.29.21.07.43.1.67.1.14,0,.28-.01.43-.04.15-.03.29-.07.43-.12.14-.05.27-.12.39-.19.12-.08.22-.16.3-.26l.54.49h0c-.25.3-.57.53-.96.67ZM42.43,16.17c-.3-.25-.7-.38-1.18-.38-.43,0-.81.12-1.14.37-.33.25-.53.61-.6,1.09h3.42c-.02-.47-.18-.84-.48-1.09Z"/>
      <path class="cls-1" d="M47.72,15.16h1.02v.05l-2.28,2.28,2.56,2.55v.06h-1l-2.33-2.33v2.33h-.81v-6.72l.81-.29v4.16l2.03-2.08Z"/>
      <path class="cls-1" d="M52.8,15.16v.7h-1.54v2.62c0,.29.05.52.16.69.11.17.31.25.61.25.11,0,.23-.02.34-.05.12-.03.23-.08.34-.13l.24.68c-.17.07-.33.13-.48.17s-.31.06-.48.07c-.53.01-.93-.13-1.18-.42s-.38-.72-.38-1.26v-2.62h-.99v-.7h.99v-1.33l.82-.3v1.62h1.53Z"/>
      <path class="cls-1" d="M53.77,16.59c.13-.32.31-.59.53-.82.23-.23.5-.4.81-.53.31-.13.65-.19,1.02-.19s.73.06,1.04.19.58.3.81.53c.23.23.4.5.53.82.13.32.19.67.19,1.05s-.06.72-.19,1.03c-.13.31-.3.58-.53.81s-.5.4-.81.52-.66.18-1.03.18-.71-.06-1.02-.18-.58-.3-.81-.52c-.23-.23-.41-.5-.53-.81-.13-.31-.19-.66-.19-1.03s.06-.73.19-1.05ZM57.76,16.89c-.09-.23-.21-.42-.37-.58-.16-.16-.34-.28-.55-.37s-.44-.13-.69-.13-.49.04-.7.13c-.21.09-.4.21-.55.37-.16.16-.28.35-.36.58-.09.23-.13.48-.13.75s.04.5.13.71c.09.22.21.4.36.56.15.16.34.28.55.37.21.09.45.13.7.13s.49-.04.7-.13c.22-.09.4-.21.55-.37.15-.16.27-.35.36-.56.09-.22.13-.45.13-.71,0-.27-.05-.52-.13-.75Z"/>
      <path class="cls-1" d="M60.76,15.89c.17-.32.4-.54.67-.65s.56-.17.84-.17c.21,0,.42.02.62.1.2.07.38.16.53.27l-.37.7c-.13-.09-.27-.16-.4-.2s-.29-.06-.46-.06c-.2,0-.39.03-.56.1-.17.07-.33.17-.46.29s-.24.28-.31.46c-.08.18-.11.39-.11.61v2.75h-.82v-4.93h.77s.06.73.06.73Z"/>
      <path class="cls-1" d="M68.06,19.21c-.1.17-.22.32-.35.44s-.28.23-.44.31c-.16.08-.33.14-.5.18s-.35.06-.51.06c-.35,0-.68-.06-.99-.18-.31-.12-.58-.29-.8-.51-.23-.22-.4-.49-.53-.81s-.19-.68-.19-1.08.07-.76.2-1.07.31-.58.54-.8c.23-.22.5-.39.8-.5.31-.11.64-.17.99-.17.37,0,.73.08,1.06.25.33.17.59.41.77.73v-.9h.81v4.93h-.81s-.02-.88-.02-.88ZM65.59,15.98c-.21.08-.4.2-.56.36-.16.16-.29.35-.38.57s-.14.47-.14.74.05.52.14.74c.09.22.22.41.38.57.16.16.35.28.56.36.21.09.44.13.69.13.39,0,.72-.09.99-.27.27-.18.47-.4.6-.67s.2-.56.2-.87-.07-.6-.2-.87c-.13-.27-.33-.49-.59-.67-.26-.18-.59-.27-.99-.26-.25,0-.48.04-.69.12Z"/>
      <path class="cls-1" d="M73.35,15.16v.7h-1.54v2.62c0,.29.05.52.16.69.11.17.31.25.61.25.11,0,.23-.02.34-.05s.23-.08.34-.13l.24.68c-.17.07-.33.13-.48.17-.15.04-.31.06-.48.07-.53.01-.93-.13-1.18-.42-.25-.3-.38-.72-.38-1.26v-2.62h-.99v-.7h.99v-1.33l.82-.3v1.62h1.53Z"/>
      <path class="cls-1" d="M77.9,19.97c-.39.14-.78.21-1.16.21s-.73-.06-1.05-.18c-.32-.12-.59-.29-.82-.52-.23-.23-.41-.5-.53-.81-.13-.32-.19-.67-.19-1.06s.06-.72.19-1.03.3-.58.53-.81c.23-.23.5-.4.81-.53.31-.13.66-.19,1.03-.19s.73.06,1.05.17c.32.12.59.29.82.53.23.24.39.54.5.9.11.36.14.79.09,1.28h-4.19c.02.23.08.43.18.61.1.18.23.34.39.46.16.13.34.22.55.29.21.07.43.1.67.1.14,0,.28-.01.43-.04.15-.03.29-.07.43-.12.14-.05.27-.12.39-.19.12-.08.22-.16.3-.26l.54.49h0c-.25.3-.57.53-.96.67ZM77.9,16.17c-.3-.25-.7-.38-1.18-.38-.43,0-.81.12-1.14.37-.33.25-.53.61-.6,1.09h3.42c-.02-.47-.18-.84-.48-1.09Z"/>
      <path class="cls-1" d="M83.23,15.16v.7h-1.54v2.62c0,.29.05.52.16.69.11.17.31.25.61.25.11,0,.23-.02.34-.05s.23-.08.34-.13l.24.68c-.17.07-.33.13-.48.17-.15.04-.31.06-.48.07-.53.01-.93-.13-1.18-.42-.25-.3-.38-.72-.38-1.26v-2.62h-.99v-.7h.99v-1.33l.82-.3v1.62h1.53Z"/>
    </g>
    <g>
      <path class="cls-1" d="M31.92,6.68c0,.49-.08.91-.23,1.27-.15.36-.36.67-.62.91-.26.24-.56.43-.9.55-.34.12-.7.18-1.08.18s-.73-.06-1.08-.18c-.35-.12-.65-.3-.91-.54-.26-.24-.47-.55-.63-.91-.16-.36-.24-.79-.24-1.28v-3.9l.86-.31v4.22c0,.35.05.65.16.91.11.26.25.48.44.66.19.18.4.31.64.4.24.09.5.13.77.13s.52-.05.76-.14c.24-.09.45-.23.63-.41.18-.18.32-.4.43-.67.11-.27.16-.57.16-.91v-3.9l.86-.31v4.23Z"/>
      <path class="cls-1" d="M36.34,4.52v.7h-1.54v2.63c0,.29.05.52.16.69.11.17.31.25.61.25.11,0,.23-.02.34-.05.12-.03.23-.08.34-.13l.24.68c-.17.07-.33.13-.48.17s-.31.06-.48.07c-.53.01-.93-.13-1.18-.42s-.38-.72-.38-1.26v-2.63h-.99v-.7h.99v-1.32l.82-.3v1.61h1.53Z"/>
      <path class="cls-1" d="M42.14,9.46h-.77l-.04-.91c-.2.34-.47.59-.8.75-.33.16-.68.24-1.05.24s-.68-.06-.98-.17c-.3-.11-.57-.28-.79-.5-.23-.22-.4-.49-.53-.8-.13-.32-.19-.68-.19-1.08s.06-.78.19-1.1.3-.59.53-.8.49-.38.79-.49c.3-.11.63-.16.98-.16.17,0,.35.02.53.06.18.04.36.1.52.18s.31.19.45.31.25.27.34.43v-2.68l.82-.3v7.01ZM38.87,5.31c-.21.08-.39.19-.55.34s-.28.34-.37.56c-.09.22-.13.48-.13.76s.04.54.13.76c.09.22.21.41.37.56.16.15.34.27.55.35.21.08.43.12.67.12s.48-.04.69-.13c.21-.09.4-.21.55-.36.16-.16.28-.34.37-.56.09-.22.13-.47.13-.74s-.05-.51-.13-.72c-.09-.22-.21-.4-.37-.56s-.35-.28-.56-.36-.44-.13-.69-.13h0c-.24,0-.46.04-.67.11Z"/>
      <path class="cls-1" d="M47.57,8.58c-.1.17-.22.32-.35.44-.14.12-.28.23-.44.31s-.33.14-.5.18-.35.06-.51.06c-.35,0-.68-.06-.99-.18-.31-.12-.58-.29-.8-.51-.23-.22-.4-.49-.53-.81s-.19-.68-.19-1.08.07-.76.2-1.07.31-.58.54-.8c.23-.22.5-.39.8-.5.31-.11.64-.17.99-.17.37,0,.73.08,1.06.25.33.17.59.41.77.73v-.9h.81v4.93h-.81s-.02-.88-.02-.88ZM45.1,5.35c-.21.08-.4.2-.56.36s-.29.35-.38.57-.14.47-.14.74.05.52.14.74c.09.22.22.41.38.57.16.16.35.28.56.36.21.09.44.13.69.13.39,0,.72-.09.99-.27.27-.18.47-.4.6-.67s.2-.56.2-.87-.07-.6-.2-.87c-.13-.27-.33-.49-.59-.67-.26-.18-.59-.27-.99-.26-.25,0-.48.04-.69.12Z"/>
      <path class="cls-1" d="M50.55,4.52l.04.79c.21-.3.46-.52.75-.65.29-.14.6-.2.93-.2.31,0,.6.05.86.15s.49.25.68.44c.19.19.34.43.45.72.11.29.16.61.16.97v2.73h-.82v-2.72c0-.48-.13-.86-.39-1.13-.26-.27-.63-.41-1.1-.41-.23,0-.43.04-.62.13-.19.09-.35.2-.48.34-.13.14-.24.31-.31.51-.07.2-.11.4-.11.62v2.65h-.81v-4.93h0s.75,0,.75,0Z"/>
      <path class="cls-1" d="M56.52,4.52l.04.79c.21-.3.46-.52.75-.65.29-.14.6-.2.93-.2.31,0,.6.05.86.15.26.1.49.25.68.44s.34.43.45.72c.11.29.16.61.16.97v2.73h-.82v-2.72c0-.48-.13-.86-.39-1.13-.26-.27-.63-.41-1.1-.41-.23,0-.43.04-.62.13-.19.09-.35.2-.48.34-.13.14-.24.31-.31.51-.07.2-.11.4-.11.62v2.65h-.81v-4.93h0s.75,0,.75,0Z"/>
      <path class="cls-1" d="M61.79,2.86c.11-.09.24-.13.37-.13s.26.04.37.13c.11.09.17.22.17.4s-.06.31-.17.4c-.11.09-.24.13-.37.13s-.26-.05-.37-.13c-.11-.09-.17-.22-.17-.4s.06-.3.17-.39ZM62.56,4.52v4.94h-.82v-4.94h.82Z"/>
      <path class="cls-1" d="M64.71,4.52l.04.79c.21-.3.46-.52.75-.65s.6-.2.93-.2c.31,0,.6.05.86.15.26.1.49.25.68.44s.34.43.45.72c.11.29.16.61.16.97v2.73h-.82v-2.72c0-.48-.13-.86-.39-1.13-.26-.27-.63-.41-1.1-.41-.23,0-.43.04-.62.13s-.35.2-.48.34-.24.31-.31.51-.11.4-.11.62v2.65h-.81v-4.93h0s.75,0,.75,0Z"/>
      <path class="cls-1" d="M70.62,10.9c.1.17.23.31.39.42.16.11.35.19.56.24.21.05.43.08.65.08.21,0,.42-.02.63-.06.21-.04.39-.11.56-.2s.3-.21.4-.36c.1-.15.15-.33.15-.54,0-.2-.05-.37-.14-.52-.09-.15-.22-.27-.38-.37-.16-.1-.34-.17-.55-.22-.21-.05-.43-.08-.65-.08-.39,0-.74-.05-1.06-.16s-.59-.27-.82-.48c-.23-.21-.41-.46-.53-.76s-.19-.64-.19-1.03c0-.41.08-.76.23-1.07.15-.31.35-.56.6-.76s.52-.36.83-.46.62-.15.94-.15c.23,0,.47.03.73.09.26.06.48.15.66.28l.53-.64.58.46-.56.66c.19.22.35.45.46.69s.17.54.17.9c0,.21-.03.42-.08.62-.05.2-.14.39-.25.57-.12.18-.26.34-.43.48-.17.14-.38.25-.62.33.48.14.83.35,1.04.64.21.29.32.61.32.97,0,.32-.07.6-.22.84s-.34.44-.58.6c-.24.16-.51.28-.82.36-.31.08-.63.12-.95.12-.37,0-.72-.05-1.03-.14-.31-.1-.58-.23-.8-.41-.22-.18-.4-.4-.52-.66-.12-.26-.18-.56-.17-.89h.79c0,.24.05.44.14.61ZM70.59,7.6c.1.22.23.4.39.54.16.14.35.25.57.32s.45.11.69.11c.26,0,.5-.04.72-.13s.41-.21.56-.36c.16-.15.28-.33.36-.54.09-.21.13-.43.13-.67,0-.28-.05-.53-.15-.74-.1-.21-.23-.39-.39-.53-.16-.14-.35-.25-.57-.32s-.44-.11-.67-.11c-.22,0-.44.03-.65.1s-.41.17-.58.31c-.17.14-.31.32-.41.53-.1.21-.15.46-.15.75,0,.28.06.53.15.74Z"/>
      <path class="cls-1" d="M78.43,5.24c-.23-.06-.47-.1-.72-.1-.17,0-.33.01-.48.04-.15.03-.27.07-.38.13-.11.06-.2.14-.26.23-.06.09-.09.2-.09.32,0,.13.03.23.1.32.07.09.16.16.28.21.12.05.25.1.39.12.15.03.3.05.45.07.23.03.46.06.71.11.25.05.47.12.67.23.2.11.37.25.5.43.13.18.2.43.19.73,0,.25-.06.46-.17.65s-.26.34-.45.46c-.19.12-.41.21-.65.27-.25.06-.51.09-.79.09-.41,0-.81-.07-1.2-.2s-.72-.38-1-.73l.47-.57c.22.27.49.47.81.58.32.12.64.17.94.17.13,0,.27-.01.42-.03.15-.02.28-.06.4-.12.12-.06.22-.14.3-.23.08-.1.12-.22.13-.37,0-.13-.03-.24-.1-.33-.07-.09-.16-.16-.28-.22-.12-.06-.26-.11-.42-.14-.16-.04-.34-.06-.52-.08-.24-.03-.48-.07-.71-.12-.23-.05-.44-.13-.63-.24s-.34-.24-.45-.41c-.12-.17-.17-.38-.17-.64s.06-.48.17-.67.27-.34.46-.45c.19-.12.41-.2.64-.25.24-.05.47-.07.71-.07.37,0,.71.05,1.02.15.31.1.59.27.86.51l-.47.54h0c-.21-.18-.43-.31-.66-.37Z"/>
      <path class="cls-1" d="M83.23,7.19h-2.47v-.78h2.47v.78Z"/>
    </g>
  </g>
  <g>
    <path class="cls-2" d="M20.18,0v14.9c0,3.58-2.9,6.47-6.47,6.47-.64,0-1.25-.09-1.83-.26.68-1.03,1.07-2.26,1.07-3.58V2.63l7.23-2.63Z"/>
    <path class="cls-1" d="M11.87,21.11c-1.16,1.75-3.15,2.89-5.4,2.89-3.57,0-6.47-2.9-6.47-6.47V3.64L7.23,1.01v13.89c0,2.94,1.96,5.42,4.64,6.21Z"/>
  </g>
</svg>