<svg width="167" height="48" viewBox="0 0 167 48" fill="none" xmlns="http://www.w3.org/2000/svg">
<g clip-path="url(#clip0_18638_3344)">
<path d="M61.94 40.18H60.4L60.32 38.36C59.92 39.04 59.38 39.54 58.72 39.86C58.06 40.18 57.36 40.34 56.62 40.34C55.88 40.34 55.26 40.22 54.66 40C54.06 39.78 53.52 39.44 53.08 39C52.62 38.56 52.28 38.02 52.02 37.4C51.76 36.76 51.64 36.04 51.64 35.24C51.64 34.44 51.76 33.68 52.02 33.04C52.28 32.4 52.62 31.86 53.08 31.44C53.54 31.02 54.06 30.68 54.66 30.46C55.26 30.24 55.92 30.14 56.62 30.14C56.96 30.14 57.32 30.18 57.68 30.26C58.04 30.34 58.4 30.46 58.72 30.62C59.04 30.78 59.34 31 59.62 31.24C59.9 31.48 60.12 31.78 60.3 32.1V26.74L61.94 26.14V40.16V40.18ZM55.4 31.88C54.98 32.04 54.62 32.26 54.3 32.56C53.98 32.86 53.74 33.24 53.56 33.68C53.38 34.12 53.3 34.64 53.3 35.2C53.3 35.76 53.38 36.28 53.56 36.72C53.74 37.16 53.98 37.54 54.3 37.84C54.62 38.14 54.98 38.38 55.4 38.54C55.82 38.7 56.26 38.78 56.74 38.78C57.22 38.78 57.7 38.7 58.12 38.52C58.54 38.34 58.92 38.1 59.22 37.8C59.54 37.48 59.78 37.12 59.96 36.68C60.14 36.24 60.22 35.74 60.22 35.2C60.22 34.66 60.12 34.18 59.96 33.76C59.78 33.32 59.54 32.96 59.22 32.64C58.9 32.32 58.52 32.08 58.1 31.92C57.68 31.76 57.22 31.66 56.72 31.66C56.24 31.66 55.8 31.74 55.38 31.88H55.4Z" fill="#303030"/>
<path d="M65.14 26.98C65.36 26.8 65.62 26.72 65.88 26.72C66.14 26.72 66.4 26.8 66.62 26.98C66.84 27.16 66.96 27.42 66.96 27.78C66.96 28.14 66.84 28.4 66.62 28.58C66.4 28.76 66.14 28.84 65.88 28.84C65.62 28.84 65.36 28.74 65.14 28.58C64.92 28.42 64.8 28.14 64.8 27.78C64.8 27.42 64.92 27.18 65.14 27V26.98ZM66.68 30.32V40.18H65.04V30.32H66.68Z" fill="#303030"/>
<path d="M71.44 31.78C71.78 31.14 72.24 30.7 72.78 30.48C73.34 30.26 73.9 30.14 74.46 30.14C74.88 30.14 75.3 30.18 75.7 30.34C76.1 30.48 76.46 30.66 76.76 30.88L76.02 32.28C75.76 32.1 75.48 31.96 75.22 31.88C74.96 31.8 74.64 31.76 74.3 31.76C73.9 31.76 73.52 31.82 73.18 31.96C72.84 32.1 72.52 32.3 72.26 32.54C72 32.8 71.78 33.1 71.64 33.46C71.48 33.82 71.42 34.24 71.42 34.68V40.18H69.78V30.32H71.32L71.44 31.78Z" fill="#303030"/>
<path d="M84.86 39.94C84.08 40.22 83.3 40.36 82.54 40.36C81.78 40.36 81.08 40.24 80.44 40C79.8 39.76 79.26 39.42 78.8 38.96C78.34 38.5 77.98 37.96 77.74 37.34C77.48 36.7 77.36 36 77.36 35.22C77.36 34.44 77.48 33.78 77.74 33.16C78 32.54 78.34 32 78.8 31.54C79.26 31.08 79.8 30.74 80.42 30.48C81.04 30.22 81.74 30.1 82.48 30.1C83.22 30.1 83.94 30.22 84.58 30.44C85.22 30.68 85.76 31.02 86.22 31.5C86.68 31.98 87 32.58 87.22 33.3C87.44 34.02 87.5 34.88 87.4 35.86H79.02C79.06 36.32 79.18 36.72 79.38 37.08C79.58 37.44 79.84 37.76 80.16 38C80.48 38.26 80.84 38.44 81.26 38.58C81.68 38.72 82.12 38.78 82.6 38.78C82.88 38.78 83.16 38.76 83.46 38.7C83.76 38.64 84.04 38.56 84.32 38.46C84.6 38.36 84.86 38.22 85.1 38.08C85.34 37.92 85.54 37.76 85.7 37.56L86.78 38.54C86.28 39.14 85.64 39.6 84.86 39.88V39.94ZM84.86 32.34C84.26 31.84 83.46 31.58 82.5 31.58C81.64 31.58 80.88 31.82 80.22 32.32C79.56 32.82 79.16 33.54 79.02 34.5H85.86C85.82 33.56 85.5 32.82 84.9 32.32L84.86 32.34Z" fill="#303030"/>
<path d="M95.44 30.32H97.48V30.42L92.92 34.98L98.04 40.08V40.2H96.04L91.38 35.54V40.2H89.76V26.76L91.38 26.18V34.5L95.44 30.34V30.32Z" fill="#303030"/>
<path d="M105.6 30.32V31.72H102.52V36.96C102.52 37.54 102.62 38 102.84 38.34C103.06 38.68 103.46 38.84 104.06 38.84C104.28 38.84 104.52 38.8 104.74 38.74C104.98 38.68 105.2 38.58 105.42 38.48L105.9 39.84C105.56 39.98 105.24 40.1 104.94 40.18C104.64 40.26 104.32 40.3 103.98 40.32C102.92 40.34 102.12 40.06 101.62 39.48C101.12 38.9 100.86 38.04 100.86 36.96V31.72H98.88V30.32H100.86V27.66L102.5 27.06V30.3H105.56L105.6 30.32Z" fill="#303030"/>
<path d="M107.54 33.18C107.8 32.54 108.16 32 108.6 31.54C109.06 31.08 109.6 30.74 110.22 30.48C110.84 30.22 111.52 30.1 112.26 30.1C113 30.1 113.72 30.22 114.34 30.48C114.96 30.74 115.5 31.08 115.96 31.54C116.42 32 116.76 32.54 117.02 33.18C117.28 33.82 117.4 34.52 117.4 35.28C117.4 36.04 117.28 36.72 117.02 37.34C116.76 37.96 116.42 38.5 115.96 38.96C115.5 39.42 114.96 39.76 114.34 40C113.72 40.24 113.02 40.36 112.28 40.36C111.54 40.36 110.86 40.24 110.24 40C109.62 39.76 109.08 39.4 108.62 38.96C108.16 38.5 107.8 37.96 107.56 37.34C107.3 36.72 107.18 36.02 107.18 35.28C107.18 34.54 107.3 33.82 107.56 33.18H107.54ZM115.52 33.78C115.34 33.32 115.1 32.94 114.78 32.62C114.46 32.3 114.1 32.06 113.68 31.88C113.26 31.7 112.8 31.62 112.3 31.62C111.8 31.62 111.32 31.7 110.9 31.88C110.48 32.06 110.1 32.3 109.8 32.62C109.48 32.94 109.24 33.32 109.08 33.78C108.9 34.24 108.82 34.74 108.82 35.28C108.82 35.82 108.9 36.28 109.08 36.7C109.26 37.14 109.5 37.5 109.8 37.82C110.1 38.14 110.48 38.38 110.9 38.56C111.32 38.74 111.8 38.82 112.3 38.82C112.8 38.82 113.28 38.74 113.7 38.56C114.14 38.38 114.5 38.14 114.8 37.82C115.1 37.5 115.34 37.12 115.52 36.7C115.7 36.26 115.78 35.8 115.78 35.28C115.78 34.74 115.68 34.24 115.52 33.78Z" fill="#303030"/>
<path d="M121.52 31.78C121.86 31.14 122.32 30.7 122.86 30.48C123.4 30.26 123.98 30.14 124.54 30.14C124.96 30.14 125.38 30.18 125.78 30.34C126.18 30.48 126.54 30.66 126.84 30.88L126.1 32.28C125.84 32.1 125.56 31.96 125.3 31.88C125.04 31.8 124.72 31.76 124.38 31.76C123.98 31.76 123.6 31.82 123.26 31.96C122.92 32.1 122.6 32.3 122.34 32.54C122.08 32.78 121.86 33.1 121.72 33.46C121.56 33.82 121.5 34.24 121.5 34.68V40.18H119.86V30.32H121.4L121.52 31.78Z" fill="#303030"/>
<path d="M136.12 38.42C135.92 38.76 135.68 39.06 135.42 39.3C135.16 39.54 134.86 39.76 134.54 39.92C134.22 40.08 133.88 40.2 133.54 40.28C133.2 40.36 132.84 40.4 132.52 40.4C131.82 40.4 131.16 40.28 130.54 40.04C129.92 39.8 129.38 39.46 128.94 39.02C128.48 38.58 128.14 38.04 127.88 37.4C127.62 36.76 127.5 36.04 127.5 35.24C127.5 34.44 127.64 33.72 127.9 33.1C128.16 32.48 128.52 31.94 128.98 31.5C129.44 31.06 129.98 30.72 130.58 30.5C131.2 30.28 131.86 30.16 132.56 30.16C133.3 30.16 134.02 30.32 134.68 30.66C135.34 31 135.86 31.48 136.22 32.12V30.32H137.84V40.18H136.22L136.18 38.42H136.12ZM131.18 31.96C130.76 32.12 130.38 32.36 130.06 32.68C129.74 33 129.48 33.38 129.3 33.82C129.12 34.26 129.02 34.76 129.02 35.3C129.02 35.84 129.12 36.34 129.3 36.78C129.48 37.22 129.74 37.6 130.06 37.92C130.38 38.24 130.76 38.48 131.18 38.64C131.6 38.82 132.06 38.9 132.56 38.9C133.34 38.9 134 38.72 134.54 38.36C135.08 38 135.48 37.56 135.74 37.02C136 36.48 136.14 35.9 136.14 35.28C136.14 34.66 136 34.08 135.74 33.54C135.48 33 135.08 32.56 134.56 32.2C134.04 31.84 133.38 31.66 132.58 31.68C132.08 31.68 131.62 31.76 131.2 31.92L131.18 31.96Z" fill="#303030"/>
<path d="M146.7 30.32V31.72H143.62V36.96C143.62 37.54 143.72 38 143.94 38.34C144.16 38.68 144.56 38.84 145.16 38.84C145.38 38.84 145.62 38.8 145.84 38.74C146.06 38.68 146.3 38.58 146.52 38.48L147 39.84C146.66 39.98 146.34 40.1 146.04 40.18C145.74 40.26 145.42 40.3 145.08 40.32C144.02 40.34 143.22 40.06 142.72 39.48C142.22 38.88 141.96 38.04 141.96 36.96V31.72H139.98V30.32H141.96V27.66L143.6 27.06V30.3H146.66L146.7 30.32Z" fill="#303030"/>
<path d="M155.8 39.94C155.02 40.22 154.24 40.36 153.48 40.36C152.72 40.36 152.02 40.24 151.38 40C150.74 39.76 150.2 39.42 149.74 38.96C149.28 38.5 148.92 37.96 148.68 37.34C148.42 36.7 148.3 36 148.3 35.22C148.3 34.44 148.42 33.78 148.68 33.16C148.94 32.54 149.28 32 149.74 31.54C150.2 31.08 150.74 30.74 151.36 30.48C151.98 30.22 152.68 30.1 153.42 30.1C154.16 30.1 154.88 30.22 155.52 30.44C156.16 30.68 156.7 31.02 157.16 31.5C157.62 31.98 157.94 32.58 158.16 33.3C158.38 34.02 158.44 34.88 158.34 35.86H149.96C150 36.32 150.12 36.72 150.32 37.08C150.52 37.44 150.78 37.76 151.1 38C151.42 38.26 151.78 38.44 152.2 38.58C152.62 38.72 153.06 38.78 153.54 38.78C153.82 38.78 154.1 38.76 154.4 38.7C154.7 38.64 154.98 38.56 155.26 38.46C155.54 38.36 155.8 38.22 156.04 38.08C156.28 37.92 156.48 37.76 156.64 37.56L157.72 38.54C157.22 39.14 156.58 39.6 155.8 39.88V39.94ZM155.8 32.34C155.2 31.84 154.4 31.58 153.44 31.58C152.58 31.58 151.82 31.82 151.16 32.32C150.5 32.82 150.1 33.54 149.96 34.5H156.8C156.76 33.56 156.44 32.82 155.84 32.32L155.8 32.34Z" fill="#303030"/>
<path d="M166.46 30.32V31.72H163.38V36.96C163.38 37.54 163.48 38 163.7 38.34C163.92 38.68 164.32 38.84 164.92 38.84C165.14 38.84 165.38 38.8 165.6 38.74C165.82 38.68 166.06 38.58 166.28 38.48L166.76 39.84C166.42 39.98 166.1 40.1 165.8 40.18C165.5 40.26 165.18 40.3 164.84 40.32C163.78 40.34 162.98 40.06 162.48 39.48C161.98 38.88 161.72 38.04 161.72 36.96V31.72H159.74V30.32H161.72V27.66L163.36 27.06V30.3H166.42L166.46 30.32Z" fill="#303030"/>
<path d="M63.84 13.36C63.84 14.34 63.68 15.18 63.38 15.9C63.08 16.62 62.66 17.24 62.14 17.72C61.62 18.2 61.02 18.58 60.34 18.82C59.66 19.06 58.94 19.18 58.18 19.18C57.42 19.18 56.72 19.06 56.02 18.82C55.32 18.58 54.72 18.22 54.2 17.74C53.68 17.26 53.26 16.64 52.94 15.92C52.62 15.2 52.46 14.34 52.46 13.36V5.55999L54.18 4.93999V13.38C54.18 14.08 54.28 14.68 54.5 15.2C54.72 15.72 55 16.16 55.38 16.52C55.76 16.88 56.18 17.14 56.66 17.32C57.14 17.5 57.66 17.58 58.2 17.58C58.74 17.58 59.24 17.48 59.72 17.3C60.2 17.12 60.62 16.84 60.98 16.48C61.34 16.12 61.62 15.68 61.84 15.14C62.06 14.6 62.16 14 62.16 13.32V5.51999L63.88 4.89999V13.36H63.84Z" fill="#303030"/>
<path d="M72.68 9.04002V10.44H69.6V15.7C69.6 16.28 69.7 16.74 69.92 17.08C70.14 17.42 70.54 17.58 71.14 17.58C71.36 17.58 71.6 17.54 71.82 17.48C72.06 17.42 72.28 17.32 72.5 17.22L72.98 18.58C72.64 18.72 72.32 18.84 72.02 18.92C71.72 19 71.4 19.04 71.06 19.06C70 19.08 69.2 18.8 68.7 18.22C68.2 17.64 67.94 16.78 67.94 15.7V10.44H65.96V9.04002H67.94V6.40002L69.58 5.80002V9.02002H72.64L72.68 9.04002Z" fill="#303030"/>
<path d="M84.28 18.92H82.74L82.66 17.1C82.26 17.78 81.72 18.28 81.06 18.6C80.4 18.92 79.7 19.08 78.96 19.08C78.22 19.08 77.6 18.96 77 18.74C76.4 18.52 75.86 18.18 75.42 17.74C74.96 17.3 74.62 16.76 74.36 16.14C74.1 15.5 73.98 14.78 73.98 13.98C73.98 13.18 74.1 12.42 74.36 11.78C74.62 11.14 74.96 10.6 75.42 10.18C75.88 9.76 76.4 9.42 77 9.2C77.6 8.98 78.26 8.88 78.96 8.88C79.3 8.88 79.66 8.92 80.02 9C80.38 9.08 80.74 9.2 81.06 9.36C81.38 9.52 81.68 9.74 81.96 9.98C82.24 10.22 82.46 10.52 82.64 10.84V5.48L84.28 4.88V18.9V18.92ZM77.74 10.62C77.32 10.78 76.96 11 76.64 11.3C76.32 11.6 76.08 11.98 75.9 12.42C75.72 12.86 75.64 13.38 75.64 13.94C75.64 14.5 75.72 15.02 75.9 15.46C76.08 15.9 76.32 16.28 76.64 16.58C76.96 16.88 77.32 17.12 77.74 17.28C78.16 17.44 78.6 17.52 79.08 17.52C79.56 17.52 80.04 17.44 80.46 17.26C80.88 17.08 81.26 16.84 81.56 16.54C81.88 16.22 82.12 15.86 82.3 15.42C82.48 14.98 82.56 14.48 82.56 13.94C82.56 13.4 82.46 12.92 82.3 12.5C82.12 12.06 81.88 11.7 81.56 11.38C81.24 11.06 80.86 10.82 80.44 10.66C80.02 10.5 79.56 10.4 79.06 10.4C78.58 10.4 78.14 10.48 77.72 10.62H77.74Z" fill="#303030"/>
<path d="M95.14 17.16C94.94 17.5 94.7 17.8 94.44 18.04C94.16 18.28 93.88 18.5 93.56 18.66C93.24 18.82 92.9 18.94 92.56 19.02C92.22 19.1 91.86 19.14 91.54 19.14C90.84 19.14 90.18 19.02 89.56 18.78C88.94 18.54 88.4 18.2 87.96 17.76C87.5 17.32 87.16 16.78 86.9 16.14C86.64 15.5 86.52 14.78 86.52 13.98C86.52 13.18 86.66 12.46 86.92 11.84C87.18 11.22 87.54 10.68 88 10.24C88.46 9.79999 89 9.45999 89.6 9.23999C90.22 9.01999 90.88 8.89999 91.58 8.89999C92.32 8.89999 93.04 9.05999 93.7 9.39999C94.36 9.73999 94.88 10.22 95.24 10.86V9.05999H96.86V18.92H95.24L95.2 17.16H95.14ZM90.2 10.7C89.78 10.86 89.4 11.1 89.08 11.42C88.76 11.74 88.5 12.12 88.32 12.56C88.14 13 88.04 13.5 88.04 14.04C88.04 14.58 88.14 15.08 88.32 15.52C88.5 15.96 88.76 16.34 89.08 16.66C89.4 16.98 89.78 17.22 90.2 17.38C90.62 17.56 91.08 17.64 91.58 17.64C92.36 17.64 93.02 17.46 93.56 17.1C94.1 16.74 94.5 16.3 94.76 15.76C95.02 15.22 95.16 14.64 95.16 14.02C95.16 13.4 95.02 12.82 94.76 12.28C94.5 11.74 94.1 11.3 93.58 10.94C93.06 10.58 92.4 10.4 91.6 10.42C91.1 10.42 90.64 10.5 90.22 10.66L90.2 10.7Z" fill="#303030"/>
<path d="M101.1 9.04001L101.18 10.62C101.6 10.02 102.1 9.58001 102.68 9.32001C103.26 9.04001 103.88 8.92001 104.54 8.92001C105.16 8.92001 105.74 9.02001 106.26 9.22001C106.78 9.42001 107.24 9.72001 107.62 10.1C108 10.48 108.3 10.96 108.52 11.54C108.74 12.12 108.84 12.76 108.84 13.48V18.94H107.2V13.5C107.2 12.54 106.94 11.78 106.42 11.24C105.9 10.7 105.16 10.42 104.22 10.42C103.76 10.42 103.36 10.5 102.98 10.68C102.6 10.86 102.28 11.08 102.02 11.36C101.76 11.64 101.54 11.98 101.4 12.38C101.26 12.78 101.18 13.18 101.18 13.62V18.92H99.56V9.06001H101.06L101.1 9.04001Z" fill="#303030"/>
<path d="M113.04 9.04001L113.12 10.62C113.54 10.02 114.04 9.58001 114.62 9.32001C115.2 9.04001 115.82 8.92001 116.48 8.92001C117.1 8.92001 117.68 9.02001 118.2 9.22001C118.72 9.42001 119.18 9.72001 119.56 10.1C119.94 10.48 120.24 10.96 120.46 11.54C120.68 12.12 120.78 12.76 120.78 13.48V18.94H119.14V13.5C119.14 12.54 118.88 11.78 118.36 11.24C117.84 10.7 117.1 10.42 116.16 10.42C115.7 10.42 115.3 10.5 114.92 10.68C114.54 10.86 114.22 11.08 113.96 11.36C113.7 11.64 113.48 11.98 113.34 12.38C113.2 12.78 113.12 13.18 113.12 13.62V18.92H111.5V9.06001H113L113.04 9.04001Z" fill="#303030"/>
<path d="M123.58 5.71999C123.8 5.53999 124.06 5.45999 124.32 5.45999C124.58 5.45999 124.84 5.53999 125.06 5.71999C125.28 5.89999 125.4 6.15999 125.4 6.51999C125.4 6.87999 125.28 7.13999 125.06 7.31999C124.84 7.49999 124.58 7.57999 124.32 7.57999C124.06 7.57999 123.8 7.47999 123.58 7.31999C123.36 7.13999 123.24 6.87999 123.24 6.51999C123.24 6.15999 123.36 5.91999 123.58 5.73999V5.71999ZM125.12 9.03999V18.92H123.48V9.03999H125.12Z" fill="#303030"/>
<path d="M129.42 9.04001L129.5 10.62C129.92 10.02 130.42 9.58001 131 9.32001C131.58 9.06001 132.2 8.92001 132.86 8.92001C133.48 8.92001 134.06 9.02001 134.58 9.22001C135.1 9.42001 135.56 9.72001 135.94 10.1C136.32 10.48 136.62 10.96 136.84 11.54C137.06 12.12 137.16 12.76 137.16 13.48V18.94H135.52V13.5C135.52 12.54 135.26 11.78 134.74 11.24C134.22 10.7 133.48 10.42 132.54 10.42C132.08 10.42 131.68 10.5 131.3 10.68C130.92 10.86 130.6 11.08 130.34 11.36C130.08 11.64 129.86 11.98 129.72 12.38C129.58 12.78 129.5 13.18 129.5 13.62V18.92H127.88V9.06001H129.38L129.42 9.04001Z" fill="#303030"/>
<path d="M141.24 21.8C141.44 22.14 141.7 22.42 142.02 22.64C142.34 22.86 142.72 23.02 143.14 23.12C143.56 23.22 144 23.28 144.44 23.28C144.86 23.28 145.28 23.24 145.7 23.16C146.12 23.08 146.48 22.94 146.82 22.76C147.16 22.58 147.42 22.34 147.62 22.04C147.82 21.74 147.92 21.38 147.92 20.96C147.92 20.56 147.82 20.22 147.64 19.92C147.46 19.62 147.2 19.38 146.88 19.18C146.56 18.98 146.2 18.84 145.78 18.74C145.36 18.64 144.92 18.58 144.48 18.58C143.7 18.58 143 18.48 142.36 18.26C141.72 18.04 141.18 17.72 140.72 17.3C140.26 16.88 139.9 16.38 139.66 15.78C139.42 15.18 139.28 14.5 139.28 13.72C139.28 12.9 139.44 12.2 139.74 11.58C140.04 10.96 140.44 10.46 140.94 10.06C141.44 9.66002 141.98 9.34002 142.6 9.14002C143.22 8.94002 143.84 8.84002 144.48 8.84002C144.94 8.84002 145.42 8.90002 145.94 9.02002C146.46 9.14002 146.9 9.32002 147.26 9.58002L148.32 8.30002L149.48 9.22002L148.36 10.54C148.74 10.98 149.06 11.44 149.28 11.92C149.5 12.4 149.62 13 149.62 13.72C149.62 14.14 149.56 14.56 149.46 14.96C149.36 15.36 149.18 15.74 148.96 16.1C148.72 16.46 148.44 16.78 148.1 17.06C147.76 17.34 147.34 17.56 146.86 17.72C147.82 18 148.52 18.42 148.94 19C149.36 19.58 149.58 20.22 149.58 20.94C149.58 21.58 149.44 22.14 149.14 22.62C148.84 23.1 148.46 23.5 147.98 23.82C147.5 24.14 146.96 24.38 146.34 24.54C145.72 24.7 145.08 24.78 144.44 24.78C143.7 24.78 143 24.68 142.38 24.5C141.76 24.3 141.22 24.04 140.78 23.68C140.34 23.32 139.98 22.88 139.74 22.36C139.5 21.84 139.38 21.24 139.4 20.58H140.98C140.98 21.06 141.08 21.46 141.26 21.8H141.24ZM141.18 15.2C141.38 15.64 141.64 16 141.96 16.28C142.28 16.56 142.66 16.78 143.1 16.92C143.54 17.06 144 17.14 144.48 17.14C145 17.14 145.48 17.06 145.92 16.88C146.36 16.7 146.74 16.46 147.04 16.16C147.36 15.86 147.6 15.5 147.76 15.08C147.94 14.66 148.02 14.22 148.02 13.74C148.02 13.18 147.92 12.68 147.72 12.26C147.52 11.84 147.26 11.48 146.94 11.2C146.62 10.92 146.24 10.7 145.8 10.56C145.36 10.42 144.92 10.34 144.46 10.34C144.02 10.34 143.58 10.4 143.16 10.54C142.74 10.68 142.34 10.88 142 11.16C141.66 11.44 141.38 11.8 141.18 12.22C140.98 12.64 140.88 13.14 140.88 13.72C140.88 14.28 141 14.78 141.18 15.2Z" fill="#303030"/>
<path d="M156.86 10.48C156.4 10.36 155.92 10.28 155.42 10.28C155.08 10.28 154.76 10.3 154.46 10.36C154.16 10.42 153.92 10.5 153.7 10.62C153.48 10.74 153.3 10.9 153.18 11.08C153.06 11.26 153 11.48 153 11.72C153 11.98 153.06 12.18 153.2 12.36C153.34 12.54 153.52 12.68 153.76 12.78C154 12.88 154.26 12.98 154.54 13.02C154.84 13.08 155.14 13.12 155.44 13.16C155.9 13.22 156.36 13.28 156.86 13.38C157.36 13.48 157.8 13.62 158.2 13.84C158.6 14.06 158.94 14.34 159.2 14.7C159.46 15.06 159.6 15.56 159.58 16.16C159.58 16.66 159.46 17.08 159.24 17.46C159.02 17.84 158.72 18.14 158.34 18.38C157.96 18.62 157.52 18.8 157.04 18.92C156.54 19.04 156.02 19.1 155.46 19.1C154.64 19.1 153.84 18.96 153.06 18.7C152.28 18.44 151.62 17.94 151.06 17.24L152 16.1C152.44 16.64 152.98 17.04 153.62 17.26C154.26 17.5 154.9 17.6 155.5 17.6C155.76 17.6 156.04 17.58 156.34 17.54C156.64 17.5 156.9 17.42 157.14 17.3C157.38 17.18 157.58 17.02 157.74 16.84C157.9 16.64 157.98 16.4 158 16.1C158 15.84 157.94 15.62 157.8 15.44C157.66 15.26 157.48 15.12 157.24 15C157 14.88 156.72 14.78 156.4 14.72C156.08 14.64 155.72 14.6 155.36 14.56C154.88 14.5 154.4 14.42 153.94 14.32C153.48 14.22 153.06 14.06 152.68 13.84C152.3 13.62 152 13.36 151.78 13.02C151.54 12.68 151.44 12.26 151.44 11.74C151.44 11.22 151.56 10.78 151.78 10.4C152 10.02 152.32 9.72002 152.7 9.50002C153.08 9.26002 153.52 9.10002 153.98 9.00002C154.46 8.90002 154.92 8.86002 155.4 8.86002C156.14 8.86002 156.82 8.96002 157.44 9.16002C158.06 9.36002 158.62 9.70002 159.16 10.18L158.22 11.26C157.8 10.9 157.36 10.64 156.9 10.52L156.86 10.48Z" fill="#303030"/>
<path d="M166.46 14.38H161.52V12.82H166.46V14.38Z" fill="#303030"/>
<mask id="mask0_18638_3344" style="mask-type:alpha" maskUnits="userSpaceOnUse" x="0" y="0" width="41" height="48">
<path d="M14.46 29.7998C14.46 35.6798 18.3802 40.6397 23.7402 42.2197C21.4203 45.7196 17.4403 47.9999 12.9404 48C5.80043 48 0 42.1996 0 35.0596V7.28027L14.46 2.02051V29.7998ZM40.3594 29.7998C40.3594 36.9598 34.5598 42.7402 27.4199 42.7402C26.1399 42.7402 24.9198 42.5597 23.7598 42.2197C25.1197 40.1598 25.8994 37.6995 25.8994 35.0596V5.25977L40.3594 0V29.7998Z" fill="#303030"/>
</mask>
<g mask="url(#mask0_18638_3344)">
<path d="M24 40C16 43 2.33333 45.3333 -6 46V54H48V34C45 34 34.4685 36.0743 24 40Z" fill="#732982"/>
<path d="M48 26.0002L18 26H-6V46.0002C-1 46.0002 15 44.0002 23 41.0002C29.4 38.6002 42.3333 36.0002 48 35.0002V26.0002Z" fill="#004CFF"/>
<path d="M48 18H-6V36C-2 36 8 37 20 36C29.6 35.2 42.6667 29.6667 48 27V18Z" fill="#008026"/>
<path d="M48 4H-6V29C-5 29 -3.8 29.4 1 27C7 24 15 23 25 24C33 24.8 44 21.6667 48 20V4Z" fill="#FFED00"/>
<path d="M48 -2H-6V16C-6 16 -4 14 9.53674e-07 14C4 14 16 15 24 15C30.4 15 42.6667 9.66667 48 7V-2Z" fill="#FF8C00"/>
<path d="M21 8C9 8 3 8 -6 11V-8H48V3C43 6 33 8 21 8Z" fill="#E40303"/>
</g>
</g>
<defs>
<clipPath id="clip0_18638_3344">
<rect width="166.8" height="48" fill="white"/>
</clipPath>
</defs>
</svg>
