<svg width="44" height="44" viewBox="0 0 44 44" fill="none" xmlns="http://www.w3.org/2000/svg">
<g clip-path="url(#clip0_18638_3638)">
<path d="M22 44C34.1503 44 44 34.1503 44 22C44 9.84974 34.1503 0 22 0C9.84974 0 0 9.84974 0 22C0 34.1503 9.84974 44 22 44Z" fill="white"/>
<mask id="mask0_18638_3638" style="mask-type:alpha" maskUnits="userSpaceOnUse" x="10" y="8" width="24" height="28">
<path d="M18.7465 25.2985C18.7466 28.6425 20.9766 31.4634 24.0248 32.362C22.7054 34.3525 20.4415 35.6491 17.8823 35.6491C13.8216 35.6491 10.5229 32.3504 10.5229 28.2897V12.4909L18.7465 9.4987V25.2985ZM33.476 25.2985C33.4759 29.3703 30.178 32.6576 26.1176 32.6579C25.3897 32.6579 24.6953 32.5553 24.0356 32.362C24.809 31.1904 25.2524 29.7911 25.2524 28.2897V11.3415L33.476 8.35027V25.2985Z" fill="#303030"/>
</mask>
<g mask="url(#mask0_18638_3638)">
<path d="M24.1724 31.0992C19.6226 32.8054 11.85 34.1324 7.11066 34.5115V39.0613H37.8217V27.6868C36.1156 27.6868 30.126 28.8666 24.1724 31.0992Z" fill="#732982"/>
<path d="M37.8217 23.1372L20.76 23.1371H7.11066V34.5116C9.95428 34.5116 19.0539 33.3742 23.6036 31.668C27.2435 30.3031 34.599 28.8244 37.8217 28.2557V23.1372Z" fill="#004CFF"/>
<path d="M37.8217 18.5873H7.11066V28.8243C9.38555 28.8243 15.0728 29.393 21.8975 28.8243C27.3572 28.3693 34.7885 25.2224 37.8217 23.7058V18.5873Z" fill="#008026"/>
<path d="M37.8217 10.6251H7.11066V24.8432C7.67938 24.8432 8.36185 25.0707 11.0917 23.7058C14.5041 21.9996 19.0539 21.4309 24.7411 21.9996C29.2909 22.4546 35.5468 20.6726 37.8217 19.7247V10.6251Z" fill="#FFED00"/>
<path d="M37.8217 7.2128H7.11066V17.4498C7.11066 17.4498 8.2481 16.3124 10.523 16.3124C12.7979 16.3124 19.6226 16.8811 24.1724 16.8811C27.8122 16.8811 34.7885 13.8479 37.8217 12.3313V7.2128Z" fill="#FF8C00"/>
<path d="M22.4661 12.9001C15.6414 12.9001 12.229 12.9001 7.11053 14.6062V3.80048H37.8216V10.0564C34.978 11.7626 29.2908 12.9001 22.4661 12.9001Z" fill="#E40303"/>
</g>
</g>
<defs>
<clipPath id="clip0_18638_3638">
<rect width="44" height="44" fill="white"/>
</clipPath>
</defs>
</svg>
