<svg width="48" height="48" viewBox="0 0 48 48" fill="none" xmlns="http://www.w3.org/2000/svg">
<g clip-path="url(#clip0_18638_3461)">
<path d="M24 48C37.2548 48 48 37.2548 48 24C48 10.7452 37.2548 0 24 0C10.7452 0 0 10.7452 0 24C0 37.2548 10.7452 48 24 48Z" fill="#76C69D"/>
<mask id="mask0_18638_3461" style="mask-type:alpha" maskUnits="userSpaceOnUse" x="11" y="9" width="26" height="30">
<path d="M20.4512 27.5977C20.4512 31.2456 22.8827 34.3233 26.208 35.3037C24.7686 37.4751 22.2997 38.8896 19.5078 38.8896C15.078 38.8896 11.4795 35.2912 11.4795 30.8613V13.626L20.4512 10.3623V27.5977ZM36.5195 27.5977C36.5195 32.0399 32.9211 35.626 28.4912 35.626C27.6972 35.626 26.9403 35.5146 26.2207 35.3037C27.0645 34.0256 27.5488 32.4992 27.5488 30.8613V12.373L36.5195 9.10938V27.5977Z" fill="#303030"/>
</mask>
<g mask="url(#mask0_18638_3461)">
<path d="M26.3699 33.9264C21.4064 35.7877 12.9273 37.2353 7.75708 37.6489V42.6123H41.2601V30.2038C39.3988 30.2038 32.8648 31.4908 26.3699 33.9264Z" fill="#732982"/>
<path d="M41.2601 25.2406L22.6473 25.2404H7.75708V37.6491C10.8592 37.6491 20.786 36.4082 25.7494 34.5469C29.7202 33.0579 37.7443 31.4448 41.2601 30.8244V25.2406Z" fill="#004CFF"/>
<path d="M41.2601 20.277H7.75708V31.4447C10.2388 31.4447 16.443 32.0651 23.8882 31.4447C29.8442 30.9483 37.9511 27.5153 41.2601 25.8608V20.277Z" fill="#008026"/>
<path d="M41.2601 11.591H7.75708V27.1017C8.37751 27.1017 9.12202 27.3499 12.1001 25.8608C15.8226 23.9996 20.786 23.3791 26.9903 23.9996C31.9537 24.4959 38.7784 22.5519 41.2601 21.5178V11.591Z" fill="#FFED00"/>
<path d="M41.2601 7.8685H7.75708V19.0362C7.75708 19.0362 8.99793 17.7953 11.4796 17.7953C13.9613 17.7953 21.4064 18.4157 26.3699 18.4157C30.3406 18.4157 37.9511 15.1068 41.2601 13.4523V7.8685Z" fill="#FF8C00"/>
<path d="M24.5085 14.0728C17.0633 14.0728 13.3408 14.0728 7.75696 15.9341V4.14597H41.26V10.9707C38.1578 12.8319 31.9536 14.0728 24.5085 14.0728Z" fill="#E40303"/>
</g>
</g>
<defs>
<clipPath id="clip0_18638_3461">
<rect width="48" height="48" fill="white"/>
</clipPath>
</defs>
</svg>
